<svg xmlns="http://www.w3.org/2000/svg" viewBox="0 0 242.99 210.96"><defs><style>.cls-1{fill:#fff;}.cls-2{fill:#efa02f;}.cls-3{fill:none;}.cls-4{fill:#465777;}</style></defs><title>kombucha</title><g id="Layer_2" data-name="Layer 2"><path class="cls-1" d="M63.07,33.86A308.2,308.2,0,0,0,66.89,82c1.83,11.53,2,51.64,1.55,60.15-.75,15.32,2.89,30.48,6.51,45.39.62,2.56,1.32,5.26,3.18,7.12s4.28,2.48,6.69,3.06a115.63,115.63,0,0,0,64.93-3.38,20.9,20.9,0,0,0,7.09-3.7c2.7-2.41,4.08-5.93,5.38-9.31,9.56-25,20.12-108.4,24.46-123.16,3.58-12.2,11.19-25,6.08-36.68C188,10.59,174.5,7,162.74,5.07,131.69,0,97.36-2.13,71.27,15.44c-3.6,2.43-7.08,5.33-8.89,9.27s-1.5,9.12,1.72,12"/><path class="cls-2" d="M76,49.55c3.65,23.63,7.31,47.32,8.2,71.21.67,17.82-.17,36,4.7,53.15A10.91,10.91,0,0,0,91,178.44c1.39,1.52,3.46,2.19,5.45,2.73a94.63,94.63,0,0,0,50.15-.18,18.21,18.21,0,0,0,7.16-3.31c3.76-3.25,4.56-8.68,5.11-13.61q6.26-55.38,12.49-110.76c.27-2.41.48-5.07-.92-7.05s-4.24-2.72-6.75-3.17a308.28,308.28,0,0,0-62.82-4.6c-10.42.31-23.19,2.91-26.18,12.9"/><rect class="cls-3" x="109.89" y="146.97" width="50.66" height="48.27" transform="translate(-78.78 129.11) rotate(-40.58)"/><path class="cls-4" d="M149.79,176.47h.13l.11-.06a.28.28,0,0,0,.09-.25V176a.34.34,0,0,0-.23-.15.32.32,0,0,0-.27.07.28.28,0,0,0-.1.27l.09.11a.28.28,0,0,0,.12.16Z"/><path class="cls-4" d="M141,172.92l-.05,0-.06,0a.47.47,0,0,0-.12.48l.1.11.11,0,.17,0,.1-.09,0,0,.09,0,.07-.12v-.16a.45.45,0,0,0-.31-.21Z"/><path class="cls-4" d="M136.63,168.4l.07-.06.05-.11v-.11l0-.11a.55.55,0,0,0-.3-.14h-.15l-.11.06-.08.12a.32.32,0,0,0,.27.35h0l.06,0,.11,0Z"/><path class="cls-4" d="M153.09,157.05a.29.29,0,0,0,.07-.35l-.08-.12-.12-.06-.16,0h0a.27.27,0,0,0-.09.31l.07.15.11.07Z"/><path class="cls-4" d="M125.13,172.7a.29.29,0,0,0,.13.22l.11,0h.1l0,0,.1,0,.07-.07,0-.1a.3.3,0,0,0-.18-.29h0l-.07,0h-.12l-.12,0A.35.35,0,0,0,125.13,172.7Z"/><path class="cls-4" d="M135.25,167.11l0,0a.5.5,0,0,0-.07.42l.09.12.1.06h.16l.09,0h.08l.09,0,.08-.06h0a.34.34,0,0,0,.19-.08h0l0-.05a.43.43,0,0,0,.16-.09.24.24,0,0,0,.08-.24l-.06-.09a.32.32,0,0,0-.13-.22l-.11,0h-.09l-.09.05-.1.1h0l-.05,0h-.14l0,0a.42.42,0,0,0-.23.06Z"/><path class="cls-4" d="M152.36,167.62l.08,0a.28.28,0,0,0,.1-.31v0h0a.35.35,0,0,0-.12-.26l-.1,0h-.09l-.1,0,0,0a.28.28,0,0,0-.1.21.29.29,0,0,0,0,.09.29.29,0,0,0,.13.32l.11,0Z"/><path class="cls-4" d="M135.31,147.39l.05,0,0,0a.29.29,0,0,0,.07-.35l0-.11-.08-.07-.12,0a.33.33,0,0,0-.18.08.31.31,0,0,0,.16.54Z"/><path class="cls-4" d="M157.62,172a.23.23,0,0,0,.11,0l.07-.07,0-.12a.29.29,0,0,0-.12-.38l-.1,0h-.09l-.12.05a.68.68,0,0,0-.16.09.33.33,0,0,0-.11.15l.08.19h0l0,0a.28.28,0,0,0,.2.15A.24.24,0,0,0,157.62,172Z"/><path class="cls-4" d="M141.69,151.38l.07-.11v-.11h0a.34.34,0,0,0-.12-.4h-.15l-.16.07,0,0a.31.31,0,0,0-.09.14.31.31,0,0,0-.06.13v.08l0,.08.06.06A.38.38,0,0,0,141.69,151.38Z"/><path class="cls-4" d="M139.92,148.25a.3.3,0,0,0,.16.05l.13-.05a.25.25,0,0,0,.21-.05l0,0,0-.08v-.15a.32.32,0,0,0-.06-.26.4.4,0,0,0-.28-.16.43.43,0,0,0-.35.1.42.42,0,0,0-.08.55l.09.07Z"/><path class="cls-4" d="M146.44,156.52l0,0,0,.11v.09l0,.1,0,0,.09.05.12,0a.28.28,0,0,0,.13,0l.08-.14v-.08h0a.24.24,0,0,0-.36-.28l0,0Z"/><path class="cls-4" d="M145.58,168.55h0a.24.24,0,0,0-.1.13.24.24,0,0,0,0,.16h0a.25.25,0,0,0-.06.32l.1.08h.07a.34.34,0,0,0,.11.05l0,0,.11.06.18,0-.08-.12h0l.14.1.16-.08.07-.14a.31.31,0,0,0,.08-.27v0l-.06-.11a.34.34,0,0,0-.1-.16l-.09-.13-.13,0a.23.23,0,0,0-.31,0A.21.21,0,0,0,145.58,168.55Z"/><path class="cls-4" d="M153.86,164.13a.51.51,0,0,0-.12.13l0,.07v.17a.35.35,0,0,0,.42.18l.1,0,.07-.06.05-.09a.24.24,0,0,0,0-.15v-.05l0-.13A.32.32,0,0,0,153.86,164.13Z"/><path class="cls-4" d="M139.2,164.07h0a.25.25,0,0,0,.19,0h.18l.09,0a.39.39,0,0,0,.12-.16h0l.06-.08,0-.1c0-.42-.46-.45-.6-.46l-.14.09v0a.25.25,0,0,0-.08.05l0,0,0,.06a.29.29,0,0,0,0,.15v.15a.36.36,0,0,0,.13.26Z"/><path class="cls-4" d="M156.27,182.59h.08a.31.31,0,0,0,.32,0l.1-.08,0-.09,0-.08-.07,0h.08v-.1l-.06-.12a.09.09,0,0,1,0,.07.35.35,0,0,0-.17-.36l0,0a.75.75,0,0,0-.42,0l-.08.06-.05.08,0,0-.06.11v.1l0,.12a.24.24,0,0,1,.06.1,1,1,0,0,0,.07.15Z"/><path class="cls-4" d="M126.78,147.08h.11a.46.46,0,0,0,.19-.09.26.26,0,0,0,.09-.17.33.33,0,0,0-.09-.23l-.11-.05h-.1l-.11,0-.12.1,0,.11v.1l.06.13.07.05Z"/><path class="cls-4" d="M135,156.43l.05-.11v-.1l-.05-.11,0,0a.37.37,0,0,0-.17-.28l-.07,0a.3.3,0,0,0-.23.06.29.29,0,0,0-.1.21v0l-.05.1.05.17A.38.38,0,0,0,135,156.43Z"/><path class="cls-4" d="M129.93,156.75l.09-.06.06-.09v-.12c-.06-.26-.2-.35-.3-.37l-.06,0h0a.33.33,0,0,0-.3.06l0,0,0,.12v.09a.3.3,0,0,0,.05.25l.06.05A.66.66,0,0,0,129.93,156.75Z"/><path class="cls-4" d="M137.56,162h.07l0,0a.35.35,0,0,0,.14-.06l.07-.09v-.13l0-.09a.37.37,0,0,0-.23-.25.29.29,0,0,0-.24,0l-.06.06,0,.06,0,.08a.38.38,0,0,0,0,.34.26.26,0,0,0,.24.1Z"/><path class="cls-4" d="M140.63,155.52h.09l.09,0,.07-.06a.38.38,0,0,0,.15-.32l0-.09a.38.38,0,0,0-.4-.19l-.09.06-.06.08,0,.08a.35.35,0,0,0,.12.46Z"/><path class="cls-4" d="M144.49,164.58h0a.29.29,0,0,0,.18,0l.05,0,0-.06,0-.07v-.07l0,0,0-.11,0-.13a.27.27,0,0,0-.39-.06h0l-.15.06,0,0,0,.17.05.14a.23.23,0,0,0,.16.19Z"/><path class="cls-4" d="M150.06,170.38a.29.29,0,0,0,.1.26.29.29,0,0,0,.24,0l.09-.11,0-.11h0a.31.31,0,0,0-.06-.29.26.26,0,0,0-.26-.07l-.11.1,0,.11Z"/><path class="cls-4" d="M163.41,165.93l.16,0,.12-.1.05-.14,0-.13a.31.31,0,0,0-.11-.22l-.08,0h-.09l-.09,0,0,0a.25.25,0,0,0-.09.12h0l0,.07,0,.12,0,.14h0l.06.1Z"/><path class="cls-4" d="M145.46,147a.28.28,0,0,0,.27-.05l.05-.08,0-.07v-.11a.49.49,0,0,0,0-.23l-.1-.1-.11,0-.14,0-.05,0c-.29.25-.2.45-.12.55l.13.06Z"/><path class="cls-4" d="M121,192.09l-.06,0,0,.09v.09l0,.1a.29.29,0,0,0,.21.14c.09,0,.17,0,.28-.11h0l0-.08v-.16a.29.29,0,0,0-.21-.19A.3.3,0,0,0,121,192.09Z"/><path class="cls-4" d="M125.63,181.87l.1,0,0,0,0-.1,0-.11a.25.25,0,0,0,0-.14l-.12-.08h-.13l-.11,0a.27.27,0,0,0-.11.23.24.24,0,0,0,.11.2l.09,0Z"/><path class="cls-4" d="M129,184.93a.41.41,0,0,0,.28-.11.29.29,0,0,0,.06-.43h0a.28.28,0,0,0-.3-.11l-.09,0a.31.31,0,0,0-.08.1l-.06.09v.17a.36.36,0,0,0,0,.1l0,.07.06.05Z"/><path class="cls-4" d="M120.18,178h.06l.06,0,.06,0a.41.41,0,0,0,.15-.33.46.46,0,0,0-.23-.33l-.09,0h-.08l-.12,0a.51.51,0,0,0-.17.08l-.06.07,0,.08v.08a.49.49,0,0,0,.38.39Z"/><path class="cls-4" d="M122.81,181.33l.07-.07,0-.1v-.09l0-.11-.1-.12-.09-.05-.08,0-.12,0a.73.73,0,0,0-.18.11.36.36,0,0,0-.12.29l0,.09a.36.36,0,0,0,.25.17A.44.44,0,0,0,122.81,181.33Z"/><path class="cls-4" d="M109.86,165.1l.08-.09,0-.14a.31.31,0,0,0,0-.18l-.11-.08-.12,0h-.09v.16l0-.16-.12.11,0,.12.05.17C109.66,165.17,109.79,165.14,109.86,165.1Z"/><path class="cls-4" d="M117.56,167.48l.06-.1v-.09l0-.11a.33.33,0,0,0-.23-.17.31.31,0,0,0-.26.08l0,0,0,.1v.1l0,.1A.35.35,0,0,0,117.56,167.48Z"/><path class="cls-4" d="M134.86,189.42l0-.09v.1h.1l.12-.05a.39.39,0,0,0,0-.49l-.08-.06-.09,0h-.11l-.08,0a.34.34,0,0,0-.09.19.26.26,0,0,0,0,.28l.09.07Z"/><path class="cls-4" d="M120.94,175.46H121l.09,0,.07-.06,0-.11v-.11l-.06-.13a.26.26,0,0,0-.35-.09l-.07.07,0,.1a.29.29,0,0,0,.14.36Z"/><path class="cls-4" d="M124.55,153.58a.33.33,0,0,0,.12-.21l0-.11,0,0c-.07-.09-.23-.21-.49,0l0,.08h0l0,.09v.1a.32.32,0,0,0,.23.18A.31.31,0,0,0,124.55,153.58Z"/><path class="cls-4" d="M131.22,191.56a.4.4,0,0,0,.1-.12l0-.09v-.09l0-.08-.06-.08-.09,0h-.09l-.15.05,0,0-.05,0,0,.05,0,.09v.08l0,.1a.33.33,0,0,0,.23.14A.26.26,0,0,0,131.22,191.56Z"/><path class="cls-4" d="M125.39,189.62l.08-.13v-.08a.28.28,0,0,0-.06-.27l-.06,0-.07,0h-.08a.27.27,0,0,0-.14.07.29.29,0,0,0,.33.48Z"/><path class="cls-4" d="M116.57,187.16l0,.14.11.13.1,0h.1l.14-.06,0,0,0,0v-.06a.28.28,0,0,0-.1-.26.36.36,0,0,0-.3-.08l-.11.1Z"/><path class="cls-4" d="M109.75,170.55h0v0a.28.28,0,0,0,.31,0h0l.06,0,0,0a.41.41,0,0,0,.16-.3.48.48,0,0,0-.17-.34l-.12,0H110a.26.26,0,0,0-.23.06.35.35,0,0,0-.07.09h0l0,0a.25.25,0,0,0,0,.32l.06.06Z"/><path class="cls-4" d="M107,177a.3.3,0,0,0,.2,0,.28.28,0,0,0,.21-.07.63.63,0,0,0,.17-.4v-.08l0-.07a.48.48,0,0,0-.33-.24.47.47,0,0,0-.37.12l-.09.08,0,.09v.17s0,0,0,.06S106.74,176.92,107,177Z"/><path class="cls-4" d="M119.26,163.71a.38.38,0,0,0-.13.22V164l0,.06,0,.07c.23.26.41.15.48.09l.06-.06,0-.12v-.1l0-.08a.29.29,0,0,0-.08-.16l-.09,0h-.09l-.1,0Z"/><path class="cls-4" d="M114.36,173.11l0,0,.06,0h0a.28.28,0,0,0,.12-.23.2.2,0,0,0,0-.13l0-.07-.06-.06-.06,0h0a.28.28,0,0,0-.35-.09l0,0a.37.37,0,0,0-.13.41.36.36,0,0,0,.33.25Z"/><path class="cls-4" d="M116.56,181.48a.22.22,0,0,0,.27,0,.24.24,0,0,0,.15-.06.23.23,0,0,0,.09-.19v-.06l0,0L117,181a.42.42,0,0,0-.08-.17l-.09-.06-.1,0h-.16l-.08,0a.48.48,0,0,0-.11.58l.12.08Z"/><path class="cls-4" d="M132.44,197h0l-.14.07h0l-.06,0a.24.24,0,0,0-.06.26l0,0,.07.07.1.08.14.1.11,0,.1,0,.12-.11a.37.37,0,0,0-.06-.56A.24.24,0,0,0,132.44,197Z"/><path class="cls-4" d="M114.89,176.67v-.22l0,0h0l-.09-.1h0l0,0h-.22a.26.26,0,0,0,0,.39.31.31,0,0,0,.2.11A.3.3,0,0,0,114.89,176.67Z"/><path class="cls-4" d="M125.93,163.28l0,.13v0h0a.34.34,0,0,0,.12.22.19.19,0,0,0,.18.06l.12,0,.13,0a.31.31,0,0,0,.1-.15h0l0-.07h0v0l0-.1,0-.11a.37.37,0,0,0-.29-.19.44.44,0,0,0-.34.08A.38.38,0,0,0,125.93,163.28Z"/><path class="cls-4" d="M133.56,173.53h.17l.07,0,.07,0,0-.05h0l.09-.06.06-.11a.34.34,0,0,0,0-.18V173l-.14-.16a.28.28,0,0,0-.23-.09h0a.26.26,0,0,0-.24,0,.24.24,0,0,0-.08.22v.15a.25.25,0,0,0,0,.09v.05a.23.23,0,0,0,.09.18Z"/><path class="cls-4" d="M128.43,167.4h0l0,0h.1l.1,0a.31.31,0,0,0,.23-.06.32.32,0,0,0,.09-.17h0l0-.13s0,0,0-.05a.34.34,0,0,0,0-.2l-.1-.09,0,0-.07-.1-.08-.06-.08,0h-.15a.75.75,0,0,0-.33.16l0,0,0,.08,0,.08,0,.09,0,.06a.2.2,0,0,0,0,.1h0v.11l0,.1A.38.38,0,0,0,128.43,167.4Z"/><path class="cls-4" d="M120.75,157.43h.11a.19.19,0,0,0,.09-.05A.3.3,0,0,0,121,157a.28.28,0,0,0-.39-.07l-.06.08,0,.09v.13a.26.26,0,0,0,0,.11l.08.08Z"/><path class="cls-4" d="M140,178l0,0,0,0,.07,0,.11-.07.05-.1v-.15a.41.41,0,0,0-.11-.24h0a.23.23,0,0,0-.22-.09h-.14l-.16.08-.06.08-.06.06-.05.08v.18a.64.64,0,0,0,.36.32Z"/><path class="cls-4" d="M133.37,176.73a.23.23,0,0,0,.14,0,.17.17,0,0,0,.12,0,.35.35,0,0,0,.13-.08.63.63,0,0,0,.21-.4v-.07l0-.07,0,0a.6.6,0,0,0-.79,0l0,.06,0,0,0,.06a.35.35,0,0,0,0,.14.23.23,0,0,0,0,.17l.08.05A.26.26,0,0,0,133.37,176.73Z"/><path class="cls-4" d="M145.23,183.51l-.08.05a.35.35,0,0,0-.08.11l0,.09v.09l0,.09.1.12.11.06h.1l.11,0,.09-.09,0-.05,0-.06v-.07a.43.43,0,0,0-.15-.29l-.08,0h-.09Z"/><path class="cls-4" d="M136.39,171.22l.11,0h0a.25.25,0,0,0,.2,0,.46.46,0,0,0,.17-.09l.08-.08,0-.05,0-.09v-.09l0-.1a.35.35,0,0,0-.24-.17l-.13,0-.11,0,0,0a.33.33,0,0,0-.2.09l-.05.05,0,.1v.1l.05.11h0Z"/><path class="cls-4" d="M116.11,161a.44.44,0,0,0,.18.05.19.19,0,0,0,.1,0,.23.23,0,0,0,.18-.05.36.36,0,0,0,.08-.12v-.12a.45.45,0,0,0-.12-.37l-.08,0-.07,0h-.09a.89.89,0,0,0-.23.13.42.42,0,0,0-.13.4l.09.11.06,0Z"/><path class="cls-4" d="M138.47,188.12a.27.27,0,0,0-.21,0l-.07.11v0a.29.29,0,0,0-.05.22.24.24,0,0,0,.09.14.35.35,0,0,0,.48,0,.64.64,0,0,0,.11-.16l0-.06v-.06l0-.07A.33.33,0,0,0,138.47,188.12Z"/><path class="cls-4" d="M146.07,193.44h.07l.09,0a.71.71,0,0,0,.18-.12.39.39,0,0,0,.16-.3.4.4,0,0,0-.16-.31l-.11,0h-.1l-.09,0h-.06l-.1,0-.07.07-.06.13a.42.42,0,0,0,.17.49Z"/><path class="cls-4" d="M140.63,191l0,0-.08,0h-.09a.18.18,0,0,0-.09.06.39.39,0,0,0-.12.44.26.26,0,0,0,.26.15l0,0h.06l.13,0a.48.48,0,0,0,.17-.33l0-.08,0-.06-.06-.06Z"/><path class="cls-4" d="M130.62,162.48h.15a.47.47,0,0,0,.16-.07l.06-.08,0-.06a.31.31,0,0,0-.08-.31.41.41,0,0,0-.39-.09l-.1.08,0,.1v.14a.4.4,0,0,0,.14.25Z"/><path class="cls-4" d="M128.17,177.22l.06,0,.06,0c.06-.06.11-.15,0-.34s-.23-.2-.26-.2H128l-.06,0-.05,0a.24.24,0,0,0,0,.3s.12.22.28.24Z"/><path class="cls-4" d="M129.88,172.33l0,.17.09,0h.1l.1,0,.15-.12,0-.06,0-.06v-.07c0-.07,0-.23-.28-.27a.23.23,0,0,0-.33,0,.31.31,0,0,0-.07.09h0l-.06.09,0,.12a.36.36,0,0,0,.21.26Z"/><path class="cls-4" d="M126.69,176.57h0a.7.7,0,0,0,.17-.09l.06-.06,0-.07,0-.09v-.07a.64.64,0,0,0-.25-.39l-.08,0h-.09l-.11,0-.07,0,0,0a.31.31,0,0,0-.07.09h-.06a.4.4,0,0,0-.13.38v.09l0,.08,0,.08A.42.42,0,0,0,126.69,176.57Z"/><path class="cls-4" d="M124,168.31a.24.24,0,0,0,0-.3.34.34,0,0,0-.39-.13l-.1.13,0,.12.06.15A.31.31,0,0,0,124,168.31Z"/><path class="cls-4" d="M124.13,171.88h.15a.66.66,0,0,0,.18-.1.28.28,0,0,0,.09-.29l-.06-.06a.29.29,0,0,0-.17-.19h-.18a.34.34,0,0,0-.21.08v0l0,.11v.11l0,.09a.39.39,0,0,0,0,.13l.09.08Z"/><path class="cls-4" d="M136.75,184l-.08,0,0,0a.42.42,0,0,0-.13.07.4.4,0,0,0-.1.12l0,.09v.08l0,.11a.36.36,0,0,0,.11.21.2.2,0,0,0,.15.06.24.24,0,0,0,.29,0l.06-.08a.16.16,0,0,0,.08-.06.28.28,0,0,0,.12-.27l0-.06,0-.05,0,0a.51.51,0,0,0-.3-.24Z"/><path class="cls-4" d="M125,171.34h.12l.1,0,.06-.05a.39.39,0,0,0,.16-.08l.06-.08,0-.09,0-.14a.43.43,0,0,0-.18-.24l-.08,0h-.08l-.12,0a.38.38,0,0,0-.18.09.3.3,0,0,0-.11.31l.09.12h.05v0A.36.36,0,0,0,125,171.34Z"/><rect class="cls-3" x="124.9" y="129.73" width="47.05" height="44.83" transform="translate(-21.73 279.53) rotate(-82.53)"/><path class="cls-4" d="M161.82,146.8l.05,0,0-.05a.19.19,0,0,0,0-.1.23.23,0,0,0-.09-.23l0,0-.08-.08a.28.28,0,0,0-.25,0,.31.31,0,0,0-.15.22.26.26,0,0,0,.11.24l.12,0a.24.24,0,0,0,.18,0Z"/><path class="cls-4" d="M153.53,149.83l0,0,0,.06a.46.46,0,0,0,.22.41h.13l.1-.05.09-.13,0-.12h0l0-.08,0-.12-.11-.11a.42.42,0,0,0-.34,0Z"/><path class="cls-4" d="M147.72,149.4v-.08l0-.11-.07-.08-.1,0a.46.46,0,0,0-.29.09l-.11.09,0,.11,0,.13a.29.29,0,0,0,.4.08h.07l.08-.06Z"/><path class="cls-4" d="M152,131.35a.29.29,0,0,0-.17-.3l-.13,0-.12,0-.09.11h0a.26.26,0,0,0,.14.27l.13.06h.12Z"/><path class="cls-4" d="M142.44,159.51a.28.28,0,0,0,.23.07l.1,0,.06-.08v-.05l0-.09v-.09l0-.1a.25.25,0,0,0-.3-.08h-.07l-.09.07-.05.11A.33.33,0,0,0,142.44,159.51Z"/><path class="cls-4" d="M146,149.37v0a.5.5,0,0,0,.22.33l.14,0,.1,0,.11-.1.08,0,.06,0,.05-.07a.31.31,0,0,0,0-.08v0a.27.27,0,0,0,.08-.17h0l0,0a.59.59,0,0,0,.06-.16.23.23,0,0,0-.09-.22l-.1,0a.27.27,0,0,0-.23-.07l-.08,0-.06.06,0,.09s0,.09,0,.14h-.06l-.1.08v.05a.47.47,0,0,0-.12.19Z"/><path class="cls-4" d="M158.1,139.1l0-.08a.3.3,0,0,0-.13-.28h0v0a.36.36,0,0,0-.25-.1l-.09,0-.06.05-.05.08v0a.26.26,0,0,0,.07.21l.06,0a.26.26,0,0,0,.29.14l.09-.05Z"/><path class="cls-4" d="M133.76,135.71l0-.05v0a.26.26,0,0,0-.17-.28l-.1,0h-.1l-.1,0a.38.38,0,0,0-.08.17.29.29,0,0,0,.45.28Z"/><path class="cls-4" d="M164.47,138.88a.15.15,0,0,0,.06-.09v-.09l0-.11a.29.29,0,0,0-.32-.19l-.09,0-.05.07-.06.1a.6.6,0,0,0,0,.16.37.37,0,0,0,0,.18l.17.08h0v0a.22.22,0,0,0,.23,0A.19.19,0,0,0,164.47,138.88Z"/><path class="cls-4" d="M140.64,134.5l0-.11-.05-.09h0a.29.29,0,0,0-.33-.2l-.11.08-.07.15v0a.29.29,0,0,0,0,.16.27.27,0,0,0,0,.12l.06.06.07,0h.08A.36.36,0,0,0,140.64,134.5Z"/><path class="cls-4" d="M137.48,133.44a.26.26,0,0,0,.14-.07.26.26,0,0,0,.07-.11.23.23,0,0,0,.1-.16V133l0-.07,0-.05-.06-.06a.27.27,0,0,0-.2-.14.36.36,0,0,0-.3.06.42.42,0,0,0-.17.29.37.37,0,0,0,.28.42h.11Z"/><path class="cls-4" d="M147.12,135.11v0l0,.1.06.07.09,0h0l.1,0,.09-.06a.23.23,0,0,0,.07-.1l0-.14-.05-.06h0a.22.22,0,0,0-.23-.14.21.21,0,0,0-.19.17v0A.24.24,0,0,0,147.12,135.11Z"/><path class="cls-4" d="M154,144h0a.42.42,0,0,0,0,.16.29.29,0,0,0,.09.12h0a.25.25,0,0,0,.16.26h.12l0,0a.35.35,0,0,0,.11,0h0l.12,0,.12-.13-.14,0h.16l.06-.15,0-.15a.3.3,0,0,0-.11-.23l0,0-.11,0a.21.21,0,0,0-.16,0l-.15,0-.12,0a.21.21,0,0,0-.21.19A.19.19,0,0,0,154,144Z"/><path class="cls-4" d="M157,135.76a.86.86,0,0,0,0,.15l0,.08,0,0,.06.05a.31.31,0,0,0,.4-.13l.05-.09v-.09l0-.09a.23.23,0,0,0-.11-.09l0,0-.11-.06A.3.3,0,0,0,157,135.76Z"/><path class="cls-4" d="M146.8,144.82l0,0a.24.24,0,0,0,.13-.11l0,0,.06,0,0,0,0-.09a.32.32,0,0,0,0-.18v-.11l-.05-.09a.51.51,0,0,0-.69.06l0,.15v0l0,.08v.09a.24.24,0,0,0,.09.12l.07.11a.4.4,0,0,0,.26.1Z"/><path class="cls-4" d="M170.09,147l0-.06a.28.28,0,0,0,.21-.21l0-.12,0-.08,0-.08-.06,0,.05-.05-.05-.07-.11,0,.07,0a.35.35,0,0,0-.34-.15l-.05,0a.74.74,0,0,0-.29.26v.18a.07.07,0,0,0,0,.05l0,.1.06.08.1.06.1,0,.14.06Z"/><path class="cls-4" d="M127.68,140.79l.07-.07a.38.38,0,0,0,.08-.17.27.27,0,0,0,0-.18.28.28,0,0,0-.21-.1l-.1,0-.08,0-.05.1,0,.14,0,.11.06.07.12.06h.08Z"/><path class="cls-4" d="M139.14,142.16l0-.1-.06-.08-.1,0h0a.33.33,0,0,0-.29-.08l-.07,0a.26.26,0,0,0-.12.19.32.32,0,0,0,.06.2h0l0,.09.14.1A.36.36,0,0,0,139.14,142.16Z"/><path class="cls-4" d="M135.86,145.52l0-.11,0-.09-.06-.09a.38.38,0,0,0-.44-.07l0,.05h0a.29.29,0,0,0-.17.23v0l.05.11.06.06a.24.24,0,0,0,.19.14h.07A.62.62,0,0,0,135.86,145.52Z"/><path class="cls-4" d="M144.37,144.39l0,0v0a.21.21,0,0,0,.05-.13v-.1l0-.06-.05,0-.07-.05a.36.36,0,0,0-.31,0,.23.23,0,0,0-.15.17v.14l0,.07a.31.31,0,0,0,.22.21.25.25,0,0,0,.23-.07Z"/><path class="cls-4" d="M142.49,138l.06-.06,0-.07,0-.09a.39.39,0,0,0-.1-.31l-.08,0a.35.35,0,0,0-.4.12l0,.09v.09l0,.08a.34.34,0,0,0,.37.24Z"/><path class="cls-4" d="M150.77,141.88l0,0a.26.26,0,0,0,.11-.14v-.12l0-.07-.05-.05v0l-.06-.09-.1-.06a.25.25,0,0,0-.31.2h0a.3.3,0,0,0-.06.14v0l.08.13.13.06a.2.2,0,0,0,.22,0Z"/><path class="cls-4" d="M158.22,142.43a.26.26,0,0,0,.23.11.23.23,0,0,0,.18-.13v-.13l0-.09-.05,0,.05,0a.29.29,0,0,0-.21-.17.28.28,0,0,0-.23.12l0,.13,0,.11Z"/><path class="cls-4" d="M164.68,131.07l.1-.11,0-.15-.05-.13-.09-.07a.3.3,0,0,0-.21-.08l-.08,0-.07,0-.05.08v0a.24.24,0,0,0,0,.14h0l0,.07.06.1.12.06h0l.1,0Z"/><path class="cls-4" d="M140.51,129.11a.27.27,0,0,0,.15-.2v-.09l0-.06-.07-.08a.35.35,0,0,0-.15-.15h-.13l-.1,0-.07.11v.06c-.05.35.14.43.26.45l.12,0Z"/><path class="cls-4" d="M151.64,175.46v.07l0,.09.05.06.07,0a.3.3,0,0,0,.24,0c.07,0,.11-.11.13-.25h0l0-.09,0-.06-.06,0a.29.29,0,0,0-.26,0A.29.29,0,0,0,151.64,175.46Z"/><path class="cls-4" d="M148.49,165.53l0-.08v-.06l0-.1-.06-.08a.26.26,0,0,0-.11-.08l-.14,0-.09.07-.05.1a.3.3,0,0,0,.07.23.24.24,0,0,0,.2.07l.09,0Z"/><path class="cls-4" d="M152.68,165.58a.37.37,0,0,0,.13-.25.27.27,0,0,0-.22-.33h0a.26.26,0,0,0-.27.12l0,.08a.21.21,0,0,0,0,.12v.1l.1.12.08.06h.15Z"/><path class="cls-4" d="M142.3,166.23l0,0,0-.05a.25.25,0,0,0,0-.07.34.34,0,0,0-.1-.31.45.45,0,0,0-.37-.09l-.07,0-.05.06-.06.1a.73.73,0,0,0-.07.17v.07l0,.07.05.07a.44.44,0,0,0,.5,0Z"/><path class="cls-4" d="M146.2,166.91s0-.06,0-.09l0-.09,0-.07-.09,0-.15,0-.09,0-.07,0-.07.08a.78.78,0,0,0-.05.18.32.32,0,0,0,.09.28l.08,0a.3.3,0,0,0,.28,0A.41.41,0,0,0,146.2,166.91Z"/><path class="cls-4" d="M127.18,163.74v-.11l-.07-.12a.25.25,0,0,0-.12-.1h-.13l-.1.06,0,.06.1.1-.11-.09,0,.15,0,.11.14.08A.24.24,0,0,0,127.18,163.74Z"/><path class="cls-4" d="M134,160.6v-.1l-.05-.07-.08-.06a.32.32,0,0,0-.27,0,.32.32,0,0,0-.13.22v.06l0,.09.06.07.09,0A.31.31,0,0,0,134,160.6Z"/><path class="cls-4" d="M159.55,165l0-.08.06.06.07-.05.06-.12a.38.38,0,0,0-.28-.36h-.1l-.08,0-.07.07,0,.08a.23.23,0,0,0,0,.18.25.25,0,0,0,.16.21h.1Z"/><path class="cls-4" d="M141.26,164l.05-.06,0-.08v-.09l0-.11-.07-.07-.12-.05a.24.24,0,0,0-.3.15v.09l0,.1a.26.26,0,0,0,.32.16Z"/><path class="cls-4" d="M130.18,146.66a.29.29,0,0,0-.06-.22l-.08-.06h0c-.1,0-.29,0-.34.3l0,.06,0,0,0,.07.08.06a.27.27,0,0,0,.26,0A.32.32,0,0,0,130.18,146.66Z"/><path class="cls-4" d="M158.36,168.75a.33.33,0,0,0,0-.14l-.05-.08-.05-.05-.08,0h-.09l-.09,0-.08.05-.06.12a.13.13,0,0,0,0,.06s0,0,0,.06v.06l0,.08.06.06.07.05a.34.34,0,0,0,.25,0A.29.29,0,0,0,158.36,168.75Z"/><path class="cls-4" d="M153.13,171l0-.13,0-.06a.25.25,0,0,0-.2-.15h-.07l-.07,0-.05,0a.35.35,0,0,0-.06.14.27.27,0,0,0,.22.29A.26.26,0,0,0,153.13,171Z"/><path class="cls-4" d="M145.51,174.81l.11.08.15,0,.1,0,.08,0,.06-.13v-.1l0,0a.29.29,0,0,0-.24-.11.31.31,0,0,0-.25.13v.13Z"/><path class="cls-4" d="M130.49,167.57l0,0v0a.28.28,0,0,0,.24-.17h0l0,0,0-.06a.43.43,0,0,0-.08-.31.46.46,0,0,0-.33-.13l-.11.05-.06.06a.24.24,0,0,0-.12.18.21.21,0,0,0,0,.11h0s0,0,0,0a.26.26,0,0,0,.17.26h.08Z"/><path class="cls-4" d="M132.55,173.73a.23.23,0,0,0,.12-.15.27.27,0,0,0,.11-.18.63.63,0,0,0-.14-.38l0-.05-.06,0a.41.41,0,0,0-.38,0,.43.43,0,0,0-.18.32s0,.07,0,.1l0,.08,0,.07.07.05.05,0A.32.32,0,0,0,132.55,173.73Z"/><path class="cls-4" d="M132.81,156.94a.38.38,0,0,0,0,.24l.05,0,0,0,.07,0c.31,0,.37-.15.38-.23V157l0-.1-.08-.06-.08,0a.27.27,0,0,0-.15-.06l-.1,0-.07,0-.06.08S132.81,156.92,132.81,156.94Z"/><path class="cls-4" d="M135.26,166.49l0-.06v-.06h0a.28.28,0,0,0-.07-.24.17.17,0,0,0-.07-.09l-.07,0H135l-.05,0h0a.26.26,0,0,0-.29.15v0a.34.34,0,0,0,.55.34Z"/><path class="cls-4" d="M142,170.9a.21.21,0,0,0,.19-.17.26.26,0,0,0,.07-.14.24.24,0,0,0,0-.18l-.05,0,0,0-.08,0a.46.46,0,0,0-.17-.07l-.1,0-.08,0-.06,0,0,.06,0,.08a.43.43,0,0,0,.28.47l.13,0Z"/><path class="cls-4" d="M162.58,171.75h0a.23.23,0,0,0-.06.13h0l0,0,0,.05a.24.24,0,0,0,.12.23H163l.09-.06.06-.08v-.15c0-.25-.16-.36-.39-.36A.22.22,0,0,0,162.58,171.75Z"/><path class="cls-4" d="M137.84,168.61l-.13-.16h-.06l-.11,0,0,0h0l-.15.12a.26.26,0,0,0,.22.3.25.25,0,0,0,.2-.06A.29.29,0,0,0,137.84,168.61Z"/><path class="cls-4" d="M137.15,152.51l.09.08h0a.36.36,0,0,0,.22.08.2.2,0,0,0,.16-.07l.1-.06.06-.1a.26.26,0,0,0,0-.17h0l0-.06h0v0l0-.08-.09-.06a.34.34,0,0,0-.31,0,.41.41,0,0,0-.19.28A.24.24,0,0,0,137.15,152.51Z"/><path class="cls-4" d="M148.78,154.86l0-.05,0,0,.05,0,0-.05,0-.07v-.06h0l0-.1,0-.11a.23.23,0,0,0-.13-.1l0-.05-.19,0a.3.3,0,0,0-.22.09h0a.24.24,0,0,0-.13.18.22.22,0,0,0,.08.2l0,0,.07.06.05.06,0,0a.26.26,0,0,0,.18.07Z"/><path class="cls-4" d="M141.43,153.8h0l0,0,.07-.06,0-.09a.33.33,0,0,0,.12-.19.22.22,0,0,0-.05-.17h0l-.06-.11,0,0a.44.44,0,0,0-.14-.13h-.12l0,0-.11,0h-.09l-.08,0-.1.1a.75.75,0,0,0-.13.32v0l0,.08,0,.07.07.05.05,0,0,.08h0l0,0,.05.06.08,0A.32.32,0,0,0,141.43,153.8Z"/><path class="cls-4" d="M129.94,151.69l.08-.08,0-.09a.29.29,0,0,0-.22-.32.27.27,0,0,0-.31.2v.09l0,.08.09.09a.36.36,0,0,0,.09.05h.11Z"/><path class="cls-4" d="M156,153.94v-.05h0s0-.06,0-.07l0-.11,0-.1-.09-.11a.42.42,0,0,0-.23-.09h0a.2.2,0,0,0-.2.08h0l-.07.06a.47.47,0,0,0-.06.15v.17l0,.08,0,.07.07.06a.56.56,0,0,0,.44,0Z"/><path class="cls-4" d="M150.64,157.18a.16.16,0,0,0,.08-.1.24.24,0,0,0,.08-.09.61.61,0,0,0,0-.13.63.63,0,0,0-.1-.41l0,0-.06,0-.07,0a.56.56,0,0,0-.51.52V157l0,.05a.39.39,0,0,0,.1.08.24.24,0,0,0,.13.09h.09A.28.28,0,0,0,150.64,157.18Z"/><path class="cls-4" d="M163,154.5a.19.19,0,0,0,0,.08.56.56,0,0,0,0,.13l0,.08.06.06.08,0,.15,0,.1,0,.08-.06.05-.09,0-.12v-.06l0-.06,0-.05a.42.42,0,0,0-.29-.11l-.08,0-.06,0Z"/><path class="cls-4" d="M149.31,151.5l.08-.06h0a.29.29,0,0,0,.16-.1.58.58,0,0,0,.06-.17V151l0-.09,0-.07-.08,0a.32.32,0,0,0-.27,0l-.1.07,0,.09v0a.38.38,0,0,0-.08.19v.07l0,.09.06.07.1,0v0Z"/><path class="cls-4" d="M129,157a.28.28,0,0,0,.15-.08.16.16,0,0,0,.06-.08.19.19,0,0,0,.09-.14.23.23,0,0,0,0-.14l0-.05,0,0a.33.33,0,0,0-.3-.18h-.08l-.06,0-.06.06a.9.9,0,0,0-.08.23.38.38,0,0,0,.16.36l.13,0,.06,0Z"/><path class="cls-4" d="M161.24,161.88a.24.24,0,0,0-.13.15l0,.12,0,0a.24.24,0,0,0,.1.18.19.19,0,0,0,.15,0,.31.31,0,0,0,.34-.28.55.55,0,0,0,0-.18l0-.05,0,0,0,0A.31.31,0,0,0,161.24,161.88Z"/><path class="cls-4" d="M169.78,160.83l.06,0,0-.07a1.06,1.06,0,0,0,.06-.19.41.41,0,0,0-.08-.31.4.4,0,0,0-.31-.12l-.1.05-.06.07,0,.07,0,0,0,.09v.09l0,.13a.39.39,0,0,0,.42.23Z"/><path class="cls-4" d="M164.48,162.49h0l-.07,0-.05.06a.19.19,0,0,0,0,.1.36.36,0,0,0,.19.37.24.24,0,0,0,.28,0v0l.05,0,.06-.1a.41.41,0,0,0-.09-.34l-.06,0-.06,0h-.08A.31.31,0,0,0,164.48,162.49Z"/><path class="cls-4" d="M139.89,149l.06,0L140,149a.37.37,0,0,0,.06-.15v-.09l0-.06a.3.3,0,0,0-.25-.16.35.35,0,0,0-.32.18l0,.11,0,.1.08.09a.33.33,0,0,0,.25.1Z"/><path class="cls-4" d="M147.35,160.75l0-.05,0-.06c0-.07,0-.17-.18-.25a.38.38,0,0,0-.31,0l0,.05,0,0,0,.05a.22.22,0,0,0,.15.24.49.49,0,0,0,.34,0Z"/><path class="cls-4" d="M145.5,156.31l.08.13.09,0,.07-.06,0-.08,0-.18V156l0,0,0-.06a.28.28,0,0,0-.36,0c-.2,0-.24.13-.24.19a.21.21,0,0,0,0,.11h0v.1l.06.1a.31.31,0,0,0,.3,0Z"/><path class="cls-4" d="M145.92,161.22h0A.38.38,0,0,0,146,161v-.15l0-.07,0,0a.59.59,0,0,0-.42-.12l-.07,0a.13.13,0,0,0-.06.07l-.09.05,0,.06,0,0a.31.31,0,0,0,0,.1l0,0a.35.35,0,0,0,.15.34l0,.07.06,0,.07,0A.39.39,0,0,0,145.92,161.22Z"/><path class="cls-4" d="M138.9,157.21a.22.22,0,0,0-.15-.24.3.3,0,0,0-.34.16v.15l.07.1.13.06C138.85,157.41,138.9,157.27,138.9,157.21Z"/><path class="cls-4" d="M141.25,159.57l.09-.11a.63.63,0,0,0,.06-.18.24.24,0,0,0-.11-.25h-.08a.26.26,0,0,0-.24,0l-.05,0-.07.08a.28.28,0,0,0-.09.19h0l0,.12.07.07.09,0,.1.07h.11Z"/><path class="cls-4" d="M157.51,160.13l0,.07v.05a.27.27,0,0,0,0,.13.71.71,0,0,0,0,.14l0,.07.06.06.09,0a.43.43,0,0,0,.21.07.24.24,0,0,0,.14-.05.21.21,0,0,0,.19-.19v-.09a.32.32,0,0,0,0-.09.28.28,0,0,0-.09-.26l0,0h-.12a.46.46,0,0,0-.36,0Z"/><path class="cls-4" d="M141.54,158.62l.09-.05.05-.08,0-.08a.57.57,0,0,0,.06-.15l0-.1,0-.07-.1-.08a.32.32,0,0,0-.27,0l-.07,0-.06,0-.06.1a.48.48,0,0,0-.07.18.31.31,0,0,0,.12.28l.14,0,0,0v0A.31.31,0,0,0,141.54,158.62Z"/><rect class="cls-3" x="129.57" y="105.71" width="40.93" height="42.95" transform="translate(-18.11 229.23) rotate(-71.54)"/><path class="cls-4" d="M147.58,114.25l0,0,0,0a.24.24,0,0,0-.09-.06.23.23,0,0,0-.22.05h0l-.08.06a.29.29,0,0,0,.16.4.24.24,0,0,0,.24-.05l0-.11a.21.21,0,0,0,.06-.15Z"/><path class="cls-4" d="M148.85,122.21l0,0,0,0a.4.4,0,0,0,.41-.12l0-.11,0-.1-.11-.11-.1,0v0l-.07,0H149l-.12.08a.36.36,0,0,0,0,.31Z"/><path class="cls-4" d="M147.46,127.34l-.08,0h-.1l-.08.05-.07.08a.64.64,0,0,0,0,.28l.06.11.09.06h.13a.28.28,0,0,0,.14-.35h0v-.06l0-.08Z"/><path class="cls-4" d="M132,120.32a.27.27,0,0,0-.3.1l0,.12v.11l.09.1h0a.25.25,0,0,0,.27-.08l.07-.11v-.11Z"/><path class="cls-4" d="M155.59,133.83a.24.24,0,0,0,.11-.19l0-.1,0-.07,0,0-.08,0-.08,0h-.09a.23.23,0,0,0-.13.26h0v.07l0,.09.09.07A.34.34,0,0,0,155.59,133.83Z"/><path class="cls-4" d="M147.12,128.9h0a.44.44,0,0,0,.33-.14l.05-.11v-.11l-.08-.11v-.08l0-.06-.06-.05-.07,0h0a.23.23,0,0,0-.13-.1h-.06a.35.35,0,0,0-.13-.08.22.22,0,0,0-.22,0l0,.08a.32.32,0,0,0-.1.2l0,.08,0,.06.07.05.12,0h0v0l.05.1,0,0a.3.3,0,0,0,.14.14Z"/><path class="cls-4" d="M140,116.24l-.06,0a.24.24,0,0,0-.27.06h0a.32.32,0,0,0-.13.21v.08l0,.07.07.06h0a.27.27,0,0,0,.2,0l.06-.05a.24.24,0,0,0,.17-.24l0-.09Z"/><path class="cls-4" d="M132.75,137.46l0,0-.05,0a.25.25,0,0,0-.28.1l-.06.08v.09l0,.1a.33.33,0,0,0,.14.1.25.25,0,0,0,.27-.07.24.24,0,0,0,.06-.28Z"/><path class="cls-4" d="M140.94,110.49a.46.46,0,0,0-.07-.07l-.08,0-.11,0a.25.25,0,0,0-.22.25l0,.09.05.06.08.06a.47.47,0,0,0,.14.08.29.29,0,0,0,.16,0l.1-.13v0h0a.23.23,0,0,0,0-.21A.2.2,0,0,0,140.94,110.49Z"/><path class="cls-4" d="M132.87,131.09h-.11l-.08,0h0a.27.27,0,0,0-.23.27l.05.11.12.08,0,0a.34.34,0,0,0,.14,0h.12l.06,0,0-.05,0-.07A.33.33,0,0,0,132.87,131.09Z"/><path class="cls-4" d="M131.37,133.73a.19.19,0,0,0,0-.13.18.18,0,0,0-.09-.08.18.18,0,0,0-.12-.12H131l0,0-.07,0a.27.27,0,0,0-.16.16.34.34,0,0,0,0,.28.41.41,0,0,0,.23.2.34.34,0,0,0,.43-.18v-.09Z"/><path class="cls-4" d="M134.54,125.39h0l.1,0,.07,0,.06-.07v-.14l0-.09a.19.19,0,0,0-.08-.08h-.13l-.06,0v0a.2.2,0,0,0-.16.18.19.19,0,0,0,.12.2h0Z"/><path class="cls-4" d="M143.66,120.77h0a.36.36,0,0,0,.14,0,.22.22,0,0,0,.12-.06h0a.23.23,0,0,0,.27-.1v-.11l0,0a.16.16,0,0,0,0-.1l0,0v-.11l-.1-.13-.05.12h0v-.15l-.12-.07h-.14a.35.35,0,0,0-.23.06l0,0a.31.31,0,0,0-.05.1.19.19,0,0,0-.07.13l-.06.13,0,.11a.22.22,0,0,0,.13.23A.23.23,0,0,0,143.66,120.77Z"/><path class="cls-4" d="M136.83,116.68l.14,0h.08l.06,0,0,0a.29.29,0,0,0,0-.38l-.07-.06-.08,0h-.09a.39.39,0,0,0-.1.08l0,0-.08.09A.27.27,0,0,0,136.83,116.68Z"/><path class="cls-4" d="M143.19,127.36l0,0a.17.17,0,0,0-.07-.14v0l0-.06,0,0-.08,0a.34.34,0,0,0-.17,0h-.09l-.09,0a.47.47,0,0,0-.07.63l.12.07h0l.07,0h.09a.22.22,0,0,0,.12-.06l.11-.05a.27.27,0,0,0,.13-.21Z"/><path class="cls-4" d="M149.2,106.87l0-.05a.28.28,0,0,0-.15-.23l-.11,0h-.08l-.07,0,0,.06,0-.06-.07,0-.07.09a.07.07,0,0,1,0,0,.29.29,0,0,0-.19.27v0a.51.51,0,0,0,.18.3l.08,0h.22l.08,0,.07-.08a.28.28,0,0,1,0-.09,1.27,1.27,0,0,0,.07-.12Z"/><path class="cls-4" d="M136.25,143.8l-.05-.08a.39.39,0,0,0-.14-.1.2.2,0,0,0-.17,0,.28.28,0,0,0-.13.16v.1l0,.08.08.06.12,0h.1l.08,0,.07-.1v-.13Z"/><path class="cls-4" d="M139.48,133.76h-.11l-.07,0-.07.08,0,0s-.11.08-.13.25v.06a.23.23,0,0,0,.15.14.23.23,0,0,0,.19,0h.1l.11-.11A.34.34,0,0,0,139.48,133.76Z"/><path class="cls-4" d="M141.91,137.29l-.09,0h-.09l-.09,0c-.16.16-.17.3-.14.38l0,0h0a.27.27,0,0,0,.17.2h0l.11,0,.06,0a.26.26,0,0,0,.16-.15v-.06A.56.56,0,0,0,141.91,137.29Z"/><path class="cls-4" d="M142.38,129.47l0-.06h0a.26.26,0,0,0-.1-.07h-.09l-.06,0-.05,0-.05.06a.34.34,0,0,0-.08.28.29.29,0,0,0,.13.16h.13l.07,0a.31.31,0,0,0,.23-.16.22.22,0,0,0,0-.22Z"/><path class="cls-4" d="M136.35,130.05l0-.07-.06,0-.07,0a.33.33,0,0,0-.3,0l-.05.07a.3.3,0,0,0,0,.37l.08,0h.15a.3.3,0,0,0,.28-.29Z"/><path class="cls-4" d="M141.25,123.29l0,0a.23.23,0,0,0-.1-.12H141l0,0h0l-.09,0-.08.08c0,.18,0,.28.13.31h0a.18.18,0,0,0,.11.08h0l.14,0,.07-.1a.2.2,0,0,0,.08-.2Z"/><path class="cls-4" d="M143,116.71a.23.23,0,0,0,.14-.19.21.21,0,0,0-.09-.18l-.12,0-.09,0v.05l0-.06a.26.26,0,0,0-.18.17.24.24,0,0,0,.06.22l.12,0,.1,0Z"/><path class="cls-4" d="M134,109l-.09-.11-.12,0-.13,0-.08.07a.26.26,0,0,0-.11.17v.08l0,.06.06.06,0,0a.33.33,0,0,0,.13,0h.06l.1,0,.08-.1h0l0-.08Z"/><path class="cls-4" d="M128,130.27a.24.24,0,0,0-.15-.18h-.08l-.06,0-.08,0a.46.46,0,0,0-.16.11l0,.12,0,.1.08.08,0,0c.3.1.41-.05.45-.15v-.12Z"/><path class="cls-4" d="M171.48,128.35l.07,0h.08l.07,0,.06-.06a.25.25,0,0,0,0-.22.28.28,0,0,0-.2-.16h-.09l-.06,0-.06,0a.28.28,0,0,0-.05.23A.23.23,0,0,0,171.48,128.35Z"/><path class="cls-4" d="M162,129.45l-.06,0,0,0h-.1l-.09,0a.18.18,0,0,0-.08.08v.13l.05.09.08.06a.25.25,0,0,0,.22,0,.25.25,0,0,0,.1-.17l0-.08Z"/><path class="cls-4" d="M162.81,125.7a.33.33,0,0,0-.19-.15.25.25,0,0,0-.34.14v0a.24.24,0,0,0,.05.27l.07,0a.22.22,0,0,0,.11,0h.09l.13-.07.06-.07,0-.06v-.07Z"/><path class="cls-4" d="M161.59,135.12l0,0,0,0-.06,0a.31.31,0,0,0-.3,0,.38.38,0,0,0-.13.31l0,.07,0,.06.08.07a.68.68,0,0,0,.14.09h.13l.07,0a.41.41,0,0,0,.11-.45Z"/><path class="cls-4" d="M162.88,131.74l-.08,0-.09,0-.07,0-.06.07,0,.13v.08l0,.07.06.07a.48.48,0,0,0,.16.09.32.32,0,0,0,.26,0l.05-.07a.28.28,0,0,0,0-.25A.41.41,0,0,0,162.88,131.74Z"/><path class="cls-4" d="M156.73,148.24l-.1,0-.12,0a.25.25,0,0,0-.11.09l0,.12,0,.09.05.06.1-.07-.1.08.13,0,.11,0,.1-.12A.22.22,0,0,0,156.73,148.24Z"/><path class="cls-4" d="M155.1,141.6H155l-.08,0-.07.06a.32.32,0,0,0,0,.25.29.29,0,0,0,.17.15h.05l.1,0,.07,0,.05-.07A.29.29,0,0,0,155.1,141.6Z"/><path class="cls-4" d="M163.5,119.45l-.07,0,.07,0,0-.07-.09-.07a.33.33,0,0,0-.37.18v.09l0,.08.05.08.06,0a.28.28,0,0,0,.18,0,.26.26,0,0,0,.21-.11v-.09Z"/><path class="cls-4" d="M159.43,135.67l-.05-.06-.06-.05-.07,0h-.11l-.08,0-.07.1a.23.23,0,0,0,.09.3l.08,0h.09a.23.23,0,0,0,.2-.26Z"/><path class="cls-4" d="M142,142.58a.3.3,0,0,0-.21,0l-.07.06,0,0c0,.09-.05.26.21.36l.06,0,0,0,.07,0,.07-.05a.26.26,0,0,0,0-.24A.3.3,0,0,0,142,142.58Z"/><path class="cls-4" d="M166.65,121.17a.32.32,0,0,0-.14,0l-.07,0-.06,0,0,.07,0,.07v.09l0,.08.1.08h.05l0,0h.14l.06,0,0-.06a.27.27,0,0,0,0-.23A.24.24,0,0,0,166.65,121.17Z"/><path class="cls-4" d="M167.78,126.25h-.12l-.06,0a.26.26,0,0,0-.18.15v.13l0,.06a.23.23,0,0,0,.11.07.26.26,0,0,0,.31-.14A.24.24,0,0,0,167.78,126.25Z"/><path class="cls-4" d="M169.84,133.74l.09-.09,0-.13v-.1l0-.07-.1-.08h-.14a.29.29,0,0,0-.15.19.26.26,0,0,0,.08.25l.12,0Z"/><path class="cls-4" d="M160.74,145.94v0h0a.23.23,0,0,0-.11-.24h0l0,0-.05,0a.35.35,0,0,0-.28,0,.39.39,0,0,0-.18.28l0,.1.05.07a.21.21,0,0,0,.14.14h.1l0,0a.23.23,0,0,0,.26-.11v-.07Z"/><path class="cls-4" d="M166.62,145.16a.25.25,0,0,0-.12-.13.29.29,0,0,0-.14-.13.6.6,0,0,0-.37.06l-.05,0,0,0a.38.38,0,0,0,.22.57l.09,0h.08l.06,0,.06-.05.05,0A.32.32,0,0,0,166.62,145.16Z"/><path class="cls-4" d="M151.62,142a.33.33,0,0,0,.22,0l0,0,0,0,0-.06c.09-.27-.07-.36-.15-.38l-.07,0-.09,0-.07.05,0,.07a.29.29,0,0,0-.08.13v.09l0,.07.06.06Z"/><path class="cls-4" d="M160.6,141.47l0,0-.05,0h0a.23.23,0,0,0-.22,0,.19.19,0,0,0-.1.05l0,.06,0,.07v.05h0a.22.22,0,0,0,.08.28l0,0a.31.31,0,0,0,.36-.08.3.3,0,0,0,0-.35Z"/><path class="cls-4" d="M165.72,136.23a.55.55,0,0,0-.23-.29.23.23,0,0,0-.18,0l0,0,0,0-.05.07a.68.68,0,0,0-.09.14v.09l0,.08,0,.06.05.05.06,0a.38.38,0,0,0,.47-.17v-.12Z"/><path class="cls-4" d="M170.07,117.91h0a.19.19,0,0,0,.11.07h0l0,0,0,0a.21.21,0,0,0,.22-.07l0,0,0-.08a.34.34,0,0,1,0-.1.76.76,0,0,0,0-.15l0-.09-.07-.07-.13,0a.32.32,0,0,0-.38.29A.2.2,0,0,0,170.07,117.91Z"/><path class="cls-4" d="M163,139.53l-.17.09v0h0l0,.1v.07l.08.16a.23.23,0,0,0,.3-.15.25.25,0,0,0,0-.19A.24.24,0,0,0,163,139.53Z"/><path class="cls-4" d="M148.4,137.35l.09-.07v0h0a.29.29,0,0,0,.11-.18.18.18,0,0,0,0-.16l0-.1-.08-.08a.43.43,0,0,0-.15,0h-.09l-.08,0-.07.06a.35.35,0,0,0,0,.3.38.38,0,0,0,.22.21A.19.19,0,0,0,148.4,137.35Z"/><path class="cls-4" d="M152.53,127.33l0,0a.06.06,0,0,0,0,0l0-.05,0,0-.06,0,0,0h0l-.08,0h-.1a.26.26,0,0,0-.12.11l-.05,0-.05.16a.22.22,0,0,0,0,.21v0a.21.21,0,0,0,.14.15.19.19,0,0,0,.19,0l.05,0,.07,0,.06,0h0a.18.18,0,0,0,.08-.15Z"/><path class="cls-4" d="M150.3,133.74h0v-.05l0-.07-.08-.05a.22.22,0,0,0-.14-.14.2.2,0,0,0-.17,0h0l-.11,0,0,0a.33.33,0,0,0-.14.1l0,.11v0l0,.1V134l.07.1a.61.61,0,0,0,.26.17l.05,0H150l.07,0,.06-.05,0-.05.08,0h0l.06,0,.05-.07A.3.3,0,0,0,150.3,133.74Z"/><path class="cls-4" d="M146.41,143.67l0-.09-.08,0a.27.27,0,0,0-.33.14.24.24,0,0,0,.13.31h.16l.09-.07.07-.07,0-.1Z"/><path class="cls-4" d="M153,120.71h0v0l-.06,0-.09,0h-.1l-.11.06a.38.38,0,0,0-.12.19h0a.2.2,0,0,0,0,.2v0l0,.08a.35.35,0,0,0,.13.08h.08l.06,0h.09l.06,0,.07,0a.53.53,0,0,0,.08-.4Z"/><path class="cls-4" d="M154.93,126.07a.28.28,0,0,0-.07-.09.27.27,0,0,0-.07-.08l-.11-.06a.55.55,0,0,0-.39,0l0,0,0,0,0,.06a.51.51,0,0,0,.38.55h.11l.05,0a.31.31,0,0,0,.09-.07.22.22,0,0,0,.1-.11v-.08A.24.24,0,0,0,154.93,126.07Z"/><path class="cls-4" d="M154.69,114.49l.07,0h.11l.08,0,.07,0,0-.06,0-.13v-.1l0-.08-.07-.06-.1,0h-.12l-.05,0a.34.34,0,0,0-.15.24v.07l0,.07Z"/><path class="cls-4" d="M149.61,126.28l0-.09h0a.23.23,0,0,0-.06-.16.55.55,0,0,0-.14-.09l-.1,0h-.14l-.07,0L149,126a.32.32,0,0,0,0,.25l0,.1.07.06h0a.44.44,0,0,0,.16.11l.06,0,.09,0,.07-.05.06-.08,0,0Z"/><path class="cls-4" d="M151,145.48a.27.27,0,0,0,0-.15.17.17,0,0,0-.06-.06.19.19,0,0,0-.12-.11h-.12l-.05,0,0,0a.34.34,0,0,0-.21.24v.08l0,.06.05.06a.86.86,0,0,0,.19.11.36.36,0,0,0,.35-.08l0-.11v-.08Z"/><path class="cls-4" d="M161,117.39a.23.23,0,0,0,.11.15h.14a.25.25,0,0,0,.18-.07.14.14,0,0,0,.06-.12.3.3,0,0,0-.19-.36.43.43,0,0,0-.16,0h-.06l0,0,0,0A.27.27,0,0,0,161,117.39Z"/><path class="cls-4" d="M161.54,109.56l0-.06,0,0a.91.91,0,0,0-.17-.09.38.38,0,0,0-.29,0,.41.41,0,0,0-.16.25l0,.1,0,.07.06,0,0,.05.08,0,.08,0h.12a.35.35,0,0,0,.28-.33Z"/><path class="cls-4" d="M162.1,114.6v0l0,.07,0,.06.08,0a.32.32,0,0,0,.37-.11.2.2,0,0,0,0-.25h0l0-.05-.08-.08a.45.45,0,0,0-.32,0l0,.05,0,.06,0,.06A.35.35,0,0,0,162.1,114.6Z"/><path class="cls-4" d="M145.77,134.29l0-.06,0,0a.2.2,0,0,0-.12-.08l-.08,0h-.06a.27.27,0,0,0-.19.2.35.35,0,0,0,.11.31l.1,0h.09l.1,0a.32.32,0,0,0,.13-.22Z"/><path class="cls-4" d="M157.56,129.64l0,0-.05,0c-.06,0-.15,0-.26.13a.36.36,0,0,0,0,.28l0,0,0,0,.05,0a.2.2,0,0,0,.24-.09.45.45,0,0,0,.05-.31Z"/><path class="cls-4" d="M153.26,130.53l.13-.05,0-.09,0-.07-.07-.06-.15,0H153l-.05,0a.25.25,0,0,0-.08.32.21.21,0,0,0,.13.26h.2l.1,0a.28.28,0,0,0,.09-.26Z"/><path class="cls-4" d="M157.73,131h0a.47.47,0,0,0-.14-.08l-.07,0h-.07l-.08,0,0,0a.48.48,0,0,0-.18.35v.07a.18.18,0,0,0,.05.07l0,.08,0,0,0,0h.09l0,0a.33.33,0,0,0,.33-.07l.07,0,.06,0,0-.06A.38.38,0,0,0,157.73,131Z"/><path class="cls-4" d="M152.92,136.6a.21.21,0,0,0-.24.09.27.27,0,0,0,.08.34l.13,0,.1,0,.08-.11C153.09,136.68,153,136.61,152.92,136.6Z"/><path class="cls-4" d="M155.44,134.9l-.08-.09a.43.43,0,0,0-.15-.09.21.21,0,0,0-.25.06v.06a.27.27,0,0,0-.07.22l0,.05.06.07a.28.28,0,0,0,.15.12h.12l.08,0,.05-.07.08-.08,0-.1Z"/><path class="cls-4" d="M158.77,120.43l.06,0h0l.11.06.13,0,.07,0,.06,0,.06-.07a.37.37,0,0,0,.1-.18.2.2,0,0,0,0-.13.21.21,0,0,0-.13-.21h-.08l-.08,0a.26.26,0,0,0-.25,0l0,0,0,0,0,.06a.4.4,0,0,0,0,.32Z"/><path class="cls-4" d="M154.64,134.48l0-.09-.07-.06-.06,0a.29.29,0,0,0-.13-.08h-.08l-.08,0-.09.08a.32.32,0,0,0-.09.23v.07l0,.06.08.07a.43.43,0,0,0,.15.09.25.25,0,0,0,.27-.06l0-.11v0h0A.33.33,0,0,0,154.64,134.48Z"/><rect class="cls-3" x="133.85" y="83.33" width="40.06" height="38.18" transform="translate(25.58 235.49) rotate(-79.69)"/><path class="cls-4" d="M165.5,98.44l0,0,0,0a.32.32,0,0,0,0-.09.2.2,0,0,0-.07-.2v0l-.07-.07a.28.28,0,0,0-.22,0,.26.26,0,0,0-.13.18.27.27,0,0,0,.08.22l.11,0a.21.21,0,0,0,.15,0Z"/><path class="cls-4" d="M158.32,100.66l0,0v0a.38.38,0,0,0,.16.36l.11,0,.09,0,.08-.11,0-.1h0l0-.07,0-.1-.09-.1a.37.37,0,0,0-.3,0Z"/><path class="cls-4" d="M153.39,100.06l0-.08,0-.09,0-.07-.09,0a.41.41,0,0,0-.25.07l-.1.07,0,.09v.12a.27.27,0,0,0,.34.08h.06l.07,0Z"/><path class="cls-4" d="M157.83,84.88a.22.22,0,0,0-.13-.26l-.11,0-.1,0-.09.09h0a.22.22,0,0,0,.1.24l.11.05h.11Z"/><path class="cls-4" d="M148.48,108.43a.26.26,0,0,0,.19.07l.09,0,.05-.06,0,0,0-.07v-.08l0-.08a.21.21,0,0,0-.25-.09h-.06l-.08.06-.05.09A.33.33,0,0,0,148.48,108.43Z"/><path class="cls-4" d="M151.9,100v0a.42.42,0,0,0,.18.29l.11,0,.09,0,.1-.08.07,0,.05,0,0-.06a.25.25,0,0,0,0-.07v0a.23.23,0,0,0,.07-.14h0v0a.39.39,0,0,0,.05-.13.18.18,0,0,0-.06-.19l-.09,0a.22.22,0,0,0-.19-.06l-.07,0-.06,0,0,.08a.41.41,0,0,1,0,.11h0l-.08.07,0,0a.43.43,0,0,0-.11.15Z"/><path class="cls-4" d="M162.66,91.73l0-.07a.24.24,0,0,0-.09-.24h0a.3.3,0,0,0-.21-.1l-.08,0-.06,0-.05.07h0a.22.22,0,0,0,0,.18l.06,0a.23.23,0,0,0,.24.13l.08,0Z"/><path class="cls-4" d="M142.1,87.82l0,0v0a.23.23,0,0,0-.13-.25l-.08,0h-.09l-.09,0a.27.27,0,0,0-.07.14.25.25,0,0,0,.1.25.24.24,0,0,0,.26,0Z"/><path class="cls-4" d="M168.09,91.81a.18.18,0,0,0,0-.07v-.08l0-.1a.25.25,0,0,0-.27-.17l-.07,0-.06,0,0,.08a.45.45,0,0,0-.06.14.38.38,0,0,0,0,.15l.14.07h0v0a.24.24,0,0,0,.2,0A.22.22,0,0,0,168.09,91.81Z"/><path class="cls-4" d="M148,87.08V87l-.05-.07h0a.25.25,0,0,0-.27-.18l-.1.07-.06.12v0a.53.53,0,0,0,0,.13.2.2,0,0,0,0,.11l.05,0,0,0h.07A.3.3,0,0,0,148,87.08Z"/><path class="cls-4" d="M145.36,86.05a.27.27,0,0,0,.12-.06.18.18,0,0,0,.06-.09.18.18,0,0,0,.1-.13v0l0-.07,0,0,0,0a.27.27,0,0,0-.17-.13.31.31,0,0,0-.25,0,.35.35,0,0,0-.17.24.33.33,0,0,0,.23.37h.09Z"/><path class="cls-4" d="M153.49,87.87v0l0,.09.05.06.07,0h.13l.08,0a.26.26,0,0,0,.06-.09v-.12l0,0h0c-.06-.11-.14-.13-.19-.12a.18.18,0,0,0-.17.13v0A.14.14,0,0,0,153.49,87.87Z"/><path class="cls-4" d="M159,95.68h0a.28.28,0,0,0,0,.13.35.35,0,0,0,.07.11h0a.21.21,0,0,0,.13.23h.1l0,0,.1,0h.13l.1-.1-.11,0h.14l.05-.12,0-.13a.33.33,0,0,0-.09-.2l0,0a.29.29,0,0,0-.1,0,.21.21,0,0,0-.13,0l-.12,0-.11,0a.2.2,0,0,0-.19.15A.2.2,0,0,0,159,95.68Z"/><path class="cls-4" d="M161.83,88.84V89l0,.07,0,0,.05,0a.25.25,0,0,0,.34-.1l.05-.07V88.8a.32.32,0,0,0-.09-.08l0,0-.09-.06A.26.26,0,0,0,161.83,88.84Z"/><path class="cls-4" d="M152.81,96.12l0,0A.18.18,0,0,0,153,96h0l.06,0,0,0,0-.08a.23.23,0,0,0,0-.15v-.09l0-.08a.43.43,0,0,0-.59,0l0,.13v0s0,0,0,.07v.08a.29.29,0,0,0,.07.1l.06.1a.29.29,0,0,0,.21.09Z"/><path class="cls-4" d="M172.53,99l0,0a.25.25,0,0,0,.19-.17v-.18l0-.06,0,0,0,0,0-.06-.1-.06.06,0a.29.29,0,0,0-.28-.13h0a.61.61,0,0,0-.26.21l0,.08v.07s0,0,0,0l0,.09.05.07.08.05a.19.19,0,0,1,.09,0l.11.06Z"/><path class="cls-4" d="M136.72,91.88l.06,0a.3.3,0,0,0,.07-.15.21.21,0,0,0,0-.15.24.24,0,0,0-.17-.09l-.09,0-.06,0-.05.08,0,.12,0,.09,0,.07.1,0h.07Z"/><path class="cls-4" d="M146.41,93.54l0-.1,0-.06-.08,0h0a.31.31,0,0,0-.25-.09l-.05,0a.19.19,0,0,0-.11.15.21.21,0,0,0,0,.17h0l0,.08.12.09A.32.32,0,0,0,146.41,93.54Z"/><path class="cls-4" d="M143.47,96.25l0-.09v-.08l-.05-.08a.37.37,0,0,0-.38-.08l0,0h0a.31.31,0,0,0-.16.19v0l0,.1,0,0a.25.25,0,0,0,.15.13h.06A.5.5,0,0,0,143.47,96.25Z"/><path class="cls-4" d="M150.76,95.65l0,0v0a.31.31,0,0,0,.05-.1v-.09l0,0,0,0-.06,0a.34.34,0,0,0-.27,0,.24.24,0,0,0-.13.15v.11l0,.07a.3.3,0,0,0,.18.19.25.25,0,0,0,.2-.06Z"/><path class="cls-4" d="M149.43,90.16l0,0,0-.07,0-.07a.3.3,0,0,0-.07-.27l-.07,0a.29.29,0,0,0-.34.09l0,.08v.07l0,.07a.26.26,0,0,0,.3.22Z"/><path class="cls-4" d="M156.31,93.79l0,0a.24.24,0,0,0,.09-.11v-.11l0,0a.1.1,0,0,0,0,0v0l0-.08-.09-.06a.22.22,0,0,0-.27.17h0a.23.23,0,0,0-.06.12v0l.06.11.11.06a.17.17,0,0,0,.19,0Z"/><path class="cls-4" d="M162.62,94.57a.24.24,0,0,0,.2.1.18.18,0,0,0,.15-.1v-.11l0-.08-.05,0,.05,0a.24.24,0,0,0-.17-.15.22.22,0,0,0-.2.09l0,.11,0,.1Z"/><path class="cls-4" d="M168.6,85.18l.09-.09,0-.13,0-.11-.08-.07a.22.22,0,0,0-.17-.07l-.07,0-.06,0,0,.06v0a.15.15,0,0,0,0,.12h0V85l0,.09.1.06h0l.09,0Z"/><path class="cls-4" d="M148.12,82.49a.21.21,0,0,0,.14-.16v-.07l0-.06,0-.07a.42.42,0,0,0-.13-.14h-.11l-.08,0-.07.09v0c-.06.29.1.37.2.4l.1,0Z"/><path class="cls-4" d="M155.64,122.38a.13.13,0,0,0,0,.06l0,.08,0,0,.06.05a.22.22,0,0,0,.2,0c.06,0,.1-.09.12-.21h0v-.07l0,0-.05-.05a.24.24,0,0,0-.22,0A.21.21,0,0,0,155.64,122.38Z"/><path class="cls-4" d="M153.37,113.81l0-.07v-.14l0-.07a.17.17,0,0,0-.09-.07h-.12l-.08.06,0,.08a.28.28,0,0,0,0,.2.21.21,0,0,0,.17.07l.08,0Z"/><path class="cls-4" d="M156.94,114a.4.4,0,0,0,.12-.2.24.24,0,0,0-.18-.3h0a.22.22,0,0,0-.24.08l0,.07a.16.16,0,0,0,0,.1v.09l.08.11.07,0h.12Z"/><path class="cls-4" d="M148.08,114.14l0,0,0,0a.43.43,0,0,1,0,0,.27.27,0,0,0-.07-.27.33.33,0,0,0-.31-.09l-.06,0-.05,0,0,.09a.45.45,0,0,0-.07.14V114l0,.06,0,.06a.37.37,0,0,0,.42,0Z"/><path class="cls-4" d="M151.37,114.88a.17.17,0,0,1,0-.07l0-.08,0-.07-.08,0-.12,0-.08,0-.06,0-.06.07a.42.42,0,0,0-.06.15.29.29,0,0,0,.07.24l.07,0a.3.3,0,0,0,.24,0A.33.33,0,0,0,151.37,114.88Z"/><path class="cls-4" d="M135.32,111.38v-.09l0-.11a.37.37,0,0,0-.11-.09h-.11l-.08,0,0,0,.08.09-.09-.08,0,.12,0,.1.12.08A.21.21,0,0,0,135.32,111.38Z"/><path class="cls-4" d="M141.23,109v-.09l0-.06-.06-.06a.27.27,0,0,0-.23,0,.26.26,0,0,0-.12.17v0l0,.09,0,.06.07,0A.27.27,0,0,0,141.23,109Z"/><path class="cls-4" d="M162.8,113.83l0-.06,0,0,.06,0,.05-.1a.29.29,0,0,0-.22-.31h-.08l-.07,0-.07.06,0,.06a.23.23,0,0,0,0,.16.19.19,0,0,0,.13.18h.09Z"/><path class="cls-4" d="M147.29,112.21l0,0,0-.07V112l0-.1-.05-.07-.1,0a.22.22,0,0,0-.27.11V112l0,.08a.21.21,0,0,0,.26.15Z"/><path class="cls-4" d="M138.59,97a.23.23,0,0,0,0-.18l-.06-.06,0,0c-.09,0-.25,0-.31.24l0,.06,0,0,0,.07.06,0a.26.26,0,0,0,.23,0A.24.24,0,0,0,138.59,97Z"/><path class="cls-4" d="M161.63,117a.24.24,0,0,0,0-.12l0-.07,0,0-.06,0-.07,0-.09,0-.06,0-.06.1a.07.07,0,0,0,0,0,.43.43,0,0,0,0,.05v0l0,.07,0,0,.07,0a.22.22,0,0,0,.21,0A.23.23,0,0,0,161.63,117Z"/><path class="cls-4" d="M157.09,118.68l0-.11,0-.06a.23.23,0,0,0-.17-.13h-.06l-.06,0-.05,0a.37.37,0,0,0-.05.11.22.22,0,0,0,.17.26A.23.23,0,0,0,157.09,118.68Z"/><path class="cls-4" d="M150.45,121.57l.09.08.12,0,.09,0,.07-.05.05-.1v-.13a.24.24,0,0,0-.2-.11.3.3,0,0,0-.22.1l0,.12Z"/><path class="cls-4" d="M138,114.78h0a.24.24,0,0,0,.21-.13h0l0,0,0,0a.33.33,0,0,0-.05-.27.39.39,0,0,0-.28-.12l-.1,0-.05,0a.19.19,0,0,0-.11.15.14.14,0,0,0,0,.09h0a0,0,0,0,0,0,0,.2.2,0,0,0,.13.22h.07Z"/><path class="cls-4" d="M139.47,120.1a.22.22,0,0,0,.11-.12.2.2,0,0,0,.09-.15.49.49,0,0,0-.09-.33l-.05,0,0,0a.41.41,0,0,0-.33,0,.38.38,0,0,0-.17.27.25.25,0,0,1,0,.08l0,.07,0,.06.05,0,0,0A.27.27,0,0,0,139.47,120.1Z"/><path class="cls-4" d="M140.4,105.84a.24.24,0,0,0,0,.2l0,0,0,0,.06,0c.26,0,.32-.12.34-.19v-.06l0-.09-.05-.06-.07,0a.34.34,0,0,0-.13,0l-.08,0-.07,0-.05.07S140.4,105.82,140.4,105.84Z"/><path class="cls-4" d="M142.08,114.06l0,0,0-.06h0a.23.23,0,0,0,0-.2.2.2,0,0,0-.06-.09l-.05,0h-.07l0,0h0a.22.22,0,0,0-.25.12v0a.3.3,0,0,0,.12.32.3.3,0,0,0,.33,0Z"/><path class="cls-4" d="M147.6,118.09a.19.19,0,0,0,.17-.13.21.21,0,0,0,.07-.11.22.22,0,0,0,0-.16l0,0,0,0-.07,0a.37.37,0,0,0-.14-.06h-.09l-.07,0,0,0,0,0,0,.07a.38.38,0,0,0,.22.41h.11Z"/><path class="cls-4" d="M165.09,119.69h0a.23.23,0,0,0-.05.11h0v0l0,0a.2.2,0,0,0,.09.2h0l.08,0h.23l.08,0,.05-.07,0-.12c0-.21-.13-.32-.32-.32A.19.19,0,0,0,165.09,119.69Z"/><path class="cls-4" d="M144.18,116l-.1-.14H144l-.1,0,0,0h0l-.14.1a.23.23,0,0,0,.18.26.21.21,0,0,0,.17,0A.2.2,0,0,0,144.18,116Z"/><path class="cls-4" d="M144.28,102.25l.07.07h0a.25.25,0,0,0,.18.08.2.2,0,0,0,.15,0l.08,0,.06-.08a.19.19,0,0,0,0-.14h0l0-.06h0v0l0-.07-.06-.06a.29.29,0,0,0-.27,0,.33.33,0,0,0-.17.23A.17.17,0,0,0,144.28,102.25Z"/><path class="cls-4" d="M154.07,104.74l0,0h0l.05,0,0,0,0-.06v0h0l0-.08v-.1a.23.23,0,0,0-.11-.09l0,0-.16,0a.28.28,0,0,0-.19.06h0a.2.2,0,0,0-.06.33l0,0,0,0s0,0,.05,0l0,0a.17.17,0,0,0,.15.07Z"/><path class="cls-4" d="M147.86,103.53h0l0,0,.07-.05,0-.07a.23.23,0,0,0,.11-.16.17.17,0,0,0,0-.14h0L148,103l0,0a.57.57,0,0,0-.11-.11h-.14l-.09,0h-.08l-.07,0-.09.08a.52.52,0,0,0-.12.26v0l0,.07,0,.06,0,0,.05,0a.15.15,0,0,0,0,.06h0v0l0,.06.07,0A.29.29,0,0,0,147.86,103.53Z"/><path class="cls-4" d="M138.18,101.25l.07-.06,0-.08a.24.24,0,0,0-.18-.28.23.23,0,0,0-.27.15v.08l0,.07.07.08.08.05h.09Z"/><path class="cls-4" d="M160.25,104.26v0h0a.17.17,0,0,0,0-.06l0-.09V104l-.07-.09a.3.3,0,0,0-.19-.09h0a.2.2,0,0,0-.18.06h0l-.06,0a.34.34,0,0,0-.06.12v.22l0,.06.05,0a.45.45,0,0,0,.38,0Z"/><path class="cls-4" d="M155.55,106.79a.2.2,0,0,0,.08-.08s.05,0,.06-.07a.49.49,0,0,0,0-.11.57.57,0,0,0-.07-.36l0,0-.05,0-.06,0a.47.47,0,0,0-.45.43v.09l0,0a.27.27,0,0,0,.08.07.18.18,0,0,0,.11.08h.08A.19.19,0,0,0,155.55,106.79Z"/><path class="cls-4" d="M166.21,105a.31.31,0,0,1,0,.08s0,0,0,.1l0,.07.05.06.06,0,.13,0,.09,0,.06,0,0-.07,0-.1v-.06l0,0,0,0a.33.33,0,0,0-.24-.1l-.07,0-.06,0Z"/><path class="cls-4" d="M154.66,101.9l.07,0h0a.23.23,0,0,0,.14-.09.31.31,0,0,0,.06-.13v-.1a.11.11,0,0,1,0,0l0-.08,0-.06-.06,0a.34.34,0,0,0-.24,0l-.08.06,0,.07v0a.34.34,0,0,0-.07.16v.06l0,.08,0,.06.08,0,0,0Z"/><path class="cls-4" d="M137.11,105.75a.27.27,0,0,0,.14-.06l.05-.07a.17.17,0,0,0,.08-.12.22.22,0,0,0,0-.11l0,0,0,0a.33.33,0,0,0-.26-.16H137l-.06,0-.05,0a.84.84,0,0,0-.08.19.32.32,0,0,0,.12.31l.11,0,.05,0Z"/><path class="cls-4" d="M164.37,111.24a.2.2,0,0,0-.12.12v.1l0,0a.21.21,0,0,0,.08.15.19.19,0,0,0,.12,0,.29.29,0,0,0,.31-.23.76.76,0,0,0,0-.15l0,0,0,0,0,0A.27.27,0,0,0,164.37,111.24Z"/><path class="cls-4" d="M171.68,110.71l0,0,0,0a.84.84,0,0,0,0-.17.29.29,0,0,0,0-.26.32.32,0,0,0-.26-.11l-.08,0-.06,0,0,.06,0,0,0,.08v.07l0,.11a.32.32,0,0,0,.34.22Z"/><path class="cls-4" d="M167.1,111.9h0l-.06,0-.06,0a.24.24,0,0,0,0,.08.3.3,0,0,0,.15.33.2.2,0,0,0,.23,0v0l0,0,.06-.09a.4.4,0,0,0-.06-.29l-.05,0-.06,0h-.06A.13.13,0,0,0,167.1,111.9Z"/><path class="cls-4" d="M146.75,99.42l.06,0,0,0a.42.42,0,0,0,.06-.12v-.08l0,0a.24.24,0,0,0-.2-.15.31.31,0,0,0-.28.14l0,.1,0,.08.06.09a.35.35,0,0,0,.22.09Z"/><path class="cls-4" d="M152.61,109.69l0,0v-.05c0-.06,0-.15-.14-.22s-.24,0-.27,0l0,0,0,0,0,.05a.2.2,0,0,0,.12.21.38.38,0,0,0,.29,0Z"/><path class="cls-4" d="M151.22,105.83l.06.12.08,0,.06,0,.05-.07,0-.15v-.1l0,0a.24.24,0,0,0-.31,0c-.17,0-.21.11-.21.15a.17.17,0,0,0,0,.1h0v.09l0,.08a.31.31,0,0,0,.26,0Z"/><path class="cls-4" d="M151.37,110h0a.26.26,0,0,0,.06-.14v-.13l0-.06,0,0a.48.48,0,0,0-.35-.12l-.06,0-.06,0-.07.05,0,0,0,0a.11.11,0,0,0,0,.08l0,0a.31.31,0,0,0,.12.3l0,.06.05,0,.07,0A.33.33,0,0,0,151.37,110Z"/><path class="cls-4" d="M145.57,106.33a.22.22,0,0,0-.12-.22.25.25,0,0,0-.3.12v.13l0,.09.11.06C145.52,106.49,145.56,106.37,145.57,106.33Z"/><path class="cls-4" d="M147.47,108.43l.08-.09a.42.42,0,0,0,.06-.15.23.23,0,0,0-.09-.22h-.07a.24.24,0,0,0-.2,0l0,0-.06.06a.22.22,0,0,0-.09.16h0l0,.1.06.06.07,0a.18.18,0,0,0,.08.06h.1Z"/><path class="cls-4" d="M161.27,109.59l0,.06v0a.23.23,0,0,0,0,.11.24.24,0,0,0,0,.12l0,.06.05,0,.07,0a.45.45,0,0,0,.18.07.19.19,0,0,0,.12,0,.19.19,0,0,0,.17-.15v-.07a.26.26,0,0,0,0-.08.24.24,0,0,0-.06-.23l-.05,0,0,0h-.05a.35.35,0,0,0-.3,0Z"/><path class="cls-4" d="M147.75,107.64l.08,0,0-.06v-.07a.22.22,0,0,0,.06-.13v-.08l0-.06-.08-.07a.26.26,0,0,0-.23-.06l-.06,0,0,0-.06.08a.52.52,0,0,0-.06.15.23.23,0,0,0,.09.24l.11,0,0,0v0Z"/><rect class="cls-3" x="141.44" y="59.93" width="33.99" height="35.67" transform="translate(0.22 155.97) rotate(-52.45)"/><path class="cls-4" d="M160,67v-.09a.17.17,0,0,0-.06-.06.15.15,0,0,0-.18,0h0l-.08,0a.24.24,0,0,0,0,.36.21.21,0,0,0,.2,0l.06-.08A.22.22,0,0,0,160,67Z"/><path class="cls-4" d="M158.85,73.54l0,0,0,0a.34.34,0,0,0,.35,0l.06-.08v-.09l-.06-.1-.07-.06h0l0,0-.09,0-.11,0a.32.32,0,0,0-.1.25Z"/><path class="cls-4" d="M156.37,77.19l-.06,0-.08,0h-.07l-.08,0a.37.37,0,0,0-.05.22l0,.11,0,.07.1,0a.22.22,0,0,0,.2-.23h0v-.13Z"/><path class="cls-4" d="M146.16,67.49a.19.19,0,0,0-.25,0l-.07.08,0,.08,0,.11h0a.19.19,0,0,0,.23,0l.09-.06,0-.09Z"/><path class="cls-4" d="M161,84.49a.22.22,0,0,0,.14-.12v-.08l0-.07,0,0,0-.06-.06,0-.08,0a.21.21,0,0,0-.17.16h0l0,.05v.08l.05.08A.23.23,0,0,0,161,84.49Z"/><path class="cls-4" d="M155.68,78.32l0,0a.39.39,0,0,0,.3,0l.07-.08,0-.08,0-.11v-.12l0-.06,0,0h0a.21.21,0,0,0-.08-.11h-.05a.35.35,0,0,0-.08-.1.17.17,0,0,0-.18,0l-.05.05a.22.22,0,0,0-.14.13v.07l0,.07.05,0,.09.06h0l0,0v.09l0,0a.36.36,0,0,0,.08.15Z"/><path class="cls-4" d="M153.55,66.46l0,0a.19.19,0,0,0-.22,0h0a.25.25,0,0,0-.17.12v.14l0,.06h0a.2.2,0,0,0,.16,0l.06,0a.21.21,0,0,0,.2-.14v-.08Z"/><path class="cls-4" d="M142.08,81.14l0,0,0,0a.2.2,0,0,0-.25,0l-.07,0,0,.06v.09a.21.21,0,0,0,.08.11.22.22,0,0,0,.23,0,.22.22,0,0,0,.12-.21Z"/><path class="cls-4" d="M155.83,62.2l0-.08-.06,0h-.09a.21.21,0,0,0-.25.14v.07l0,.06.05.07a.35.35,0,0,0,.08.1.21.21,0,0,0,.13.05l.11-.07v0h0a.22.22,0,0,0,.08-.16A.24.24,0,0,0,155.83,62.2Z"/><path class="cls-4" d="M143.9,76.17l-.08,0h-.09a.22.22,0,0,0-.25.15v.1l.07.1,0,0a.25.25,0,0,0,.11,0,.16.16,0,0,0,.09,0l.06,0,.05,0,0,0A.27.27,0,0,0,143.9,76.17Z"/><path class="cls-4" d="M142,77.84a.23.23,0,0,0,0-.12.26.26,0,0,0,0-.09.2.2,0,0,0-.06-.13l0,0h-.1l-.07,0a.25.25,0,0,0-.17.08.29.29,0,0,0-.07.22.32.32,0,0,0,.13.22.28.28,0,0,0,.38,0l0-.07Z"/><path class="cls-4" d="M146.76,72.15h0l.08,0,.07,0,.06,0,0,0,0-.07v-.09s0-.05,0-.08l-.11,0h0v0a.19.19,0,0,0-.18.1.17.17,0,0,0,0,.19h0S146.74,72.13,146.76,72.15Z"/><path class="cls-4" d="M155.17,71h0l.11,0a.2.2,0,0,0,.11,0h0a.17.17,0,0,0,.23,0l0-.08v0a.15.15,0,0,0,0-.09h0l0-.09,0-.12-.07.07h0l0-.11-.08-.09-.1,0a.31.31,0,0,0-.2,0l0,0a.18.18,0,0,0-.07,0,.25.25,0,0,0-.09.09l-.08.09,0,.09a.17.17,0,0,0,.05.21A.13.13,0,0,0,155.17,71Z"/><path class="cls-4" d="M150.93,65.93a.33.33,0,0,0,.1.06h.11l.06,0a.23.23,0,0,0,.06-.31l0-.07-.05,0-.07,0-.1,0h0l-.09.05A.21.21,0,0,0,150.93,65.93Z"/><path class="cls-4" d="M153,76v0a.2.2,0,0,0,0-.13V75.8l0,0-.05-.06a.33.33,0,0,0-.12-.06h0l-.06,0h-.08c-.28.09-.24.38-.23.48l.08.09h0s0,0,0,0h0l0,0a.2.2,0,0,0,.11,0h.1a.31.31,0,0,0,.16-.14Z"/><path class="cls-4" d="M163.3,61.6l0-.06a.22.22,0,0,0-.06-.21l-.07-.06-.07,0H163v0H163l-.08.05a.05.05,0,0,1,0,0,.25.25,0,0,0-.22.16v0a.54.54,0,0,0,.07.29l.05,0,.06,0,0,0,.08,0H163l.08-.05s0,0,.06,0l.09-.07Z"/><path class="cls-4" d="M143.1,87.06l0-.07a.23.23,0,0,0-.08-.12.22.22,0,0,0-.13,0,.2.2,0,0,0-.15.1l0,.08v.07l0,.07.09.06.08,0H143l.08-.06,0-.06Z"/><path class="cls-4" d="M148.36,80.06l-.09,0-.07,0-.07,0,0,0a.29.29,0,0,0-.17.16v.06a.17.17,0,0,0,.07.14.18.18,0,0,0,.16,0h.08l.12,0A.29.29,0,0,0,148.36,80.06Z"/><path class="cls-4" d="M149.31,83.49l-.06,0-.07,0h-.08a.32.32,0,0,0-.22.26l0,0h0a.24.24,0,0,0,.09.21h.17a.23.23,0,0,0,.16-.07l0-.05A.44.44,0,0,0,149.31,83.49Z"/><path class="cls-4" d="M151.8,77.48a.09.09,0,0,0,0,0l0,0a.16.16,0,0,0-.06-.08l-.07,0h-.09l-.06,0a.31.31,0,0,0-.14.2.23.23,0,0,0,.06.16l0,0,0,0h.07a.23.23,0,0,0,.22-.07.19.19,0,0,0,0-.18Z"/><path class="cls-4" d="M146.91,76.29l0-.06,0,0-.05,0a.25.25,0,0,0-.24-.06l-.06,0a.25.25,0,0,0-.07.31l.05,0,.06,0h.06a.25.25,0,0,0,.3-.16Z"/><path class="cls-4" d="M152.59,72.33v0a.16.16,0,0,0-.05-.12l0,0,0,0h0l-.05,0h-.11l-.08,0a.18.18,0,0,0,0,.27h0a.24.24,0,0,0,.06.09l0,0h.12l.09,0a.19.19,0,0,0,.11-.14Z"/><path class="cls-4" d="M155.79,67.65a.24.24,0,0,0,.16-.11.2.2,0,0,0,0-.17l-.09-.05h-.08v0a.2.2,0,0,0-.19.08.19.19,0,0,0,0,.19l.08.06.09,0Z"/><path class="cls-4" d="M150.79,59.09l0-.11-.09-.07h-.1l-.09,0a.23.23,0,0,0-.13.11v.12l0,.06,0,0a.18.18,0,0,0,.1,0h.13l.1,0h0l.06-.06Z"/><path class="cls-4" d="M140.31,74.2a.17.17,0,0,0-.07-.17l-.06,0h-.13a.37.37,0,0,0-.16,0l0,.09v.08l0,.09,0,0c.21.16.34.07.4,0l0-.09Z"/><path class="cls-4" d="M175,84.51l0,0,.07,0h.07l.06,0a.22.22,0,0,0,.07-.17.3.3,0,0,0-.12-.18h0l-.06,0H175l0,0a.21.21,0,0,0-.1.17A.19.19,0,0,0,175,84.51Z"/><path class="cls-4" d="M167.24,82.81l0-.06,0,0-.07,0H167a.2.2,0,0,0-.09,0l0,.1v.09l0,.07a.2.2,0,0,0,.17,0,.19.19,0,0,0,.13-.1v-.08Z"/><path class="cls-4" d="M168.86,80.08a.25.25,0,0,0-.11-.18.2.2,0,0,0-.3,0v0a.19.19,0,0,0,0,.22l0,0a.14.14,0,0,0,.09,0l.07,0,.11,0,.07,0,0,0,0-.05Z"/><path class="cls-4" d="M165.34,87.14v0l0,0,0,0a.24.24,0,0,0-.24,0,.29.29,0,0,0-.19.2v.07l0,.05,0,.08a.33.33,0,0,0,.08.11l.05,0h.12a.35.35,0,0,0,.21-.32Z"/><path class="cls-4" d="M167.27,84.84a.1.1,0,0,0-.05,0l-.07,0-.07,0-.07,0-.07.08,0,.07v.06l0,.08a.31.31,0,0,0,.1.1.23.23,0,0,0,.22,0l0,0a.24.24,0,0,0,.08-.2A.29.29,0,0,0,167.27,84.84Z"/><path class="cls-4" d="M158,96.11l-.08,0h-.1a.18.18,0,0,0-.12,0l0,.09v.08l0,.06.1,0-.1,0,.09.07h.09l.11-.07A.18.18,0,0,0,158,96.11Z"/><path class="cls-4" d="M158.49,90.46l-.07,0h-.07l-.07,0a.19.19,0,0,0-.08.18.2.2,0,0,0,.09.17l0,0h.14l.06,0A.24.24,0,0,0,158.49,90.46Z"/><path class="cls-4" d="M171.1,75.36h0v-.07l-.06-.08a.27.27,0,0,0-.34,0l0,.06v.07l0,.08,0,0a.25.25,0,0,0,.14,0,.21.21,0,0,0,.2,0l0-.07Z"/><path class="cls-4" d="M163.5,87l0-.06,0,0-.05,0-.08,0h-.08l-.08.06a.2.2,0,0,0,0,.26l.06,0,.07,0a.21.21,0,0,0,.23-.15Z"/><path class="cls-4" d="M147.9,87.65a.24.24,0,0,0-.16,0l-.07,0,0,0c-.06.07-.12.19.06.34h.06v0h.07l.07,0a.27.27,0,0,0,.08-.18A.23.23,0,0,0,147.9,87.65Z"/><path class="cls-4" d="M173.11,77.56a.31.31,0,0,0-.1,0h-.13l0,0,0,0,0,.07v.07l.06.09,0,0s0,0,0,0l0,0h.12l.06,0a.21.21,0,0,0,.07-.18A.19.19,0,0,0,173.11,77.56Z"/><path class="cls-4" d="M172.61,81.86l-.09,0-.06,0a.18.18,0,0,0-.18.07l0,0v.11l.07.09a.2.2,0,0,0,.27,0A.19.19,0,0,0,172.61,81.86Z"/><path class="cls-4" d="M172.19,88.29l.1,0,.07-.09,0-.08V88l-.06-.09h-.11A.25.25,0,0,0,172,88a.28.28,0,0,0,0,.22l.09.06Z"/><path class="cls-4" d="M161.74,95.4v0h0a.18.18,0,0,0,0-.22h0l0,0,0,0a.28.28,0,0,0-.23-.06.32.32,0,0,0-.21.16l0,.09,0,.07a.21.21,0,0,0,.07.15l.08,0h0l0,0a.18.18,0,0,0,.23,0l0,0Z"/><path class="cls-4" d="M166.56,96.38a.24.24,0,0,0-.05-.13.22.22,0,0,0-.08-.14.47.47,0,0,0-.3-.06l0,0-.05,0a.41.41,0,0,0-.12.27.32.32,0,0,0,.14.24l.07,0h.12l.06,0,0,0C166.4,96.59,166.56,96.55,166.56,96.38Z"/><path class="cls-4" d="M155.65,89.83a.27.27,0,0,0,.17.06h.05l0,0,0,0c.14-.19,0-.31,0-.35l-.05,0h-.08l-.07,0-.05,0-.1.08,0,.07v.07l0,.07Z"/><path class="cls-4" d="M162.84,91.85l0,0,0,0h0a.18.18,0,0,0-.17,0h-.1l0,0,0,0v0h0a.18.18,0,0,0,0,.24l0,0a.28.28,0,0,0,.31,0,.24.24,0,0,0,.12-.26Z"/><path class="cls-4" d="M168.28,89.13a.17.17,0,0,0,0-.19.2.2,0,0,0-.07-.1.17.17,0,0,0-.14,0h0l0,0-.06,0a.48.48,0,0,0-.11.08l0,.07v.13l0,0,0,0a.33.33,0,0,0,.42,0l0-.09Z"/><path class="cls-4" d="M176.67,75.93h0a.18.18,0,0,0,.07.09h0v0l0,0a.16.16,0,0,0,.19,0l0,0,0-.06,0-.08.06-.11v-.08l0-.07-.09-.07a.29.29,0,0,0-.39.13A.18.18,0,0,0,176.67,75.93Z"/><path class="cls-4" d="M165.21,91l-.15,0,0,0h0l-.06.08v0l0,0,0,.15a.19.19,0,0,0,.28,0,.19.19,0,0,0,0-.29Z"/><path class="cls-4" d="M154.38,85.3l.09,0h0a.26.26,0,0,0,.14-.11.17.17,0,0,0,0-.14v-.08l0-.09a.33.33,0,0,0-.12,0h-.14l-.07,0a.23.23,0,0,0-.09.22.28.28,0,0,0,.11.23A.15.15,0,0,0,154.38,85.3Z"/><path class="cls-4" d="M160.35,78.56l0,0v-.08l0,0,0-.05,0,0h0l-.06,0-.08,0a.21.21,0,0,0-.12,0l0,0-.09.11a.25.25,0,0,0,0,.18v0a.16.16,0,0,0,.06.15.17.17,0,0,0,.17,0h0l.07,0h.09a.19.19,0,0,0,.11-.09Z"/><path class="cls-4" d="M156.86,83h0v0l0-.07,0-.06a.31.31,0,0,0-.08-.15.16.16,0,0,0-.13,0h-.13a.34.34,0,0,0-.14,0l-.05.07v0l-.06.07,0,.06V83l0,.1a.56.56,0,0,0,.16.21l0,0,.06,0h.06l.06,0,0,0a.16.16,0,0,0,.07,0h0l.06,0,.06,0A.28.28,0,0,0,156.86,83Z"/><path class="cls-4" d="M151.11,89.72l0-.08-.05-.06a.21.21,0,0,0-.29,0,.19.19,0,0,0,0,.27l.06,0h.07l.09,0,.07,0,0-.07Z"/><path class="cls-4" d="M162.49,73.48l0,0,0,0,0,0-.06-.06-.08,0-.1,0a.3.3,0,0,0-.15.12h0a.15.15,0,0,0,0,.16v.1a.39.39,0,0,0,.08.1l.06,0,0,0,.06,0h.06l.07,0a.42.42,0,0,0,.17-.28Z"/><path class="cls-4" d="M162.58,78.22a.09.09,0,0,0,0-.08.14.14,0,0,0,0-.09.23.23,0,0,0-.07-.07.44.44,0,0,0-.31-.09l0,0,0,0,0,0a.42.42,0,0,0,.15.54l0,0h.08a.19.19,0,0,0,.09,0,.21.21,0,0,0,.12,0l0-.07A.19.19,0,0,0,162.58,78.22Z"/><path class="cls-4" d="M165.53,69.07s0,0,.05.05,0,0,.08,0h.07l.06,0,.06,0,.07-.08,0-.08v-.07l0-.08-.07,0,0,0h-.09a.27.27,0,0,0-.18.15V69Z"/><path class="cls-4" d="M158.34,76.94v-.08h0a.24.24,0,0,0,0-.14.22.22,0,0,0-.09-.1l-.07-.05,0,0-.07,0H158l-.06,0a.25.25,0,0,0-.09.19v.09l0,.07,0,0a.45.45,0,0,0,.1.13l0,0h.14l.07,0v0Z"/><path class="cls-4" d="M154.23,92.4a.22.22,0,0,0,0-.13.16.16,0,0,0,0-.07.11.11,0,0,0-.06-.11.15.15,0,0,0-.09,0H154a.32.32,0,0,0-.24.14v.17a.53.53,0,0,0,.12.14.29.29,0,0,0,.3,0l.06-.07v0Z"/><path class="cls-4" d="M169.69,73.06a.16.16,0,0,0,.05.14l.09,0h0a.17.17,0,0,0,.16,0s.08,0,.08-.08a.24.24,0,0,0-.05-.33.31.31,0,0,0-.13-.06h-.08l-.05,0A.23.23,0,0,0,169.69,73.06Z"/><path class="cls-4" d="M172.25,67.06V67l0,0a.57.57,0,0,0-.11-.11.26.26,0,0,0-.23-.06.27.27,0,0,0-.2.15V67l0,.07,0,.06v0l0,.06.06,0,.1,0a.3.3,0,0,0,.31-.18Z"/><path class="cls-4" d="M171.32,71.17v.08l0,.07.06.05a.27.27,0,0,0,.31,0,.18.18,0,0,0,.07-.21h0v0L171.7,71a.33.33,0,0,0-.25-.07l0,0,0,0,0,0A.28.28,0,0,0,171.32,71.17Z"/><path class="cls-4" d="M153.15,82.18v-.05l0,0a.22.22,0,0,0-.07-.1L153,82H153a.25.25,0,0,0-.2.1.28.28,0,0,0,0,.28l.07.06H153a.29.29,0,0,0,.16-.13Z"/><path class="cls-4" d="M163.67,81.74l0,0,0,0s-.12,0-.24,0-.1.19-.1.21v0l0,0,0,0a.18.18,0,0,0,.22,0s.13-.12.12-.23Z"/><path class="cls-4" d="M160.05,81.27h.12v-.14l0-.06L160,81l0,0h-.1a.22.22,0,0,0-.15.23.16.16,0,0,0,0,.23.11.11,0,0,0,.07,0h0l.07,0H160a.24.24,0,0,0,.14-.18Z"/><path class="cls-4" d="M163.43,82.85h0a.27.27,0,0,0-.09-.1l0,0-.06,0h-.11a.44.44,0,0,0-.23.23V83a.14.14,0,0,0,0,.06v.08l0,0,0,0,.07,0v0a.27.27,0,0,0,.28,0h.07l.05,0,.05,0A.31.31,0,0,0,163.43,82.85Z"/><path class="cls-4" d="M158.14,85.94a.17.17,0,0,0-.22,0,.23.23,0,0,0,0,.28l.1.06h.09l.1-.06A.23.23,0,0,0,158.14,85.94Z"/><path class="cls-4" d="M160.57,85.29l0-.09a.31.31,0,0,0-.09-.11.17.17,0,0,0-.21,0l0,0a.22.22,0,0,0-.1.15v0l0,.07a.24.24,0,0,0,.09.13h0l.09,0,.07,0,.06,0a.2.2,0,0,0,.08,0l0-.07Z"/><path class="cls-4" d="M167.12,74.84l0,0h0a.17.17,0,0,0,.07.08.19.19,0,0,0,.09,0h.12l.07,0a.23.23,0,0,0,.13-.1.38.38,0,0,0,0-.31l-.06,0s0,0-.05,0a.2.2,0,0,0-.21,0l0,0,0,0,0,0a.34.34,0,0,0-.12.24Z"/><path class="cls-4" d="M160.07,84.75v-.08l0-.07-.05,0a.37.37,0,0,0-.07-.1l-.07,0h-.06l-.09,0a.25.25,0,0,0-.14.16v.11l0,.08a.31.31,0,0,0,.09.11.24.24,0,0,0,.23,0l.07-.08v0h0A.27.27,0,0,0,160.07,84.75Z"/><rect class="cls-3" x="153.38" y="43.03" width="19.22" height="20.16" transform="translate(9.99 130.42) rotate(-44.86)"/><path class="cls-4" d="M161.29,59.06v0l0,0a.1.1,0,0,0,.1,0h.07a.11.11,0,0,0,0-.09.14.14,0,0,0,0-.11.11.11,0,0,0-.11,0l0,0s-.05,0-.06.05Z"/><path class="cls-4" d="M162.44,55.45v0l0,0a.19.19,0,0,0-.19,0l0,.05,0,0,0,.07,0,0h0v0l.05,0h.07s.07-.07.07-.13Z"/><path class="cls-4" d="M164.1,53.59l0,0,0,0h.05l0,0a.43.43,0,0,0,.05-.13v-.06l0,0-.05,0s-.11,0-.13.12h0v.07Z"/><path class="cls-4" d="M169.1,59.79s.07.05.14,0l0,0,0-.05v-.06h0a.11.11,0,0,0-.13,0l-.06,0,0,.05Z"/><path class="cls-4" d="M162.06,49.16a.11.11,0,0,0-.09.05v.11l0,0,0,0,0,0a.11.11,0,0,0,.11-.08h0v-.08l0-.05A.16.16,0,0,0,162.06,49.16Z"/><path class="cls-4" d="M164.57,53h0a.17.17,0,0,0-.17,0l0,0,0,0v.13l0,0s0,0,0,0h0a.13.13,0,0,0,0,.07h0a.21.21,0,0,0,0,.06.09.09,0,0,0,.1,0l0,0a.14.14,0,0,0,.08-.06v-.08l0,0,0,0h0v-.08h0a.13.13,0,0,0,0-.09Z"/><path class="cls-4" d="M164.88,59.82l0,0a.12.12,0,0,0,.12,0h0a.21.21,0,0,0,.1-.06l0,0V59.7h0a.09.09,0,0,0-.08,0h0a.12.12,0,0,0-.12.07v.08Z"/><path class="cls-4" d="M172.4,52.45v0h0a.11.11,0,0,0,.14,0l0,0,0,0v0a.09.09,0,0,0,0-.07.11.11,0,0,0-.13,0,.11.11,0,0,0-.08.1Z"/><path class="cls-4" d="M163.28,62s0,0,0,0l0,0,0,0a.12.12,0,0,0,.14-.06V62l0,0,0-.06-.06,0-.07,0v0h0a.1.1,0,0,0-.05.08A.14.14,0,0,0,163.28,62Z"/><path class="cls-4" d="M171,55.1l0,0h0a.14.14,0,0,0,.16-.06V55l0-.06h0l-.06,0-.05,0H171l0,0A.16.16,0,0,0,171,55.1Z"/><path class="cls-4" d="M172.2,54.3a.08.08,0,0,0,0,.07s0,0,0,.05a.08.08,0,0,0,0,.08h.12a.16.16,0,0,0,.1,0,.17.17,0,0,0,.05-.12.16.16,0,0,0-.05-.14.17.17,0,0,0-.22,0l0,0Z"/><path class="cls-4" d="M169.11,57.13h0l0,0h0l0,0,0,0v.08a.39.39,0,0,0,0,.06l0,0h0a.09.09,0,0,0,.1,0,.09.09,0,0,0,0-.11h0Z"/><path class="cls-4" d="M164.31,57.15h0l-.06,0h-.07a.09.09,0,0,0-.12,0l0,0v0l0,.05h0l0,0,0,.08,0,0h0l0,.06,0,.06.06,0a.11.11,0,0,0,.11,0h0l0,0a.15.15,0,0,0,.06,0l.05,0,0-.05a.12.12,0,0,0,0-.13Z"/><path class="cls-4" d="M166.31,60.3l-.05,0h-.1a.14.14,0,0,0-.06.17l0,0,0,0,0,0,.06,0h0l.05,0A.14.14,0,0,0,166.31,60.3Z"/><path class="cls-4" d="M165.9,54.48v0a.11.11,0,0,0,0,.08h0v.06l0,0a.11.11,0,0,0,.07,0h0l0,0h0c.16,0,.16-.2.16-.25l0-.06h0s0,0,0,0h0l0,0H166a.12.12,0,0,0-.1.06Z"/><path class="cls-4" d="M159.05,61.81v0a.13.13,0,0,0,0,.13l0,0,0,0h0v0h0l0,0,0,0a.13.13,0,0,0,.14-.08v0a.22.22,0,0,0,0-.16l0,0,0,0,0,0,0,0h0l-.05,0s0,0,0,0l0,0Z"/><path class="cls-4" d="M172.27,49.05v0a.12.12,0,0,0,0,.08.09.09,0,0,0,.07,0,.15.15,0,0,0,.09-.05V49l0-.05h-.08l0,0,0,0Z"/><path class="cls-4" d="M168.8,52.58l0,0h0l0,0h0a.14.14,0,0,0,.11-.07v0a.1.1,0,0,0,0-.09.1.1,0,0,0-.08,0h0l0,0-.07,0A.16.16,0,0,0,168.8,52.58Z"/><path class="cls-4" d="M168.53,50.59l0,0,0,0h0a.21.21,0,0,0,.14-.14v0h0a.12.12,0,0,0,0-.12h0l0,0h0a.1.1,0,0,0-.1,0l0,0A.25.25,0,0,0,168.53,50.59Z"/><path class="cls-4" d="M166.68,53.77v0h0a.05.05,0,0,0,0,0l0,0h.09s.08-.05.09-.1a.12.12,0,0,0,0-.1l0,0h-.06s-.09,0-.13,0a.13.13,0,0,0,0,.1Z"/><path class="cls-4" d="M169.33,54.8v.07l0,0a.13.13,0,0,0,.13,0h0a.17.17,0,0,0,.06-.17l0,0,0,0h0a.13.13,0,0,0-.18.06Z"/><path class="cls-4" d="M165.85,56.6h0a.08.08,0,0,0,0,.07l0,0H166l.05,0a.1.1,0,0,0,0-.16h0a.09.09,0,0,0,0-.06H166l0,0a.1.1,0,0,0-.08.07Z"/><path class="cls-4" d="M163.71,59a.11.11,0,0,0-.09.05.12.12,0,0,0,0,.1l0,0h.05v0a.09.09,0,0,0,.11,0,.08.08,0,0,0,0-.1l0,0-.05,0Z"/><path class="cls-4" d="M165.88,64.15v.06l0,.05H166a.12.12,0,0,0,.08-.05l0,0v0l0,0v0l-.05,0H166l0,0h0l0,0Z"/><path class="cls-4" d="M172.87,56.46a.11.11,0,0,0,0,.11l0,0h.17l0,0v-.1l0,0c-.11-.11-.18-.07-.22,0l0,0Z"/><path class="cls-4" d="M154.24,48.1l0,0h-.11a.11.11,0,0,0,0,.09.17.17,0,0,0,0,.11h.11a.11.11,0,0,0,.06-.09A.11.11,0,0,0,154.24,48.1Z"/><path class="cls-4" d="M158.43,49.63v0h0l0,0h.1l0-.06v-.05l0,0a.19.19,0,0,0-.1,0l-.08,0v.08Z"/><path class="cls-4" d="M157.31,51a.19.19,0,0,0,.05.11.13.13,0,0,0,.18,0h0a.1.1,0,0,0,0-.12l0,0a.05.05,0,0,0,0,0l0,0h-.1l0,0,0,0Z"/><path class="cls-4" d="M159.81,47.35v0l0,0a.18.18,0,0,0,.13,0,.21.21,0,0,0,.13-.1V47.3l0,0,0-.06,0,0H160a.19.19,0,0,0-.15.16Z"/><path class="cls-4" d="M158.56,48.49l0,0h.08l0,0,0,0,0,0v-.08a.21.21,0,0,0,0-.06.13.13,0,0,0-.12,0h0a.24.24,0,0,0-.06.11A.19.19,0,0,0,158.56,48.49Z"/><path class="cls-4" d="M164.62,42.87l0,0h.05a.11.11,0,0,0,.07,0l0,0v-.08h0l-.05,0,0,0-.06,0C164.58,42.79,164.6,42.84,164.62,42.87Z"/><path class="cls-4" d="M163.9,46l0,0H164a.11.11,0,0,0,.06-.1.13.13,0,0,0,0-.1h0l0,0h0l0,0A.14.14,0,0,0,163.9,46Z"/><path class="cls-4" d="M155.71,53.52h0v0l0,0a.17.17,0,0,0,.19,0l0,0V53.5l0,0a.11.11,0,0,0-.08,0,.11.11,0,0,0-.11,0l0,0Z"/><path class="cls-4" d="M160.84,47.58v0l0,0,0,0H161l.05,0c.07-.07,0-.12,0-.15l0,0,0,0a.12.12,0,0,0-.14.07Z"/><path class="cls-4" d="M169.63,48.36a.13.13,0,0,0,.09,0h.06s.07-.1,0-.2h0v0h-.08a.13.13,0,0,0,0,.2Z"/><path class="cls-4" d="M154.75,52.14l.05,0h.1l0,0,0,0v0l0,0s0,0,0,0l0,0h-.13a.14.14,0,0,0,0,.1A.12.12,0,0,0,154.75,52.14Z"/><path class="cls-4" d="M155.35,49.76l.05,0h0a.12.12,0,0,0,.11,0v-.09l0-.05a.11.11,0,0,0-.16,0A.1.1,0,0,0,155.35,49.76Z"/><path class="cls-4" d="M156.06,46.19l-.06,0,0,0,0,0v0l0,.06H156a.12.12,0,0,0,.1,0,.13.13,0,0,0,0-.12l0,0Z"/><path class="cls-4" d="M162.45,43h0a.1.1,0,0,0,0,.12h0v0a.15.15,0,0,0,.12.06.21.21,0,0,0,.14-.08v-.09a.09.09,0,0,0,0-.09l0,0h0v0a.11.11,0,0,0-.13,0l0,0Z"/><path class="cls-4" d="M159.82,42.08a.13.13,0,0,0,0,.08.09.09,0,0,0,0,.08.24.24,0,0,0,.16,0h.06a.19.19,0,0,0,.08-.14.16.16,0,0,0-.06-.15l0,0,0,0H160S159.83,42,159.82,42.08Z"/><path class="cls-4" d="M165.45,46.56a.2.2,0,0,0-.09-.05h-.06l0,0c-.1.1-.05.17,0,.19l0,0h.09l0,0,.06,0,0,0v-.08Z"/><path class="cls-4" d="M161.57,44.89v0l0,0h0s.06.05.09,0a0,0,0,0,0,.05,0h0l0,0v0h0a.12.12,0,0,0,0-.14h0a.14.14,0,0,0-.17,0,.16.16,0,0,0-.09.14Z"/><path class="cls-4" d="M158.32,46a.09.09,0,0,0,0,.11.09.09,0,0,0,0,.06.11.11,0,0,0,.08,0h0l0,0a.09.09,0,0,0,.07,0l0,0V46l0,0a.17.17,0,0,0-.23,0l0,.05Z"/><path class="cls-4" d="M152.63,52.78h0a.09.09,0,0,0,0-.05h0v0a.14.14,0,0,0-.11,0l0,0,0,0,0,0,0,.05v.09l0,0a.14.14,0,0,0,.22,0A.09.09,0,0,0,152.63,52.78Z"/><path class="cls-4" d="M160.17,45.21h.09l0,0h0l0,0v0h0V45a.12.12,0,0,0-.16,0,.11.11,0,0,0,0,.08A.12.12,0,0,0,160.17,45.21Z"/><path class="cls-4" d="M165.82,49.2h-.07a.12.12,0,0,0-.08,0,.11.11,0,0,0,0,.08v.1l.07,0h.12a.14.14,0,0,0,.06-.12.15.15,0,0,0,0-.13A.05.05,0,0,0,165.82,49.2Z"/><path class="cls-4" d="M162,52.53v.12l0,0h0l0,0,0,0,.07,0h0l.06-.06a.14.14,0,0,0,0-.1h0a.08.08,0,0,0,0-.09s-.05,0-.09,0h-.11a.1.1,0,0,0-.07,0Z"/><path class="cls-4" d="M164.26,50.31h0v.1a.12.12,0,0,0,0,.09.09.09,0,0,0,.07,0h.07a.11.11,0,0,0,.08,0l0,0h0l0,0,0,0V50.3a.22.22,0,0,0-.07-.12l0,0h-.2l0,0A.13.13,0,0,0,164.26,50.31Z"/><path class="cls-4" d="M168,47v0s0,0,0,0a.12.12,0,0,0,.17,0,.11.11,0,0,0,0-.15l0,0h-.09l0,0,0,0Z"/><path class="cls-4" d="M160.39,55.22h0v0l0,0,0,0,0,0h.06a.28.28,0,0,0,.09,0h0a.08.08,0,0,0,0-.09h0v0a.13.13,0,0,0,0-.06l0,0,0,0,0,0h-.07a.31.31,0,0,0-.12.15Z"/><path class="cls-4" d="M160.7,52.55a.09.09,0,0,0,0,.05.07.07,0,0,0,0,0l0,.05a.25.25,0,0,0,.16.07H161l0,0a.24.24,0,0,0,0-.31h-.07l-.06,0a.07.07,0,0,0-.06,0l0,0A.11.11,0,0,0,160.7,52.55Z"/><path class="cls-4" d="M158.36,57.46l0,0-.05,0h-.07l0,0,0,0,0,0v0l0,0,0,0h.08a.19.19,0,0,0,.11-.07V57.5Z"/><path class="cls-4" d="M163,53.58v.05h0a.09.09,0,0,0,0,.08.21.21,0,0,0,0,.06l0,0s0,0,0,0h.11a.12.12,0,0,0,.06-.1v0l0,0v0s0,0,0-.07l0,0h-.08l0,0h0Z"/><path class="cls-4" d="M166.43,45.23s0,0,0,.07,0,0,0,0a.09.09,0,0,0,0,.07l0,0h.06a.15.15,0,0,0,.14-.06v-.09a.24.24,0,0,0-.06-.09.16.16,0,0,0-.16,0l0,0v0Z"/><path class="cls-4" d="M156.33,54.91a.08.08,0,0,0,0-.08l-.05,0h0a.1.1,0,0,0-.09,0l0,0a.13.13,0,0,0,0,.19s0,0,.06,0h.08A.16.16,0,0,0,156.33,54.91Z"/><path class="cls-4" d="M154.45,58.08v.07l0,.07a.19.19,0,0,0,.12.05.15.15,0,0,0,.12-.07v-.09l0,0V58l0,0-.06,0a.17.17,0,0,0-.19.08Z"/><path class="cls-4" d="M155.27,55.85h0v-.07l0,0a.15.15,0,0,0-.18,0,.09.09,0,0,0,0,.11h0v0l0,0a.18.18,0,0,0,.14.06h0l0,0,0,0A.09.09,0,0,0,155.27,55.85Z"/><path class="cls-4" d="M166.27,51v.06a.11.11,0,0,0,0,.06l0,0h0a.11.11,0,0,0,.12,0,.16.16,0,0,0,0-.15l0,0,0,0h-.06a.11.11,0,0,0-.09.06Z"/><path class="cls-4" d="M160.35,50.5v0s.06,0,.14,0,.07-.1.07-.12v0l0,0a.09.09,0,0,0-.12,0s-.08,0-.08.11Z"/><path class="cls-4" d="M162.34,51h-.06l0,0v.07l.06.06h.07s.09,0,.1-.12a.09.09,0,0,0,0-.13.05.05,0,0,0,0,0h0l0,0h-.05a.13.13,0,0,0-.09.09Z"/><path class="cls-4" d="M160.56,49.89h0s0,0,0,.07l0,0h.09a.25.25,0,0,0,.15-.11v0s0,0,0,0v-.07l0,0,0,0v0a.2.2,0,0,0-.16,0h-.07l0,0A.18.18,0,0,0,160.56,49.89Z"/><path class="cls-4" d="M163.76,48.56a.1.1,0,0,0,.12,0,.13.13,0,0,0,0-.16l0,0h-.05l-.06,0C163.71,48.49,163.74,48.54,163.76,48.56Z"/><path class="cls-4" d="M162.35,48.74v0a.25.25,0,0,0,0,.07.1.1,0,0,0,.12,0l0,0a.08.08,0,0,0,.07-.07v-.07a.14.14,0,0,0,0-.08h0l0,0h-.05l0,0-.05,0,0,0Z"/><path class="cls-4" d="M157.9,54.11l0,0v0l0-.05-.05,0h-.06l-.05,0a.25.25,0,0,0-.08,0,.07.07,0,0,0,0,.06.09.09,0,0,0,0,.12h0l0,0a.13.13,0,0,0,.11,0l0,0h0l0,0a.16.16,0,0,0,.08-.13Z"/><path class="cls-4" d="M162.59,49.08v.09l0,0a.61.61,0,0,0,0,.06l0,0h0l.05,0a.11.11,0,0,0,.09-.07v-.07l0,0s0,0,0-.06a.12.12,0,0,0-.13,0l0,0v0h0Z"/></g></svg>