<svg xmlns="http://www.w3.org/2000/svg" viewBox="0 0 166.4 96.94"><defs><style>.cls-1{fill:#8d5c25;}</style></defs><title>kombucha</title><g id="Layer_2" data-name="Layer 2"><path class="cls-1" d="M154.37,59.22c5-6.57,2.87-16.49-2.59-22.65s-13.44-9.39-21.22-12.1c-38.36-13.36-80.59-19-119.7-8C6.29,17.73,1.31,19.58.23,25a10.66,10.66,0,0,0,1.6,7.75c3.13,5,8.58,7.28,13.81,9.44h0c-6.28-1.08-13.67,3-14.2,9.33C1,56.84,7.59,61.27,12.07,59.54a1.84,1.84,0,0,1,2.43,1.13c1.12,3.3,5.22,5.65,8.93,5.34,3.32-.28,6.27-1.94,9-4a3.45,3.45,0,0,1,4.89.81,12.83,12.83,0,0,0,11,5.5c2.28-.14,4.7-.89,6.77.07,1.62.76,2.62,2.39,3.93,3.61,4.6,4.26,11.24,2.61,17.12-.6A7.09,7.09,0,0,1,84.72,73a12.6,12.6,0,0,0,10.73,4.1c1.69-.23,3.4-.82,5.06-.43,3.06.72,4.63,4.39,7.61,5.35s6.15-1.14,9.32-1.28,6.16,1.76,9.35,2c2.3.13,4.87-1.59,5.41-3.53a1.8,1.8,0,0,1,2.32-1.23A38.87,38.87,0,0,0,148,79.84a4.07,4.07,0,0,0,3-1.36c3.42-4-6.33-8.91-4.81-14h0a13.15,13.15,0,0,0,8.22-5.69"/></g></svg>