<svg xmlns="http://www.w3.org/2000/svg" viewBox="0 0 279 255"><defs><style>.cls-1{fill:#fff;}.cls-2{fill:#4e514d;}.cls-3{fill:none;}.cls-4{fill:#465777;}</style></defs><title>kombucha</title><g id="Layer_2" data-name="Layer 2"><path class="cls-1" d="M109.82,80.6c.61,17-10.33,100.48-18.21,152.6-.66,4.4-1.22,9.29,1.31,13,2.77,4,8.16,5,13,5.6,57.36,7.26,95.89,1.35,153-7.75,5.19-.83,10.91-2,14-6.28,4.43-6.05,1.22-14.43-1.24-21.52-9.93-28.56-14.78-115.73-17-136.18,0,0-16.1-20.8-34.09-37.56-.79-.73-24.49-.11-25.59-.11-18.93-.09-18.7-.07-38.1.29-.5,0-8.63-.09-9.14.32C139,50.06,116.82,76.74,109.82,80.6Z"/><path class="cls-2" d="M238.14,135.68c11.12,10,14.26,24.9,16.88,38.81s5.19,27.58,7.79,41.36c.76,4.07,1.5,8.37-.22,12.2-3.23,7.17-13.22,9.4-21.81,10.52a785.45,785.45,0,0,1-129.84,6c-4.17-.15-8.87-.57-11.47-3.47-2-2.21-2.17-5.27-2.16-8.1.08-25.93,8.49-51.21,16.83-76.06,1.32-3.95,2.73-8,5.76-11.15,3.83-4,9.68-5.76,15.29-7.25a287.11,287.11,0,0,1,67.1-9.38c16.34-.34,35.45,2.13,43.56,14.77"/><path class="cls-2" d="M191,48.81c-1.32-17.44-13-32.22-28.29-40.07C146.34.33,126.62-.69,108.76,2.56c-16.44,3-32.53,9.73-45.48,20.4C49.44,34.36,40.81,49.45,37,66.89c-2.56,11.57-3.49,23.45-4.59,35.21C31.13,115.32,30,128.56,29,141.79c-.23,2.86,8.43,1.11,8.63-1.32,1.63-19.75,3-39.57,5.43-59.24,2.1-17.11,6.16-34.1,17.33-47.69C81,8.45,119.19-2,149.6,9.78c17.46,6.77,31.26,22.27,32.7,41.36.16,2.18,8.9.51,8.69-2.33Z"/><path class="cls-2" d="M48.79,143.29a202.59,202.59,0,0,0-45.5-1.87Q3.07,162.79,1,184.08q26.85,1.66,53.79.7a3.07,3.07,0,0,0,2-.55,3,3,0,0,0,.67-2.18l1.09-26.87c.19-4.67-.37-10.53-4.75-12.15a6.13,6.13,0,0,0-6.65,1.91"/><rect class="cls-3" x="205.37" y="172.66" width="91.93" height="106.27" transform="matrix(0.99, -0.13, 0.13, 0.99, -26.47, 33.5)"/><path class="cls-4" d="M246.52,224.75h-.06C246.37,224.82,246.56,224.89,246.52,224.75Z"/><path class="cls-4" d="M268.58,211v.2l.06.12a.53.53,0,0,0,.63.15.6.6,0,0,0,.37-.59l0-.14,0-.06-.14-.11a.63.63,0,0,0-.54,0A.58.58,0,0,0,268.58,211Z"/><path class="cls-4" d="M242.16,181.35a.42.42,0,0,0,.34,0l.19-.16,0-.08a.39.39,0,0,0,.05-.26.38.38,0,0,0-.37-.34l-.12.06a.41.41,0,0,0-.28.15.48.48,0,0,0-.08.33h0l.12.19Z"/><path class="cls-4" d="M257,202.27l-.11,0a.61.61,0,0,0-.47.17.55.55,0,0,0-.14.44.57.57,0,0,0,.2.37l.12.06.08,0a.48.48,0,0,0,.36-.08h0l.07,0,.06,0,.12-.15a.65.65,0,0,0,0-.28.65.65,0,0,0-.18-.37Z"/><path class="cls-4" d="M208.64,251.28l0,0,.07.11a.59.59,0,0,0,.66.08.52.52,0,0,0,.29-.54.41.41,0,0,0-.05-.18l-.1-.11-.05,0-.16-.06a.89.89,0,0,0-.36,0l-.15.1-.05.06-.08.18,0-.07h0a.49.49,0,0,0-.08.28Z"/><path class="cls-4" d="M220.69,222.49v-.05l0-.21,0-.08-.18-.13a.5.5,0,0,0-.5.09.58.58,0,0,0-.18.54l.09.19.06.06.19.09A.52.52,0,0,0,220.69,222.49Z"/><path class="cls-4" d="M260.33,207.35h0l-.11.27a.48.48,0,0,0,.37.41.53.53,0,0,0,.54-.23l.06-.14v-.14a.48.48,0,0,0-.14-.29h0l-.05-.07-.05,0-.16-.06A.42.42,0,0,0,260.33,207.35Z"/><path class="cls-4" d="M232,211.46l-.16-.08a.5.5,0,0,0-.32.08.48.48,0,0,0-.16.31l0,.17.06.11.29.18a.54.54,0,0,0,.34-.16.48.48,0,0,0,.09-.35v0l-.1-.18Z"/><path class="cls-4" d="M255.61,192.57a.43.43,0,0,0-.41,0l-.1.11,0,.06,0,.14v.1a.56.56,0,0,0,.14.3l.14.09.12,0a.43.43,0,0,0,.34-.13.47.47,0,0,0-.16-.73Z"/><path class="cls-4" d="M212.41,211.34l-.06,0-.06.07-.07.21v.07a.48.48,0,0,0,.32.43h.12a.43.43,0,0,0,.5-.21l0-.21h0a.54.54,0,0,0,0-.19.45.45,0,0,0-.32-.38h-.13a.53.53,0,0,0-.37.18Z"/><path class="cls-4" d="M217.6,197.76h0v.1l0,.09.15.17a1.26,1.26,0,0,0,.43.1l.19-.06.07,0,.11-.16a.45.45,0,0,0,0-.23.56.56,0,0,0-.61-.48.5.5,0,0,0-.31.18A.48.48,0,0,0,217.6,197.76Z"/><path class="cls-4" d="M256.77,214.83l-.15.24a.6.6,0,0,0-.05.28s0,.05,0,.08h0l.11.22.08.06.24.07a.54.54,0,0,0,.29-.15l.17-.19,0-.11a.6.6,0,0,0,0-.29h0l-.14-.21-.08-.06-.13,0h-.31Z"/><path class="cls-4" d="M228.89,220l-.07,0-.07.07-.08.21v.09a.59.59,0,0,0,.14.31l.11.07.08,0a.44.44,0,0,0,.48-.19h0l.12-.2v-.13a.39.39,0,0,0-.22-.31l0,0-.2-.07a.45.45,0,0,0-.27.09Z"/><path class="cls-4" d="M254.4,183a.39.39,0,0,0-.17.31l0,.06v.14h0l0,0,.08.16.07.06.26.08a.48.48,0,0,0,.53-.45l-.1-.27-.06,0a.46.46,0,0,0-.52-.18Z"/><path class="cls-4" d="M246,199.7l-.13.11,0,.06,0,.16a.37.37,0,0,0,0,.11.48.48,0,0,0,.47.44l.14,0,.06,0,.11-.1a.54.54,0,0,0,.09-.35.47.47,0,0,0-.24-.36A.48.48,0,0,0,246,199.7Z"/><path class="cls-4" d="M267.11,200.71a.45.45,0,0,0,.39.39l.14,0,.06,0,.12-.08a.58.58,0,0,0,.16-.51l-.09-.18-.06-.06-.21-.09a.44.44,0,0,0-.37.16A.57.57,0,0,0,267.11,200.71Z"/><path class="cls-4" d="M206.48,231.28l-.24-.06.22-.08,0-.12-.25-.19a.42.42,0,0,0-.48.39l0,.14,0,.11.25.2A.43.43,0,0,0,206.48,231.28Z"/><path class="cls-4" d="M231.06,231l0-.07-.11-.16-.06-.05-.18-.06a.38.38,0,0,0-.28.09.37.37,0,0,0-.21.34l0,.14,0,0,.08.11a.44.44,0,0,0,.73-.39Z"/><path class="cls-4" d="M238.51,216.18l0,0v.17a.51.51,0,0,0,.16.33l.13.07.05,0H239a.47.47,0,0,0,.39-.55v-.06l-.11-.17-.06,0-.2-.07a.59.59,0,0,0-.4.15Z"/><path class="cls-4" d="M251.38,221.09l.05-.22a.5.5,0,0,0-.55-.45h-.07l-.24.07-.07.07-.05.11h0a.56.56,0,0,0-.09.41h0a.43.43,0,0,0,.27.28.39.39,0,0,0,.26.09l.14,0,.05,0,.09-.09.18-.13Z"/><path class="cls-4" d="M235.48,252.57v.21l0,.09.14.16.1.07a1.12,1.12,0,0,0,.38.19h.2l.13-.07a.43.43,0,0,0,.15-.37l0-.08v-.15a.72.72,0,0,0-.36-.26.21.21,0,0,1,.11.12l-.22-.22-.11,0-.31.09A.69.69,0,0,0,235.48,252.57Z"/><path class="cls-4" d="M226.23,191.3h-.06a.51.51,0,0,0-.48.19h0l-.07,0,0,.07-.06.19v0c0,.08,0,.14,0,.12h0l.08.24,0,0a.42.42,0,0,0,.32.2l.17,0,.1-.06a.69.69,0,0,0,.3-.6.59.59,0,0,0-.27-.4Z"/><path class="cls-4" d="M263.83,223.54a.52.52,0,0,0-.15.44l0,.17.15.18.08,0,.23,0h-.13l.16,0,.21,0,.07-.05,0,0h0a.38.38,0,0,0,.34-.38.22.22,0,0,0,0-.14.38.38,0,0,0-.34-.34l-.12,0-.15-.08-.19,0-.08,0Z"/><path class="cls-4" d="M223.51,249.69l-.15.1-.05.06,0,.1h0a.57.57,0,0,0-.06.32l.11.19,0,0h0c.2.38.47.31.58.27l0,0,.2-.16,0-.1a.4.4,0,0,0,.05-.27v-.06l-.15-.19a.36.36,0,0,0-.17-.21A.5.5,0,0,0,223.51,249.69Z"/><path class="cls-4" d="M206.21,199.42v-.06a.54.54,0,0,0-.11-.24l0-.05L206,199l-.26-.09-.17,0-.17.08-.06.05-.1.18a.71.71,0,0,0,0,.28.48.48,0,0,0,.17.31l.11.06.1,0a.53.53,0,0,0,.45-.18h0l.08-.05,0-.06Z"/><path class="cls-4" d="M271.11,243.67l0,.08.12.17.07.05.21.05.15,0,.19-.1.06-.07.08-.22v0a.42.42,0,0,0-.09-.22h0l0-.07-.07-.06-.2-.09a.5.5,0,0,0-.38.15A.46.46,0,0,0,271.11,243.67Z"/><path class="cls-4" d="M237.24,206.3a.4.4,0,0,0-.18.36v.07a.53.53,0,0,0,.62.4l.19-.12.06-.08.06-.22,0-.17-.13-.22-.08-.06h-.1v0a.44.44,0,0,0-.26,0l-.16.09Z"/><path class="cls-4" d="M272.42,220h0a.4.4,0,0,0-.21.31,1,1,0,0,0,0,.17l.14.22.08.06.26.05a.54.54,0,0,0,.4-.39l-.07-.27,0,0h0a.42.42,0,0,0-.3-.2l-.26.08Z"/><path class="cls-4" d="M221.87,207.27l.33.26,0,0a.47.47,0,0,0,.43.11l.12-.06a.45.45,0,0,0,.16-.33l.07-.09a.58.58,0,0,0-.63-.49.49.49,0,0,0-.32.18A.54.54,0,0,0,221.87,207.27Z"/><path class="cls-4" d="M236.08,193.44a.49.49,0,0,0-.05-.19l-.14-.14-.07,0-.16,0a.55.55,0,0,0-.33,0l-.14.09-.05.06,0,.1a.61.61,0,0,0-.06.3l0,.09.12.14a.4.4,0,0,0,.37.23l.12,0h0l.18-.07.06-.05.11-.18A.5.5,0,0,0,236.08,193.44Z"/><path class="cls-4" d="M245.69,208.16a.62.62,0,0,0-.32.65.59.59,0,0,0,.41.51l.33-.11.08-.11.05-.14a.24.24,0,0,1,0,.1h0a.72.72,0,0,0,.17-.53v0l-.11-.19-.05-.05a.44.44,0,0,0-.48-.12Z"/><path class="cls-4" d="M225,176.07l0-.11-.13-.22-.09-.06-.24,0a.4.4,0,0,0-.37.4l0,.1h0a.42.42,0,0,0,.23.33.41.41,0,0,0,.4,0l.12-.13,0-.06Z"/><path class="cls-4" d="M239.47,222.38l-.12-.08-.1,0a.52.52,0,0,0-.44.15.6.6,0,0,0-.15.47.49.49,0,0,0,.23.36.5.5,0,0,0,.45,0l.06,0,0,0a.58.58,0,0,0,.18-.52A.6.6,0,0,0,239.47,222.38Z"/><path class="cls-4" d="M238.85,243.24l-.07.09a.52.52,0,0,0,.18.32.54.54,0,0,0,.39.1.56.56,0,0,0,.47-.66l-.35-.27h0a.7.7,0,0,0-.32,0L239,243A.46.46,0,0,0,238.85,243.24Z"/><path class="cls-4" d="M246,250.84s0,0,0,.08l.12.19.08,0,.21.06.15,0,.22-.14.06-.09v-.09h0a.51.51,0,0,0,.06-.31l-.1-.19-.07,0,0-.06-.09-.07-.29,0A.58.58,0,0,0,246,250.84Z"/><path class="cls-4" d="M245.23,234.07l-.06.07a.48.48,0,0,0,0,.27v.05l.15.2.08.05.21,0a.4.4,0,0,0,.38-.4l-.09-.21h0a.42.42,0,0,0-.32-.22l-.24.09Z"/><path class="cls-4" d="M263,248.51l.06,0a.4.4,0,0,1,.39.34l-.23,0,.07,0h-.15l0,0h-.05l0,0,.07.06a.3.3,0,0,0,0-.08l.05.06-.06.06.12.11a.46.46,0,0,1-.39.14l-.22-.12-.1-.16a.43.43,0,0,1,.09-.4.4.4,0,0,1,.3-.14Zm.05.51h0l-.08,0-.06-.05v0l-.07,0a.22.22,0,0,0,.19.18v0h.05Z"/><path class="cls-4" d="M260.37,234.13l0,.18s0,0,0-.06l0,.25,0,.09.17.18a.58.58,0,0,0,.48,0l-.11-.27a.56.56,0,0,0,0-.12h0v0h0l0-.08h0l.08-.29a.17.17,0,0,1,.08,0h0a.46.46,0,0,0-.66,0Z"/><path class="cls-4" d="M258.21,241.07l.08.12a.41.41,0,0,0,.4.31l.12,0,.05,0,.06-.05.2-.1a.38.38,0,0,0,.09-.33.75.75,0,0,0-.11-.28l-.11-.12-.06,0-.17,0a.55.55,0,0,0-.44.18A.46.46,0,0,0,258.21,241.07Z"/><path class="cls-4" d="M268.4,185.54l-.12.18a.5.5,0,0,0,0,.13l.06.26.07.08.23.11a.46.46,0,0,0,.49-.44l-.1-.21h0a.43.43,0,0,0-.32-.21l-.21.06Z"/><path class="cls-4" d="M226.64,237.68l-.06,0-.1.1a.55.55,0,0,0-.11.41.57.57,0,0,0,.22.38.56.56,0,0,0,.44.1l.22-.16,0-.07h0l.06-.1v-.29a.64.64,0,0,0-.6-.42Z"/><path class="cls-4" d="M256.77,226.51l-.24,0,0,0a.39.39,0,0,0-.25.35v0a.51.51,0,0,0,0,.13l0,.14,0,.06.1.11a.79.79,0,0,0,.31.13h.17l.08,0,.14-.1a.5.5,0,0,0,.11-.33.19.19,0,0,1,0,.07l0-.22,0-.08-.12-.19A.77.77,0,0,0,256.77,226.51Z"/><path class="cls-4" d="M252.61,206.86l0,.11.27.19a.56.56,0,0,0,.45-.1.46.46,0,0,0,.15-.32l0-.14,0-.06-.09-.11a.57.57,0,0,0-.71.11Z"/><path class="cls-4" d="M277.37,235.34l-.08.12a.41.41,0,0,0,0,.24v0h0l0,.14,0,.07.15.15a.56.56,0,0,0,.52,0,.6.6,0,0,0,.25-.46l-.07-.22-.06-.07-.22-.11a.84.84,0,0,0-.35,0l-.13.07Z"/><rect class="cls-3" x="200.29" y="136.4" width="103.14" height="89.22" transform="matrix(0.67, -0.75, 0.75, 0.67, -50.91, 248.32)"/><path class="cls-4" d="M249.56,176.81l0,0C249.41,176.75,249.49,176.94,249.56,176.81Z"/><path class="cls-4" d="M273.69,184.2l-.1.09,0,.05-.05.12a.52.52,0,0,0,.29.56.58.58,0,0,0,.67-.11l.07-.12,0-.07v-.17a.58.58,0,0,0-.36-.39A.59.59,0,0,0,273.69,184.2Z"/><path class="cls-4" d="M215,195.55h0a.41.41,0,0,0-.37.05l-.07.13h0a.38.38,0,0,0-.1.31l0,.12,0,.05.09.09a.34.34,0,0,0,.12.08l.07,0,.21,0,.08,0,.17-.11a.54.54,0,0,0,0-.61l-.23-.15Z"/><path class="cls-4" d="M278.58,146a.39.39,0,0,0,.19.27l.24,0,.08,0a.42.42,0,0,0,.23-.13.39.39,0,0,0,0-.49l-.12,0a.38.38,0,0,0-.29-.11.43.43,0,0,0-.29.15h0l-.06.21Z"/><path class="cls-4" d="M272.69,170.18l-.05-.1a.52.52,0,0,0-.83-.06.59.59,0,0,0-.14.38l0,.13,0,.07a.51.51,0,0,0,.29.21h0l.06,0,.07,0h.19a.69.69,0,0,0,.22-.16.61.61,0,0,0,.15-.37Z"/><path class="cls-4" d="M206,166l0,0,0,.12a.55.55,0,0,0,.36.53.5.5,0,0,0,.58-.12.86.86,0,0,0,.1-.16v-.2L207,166a.89.89,0,0,0-.24-.26l-.17,0h-.08l-.17.06.06,0h0a.52.52,0,0,0-.26.12Z"/><path class="cls-4" d="M234.78,156.46l0,0,.13-.17,0-.08V156a.5.5,0,0,0-.39-.31.58.58,0,0,0-.52.21l-.07.19v.08l.06.19A.5.5,0,0,0,234.78,156.46Z"/><path class="cls-4" d="M271.1,175.85h0l-.27.09a.47.47,0,0,0-.07.53.54.54,0,0,0,.52.25l.14,0,.09-.06,0,0a.44.44,0,0,0,.12-.28h0l0-.08v-.06l-.06-.16A.42.42,0,0,0,271.1,175.85Z"/><path class="cls-4" d="M250,157.69l-.05-.17a.43.43,0,0,0-.26-.18.46.46,0,0,0-.33.08l-.11.13-.05.11.06.32a.4.4,0,0,0,.33.14.42.42,0,0,0,.32-.15l0,0,.07-.18Z"/><path class="cls-4" d="M278.92,163a.41.41,0,0,0-.28-.28h-.21l-.13.07-.07.06a.58.58,0,0,0-.13.3l0,.16.05.1a.44.44,0,0,0,.31.17.45.45,0,0,0,.34-.15A.47.47,0,0,0,278.92,163Z"/><path class="cls-4" d="M237.67,143.29l-.06,0h-.09l-.2.08,0,.05a.5.5,0,0,0-.11.51l.08.09h0a.43.43,0,0,0,.47.23l.18-.1h0A1,1,0,0,0,238,144a.44.44,0,0,0,.07-.47l0-.06,0,0a.51.51,0,0,0-.37-.14Z"/><path class="cls-4" d="M267.35,229.62h-.07l-.16.1-.1.1-.08.22v.09l.1.21,0,0,.26.06.11,0,.16-.09.05-.06a.4.4,0,0,0,.11-.35.44.44,0,0,0-.24-.29Z"/><path class="cls-4" d="M250.92,138.45h0l-.07.06,0,.08,0,.22a1.08,1.08,0,0,0,.2.37l.16.11.08,0,.2,0a.59.59,0,0,0,.18-.13.54.54,0,0,0,0-.75.43.43,0,0,0-.33-.12A.47.47,0,0,0,250.92,138.45Z"/><path class="cls-4" d="M263.36,178l-.28.05a.39.39,0,0,0-.23.14l-.05.06h0l-.08.22v.1l.11.21a.48.48,0,0,0,.29.12h.25l.1,0a.63.63,0,0,0,.23-.18h0l.07-.23v-.1l-.07-.11h0l-.2-.23Z"/><path class="cls-4" d="M241.8,160.89l-.07,0h-.09l-.22.07-.06.06a.58.58,0,0,0-.13.3v.13l0,.08a.4.4,0,0,0,.44.23h0l.22,0,.09-.08a.39.39,0,0,0,.09-.36v0L242,161a.47.47,0,0,0-.24-.14Z"/><path class="cls-4" d="M267.59,160.5l-.16,0h-.07l-.14.06-.09.08a.46.46,0,0,0,0,.62l.12.09,0,0,.15,0a.47.47,0,0,0,.31-.16.49.49,0,0,0,.12-.4A.48.48,0,0,0,267.59,160.5Z"/><path class="cls-4" d="M255.06,219.77l.2-.23,0-.11-.13-.29a.48.48,0,0,0-.59,0l-.13.25v.11l.14.24a.49.49,0,0,0,.5,0Z"/><path class="cls-4" d="M219.28,151.65l-.11-.22.21.11.05-.1v-.31a.41.41,0,0,0-.59-.1l-.09.1-.06.1v.31A.42.42,0,0,0,219.28,151.65Z"/><path class="cls-4" d="M235.11,169.49l0-.05,0-.19v-.07l-.06-.17a.47.47,0,0,0-.25-.15.4.4,0,0,0-.39.06l-.08.11,0,.05,0,.14a.44.44,0,0,0,.29.39A.41.41,0,0,0,235.11,169.49Z"/><path class="cls-4" d="M234,232.94l-.21.06a.72.72,0,0,0-.19.14.56.56,0,0,0-.13.35l0,.15,0,.06,0,0,.09.15.09.06.24,0a.76.76,0,0,0,.35-.2.57.57,0,0,0,.11-.52l-.18-.19h0l0-.06L234,233Z"/><path class="cls-4" d="M250.74,165.49l-.06,0-.13.09a.52.52,0,0,0-.14.34l0,.13,0,.05.08.11a.47.47,0,0,0,.66-.06l0,0,.05-.19v-.08l-.07-.19a.6.6,0,0,0-.36-.2Z"/><path class="cls-4" d="M255.34,178.05l.19-.11a.49.49,0,0,0,0-.69l0-.05-.2-.12-.1,0-.11,0v0a.51.51,0,0,0-.35.19v0a.4.4,0,0,0,0,.37.36.36,0,0,0,.09.24l.12.08.06,0H255l.21.05Z"/><path class="cls-4" d="M222.16,186.44l-.17.14,0,.07,0,.21s0,.07,0,.11a.94.94,0,0,0,.1.4l.09.11,0,0,.13.06a.42.42,0,0,0,.37-.13l0-.07.11-.11a.72.72,0,0,0,0-.42.22.22,0,0,1,0,.16l0-.31-.05-.1-.27-.16A.62.62,0,0,0,222.16,186.44Z"/><path class="cls-4" d="M261.15,140.66l0,0a.52.52,0,0,0-.45-.23h0l-.08,0h-.08l-.17.08,0,0a.38.38,0,0,0-.07.1l0,0-.12.21v0a.42.42,0,0,0,.06.36l.14.11.1,0a.67.67,0,0,0,.63-.16.58.58,0,0,0,.12-.46Z"/><path class="cls-4" d="M261.46,188.73a.51.51,0,0,0-.41.16l-.1.14,0,.23,0,.09.13.18a.51.51,0,0,1-.08-.09,1.14,1.14,0,0,0,.06.14l.17.12.08,0h0l0,0a.39.39,0,0,0,.49,0,.48.48,0,0,0,.11-.09.38.38,0,0,0,0-.47l-.1-.06a.94.94,0,0,0,0-.16l-.11-.15-.06-.05Z"/><path class="cls-4" d="M216.64,175.85l-.17,0h-.07l-.1,0h0a.49.49,0,0,0-.27.16l-.08.2v.06h0c-.15.39.07.54.17.59h0l.24.05.1,0a.38.38,0,0,0,.24-.13l0-.05,0-.23a.47.47,0,0,0,.05-.25A.48.48,0,0,0,216.64,175.85Z"/><path class="cls-4" d="M242.45,131.16l.05,0a.43.43,0,0,0,.1-.23l0,0v-.1l-.1-.25-.13-.11-.16-.08h-.08l-.19,0a.56.56,0,0,0-.23.16.47.47,0,0,0-.12.32l0,.12,0,.08a.5.5,0,0,0,.42.21h0l.09,0h.07Z"/><path class="cls-4" d="M251.36,206.87l-.05.07-.05.2v.09l.1.18.11.09.19.08h.09l.21-.08,0,0a.68.68,0,0,0,.1-.2h0l0-.07v-.09l-.07-.2a.44.44,0,0,0-.35-.18A.42.42,0,0,0,251.36,206.87Z"/><path class="cls-4" d="M257.17,158.27a.43.43,0,0,0-.38.1l-.05,0a.53.53,0,0,0,.11.71l.21.07h.09l.2-.1.11-.13.08-.23,0-.1,0-.08h0a.58.58,0,0,0-.15-.21l-.17-.06Z"/><path class="cls-4" d="M269.51,192.78h0a.43.43,0,0,0-.36,0,.42.42,0,0,0-.14.09l-.08.24v.1l.14.22a.47.47,0,0,0,.53,0l.16-.22v0h0a.4.4,0,0,0,0-.36l-.23-.13Z"/><path class="cls-4" d="M246.67,147.64l0,.4s0,0,0,0a.49.49,0,0,0,.19.38l.12,0a.45.45,0,0,0,.36-.09h.11a.58.58,0,0,0,0-.78.54.54,0,0,0-.34-.12A.58.58,0,0,0,246.67,147.64Z"/><path class="cls-4" d="M265.85,149.24a.86.86,0,0,0,.1-.16l0-.19,0-.08-.07-.13a.61.61,0,0,0-.23-.24l-.16,0h-.07l-.11,0a.46.46,0,0,0-.25.15l-.06.07,0,.17a.38.38,0,0,0,.06.42l.11.07h0l.16.09h.07l.2,0A.58.58,0,0,0,265.85,149.24Z"/><path class="cls-4" d="M261.19,165.64a.65.65,0,0,0-.69.19.6.6,0,0,0-.11.63l.3.17.12,0,.14-.05c-.05,0-.09,0-.09.05h0a.7.7,0,0,0,.49-.22v0l.08-.2v-.07a.42.42,0,0,0-.21-.43Z"/><path class="cls-4" d="M271.53,130.08l.08-.08.07-.24v-.1l-.12-.2a.4.4,0,0,0-.53,0l0,.1h0a.38.38,0,0,0-.09.37.4.4,0,0,0,.27.28h.17l.07,0Z"/><path class="cls-4" d="M246.81,170.14l0-.13,0-.09a.52.52,0,0,0-.39-.23.52.52,0,0,0-.43.19.47.47,0,0,0-.13.4.5.5,0,0,0,.26.35l.06,0,.06,0a.56.56,0,0,0,.49-.2A.58.58,0,0,0,246.81,170.14Z"/><path class="cls-4" d="M231.13,183H231a.44.44,0,0,0-.11.33.49.49,0,0,0,.17.35.53.53,0,0,0,.78-.08l0-.42h0a1,1,0,0,0-.21-.22l-.19,0A.48.48,0,0,0,231.13,183Z"/><path class="cls-4" d="M230.14,193.07l0,.07-.06.21v.08l.1.2.1.09.24.08.1,0,.08-.05h0a.49.49,0,0,0,.27-.15l.07-.2v-.08l0-.06v-.11l-.16-.24A.56.56,0,0,0,230.14,193.07Z"/><path class="cls-4" d="M241.91,181.81h-.09a.45.45,0,0,0-.23.13l0,0-.05.24,0,.09.11.18a.4.4,0,0,0,.53,0l.1-.2h0a.38.38,0,0,0,0-.37l-.22-.13Z"/><path class="cls-4" d="M242.67,204l.05,0a.39.39,0,0,1,0,.5l-.17-.15,0,.07-.09-.12h0v0l0,0,0,0v.09l.09,0v.08h-.08v.15a.45.45,0,0,1-.35-.18l-.05-.25.06-.17a.39.39,0,0,1,.34-.19.42.42,0,0,1,.3.13Zm-.34.36h0a.15.15,0,0,1-.06-.05v-.08s0,0,0,0l0-.07a.21.21,0,0,0,0,.25l0,0,0,0Z"/><path class="cls-4" d="M251.5,192.93l-.14.1,0,0-.19.14-.05.08,0,.24a.57.57,0,0,0,.3.36l.12-.25.12-.05h0l.07,0h0l.27-.13a.27.27,0,0,1,0,.09h0a.44.44,0,0,0-.38-.52Z"/><path class="cls-4" d="M229.05,209.94l.08-.09a.57.57,0,0,0-.1-.7l-.05,0a.46.46,0,0,0-.59.1.58.58,0,0,0-.15.39l0,.13,0,.06.09.1,0,0a.48.48,0,0,0,.46.1L229,210Z"/><path class="cls-4" d="M245.05,195.77l0,.13a.41.41,0,0,0,0,.5l.1.07.05,0h.07l.2.09a.41.41,0,0,0,.3-.14.94.94,0,0,0,.14-.26V196l-.08-.14a.54.54,0,0,0-.41-.21A.48.48,0,0,0,245.05,195.77Z"/><path class="cls-4" d="M227.43,170.49l-.06,0-.14,0a.55.55,0,0,0-.37.18.58.58,0,0,0-.13.4.55.55,0,0,0,.2.39l.26.06.07,0h0l.11,0,.22-.17a.62.62,0,0,0-.08-.71Z"/><path class="cls-4" d="M254.8,185.45l-.18-.15,0,0a.39.39,0,0,0-.41.05l0,0-.11.06-.08.11,0,.06,0,.14a.82.82,0,0,0,.11.31l.12.13.06,0,.18,0a.47.47,0,0,0,.3-.13.07.07,0,0,1-.06,0l.18-.11,0-.07.06-.21A1.08,1.08,0,0,0,254.8,185.45Z"/><path class="cls-4" d="M266.54,169.88l-.05.11,0,.32a.53.53,0,0,0,.36.26.41.41,0,0,0,.33-.09l.08-.11,0-.06,0-.13a.56.56,0,0,0-.53-.46Z"/><path class="cls-4" d="M274.05,201a.37.37,0,0,0-.08.15l-.08.12a.48.48,0,0,0,.15.4l.11.12.05,0,.15,0a.42.42,0,0,0,.35-.14c0-.05.07-.09.06-.09h0l.06-.06.07-.25a.58.58,0,0,0-.41-.43A.42.42,0,0,0,274.05,201Z"/><path class="cls-4" d="M261.45,206.16l-.14,0a.44.44,0,0,0-.2.12s0,0,0,0h0l-.1.11,0,.07v.2a.5.5,0,0,0,.34.37.51.51,0,0,0,.5-.1l.11-.19,0-.09-.06-.23a.84.84,0,0,0-.23-.25l-.13-.05Z"/><rect class="cls-3" x="206.04" y="87.81" width="83.88" height="96.97" transform="translate(-12.37 247.14) rotate(-51.86)"/><path class="cls-4" d="M251.79,133.89l0,0C251.83,133.74,251.66,133.83,251.79,133.89Z"/><path class="cls-4" d="M246.28,157l-.09-.09,0,0-.12,0a.49.49,0,0,0-.51.31.54.54,0,0,0,.14.62l.13.06h.06l.16,0a.6.6,0,0,0,.35-.35A.57.57,0,0,0,246.28,157Z"/><path class="cls-4" d="M232.15,102.6h0a.35.35,0,0,0-.07-.34l-.12-.06h0a.39.39,0,0,0-.3-.07l-.11,0,0,0-.09.08a.64.64,0,0,0-.06.12l0,.07v.2l0,.07.12.16a.49.49,0,0,0,.56,0l.14-.22Z"/><path class="cls-4" d="M259.38,155.2l.09,0a.54.54,0,0,0,.2-.41.49.49,0,0,0-.19-.38.56.56,0,0,0-.37-.11l-.12,0-.06,0a.55.55,0,0,0-.18.28h0l0,0,0,.07,0,.17a.45.45,0,0,0,.16.2.6.6,0,0,0,.35.13Z"/><path class="cls-4" d="M259.39,92.38l-.05,0h-.11a.5.5,0,0,0-.48.36.48.48,0,0,0,.15.54.8.8,0,0,0,.16.08h.18l.14-.07a.7.7,0,0,0,.23-.23l0-.17v-.07l-.06-.16a.28.28,0,0,1,0,.06h0a.5.5,0,0,0-.13-.23Z"/><path class="cls-4" d="M270,118.81l0,0,.16.11.08,0,.21,0a.46.46,0,0,0,.26-.39.52.52,0,0,0-.23-.47l-.18-.06h-.07l-.18.06A.49.49,0,0,0,270,118.81Z"/><path class="cls-4" d="M254,154h0l-.1-.24a.42.42,0,0,0-.5,0,.49.49,0,0,0-.21.5l0,.13.07.08,0,0a.5.5,0,0,0,.27.1h.14l.14-.06A.37.37,0,0,0,254,154Z"/><path class="cls-4" d="M269.75,133.19l.16-.06a.33.33,0,0,0,.15-.25.38.38,0,0,0-.09-.31l-.12-.09-.11,0-.3.08a.43.43,0,0,0-.12.32.4.4,0,0,0,.16.28l0,0,.17.05Z"/><path class="cls-4" d="M266.5,160.61a.39.39,0,0,0,.25-.28v-.19l-.07-.12-.07-.06a.49.49,0,0,0-.28-.11l-.15,0-.09.06a.35.35,0,0,0-.14.3.38.38,0,0,0,.15.3A.45.45,0,0,0,266.5,160.61Z"/><path class="cls-4" d="M203.29,153.72l0-.08-.09-.14-.11-.08-.21-.06h-.08l-.19.1,0,.05-.05.25,0,.09.09.15.06,0a.37.37,0,0,0,.34.08.36.36,0,0,0,.25-.24Z"/><path class="cls-4" d="M228.39,166.12h0v0l0-.06h0l-.05-.18,0,0a.49.49,0,0,0-.71.08l0,.25v.06a.38.38,0,0,0,.15.29l.13.05h.11a.42.42,0,0,0,.46-.25Z"/><path class="cls-4" d="M251.48,146.9l-.06-.25a.47.47,0,0,0-.15-.22l-.06,0h0l-.22-.07h-.09l-.19.12a.45.45,0,0,0-.1.28V147l0,.09a.73.73,0,0,0,.18.2h0l.22.05.1,0,.09-.07h0l.19-.2Z"/><path class="cls-4" d="M266.26,125.66l0-.07v-.09l-.09-.19-.06,0a.44.44,0,0,0-.29-.11h-.11l-.08,0a.39.39,0,0,0-.19.43h0l0,.2.08.08a.38.38,0,0,0,.35.07h0l.18-.08a.49.49,0,0,0,.12-.23Z"/><path class="cls-4" d="M233.05,173.49l0-.17.1-.06.11-.13,0-.06,0-.17a.61.61,0,0,0-.2-.4.54.54,0,0,0-.25-.09l-.15,0,0,0-.11.1a.85.85,0,0,1-.11.14.87.87,0,0,0-.25.48v.14l0,.05.08.12h0a.47.47,0,0,0,.17.09l0,0a.41.41,0,0,0,.56-.26A.22.22,0,0,1,233.05,173.49Z"/><path class="cls-4" d="M273.41,166.05a.37.37,0,0,0-.09-.31l-.05,0-.07-.07v0h-.05l-.15-.06h-.09l-.22.12a.42.42,0,0,0-.06.62l.24.11h.07a.42.42,0,0,0,.45-.21Z"/><path class="cls-4" d="M268.16,149.84v-.22l-.07-.13a.6.6,0,0,0-.08-.08.43.43,0,0,0-.58,0l-.08.11v.06l0,.14a.43.43,0,0,0,.18.28.41.41,0,0,0,.38.08A.42.42,0,0,0,268.16,149.84Z"/><path class="cls-4" d="M253.81,162.7a.41.41,0,0,0-.5,0l-.08.11,0,0,0,.12a.58.58,0,0,0,.23.44l.17.06h.09l.19-.07a.46.46,0,0,0,0-.7Z"/><path class="cls-4" d="M262.68,188.42a.66.66,0,0,0-.15-.09h-.21l-.08,0-.18.17a.54.54,0,0,0-.06.38l.14.16v0l0,0,0,0,.21.06h.08l.18-.09a.54.54,0,0,0,.16-.39A.42.42,0,0,0,262.68,188.42Z"/><path class="cls-4" d="M211.8,141.6l.23.17h.11l.26-.13a.48.48,0,0,0-.06-.56l-.24-.11H212l-.23.15a.44.44,0,0,0,0,.46Z"/><path class="cls-4" d="M273.6,104l.2-.11-.09.2.1,0,.29,0a.39.39,0,0,0,.06-.56l-.11-.08-.1,0-.28,0A.39.39,0,0,0,273.6,104Z"/><path class="cls-4" d="M257.79,119.89l.06,0,.18,0h.07l.15-.07a.41.41,0,0,0,.13-.24.35.35,0,0,0-.09-.36l-.1-.07-.05,0-.13,0a.44.44,0,0,0-.36.3A.4.4,0,0,0,257.79,119.89Z"/><path class="cls-4" d="M198.19,122.59l-.06-.19a.51.51,0,0,0-.15-.17.49.49,0,0,0-.33-.11l-.14,0-.06,0,0,0-.14.1,0,.08,0,.23a.7.7,0,0,0,.21.32.55.55,0,0,0,.5.07l.16-.18h0l0-.06.05-.15Z"/><path class="cls-4" d="M262.48,134.32l0,0-.1-.12A.47.47,0,0,0,262,134l-.12,0-.05,0-.1.09a.47.47,0,0,0,.1.62l0,0,.18,0h.08l.17-.08a.52.52,0,0,0,.16-.35Z"/><path class="cls-4" d="M251,139.38l.11.17a.46.46,0,0,0,.65-.06l0,0,.11-.2v-.09l0-.11h0a.48.48,0,0,0-.2-.32h0a.39.39,0,0,0-.36,0,.33.33,0,0,0-.22.11l-.07.11v.17l0,.2Z"/><path class="cls-4" d="M241.12,108.74l-.13-.14-.08,0-.2,0-.1,0a1.12,1.12,0,0,0-.37.12l-.09.09,0,0,0,.12a.34.34,0,0,0,.14.33l.06,0,.11.09a.62.62,0,0,0,.4-.06.25.25,0,0,1-.15,0h.28l.1,0,.13-.26A.52.52,0,0,0,241.12,108.74Z"/><path class="cls-4" d="M241.31,145.76a.44.44,0,0,0-.18-.37.42.42,0,0,0-.14-.09l-.21,0-.08,0-.17.13a.51.51,0,0,1,.09-.08.42.42,0,0,0-.13.07l-.11.16,0,.08v0l0,0a.35.35,0,0,0,0,.46.39.39,0,0,0,.08.1.36.36,0,0,0,.45,0l0-.1.15,0,.13-.11,0-.06Z"/><path class="cls-4" d="M250.74,102.94l0-.16v-.07l0-.09h0a.43.43,0,0,0-.16-.25l-.19-.05h-.06a.39.39,0,0,0-.55.2l0,0,0,.23,0,.09a.4.4,0,0,0,.15.21l0,0,.22,0a.45.45,0,0,0,.24,0A.44.44,0,0,0,250.74,102.94Z"/><path class="cls-4" d="M223.69,137.36l-.07-.05-.19,0-.08,0-.17.1-.08.1-.06.19v.09l.09.19,0,0a.43.43,0,0,0,.19.09v0l.06,0h.08l.19-.07a.43.43,0,0,0,.15-.34A.4.4,0,0,0,223.69,137.36Z"/><path class="cls-4" d="M269.63,139.92a.38.38,0,0,0-.11-.35l0,0a.49.49,0,0,0-.66.13l-.05.21V140l.11.18.12.1.23.06.09,0,.07-.05v0a.49.49,0,0,0,.19-.15l0-.17Z"/><path class="cls-4" d="M238,153.55h0a.35.35,0,0,0-.06-.33.41.41,0,0,0-.1-.13l-.22-.06-.1,0-.19.14a.46.46,0,0,0,0,.5l.22.13h0a.35.35,0,0,0,.33-.05l.12-.22Z"/><path class="cls-4" d="M279,129.44l-.38.05.05,0a.44.44,0,0,0-.35.2l0,.12a.42.42,0,0,0,.11.32v.1a.52.52,0,0,0,.72-.09.42.42,0,0,0,.09-.32A.51.51,0,0,0,279,129.44Z"/><path class="cls-4" d="M278.62,147.54l.16.08H279l.07,0,.12-.07a.53.53,0,0,0,.21-.23l0-.15v-.06l0-.11a.47.47,0,0,0-.16-.23l-.07,0-.16,0a.39.39,0,0,0-.39.09l-.05.11h0l-.07.16v.07l0,.18A.49.49,0,0,0,278.62,147.54Z"/><path class="cls-4" d="M263,144.13a.6.6,0,0,0-.22-.63.55.55,0,0,0-.6-.07l-.14.29,0,.12.06.12-.05-.07h0a.66.66,0,0,0,.23.45h0l.19.06h.07a.42.42,0,0,0,.4-.22Z"/><path class="cls-4" d="M257.88,130.91l.13,0,.08,0a.46.46,0,0,0,.18-.38.47.47,0,0,0-.2-.39.43.43,0,0,0-.37-.1.49.49,0,0,0-.32.26l0,.07v.05a.5.5,0,0,0,.22.45A.51.51,0,0,0,257.88,130.91Z"/><path class="cls-4" d="M247,175.68l-.2-.09h-.14a.33.33,0,0,0-.21.08l-.11.17,0,.07,0,.19.1.13a.41.41,0,0,0,.55,0A.37.37,0,0,0,247,175.68Z"/><path class="cls-4" d="M244.91,117v-.1a.45.45,0,0,0-.32-.09.48.48,0,0,0-.32.18.51.51,0,0,0,.12.73l.39-.05,0,0h0a.81.81,0,0,0,.2-.21l0-.17A.45.45,0,0,0,244.91,117Z"/><path class="cls-4" d="M235.38,116.63l-.07,0-.2,0-.08,0-.17.1-.09.11-.05.23,0,.09,0,.07h0a.48.48,0,0,0,.16.24l.19.06h.08l0,0,.1,0,.22-.15A.54.54,0,0,0,235.38,116.63Z"/><path class="cls-4" d="M246.65,127v-.09a.43.43,0,0,0-.14-.21l0,0-.23,0-.08,0-.16.12a.37.37,0,0,0,0,.5l.19.08h0a.35.35,0,0,0,.35-.07l.1-.21Z"/><path class="cls-4" d="M225.83,129l0,.06a.36.36,0,0,1-.47,0l.13-.17-.06,0,.1-.09h0l0,0v-.05h-.09a.1.1,0,0,0,0,.08h-.08v-.08h-.14a.43.43,0,0,1,.15-.33l.23-.07.17.05a.37.37,0,0,1,.09.59Zm-.36-.29h0s0-.05.05-.06h.07l0,0,.06,0a.19.19,0,0,0-.24,0v0l0,0Z"/><path class="cls-4" d="M236.77,136.67l-.09-.13a.08.08,0,0,1,0,.05l-.14-.18-.08,0h-.23a.53.53,0,0,0-.32.3l.24.1a.3.3,0,0,0,.06.11h0l0,.06h0l.14.24a.15.15,0,0,1-.08,0h0a.42.42,0,0,0,.47-.39Z"/><path class="cls-4" d="M219.48,116.61l.1.07a.53.53,0,0,0,.64-.14l0-.05a.44.44,0,0,0-.13-.55.57.57,0,0,0-.38-.11l-.12,0-.05,0-.09.08,0,0a.47.47,0,0,0-.06.43l.06.11Z"/><path class="cls-4" d="M233.73,130.78l-.13,0a.38.38,0,0,0-.46.05l-.06.1,0,0V131l-.07.19a.39.39,0,0,0,.15.27.72.72,0,0,0,.25.12h.22l.13-.08a.55.55,0,0,0,.17-.4A.44.44,0,0,0,233.73,130.78Z"/><path class="cls-4" d="M262.69,173.37l0-.19s0-.07-.06-.11l-.2-.13h-.1l-.23.08a.42.42,0,0,0,0,.6l.2.08h0a.37.37,0,0,0,.34-.06l.1-.17Z"/><path class="cls-4" d="M256.4,112.74l0,0v-.13a.58.58,0,0,0-.19-.34.52.52,0,0,0-.38-.1.52.52,0,0,0-.36.21l0,.25,0,.07v0l0,.1.18.2a.58.58,0,0,0,.66-.12Z"/><path class="cls-4" d="M244,139.31l.14-.18v0a.35.35,0,0,0-.06-.39h0a.26.26,0,0,0-.07-.1l-.11-.07-.05,0h-.14a.77.77,0,0,0-.28.12l-.11.12,0,.06,0,.16a.5.5,0,0,0,.14.28l0-.05.12.16.07,0,.19,0A.58.58,0,0,0,244,139.31Z"/><path class="cls-4" d="M259.29,149.41l-.1,0-.3,0a.48.48,0,0,0-.22.34.4.4,0,0,0,.11.31l.11.07.05,0,.13,0a.53.53,0,0,0,.39-.53Z"/><path class="cls-4" d="M230.5,158.3l-.14-.07-.11-.06a.46.46,0,0,0-.38.17l-.1.1,0,.06,0,.14a.45.45,0,0,0,.16.32l.09,0h0l.07.05.24,0a.55.55,0,0,0,.37-.41A.36.36,0,0,0,230.5,158.3Z"/><path class="cls-4" d="M225,146.78l0-.13a.47.47,0,0,0-.13-.18h0l-.1-.08-.08,0h-.18a.48.48,0,0,0-.21.8l.19.1h.08l.22-.08a.69.69,0,0,0,.22-.23l0-.12Z"/><rect class="cls-3" x="221.69" y="70.34" width="37.41" height="43.25" transform="translate(-16.61 77.91) rotate(-17.8)"/><path class="cls-4" d="M238.39,91.9h0S238.42,92,238.39,91.9Z"/><path class="cls-4" d="M246.19,84.75v.07l0,.05a.21.21,0,0,0,.26,0,.23.23,0,0,0,.1-.26l0-.05,0,0-.06,0a.26.26,0,0,0-.22,0A.22.22,0,0,0,246.19,84.75Z"/><path class="cls-4" d="M237.83,108.37h0a.18.18,0,0,0-.06.15l0,0h0a.22.22,0,0,0,.09.1H238l.06,0h0l0-.07v-.12a.23.23,0,0,0-.22-.13l-.11,0Z"/><path class="cls-4" d="M233.41,74.87a.16.16,0,0,0,.14,0l.07-.07v0a.39.39,0,0,0,0-.11.16.16,0,0,0-.18-.11l0,0a.13.13,0,0,0-.1.08.14.14,0,0,0,0,.13h0l.07.06Z"/><path class="cls-4" d="M240.91,82.13h0a.23.23,0,0,0-.17.1.21.21,0,0,0,0,.19.28.28,0,0,0,.11.13l0,0h0a.22.22,0,0,0,.13-.06h0l0,0,0,0,0-.07a.14.14,0,0,0,0-.11.23.23,0,0,0-.1-.14Z"/><path class="cls-4" d="M225.22,105.34v0l0,0a.23.23,0,0,0,.27,0,.22.22,0,0,0,.07-.24s0,0,0-.07l-.05,0h-.09a.29.29,0,0,0-.14,0l-.06,0v0l0,.07v0h0a.21.21,0,0,0,0,.12Z"/><path class="cls-4" d="M227.89,92.92h0l0-.09,0,0-.09,0a.23.23,0,0,0-.19.07.24.24,0,0,0,0,.23l.05.07,0,0,.08,0A.21.21,0,0,0,227.89,92.92Z"/><path class="cls-4" d="M242.62,83.91h0l0,.12a.2.2,0,0,0,.18.14A.21.21,0,0,0,243,84l0-.06v0h0a.23.23,0,0,0-.07-.1h0l0,0h0l-.06,0A.19.19,0,0,0,242.62,83.91Z"/><path class="cls-4" d="M231.58,87.67l-.07,0a.19.19,0,0,0-.17.2l0,.06,0,0,.13,0a.18.18,0,0,0,.12-.09.17.17,0,0,0,0-.14v0l0-.06Z"/><path class="cls-4" d="M239.63,78.35a.18.18,0,0,0-.16,0l0,.06v.12a.23.23,0,0,0,.08.11l.06,0h.05a.18.18,0,0,0,.13-.08.19.19,0,0,0,0-.15A.23.23,0,0,0,239.63,78.35Z"/><path class="cls-4" d="M223.75,89.08l0,0,0,0v.12a.22.22,0,0,0,.16.15h0a.2.2,0,0,0,.19-.12v-.09h0a.28.28,0,0,0,0-.08.19.19,0,0,0-.16-.12h-.05a.18.18,0,0,0-.13.1Z"/><path class="cls-4" d="M261.26,96.69v.11l0,0,.06.08h.16l.08-.08v-.15a.15.15,0,0,0-.11-.11.14.14,0,0,0-.15,0Z"/><path class="cls-4" d="M224.81,83.26h0v0l0,0,.07,0a.37.37,0,0,0,.18,0l.07,0,0,0,0-.07a.31.31,0,0,0,0-.1.23.23,0,0,0-.28-.14.17.17,0,0,0-.11.09A.21.21,0,0,0,224.81,83.26Z"/><path class="cls-4" d="M255.09,85.83h0v0h0l0,.08v0a.21.21,0,0,0,.28.15l.08-.08v0a.17.17,0,0,0,0-.15l0,0,0,0h0a.22.22,0,0,0-.24,0Z"/><path class="cls-4" d="M241.76,87.17l0,.11a.23.23,0,0,0,0,.11,0,0,0,0,0,0,0h0l.06.08,0,0h.1a.32.32,0,0,0,.1-.08l.05-.09v-.05a.62.62,0,0,0,0-.12h0l-.06-.08h-.09l-.13,0Z"/><path class="cls-4" d="M231,91.33l0,0,0,0,0,.09v0a.28.28,0,0,0,.08.11l.05,0h0a.18.18,0,0,0,.18-.11h0l0-.09v0a.16.16,0,0,0-.12-.11h-.09a.22.22,0,0,0-.11,0Z"/><path class="cls-4" d="M255.2,82l0,0s0,0-.06,0L255,82h0l-.05.06a.23.23,0,0,0,0,.19.18.18,0,0,0,.07.1l.06,0h.09l.08,0a.42.42,0,0,0,.21-.12l0-.05v-.09h0a.43.43,0,0,0,0-.07v0a.19.19,0,0,0-.27-.05Z"/><path class="cls-4" d="M238.44,74.62a.13.13,0,0,0-.05.13v.07h0l0,.05,0,0h.12a.19.19,0,0,0,.17-.21l-.06-.1,0,0a.17.17,0,0,0-.22,0Z"/><path class="cls-4" d="M236.33,81.92l-.05,0v.1a.06.06,0,0,1,0,0,.2.2,0,0,0,.23.14l.05,0,0,0,0,0a.26.26,0,0,0,0-.15.22.22,0,0,0-.12-.13A.17.17,0,0,0,236.33,81.92Z"/><path class="cls-4" d="M244.84,80.75a.19.19,0,0,0,.18.13l.06,0h0l0,0a.25.25,0,0,0,0-.22l0-.06,0,0-.09,0a.21.21,0,0,0-.14.1A.2.2,0,0,0,244.84,80.75Z"/><path class="cls-4" d="M248,69a.25.25,0,0,0,0,.07l.07.06h0l.11,0a.27.27,0,0,0,.12-.12l0-.1h0v0l-.06-.08,0,0h-.08a.28.28,0,0,0-.16.11A.2.2,0,0,0,248,69Z"/><path class="cls-4" d="M255.09,99l0-.12,0,0-.13,0a.22.22,0,0,0-.11.22l.06.1,0,0H255a.24.24,0,0,0,.11-.18Z"/><path class="cls-4" d="M222.86,97.5h-.1l.08,0,0,0-.12-.06c-.1,0-.16.08-.16.19l0,0,0,0,.11.07A.18.18,0,0,0,222.86,97.5Z"/><path class="cls-4" d="M232.68,95.57v0l-.06-.06h0l-.08,0a.17.17,0,0,0-.1.06.15.15,0,0,0-.06.15l0,.06,0,0,0,0a.21.21,0,0,0,.2,0A.19.19,0,0,0,232.68,95.57Z"/><path class="cls-4" d="M255.37,109.46l0,.09a.31.31,0,0,0,0,.1.23.23,0,0,0,.1.12l.06,0h.13l0,0,.07-.08a.23.23,0,0,0,0-.17.22.22,0,0,0-.16-.15l-.11,0h0l-.06,0Z"/><path class="cls-4" d="M234.55,89.07v.1a.24.24,0,0,0,.09.12h.14a.22.22,0,0,0,.12-.26v0l-.06-.06h0l-.08,0a.3.3,0,0,0-.15.09Z"/><path class="cls-4" d="M240.07,90.08V90a.2.2,0,0,0-.26-.14h0l-.09.05,0,0v0h0a.22.22,0,0,0,0,.17h0a.17.17,0,0,0,.13.09.14.14,0,0,0,.11,0l.05,0,0,0,0,0,.06-.07Z"/><path class="cls-4" d="M236.05,103.86l0,.08,0,0,.07,0,0,0,.16,0h.08l.05,0a.15.15,0,0,0,0-.16v0l0-.06a.22.22,0,0,0-.16-.07s0,0,0,0l-.1-.07h-.05l-.12.06A.33.33,0,0,0,236.05,103.86Z"/><path class="cls-4" d="M227.78,80h0a.22.22,0,0,0-.18.12h0l0,0v.13s0,0,0,0h0l0,.09h0a.17.17,0,0,0,.15,0l.06,0,0,0a.3.3,0,0,0,.07-.27.23.23,0,0,0-.14-.14Z"/><path class="cls-4" d="M245.23,90.13a.19.19,0,0,0,0,.18l0,.07.07.06h.15l.08,0,0,0h0a.16.16,0,0,0,.11-.18.13.13,0,0,0,0-.06.15.15,0,0,0-.16-.1l0,0-.06,0h-.08l0,0Z"/><path class="cls-4" d="M231.05,103.6l-.05.05,0,0v0h0a.18.18,0,0,0,0,.13l.06.07h0a.19.19,0,0,0,.26.07v0l.07-.08v0a.13.13,0,0,0,0-.11v0l-.08-.07s0,0-.08-.07A.17.17,0,0,0,231.05,103.6Z"/><path class="cls-4" d="M220.38,84.78v0a.11.11,0,0,0-.06-.08v0l0,0h-.11l-.07,0-.06,0,0,0,0,.08a.2.2,0,0,0,0,.11.14.14,0,0,0,.09.11l0,0h0a.21.21,0,0,0,.16-.11h0l0,0v-.1Z"/><path class="cls-4" d="M249.64,97.64l0,0,.06.06h.12l.06,0,.07-.06v0l0-.09v0a.18.18,0,0,0-.05-.08h0l0,0,0,0-.09,0a.19.19,0,0,0-.14.09A.18.18,0,0,0,249.64,97.64Z"/><path class="cls-4" d="M233.3,85.22a.18.18,0,0,0,0,.15v0a.22.22,0,0,0,.28.11l.07-.06v-.13l0-.07-.07-.07,0,0h0a.19.19,0,0,0-.1,0l-.06,0Z"/><path class="cls-4" d="M248.4,88.08h0a.17.17,0,0,0-.06.14.17.17,0,0,0,0,.07l.06.08,0,0h.11a.19.19,0,0,0,.13-.18l-.05-.1h0a.17.17,0,0,0-.14-.06l-.1,0Z"/><path class="cls-4" d="M227.23,86.75l.15.08s0,0,0,0a.18.18,0,0,0,.18,0l0,0a.15.15,0,0,0,0-.14l0,0a.24.24,0,0,0-.29-.15.18.18,0,0,0-.11.1A.21.21,0,0,0,227.23,86.75Z"/><path class="cls-4" d="M231.88,80.16a.15.15,0,0,0,0-.07l-.07,0h-.09a.29.29,0,0,0-.14,0l0,0,0,0v.05a.16.16,0,0,0,0,.12v0l.06,0a.15.15,0,0,0,.16.07l0,0h0l.06,0,0,0,0-.08A.16.16,0,0,0,231.88,80.16Z"/><path class="cls-4" d="M236.82,85.33a.25.25,0,0,0-.07.28.25.25,0,0,0,.2.18l.12-.07,0,0v-.06a.1.1,0,0,1,0,0h0a.29.29,0,0,0,0-.22v0l-.06-.06,0,0a.18.18,0,0,0-.2,0Z"/><path class="cls-4" d="M226.17,74l0,0-.07-.08,0,0h-.1a.16.16,0,0,0-.12.18l0,0h0a.13.13,0,0,0,.11.11.16.16,0,0,0,.16,0l0-.06V74Z"/><path class="cls-4" d="M235.4,91.48l-.06,0h0a.2.2,0,0,0-.16.09.24.24,0,0,0,0,.2.22.22,0,0,0,.12.13.23.23,0,0,0,.18,0l0,0h0a.24.24,0,0,0,0-.22A.25.25,0,0,0,235.4,91.48Z"/><path class="cls-4" d="M250.6,77.65l.05.09,0,0a.12.12,0,0,0,.1,0l.08,0,0,0,0-.07v-.07a.18.18,0,0,0-.21-.12A.16.16,0,0,0,250.6,77.65Z"/><path class="cls-4" d="M236.71,99.87l0,0a.23.23,0,0,0,.1.12.22.22,0,0,0,.3-.29l-.16-.08h0l-.12,0-.06.06A.14.14,0,0,0,236.71,99.87Z"/><path class="cls-4" d="M240.15,102.38v0l.06.07h.13l.05,0,.08-.07,0,0v0h0a.18.18,0,0,0,0-.13l-.05-.07h0l0,0,0,0h-.12S240.09,102.18,240.15,102.38Z"/><path class="cls-4" d="M238.57,95.73v0a.18.18,0,0,0,0,.11v0l.08.07,0,0h.09a.16.16,0,0,0,.12-.19l0-.07h0a.15.15,0,0,0-.14-.07l-.09,0Z"/><path class="cls-4" d="M246.77,100.18h0a.15.15,0,0,1,.18.1l-.09,0h0v0l0,0a.06.06,0,0,0,0,0l0,0,0,0,.06,0a.19.19,0,0,1-.14.08l-.1,0-.05-.06a.15.15,0,0,1,0-.16.16.16,0,0,1,.11-.08Zm.06.2h0l0,0h0a.09.09,0,0,0,.09.06h0Z"/><path class="cls-4" d="M244.63,94.63v.14l0,0,.08.06a.21.21,0,0,0,.19,0l-.06-.1a.09.09,0,0,0,0,0h0v0h0v-.13h0a.19.19,0,0,0-.27,0Z"/><path class="cls-4" d="M246,106.36v0a.22.22,0,0,0-.27-.11h0a.19.19,0,0,0-.09.23.26.26,0,0,0,.11.14h.16a.2.2,0,0,0,.13-.15v-.07Z"/><path class="cls-4" d="M244.29,97.56l0,0a.16.16,0,0,0,.18.1l.05,0h0l0,0,.07,0a.17.17,0,0,0,0-.14.33.33,0,0,0-.06-.1l-.06,0h-.09a.24.24,0,0,0-.16.11A.18.18,0,0,0,244.29,97.56Z"/><path class="cls-4" d="M244.22,74.59l0,.08a.43.43,0,0,0,0,0l0,.1,0,0,.1,0a.19.19,0,0,0,.16-.22l-.05-.08h0a.17.17,0,0,0-.14-.06l-.08,0Z"/><path class="cls-4" d="M231.41,98.56l0,0,0,0a.23.23,0,0,0,0,.18.24.24,0,0,0,.11.13.25.25,0,0,0,.19,0l.07-.08v0h0l0,0,0-.12a.24.24,0,0,0-.27-.12Z"/><path class="cls-4" d="M242.63,91.84l-.1,0h0a.16.16,0,0,0-.07.16h0s0,0,0,0l0,.06,0,0,0,0a.34.34,0,0,0,.14,0h.07l0,0,0,0a.15.15,0,0,0,0-.14V92l0,0-.06-.06A.5.5,0,0,0,242.63,91.84Z"/><path class="cls-4" d="M239.49,84.29l0,0,.13.06a.19.19,0,0,0,.16-.07.15.15,0,0,0,0-.14l0-.06,0,0,0,0a.23.23,0,0,0-.28.09Z"/><path class="cls-4" d="M252.36,88.2s0,0,0,.06l0,0a.18.18,0,0,0,.18,0h.06l0,0,0,0a.18.18,0,0,0,0-.16.1.1,0,0,0,0,0h0v0l-.07-.08a.28.28,0,0,0-.25.06A.17.17,0,0,0,252.36,88.2Z"/><path class="cls-4" d="M251.53,93.84l0,0a.38.38,0,0,0,0,.1h0v.06l0,0,.07,0a.21.21,0,0,0,.28-.24l0-.09,0,0-.1,0-.14,0-.05,0Z"/></g></svg>