<svg xmlns="http://www.w3.org/2000/svg" viewBox="0 0 268.96 306"><defs><style>.cls-1{fill:#8d5c25;}.cls-2{fill:#fff;}</style></defs><title>kombucha</title><g id="Layer_2" data-name="Layer 2"><path class="cls-1" d="M207.86,20.78a40.69,40.69,0,0,1,40,15.21,40.72,40.72,0,0,1,3.11,42.65c-4.24,7.87-11,14.12-15.32,22-16,29.16,7.37,64.16,7.52,97.43.13,28.07-15.62,60,2,81.78,3.26,4,7.81,8.33,6.7,13.4-1.38,6.25-9.74,7.36-16.12,6.92-32.14-2.22-64.17-8.46-96.31-6.32-35.84,2.39-71.93,15.14-106.93,7-8.43-2-18.46-10.05-13.6-17.21,1.72-2.55,4.81-3.71,7.66-4.87C44.57,271.4,38.2,253,42.27,234c6.17-28.8-7.71-60.16,1.82-88,2.63-7.69,7.51-16.46,2.95-23.18-2.9-4.28-6.17-3-9.17-7.25C25.34,98,18.4,100.62,21.18,79.08,23.25,63,33.32,52.43,48.4,46.59,104.3,24.94,207.86,20.78,207.86,20.78Z"/><path class="cls-2" d="M117.28,18.06C90.13,16.87,62.43,33.58,54.82,55.74c-1.38,4-2.16,8.29-1.06,12.29,1.85,6.67,8.77,11.56,16.46,13.82S86.36,84.14,94.64,84a594.22,594.22,0,0,0,104.6-11.42c6.31-1.26,13.37-3.12,16.4-8,2.65-4.26,1.08-9.54-2.36-13.15S204.86,45.52,200,43.3C177.34,33,154.11,22.42,128.27,19.13"/><path class="cls-2" d="M104.6,186.9c1.66,1.24,2.93,2.16,3.13,3.91a5.06,5.06,0,0,1-.2,2.07c-.86,3-3.1,4.51-6.16,4.75-1,.1-3.4.38-4.29,0a3.39,3.39,0,0,1-1.28-2.47,18.42,18.42,0,0,0-.73-2.14,18.09,18.09,0,0,0,4.86.8,3,3,0,0,0,1.46-.54l0,0a2.3,2.3,0,0,0,.77-2,4.1,4.1,0,0,0-2.13-2.89,12.06,12.06,0,0,0-1.69-.72v0c-2-.72-4-1.51-4.37-3.93-.41-2.14,1.3-5.48,3.09-6.59a5.24,5.24,0,0,1,2.24-.78,11.58,11.58,0,0,1,4.91.87l.75.26a31.7,31.7,0,0,0,.34,5.74c-1.49-1.41-3.45-2.44-4.64-2.3a1.72,1.72,0,0,0-1.6,1.09c-.46,1.22,2.51,3,4.41,4.15l1.07.63Z"/><path class="cls-2" d="M126.84,182.31c.28,2.39.43,4.83.59,7.23.1,1.62.32,3.9.46,5.47a10.32,10.32,0,0,1-4.51.86,14,14,0,0,1-.53-2.51l-.34.49a4.59,4.59,0,0,1-3.87,2.29c-4.54-.08-5.57-4.24-6.27-7.56l-.22-1.15c-.1-.55-.21-1.22-.29-1.86-.13-1.15-.19-2.4-.28-3.56s-.09-2.48-.22-3.68c-.07-.59-.26-1.56-.51-2.7l3.47-.81c1.65.41,1.63.91,1.56,2.05l0,.84v-.08c.07,1.73.25,3.6.42,5.44l.29,3.29.06.52c.15,1.61.35,3.71,1.8,4.15a1.63,1.63,0,0,0,.81.09c1.07-.12,1.8-1.45,2.19-2.59v0a14.91,14.91,0,0,0,.15-5.43c-.09-.78-.19-1.6-.32-2.38s-.22-1.57-.29-2.2a19.86,19.86,0,0,1-.16-2.1c0-.15,0-.23,0-.34,0-1.4,0-1.54,1.32-2.19.53-.22,2.54-.18,3,.3l-.1-.14c.78.51,1.07,2,1.24,3.49l.31,2.72C126.65,180.93,126.77,181.64,126.84,182.31Z"/><path class="cls-2" d="M145.17,174.32a56.77,56.77,0,0,0,.44,7.32c.18,1.61.4,3.21.63,4.84v0c.16,1,.32,2.15.44,3.2.51,3.72-.3,10.36-5.2,11.67-2.3.57-5.89-.68-7.77-2.1a18.61,18.61,0,0,0,1-3.09,11.58,11.58,0,0,0,5,.79,5.31,5.31,0,0,0,1.71-.46h0c1.12-.73,1.26-2.67,1.06-4.35,0-.38,0-.38,0-.35a1.19,1.19,0,0,1-.06-.21,5.68,5.68,0,0,1-3.36,1.82,6,6,0,0,1-3.2-.62c-2.48-1.34-2.77-2.9-3.19-5.16a6.33,6.33,0,0,0-.13-.78c-.13-.74-.26-1.59-.35-2.34-.38-3.32.11-6.74,3.12-9.2a6,6,0,0,1,2.91-1.21,4.37,4.37,0,0,1,2.4.37v-.79a8.1,8.1,0,0,1,1.93,0c.64,0,1.4,0,1.88,0Zm-4,8.17a6.48,6.48,0,0,0-.15-1c-.12-.71-1.28-4.58-2.26-3.34-2,.91-2.55,3.62-2.27,6.12a7.26,7.26,0,0,0,1.5,4,1.94,1.94,0,0,0,1.62.84c.75-.09,1.34-.91,1.49-2A17,17,0,0,0,141.13,182.49Z"/><path class="cls-2" d="M163.68,178.06c.18,1.27.41,2.57.6,3.87.31,1.66.66,3.67.86,5.38.1.9.17,2.56.19,3.46a8.34,8.34,0,0,1-3.58-.46,3.59,3.59,0,0,1-2.73,1c-4.18.29-7.11-2.25-7.52-5.79a6.21,6.21,0,0,1,0-1.82c.68-4.24,3.34-5.19,6.79-6.22a8.22,8.22,0,0,0,.82-.21,3.13,3.13,0,0,0,0-.6c-.18-1.57-1.52-2.06-3.1-1.88s-3.68,1.52-5.56,3.62a43.59,43.59,0,0,0-.32-5.59l1-.12a16,16,0,0,1,5.74-2.36,5.59,5.59,0,0,1,5.75,2.63,9.61,9.61,0,0,1,.88,3.08c0,.34,0,.68.08,1.05S163.64,177.73,163.68,178.06Zm-3.92,5a17.62,17.62,0,0,0-.32-2.08,3.31,3.31,0,0,0-2.19,1.84h0a5.66,5.66,0,0,0-1,2.84,1.55,1.55,0,0,0,.46.93,2.81,2.81,0,0,0,1.94.49,1.43,1.43,0,0,0,.73-.27C160,186.27,159.93,184.58,159.76,183.05Z"/><path class="cls-2" d="M173.12,170.18a6.35,6.35,0,0,1,5-1.9c0,.42.39,1.24.4,1.69a9.1,9.1,0,0,1-.45,3.76,4.53,4.53,0,0,0-2-1c-1.62.18-2.21,3.81-2.17,5.2a18.24,18.24,0,0,0,.15,2c.11,1,.27,2,.42,2.94s.32,1.81.43,2.71a29.55,29.55,0,0,1,.13,3.61c-.2,0-1,.08-1.23.11-1.44.05-2.67.19-3.29-1.44l-2.21-17.9c.61-.34,2.89-1.39,3.81-1.08A2.06,2.06,0,0,1,173.12,170.18Z"/></g></svg>