<svg xmlns="http://www.w3.org/2000/svg" viewBox="0 0 279 265.75"><defs><style>.cls-1{fill:#fff;}.cls-2{fill:none;}.cls-3{fill:#465777;}</style></defs><title>kombucha</title><g id="Layer_2" data-name="Layer 2"><path class="cls-1" d="M174.12,4.48c-18.92-1.26-35.72-2-54.5.65-4.67.65-9.53,1.51-13.28,4.36s-6,8.32-3.66,12.44c1.26,2.27,3.57,3.7,5.55,5.38,9.1,7.72,11.06,22.57,4.26,32.39-12.47,18-42.6,12.85-57.84,28.62C47.93,95.26,45.34,105.1,43,114.47c-4.86,19.45-9.73,38.93-12.58,58.78-2.32,16.17-2.88,34.09,6.81,47.25,5.12,7,12.64,11.82,20.52,15.36,12.62,5.69,26.36,8.33,40,10.51,31.22,5,37.92,5.78,69.53,6.22,14.86.2,30.21-.2,43.77-6.28,16.29-7.3,28.23-22.19,35.47-38.5s10.26-34.14,12.92-51.79c1.92-12.8,3.34-27.1-4.3-37.54-11.79-16.11-14.64-13.29-23.87-31-3-5.82-3.38-12.62-3.65-19.18-.31-7.37.19-16.29,6.64-19.88,4.33-2.42,10.67-1.88,13.16-6.17,3.11-5.35-5.77-18.42-11.27-21.24-21.95-11.24-35.77-11.83-62-16.54"/><rect class="cls-2" x="137.49" y="226.46" width="55.88" height="53.25" transform="translate(-115.82 364.06) rotate(-78.36)"/><path class="cls-3" d="M149.1,258.26l-.06,0,0,0a.38.38,0,0,0-.06.13.3.3,0,0,0,.09.28l0,.05.09.09a.37.37,0,0,0,.31,0,.35.35,0,0,0,.19-.25.31.31,0,0,0-.1-.3l-.15,0a.33.33,0,0,0-.21-.06Z"/><path class="cls-3" d="M159.18,255.39l0-.06,0-.07a.5.5,0,0,0-.21-.5l-.16,0-.13.05-.11.15,0,.14,0,0,0,.09,0,.14.12.14a.5.5,0,0,0,.41,0Z"/><path class="cls-3" d="M166,256.39l0,.1,0,.14.07.09.12.07a.57.57,0,0,0,.35-.08l.14-.1.06-.12v-.17a.38.38,0,0,0-.47-.12h-.08l-.1.06Z"/><path class="cls-3" d="M173.15,244.87a.37.37,0,0,0-.26-.1l-.12,0-.08.08,0,0-.06.11,0,.11,0,.12a.29.29,0,0,0,.34.12h.1l.11-.07.07-.13A.4.4,0,0,0,173.15,244.87Z"/><path class="cls-3" d="M168.1,256.59v0a.62.62,0,0,0-.24-.42l-.15,0-.13,0-.14.11-.1,0-.07.05-.07.08a.44.44,0,0,0,0,.1v0a.31.31,0,0,0-.1.19h0v.06a.49.49,0,0,0-.08.18.26.26,0,0,0,.09.27l.11,0a.34.34,0,0,0,.27.1l.1-.05.07-.07,0-.1c0-.05,0-.11,0-.16h.07l.12-.09,0-.06a.43.43,0,0,0,.16-.21Z"/><path class="cls-3" d="M158.13,262.31h0a.6.6,0,0,0,0-.19.28.28,0,0,0-.1-.15h0a.28.28,0,0,0-.16-.32h-.14l-.07,0a.25.25,0,0,0-.13,0l0,0-.14,0-.15.14.16.06h-.19l-.08.17,0,.18a.4.4,0,0,0,.11.28l.05,0,.13.06a.34.34,0,0,0,.19.07l.17,0,.14,0a.26.26,0,0,0,.27-.2A.25.25,0,0,0,158.13,262.31Z"/><path class="cls-3" d="M166.72,261.9l-.05,0a.25.25,0,0,0-.17.11l0,0-.08,0,0,.06-.05.11a.35.35,0,0,0,0,.21v.12l.05.12a.6.6,0,0,0,.82,0l.07-.17v0a.46.46,0,0,0,0-.09v-.12a.31.31,0,0,0-.09-.14l-.08-.14a.44.44,0,0,0-.3-.13Z"/><path class="cls-3" d="M139.31,257.3l-.06.06a.32.32,0,0,0-.26.23l0,.14v.11l0,.08.07,0-.06.05.06.09.12.07a.15.15,0,0,1-.08,0,.39.39,0,0,0,.39.2l.06,0a.74.74,0,0,0,.36-.28l0-.11v-.1a.08.08,0,0,0,0-.05l0-.14-.07-.09-.11-.08a.24.24,0,0,1-.12-.05l-.16-.07Z"/><path class="cls-3" d="M175.56,265.71l0,.13.07.09.11.07h0a.48.48,0,0,0,.34.12l.08,0a.29.29,0,0,0,.16-.2.39.39,0,0,0-.05-.25h0l0-.12-.16-.12A.43.43,0,0,0,175.56,265.71Z"/><path class="cls-3" d="M179.74,262l0,.12,0,.12.06.11a.5.5,0,0,0,.52.12l0-.06h0a.4.4,0,0,0,.23-.26v0l0-.13-.07-.07a.29.29,0,0,0-.21-.19h-.08A.73.73,0,0,0,179.74,262Z"/><path class="cls-3" d="M169.56,262.62l-.06.05v.06a.27.27,0,0,0-.07.14V263l0,.07,0,.06.09.06a.48.48,0,0,0,.37.06.37.37,0,0,0,.19-.2V263l0-.08,0-.09a.39.39,0,0,0-.25-.27.3.3,0,0,0-.28.07Z"/><path class="cls-3" d="M161.76,265l0,0a.25.25,0,0,0-.13.15v.15l0,.07.06.07v0l.06.11.12.08c.24,0,.35-.08.38-.21v0a.28.28,0,0,0,.08-.15v-.06l-.09-.16-.14-.08a.26.26,0,0,0-.27-.07Z"/><path class="cls-3" d="M153,263.74a.28.28,0,0,0-.49,0v.16l0,.11.06,0-.07,0a.32.32,0,0,0,.24.22.33.33,0,0,0,.28-.11l0-.17,0-.13Z"/><path class="cls-3" d="M163.62,225.19s0-.05,0-.08l0-.11-.05-.08-.09-.07a.29.29,0,0,0-.28,0c-.09,0-.14.12-.17.28v0l0,.1,0,.08.07.06a.32.32,0,0,0,.31,0A.34.34,0,0,0,163.62,225.19Z"/><path class="cls-3" d="M166.5,237.22l-.05.09,0,.07,0,.12.07.11a.25.25,0,0,0,.12.1l.16,0,.11-.08.07-.11a.32.32,0,0,0-.06-.28.28.28,0,0,0-.23-.1l-.11,0Z"/><path class="cls-3" d="M161.54,236.8a.48.48,0,0,0-.17.28.33.33,0,0,0,.23.42h0a.3.3,0,0,0,.33-.11l0-.09a.32.32,0,0,0,0-.14V237l-.1-.16-.1-.07-.09,0h-.08Z"/><path class="cls-3" d="M173.9,236.93l-.05,0,0,.06a.31.31,0,0,0,0,.08.42.42,0,0,0,.09.38.51.51,0,0,0,.43.13l.09,0,.06-.06.08-.12a.48.48,0,0,0,.09-.19v-.09l0-.08-.06-.08a.51.51,0,0,0-.59-.08Z"/><path class="cls-3" d="M169.34,235.79a.3.3,0,0,0,0,.1l0,.11.06.09.11.07.17,0h.1l.09,0,.09-.1a1.17,1.17,0,0,0,.08-.21.36.36,0,0,0-.09-.33l-.09-.06a.39.39,0,0,0-.33,0A.45.45,0,0,0,169.34,235.79Z"/><path class="cls-3" d="M191.59,241.18v.13l.06.15a.36.36,0,0,0,.14.13H192l.11-.06.07-.07-.11-.13.11.12,0-.17,0-.14L192,241A.29.29,0,0,0,191.59,241.18Z"/><path class="cls-3" d="M183.27,244.31l0,.12.05.1.09.08a.37.37,0,0,0,.32,0,.32.32,0,0,0,.17-.24v-.07l0-.12-.07-.08-.11-.06A.38.38,0,0,0,183.27,244.31Z"/><path class="cls-3" d="M153.36,236.88l0,.09-.06-.08-.09.06-.07.13a.44.44,0,0,0,.29.45h.12l.1,0,.09-.08,0-.09a.29.29,0,0,0,0-.22.3.3,0,0,0-.17-.26h-.13Z"/><path class="cls-3" d="M174.94,239.64l-.07.06-.05.09,0,.1,0,.14.07.09.14.07a.29.29,0,0,0,.37-.15v-.11l0-.11a.3.3,0,0,0-.36-.22Z"/><path class="cls-3" d="M186.57,261.15a.36.36,0,0,0,.05.27l.09.07,0,0c.13,0,.35,0,.44-.33l0-.07,0,0-.05-.1-.08-.08a.37.37,0,0,0-.31,0A.32.32,0,0,0,186.57,261.15Z"/><path class="cls-3" d="M155.09,232.55a.51.51,0,0,0,0,.18l0,.09.06.07.09.05.1,0,.11,0,.1-.05.09-.14v-.07l0-.06v-.08l0-.1-.06-.07-.09-.06a.35.35,0,0,0-.3,0A.37.37,0,0,0,155.09,232.55Z"/><path class="cls-3" d="M161.48,230.3l0,.16.06.07a.28.28,0,0,0,.22.2h.09l.08,0,.07,0a.31.31,0,0,0,.08-.15.33.33,0,0,0-.23-.37A.32.32,0,0,0,161.48,230.3Z"/><path class="cls-3" d="M170.83,226.49l-.12-.11-.17,0-.13,0-.09.06-.08.14v.12l0,.06a.32.32,0,0,0,.27.16.36.36,0,0,0,.31-.13l0-.17Z"/><path class="cls-3" d="M188,236.36H188a.3.3,0,0,0-.29.18h0l0,.06,0,.06a.49.49,0,0,0,.06.37.52.52,0,0,0,.39.18l.13,0,.08-.07a.31.31,0,0,0,.16-.2.28.28,0,0,0,0-.13h0a.06.06,0,0,0,0,0,.28.28,0,0,0-.17-.32h-.1Z"/><path class="cls-3" d="M186.09,228.88a.36.36,0,0,0-.15.17.34.34,0,0,0-.14.21.64.64,0,0,0,.13.46l0,.06.07.05a.54.54,0,0,0,.45,0,.49.49,0,0,0,.24-.36s0-.08,0-.13l0-.1-.05-.08-.07-.06-.06-.05A.39.39,0,0,0,186.09,228.88Z"/><path class="cls-3" d="M184.34,248.75a.48.48,0,0,0,0-.29l-.05-.06-.06,0-.08,0c-.37-.07-.45.16-.47.26v.08l0,.13.09.08.09,0a.51.51,0,0,0,.18.08l.11,0,.09-.05.07-.09Z"/><path class="cls-3" d="M182.26,237.23l0,.06,0,.08h0a.32.32,0,0,0,.05.28.33.33,0,0,0,.09.13l.07,0,.09,0,.07,0h0a.31.31,0,0,0,.36-.15v-.06a.42.42,0,0,0-.16-.45.41.41,0,0,0-.46,0Z"/><path class="cls-3" d="M174.69,231.43a.24.24,0,0,0-.24.18.28.28,0,0,0-.1.15.37.37,0,0,0,.05.23l0,0,.06,0,.1.05a.65.65,0,0,0,.19.1l.12,0,.1,0,.07-.05.06-.06,0-.09a.51.51,0,0,0-.29-.58h-.16Z"/><path class="cls-3" d="M150.35,228.64h0a.34.34,0,0,0,.08-.16h0l0,0,0-.06a.26.26,0,0,0-.12-.27l0,0h-.43l-.12.06-.07.09,0,.18a.42.42,0,0,0,.43.45A.25.25,0,0,0,150.35,228.64Z"/><path class="cls-3" d="M179.38,234.49l.14.2h.07l.14,0,0,0h.05l.2-.13a.29.29,0,0,0-.23-.37.31.31,0,0,0-.25.05A.3.3,0,0,0,179.38,234.49Z"/><path class="cls-3" d="M178.81,253.63l-.1-.11h0a.36.36,0,0,0-.25-.12.29.29,0,0,0-.2.07l-.12.06-.09.12a.38.38,0,0,0,0,.2h0l0,.07h0v0l.05.11.09.08a.46.46,0,0,0,.38,0,.49.49,0,0,0,.24-.31A.25.25,0,0,0,178.81,253.63Z"/><path class="cls-3" d="M165.24,249.84l0,0,0,0-.07.05L165,250l0,.07a.25.25,0,0,0,0,.08h0l0,.11v.14a.44.44,0,0,0,.15.13l.05.05.22,0a.32.32,0,0,0,.27-.08h0a.26.26,0,0,0,.17-.2.29.29,0,0,0-.07-.25l0-.06-.07-.07-.06-.08,0,0a.27.27,0,0,0-.21-.09Z"/><path class="cls-3" d="M173.85,251.73h0l0,0-.09.07-.06.1a.27.27,0,0,0-.15.21.26.26,0,0,0,0,.21h0l.07.14.05,0a.4.4,0,0,0,.15.17H174l.13,0h.11l.09,0,.13-.11a.91.91,0,0,0,.18-.36v-.07l0-.1,0-.08-.08-.07-.06,0-.05-.09h0v0l-.06-.07-.1-.06A.39.39,0,0,0,173.85,251.73Z"/><path class="cls-3" d="M187.28,255.22l-.1.08a.36.36,0,0,0,0,.11.33.33,0,0,0,.23.39.3.3,0,0,0,.38-.2v-.11l0-.1-.1-.11a.35.35,0,0,0-.09-.07l-.14,0Z"/><path class="cls-3" d="M156.61,250.31v.05h0a.2.2,0,0,1,0,.08l0,.13,0,.12.1.14a.44.44,0,0,0,.26.13h0a.23.23,0,0,0,.25-.07h0l.09-.06a.36.36,0,0,0,.08-.18.45.45,0,0,0,0-.11.28.28,0,0,1,0-.08v-.11l0-.09-.07-.07a.68.68,0,0,0-.53,0Z"/><path class="cls-3" d="M163.23,246.93a.27.27,0,0,0-.1.11.22.22,0,0,0-.09.1.47.47,0,0,0-.06.15.71.71,0,0,0,.09.5l.06.05.06,0,.08,0a.65.65,0,0,0,.65-.57v-.14l0-.06a.29.29,0,0,0-.12-.1.26.26,0,0,0-.15-.12h-.1A.31.31,0,0,0,163.23,246.93Z"/><path class="cls-3" d="M148.31,249a.3.3,0,0,0,0-.1.38.38,0,0,0,0-.15l0-.1-.06-.08-.09-.06-.18,0-.12,0-.09.07-.08.1,0,.14v.08l0,.07,0,.06a.42.42,0,0,0,.34.15l.09,0,.08-.05Z"/><path class="cls-3" d="M164.33,253.77l-.11.06h0a.32.32,0,0,0-.19.11.37.37,0,0,0-.09.19.53.53,0,0,0,0,.13.2.2,0,0,1,0,.07l0,.11.06.09.08.07a.43.43,0,0,0,.33,0l.12-.08.07-.11v0a.49.49,0,0,0,.11-.22V254l0-.11-.06-.08-.12-.07,0,0Z"/><path class="cls-3" d="M188.92,249a.3.3,0,0,0-.19.07.39.39,0,0,0-.08.1.21.21,0,0,0-.11.16.43.43,0,0,0,0,.16l0,.07,0,.05a.41.41,0,0,0,.35.24h.09l.08,0,.07-.07a1,1,0,0,0,.11-.26.44.44,0,0,0-.15-.44l-.15,0-.08,0Z"/><path class="cls-3" d="M151.09,240.44a.25.25,0,0,0,.16-.16v-.15l0,0a.27.27,0,0,0-.11-.22.21.21,0,0,0-.17-.06.37.37,0,0,0-.43.3.5.5,0,0,0,0,.21l0,.07,0,0,0,.05A.36.36,0,0,0,151.09,240.44Z"/><path class="cls-3" d="M140.88,241l-.07.05-.06.07a1.55,1.55,0,0,0-.08.23.41.41,0,0,0,.07.37.43.43,0,0,0,.35.16l.12,0,.08-.08.06-.08.05,0,.06-.11,0-.1,0-.16a.46.46,0,0,0-.47-.31Z"/><path class="cls-3" d="M147.31,239.44h0l.09,0,.08-.07a.35.35,0,0,0,0-.11.43.43,0,0,0-.19-.46.27.27,0,0,0-.33.05v0l-.06,0-.08.12a.53.53,0,0,0,.07.41l.07,0,.08,0h.08A.34.34,0,0,0,147.31,239.44Z"/><path class="cls-3" d="M175.27,257.49l-.08.05-.05.06a.26.26,0,0,0-.09.17.28.28,0,0,0,0,.11l0,.07a.35.35,0,0,0,.28.21.44.44,0,0,0,.4-.18l0-.14,0-.12-.08-.12a.47.47,0,0,0-.3-.13Z"/><path class="cls-3" d="M167.44,243l0,0,0,.07c0,.08,0,.2.2.31s.33,0,.36,0l0,0,.05-.05,0-.07a.24.24,0,0,0-.16-.29.53.53,0,0,0-.4,0Z"/><path class="cls-3" d="M169.25,248.41l-.09-.16-.11,0-.08.06-.07.1,0,.21v.08l0,.06,0,.07a.33.33,0,0,0,.43,0,.26.26,0,0,0,.3-.2.23.23,0,0,0,0-.14h0v-.12l-.06-.12a.45.45,0,0,0-.36-.08Z"/><path class="cls-3" d="M169.17,242.55h0a.37.37,0,0,0-.08.19l0,.09v.09l0,.09,0,.06a.65.65,0,0,0,.49.18l.08,0a.29.29,0,0,0,.08-.07l.11-.06,0-.06,0-.07a.21.21,0,0,0,0-.11l0,0a.46.46,0,0,0-.15-.43l0-.08-.06-.06-.09,0A.46.46,0,0,0,169.17,242.55Z"/><path class="cls-3" d="M177.14,247.9a.27.27,0,0,0,.16.3.35.35,0,0,0,.42-.16v-.17l-.07-.13-.15-.08C177.22,247.67,177.16,247.83,177.14,247.9Z"/><path class="cls-3" d="M174.56,244.91l-.11.12a.63.63,0,0,0-.09.2.28.28,0,0,0,.12.31h.09a.29.29,0,0,0,.28.06l.06,0,.09-.08a.46.46,0,0,0,.13-.22v0l0-.13L175,245l-.1-.06a.59.59,0,0,0-.11-.09h-.14Z"/><path class="cls-3" d="M155.35,242.84l0-.08v-.06a.26.26,0,0,0,.06-.14.33.33,0,0,0,0-.17l-.05-.1-.06-.06-.11-.07a.38.38,0,0,0-.24-.11.24.24,0,0,0-.16,0,.27.27,0,0,0-.25.21v.1a.49.49,0,0,0,0,.11.33.33,0,0,0,.08.32l.06,0,.07,0,.07,0a.5.5,0,0,0,.42,0Z"/><path class="cls-3" d="M174.15,246l-.12.06-.07.09,0,.1a.29.29,0,0,0-.09.17v.11l0,.09.11.1a.38.38,0,0,0,.32.09l.09,0,.07,0,.08-.12a.54.54,0,0,0,.1-.2.36.36,0,0,0-.12-.35l-.16,0h0v0A.54.54,0,0,0,174.15,246Z"/><rect class="cls-2" x="163.71" y="220.96" width="52.15" height="54.73" transform="translate(-114.66 319) rotate(-65.68)"/><path class="cls-3" d="M188.35,231.61l0-.07,0-.06-.1-.08a.3.3,0,0,0-.29,0h-.05l-.11.06a.35.35,0,0,0-.05.3.36.36,0,0,0,.19.24.31.31,0,0,0,.31,0l.07-.13a.31.31,0,0,0,.1-.19Z"/><path class="cls-3" d="M188.93,241.86l0,0,.06,0a.5.5,0,0,0,.53-.1l.06-.14,0-.13-.12-.14-.13-.06,0,0-.07-.06-.15,0-.15.09a.48.48,0,0,0-.07.4Z"/><path class="cls-3" d="M186.49,248.18l-.09,0h-.13l-.11,0-.09.1a.63.63,0,0,0,0,.36l.06.15.11.08.16,0a.34.34,0,0,0,.22-.42h0v-.08l0-.11Z"/><path class="cls-3" d="M167.85,237.28a.33.33,0,0,0-.39.09l-.07.14v.14l.1.15h0a.29.29,0,0,0,.35-.06l.11-.12,0-.15Z"/><path class="cls-3" d="M196,257.47a.38.38,0,0,0,.15-.23l0-.13L196,257l0,0-.08-.08-.1,0h-.12a.29.29,0,0,0-.2.3h0v.08l0,.13.11.09A.42.42,0,0,0,196,257.47Z"/><path class="cls-3" d="M185.86,250.12l0,0a.59.59,0,0,0,.44-.14l.08-.13v-.13l-.07-.16v-.1l0-.08-.06-.08-.09,0h0a.35.35,0,0,0-.17-.14h-.07a.52.52,0,0,0-.16-.12.26.26,0,0,0-.27,0l-.06.1a.34.34,0,0,0-.16.23l0,.11.05.09.09.06.15.06h0l0,.06.06.14.06,0a.39.39,0,0,0,.16.2Z"/><path class="cls-3" d="M178.52,233.15l-.07-.07a.32.32,0,0,0-.35,0h0a.4.4,0,0,0-.2.25v.11l0,.09.08.08h0a.27.27,0,0,0,.25,0l.09-.05a.33.33,0,0,0,.25-.28l0-.11Z"/><path class="cls-3" d="M166.54,259.1l0,0-.06,0a.3.3,0,0,0-.37.09l-.08.1,0,.11,0,.13a.32.32,0,0,0,.16.14.34.34,0,0,0,.35-.05.35.35,0,0,0,.11-.35Z"/><path class="cls-3" d="M180.42,226a.2.2,0,0,0-.07-.1l-.1,0h-.14a.34.34,0,0,0-.32.3l0,.11.05.08.1.09a.52.52,0,0,0,.16.12.39.39,0,0,0,.21,0l.14-.15v0h0a.32.32,0,0,0,.05-.26A.26.26,0,0,0,180.42,226Z"/><path class="cls-3" d="M167.52,251l-.14,0-.11,0h0a.33.33,0,0,0-.33.3l0,.15.14.12,0,0a.57.57,0,0,0,.18,0h.15l.08-.05.06-.06,0-.09A.41.41,0,0,0,167.52,251Z"/><path class="cls-3" d="M165.27,254.2a.32.32,0,0,0,0-.18.36.36,0,0,0-.1-.11.26.26,0,0,0-.15-.17l-.06,0h-.09l-.07,0-.08,0a.38.38,0,0,0-.23.18.43.43,0,0,0,0,.35.47.47,0,0,0,.26.29.45.45,0,0,0,.57-.17l0-.12Z"/><path class="cls-3" d="M170.37,244h.16l.09,0,.08-.09,0-.06v-.11l0-.12a.51.51,0,0,0-.09-.12l-.17,0-.08,0v0a.25.25,0,0,0-.22.21.26.26,0,0,0,.12.27h0Z"/><path class="cls-3" d="M182.54,239.36h0a.29.29,0,0,0,.18,0,.26.26,0,0,0,.16-.06h0a.26.26,0,0,0,.34-.08l0-.14,0-.06a.33.33,0,0,0,0-.14l0,0,0-.14-.11-.17-.08.13h0l0-.18-.15-.11h-.17a.34.34,0,0,0-.3,0l0,0a.44.44,0,0,0-.08.11.35.35,0,0,0-.11.16l-.08.16v.14a.26.26,0,0,0,.14.3A.2.2,0,0,0,182.54,239.36Z"/><path class="cls-3" d="M174.42,233.29l.17.05h.09l.08,0,.08-.05a.37.37,0,0,0,0-.49l-.08-.09-.09,0h-.12a.24.24,0,0,0-.13.08l-.05,0-.11.1A.35.35,0,0,0,174.42,233.29Z"/><path class="cls-3" d="M181.08,247.66v0a.33.33,0,0,0-.08-.19v0l0-.08,0-.07-.1-.07a.41.41,0,0,0-.2,0h0l-.1,0-.12,0a.61.61,0,0,0-.17.79l.15.1h0l.09,0h.11a.21.21,0,0,0,.15-.06l.15,0a.49.49,0,0,0,.2-.25Z"/><path class="cls-3" d="M191.37,222.46l0-.07a.34.34,0,0,0-.17-.3L191,222h-.1l-.09,0,0,.08,0-.08-.09,0-.1.11a.14.14,0,0,1,.06-.07.38.38,0,0,0-.28.32v.06a.79.79,0,0,0,.2.41l.1.05.09,0,0,0H191l.11,0,.09-.09a.59.59,0,0,1,.08-.11.85.85,0,0,0,.1-.14Z"/><path class="cls-3" d="M175.54,255.29h-.13l-.1.05-.09.09a.07.07,0,0,1,0,0,.44.44,0,0,0-.2.3v.09a.35.35,0,0,0,.17.19.28.28,0,0,0,.24,0h.14l.15-.12A.42.42,0,0,0,175.54,255.29Z"/><path class="cls-3" d="M178.17,260.08l-.11-.07H178l-.13,0c-.22.19-.25.36-.22.47l.05,0v0a.35.35,0,0,0,.2.27l0,0,.13,0,.08,0a.3.3,0,0,0,.23-.16l0-.08A.71.71,0,0,0,178.17,260.08Z"/><path class="cls-3" d="M179.78,250.22l0-.07-.06,0a.24.24,0,0,0-.12-.1l-.11,0-.08,0-.06,0-.08.07a.45.45,0,0,0-.13.34.3.3,0,0,0,.14.22l.08,0h.17a.37.37,0,0,0,.31-.18.28.28,0,0,0,0-.28Z"/><path class="cls-3" d="M172.06,250.17l-.05-.09-.07-.06-.09-.05a.44.44,0,0,0-.38,0l-.08.07a.42.42,0,0,0,0,.48l.1.06.1,0h.1a.38.38,0,0,0,.39-.33Z"/><path class="cls-3" d="M179.15,242.25l0,0a.28.28,0,0,0-.12-.16l-.07,0h-.15l-.07,0h0l-.12,0-.11.1a.3.3,0,0,0,.13.41h0a.3.3,0,0,0,.13.12l.06,0,.17-.05.11-.12a.26.26,0,0,0,.12-.24Z"/><path class="cls-3" d="M182.27,234.14a.3.3,0,0,0,.2-.22.27.27,0,0,0-.08-.25l-.15,0-.12,0v.06l0-.07a.31.31,0,0,0-.25.18.29.29,0,0,0,0,.29l.15.07.13,0Z"/><path class="cls-3" d="M171.8,223.12l-.09-.15-.16-.07h-.16l-.11.08a.31.31,0,0,0-.16.2v.1l0,.09.07.08.05,0a.19.19,0,0,0,.16,0h.08l.12,0,.12-.11h0l.06-.1Z"/><path class="cls-3" d="M161.47,249.36a.3.3,0,0,0-.18-.23l-.09,0-.09,0-.11,0a.7.7,0,0,0-.22.12l0,.15,0,.12.09.12.06,0c.38.17.54,0,.6-.14v-.14Z"/><path class="cls-3" d="M216.82,252.6l.08,0H217l.09,0,.08-.06a.39.39,0,0,0,0-.28A.42.42,0,0,0,217,252h-.12l-.08,0-.08.05a.32.32,0,0,0,.11.51Z"/><path class="cls-3" d="M204.71,252.76l-.08-.07-.06,0h-.11l-.13,0a.25.25,0,0,0-.11.09l0,.16.05.13.09.09a.33.33,0,0,0,.28,0,.28.28,0,0,0,.15-.2v-.11Z"/><path class="cls-3" d="M206.17,248.11a.44.44,0,0,0-.22-.23.33.33,0,0,0-.45.14v0a.29.29,0,0,0,0,.35l.08.06.14,0h.11l.17-.06.09-.08,0-.08,0-.08Z"/><path class="cls-3" d="M203.4,259.89l0-.06-.05-.05-.07,0a.42.42,0,0,0-.39,0,.5.5,0,0,0-.21.38l0,.09,0,.08.1.1a.45.45,0,0,0,.16.13l.09,0h.08l.09,0a.52.52,0,0,0,.2-.55Z"/><path class="cls-3" d="M205.47,255.78l-.09,0h-.12l-.1,0-.08.09L205,256v.11l0,.09.07.1a.93.93,0,0,0,.18.13.41.41,0,0,0,.34,0l.08-.08a.4.4,0,0,0,.05-.32A.46.46,0,0,0,205.47,255.78Z"/><path class="cls-3" d="M207.86,240.28h-.09l.09,0,0-.1-.11-.1a.41.41,0,0,0-.49.18l0,.12,0,.1.06.1.07,0a.25.25,0,0,0,.22,0,.3.3,0,0,0,.29-.11l0-.12Z"/><path class="cls-3" d="M200.58,260.3l0-.08-.07-.06-.1-.05h-.13l-.11.05-.1.12a.29.29,0,0,0,.07.39l.11,0h.11a.3.3,0,0,0,.29-.3Z"/><path class="cls-3" d="M211.63,242.86a.48.48,0,0,0-.17-.05l-.1,0-.08,0-.06.08-.05.09v.11l0,.1.12.12.06,0,.06,0,.07,0h.1l.09,0,.07-.07a.36.36,0,0,0,0-.3A.3.3,0,0,0,211.63,242.86Z"/><path class="cls-3" d="M212.4,249.45h-.16l-.08,0a.29.29,0,0,0-.24.17v.16l0,.08a.28.28,0,0,0,.13.11.32.32,0,0,0,.4-.14A.31.31,0,0,0,212.4,249.45Z"/><path class="cls-3" d="M214,259.21l.13-.1.08-.16v-.12l0-.1-.12-.11h-.18a.35.35,0,0,0-.21.22.39.39,0,0,0,.06.33l.15.06Z"/><path class="cls-3" d="M208.49,261.83a.26.26,0,0,0-.13-.27.22.22,0,0,0-.13-.12.22.22,0,0,0-.22,0l0,0-.05,0-.06.08a.63.63,0,0,0-.13.17l0,.11,0,.11,0,.07.05.08.08.06a.5.5,0,0,0,.61-.16l0-.15Z"/><path class="cls-3" d="M216.38,239.17h0a.36.36,0,0,0,.13.11h0l0,0,0,0a.25.25,0,0,0,.29-.05l0,0,0-.1,0-.13a1.16,1.16,0,0,0,0-.18l0-.12-.07-.09-.16-.07a.41.41,0,0,0-.52.32A.26.26,0,0,0,216.38,239.17Z"/><path class="cls-3" d="M204.55,265.66l-.22.09,0,.05h0l0,.12v0l0,0,.09.21a.29.29,0,0,0,.4-.14.31.31,0,0,0,0-.25A.3.3,0,0,0,204.55,265.66Z"/><path class="cls-3" d="M186.38,261l.13-.08v0h0a.41.41,0,0,0,.16-.22.26.26,0,0,0,0-.21l0-.12-.1-.11a.44.44,0,0,0-.19,0h-.11l-.1,0-.11.07a.44.44,0,0,0-.05.37.49.49,0,0,0,.24.3A.45.45,0,0,0,186.38,261Z"/><path class="cls-3" d="M192.92,248.84l0-.05v0l0-.07,0-.07-.07,0-.07,0h0l-.1-.06-.14,0a.37.37,0,0,0-.15.11l-.07,0-.09.2a.3.3,0,0,0,0,.27v0a.25.25,0,0,0,.16.2.25.25,0,0,0,.25,0l.06,0,.09,0,.08,0h0A.28.28,0,0,0,193,249Z"/><path class="cls-3" d="M189.27,256.66h0v-.05l0-.1-.08-.08a.32.32,0,0,0-.17-.19.26.26,0,0,0-.21,0h0l-.15,0s0,0,0,0a.52.52,0,0,0-.19.11l0,.13v0l-.06.11,0,.11v.1l.08.14a.8.8,0,0,0,.3.25l.06,0h.1l.09,0,.08-.05,0-.06.1,0h0l.09,0,.07-.08A.42.42,0,0,0,189.27,256.66Z"/><path class="cls-3" d="M194.33,240.49h-.05v0l-.07-.06-.12-.06H194l-.14.06a.46.46,0,0,0-.19.23h0a.22.22,0,0,0,0,.25v0l0,.1a.48.48,0,0,0,.15.11l.11,0,.08,0h.1l.09,0,.09,0a.67.67,0,0,0,.15-.49Z"/><path class="cls-3" d="M196.14,247.55a.22.22,0,0,0-.09-.12.18.18,0,0,0-.08-.11.3.3,0,0,0-.13-.09.7.7,0,0,0-.49,0l-.07,0-.05.05,0,.07a.63.63,0,0,0,.41.75l.06,0h.07l.07,0a.31.31,0,0,0,.11-.09.25.25,0,0,0,.16-.11v-.11A.33.33,0,0,0,196.14,247.55Z"/><path class="cls-3" d="M197.33,232.84l.09.06.14,0h.1l.09,0,.07-.08.07-.15v-.13l0-.1-.09-.09-.12-.06h-.15l-.07,0a.43.43,0,0,0-.21.28v.1l0,.09Z"/><path class="cls-3" d="M189.36,247.12l0-.11h0a.3.3,0,0,0-.07-.21.31.31,0,0,0-.16-.12l-.12,0-.06,0h-.12l-.09,0-.08.06a.42.42,0,0,0-.06.32l0,.13.09.09,0,0a.39.39,0,0,0,.19.15l.07,0h.12l.09-.05.08-.1,0,0Z"/><path class="cls-3" d="M204.94,237.34a.28.28,0,0,0,.12.19l.15,0h0a.27.27,0,0,0,.24-.06.23.23,0,0,0,.1-.14.37.37,0,0,0-.2-.48.46.46,0,0,0-.21,0h-.07l-.06,0,0,0A.36.36,0,0,0,204.94,237.34Z"/><path class="cls-3" d="M206.66,227.47l0-.07-.06-.08a1.32,1.32,0,0,0-.2-.12.44.44,0,0,0-.37,0,.43.43,0,0,0-.23.3v.13l.06.1.06.07,0,.05.08.08.1,0h.16a.46.46,0,0,0,.4-.39Z"/><path class="cls-3" d="M206.72,233.94v0l0,.09.06.09.09.06a.46.46,0,0,0,.49-.09.27.27,0,0,0,0-.33h0l0-.07-.1-.1a.49.49,0,0,0-.4,0l-.07.06-.05.06,0,.08A.22.22,0,0,0,206.72,233.94Z"/><path class="cls-3" d="M183.45,256.77l0-.08,0-.06a.35.35,0,0,0-.14-.12l-.11,0h-.07a.34.34,0,0,0-.26.23.42.42,0,0,0,.09.41l.12.06h.13l.12-.06a.38.38,0,0,0,.19-.25Z"/><path class="cls-3" d="M199,252.41l-.05,0,0,0c-.08,0-.19,0-.34.13s-.09.31-.08.35l0,0,.05.05.05,0a.27.27,0,0,0,.32-.1.53.53,0,0,0,.1-.38Z"/><path class="cls-3" d="M193.43,253l.17,0v-.11l0-.1-.08-.08-.19-.08-.07,0h-.07l-.08,0a.31.31,0,0,0-.13.39.26.26,0,0,0,.13.34.25.25,0,0,0,.12,0h0l.11,0,.13,0a.39.39,0,0,0,.15-.32Z"/><path class="cls-3" d="M199,254.16h0a.43.43,0,0,0-.17-.12l-.08,0h-.09l-.1,0-.06,0a.7.7,0,0,0-.28.43v.08l0,.1,0,.11,0,.06.05,0,.11,0,0,.06a.45.45,0,0,0,.44-.05l.09,0,.07-.05.06-.08A.46.46,0,0,0,199,254.16Z"/><path class="cls-3" d="M192.21,260.63a.25.25,0,0,0-.31.09.34.34,0,0,0,0,.44l.17,0,.13,0,.12-.13C192.42,260.76,192.28,260.66,192.21,260.63Z"/><path class="cls-3" d="M195.63,258.81l-.09-.13a.52.52,0,0,0-.18-.13.27.27,0,0,0-.32,0l0,.08a.3.3,0,0,0-.11.26l0,.07.06.1a.37.37,0,0,0,.18.17h.16l.1,0,.07-.08a.39.39,0,0,0,.11-.09l0-.13Z"/><path class="cls-3" d="M201.74,240.9l.07.06h.05a.29.29,0,0,0,.13.1.53.53,0,0,0,.16,0l.09,0,.08,0,.09-.09a.37.37,0,0,0,.15-.21.2.2,0,0,0,0-.17.26.26,0,0,0-.14-.28h-.1a.21.21,0,0,0-.1-.06.3.3,0,0,0-.32,0l0,.05,0,.06,0,.06a.53.53,0,0,0-.1.41Z"/><path class="cls-3" d="M194.67,258.18l0-.13-.07-.08-.08-.05a.76.76,0,0,0-.15-.12h-.11l-.09,0-.13.08a.4.4,0,0,0-.15.29v.09l0,.07.09.11a.61.61,0,0,0,.17.14.36.36,0,0,0,.36,0l.07-.14v0h0A.29.29,0,0,0,194.67,258.18Z"/><rect class="cls-2" x="185.62" y="211.72" width="52.94" height="50.45" transform="translate(-55.14 409.33) rotate(-80.99)"/><path class="cls-3" d="M196.86,242.55l-.05,0-.05,0a.31.31,0,0,0,.05.38l0,0,.09.08a.33.33,0,0,0,.29,0,.32.32,0,0,0,.17-.24.28.28,0,0,0-.11-.28l-.14,0a.25.25,0,0,0-.2,0Z"/><path class="cls-3" d="M206.28,239.4l0-.06,0-.06a.5.5,0,0,0-.22-.47l-.15,0-.12.05-.1.15,0,.13,0,0,0,.09,0,.13.12.13a.5.5,0,0,0,.39,0Z"/><path class="cls-3" d="M212.8,240.05v.1l0,.12.07.09.11.06a.62.62,0,0,0,.34-.09l.12-.1,0-.12,0-.15a.34.34,0,0,0-.45-.1H213l-.1.06Z"/><path class="cls-3" d="M207.39,260.24a.32.32,0,0,0,.19.33l.15,0,.13,0,.11-.12v0a.28.28,0,0,0-.14-.3l-.15-.07h-.14Z"/><path class="cls-3" d="M219,228.84a.35.35,0,0,0-.25-.09l-.11.05-.07.08,0,.06-.05.1v.1l0,.11a.27.27,0,0,0,.33.11H219l.1-.07.06-.13A.33.33,0,0,0,219,228.84Z"/><path class="cls-3" d="M214.78,240.15v0a.58.58,0,0,0-.24-.38l-.15,0-.12,0-.12.11-.1,0-.07,0,0,.08,0,.1v0a.31.31,0,0,0-.09.19h0l0,.06a.38.38,0,0,0-.07.17.25.25,0,0,0,.09.25l.11,0a.33.33,0,0,0,.26.09l.1,0,.06-.08,0-.1s0-.1,0-.15h.07l.11-.09v-.06a.39.39,0,0,0,.15-.2Z"/><path class="cls-3" d="M200.81,251.33l0,.09a.31.31,0,0,0,.13.31h0v0a.41.41,0,0,0,.28.12l.1,0,.08-.05.06-.1v0a.29.29,0,0,0-.06-.24l-.08-.06a.29.29,0,0,0-.32-.16l-.1,0Z"/><path class="cls-3" d="M228.09,255.88l0,.05V256a.27.27,0,0,0,.17.32l.12.05h.11l.11-.05a.4.4,0,0,0,.1-.18.33.33,0,0,0-.14-.32.32.32,0,0,0-.35,0Z"/><path class="cls-3" d="M193.64,251.39a.22.22,0,0,0-.07.09v.1l0,.13a.32.32,0,0,0,.36.22l.09,0,.07-.07.06-.12a.52.52,0,0,0,.07-.18.46.46,0,0,0,0-.2l-.18-.09h0v0a.31.31,0,0,0-.26,0A.24.24,0,0,0,193.64,251.39Z"/><path class="cls-3" d="M220.31,257l0,.13.06.09h0a.34.34,0,0,0,.37.24l.13-.09.07-.17v-.05a.32.32,0,0,0,0-.17.4.4,0,0,0,0-.15l-.07-.06-.07,0h-.09A.4.4,0,0,0,220.31,257Z"/><path class="cls-3" d="M223.84,258.32a.27.27,0,0,0-.16.07.35.35,0,0,0-.08.13.25.25,0,0,0-.12.17v.07l0,.08,0,.06.07.07a.31.31,0,0,0,.22.16.41.41,0,0,0,.34-.06.49.49,0,0,0,.2-.32.43.43,0,0,0-.31-.49h-.12Z"/><path class="cls-3" d="M213.05,256.15v0l0-.11-.07-.08-.09-.05h-.07l-.11,0-.1.07a.27.27,0,0,0-.09.11l0,.16,0,.07h0a.26.26,0,0,0,.25.16.24.24,0,0,0,.22-.18v0Z"/><path class="cls-3" d="M205.58,246h0a.51.51,0,0,0,0-.18.42.42,0,0,0-.1-.14h0a.28.28,0,0,0-.17-.3h-.13l-.06,0a.25.25,0,0,0-.13,0l0,0-.13,0-.13.14.15.05h-.18l-.07.17,0,.16a.39.39,0,0,0,.12.27l0,0,.12.05a.42.42,0,0,0,.18.06l.17,0,.13,0a.26.26,0,0,0,.25-.21A.23.23,0,0,0,205.58,246Z"/><path class="cls-3" d="M202,255.13a.54.54,0,0,0,0-.18l0-.09,0-.06-.07-.06a.37.37,0,0,0-.46.14l0,.1,0,.1,0,.1a.3.3,0,0,0,.12.11l0,0,.13.08A.33.33,0,0,0,202,255.13Z"/><path class="cls-3" d="M213.69,245.24l0,0a.26.26,0,0,0-.15.12l0,0-.07,0-.05.05,0,.11a.4.4,0,0,0,0,.2v.12l.05.1a.57.57,0,0,0,.78,0l.06-.17v0a.25.25,0,0,0,0-.1v-.11a.27.27,0,0,0-.1-.13l-.08-.12a.37.37,0,0,0-.28-.12Z"/><path class="cls-3" d="M187.56,242.07l-.06.06a.34.34,0,0,0-.24.23l0,.14,0,.1,0,.08.07,0-.06.05.06.08.12.07-.08,0a.37.37,0,0,0,.38.17h.05a.81.81,0,0,0,.34-.29l0-.11v-.08s0,0,0-.06l0-.13-.06-.08-.11-.07a.19.19,0,0,1-.12,0l-.16-.07Z"/><path class="cls-3" d="M235.08,250.35l-.08.07a.53.53,0,0,0-.09.2.25.25,0,0,0,0,.19.39.39,0,0,0,.23.13l.12,0,.08-.07.07-.1,0-.16,0-.12-.06-.09-.14-.07-.08,0Z"/><path class="cls-3" d="M222.23,248.45l0,.13.06.08.11.06h0a.4.4,0,0,0,.33.11l.08,0a.28.28,0,0,0,.14-.21.29.29,0,0,0-.06-.23h0l0-.11-.16-.11A.4.4,0,0,0,222.23,248.45Z"/><path class="cls-3" d="M226,244.78l0,.12V245l.07.1a.46.46,0,0,0,.5.09l0,0h0a.39.39,0,0,0,.21-.26v0l-.05-.12-.06-.06a.29.29,0,0,0-.21-.17h-.08A.67.67,0,0,0,226,244.78Z"/><path class="cls-3" d="M216.42,245.79l-.06.05v.06a.37.37,0,0,0-.07.14v.11l0,.07,0,.05.08,0a.4.4,0,0,0,.35,0,.25.25,0,0,0,.17-.19v-.08l0-.07,0-.09c0-.07-.1-.21-.25-.24a.28.28,0,0,0-.26.07Z"/><path class="cls-3" d="M218.34,253l-.06.07-.05.08,0,.1a.43.43,0,0,0,.1.35l.1,0a.38.38,0,0,0,.44-.12l0-.11v-.1l0-.08a.35.35,0,0,0-.41-.28Z"/><path class="cls-3" d="M209.14,248.42l0,0a.23.23,0,0,0-.12.15v.14l0,.07.05.06v0l.07.1.11.07c.23,0,.33-.09.35-.22h0a.28.28,0,0,0,.08-.15v-.06l-.09-.15-.14-.07a.26.26,0,0,0-.25,0Z"/><path class="cls-3" d="M200.78,247.58a.28.28,0,0,0-.26-.13.26.26,0,0,0-.21.14v.14l.06.11.06,0-.07.05a.31.31,0,0,0,.24.19.29.29,0,0,0,.26-.11l0-.16,0-.12Z"/><path class="cls-3" d="M193.17,260.16l-.12.13,0,.16.05.15.1.09a.36.36,0,0,0,.24.09l.09,0,.07-.05.06-.08v-.05a.28.28,0,0,0,0-.16h0l0-.08-.07-.11-.13-.08v0l-.11,0Z"/><path class="cls-3" d="M220.3,263.1a.28.28,0,0,0-.18.22v.09l0,.08.07.09a.5.5,0,0,0,.16.18h.15l.11-.05.09-.11,0-.07c.06-.39-.15-.5-.29-.52l-.13,0Z"/><path class="cls-3" d="M209.17,210.63a.22.22,0,0,0,0-.08l0-.1-.05-.08-.08-.06a.32.32,0,0,0-.27,0,.35.35,0,0,0-.15.28v0l0,.09,0,.07.06.06a.33.33,0,0,0,.29,0A.3.3,0,0,0,209.17,210.63Z"/><path class="cls-3" d="M212.42,221.88l0,.1V222l0,.11.07.11a.26.26,0,0,0,.12.08l.15,0,.11-.08.06-.11a.32.32,0,0,0-.07-.26.32.32,0,0,0-.23-.09l-.1,0Z"/><path class="cls-3" d="M207.71,221.71a.44.44,0,0,0-.16.27.31.31,0,0,0,.25.38h0a.29.29,0,0,0,.31-.12l0-.09a.32.32,0,0,0,0-.14l0-.11-.1-.14-.1-.07h-.16Z"/><path class="cls-3" d="M219.41,221.29l0,.05,0,.06s0,0,0,.08a.39.39,0,0,0,.1.35.48.48,0,0,0,.41.11l.09-.05.06,0,.07-.12a.78.78,0,0,0,.08-.18v-.09l0-.08-.05-.07a.49.49,0,0,0-.56-.05Z"/><path class="cls-3" d="M215,220.41s0,.06,0,.09l0,.11.07.08.1.06.16,0,.1,0,.08,0,.08-.09a.77.77,0,0,0,.07-.2.39.39,0,0,0-.1-.32l-.09,0a.34.34,0,0,0-.31,0A.46.46,0,0,0,215,220.41Z"/><path class="cls-3" d="M236.34,224.54v.13l.07.14a.52.52,0,0,0,.13.12h.15l.11-.06.06-.07-.11-.12.11.11,0-.17,0-.13-.16-.1A.29.29,0,0,0,236.34,224.54Z"/><path class="cls-3" d="M228.6,227.87l0,.11,0,.09.09.07a.36.36,0,0,0,.3,0,.32.32,0,0,0,.15-.24v-.07l0-.11-.07-.07-.1-.06A.36.36,0,0,0,228.6,227.87Z"/><path class="cls-3" d="M200,222.13l0,.09-.06-.07-.08.06-.07.12a.42.42,0,0,0,.3.42h.12l.09,0,.08-.08,0-.08a.23.23,0,0,0-.05-.21.26.26,0,0,0-.17-.24h-.12Z"/><path class="cls-3" d="M220.51,223.81l-.06.06,0,.09v.1l0,.12.07.09.14.06a.28.28,0,0,0,.34-.16v-.11l0-.1a.28.28,0,0,0-.35-.2Z"/><path class="cls-3" d="M232.45,243.67a.34.34,0,0,0,.06.24l.09.07.05,0c.12,0,.33,0,.4-.32l0-.07,0,0,0-.09-.08-.07a.35.35,0,0,0-.3,0A.37.37,0,0,0,232.45,243.67Z"/><path class="cls-3" d="M201.41,218a1,1,0,0,0,0,.17l0,.09.06.06.09,0,.1,0,.11,0,.08-.06.08-.13v-.07a.14.14,0,0,0,0-.06v-.07l0-.09-.06-.07-.08-.06a.4.4,0,0,0-.29,0A.33.33,0,0,0,201.41,218Z"/><path class="cls-3" d="M207.37,215.56l0,.15.06.06a.28.28,0,0,0,.22.18h.09l.07,0,.06,0a.34.34,0,0,0,.07-.15.3.3,0,0,0-.24-.34A.29.29,0,0,0,207.37,215.56Z"/><path class="cls-3" d="M216.05,211.54l-.12-.1-.16,0-.12,0-.09.06-.07.14v0l0,.06,0,.05a.31.31,0,0,0,.26.14.34.34,0,0,0,.29-.14l0-.15Z"/><path class="cls-3" d="M232.73,220.14h0a.27.27,0,0,0-.26.18h0l0,0,0,.06a.48.48,0,0,0,.08.35.51.51,0,0,0,.37.16l.12,0,.08-.07a.3.3,0,0,0,.14-.2.48.48,0,0,0,0-.12h0s0,0,0,0a.28.28,0,0,0-.18-.29h-.1Z"/><path class="cls-3" d="M230.6,213.15a1.25,1.25,0,0,0-.26.36.59.59,0,0,0,.14.43l.05.06.07,0a.52.52,0,0,0,.43,0,.47.47,0,0,0,.21-.35s0-.08,0-.12l0-.09-.05-.07-.06-.06-.06,0A.36.36,0,0,0,230.6,213.15Z"/><path class="cls-3" d="M229.8,232a.43.43,0,0,0,0-.27l0-.05-.06,0-.07,0c-.35,0-.43.16-.44.26V232l.06.12.08.07.09,0a.44.44,0,0,0,.17.06l.1,0,.09-.05.06-.09A.24.24,0,0,0,229.8,232Z"/><path class="cls-3" d="M227.33,221.21l0,.06,0,.07v0h0a.28.28,0,0,0,.06.26.2.2,0,0,0,.08.11l.07,0h.09l.06,0h0a.3.3,0,0,0,.33-.16l0-.05a.43.43,0,0,0-.17-.43.39.39,0,0,0-.44,0Z"/><path class="cls-3" d="M219.92,216.05a.27.27,0,0,0-.23.18.35.35,0,0,0-.08.15.26.26,0,0,0,.06.21l.05,0,.05,0,.1,0a.71.71,0,0,0,.19.08l.11,0,.09,0,.06-.05.06-.06,0-.09a.48.48,0,0,0-.31-.53H220Z"/><path class="cls-3" d="M196.76,214.47h0a.26.26,0,0,0,.07-.15h0v0l0-.06a.26.26,0,0,0-.13-.25l-.05,0h-.41l-.11.06-.06.09,0,.17a.39.39,0,0,0,.43.41A.25.25,0,0,0,196.76,214.47Z"/><path class="cls-3" d="M224.49,218.74l.15.19h.06l.13,0h.08l.18-.13a.28.28,0,0,0-.24-.34.37.37,0,0,0-.23.05A.36.36,0,0,0,224.49,218.74Z"/><path class="cls-3" d="M224.79,236.88l-.11-.09h0a.4.4,0,0,0-.25-.09.21.21,0,0,0-.18.07l-.12.06-.07.12a.23.23,0,0,0,0,.18h0l0,.07h0v0l0,.1.09.07a.37.37,0,0,0,.35,0,.44.44,0,0,0,.22-.3A.29.29,0,0,0,224.79,236.88Z"/><path class="cls-3" d="M211.77,233.89l0,.05-.05,0-.06,0,0,.06,0,.08v.07h0l0,.11,0,.12a.28.28,0,0,0,.15.12l0,.05.22,0a.3.3,0,0,0,.24-.09h0a.26.26,0,0,0,.15-.2.25.25,0,0,0-.09-.23l0,0-.07-.07-.06-.07,0,0a.28.28,0,0,0-.21-.08Z"/><path class="cls-3" d="M220,235.3h0l0,0-.08.07,0,.09a.3.3,0,0,0-.14.21.27.27,0,0,0,0,.2h0l.07.13,0,0a.36.36,0,0,0,.15.15h.13l.05,0,.12,0h.11l.08,0,.12-.1a.72.72,0,0,0,.15-.35v-.07l0-.09-.05-.07-.07-.07-.06,0,0-.09h0v0l-.06-.07-.09-.05A.37.37,0,0,0,220,235.3Z"/><path class="cls-3" d="M232.87,238l-.09.08a.19.19,0,0,0,0,.1.31.31,0,0,0,.23.37.29.29,0,0,0,.35-.21v-.11l0-.09-.09-.1-.1-.06H233Z"/><path class="cls-3" d="M203.62,234.7v.06h0a.69.69,0,0,1,0,.08l0,.13,0,.11.1.13a.53.53,0,0,0,.25.11h0a.21.21,0,0,0,.23-.08h0l.09-.06a.77.77,0,0,0,.07-.17v-.29l0-.08-.08-.07a.59.59,0,0,0-.49,0Z"/><path class="cls-3" d="M209.75,231.22a.22.22,0,0,0-.09.1.31.31,0,0,0-.09.11.33.33,0,0,0,0,.14.69.69,0,0,0,.1.47l.06.05.06,0,.07,0a.63.63,0,0,0,.6-.57v-.13l0-.06a.27.27,0,0,0-.12-.09.26.26,0,0,0-.14-.11H210A.31.31,0,0,0,209.75,231.22Z"/><path class="cls-3" d="M195.72,233.86l0-.1v-.13l-.05-.1-.06-.07-.09-.05-.16,0-.12,0-.09.07-.06.1,0,.13v.08l0,.06,0,.06a.41.41,0,0,0,.32.13l.09,0,.07,0Z"/><path class="cls-3" d="M211.08,237.65l-.1.06h0a.29.29,0,0,0-.19.11.44.44,0,0,0-.07.19.41.41,0,0,0,0,.12v.07l0,.1,0,.08.08.06a.42.42,0,0,0,.31,0l.12-.08.06-.11v-.05a.4.4,0,0,0,.1-.21v-.08l0-.1-.06-.08-.12,0v0Z"/><path class="cls-3" d="M234.15,232a.34.34,0,0,0-.18.08l-.07.09a.27.27,0,0,0-.1.16.38.38,0,0,0,0,.15l0,.07,0,0a.43.43,0,0,0,.34.21l.09,0,.07,0,.06-.07a.93.93,0,0,0,.1-.25.45.45,0,0,0-.17-.41l-.14,0-.07,0Z"/><path class="cls-3" d="M198,225.61a.24.24,0,0,0,.15-.16l0-.14,0,0a.3.3,0,0,0-.11-.21.24.24,0,0,0-.16,0,.36.36,0,0,0-.4.31.69.69,0,0,0,0,.2l0,.06,0,0,.05,0A.35.35,0,0,0,198,225.61Z"/><path class="cls-3" d="M188.33,226.53l-.06.05-.06.07a1.41,1.41,0,0,0-.06.22.4.4,0,0,0,.08.34.42.42,0,0,0,.34.15l.11-.05.08-.07.05-.08,0,0,.06-.1v-.1l0-.15a.42.42,0,0,0-.46-.27Z"/><path class="cls-3" d="M194.35,224.82h0l.08,0,.07-.07a.19.19,0,0,0,0-.1.41.41,0,0,0-.2-.43.26.26,0,0,0-.31.06v0l0,0-.08.11a.54.54,0,0,0,.09.39l.07,0,.07,0h.09A.34.34,0,0,0,194.35,224.82Z"/><path class="cls-3" d="M221.6,240.7l-.07,0-.05.06a.32.32,0,0,0-.08.16v.11l0,.06a.31.31,0,0,0,.28.19.41.41,0,0,0,.36-.19l0-.13,0-.11-.09-.11a.39.39,0,0,0-.28-.11Z"/><path class="cls-3" d="M213.56,227.3l0,.06,0,.06c0,.08,0,.19.2.29s.32,0,.35,0l0,0,0-.06,0-.06a.25.25,0,0,0-.17-.27.47.47,0,0,0-.38,0Z"/><path class="cls-3" d="M215.51,232.35l-.09-.14-.11,0-.07.07-.06.09,0,.2v.07l0,.07,0,.06a.32.32,0,0,0,.41,0,.25.25,0,0,0,.28-.21.25.25,0,0,0,0-.12v-.13l-.07-.11a.38.38,0,0,0-.34-.06Z"/><path class="cls-3" d="M215.18,226.82h0a.36.36,0,0,0-.07.19v.17l0,.09,0,0a.6.6,0,0,0,.46.14l.08,0,.07-.07.1-.06,0-.06,0-.06a.41.41,0,0,0,0-.11l0,0a.4.4,0,0,0-.16-.39l0-.08-.06-.06-.09,0A.44.44,0,0,0,215.18,226.82Z"/><path class="cls-3" d="M223,231.53a.26.26,0,0,0,.16.28.33.33,0,0,0,.39-.17v-.16l-.07-.12-.15-.07C223,231.31,223,231.47,223,231.53Z"/><path class="cls-3" d="M220.39,228.82l-.11.11a.77.77,0,0,0-.07.2.27.27,0,0,0,.12.29h.09a.32.32,0,0,0,.27,0l.05,0,.08-.09a.36.36,0,0,0,.11-.21h0l0-.13-.07-.09-.09,0a.31.31,0,0,0-.12-.08h-.12Z"/><path class="cls-3" d="M202.11,227.69l0-.08v-.05a.37.37,0,0,0,.06-.14.92.92,0,0,0,0-.16l0-.09-.07-.06-.1-.06a.41.41,0,0,0-.23-.09.25.25,0,0,0-.16.06.23.23,0,0,0-.22.2v.1a.19.19,0,0,0,0,.1.32.32,0,0,0,.09.3l.06,0,.06,0h.07a.47.47,0,0,0,.4,0Z"/><path class="cls-3" d="M220,229.87l-.11.06-.06.09,0,.09a.38.38,0,0,0-.08.16l0,.11,0,.08.11.1a.37.37,0,0,0,.31.06l.08,0,.06,0,.08-.12a.47.47,0,0,0,.08-.19.36.36,0,0,0-.13-.33l-.15,0h-.05A.35.35,0,0,0,220,229.87Z"/><rect class="cls-2" x="202.67" y="194.13" width="49.1" height="46.79" transform="translate(-72.1 314.26) rotate(-61.66)"/><path class="cls-3" d="M242.27,217.3l0,0,.06,0,.08-.09a.27.27,0,0,0,0-.26v0l0-.11a.36.36,0,0,0-.27-.06.33.33,0,0,0-.22.16.28.28,0,0,0,0,.28l.12.07a.28.28,0,0,0,.16.1Z"/><path class="cls-3" d="M233.05,217.17l0,0,0,.05a.47.47,0,0,0,.06.48l.12.06h.12l.14-.1.05-.11,0,0,.07-.07,0-.12-.07-.15a.41.41,0,0,0-.35-.08Z"/><path class="cls-3" d="M227.55,214.59l0-.08v-.12l0-.1-.08-.08a.52.52,0,0,0-.32,0l-.14,0-.08.09,0,.14a.3.3,0,0,0,.36.22h.07l.1,0Z"/><path class="cls-3" d="M238.48,198.59a.29.29,0,0,0-.06-.35l-.12-.08h-.12l-.14.08h0a.26.26,0,0,0,0,.31l.11.11.13,0Z"/><path class="cls-3" d="M218.64,222.49a.34.34,0,0,0,.2.15H219l.09,0,0,0,.08-.07,0-.09v-.11a.25.25,0,0,0-.26-.19h0l-.08,0-.11,0-.09.09A.34.34,0,0,0,218.64,222.49Z"/><path class="cls-3" d="M225.85,213.9v0a.47.47,0,0,0,.09.41l.11.08h.12l.14-.06h.09l.08,0,.08,0,0-.08v0a.25.25,0,0,0,.14-.13h0V214a.36.36,0,0,0,.11-.13.23.23,0,0,0,0-.25l-.09-.06a.3.3,0,0,0-.2-.15h-.1l-.08.05-.07.07a.69.69,0,0,1,0,.13h0l-.06,0-.13,0,0,0a.39.39,0,0,0-.19.13Z"/><path class="cls-3" d="M241.51,208.4l.06-.06a.3.3,0,0,0,0-.32h0a.31.31,0,0,0-.21-.19h-.1l-.08,0-.08.07h0a.27.27,0,0,0,0,.23.18.18,0,0,0,.05.07.27.27,0,0,0,.23.25l.1,0Z"/><path class="cls-3" d="M219,196.05l0,0,0,0a.27.27,0,0,0-.06-.33l-.08-.08-.1,0h-.11a.35.35,0,0,0-.14.13.3.3,0,0,0,.33.44Z"/><path class="cls-3" d="M247.8,210.56a.28.28,0,0,0,.09-.07l0-.08v-.13a.29.29,0,0,0-.24-.3h-.1l-.08,0-.09.08a.85.85,0,0,0-.11.14.41.41,0,0,0-.05.18l.13.14h0v0a.27.27,0,0,0,.23.06A.25.25,0,0,0,247.8,210.56Z"/><path class="cls-3" d="M226.19,197.43l0-.12,0-.1h0a.31.31,0,0,0-.25-.32l-.14,0-.11.12,0,0a.32.32,0,0,0,0,.16.32.32,0,0,0,0,.14l0,.07.05.06.08,0A.39.39,0,0,0,226.19,197.43Z"/><path class="cls-3" d="M223.5,195.22a.34.34,0,0,0,.16,0,.21.21,0,0,0,.1-.08.25.25,0,0,0,.17-.12l0-.06v-.14l0-.08a.3.3,0,0,0-.15-.21.37.37,0,0,0-.31,0,.44.44,0,0,0-.28.22.42.42,0,0,0,.12.52l.11,0Z"/><path class="cls-3" d="M232.27,200.42v.14l0,.09.07.08,0,0h.11l.11,0a.19.19,0,0,0,.1-.07l0-.15,0-.07h0a.23.23,0,0,0-.42-.12v0Z"/><path class="cls-3" d="M235.69,211.6h0a.53.53,0,0,0,0,.16.27.27,0,0,0,0,.15h0a.26.26,0,0,0,.06.32l.12,0,.06,0H236l0,0,.12,0,.16-.09-.11-.08h0l.16,0,.11-.12,0-.15a.37.37,0,0,0,0-.27l0,0-.1-.08a.25.25,0,0,0-.14-.1l-.13-.09H236a.23.23,0,0,0-.28.11A.19.19,0,0,0,235.69,211.6Z"/><path class="cls-3" d="M241.64,204.72a.52.52,0,0,0-.06.15V205l0,.07.05.07a.34.34,0,0,0,.44,0l.08-.07,0-.08v-.1a.23.23,0,0,0-.07-.13v-.05l-.08-.1A.31.31,0,0,0,241.64,204.72Z"/><path class="cls-3" d="M228.36,209.78h0a.21.21,0,0,0,.17-.06h0l.08,0,.06,0,.07-.08a.35.35,0,0,0,.05-.18h0l0-.1v-.1a.54.54,0,0,0-.69-.21l-.11.13v0l-.05.08v0l0,.07a.27.27,0,0,0,0,.15l0,.13a.33.33,0,0,0,.21.19Z"/><path class="cls-3" d="M250.26,220.57l.07,0a.32.32,0,0,0,.28-.13l.06-.11v-.18h-.07l.07,0,0-.09-.09-.09a.16.16,0,0,1,.06,0,.32.32,0,0,0-.27-.26h-.06a.8.8,0,0,0-.38.15l-.05.09,0,.08,0,0v.12l0,.1.08.09a.24.24,0,0,1,.09.07,1.14,1.14,0,0,0,.11.11Z"/><path class="cls-3" d="M211.21,198.74l.09,0a.39.39,0,0,0,.15-.14.25.25,0,0,0,0-.19.27.27,0,0,0-.17-.17l-.11,0-.09,0-.09.07-.07.14v.11l0,.1.1.1.07,0Z"/><path class="cls-3" d="M221.87,204.34v-.12l0-.09-.08-.09,0,0a.36.36,0,0,0-.25-.2h-.08a.26.26,0,0,0-.18.14.3.3,0,0,0,0,.22h0v.11l.1.15A.38.38,0,0,0,221.87,204.34Z"/><path class="cls-3" d="M217.43,206.39l.06-.09,0-.1,0-.11c-.15-.22-.3-.25-.4-.24l-.05.05h0a.33.33,0,0,0-.26.16v.15l0,.08a.25.25,0,0,0,.13.21l.07,0A.64.64,0,0,0,217.43,206.39Z"/><path class="cls-3" d="M226.14,208.46l.07,0,0-.05a.24.24,0,0,0,.1-.1l0-.1v-.07l0-.06-.06-.07a.39.39,0,0,0-.3-.14.27.27,0,0,0-.2.11l0,.07v.16a.38.38,0,0,0,.14.29.3.3,0,0,0,.26,0Z"/><path class="cls-3" d="M226.68,201.55l.08,0,.06-.06,0-.08a.35.35,0,0,0,0-.34l-.07-.07a.36.36,0,0,0-.43,0l-.06.08,0,.09v.09a.33.33,0,0,0,.27.37Z"/><path class="cls-3" d="M233.32,208.39l0,0a.24.24,0,0,0,.15-.09l0-.06v-.13l0-.07v0l0-.1-.08-.11a.27.27,0,0,0-.38.09h0a.2.2,0,0,0-.11.11l0,.05,0,.16.1.1a.22.22,0,0,0,.21.12Z"/><path class="cls-3" d="M240.38,211.7a.27.27,0,0,0,.19.19.23.23,0,0,0,.22-.06l.05-.13,0-.11h-.06l.07,0a.26.26,0,0,0-.41-.21l-.07.13v.12Z"/><path class="cls-3" d="M250.9,203l.14-.08.08-.13v-.14l-.07-.11a.29.29,0,0,0-.17-.16h-.09l-.08,0-.08.05,0,.05a.21.21,0,0,0,0,.14h0v.07l0,.12.09.11h0l.09.06Z"/><path class="cls-3" d="M228.06,192.12a.28.28,0,0,0,.23-.14v-.16l0-.1a.5.5,0,0,0-.09-.21l-.12,0h-.12l-.11.08,0,0c-.18.33,0,.48.08.54H228Z"/><path class="cls-3" d="M221.69,241.45l0,.07v.1l0,.08,0,.08a.31.31,0,0,0,.24.06c.09,0,.15-.07.22-.2h0v-.09l0-.08,0-.07a.33.33,0,0,0-.25-.1A.3.3,0,0,0,221.69,241.45Z"/><path class="cls-3" d="M222.3,230.61l.08-.07,0,0v-.11l0-.11a.42.42,0,0,0-.07-.11l-.15,0-.11,0-.09.08a.27.27,0,0,0,.15.4h.1Z"/><path class="cls-3" d="M226.38,232.21a.44.44,0,0,0,.21-.19.29.29,0,0,0-.09-.41h0a.27.27,0,0,0-.31,0l-.06.07a.54.54,0,0,0,0,.12l0,.11.05.15.06.09.07,0,.08,0Z"/><path class="cls-3" d="M216,229l.05,0,.05,0,0-.06a.37.37,0,0,0,0-.34.43.43,0,0,0-.33-.22h-.09l-.07,0-.09.08a.6.6,0,0,0-.13.14l0,.08v.08l0,.07a.44.44,0,0,0,.47.22Z"/><path class="cls-3" d="M219.56,231.1a.3.3,0,0,1,0-.08v-.11l0-.09-.07-.08-.14-.07-.09,0h-.08l-.1.06a.52.52,0,0,0-.12.16.31.31,0,0,0,0,.3l.06.07a.39.39,0,0,0,.29.07A.46.46,0,0,0,219.56,231.1Z"/><path class="cls-3" d="M202.19,220.94l0-.12,0-.13a.37.37,0,0,0-.08-.15l-.14,0-.11,0-.07,0,.06.13-.07-.13-.08.14v.13l.11.13A.27.27,0,0,0,202.19,220.94Z"/><path class="cls-3" d="M210,220.4l0-.1,0-.1,0-.08a.33.33,0,0,0-.27-.08.32.32,0,0,0-.21.16l0,.06v.11l0,.09.08.08A.33.33,0,0,0,210,220.4Z"/><path class="cls-3" d="M233.28,234.21v-.08l0,.08.09,0,.09-.09a.39.39,0,0,0-.13-.45l-.1,0h-.1l-.09,0,0,.07a.25.25,0,0,0,0,.19.23.23,0,0,0,.08.26l.1,0Z"/><path class="cls-3" d="M215.82,226.44l.07,0,.06-.06.05-.08v-.12l0-.1-.1-.09a.27.27,0,0,0-.35,0l0,.1v.1a.26.26,0,0,0,.25.27Z"/><path class="cls-3" d="M211.46,205.4a.34.34,0,0,0,0-.24l-.06-.08,0,0c-.1-.06-.28-.11-.45.16l0,.08,0,0v.09l0,.09a.29.29,0,0,0,.26.08A.36.36,0,0,0,211.46,205.4Z"/><path class="cls-3" d="M230.73,237.42a.33.33,0,0,0,.05-.15v-.09l0-.07-.06-.07-.08,0h-.1l-.09,0-.11.09a.14.14,0,0,0,0,.06.1.1,0,0,0,0,.05l0,.06v.09l0,.08.06.07a.29.29,0,0,0,.25.05A.25.25,0,0,0,230.73,237.42Z"/><path class="cls-3" d="M224.78,237.7l0-.14,0-.08a.29.29,0,0,0-.14-.22l-.08,0h-.07l-.07,0a.23.23,0,0,0-.11.11.29.29,0,0,0,.47.32Z"/><path class="cls-3" d="M216,238.55l.08.12.13.07h.12l.09,0,.1-.09,0-.06v-.1a.29.29,0,0,0-.19-.21.33.33,0,0,0-.29,0l-.07.13Z"/><path class="cls-3" d="M204,225.9h0a.27.27,0,0,0,.3-.07h0l0,0,0-.05a.44.44,0,0,0,0-.33.47.47,0,0,0-.28-.25h-.12l-.09,0a.2.2,0,0,0-.18.13.3.3,0,0,0,0,.1h0l0,0a.24.24,0,0,0,.07.31l.08,0Z"/><path class="cls-3" d="M203.72,232.67a.26.26,0,0,0,.16-.1.24.24,0,0,0,.17-.14.61.61,0,0,0,0-.42l0-.06,0-.06a.45.45,0,0,0-.39-.1.41.41,0,0,0-.29.24.3.3,0,0,0,0,.1v.09l0,.08,0,.07,0,.06A.33.33,0,0,0,203.72,232.67Z"/><path class="cls-3" d="M210.21,216.4a.37.37,0,0,0-.05.25l0,.06,0,0,.06.05c.29.15.42,0,.46-.09l0-.07v-.12l0-.09-.07-.06a.54.54,0,0,0-.13-.11h-.1l-.09,0-.08.06A.21.21,0,0,0,210.21,216.4Z"/><path class="cls-3" d="M209.05,226.62l0,0,0-.06h0a.29.29,0,0,0,0-.25.22.22,0,0,0,0-.13l0-.05-.07,0H209a.28.28,0,0,0-.34,0l0,.05a.38.38,0,0,0,0,.42.37.37,0,0,0,.39.11Z"/><path class="cls-3" d="M214,233.41a.21.21,0,0,0,.25-.09.25.25,0,0,0,.12-.11.23.23,0,0,0,0-.2l0,0,0,0-.07-.06a.36.36,0,0,0-.14-.13l-.1,0h-.09l-.07,0-.07,0-.06.07a.45.45,0,0,0,.1.56l.14,0Z"/><path class="cls-3" d="M233.73,241.91h0a.27.27,0,0,0-.1.11h0l0,0,0,0a.23.23,0,0,0,0,.26l0,0,.09,0,.12,0,.16,0,.11,0,.08,0,.07-.15a.38.38,0,0,0-.25-.49A.24.24,0,0,0,233.73,241.91Z"/><path class="cls-3" d="M210.77,229.65l-.06-.2-.05,0h0l-.11-.06h0l0,0-.2.06a.27.27,0,0,0,.11.37.24.24,0,0,0,.22,0A.26.26,0,0,0,210.77,229.65Z"/><path class="cls-3" d="M216.09,213.69l.06.11h0a.32.32,0,0,0,.18.16.21.21,0,0,0,.19,0l.11,0,.11-.07a.35.35,0,0,0,0-.17h0v-.07h0v-.13l-.06-.09a.42.42,0,0,0-.33-.08.46.46,0,0,0-.28.2A.27.27,0,0,0,216.09,213.69Z"/><path class="cls-3" d="M226.56,220.3l0,0h.05l.07,0,.05,0,0-.06s0,0,0-.06h0l.06-.08,0-.12a.26.26,0,0,0-.09-.15l0-.06-.17-.09a.28.28,0,0,0-.24,0h0a.23.23,0,0,0-.19.13.22.22,0,0,0,0,.22l0,.06,0,.08,0,.08v0a.22.22,0,0,0,.15.13Z"/><path class="cls-3" d="M219.78,216.54h.05l.1,0,.07-.07a.26.26,0,0,0,.18-.14.19.19,0,0,0,0-.18h0l0-.13,0,0a.48.48,0,0,0-.08-.18l-.12-.05h0l-.1-.07-.09,0h-.09l-.13,0a.68.68,0,0,0-.24.26l0,.06v.08l0,.08,0,.08.05,0a.2.2,0,0,0,0,.09h0v0l0,.08.06.07A.35.35,0,0,0,219.78,216.54Z"/><path class="cls-3" d="M209.36,210.21l.1,0,.07-.08a.31.31,0,0,0-.1-.4.28.28,0,0,0-.37.08l0,.09V210l.05.12.06.09.11.05Z"/><path class="cls-3" d="M233.94,222.09V222l0,0L234,222l.07-.11,0-.1-.05-.14a.55.55,0,0,0-.19-.18h0a.19.19,0,0,0-.22,0h0l-.09,0a.45.45,0,0,0-.12.12.23.23,0,0,0,0,.09.36.36,0,0,1,0,.07l0,.09V222l0,.08a.6.6,0,0,0,.43.17Z"/><path class="cls-3" d="M227.51,223.26a.24.24,0,0,0,.11-.06.41.41,0,0,0,.11-.07.44.44,0,0,0,.08-.11.64.64,0,0,0,.05-.44l0-.06-.05-.05-.05,0a.58.58,0,0,0-.7.32l0,.06v.12a.26.26,0,0,0,.07.11.22.22,0,0,0,.09.14l.09,0A.29.29,0,0,0,227.51,223.26Z"/><path class="cls-3" d="M240.6,225.25l-.06.08a.55.55,0,0,0,0,.12v.1l0,.08.07.07.13.07h.11l.1,0,.09-.07.06-.1v-.2a.39.39,0,0,0-.24-.21h-.09l-.08,0Z"/><path class="cls-3" d="M228.32,217.22l.1,0h0a.27.27,0,0,0,.2,0,.53.53,0,0,0,.12-.14.28.28,0,0,0,0-.11s0,0,0,0v-.1l0-.09,0-.08a.34.34,0,0,0-.28-.07l-.12,0-.09.07,0,.05a.42.42,0,0,0-.15.15l0,.07v.1l0,.09.08.08,0,0Z"/><path class="cls-3" d="M206.41,215.05a.31.31,0,0,0,.18,0,.16.16,0,0,0,.08-.06.18.18,0,0,0,.14-.11.18.18,0,0,0,0-.13l0-.07v0a.41.41,0,0,0-.24-.29h-.15l-.08,0a.74.74,0,0,0-.16.19.38.38,0,0,0,0,.41l.12.07h.06Z"/><path class="cls-3" d="M236.09,231.78a.27.27,0,0,0-.18.1l0,.13v0a.29.29,0,0,0,0,.22.19.19,0,0,0,.12.09.32.32,0,0,0,.44-.15.48.48,0,0,0,.06-.18V232l0-.06,0-.05A.32.32,0,0,0,236.09,231.78Z"/><path class="cls-3" d="M244.81,233.94l.07,0,.07,0a1.09,1.09,0,0,0,.13-.17.4.4,0,0,0,0-.33.39.39,0,0,0-.25-.23h-.11l-.09,0-.07.05-.05,0-.08.07,0,.09v.14a.4.4,0,0,0,.32.38Z"/><path class="cls-3" d="M239,233.59h-.12l-.08,0-.06.09a.39.39,0,0,0,.05.43.25.25,0,0,0,.29,0l0,0h.06l.1-.08a.5.5,0,0,0,0-.37l0-.06-.05,0-.07,0A.27.27,0,0,0,239,233.59Z"/><path class="cls-3" d="M220.05,211.33l.07,0,.06,0a.33.33,0,0,0,.12-.12.29.29,0,0,0,0-.1V211a.31.31,0,0,0-.19-.25.41.41,0,0,0-.38.05l-.06.11V211l0,.12a.39.39,0,0,0,.21.19Z"/><path class="cls-3" d="M223,225.52l.05,0,0,0c0-.06.06-.17-.09-.31s-.27-.1-.3-.09l-.06,0-.05,0,0,0a.23.23,0,0,0,.06.29s.19.15.34.11Z"/><path class="cls-3" d="M222.82,220.5l0,.15h.1l.09,0,.08-.06.09-.17v-.13l0-.06a.29.29,0,0,0-.35-.15.22.22,0,0,0-.3.09.27.27,0,0,0,0,.12h0l0,.1,0,.12a.33.33,0,0,0,.28.15Z"/><path class="cls-3" d="M221.41,225.44h0a.58.58,0,0,0,.12-.14l0-.07,0-.08v-.09l0-.06a.55.55,0,0,0-.36-.27h-.08a.2.2,0,0,0-.08,0l-.11,0,0,.05,0,0,0,.1,0,0a.38.38,0,0,0,0,.39l0,.09,0,.07.06,0A.41.41,0,0,0,221.41,225.44Z"/><path class="cls-3" d="M216.05,218.93a.24.24,0,0,0-.06-.29.32.32,0,0,0-.4,0l-.05.15,0,.12.11.11A.31.31,0,0,0,216.05,218.93Z"/><path class="cls-3" d="M217.46,222.1l.13-.07a.65.65,0,0,0,.12-.15.25.25,0,0,0,0-.29l-.08,0a.28.28,0,0,0-.22-.11h-.06l-.1.05a.42.42,0,0,0-.16.15h0v.13l0,.1.06.07.08.1.11,0Z"/><path class="cls-3" d="M233.11,228.69l-.06.06,0,0a.59.59,0,0,0-.09.11.57.57,0,0,0,0,.14v.09l0,.08.07.08a.43.43,0,0,0,.17.15.22.22,0,0,0,.16,0,.25.25,0,0,0,.26-.11l0-.09.06-.08a.31.31,0,0,0,0-.29l0-.05,0,0-.06,0a.46.46,0,0,0-.36-.11Z"/><path class="cls-3" d="M218.09,221.28l.11,0,.08-.06.05-.07a.44.44,0,0,0,.11-.12l0-.1v-.09l-.07-.11a.33.33,0,0,0-.24-.15h-.08l-.07,0-.11.08a.6.6,0,0,0-.13.14.31.31,0,0,0,0,.32l.12.07h.05v0A.26.26,0,0,0,218.09,221.28Z"/><rect class="cls-2" x="214.2" y="173.06" width="44.34" height="42.25" transform="translate(-46.11 76.77) rotate(-16.83)"/><path class="cls-3" d="M226.58,184.76l-.05,0-.05,0h-.11a.25.25,0,0,0-.16.17l0,0,0,.1a.32.32,0,0,0,.13.21.3.3,0,0,0,.24,0,.25.25,0,0,0,.17-.19l0-.12a.21.21,0,0,0,0-.16Z"/><path class="cls-3" d="M232.39,190.7h.11a.4.4,0,0,0,.27-.34l0-.12-.08-.07-.15,0-.11,0v0h-.08l-.09.07-.05.14a.41.41,0,0,0,.17.28Z"/><path class="cls-3" d="M234.28,195.86l-.08,0-.08.07,0,.09v.1a.46.46,0,0,0,.19.22l.12.06h.1l.11-.07a.27.27,0,0,0-.09-.37h0l0-.05-.08,0Z"/><path class="cls-3" d="M217.1,199.15a.26.26,0,0,0-.19.26l0,.12.07.09.14,0h0a.25.25,0,0,0,.18-.22v-.14l-.06-.1Z"/><path class="cls-3" d="M245,196.47a.26.26,0,0,0,0-.22l-.07-.07-.09,0h-.14l-.08,0-.08.07a.24.24,0,0,0,0,.28h0l0,.06.09.05h.12A.32.32,0,0,0,245,196.47Z"/><path class="cls-3" d="M234.93,197.38h0a.45.45,0,0,0,.2-.32l0-.13-.07-.08-.13-.05-.06-.06-.06,0-.08,0-.08,0h0a.25.25,0,0,0-.17,0h0l0,0a.3.3,0,0,0-.16,0,.19.19,0,0,0-.15.16V197a.29.29,0,0,0,0,.23l.07,0,.08,0h.09l.11-.05h0l0,.05.11.05h0a.3.3,0,0,0,.2,0Z"/><path class="cls-3" d="M221.4,190.94h-.07a.26.26,0,0,0-.2.21h0a.3.3,0,0,0,0,.26l.06.06.07,0h.11a.22.22,0,0,0,.15-.13.19.19,0,0,0,0-.08.25.25,0,0,0,0-.3l-.08-.06Z"/><path class="cls-3" d="M227.93,213.16h-.1a.26.26,0,0,0-.18.26v.1l0,.08.08.07a.25.25,0,0,0,.17,0,.26.26,0,0,0,.19-.22.28.28,0,0,0-.12-.27Z"/><path class="cls-3" d="M218.75,185.55l-.1,0-.08,0-.09.08a.26.26,0,0,0,0,.35l.07,0,.07,0h.11a.34.34,0,0,0,.17,0A.42.42,0,0,0,219,186v-.17l0,0h0a.22.22,0,0,0-.1-.19A.23.23,0,0,0,218.75,185.55Z"/><path class="cls-3" d="M224.23,207.72l-.09.06,0,.08h0a.28.28,0,0,0,0,.36l.12.06h.19a.36.36,0,0,0,.12-.08.25.25,0,0,0,.1-.08l0-.07V208l0-.07A.31.31,0,0,0,224.23,207.72Z"/><path class="cls-3" d="M224.54,210.84a.21.21,0,0,0-.11-.09.17.17,0,0,0-.12,0,.2.2,0,0,0-.18,0l0,0-.06.05,0,.05,0,.07a.3.3,0,0,0,0,.23.33.33,0,0,0,.17.23.38.38,0,0,0,.31,0,.37.37,0,0,0,.26-.41l0-.09Z"/><path class="cls-3" d="M222.24,201.92h0l.07-.07,0-.07v-.15l-.06-.07-.09-.06a.42.42,0,0,0-.11,0l-.11.08,0,.06h0a.2.2,0,0,0,0,.25.23.23,0,0,0,.22.1l0,0Z"/><path class="cls-3" d="M227.17,192.59h0a.33.33,0,0,0,.13-.07.19.19,0,0,0,.06-.12h0a.23.23,0,0,0,.17-.24l-.06-.09,0,0-.07-.08v0l-.07-.09-.15,0,0,.13h0l-.08-.14h-.15l-.11.09a.32.32,0,0,0-.16.18v.17a.22.22,0,0,0,0,.15l0,.14.08.08a.2.2,0,0,0,.25.11A.19.19,0,0,0,227.17,192.59Z"/><path class="cls-3" d="M219,193.21a.42.42,0,0,0,.14-.06l0-.05,0-.06,0-.08a.29.29,0,0,0-.27-.29h-.09l-.08,0-.08.05a.35.35,0,0,0,0,.13l0,0V193A.27.27,0,0,0,219,193.21Z"/><path class="cls-3" d="M230.7,198.42l0,0a.21.21,0,0,0-.15-.07l0,0-.06,0h-.16a.31.31,0,0,0-.14.09h0l-.07,0-.06.08a.48.48,0,0,0,.31.57h.15l0,0h.1l.06,0a.15.15,0,0,0,.06-.11l.07-.11a.35.35,0,0,0,0-.26Z"/><path class="cls-3" d="M223.54,177.57l-.06,0a.26.26,0,0,0-.26-.1l-.11,0-.07,0,0,.07.05,0-.06,0,0,.08v0a.32.32,0,0,0,0,.35l0,0a.61.61,0,0,0,.34.15l.09,0,.06,0h.05l.08-.07,0-.08v-.11a.28.28,0,0,1,0-.1.66.66,0,0,0,0-.14Z"/><path class="cls-3" d="M234.66,216.41l-.09,0a.37.37,0,0,0-.18,0,.21.21,0,0,0-.13.11.28.28,0,0,0,0,.22l.06.07.08,0h.1l.13-.05.08-.06,0-.08v-.13l0-.06Z"/><path class="cls-3" d="M231.39,206l-.08.07,0,.08v.11a.1.1,0,0,1,0,0,.36.36,0,0,0,0,.29l0,.05a.26.26,0,0,0,.21,0,.33.33,0,0,0,.15-.13v0l.07-.06,0-.16A.35.35,0,0,0,231.39,206Z"/><path class="cls-3" d="M235.55,207.55l-.11,0-.07.05-.05.09c0,.24,0,.35.11.41h0a.32.32,0,0,0,.27.06h0l.08-.08,0-.07a.25.25,0,0,0,.06-.22l0-.06A.56.56,0,0,0,235.55,207.55Z"/><path class="cls-3" d="M231.28,200.68l-.06,0h-.17l-.09.05,0,.05,0,0v.08a.34.34,0,0,0,.1.28.26.26,0,0,0,.21.06l.06,0,.05,0,.05-.06a.33.33,0,0,0,.1-.28.29.29,0,0,0-.16-.17Z"/><path class="cls-3" d="M226.54,204.76l-.08,0h-.08l-.07,0a.34.34,0,0,0-.24.2v.09c.05.21.16.27.25.29h.1l.07-.05.06-.05a.31.31,0,0,0,.06-.41Z"/><path class="cls-3" d="M226.64,196.15h0a.21.21,0,0,0-.16,0l-.06,0,0,0,0,.05s0,0,0,.06l0,0-.05.08,0,.12a.24.24,0,0,0,.3.18h0a.33.33,0,0,0,.14,0l0,0,.08-.12v-.13a.22.22,0,0,0-.05-.22Z"/><path class="cls-3" d="M224.22,189.54a.24.24,0,0,0,0-.24.23.23,0,0,0-.19-.1l-.11.05-.06.08,0,0,0,0a.24.24,0,0,0-.06.25.24.24,0,0,0,.18.15l.13,0,.07-.07Z"/><path class="cls-3" d="M212,188.4l-.14,0-.13,0-.09.09,0,.11a.25.25,0,0,0,0,.21l.06.06.06,0h.13a.23.23,0,0,0,.11-.07h0l.05,0,.06-.09v-.13h0l0-.1Z"/><path class="cls-3" d="M219.65,209.92a.24.24,0,0,0-.23,0l-.07,0,0,.06,0,.08a.5.5,0,0,0-.07.19l.05.11.08.07.12,0h.06c.31-.1.31-.3.28-.4l-.07-.09Z"/><path class="cls-3" d="M255.13,182.38l.07,0,.06-.06,0-.07,0-.08a.31.31,0,0,0-.12-.2.34.34,0,0,0-.27,0h0l-.06.05,0,.06,0,.07a.26.26,0,0,0,.1.22A.24.24,0,0,0,255.13,182.38Z"/><path class="cls-3" d="M247.84,188.94h-.09l-.06,0-.07.06-.05.09a.17.17,0,0,0,0,.12l.07.1.1.05h.1a.26.26,0,0,0,.17-.15.23.23,0,0,0,0-.2l-.07-.06Z"/><path class="cls-3" d="M246.25,185.32a.35.35,0,0,0-.26,0,.26.26,0,0,0-.2.33v0c0,.09.08.16.21.19h.08l.1-.05.08-.05.06-.13a.3.3,0,0,0,0-.1l0-.07,0-.06Z"/><path class="cls-3" d="M250.83,194l-.05,0h-.12a.32.32,0,0,0-.23.21.39.39,0,0,0,.07.35l.06,0,.07,0h.11a.52.52,0,0,0,.17,0l.06,0,.05,0,0-.06a.41.41,0,0,0-.16-.44Z"/><path class="cls-3" d="M249.91,190.37l-.08,0-.07.06,0,.08v.1l0,.13.05.07.06,0,.1,0a.56.56,0,0,0,.17,0,.31.31,0,0,0,.2-.19v-.09a.31.31,0,0,0-.14-.22A.4.4,0,0,0,249.91,190.37Z"/><path class="cls-3" d="M254.56,207.93l-.09,0-.08.1a.39.39,0,0,0,0,.15l.06.11.09.06h.07l0-.12,0,.13.13,0,.08-.09,0-.15C254.75,208,254.63,207.93,254.56,207.93Z"/><path class="cls-3" d="M249.23,203.32l-.08.05,0,.07,0,.1a.32.32,0,0,0,.13.21.24.24,0,0,0,.23,0l.06,0,.07-.07,0-.08v-.09A.29.29,0,0,0,249.23,203.32Z"/><path class="cls-3" d="M243.1,179.64l0,.06,0-.07-.07,0h-.12a.35.35,0,0,0-.2.38l0,.08.06.06.1,0H243a.24.24,0,0,0,.14-.12.22.22,0,0,0,.11-.21l0-.09Z"/><path class="cls-3" d="M249.34,195.74l-.07,0h-.08l-.08,0-.08.07,0,.08V196a.24.24,0,0,0,.25.2l.08,0,.06-.06a.24.24,0,0,0,0-.34Z"/><path class="cls-3" d="M238.73,212a.26.26,0,0,0-.16.13l0,.09v0c0,.1.11.25.39.18l0-.06h0l0-.07,0-.08A.27.27,0,0,0,239,212,.25.25,0,0,0,238.73,212Z"/><path class="cls-3" d="M246.77,179.21a.34.34,0,0,0-.12.06l-.05.07,0,.07v.08l0,.08.06.07.06.05h.14l0,0H247l.06,0,0-.06,0-.07v-.08a.29.29,0,0,0-.13-.2A.3.3,0,0,0,246.77,179.21Z"/><path class="cls-3" d="M250.76,182.82l-.1.07,0,.07a.22.22,0,0,0,0,.23l0,.06,0,.05.06,0a.23.23,0,0,0,.14,0,.26.26,0,0,0-.1-.5Z"/><path class="cls-3" d="M257,187.9l0-.13,0-.13-.07-.08-.08,0h-.13l0,0,0,0,0,0a.26.26,0,0,0,0,.24.3.3,0,0,0,.21.17l.13,0Z"/><path class="cls-3" d="M256.57,203.61l0,0v0a.23.23,0,0,0-.24-.13h-.11a.36.36,0,0,0-.22.53l.08.07.08,0a.25.25,0,0,0,.21,0l.08,0h.05a.24.24,0,0,0,.15-.24l0-.07Z"/><path class="cls-3" d="M261.06,199.45a.27.27,0,0,0-.18,0,.21.21,0,0,0-.19,0,.51.51,0,0,0-.28.26l0,.06v.06a.48.48,0,0,0,.18.32.4.4,0,0,0,.34,0l.1,0,.06-.05,0-.06,0-.08a.21.21,0,0,1,0-.06A.29.29,0,0,0,261.06,199.45Z"/><path class="cls-3" d="M246.54,205.74a.43.43,0,0,0,.19-.13l0-.06v-.12c-.09-.29-.28-.26-.35-.24l-.07,0-.06.08,0,.08v.09a.27.27,0,0,0,0,.15l.05.07.07,0,.09,0Z"/><path class="cls-3" d="M253.79,199.93h-.14a.25.25,0,0,0-.18.14.19.19,0,0,0-.05.1v.07l0,.07,0,0h0a.24.24,0,0,0,.24.19h.05a.33.33,0,0,0,.25-.28.32.32,0,0,0-.18-.32Z"/><path class="cls-3" d="M255,192.46a.19.19,0,0,0-.22-.1.16.16,0,0,0-.14,0,.24.24,0,0,0-.14.12v.19a.52.52,0,0,0,0,.17l.05.08.07.05.06,0,.07,0h.08a.4.4,0,0,0,.29-.42l-.07-.1Z"/><path class="cls-3" d="M247.71,174.43h0a.23.23,0,0,0,.14,0h.09a.22.22,0,0,0,.14-.19v0l0-.08a.31.31,0,0,1-.05-.1l-.08-.13-.08-.05-.09,0-.14,0a.34.34,0,0,0-.15.47A.2.2,0,0,0,247.71,174.43Z"/><path class="cls-3" d="M254.61,196.89l-.09.17,0,.05h0l0,.11h0v0l.17.09a.25.25,0,0,0,0-.46A.27.27,0,0,0,254.61,196.89Z"/><path class="cls-3" d="M241.05,203.73l0-.11v0h0a.27.27,0,0,0,0-.21.18.18,0,0,0-.12-.12l-.09-.06-.11,0a.36.36,0,0,0-.14.09h0l-.05,0h0l0,.07,0,.09a.38.38,0,0,0,.16.26.39.39,0,0,0,.31.05A.24.24,0,0,0,241.05,203.73Z"/><path class="cls-3" d="M238.55,192.83h-.05l0,0-.06,0-.06,0h-.07l-.05,0h-.1l-.09.06a.25.25,0,0,0,0,.16l0,.05.05.18a.28.28,0,0,0,.16.15l0,0a.21.21,0,0,0,.2,0,.21.21,0,0,0,.15-.15l0,0,0-.08,0-.07,0,0a.19.19,0,0,0,0-.18Z"/><path class="cls-3" d="M240.5,199.55h0l0,0-.08,0h-.09a.26.26,0,0,0-.21,0,.19.19,0,0,0-.13.1h0l-.08.1v.05a.38.38,0,0,0-.06.16l.05.11,0,0,0,.11,0,.08.06.06.12,0a.7.7,0,0,0,.32,0l.05,0,.06,0,0-.06,0-.08v0l0-.07h0l0-.08v-.08A.34.34,0,0,0,240.5,199.55Z"/><path class="cls-3" d="M243.14,210.24l-.09,0H243a.26.26,0,0,0-.18.31.25.25,0,0,0,.28.19l.08,0,.05-.06,0-.11a.3.3,0,0,0,0-.1l0-.09Z"/><path class="cls-3" d="M235,187l0,0v0s-.07,0-.08,0l-.11,0-.07.06-.06.11a.4.4,0,0,0,0,.24h0a.2.2,0,0,0,.14.15l0,0,.08,0H235l.08,0,.06,0,.07,0,.05-.06,0-.08a.5.5,0,0,0-.17-.38Z"/><path class="cls-3" d="M239.83,190.33a.24.24,0,0,0-.12,0,.2.2,0,0,0-.11,0l-.12,0a.58.58,0,0,0-.31.25l0,.06v.12a.52.52,0,0,0,.65.24l.05,0,0,0,0,0a.27.27,0,0,0,0-.12.37.37,0,0,0,0-.15l-.05-.07A.27.27,0,0,0,239.83,190.33Z"/><path class="cls-3" d="M232.71,180.72h.09l.1-.05.06-.07,0-.07v-.09l0-.13-.07-.08-.07,0h-.11l-.1,0-.06,0,0,0,0,0a.37.37,0,0,0,0,.29l0,.06.07,0Z"/><path class="cls-3" d="M235.47,193.68l-.09-.05h0a.22.22,0,0,0-.15-.09.32.32,0,0,0-.17,0l-.09,0,0,0-.07.06,0,.07,0,.08a.32.32,0,0,0,.13.22l.1.06h.1l0,0a.33.33,0,0,0,.2,0l.06,0,.06-.07,0-.08v-.1h0Z"/><path class="cls-3" d="M248.11,209a.25.25,0,0,0-.12-.1.16.16,0,0,0-.1,0,.18.18,0,0,0-.16,0,.2.2,0,0,0-.1.07l0,.05,0,0a.39.39,0,0,0,0,.34l.05.06.06,0,.07,0a.93.93,0,0,0,.23,0,.37.37,0,0,0,.24-.27l0-.12,0-.05Z"/><path class="cls-3" d="M239.75,179.41a.23.23,0,0,0,.18.05l.1-.06v0a.27.27,0,0,0,.12-.16.19.19,0,0,0,0-.14.3.3,0,0,0-.38-.19l-.14.08,0,0,0,.05v.06A.29.29,0,0,0,239.75,179.41Z"/><path class="cls-3" d="M235.54,172.48l-.06,0-.07,0a1.25,1.25,0,0,0-.19,0,.35.35,0,0,0-.23.19.37.37,0,0,0,0,.31l.08.07.08,0h.08l0,0h.09l.08,0,.1-.09a.37.37,0,0,0,0-.44Z"/><path class="cls-3" d="M239,176.39l0,0,.07.05.07,0h.09a.35.35,0,0,0,.25-.31.21.21,0,0,0-.16-.21h0l-.05,0h-.12a.39.39,0,0,0-.25.21v.13l0,.07A.27.27,0,0,0,239,176.39Z"/><path class="cls-3" d="M237,202.72l-.06,0h-.06a.25.25,0,0,0-.15,0l-.09,0,0,0a.28.28,0,0,0,0,.28.36.36,0,0,0,.28.2l.11,0,.07-.06.05-.11a.32.32,0,0,0,0-.25Z"/><path class="cls-3" d="M244.17,191.77h-.11c-.07,0-.15.07-.15.26s.12.24.14.25l0,0h.11a.2.2,0,0,0,.15-.22s0-.22-.14-.29Z"/><path class="cls-3" d="M241.07,195.08l.08-.12-.06-.06-.08,0h-.1l-.16,0-.05,0,0,0,0,.05a.25.25,0,0,0,.13.31.21.21,0,0,0,.25.14.15.15,0,0,0,.09-.06h0l.08,0,.06-.09a.39.39,0,0,0-.08-.28Z"/><path class="cls-3" d="M245.12,192.82h0a.34.34,0,0,0-.17,0l-.06,0-.07.05,0,.06,0,0a.58.58,0,0,0,.06.4l.05.05.08,0,.09,0h.11l.08-.05.05,0a.35.35,0,0,0,.24-.26l0-.07v-.14A.38.38,0,0,0,245.12,192.82Z"/><path class="cls-3" d="M244.41,200.4a.21.21,0,0,0-.15.22.29.29,0,0,0,.27.24l.12-.06.07-.1v-.14C244.6,200.37,244.46,200.38,244.41,200.4Z"/><path class="cls-3" d="M245.52,197.47l-.12,0a.37.37,0,0,0-.18,0,.21.21,0,0,0-.17.2l0,.07a.24.24,0,0,0,.07.21l.05,0,.09,0a.31.31,0,0,0,.2,0h0l.09-.07,0-.09v-.09a.27.27,0,0,0,0-.11l0-.1Z"/><path class="cls-3" d="M239.7,183.29h.24a.34.34,0,0,0,.12-.06l0-.07,0-.07V183a.31.31,0,0,0,0-.21.18.18,0,0,0-.1-.09.22.22,0,0,0-.24-.1l-.07,0-.09,0a.27.27,0,0,0-.19.18v.11l0,.05a.39.39,0,0,0,.16.3Z"/><path class="cls-3" d="M244.6,197.59l-.09-.05-.08,0-.08,0a.25.25,0,0,0-.15,0l-.08.05-.05.06,0,.12a.31.31,0,0,0,.06.26l0,.05.06,0h.11a.38.38,0,0,0,.18,0,.27.27,0,0,0,.19-.21l0-.13,0,0h0A.53.53,0,0,0,244.6,197.59Z"/><rect class="cls-2" x="233.43" y="160.31" width="18.27" height="19.17" transform="translate(-12.41 19.27) rotate(-4.44)"/><path class="cls-3" d="M247.46,166.64h0l0,0v0a.11.11,0,0,0-.05-.09h0l0,0a.11.11,0,0,0-.1,0,.11.11,0,0,0,0,.1.1.1,0,0,0,.06.09h.13Z"/><path class="cls-3" d="M244.41,168.55v0a.18.18,0,0,0,.12.15h0l0,0,0-.07v0h0v0l0-.05,0,0a.16.16,0,0,0-.13.05Z"/><path class="cls-3" d="M242.05,168.87v0l0,0,0,0H242a.29.29,0,0,0-.11.06l0,.05v0l0,.06a.13.13,0,0,0,.17,0h0l0,0Z"/><path class="cls-3" d="M242.26,161.3a.11.11,0,0,0-.09-.1h-.06l0,0,0,.06h0a.11.11,0,0,0,.08.1h0l.05,0Z"/><path class="cls-3" d="M240.8,173.34a.15.15,0,0,0,.1,0l0,0,0,0v-.1l0,0a.1.1,0,0,0-.12,0h0l0,0v.05A.11.11,0,0,0,240.8,173.34Z"/><path class="cls-3" d="M241.35,169h0c0,.07.07.09.12.12h.05l0,0,0-.05,0,0,0,0V169h0a.19.19,0,0,0,0-.08h0v0s0,0,0-.07a.16.16,0,0,0-.06-.08h0a.16.16,0,0,0-.1,0l0,0v.07a.43.43,0,0,1,0,.05h0l0,0v0a.22.22,0,0,0,0,.08Z"/><path class="cls-3" d="M245.33,163.88v0a.1.1,0,0,0-.07-.1h0a.18.18,0,0,0-.11,0l0,0,0,0v0h0a.07.07,0,0,0,0,.07l0,0a.11.11,0,0,0,.13,0l0,0Z"/><path class="cls-3" d="M235.34,164.58v-.05q0-.08-.09-.09h-.08l0,0a.11.11,0,0,0,0,.08.12.12,0,0,0,.07.1.13.13,0,0,0,.13,0Z"/><path class="cls-3" d="M247.85,163.26s0,0,0,0v0l0,0a.13.13,0,0,0-.15,0l0,0,0,0v0s0,.05,0,.07a.09.09,0,0,0,0,.07l.07,0h0a.09.09,0,0,0,.12-.09Z"/><path class="cls-3" d="M238,163.52l0-.05,0,0h0a.13.13,0,0,0-.15-.05l0,0v.09a.14.14,0,0,0,0,.06s0,0,0,0l0,0h.07A.15.15,0,0,0,238,163.52Z"/><path class="cls-3" d="M236.63,163.36l.05,0,0,0a.07.07,0,0,0,0-.07v0l0,0v0l0,0a.16.16,0,0,0-.1,0,.16.16,0,0,0-.11.05.24.24,0,0,0,0,.13.17.17,0,0,0,.15.15h0Z"/><path class="cls-3" d="M240.61,163.21v0l0,0,0,0,0,0h.06l0,0s0,0,0,0l0-.06,0,0h0a.1.1,0,0,0-.1,0,.14.14,0,0,0-.06.09h0Z"/><path class="cls-3" d="M244.1,166.16h0a.13.13,0,0,0,0,.06l0,0h0a.09.09,0,0,0,.08.09l0,0h0l0,0h0l0,0,0-.06h-.05l.06,0v-.06l0-.06s0-.05-.06-.08h-.2l0,0a.1.1,0,0,0-.07.09A.07.07,0,0,0,244.1,166.16Z"/><path class="cls-3" d="M244.59,162.65s0,0,0,.06v0l0,0h0a.13.13,0,0,0,.14-.09l0,0v-.07l0,0h0l-.05,0A.14.14,0,0,0,244.59,162.65Z"/><path class="cls-3" d="M241.3,167.11h0a.08.08,0,0,0,.05,0h0l0,0V167a.14.14,0,0,0,0-.07h0v0l0,0a.2.2,0,0,0-.27.08V167h0s0,0,0,0h0v0s0,0,0,0l0,0a.15.15,0,0,0,.11,0Z"/><path class="cls-3" d="M250.77,166l0,0a.1.1,0,0,0,.06-.1v-.08l0,0,0,0,0,0,0,0-.05,0h0a.13.13,0,0,0-.14,0h0a.22.22,0,0,0-.09.13V166l0,0,0,0h.15Z"/><path class="cls-3" d="M233.34,167.11l0,0a.19.19,0,0,0,0-.08.09.09,0,0,0,0-.06s-.08,0-.09,0l0,0,0,0v.11l0,0,0,0h.09Z"/><path class="cls-3" d="M238,166.7l0,0,0,0h0a.13.13,0,0,0-.12,0l0,0a.11.11,0,0,0,0,.08.19.19,0,0,0,0,.08h0l0,0,.06,0A.13.13,0,0,0,238,166.7Z"/><path class="cls-3" d="M237,168.31v0l0,0,0,0a.16.16,0,0,0-.18,0v0h0a.12.12,0,0,0,0,.11h0l0,0,0,0a.1.1,0,0,0,.09,0h0A.3.3,0,0,0,237,168.31Z"/><path class="cls-3" d="M240.3,167.15s0,0,0,0h0a.13.13,0,0,0,0-.06v0l0,0h0l0,0a.21.21,0,0,0-.13,0,.09.09,0,0,0,0,.08v.06l0,0a.13.13,0,0,0,.11.07.12.12,0,0,0,.09-.05Z"/><path class="cls-3" d="M239,164.77l0,0v-.07a.22.22,0,0,0-.07-.12h0a.14.14,0,0,0-.14.08v.11a.13.13,0,0,0,.17.06Z"/><path class="cls-3" d="M242.64,165.61h0a.09.09,0,0,0,0-.06v-.08h0v0l0,0h-.05c-.08,0-.11.06-.1.1h0a.11.11,0,0,0,0,.06v0l0,0,.05,0a.11.11,0,0,0,.1,0Z"/><path class="cls-3" d="M245.66,165.2a.12.12,0,0,0,.1,0,.11.11,0,0,0,.06-.07v0l0,0,0,0,0,0s-.05-.06-.1,0a.09.09,0,0,0-.08.06v.06l0,0Z"/><path class="cls-3" d="M247.28,160.13l0,0V160l0-.05,0,0a.11.11,0,0,0-.09,0l0,0,0,0,0,0v0a.08.08,0,0,0,0,.05h0v0l0,0,.06,0h0Z"/><path class="cls-3" d="M237.47,161.38a.12.12,0,0,0,.05-.09l0,0v0l0,0a.14.14,0,0,0-.07,0h0l0,0,0,.05v0c0,.14.1.16.15.16l0,0Z"/><path class="cls-3" d="M245.81,178.92v0l0,0,0,0h0a.13.13,0,0,0,.09,0,.11.11,0,0,0,0-.11h0v0l0,0,0,0a.17.17,0,0,0-.11,0A.13.13,0,0,0,245.81,178.92Z"/><path class="cls-3" d="M243.72,175.23v-.06l0,0,0,0-.05,0-.06,0,0,0v0a.12.12,0,0,0,.05.09s0,0,.09,0l0,0Z"/><path class="cls-3" d="M245.39,174.9a.14.14,0,0,0,0-.11.11.11,0,0,0-.11-.12h0s-.08,0-.1.07v0a.43.43,0,0,0,0,.05l0,0,.05,0h.12Z"/><path class="cls-3" d="M241.31,176V176a.12.12,0,0,0-.06-.11.14.14,0,0,0-.15,0l0,0,0,0v.05a.15.15,0,0,0,0,.07v.06l0,0a.18.18,0,0,0,.2,0Z"/><path class="cls-3" d="M242.92,176v0l0,0,0,0h-.11l0,0,0,0,0,0a.19.19,0,0,0,0,.08s0,.06.06.1h0a.13.13,0,0,0,.1,0A.16.16,0,0,0,242.92,176Z"/><path class="cls-3" d="M235.07,176.31v-.05l0,0-.05,0-.06,0,0,0v0l0,0,0,0v.06l0,0,.06,0C235.05,176.39,235.07,176.34,235.07,176.31Z"/><path class="cls-3" d="M237.51,174.49v0l0,0,0,0a.14.14,0,0,0-.11,0,.13.13,0,0,0,0,.09v0l0,0,0,0h0A.12.12,0,0,0,237.51,174.49Z"/><path class="cls-3" d="M248.08,174.1l0,0,0,0,0,0,0-.05a.16.16,0,0,0-.14-.12h0l0,0,0,0v0a.16.16,0,0,0,0,.07.1.1,0,0,0,.08.07h0Z"/><path class="cls-3" d="M240.71,175.23v-.09l0,0,0,0h0a.12.12,0,0,0-.11.09v0l0,0a.11.11,0,0,0,.14,0Z"/><path class="cls-3" d="M234.83,169.25a.13.13,0,0,0,0-.09h-.06a.12.12,0,0,0-.11.15l0,0v0l0,0,0,0a.15.15,0,0,0,.1,0A.14.14,0,0,0,234.83,169.25Z"/><path class="cls-3" d="M247.92,175.69a.13.13,0,0,0,0-.06l0,0,0,0h-.07l0,0,0,0,0,.06v.07l0,0,0,0h0a.13.13,0,0,0,.1,0A.08.08,0,0,0,247.92,175.69Z"/><path class="cls-3" d="M246,177l0-.05,0,0a.14.14,0,0,0-.09,0h0l0,0,0,0a.13.13,0,0,0,0,.06.11.11,0,0,0,.22,0Z"/><path class="cls-3" d="M243.31,179.18l.05,0h.06l0,0,0,0,0-.05V179a.1.1,0,0,0-.1,0,.12.12,0,0,0-.09.08v0Z"/><path class="cls-3" d="M236.71,177.56h0a.13.13,0,0,0,.08-.08h0v0a.17.17,0,0,0-.06-.12.16.16,0,0,0-.14,0l0,0,0,0a.07.07,0,0,0,0,.08.06.06,0,0,0,0,0h0v0s0,.07.09.08h.08Z"/><path class="cls-3" d="M238.05,179.84a.16.16,0,0,0,0-.07.19.19,0,0,0,0-.08.22.22,0,0,0-.08-.14l0,0h0a.21.21,0,0,0-.15,0,.17.17,0,0,0-.05.14s0,0,0,0l0,0,0,0h0S238,179.9,238.05,179.84Z"/><path class="cls-3" d="M236.74,173.12a.19.19,0,0,0,0,.09l0,0h0c.13,0,.14-.09.14-.12v0l0,0,0,0h0a.06.06,0,0,0-.06,0h0l0,0,0,0Z"/><path class="cls-3" d="M238.52,176.72v-.05h0a.12.12,0,0,0-.05-.08l0,0h-.06l0,0h0a.12.12,0,0,0-.11.09v0a.15.15,0,0,0,.1.13.14.14,0,0,0,.15,0Z"/><path class="cls-3" d="M241.57,177.92a.09.09,0,0,0,.06-.08.14.14,0,0,0,0-.07s0-.05,0-.06h-.08l-.07,0,0,0,0,0,0,0v.06a.2.2,0,0,0,.15.17l.06,0Z"/><path class="cls-3" d="M249.86,176.53h0a0,0,0,0,0,0,.05h0v0a.08.08,0,0,0,.07.08h.1l.06,0,0,0,0,0v-.06a.15.15,0,0,0-.19-.11A.08.08,0,0,0,249.86,176.53Z"/><path class="cls-3" d="M239.73,177.35l-.07,0h-.1l-.05.06a.12.12,0,0,0,.12.1.13.13,0,0,0,.07,0A.14.14,0,0,0,239.73,177.35Z"/><path class="cls-3" d="M238.1,171l0,0h0a.15.15,0,0,0,.1,0,.08.08,0,0,0,.06,0l0,0,0-.05s0,0,0-.06h0l0,0h0v0l0,0,0,0a.15.15,0,0,0-.12,0,.19.19,0,0,0,0,.13S238.09,171,238.1,171Z"/><path class="cls-3" d="M242.94,171v0h0l0,0v-.08h0v0l0,0-.06,0h-.1a.16.16,0,0,0-.08.05h0a.08.08,0,0,0,0,.08.12.12,0,0,0,0,.08h0l0,0,0,0h0a.08.08,0,0,0,.08,0Z"/><path class="cls-3" d="M239.92,171.15h0l0,0v0a.09.09,0,0,0,0-.08.16.16,0,0,0,0-.07h0l0,0h0l-.07,0h-.14l0,0,0,0a.35.35,0,0,0,0,.13v.06l0,0,0,0h0s0,0,0,0h0l0,0h0A.15.15,0,0,0,239.92,171.15Z"/><path class="cls-3" d="M235.16,171.27l0,0s0,0,0,0a.12.12,0,0,0-.12-.1.09.09,0,0,0-.1.1v0l0,0,0,0,0,0h0Z"/><path class="cls-3" d="M245.74,170v0h0a.1.1,0,0,1,0,0v-.05l0,0,0,0a.28.28,0,0,0-.1,0h0a.07.07,0,0,0-.07,0h0l0,0a.17.17,0,0,0,0,.07V170l0,0,0,0,0,0a.24.24,0,0,0,.18,0Z"/><path class="cls-3" d="M243.87,171.72l0-.05s0,0,0,0v0a.24.24,0,0,0-.07-.16h-.08a.22.22,0,0,0-.16.25v0l0,0h0l.05,0,.06,0h0A.12.12,0,0,0,243.87,171.72Z"/><path class="cls-3" d="M248.59,169.61v0a.09.09,0,0,0,0,.05l0,0,0,0h.1l0,0,0,0,0,0v-.1l0,0a.16.16,0,0,0-.12,0l0,0,0,0Z"/><path class="cls-3" d="M242.86,169.57l0,0h0a.1.1,0,0,0,0-.06.15.15,0,0,0,0-.07.08.08,0,0,0,0,0v0l0,0,0,0,0,0a.14.14,0,0,0-.11,0l0,0v.06a.13.13,0,0,0,0,.08v0l0,0,0,0h.1Z"/><path class="cls-3" d="M235.21,173.48a.09.09,0,0,0,.06,0s0,0,0,0,0,0,0-.06a.07.07,0,0,0,0-.05l0,0,0,0a.13.13,0,0,0-.14,0h0l0,0v0a.3.3,0,0,0,0,.1.18.18,0,0,0,.1.13h.08Z"/><path class="cls-3" d="M248.49,172.7a.16.16,0,0,0,0,.07l0,0h0a.11.11,0,0,0,.06.06h.06a.12.12,0,0,0,.11-.14.14.14,0,0,0,0-.07v0l0,0h0A.14.14,0,0,0,248.49,172.7Z"/><path class="cls-3" d="M251.81,171.57l0,0v0a.28.28,0,0,0,0-.09.16.16,0,0,0-.06-.11.12.12,0,0,0-.13,0l0,0,0,0v0h0v.08l0,.05a.16.16,0,0,0,.18.06Z"/><path class="cls-3" d="M249.84,172.68h0l0,0,0,0v0a.15.15,0,0,0,.11.14.09.09,0,0,0,.1,0h0l0,0v-.05a.16.16,0,0,0-.06-.13h-.09S249.85,172.66,249.84,172.68Z"/><path class="cls-3" d="M238.9,169.38l0,0,0,0a.35.35,0,0,0,0-.06.08.08,0,0,0,0,0v0a.11.11,0,0,0-.12,0,.13.13,0,0,0-.11.09v.05l0,0,0,0a.17.17,0,0,0,.11,0Z"/><path class="cls-3" d="M242.86,173.42v0s0-.07-.09-.08-.12,0-.12,0l0,0v0a.09.09,0,0,0,.08.08s.1,0,.14,0Z"/><path class="cls-3" d="M241.75,171.8l0,0,0,0,0,0v-.14l0,0,0,0s-.07,0-.14,0-.08.07-.08.09a.09.09,0,0,0,0,0h0l0,0,0,0a.12.12,0,0,0,.12,0Z"/><path class="cls-3" d="M242.33,173.73h0a.15.15,0,0,0,0-.07v0l0,0,0,0,0,0a.22.22,0,0,0-.17,0l0,0,0,0,0,0v0s0,0,0,0v0a.16.16,0,0,0,.09.13l0,0h.06A.16.16,0,0,0,242.33,173.73Z"/><path class="cls-3" d="M239.19,172.72a.08.08,0,0,0-.08-.08.11.11,0,0,0-.12.09v.06l0,0h.06C239.19,172.8,239.2,172.74,239.19,172.72Z"/><path class="cls-3" d="M240.33,173.46l0-.05s0,0,0-.08a.13.13,0,0,0-.07-.09h0a.11.11,0,0,0-.1,0l0,0,0,0a.13.13,0,0,0,0,.08h0l0,0,0,0h.13Z"/><path class="cls-3" d="M246.86,172.32v.05a.07.07,0,0,0,0,0s0,0,0,.06l0,0H247a.14.14,0,0,0,.09,0l0,0a.09.09,0,0,0,.06-.09v-.07a.12.12,0,0,0-.06-.1H247a.14.14,0,0,0-.14,0Z"/><path class="cls-3" d="M240.36,173.06l0,0,0,0v0a.35.35,0,0,0,0-.06v0l0,0,0,0a.17.17,0,0,0-.12,0l0,0,0,0,0,.05s0,0,0,.07a.12.12,0,0,0,.07.11h.14Z"/><rect class="cls-2" x="210.81" y="57.36" width="43.87" height="46.04" transform="translate(-2.55 7.79) rotate(-1.91)"/><path class="cls-3" d="M244.83,73.09l0,0,0,0a.52.52,0,0,0,0-.11.27.27,0,0,0-.13-.21l0,0-.09,0a.29.29,0,0,0-.25.07.3.3,0,0,0-.1.23.23.23,0,0,0,.14.22h.12a.28.28,0,0,0,.18,0Z"/><path class="cls-3" d="M237.3,77.33v.11a.41.41,0,0,0,.27.36h.13l.09-.06.07-.14v-.12h0l0-.08-.05-.11-.12-.09a.44.44,0,0,0-.33.1Z"/><path class="cls-3" d="M231.63,77.85v-.09l0-.1-.08-.06-.1,0a.54.54,0,0,0-.27.14l-.09.1,0,.11.05.13a.29.29,0,0,0,.4,0h0l.07,0,.06-.07Z"/><path class="cls-3" d="M232.92,59.72a.26.26,0,0,0-.21-.25h-.13l-.11,0-.07.13h0a.24.24,0,0,0,.17.24l.14,0,.11,0Z"/><path class="cls-3" d="M228.14,88.45a.32.32,0,0,0,.23,0l.09-.06,0-.08v0l0-.1V88.1l0-.09a.25.25,0,0,0-.3,0h0l-.07,0-.08.08,0,.12A.34.34,0,0,0,228.14,88.45Z"/><path class="cls-3" d="M229.93,78.09v0a.46.46,0,0,0,.27.29h.13l.1,0,.09-.11.07,0,0-.06,0-.08V78a.32.32,0,0,0,0-.18h0l0,0a.41.41,0,0,0,0-.16.22.22,0,0,0-.12-.2h-.1a.28.28,0,0,0-.23,0l-.08.06,0,.07,0,.09s0,.09,0,.13h-.06l-.08.09v0a.37.37,0,0,0-.09.2Z"/><path class="cls-3" d="M240,66.24l0-.08a.28.28,0,0,0-.16-.25h0a.33.33,0,0,0-.26-.06l-.08,0-.06.06,0,.09v0a.23.23,0,0,0,.09.19l.07,0a.26.26,0,0,0,.3.08l.08-.06Z"/><path class="cls-3" d="M216,66.85l0,0v0a.26.26,0,0,0-.21-.25l-.1,0h-.1l-.09.07a.25.25,0,0,0,0,.17.27.27,0,0,0,.17.25.26.26,0,0,0,.3,0Z"/><path class="cls-3" d="M246.12,65a.19.19,0,0,0,0-.09v-.09l-.06-.1a.27.27,0,0,0-.34-.13l-.07.05-.05.07,0,.11a.74.74,0,0,0,0,.17.28.28,0,0,0,0,.16l.17.06,0,0v0a.3.3,0,0,0,.22-.06A.2.2,0,0,0,246.12,65Z"/><path class="cls-3" d="M222.42,64.59l0-.11-.06-.07h0a.3.3,0,0,0-.36-.14l-.09.1,0,.15v0a.38.38,0,0,0,.05.15.16.16,0,0,0,0,.11l.07,0,.07,0h.08A.34.34,0,0,0,222.42,64.59Z"/><path class="cls-3" d="M219.2,64.07a.29.29,0,0,0,.12-.09.31.31,0,0,0,.05-.12.2.2,0,0,0,.07-.17v-.06l0-.07,0,0-.07,0a.3.3,0,0,0-.22-.11.38.38,0,0,0-.28.11.43.43,0,0,0-.12.31.39.39,0,0,0,.34.36l.11,0Z"/><path class="cls-3" d="M228.77,64.14v0l0,.09.07,0,.09,0H229l.09,0,.07-.07a.22.22,0,0,0,.05-.11l0-.13-.06-.05,0,0a.22.22,0,0,0-.4.1v0A.28.28,0,0,0,228.77,64.14Z"/><path class="cls-3" d="M236.81,71.58h0a.33.33,0,0,0,0,.15.21.21,0,0,0,.11.1h0a.23.23,0,0,0,.19.23l.11,0,.05,0,.1,0h0l.11,0,.09-.14h-.13l.15,0,0-.16-.06-.13a.3.3,0,0,0-.14-.21l-.05,0-.11,0a.24.24,0,0,0-.16,0H237l-.11.07a.2.2,0,0,0-.17.21A.18.18,0,0,0,236.81,71.58Z"/><path class="cls-3" d="M238.38,63.2a1,1,0,0,0,0,.15l0,.06.05.05.07,0a.31.31,0,0,0,.37-.19l0-.1v-.08l0-.09a.28.28,0,0,0-.11-.07l0,0-.12,0A.29.29,0,0,0,238.38,63.2Z"/><path class="cls-3" d="M230,73.56l0,0a.18.18,0,0,0,.11-.13l0,0,0,0,0,0,0-.1a.49.49,0,0,0,0-.17h0l0-.09-.06-.08a.51.51,0,0,0-.66.16l0,.16h0v.11l0,.07a.31.31,0,0,0,.1.1l.09.09a.31.31,0,0,0,.26,0Z"/><path class="cls-3" d="M252.85,72l0-.06a.27.27,0,0,0,.16-.23v-.12l0-.08-.05-.06-.05,0,0,0-.06-.06-.12,0,.07,0a.33.33,0,0,0-.34-.09l0,0a.7.7,0,0,0-.24.3v.09l0,.08a.07.07,0,0,0,0,0l0,.1.07.06.1,0a.22.22,0,0,1,.11,0l.15,0Z"/><path class="cls-3" d="M210.91,72.72l.06-.07a.34.34,0,0,0,0-.18.22.22,0,0,0-.07-.17.29.29,0,0,0-.21-.06l-.1,0-.06.07,0,.1v.14l0,.1.07.06.13,0,.07,0Z"/><path class="cls-3" d="M222.19,72.23l-.05-.11-.07-.06-.1,0s0,0,0,0a.36.36,0,0,0-.29,0l-.06,0a.25.25,0,0,0-.09.19.26.26,0,0,0,.09.19h0l0,.09.15.07A.34.34,0,0,0,222.19,72.23Z"/><path class="cls-3" d="M219.56,76v-.11l0-.09-.07-.08a.4.4,0,0,0-.44,0v0h0a.32.32,0,0,0-.13.25v0l.06.09.07,0a.24.24,0,0,0,.2.11l.07,0A.62.62,0,0,0,219.56,76Z"/><path class="cls-3" d="M227.59,73.54a.1.1,0,0,0,0-.05v0a.28.28,0,0,0,0-.13l0-.1,0,0,0,0-.08,0a.35.35,0,0,0-.31,0,.27.27,0,0,0-.11.19v.07l0,.06,0,.07a.34.34,0,0,0,.25.17.26.26,0,0,0,.21-.11Z"/><path class="cls-3" d="M224.76,67.69l.05-.06,0-.08v-.09a.34.34,0,0,0-.14-.29l-.09,0a.34.34,0,0,0-.36.18v.09l0,.09,0,.07a.33.33,0,0,0,.4.17Z"/><path class="cls-3" d="M233.38,70.1v0a.24.24,0,0,0,.08-.15v-.06l0-.06,0,0-.06,0v0l-.06-.08-.12,0c-.2,0-.26.14-.26.25h0a.33.33,0,0,0,0,.14v0l.1.11.13,0a.24.24,0,0,0,.23,0Z"/><path class="cls-3" d="M240.66,69.44a.24.24,0,0,0,.24.07.22.22,0,0,0,.15-.16l0-.12-.07-.08,0,0,0-.05a.26.26,0,0,0-.23-.13.26.26,0,0,0-.2.15v.14l.06.09Z"/><path class="cls-3" d="M245.08,57.44l.08-.12v-.15l-.07-.11L245,57a.25.25,0,0,0-.21,0l-.08,0-.05.06,0,.08v0a.22.22,0,0,0,0,.13h0l0,.06.07.08.13,0v0l.1,0Z"/><path class="cls-3" d="M221.43,59.4a.26.26,0,0,0,.12-.22l0-.07,0-.06-.07-.07a.56.56,0,0,0-.18-.12l-.12,0-.09.06-.06.11v.06c0,.35.21.4.33.4l.11,0Z"/><path class="cls-3" d="M239.57,102.37a.17.17,0,0,0,0,.07l0,.08.06.06.08,0a.26.26,0,0,0,.22-.07.31.31,0,0,0,.08-.27h0l0-.07-.05-.06-.06,0a.27.27,0,0,0-.25,0A.28.28,0,0,0,239.57,102.37Z"/><path class="cls-3" d="M234.94,93.3l0-.09v-.06l0-.09-.07-.08a.28.28,0,0,0-.12,0l-.12,0-.08.09,0,.1a.27.27,0,0,0,.1.22.24.24,0,0,0,.2,0l.08,0Z"/><path class="cls-3" d="M239,92.67a.35.35,0,0,0,.08-.26.27.27,0,0,0-.27-.29l0,0c-.09,0-.18,0-.25.15v.08a.33.33,0,0,0,0,.12l0,.09.11.1.09,0h.14Z"/><path class="cls-3" d="M229.08,95l0,0v-.06a.13.13,0,0,0,0-.06.37.37,0,0,0-.15-.29.41.41,0,0,0-.36,0l-.07,0,0,.06,0,.11a.35.35,0,0,0,0,.17l0,.07,0,.07.06,0a.43.43,0,0,0,.48,0Z"/><path class="cls-3" d="M233,95v-.08l0-.09-.07-.06-.09,0h-.15l-.08,0-.06,0,0,.09a.54.54,0,0,0,0,.19.31.31,0,0,0,.14.25l.08,0a.33.33,0,0,0,.26-.08A.39.39,0,0,0,233,95Z"/><path class="cls-3" d="M214.09,95l0-.11-.08-.1a.29.29,0,0,0-.13-.08l-.13,0-.08.07,0,.07.12.08-.12-.07V95l.07.1.15.06A.26.26,0,0,0,214.09,95Z"/><path class="cls-3" d="M220.14,90.85l0-.1-.06-.06-.09,0a.31.31,0,0,0-.25.07.33.33,0,0,0-.09.23V91l.05.09.07,0,.1,0A.31.31,0,0,0,220.14,90.85Z"/><path class="cls-3" d="M245.54,91l0-.06.07,0,.06-.07,0-.12a.35.35,0,0,0-.32-.3l-.1,0-.07,0-.06.08v.08a.24.24,0,0,0,.07.17.24.24,0,0,0,.19.17l.1,0Z"/><path class="cls-3" d="M227.72,93l0-.06,0-.08v-.09l-.05-.1-.07-.06-.12,0c-.21,0-.26.12-.27.19v.1l.05.08a.25.25,0,0,0,.33.11Z"/><path class="cls-3" d="M214.25,78a.3.3,0,0,0-.08-.21l-.09,0H214c-.11,0-.28,0-.29.34l0,.06,0,0,.06.06.08.05a.27.27,0,0,0,.34-.29Z"/><path class="cls-3" d="M245,94.83a.39.39,0,0,0,0-.14l-.05-.07-.07,0-.08,0h-.08l-.09,0-.07.05,0,.13a.18.18,0,0,1,0,.12V95l0,.07.06,0,.08,0a.26.26,0,0,0,.23-.08A.28.28,0,0,0,245,94.83Z"/><path class="cls-3" d="M240.3,97.87l-.05-.13-.06,0a.26.26,0,0,0-.22-.11l-.06,0-.06,0,0,0a.32.32,0,0,0,0,.14.27.27,0,0,0,.53,0Z"/><path class="cls-3" d="M233.55,102.73l.12.06h.14l.1,0,.06-.07,0-.13v-.05l0,0,0,0a.27.27,0,0,0-.25-.08.3.3,0,0,0-.22.17v.13Z"/><path class="cls-3" d="M217.89,98.13l0,0h0a.24.24,0,0,0,.2-.2h0l0,0v-.06a.37.37,0,0,0-.12-.28.41.41,0,0,0-.34-.08l-.1.06,0,.08a.22.22,0,0,0-.09.19.36.36,0,0,0,0,.1h0s0,0,0,0a.24.24,0,0,0,.21.21h.2Z"/><path class="cls-3" d="M220.87,103.75a.27.27,0,0,0,.08-.16.3.3,0,0,0,.08-.2.64.64,0,0,0-.19-.34l-.06,0-.06,0a.44.44,0,0,0-.37.09.45.45,0,0,0-.12.34s0,.06,0,.1l0,.07.05.06.07,0,.06,0A.33.33,0,0,0,220.87,103.75Z"/><path class="cls-3" d="M218.44,87.5a.33.33,0,0,0,.08.22l0,0,.05,0h.07c.31,0,.34-.21.33-.29v-.08l-.06-.08-.08,0-.08,0a.45.45,0,0,0-.16,0l-.09,0-.06.06,0,.08Z"/><path class="cls-3" d="M222.32,96.32l0,0V96.2h0v0a.26.26,0,0,0-.09-.21.25.25,0,0,0-.09-.09H222l0,0h0a.25.25,0,0,0-.26.19v0a.33.33,0,0,0,.58.24Z"/><path class="cls-3" d="M229.51,99.51a.22.22,0,0,0,.16-.19.26.26,0,0,0,0-.14.21.21,0,0,0-.08-.17l0,0h-.05l-.09,0a.4.4,0,0,0-.18,0l-.09,0-.07.06,0,0,0,.06,0,.08a.43.43,0,0,0,.35.41l.12,0Z"/><path class="cls-3" d="M249.54,97.05h0a.2.2,0,0,0,0,.14h0v.08a.22.22,0,0,0,.15.2h.13l.11,0,.15,0,.09-.07,0-.09v-.14c-.07-.23-.21-.33-.43-.28A.21.21,0,0,0,249.54,97.05Z"/><path class="cls-3" d="M225.15,98l-.15-.13h-.17l0,0h0l-.13.15a.26.26,0,0,0,.45.16A.24.24,0,0,0,225.15,98Z"/><path class="cls-3" d="M221.92,82.53l.1.06h0a.3.3,0,0,0,.22,0,.24.24,0,0,0,.15-.09l.08-.08.05-.1a.23.23,0,0,0-.05-.16h0l0-.06h0v0l-.06-.07-.09-.06a.38.38,0,0,0-.3.1.39.39,0,0,0-.13.29A.23.23,0,0,0,221.92,82.53Z"/><path class="cls-3" d="M233.52,82.94l0,0,0,0,0-.05,0-.06,0-.07s0,0,0-.06h0v-.1l0-.1a.28.28,0,0,0-.15-.08l-.05,0h-.18a.28.28,0,0,0-.2.12h0a.26.26,0,0,0-.1.19.25.25,0,0,0,.12.19l0,0,.08,0,.06,0,0,0a.31.31,0,0,0,.19,0Z"/><path class="cls-3" d="M226.26,83.09h0l0,0,.06-.08,0-.09a.27.27,0,0,0,.09-.2.24.24,0,0,0-.07-.16h0l-.07-.1,0,0a.4.4,0,0,0-.15-.1l-.12,0,0,0h-.11l-.09,0-.07,0-.08.11a.74.74,0,0,0-.08.32v.06l0,.07,0,.06.07,0h.06l.06.07h0l0,0,.06,0,.09,0A.33.33,0,0,0,226.26,83.09Z"/><path class="cls-3" d="M214.83,82.89l.06-.09a.29.29,0,0,0-.25-.37.25.25,0,0,0-.26.24l0,.09,0,.07.1.07.1,0h.1Z"/><path class="cls-3" d="M240.35,80.9l0,0h0s0-.07,0-.08v-.11l0-.09-.11-.09a.33.33,0,0,0-.23-.06h0a.21.21,0,0,0-.19.1l0,0-.06.07a.5.5,0,0,0,0,.16s0,.06,0,.09,0,0,0,.07l0,.08,0,.06.08,0a.54.54,0,0,0,.42-.07Z"/><path class="cls-3" d="M235.69,84.89a.2.2,0,0,0,.06-.11.21.21,0,0,0,.06-.1.57.57,0,0,0,0-.13.56.56,0,0,0-.16-.38l-.06,0h-.13a.55.55,0,0,0-.41.59l0,.06,0,0,0,0a.34.34,0,0,0,.12.06.21.21,0,0,0,.14.07l.08,0A.3.3,0,0,0,235.69,84.89Z"/><path class="cls-3" d="M247.23,80.32s0,.05,0,.09,0,.06,0,.12l.05.07.07.05.08,0h.15l.09,0,.07-.07,0-.1v-.12l0-.06,0,0,0,0a.4.4,0,0,0-.29-.05l-.08,0-.05.06Z"/><path class="cls-3" d="M233.49,79.62l.08-.07h0a.27.27,0,0,0,.13-.13.35.35,0,0,0,0-.17s0-.07,0-.11a.43.43,0,0,1,0-.05l0-.09-.06-.06-.08,0a.33.33,0,0,0-.26.08l-.08.08,0,.1v0a.36.36,0,0,0,0,.19v.07l.05.08.07,0,.1,0v0Z"/><path class="cls-3" d="M214.72,88.2a.23.23,0,0,0,.14-.1.19.19,0,0,0,0-.09.17.17,0,0,0,.06-.15.27.27,0,0,0,0-.12l0,0,0,0a.35.35,0,0,0-.33-.12l-.07,0-.06,0,0,.07a.85.85,0,0,0,0,.23.36.36,0,0,0,.21.32h.13l0,0Z"/><path class="cls-3" d="M246.67,87.74a.2.2,0,0,0-.1.16l0,.12,0,0a.27.27,0,0,0,.13.16.2.2,0,0,0,.15,0,.3.3,0,0,0,.28-.32.33.33,0,0,0,0-.17l0,0,0,0-.06,0A.3.3,0,0,0,246.67,87.74Z"/><path class="cls-3" d="M254.75,85.36l.05,0,0-.07a1.23,1.23,0,0,0,0-.2.35.35,0,0,0-.13-.28.36.36,0,0,0-.31-.06l-.09,0,0,.08,0,.08,0,0,0,.09v.09l.07.12a.36.36,0,0,0,.43.15Z"/><path class="cls-3" d="M249.89,87.81h0l-.06.05-.05.07s0,.07,0,.1a.37.37,0,0,0,.25.33.23.23,0,0,0,.26-.1v0l0,0,0-.11a.42.42,0,0,0-.14-.31l-.06,0H250A.21.21,0,0,0,249.89,87.81Z"/><path class="cls-3" d="M224,78.75l.06-.06,0,0a.39.39,0,0,0,0-.15.56.56,0,0,1,0-.1l0,0a.33.33,0,0,0-.27-.12.4.4,0,0,0-.28.23v.12l0,.09.09.07a.31.31,0,0,0,.26,0Z"/><path class="cls-3" d="M233.08,88.86l0-.06v0c0-.07,0-.17-.22-.22s-.28,0-.3.07l0,.05,0,0v.06a.22.22,0,0,0,.19.21.45.45,0,0,0,.32-.07Z"/><path class="cls-3" d="M230.59,84.86l.1.12.08,0,.06-.07,0-.09v-.18l0-.06,0,0-.05,0a.27.27,0,0,0-.35,0c-.19,0-.2.17-.2.22a.17.17,0,0,0,0,.1v0l0,.09.07.09a.33.33,0,0,0,.3,0Z"/><path class="cls-3" d="M231.78,89.54h0a.4.4,0,0,0,0-.17v-.07l0-.08-.05-.06,0,0a.54.54,0,0,0-.42,0l-.06,0a.35.35,0,0,0,0,.08l-.08.06,0,.06v.06a.29.29,0,0,0,0,.09l0,0c0,.17.08.26.2.31l.06.06.06,0h.08A.39.39,0,0,0,231.78,89.54Z"/><path class="cls-3" d="M224.36,86.79a.22.22,0,0,0-.18-.21.29.29,0,0,0-.31.21l0,.14L224,87l.14,0C224.34,87,224.36,86.85,224.36,86.79Z"/><path class="cls-3" d="M227,88.69l.07-.12a.32.32,0,0,0,0-.18.22.22,0,0,0-.15-.22h-.07a.25.25,0,0,0-.24,0l0,0-.06.08a.36.36,0,0,0-.06.2h0l.06.11.08.05.08,0a.48.48,0,0,0,.12.05l.1,0Z"/><path class="cls-3" d="M242.79,86.64l0,.08v0a.24.24,0,0,0,0,.13.39.39,0,0,0,0,.14l.05.06.06,0,.1,0a.39.39,0,0,0,.21,0,.26.26,0,0,0,.13-.08.22.22,0,0,0,.16-.21l0-.08a.28.28,0,0,0,0-.09.28.28,0,0,0-.12-.24l-.06,0h-.12a.4.4,0,0,0-.34.08Z"/><path class="cls-3" d="M227.13,87.73l.08-.07,0-.08V87.5a.71.71,0,0,0,0-.16l0-.08,0-.07-.12-.06a.32.32,0,0,0-.27,0l-.06,0,0,0,0,.11a.48.48,0,0,0,0,.18.3.3,0,0,0,.16.26h.14l0,0v0A.32.32,0,0,0,227.13,87.73Z"/><rect class="cls-2" x="234.95" y="50.95" width="22.4" height="21.34" transform="translate(-2.48 10.94) rotate(-2.53)"/><path class="cls-3" d="M242.53,55.78l0,0h-.08a.12.12,0,0,0-.1.06h0l0,0a.12.12,0,0,0,0,.11.11.11,0,0,0,.11.05.11.11,0,0,0,.11-.07v-.06a.21.21,0,0,0,0-.08Z"/><path class="cls-3" d="M244.64,59.42h.05a.24.24,0,0,0,.18-.13v-.07l0,0-.07,0h-.1l-.06,0,0,.07a.18.18,0,0,0,.05.15Z"/><path class="cls-3" d="M244.92,62.18h0l0,0,0,0,0,0a.23.23,0,0,0,.07.13l.05,0,0,0,.06,0a.13.13,0,0,0,0-.19h0v0l0,0Z"/><path class="cls-3" d="M236.09,61.64a.14.14,0,0,0-.12.11v.06l0,0,.06,0h0a.12.12,0,0,0,.12-.09v-.06l0-.06Z"/><path class="cls-3" d="M250.09,63.82a.15.15,0,0,0,0-.12l0,0,0,0h0l0,0h-.05l0,0a.13.13,0,0,0,0,.15h0v0l0,0H250A.13.13,0,0,0,250.09,63.82Z"/><path class="cls-3" d="M245.05,63h0a.23.23,0,0,0,.14-.13v-.06l0-.05-.06,0,0,0,0,0H245a.09.09,0,0,0-.09,0h0l-.07,0a.14.14,0,0,0-.1.06v0a.16.16,0,0,0,0,.12l0,0,0,0h.11v0l0,0h0a.34.34,0,0,0,.1,0Z"/><path class="cls-3" d="M239.23,58.16h0a.13.13,0,0,0-.12.08h0a.18.18,0,0,0,0,.13l0,0,0,0,0,0h0a.11.11,0,0,0,.09-.05s0,0,0,0a.12.12,0,0,0,0-.15l0,0Z"/><path class="cls-3" d="M239.65,69.85h-.05a.14.14,0,0,0-.12.11V70l0,0,.08,0a.14.14,0,0,0,.13-.09.13.13,0,0,0,0-.14Z"/><path class="cls-3" d="M238.6,55.19l0,0h0l0,0a.13.13,0,0,0-.06.17l0,0,0,0h0l.08,0a.11.11,0,0,0,.08,0l0-.08v0h0a.11.11,0,0,0,0-.1A.1.1,0,0,0,238.6,55.19Z"/><path class="cls-3" d="M238.52,66.73l-.06,0,0,0h0a.15.15,0,0,0-.07.18l0,0,.07,0h0l.08,0,0,0,0,0v-.08A.17.17,0,0,0,238.52,66.73Z"/><path class="cls-3" d="M238.28,68.3l0-.06a.07.07,0,0,0-.06,0,.11.11,0,0,0-.09,0h0l0,0v0l0,0a.13.13,0,0,0-.05.1.2.2,0,0,0,.06.14.19.19,0,0,0,.15.06.18.18,0,0,0,.17-.17v0Z"/><path class="cls-3" d="M238.26,63.64h0l0,0,0,0v-.07l0,0,0,0-.06,0-.06,0,0,0h0c-.06,0-.06.09,0,.11a.12.12,0,0,0,.1.08h0Z"/><path class="cls-3" d="M241.84,59.69h0l.07,0,.05-.05h0a.14.14,0,0,0,.11-.1l0-.05,0,0a.06.06,0,0,0,0-.05v0l0-.05-.07,0v.07h0l0-.08h-.07l-.07,0a.22.22,0,0,0-.1.07v0s0,0,0,.06a.11.11,0,0,0,0,.08v.07l0,0a.11.11,0,0,0,.11.09S241.82,59.72,241.84,59.69Z"/><path class="cls-3" d="M237.75,59h.08l0,0,0,0,0,0a.16.16,0,0,0-.1-.18h-.08l-.05,0,0,0v0l0,.06A.15.15,0,0,0,237.75,59Z"/><path class="cls-3" d="M242.84,63v0s0,0-.06,0h0l0,0,0,0h-.05l-.08,0h-.05l0,0a.25.25,0,0,0,.08.32h.17a.23.23,0,0,0,0-.05l0,0a.15.15,0,0,0,0-.13Z"/><path class="cls-3" d="M241.94,51.88h0a.11.11,0,0,0-.11-.08h-.1l0,0,0,0,0,0,0,0,0,.06s0,0,0,0a.13.13,0,0,0,0,.16v0a.33.33,0,0,0,.15.11h.1l.05,0,0,0,0,0a.09.09,0,0,1,0,0s0-.05,0-.07Z"/><path class="cls-3" d="M242.54,72.28l0,0a.24.24,0,0,0-.09,0,.2.2,0,0,0-.08,0,.17.17,0,0,0,0,.1l0,0,0,0,0,0h.07l.05,0,0,0,0-.06v0Z"/><path class="cls-3" d="M242.23,66.8l0,0,0,0,0,0v0a.16.16,0,0,0,0,.15v0a.1.1,0,0,0,.1,0,.12.12,0,0,0,.09,0h0l0,0,0-.07A.17.17,0,0,0,242.23,66.8Z"/><path class="cls-3" d="M244.08,68.06H244l0,0c0,.11,0,.18,0,.21h0a.18.18,0,0,0,.13.06h0l0,0,0,0a.17.17,0,0,0,.06-.1v0A.32.32,0,0,0,244.08,68.06Z"/><path class="cls-3" d="M242.84,64.16l0,0h0l-.07,0h0l0,0,0,0v0a.16.16,0,0,0,0,.15.17.17,0,0,0,.1.06h.06l0,0a.15.15,0,0,0,.08-.12.16.16,0,0,0,0-.11Z"/><path class="cls-3" d="M240,65.57l0,0h-.08a.16.16,0,0,0-.14.07v0a.18.18,0,0,0,.09.18h.09l0,0a.15.15,0,0,0,.08-.19Z"/><path class="cls-3" d="M241.14,61.37h0a.2.2,0,0,0-.08,0H241s0,0,0,0h0l0,0,0,0a.12.12,0,0,0,.13.13h0l.07,0h0l.06,0V61.5a.09.09,0,0,0,0-.11Z"/><path class="cls-3" d="M240.78,57.83a.11.11,0,0,0,0-.12.12.12,0,0,0-.07-.07h-.06l0,0v0l0,0a.13.13,0,0,0-.06.12s0,.06.07.09h.06l.05,0Z"/><path class="cls-3" d="M234.92,55.74l-.06,0h-.07l-.06,0,0,0a.2.2,0,0,0,0,.11l0,0,0,0h.12l0,0,0,0,0-.07h0v-.05Z"/><path class="cls-3" d="M236,67.24a.14.14,0,0,0-.11-.06h0l0,0,0,0s0,0,0,.08v.07l0,0,.05,0h0c.17,0,.19-.1.19-.16l0,0Z"/><path class="cls-3" d="M256.81,58.18h0l0,0,0,0,0,0a.16.16,0,0,0,0-.11.16.16,0,0,0-.13,0h0l0,0,0,0,0,0a.22.22,0,0,0,0,.12A.17.17,0,0,0,256.81,58.18Z"/><path class="cls-3" d="M252.42,60.48h-.07l0,0,0,0s0,0,0,.06l0,.06,0,0h0a.13.13,0,0,0,.11,0,.11.11,0,0,0,0-.1l0,0Z"/><path class="cls-3" d="M252.09,58.51a.19.19,0,0,0-.13,0c-.09,0-.14.07-.13.13v0a.14.14,0,0,0,.08.12H252l.05,0,0-.05,0,0v-.07Z"/><path class="cls-3" d="M253.25,63.33l0,0h-.06a.19.19,0,0,0-.14.08.2.2,0,0,0,0,.17l0,0,0,0h0a.15.15,0,0,0,.08,0h0l0,0,0,0a.21.21,0,0,0,0-.23Z"/><path class="cls-3" d="M253.25,61.44h0l0,0,0,0,0,0v.11l0,0,0,0a.14.14,0,0,0,.09,0,.16.16,0,0,0,.12-.06l0,0a.18.18,0,0,0,0-.13A.22.22,0,0,0,253.25,61.44Z"/><path class="cls-3" d="M253.34,70.62h-.05l0,0a.14.14,0,0,0,0,.07v.06l0,0,0,0,0-.06,0,.06h.07l0,0,0-.07A.12.12,0,0,0,253.34,70.62Z"/><path class="cls-3" d="M251.3,67.69l0,0,0,0,0,0a.15.15,0,0,0,0,.13.19.19,0,0,0,.11,0h0l0,0,0,0v0A.16.16,0,0,0,251.3,67.69Z"/><path class="cls-3" d="M251.26,55.34l0,0,0,0,0,0-.06,0a.19.19,0,0,0-.15.16l0,.05,0,0,0,0h0l.08,0a.12.12,0,0,0,.08-.1v0Z"/><path class="cls-3" d="M252.3,64l0,0h-.08l-.05,0,0,0v.06a.12.12,0,0,0,.09.13h.05l0,0a.12.12,0,0,0,.05-.16Z"/><path class="cls-3" d="M245.08,70.63a.13.13,0,0,0-.09,0l0,0v0c0,.05,0,.14.17.14l0,0h0l0,0,0,0a.15.15,0,0,0,0-.13A.16.16,0,0,0,245.08,70.63Z"/><path class="cls-3" d="M253.11,55.59H253l0,0,0,0v.08l0,0,0,0,.06,0h.08l0,0,0,0,0,0a.16.16,0,0,0,0-.12A.12.12,0,0,0,253.11,55.59Z"/><path class="cls-3" d="M254.61,57.85l-.06,0,0,0a.14.14,0,0,0-.06.11v0l0,0,0,0a.08.08,0,0,0,.07,0,.13.13,0,0,0,0-.26Z"/><path class="cls-3" d="M257,61.11l0-.06V61l0,0,0,0h-.11l0,0a.13.13,0,0,0,0,.12.18.18,0,0,0,.08.11H257Z"/><path class="cls-3" d="M254.86,68.75h0a.1.1,0,0,0-.09-.09h-.06a.22.22,0,0,0-.14.06.23.23,0,0,0,0,.17l0,.05,0,0a.1.1,0,0,0,.09,0h.07a.11.11,0,0,0,.11-.1v-.1Z"/><path class="cls-3" d="M257.58,67.27a.2.2,0,0,0-.08,0,.17.17,0,0,0-.1,0,.26.26,0,0,0-.16.09l0,0v0a.22.22,0,0,0,.05.18.16.16,0,0,0,.16,0h.05l0,0,0,0,0,0a.1.1,0,0,0,0,0A.16.16,0,0,0,257.58,67.27Z"/><path class="cls-3" d="M249.68,68.54a.14.14,0,0,0,.11,0l0,0v-.06c0-.15-.11-.16-.15-.16h0l0,0,0,0v0a.15.15,0,0,0,0,.08l0,0,0,0,0,0Z"/><path class="cls-3" d="M254,66.61h-.07a.14.14,0,0,0-.11,0l0,0v.09h0c0,.07,0,.11.1.12h0a.16.16,0,0,0,.11-.29Z"/><path class="cls-3" d="M255.47,63.09a.1.1,0,0,0-.09-.07l-.07,0a.1.1,0,0,0-.09,0v.09a.19.19,0,0,0,0,.08v0l0,0,0,0h.07a.2.2,0,0,0,.19-.17l0-.06Z"/><path class="cls-3" d="M254.17,53.36h0l.06,0h.05a.11.11,0,0,0,.09-.07v-.07a.43.43,0,0,1,0-.05s0,0,0-.07l0,0,0,0h-.07a.16.16,0,0,0-.13.21A.1.1,0,0,0,254.17,53.36Z"/><path class="cls-3" d="M254.74,65.22l-.06.07v0h0v.06h0v0l.07.06a.12.12,0,0,0,.12-.12.18.18,0,0,0,0-.1A.17.17,0,0,0,254.74,65.22Z"/><path class="cls-3" d="M247.25,66.88l0-.06h0a.14.14,0,0,0,0-.11s0-.06-.05-.07l0,0-.06,0a.2.2,0,0,0-.07,0h0l0,0h0l0,0,0,0a.16.16,0,0,0,0,.14.21.21,0,0,0,.14.07Z"/><path class="cls-3" d="M247.39,61.23h0v0l0,0h-.15l-.05,0a.16.16,0,0,0,0,.07v.11a.14.14,0,0,0,.06.1h0a.11.11,0,0,0,.09.05.15.15,0,0,0,.09-.06l0,0,0,0,0,0,0,0a.09.09,0,0,0,0-.09Z"/><path class="cls-3" d="M247.5,64.76h0v0l0,0h0a.21.21,0,0,0-.1,0,.12.12,0,0,0-.08,0h0l0,0v0a.18.18,0,0,0,0,.07V65l0,0,.05,0a.57.57,0,0,0,.16,0h0l0,0,0,0,0,0v0l0,0h0l0,0v0A.15.15,0,0,0,247.5,64.76Z"/><path class="cls-3" d="M247.46,70.32l0,0h0a.13.13,0,0,0-.13.13.12.12,0,0,0,.12.12h0l0,0,0-.05a.08.08,0,0,1,0,0v-.06Z"/><path class="cls-3" d="M246.36,57.92h0v0h-.1l0,0,0,0a.17.17,0,0,0,0,.12h0a.1.1,0,0,0,.05.09h0l0,0a.13.13,0,0,0,.08,0h.08l0,0,0,0,0,0a.28.28,0,0,0,0-.21Z"/><path class="cls-3" d="M248.32,60.16l0,0-.05,0h-.07a.33.33,0,0,0-.18.08l0,0v.06a.25.25,0,0,0,.28.2h.05l0,0a.08.08,0,0,0,0,0,.16.16,0,0,0,0-.07l0,0A.1.1,0,0,0,248.32,60.16Z"/><path class="cls-3" d="M246,54.57h0l.06,0,0,0,0,0v-.12l0,0,0,0-.05,0H246l0,0a.2.2,0,0,0,0,.15l0,0,0,0Z"/><path class="cls-3" d="M245.77,61.26l0,0h0a.19.19,0,0,0-.06-.07h-.17l0,0,0,0v0a.19.19,0,0,0,0,.13l0,0h.08l.09,0h0l0,0,0,0v-.05h0Z"/><path class="cls-3" d="M250,70.35a.09.09,0,0,0,0-.07l-.05,0a.09.09,0,0,0-.07,0l-.06,0,0,0v0a.16.16,0,0,0-.06.16v0l0,0,0,0,.11,0a.19.19,0,0,0,.16-.1v-.07l0,0Z"/><path class="cls-3" d="M249.65,54.81a.16.16,0,0,0,.08,0l.06,0h0a.15.15,0,0,0,.07-.07s0-.06,0-.07a.15.15,0,0,0-.16-.14l-.08,0,0,0v0l0,0A.15.15,0,0,0,249.65,54.81Z"/><path class="cls-3" d="M248.45,50.89l0,0,0,0h-.1a.18.18,0,0,0-.13.06.2.2,0,0,0,0,.16l0,0,0,0,0,0h0l.05,0h0l.06,0a.17.17,0,0,0,.07-.21Z"/><path class="cls-3" d="M249.67,53.24h0l0,0,0,0h.05a.19.19,0,0,0,.16-.12.13.13,0,0,0-.05-.13h0l0,0-.06,0a.26.26,0,0,0-.15.07v.1A.05.05,0,0,0,249.67,53.24Z"/><path class="cls-3" d="M245.4,65.88l0,0h0a.1.1,0,0,0-.07,0h-.07a.16.16,0,0,0-.06.13.19.19,0,0,0,.11.14h.06l0,0,0,0a.15.15,0,0,0,0-.13Z"/><path class="cls-3" d="M250.27,61.41h-.06s-.08,0-.1.1a.21.21,0,0,0,0,.15h.07a.12.12,0,0,0,.1-.1.19.19,0,0,0,0-.15Z"/><path class="cls-3" d="M248.34,62.65l0,0,0,0,0,0,0,0h-.14l0,0a.13.13,0,0,0,0,.17c0,.1.08.1.11.1h.06l0,0,0,0a.19.19,0,0,0,0-.15Z"/><path class="cls-3" d="M250.6,62h-.15l0,0,0,0a.24.24,0,0,0,0,.2l0,0,0,0,0,0h.1l0,0a.21.21,0,0,0,.15-.1l0,0,0,0v0A.19.19,0,0,0,250.6,62Z"/><path class="cls-3" d="M249.31,65.66a.13.13,0,0,0-.1.1.13.13,0,0,0,.1.14h.07l0,0,0-.07C249.4,65.67,249.34,65.66,249.31,65.66Z"/><path class="cls-3" d="M250.22,64.37l-.06,0-.09,0a.12.12,0,0,0-.11.08v0a.13.13,0,0,0,0,.12l0,0,0,0a.2.2,0,0,0,.1,0h0l.05,0,0,0v0a.08.08,0,0,0,0-.05v0Z"/><path class="cls-3" d="M249.14,56.7h.05a.08.08,0,0,0,.07,0h.06l0,0,0,0v0a.14.14,0,0,0,0-.1s0,0,0-.06a.11.11,0,0,0-.1-.08l0,0h0a.13.13,0,0,0-.11.07v.08a.24.24,0,0,0,0,.17Z"/><path class="cls-3" d="M249.75,64.31l0,0,0,0h0a.15.15,0,0,0-.08,0h0l0,0,0,0a.17.17,0,0,0,0,.14l0,0,0,0,.05,0,.09,0a.13.13,0,0,0,.12-.08v-.09h0A.25.25,0,0,0,249.75,64.31Z"/></g></svg>