<svg xmlns="http://www.w3.org/2000/svg" viewBox="0 0 342.67 338.75"><defs><style>.cls-1{fill:#8d5c25;}.cls-2{fill:#fff;}.cls-3{fill:none;}</style></defs><title>kombucha</title><g id="Layer_2" data-name="Layer 2"><path class="cls-1" d="M267.49,18.27A44.47,44.47,0,0,1,308.78,40a44.45,44.45,0,0,1-2.25,46.61c-5.62,8-13.79,13.85-19.48,21.76-21.18,29.48-.47,70.46-4.68,106.51-3.56,30.42-24.81,62.89-8.56,88.85,3,4.8,7.37,10,5.49,15.39-2.31,6.59-11.5,6.69-18.37,5.37-34.5-6.64-68.38-17.61-103.46-19.52-39.14-2.13-79.9,6.93-116.73-6.47-8.88-3.23-18.68-13.31-12.47-20.43,2.2-2.53,5.7-3.38,8.94-4.27,20.45-5.59,16-26.36,22.88-46.41,10.47-30.38-.43-66.16,13.55-95.1,3.86-8,10.3-16.83,6.25-24.72-2.58-5-6.28-4.09-9-9C59.66,77.84,51.79,79.81,57.64,56.85,62,39.75,74.29,29.58,91.4,25.24,154.78,9.16,267.49,18.27,267.49,18.27Z"/><path class="cls-2" d="M169.74,3.41C140.49-1.46,108.3,13,97.14,36c-2,4.18-3.43,8.71-2.76,13.18,1.12,7.46,8,13.67,16,17.13s17.19,4.61,26.17,5.52a648.14,648.14,0,0,0,114.79,1.4c7-.54,14.89-1.62,18.8-6.47,3.44-4.27,2.43-10.19-.82-14.55S261,44.68,256,41.64C232.83,27.43,209.06,13,181.51,6c-5.07-1.28-10.57-2.29-15.59-.88"/><rect class="cls-3" x="207.96" y="200.16" width="105.08" height="117.2" transform="translate(-104.48 298.83) rotate(-51.07)"/><path class="cls-2" d="M268.25,252.68l.06-.13,0-.17,0-.45v-.13a1.2,1.2,0,0,0-.25-.55l-.13-.11-.22-.12-.17-.05-.45,0H267a1.23,1.23,0,0,0-.58.26l-.11.13-.11.23-.05.16,0,.45v.12s0,0,0,.07h0l-.1.13-.19.32-.05.16,0,.24,0,.17a1.67,1.67,0,0,0,.6.89,1.37,1.37,0,0,0,.23.17l.14,0,.2.05h.14l.34,0,.14-.05.19-.09.12-.08a1.49,1.49,0,0,0,.47-1.15A1.32,1.32,0,0,0,268.25,252.68Z"/><path class="cls-2" d="M200.66,273.28v-.49l-.08-.23-.18-.28-.19-.16L200,272l-.09-.09-.15-.13a2.11,2.11,0,0,0-1.08-.46l-.27,0-.33.18-.19.19-.22.47,0,.27.07.36.13.24.17.17.06.06a2.86,2.86,0,0,0,.4.38,1.58,1.58,0,0,0,1.75.27l.18-.16.18-.29Z"/><path class="cls-2" d="M292.78,228.31l.18-.12.14-.15a1.16,1.16,0,0,0,0-1.57l-.12-.09-.19-.1-.15,0h0l-.16-.07-.22,0h-.15l-.32.06-.12,0-.18.1-.1.08a1.3,1.3,0,0,0-.36,1,1.26,1.26,0,0,0,.48.87,1.8,1.8,0,0,0,.25.17l.15,0,.24,0h.16l.36-.09Z"/><path class="cls-2" d="M252.34,227.32a1.38,1.38,0,0,0,.95-.57l.07-.15,0-.23v-.17l0-.37-.06-.15-.11-.2-.1-.12a1.66,1.66,0,0,0-.6-.3l-.25-.13-.2,0h-.43l-.19.05-.25.12-.15.13a1.3,1.3,0,0,0,.2,1.83A1.45,1.45,0,0,0,252.34,227.32Z"/><path class="cls-2" d="M287.44,304l0-.07.06-.18v-.08l0-.11v-.08a1.27,1.27,0,0,0-.5-1,1.34,1.34,0,0,0-2.18,1.27l0,.08.07.17.09.16.05.07.07.08.06.06.37.3.15.08.23.06.17,0,.38,0,.16-.05.21-.12.13-.1.3-.37,0-.07Z"/><path class="cls-2" d="M266.94,277.39l.05-.17v-.49l0-.15a1.26,1.26,0,0,0-.47-.71l-.09-.06-.15-.07-.24,0h-.16l-.35.06-.14.05-.18.12-.12.1-.22.27-.08.15-.07.23v.17l0,.38.05.16.11.21.11.13.18.15.14.07.21.07.16,0h.39l.07,0a1.15,1.15,0,0,0,.55-.24l.12-.15Z"/><path class="cls-2" d="M239.42,195.36l.05-.2V195a1.37,1.37,0,0,0-.49-.91,1.23,1.23,0,0,0-1.66.09l-.07.07-.07.12-.05.09-.08.22,0,.1,0,.14V195a1.29,1.29,0,0,0,.46.87,1.38,1.38,0,0,0,1.35.18l.12-.07.16-.13.09-.11.18-.28Z"/><path class="cls-2" d="M258.61,321.2l-.08-.09-.13-.12-.1-.07-.27-.12-.12,0-.18,0h-.12a1.83,1.83,0,0,0-1.38,1.77l.09.28.24.32.24.16.51.13.28,0,.35-.15.18-.14.1-.11Q259.15,322,258.61,321.2Z"/><path class="cls-2" d="M308.71,244.77l.06-.42v-.14l0-.17-.09,0,.07-.16a1.44,1.44,0,0,0-.45-.74,1.16,1.16,0,0,0-1.36-.06l-.12.12-.13.19-.07.15-.09.36v.31l0,.12a1.49,1.49,0,0,0,.48.88,1.17,1.17,0,0,0,1.35.08l.14-.14.16-.22Z"/><path class="cls-2" d="M281.21,254.79V255l0,.19a1.22,1.22,0,0,0,.45,1,1.26,1.26,0,0,0,.3.18l.1,0,.15,0h.35l.1,0,.13,0,.1,0a1.21,1.21,0,0,0,.6-.94,1.49,1.49,0,0,0-.55-1.21,1.14,1.14,0,0,0-1-.22l-.09,0-.12.07-.08.07-.21.2-.11.18Z"/><path class="cls-2" d="M208,245.16l-.2-.16-.09-.05-.14-.06-.1,0-.27,0h-.12l-.16,0-.1,0a1.24,1.24,0,0,0-.83,1,1.35,1.35,0,0,0,.49,1.23,1.27,1.27,0,0,0,1.12.25,1.11,1.11,0,0,0,.75-.62A1.18,1.18,0,0,0,208,245.16Z"/><path class="cls-2" d="M248.68,286.78l0-.21v-.14l-.07-.33-.06-.13-.11-.18-.09-.11-.19-.14-.13-.08-.22-.07-.15,0-.41,0h-.1a1.28,1.28,0,0,0-.47.22l-.14.17-.13.29,0,.22.06.48,0,.16.13.21.11.13a1.27,1.27,0,0,0,1.1.29,1.19,1.19,0,0,0,.8-.67Z"/><path class="cls-2" d="M223.65,255.88l-.12-.13-.22-.14-.16-.07-.18,0-.06-.07-.17-.1-.42-.13-.2,0-.28.05-.19.08a1.21,1.21,0,0,0-.21,1.79l.31.07.12.19.5.12,0,0,.16.12a1.16,1.16,0,0,0,1.14-.56A1.11,1.11,0,0,0,223.65,255.88Z"/><path class="cls-2" d="M314.54,267.6l.19-.15.19-.28.08-.23,0-.49,0-.23-.16-.29-.18-.17-.07,0a1.3,1.3,0,0,0-1.85.36l-.06.15,0,.21v.15l0,.34.05.15.1.2.1.12.06.05A1.5,1.5,0,0,0,314.54,267.6Z"/><path class="cls-2" d="M273.75,229.8l.2-.1.13-.09a1.29,1.29,0,0,0-.11-2l-.09-.06-.15-.07-.23-.06h-.17l-.36.05-.15.05-.2.12-.12.1-.22.28-.08.15-.07.23v.16l0,.38,0,.16.11.21.11.13.28.23.14.07.22.07.16,0,.36,0Z"/><path class="cls-2" d="M219.85,228.93l.27.22.15.08.21.07.16,0,.37,0,.15,0,.21-.09.13-.1a1.28,1.28,0,0,0-.11-2l-.09-.07-.15-.07-.23-.05h-.17l-.36.06-.15,0-.2.11-.12.1-.22.28-.08.15-.07.23,0,.17.05.38,0,.16.11.21Z"/><path class="cls-2" d="M244.38,258.78l-.13-.1-.22-.1-.17,0h-.38l-.17,0-.23.09-.14.09a1.33,1.33,0,0,0-.48,1v.09l0,.13,0,.08.13.25.05.08.08.1.07.07a1.16,1.16,0,0,0,1.58-.13A1.19,1.19,0,0,0,244.38,258.78Z"/><path class="cls-2" d="M241.92,241.43l0-.48-.06-.18-.13-.24-.12-.13a1.27,1.27,0,0,0-1.08-.29,1.2,1.2,0,0,0-.8.64l0,.14,0,.2v.14l.07.33.05.14.11.18.1.12,0,0a1.35,1.35,0,0,0,1.58.1l.16-.17.14-.29Z"/><path class="cls-2" d="M242.24,270a1.46,1.46,0,0,0-.24-.17l-.14,0-.21,0h-.14l-.35.06-.14.05-.19.12-.11.09-.15.19-.08.15-.07.23v.17l0,.38.05.16.11.21.11.13.28.22.14.08.21.06.16,0,.37,0,.16,0,.2-.1.13-.09a1.25,1.25,0,0,0,.36-.94A1.27,1.27,0,0,0,242.24,270Z"/><path class="cls-2" d="M326.92,245.84l-.15-.11-.24-.1-.18,0h-.07l0,0a1.15,1.15,0,0,0-1.08.19l-.11.15-.12.23,0,.17,0,.48,0,.16a1.36,1.36,0,0,0,.43.68l.14.09.16.06.25.05h.18l.36-.09.14-.06.19-.13.13-.14A1.16,1.16,0,0,0,326.92,245.84Z"/><path class="cls-2" d="M266.66,290.62l0-.2v-.15l-.07-.33-.05-.13-.11-.18-.1-.11-.18-.15-.14-.07-.21-.07-.15,0h-.45a1.11,1.11,0,0,0-.53.22l-.14.17-.13.29,0,.22.05.47.05.17.12.21.11.13a1.27,1.27,0,0,0,1.1.3,1.18,1.18,0,0,0,.8-.65Z"/><path class="cls-2" d="M308,291.09l-.34-.09-.46.07H307a1.55,1.55,0,0,0-.91.73l-.07.22v.39l.05.44.15.29a1.38,1.38,0,0,0,1.95-.19h0A1.32,1.32,0,0,0,308,291.09Z"/><path class="cls-2" d="M281.49,292.66a1.18,1.18,0,0,0,.78-.58,1.28,1.28,0,0,0-.18-1.63l-.08-.1-.13-.1-.21-.1-.16,0h-.11l0,0a1.15,1.15,0,0,0-1-.05,1.18,1.18,0,0,0-.6.61,1.37,1.37,0,0,0,.44,1.73A1.45,1.45,0,0,0,281.49,292.66Z"/><path class="cls-2" d="M273.15,267.89l.17-.15.17-.26.07-.21,0-.47,0-.22-.12-.24.07-.12.07-.27v-.2l-.08-.4,0-.11h0v0a1.14,1.14,0,0,0-.39-.64,1.09,1.09,0,0,0-1.42,0l-.1.12-.12.18-.05.14-.07.35v.13l0,.15a1.26,1.26,0,0,0-.28.05,1.61,1.61,0,0,0-1.09.78l-.06.23,0,.33.08.22.27.4.19.15.3.13.23,0a3.29,3.29,0,0,1,.49,0A2.67,2.67,0,0,0,273.15,267.89Z"/><path class="cls-2" d="M274,202.6l0-.15,0-.1-.12-.28-.05-.09-.09-.12-.08-.08a1.13,1.13,0,0,0-1.25-.1,1.33,1.33,0,0,0-.68,1.31l.07.2.17.25.16.14.4.22.21,0h.3l.2-.05a1.41,1.41,0,0,0,.82-1.09Z"/><path class="cls-2" d="M230.06,295.46l-.07-.22-.08,0,.07-.06a1.44,1.44,0,0,0-.66-.73l-.13-.05-.2,0h-.15l-.32.05-.36.5.1.62.33.24v.12l.41.44.63,0,.45-.41v-.35Z"/><path class="cls-2" d="M253.94,264.21l.22-.06.14-.07a1.44,1.44,0,0,0,.78-1.17,1.34,1.34,0,0,0-.55-1.17,1.73,1.73,0,0,0-1.68-.31,1.53,1.53,0,0,0-1,1.2v.16l.05.22.06.15.2.31.11.12.18.13.11.06.17.09a2,2,0,0,0,1,.36Z"/><path class="cls-2" d="M281.75,242.72l.13.22.11.13a1.57,1.57,0,0,0,.61.29,1.08,1.08,0,0,0,1.38-.29,1.36,1.36,0,0,0,.29-.95,1.09,1.09,0,0,0-.41-.75l-.31-.09h-.16l-.11,0-.21-.07-.16,0h-.44a1.25,1.25,0,0,0-.54.23l-.14.17-.12.29,0,.21.05.48Z"/><path class="cls-2" d="M295.45,259.31l-.13-.07-.2-.07-.14,0h-.17l0,0h-.4l-.17,0-.23.11-.14.1a1.43,1.43,0,0,0-.23,1.6l.18.21.3.17,0,0,.21.17h.5l.22-.06.27-.16-.15-.27.24.22-.13-.13.14.12-.19-.16-.09-.09v0l.35.21a1.28,1.28,0,0,0,.45-1A1.07,1.07,0,0,0,295.45,259.31Z"/><rect class="cls-3" x="201.48" y="184.2" width="112.89" height="101.22" transform="translate(-75.19 338.22) rotate(-59.56)"/><path class="cls-2" d="M251,228.29l-.12,0-.17,0-.44.05-.13,0a1.08,1.08,0,0,0-.48.3l-.09.15-.08.23,0,.17,0,.43,0,.11a1.14,1.14,0,0,0,.33.52l.14.08.23.08.17,0,.42,0,.12,0,.06,0,0,0,.13.08.34.12.16,0h.23l.15,0a1.68,1.68,0,0,0,.77-.7,2,2,0,0,0,.13-.25l0-.13v-.34l-.09-.32-.06-.13-.11-.16-.1-.1a1.38,1.38,0,0,0-1.16-.29A1,1,0,0,0,251,228.29Z"/><path class="cls-2" d="M280.27,289.75l-.47.08-.21.1-.24.22-.12.2a.82.82,0,0,1-.07.19l-.07.11-.1.15a2.08,2.08,0,0,0-.29,1.1l.08.25.21.29.21.15.48.15h.26l.34-.12.21-.16.14-.19.05-.06c.1-.14.21-.28.3-.43a1.55,1.55,0,0,0,0-1.71l-.19-.15-.3-.13Z"/><path class="cls-2" d="M224.33,208.37l-.15-.15-.15-.11a1.11,1.11,0,0,0-1.5.23l-.07.12-.06.2,0,.14v0l0,.16v.22l0,.15.1.29.06.11.12.15.09.09a1.16,1.16,0,0,0,1.72-.37,1.57,1.57,0,0,0,.12-.26l0-.16V209l0-.15-.13-.33Z"/><path class="cls-2" d="M229.14,247.05a1.4,1.4,0,0,0-.68-.83l-.15,0-.23,0h-.16l-.35.11-.14.07-.17.14-.1.11a1.67,1.67,0,0,0-.2.62l-.09.25v.2l.06.41.07.17.16.22.14.13a1.27,1.27,0,0,0,1.72-.45A1.49,1.49,0,0,0,229.14,247.05Z"/><path class="cls-2" d="M297.21,202.7l-.07,0-.18,0h-.26a1.26,1.26,0,0,0-.87.62,1.33,1.33,0,0,0,.09,1.49,1.31,1.31,0,0,0,1.43.41l.07,0,.16-.09.14-.12,0-.05.08-.08,0-.07.23-.39.06-.16,0-.22v-.17l-.09-.35-.08-.15-.13-.18-.12-.11-.4-.23-.07,0Z"/><path class="cls-2" d="M274.76,226h-.17l-.47.05-.14,0a1.24,1.24,0,0,0-.61.54l0,.1,0,.15v.23l0,.16.11.32.07.12.13.17.11.09.3.17.16.06.22,0h.17l.35-.09.15-.07.18-.14.11-.12.12-.2,0-.14,0-.21v-.15l-.07-.37,0-.07a1.2,1.2,0,0,0-.32-.49l-.15-.09Z"/><path class="cls-2" d="M200.52,263.89h-.33a1.32,1.32,0,0,0-.8.6,1.22,1.22,0,0,0,.32,1.58l.09,0,.12.06.09,0,.22,0h.33a1.25,1.25,0,0,0,.75-.56,1.32,1.32,0,0,0,0-1.32l-.08-.1-.14-.13-.12-.08-.29-.12Z"/><path class="cls-2" d="M317.68,227.73l-.07.08-.1.15,0,.1-.08.28,0,.11v.17l0,.12a1.74,1.74,0,0,0,1.88,1.06l.25-.12.27-.27.12-.25,0-.51-.06-.26-.2-.32-.16-.14-.12-.09C318.75,227.35,318.16,227.31,317.68,227.73Z"/><path class="cls-2" d="M237.74,190.86h-.4l-.13,0-.16.05,0,.09-.16,0a1.36,1.36,0,0,0-.65.53,1.13,1.13,0,0,0,.14,1.3l.13.1.2.1.15,0,.36,0h.12l.17,0,.12,0a1.41,1.41,0,0,0,.77-.58,1.14,1.14,0,0,0-.12-1.3l-.15-.11-.23-.12Z"/><path class="cls-2" d="M251.2,215.64l.21,0,.17-.06a1.15,1.15,0,0,0,.87-.57,1.26,1.26,0,0,0,.13-.31l0-.1v-.25l0-.23,0-.09-.06-.13-.05-.08a1.15,1.15,0,0,0-1-.44,1.46,1.46,0,0,0-1.08.7,1.06,1.06,0,0,0-.06,1l0,.09.09.11.07.06.22.17.19.08Z"/><path class="cls-2" d="M252.43,286.77l-.11.22,0,.09,0,.14v.47l0,.15,0,.1a1.2,1.2,0,0,0,1,.65,1.28,1.28,0,0,0,1.19-1.74,1.1,1.1,0,0,0-.71-.63A1.14,1.14,0,0,0,252.43,286.77Z"/><path class="cls-2" d="M286.3,242.08h-.2l-.13,0-.3.12-.12.07-.16.12-.09.11-.11.2-.05.14,0,.21v.15l.08.39,0,.09a1.15,1.15,0,0,0,.27.42l.19.11.29.08h.22l.45-.13.14-.07L287,244l.1-.12a1.23,1.23,0,0,0,.12-1.1,1.13,1.13,0,0,0-.75-.66Z"/><path class="cls-2" d="M260.42,270.32l-.1.14-.11.22,0,.16V271l-.05.07-.07.18-.07.42,0,.19.08.26.1.17a1.17,1.17,0,0,0,1.74-.05l0-.31.16-.14,0-.49,0,0,.09-.17a1.1,1.1,0,0,0-.69-1A1.06,1.06,0,0,0,260.42,270.32Z"/><path class="cls-2" d="M258.67,182.06l-.17-.16-.3-.14-.22,0-.48,0-.21.09-.25.2-.14.18,0,.08a1.26,1.26,0,0,0,.61,1.71l.15,0H258l.32-.1.14-.06.17-.13.1-.11,0-.07A1.44,1.44,0,0,0,258.67,182.06Z"/><path class="cls-2" d="M228.45,226.3l-.12-.18-.1-.12a1.32,1.32,0,0,0-1-.23,1.3,1.3,0,0,0-.81.62l-.05.1,0,.15,0,.23,0,.16.1.34.08.13.13.17.12.1.29.18.16.05.22,0h.17l.35-.09.15-.07.18-.14.11-.12.18-.3.05-.14,0-.22v-.15l-.08-.35Z"/><path class="cls-2" d="M235.29,277.77l.17-.29,0-.15,0-.22V277l-.07-.35-.06-.14-.12-.18-.11-.11a1.26,1.26,0,0,0-1-.23,1.24,1.24,0,0,0-.82.62l0,.09,0,.15,0,.23,0,.16.1.34.07.13.14.17.11.1.3.18.15.05.23,0h.16l.36-.09L235,278l.18-.14Z"/><path class="cls-2" d="M260.24,250.15l-.08.15-.06.22v.16l0,.37.05.16.11.2.11.13a1.36,1.36,0,0,0,1.07.31l.08,0,.11,0,.08,0,.22-.16.07,0,.09-.1.05-.07a1.14,1.14,0,0,0-1.93-1.2Z"/><path class="cls-2" d="M244.06,255l-.46.1-.16.07-.21.16-.11.14a1.25,1.25,0,0,0-.12,1.07,1.15,1.15,0,0,0,.73.67l.13,0h.2l.14,0,.3-.1.12-.08.16-.13.1-.11v0a1.27,1.27,0,0,0-.13-1.52l-.18-.12-.3-.1Z"/><path class="cls-2" d="M271.27,250.59a1.23,1.23,0,0,0-.12.26l0,.14v.2l0,.14.11.32.07.13.14.16.11.09.19.12.16,0,.23,0h.16l.36-.09.14-.07.19-.14.1-.12.18-.29.05-.15,0-.22V251l-.08-.35-.06-.14-.12-.18-.11-.11a1.19,1.19,0,0,0-.94-.21A1.24,1.24,0,0,0,271.27,250.59Z"/><path class="cls-2" d="M236.18,173.36l-.09.16-.06.24V174l0,0a1.11,1.11,0,0,0,.34,1l.15.08.24.08.17,0,.46-.05.15,0a1.2,1.2,0,0,0,.58-.5l.07-.14,0-.17v-.24l0-.17-.14-.34-.08-.12-.15-.16-.15-.1A1.11,1.11,0,0,0,236.18,173.36Z"/><path class="cls-2" d="M287.41,224.4h-.2l-.14,0-.3.12-.13.07-.15.13-.09.1-.12.2,0,.14,0,.21v.15l.06.34,0,.08a1.08,1.08,0,0,0,.28.48l.18.11.29.08h.22l.44-.12.16-.07.18-.15.11-.12a1.23,1.23,0,0,0,.13-1.09,1.16,1.16,0,0,0-.73-.67Z"/><path class="cls-2" d="M282,185l0,.34.14.42,0,.15a1.43,1.43,0,0,0,.82.76l.22,0,.3,0,0,0h0l.42-.11.25-.19a1.38,1.38,0,0,0,.15-1,1.36,1.36,0,0,0-.61-.81h0A1.27,1.27,0,0,0,282,185Z"/><path class="cls-2" d="M287.25,210a1.12,1.12,0,0,0-.68-.66,1.22,1.22,0,0,0-1.52.4l-.08.09-.08.14-.07.21,0,.16v.11l0,0a1.12,1.12,0,0,0,.09.95,1.09,1.09,0,0,0,.67.48,1.31,1.31,0,0,0,1.58-.66A1.41,1.41,0,0,0,287.25,210Z"/><path class="cls-2" d="M264.83,221.45l-.17-.14-.27-.12-.21,0-.45,0-.2.07-.21.15-.13,0-.27,0-.19,0-.37.13-.1.05h0a1.19,1.19,0,0,0-.56.47,1.07,1.07,0,0,0,.25,1.35l.12.08.19.08.15,0,.34,0,.12,0,.14,0a1.14,1.14,0,0,0,.09.26,1.55,1.55,0,0,0,.89.93l.23,0,.32-.07.2-.1.34-.32.11-.2.09-.31v-.22a2.18,2.18,0,0,1,0-.48A2.61,2.61,0,0,0,264.83,221.45Z"/><path class="cls-2" d="M202.51,230l-.14,0-.09,0-.25.16-.08.06-.1.11-.07.08a1.11,1.11,0,0,0,.08,1.2,1.27,1.27,0,0,0,1.35.46l.18-.09.22-.19.11-.17.15-.42V231l0-.29-.08-.19a1.35,1.35,0,0,0-1.15-.62Z"/><path class="cls-2" d="M297.22,258.58l-.2.11,0,.07-.07-.07a1.45,1.45,0,0,0-.48.49.83.83,0,0,0-.12.25l0,.13v.2l0,.14.09.29.52.28.58-.19.18-.35h.11l.37-.46-.07-.6-.46-.36-.33,0Z"/><path class="cls-2" d="M264.05,240.28l-.09-.2-.08-.13a1.44,1.44,0,0,0-1.23-.58,1.32,1.32,0,0,0-1,.69,1.73,1.73,0,0,0-.06,1.65,1.48,1.48,0,0,0,1.29.75l.15,0,.21-.08.13-.07.27-.24.09-.12.1-.2,0-.11a1,1,0,0,1,.07-.17,2,2,0,0,0,.19-1Z"/><path class="cls-2" d="M239.63,216.84l.19-.15.1-.13a1.6,1.6,0,0,0,.2-.62,1,1,0,0,0-.48-1.28,1.33,1.33,0,0,0-.94-.14,1.1,1.1,0,0,0-.66.49l0,.32,0,.15,0,.11,0,.21V216l.07.34,0,.08a1.17,1.17,0,0,0,.29.48l.19.11.28.08H239l.44-.12Z"/><path class="cls-2" d="M253.48,201.43l0,.13,0,.2v.14l0,.16,0,0,.06.38.06.16.13.2.12.12a1.38,1.38,0,0,0,1.55,0l.18-.21.12-.31h0l.13-.22-.07-.48-.08-.21-.2-.24-.23.19.17-.26-.11.15.1-.15-.13.19-.07.1,0,0,.16-.36a1.24,1.24,0,0,0-1-.3A1.11,1.11,0,0,0,253.48,201.43Z"/><rect class="cls-3" x="208.83" y="161.85" width="108.58" height="97.36" transform="matrix(1, -0.07, 0.07, 1, -14.65, 19.74)"/><path class="cls-2" d="M264.51,201.52l0-.13-.08-.14-.27-.33-.09-.08a1.13,1.13,0,0,0-.51-.21h-.16l-.23.06-.14.08-.32.26-.08.08a1.13,1.13,0,0,0-.23.54v.16l.06.22.08.15.26.31.08.08.06,0v.17l.09.33.06.14.13.18.12.11a1.62,1.62,0,0,0,1,.22l.27,0,.12-.05.17-.1.1-.09.2-.24.07-.11.07-.18,0-.14a1.35,1.35,0,0,0-.4-1.07A1.1,1.1,0,0,0,264.51,201.52Z"/><path class="cls-2" d="M231.84,258.25l-.32-.33-.19-.11-.31-.07h-.22l-.2.05h-.3a1.9,1.9,0,0,0-1,.37l-.16.2-.11.32V259l.14.46.15.21.28.2.24.07h.81A1.48,1.48,0,0,0,232,259l0-.22-.07-.31Z"/><path class="cls-2" d="M265.68,169.5l.05-.2v-.18a1.07,1.07,0,0,0-1-1.07l-.14,0-.19.06-.12.06h0l-.15.06-.18.11-.1.1-.18.24-.06.11,0,.17,0,.13a1.19,1.19,0,0,0,.35.86,1.15,1.15,0,0,0,.88.29,1.7,1.7,0,0,0,.28,0l.14-.07.17-.12.11-.11.18-.29Z"/><path class="cls-2" d="M237.7,194.44a1.35,1.35,0,0,0,.28-1l0-.14-.1-.2-.11-.12-.27-.21-.13-.07-.2-.06-.15,0a1.37,1.37,0,0,0-.59.18l-.26.07L236,193l-.29.28-.1.15-.09.24,0,.18a1.21,1.21,0,0,0,1.3,1.11A1.38,1.38,0,0,0,237.7,194.44Z"/><path class="cls-2" d="M310,224.09l0-.07-.08-.16,0-.07-.06-.08-.05-.06a1.23,1.23,0,0,0-1-.35,1.27,1.27,0,0,0-1.13.9,1.24,1.24,0,0,0,.46,1.35l.06,0,.15.07.17.05h.25l.44,0,.15,0,.2-.1.12-.09.24-.27.07-.14.07-.21,0-.15,0-.44v-.07Z"/><path class="cls-2" d="M279.28,219.06l-.08-.15-.3-.34-.11-.09a1.26,1.26,0,0,0-.77-.18l-.09,0-.15.05-.19.12-.11.1-.19.26-.06.13-.06.19v.14l0,.33,0,.15.1.2.1.12.27.23.13.08.21.07.16,0,.22,0,.14,0,.18-.09.12-.08.25-.26,0-.06a1.08,1.08,0,0,0,.21-.51v-.17Z"/><path class="cls-2" d="M208.73,181l-.1-.16-.09-.1a1.21,1.21,0,0,0-.9-.3,1.15,1.15,0,0,0-1.07,1.11v.09l0,.13,0,.09.09.2,0,.08.08.1.06.07a1.2,1.2,0,0,0,.86.29,1.26,1.26,0,0,0,1-.73l0-.12,0-.19v-.13l-.07-.3Z"/><path class="cls-2" d="M301.38,254l-.11,0h-.17l-.11,0-.26.09-.1.05-.13.09-.09.08a1.69,1.69,0,0,0,.19,2.07l.24.13.36.07.26-.05.43-.23.18-.2.14-.33,0-.2a.53.53,0,0,1,0-.14C302.26,254.6,302,254.12,301.38,254Z"/><path class="cls-2" d="M286.88,170.55l-.23-.32-.09-.1-.13-.09-.05.07-.05-.15a1.37,1.37,0,0,0-.78-.22,1.08,1.08,0,0,0-.95.82v.16l0,.21.05.15.17.3.07.09.12.11.09.07a1.32,1.32,0,0,0,.88.3,1.11,1.11,0,0,0,1-.81V171l0-.26Z"/><path class="cls-2" d="M274.62,194.74l.13.15.14.1a1.09,1.09,0,0,0,.92.38,2,2,0,0,0,.32-.06l.09,0,.12-.08.08-.06.15-.16.06-.08.07-.11,0-.09a1.08,1.08,0,0,0-.18-1,1.39,1.39,0,0,0-1.14-.48,1,1,0,0,0-.85.51l0,.09,0,.13,0,.09v.27l0,.19Z"/><path class="cls-2" d="M219,234.59l-.24,0-.09,0-.13.05-.09,0-.21.14-.08.07-.1.11-.06.09a1.14,1.14,0,0,0,.06,1.18,1.2,1.2,0,0,0,1.11.51,1.12,1.12,0,0,0,.91-.53,1.05,1.05,0,0,0,.12-.9A1.09,1.09,0,0,0,219,234.59Z"/><path class="cls-2" d="M272.87,237l-.11-.16-.1-.09-.25-.17-.12-.06-.19-.05h-.35l-.14,0-.19.09-.12.08-.26.28L271,237a1.26,1.26,0,0,0-.18.45v.2l.1.28.12.17.34.28.14.08.22.06.16,0a1.21,1.21,0,0,0,.93-.51,1.08,1.08,0,0,0,.11-.95Z"/><path class="cls-2" d="M236.37,231.91h-.16l-.23,0-.16.06-.13.09h-.08l-.19,0-.36.17-.15.12-.16.21-.07.17a1.11,1.11,0,0,0,1,1.34l.25-.15.2.06.42-.24v0l.18,0a1.08,1.08,0,0,0,.42-1.1A1.07,1.07,0,0,0,236.37,231.91Z"/><path class="cls-2" d="M305.27,182.3l0-.22-.05-.31-.09-.21-.29-.34-.19-.13-.29-.09h-.22l-.08,0a1.19,1.19,0,0,0-1,1.41l.05.14.1.17.09.1.25.21.13.07.19.07.14,0h.08A1.34,1.34,0,0,0,305.27,182.3Z"/><path class="cls-2" d="M253.75,182.56l.08-.2,0-.14a1.27,1.27,0,0,0-.39-1,1.24,1.24,0,0,0-.93-.3h-.1l-.15.05-.2.11-.11.1-.21.27-.07.13-.06.2,0,.14,0,.33,0,.15.1.2.09.12.27.24.14.07.21.07.15,0,.33,0,.15,0,.19-.09.12-.09.23-.25Z"/><path class="cls-2" d="M216.74,216.1l.33,0,.14,0,.19-.09.12-.09.23-.24.08-.13.08-.19,0-.15a1.19,1.19,0,0,0-.38-.95,1.24,1.24,0,0,0-.94-.31h-.1l-.15.05-.19.11-.12.1-.2.27-.07.13-.06.2,0,.14,0,.34.05.15.1.19.09.13.27.23.13.08.22.07Z"/><path class="cls-2" d="M252.24,220.75l-.16,0-.21.07-.14.08-.27.24-.09.12-.1.2,0,.16a1.28,1.28,0,0,0,.34,1l.06,0,.1.07.08,0,.24.09.08,0,.13,0h.08a1.08,1.08,0,0,0,1-1.1A1.1,1.1,0,0,0,252.24,220.75Z"/><path class="cls-2" d="M239.59,210.58l-.33-.31-.16-.09-.23-.07-.17,0a1.16,1.16,0,0,0-.91.5,1,1,0,0,0-.13.93l.05.12.11.16.09.09.25.18.13.06.19.06h.17a1.24,1.24,0,0,0,1.13-.94v-.21l-.08-.29Z"/><path class="cls-2" d="M257.92,229.72a1.28,1.28,0,0,0-.27.05l-.13,0-.16.11-.1.09-.19.27-.06.12-.06.2V231l.05.15.1.2.09.12.27.23.14.08.21.07.15,0,.33,0,.14,0,.19-.09.12-.08.24-.25.08-.13.07-.2,0-.14a1.12,1.12,0,0,0-1.24-1.16Z"/><path class="cls-2" d="M299.87,159.74l-.17,0-.23.08-.14.09-.05,0h0a1,1,0,0,0-.6.81V161l.07.23.08.14.29.34.12.09a1.15,1.15,0,0,0,.72.19l.15,0,.15-.06.2-.13.11-.12.19-.29.06-.13,0-.2v-.18A1.08,1.08,0,0,0,299.87,159.74Z"/><path class="cls-2" d="M287.47,228.19l-.11-.16-.1-.09-.26-.18-.12-.06-.19,0h-.35l-.14,0-.18.08-.12.09-.23.23-.06.07a1.12,1.12,0,0,0-.22.48v.21l.1.27.11.17.34.29.14.08.22.07.16,0a1.19,1.19,0,0,0,.93-.5,1.1,1.1,0,0,0,.13-.94Z"/><path class="cls-2" d="M315.71,202.34l-.29.16-.26.34-.1.1a1.4,1.4,0,0,0-.15,1.07l.09.19.2.22h0l0,0,.31.27.29.1a1.27,1.27,0,0,0,.88-.44,1.29,1.29,0,0,0,.31-.92h0A1.23,1.23,0,0,0,315.71,202.34Z"/><path class="cls-2" d="M298.79,220.18a1.06,1.06,0,0,0,.15-.89,1.17,1.17,0,0,0-1.15-1h-.26l-.22.07-.13.07-.08.06h0a1,1,0,0,0-.7.59,1,1,0,0,0,0,.79,1.26,1.26,0,0,0,1.38.89A1.34,1.34,0,0,0,298.79,220.18Z"/><path class="cls-2" d="M277.46,208.7l0-.2-.05-.29-.08-.19-.28-.33-.17-.12-.23-.09,0-.13-.12-.23-.12-.14-.31-.22-.09,0h0v0a1.1,1.1,0,0,0-.68-.19,1,1,0,0,0-.93.93v.14l0,.2.05.13.18.28.07.09.11.09-.16.21a1.52,1.52,0,0,0-.24,1.22l.11.19.22.21.19.11.44.09h.22l.29-.11.18-.13a2.48,2.48,0,0,1,.35-.28A2.46,2.46,0,0,0,277.46,208.7Z"/><path class="cls-2" d="M236.67,164l-.1-.08-.09-.05-.26-.12-.09,0-.14,0h-.1a1.06,1.06,0,0,0-.91.73,1.21,1.21,0,0,0,.37,1.31l.18.1.27.06H236l.41-.11.17-.1.2-.19.11-.17a1.3,1.3,0,0,0-.14-1.25Z"/><path class="cls-2" d="M265.77,254.63l-.19-.1,0,.07v-.09a1.45,1.45,0,0,0-.65-.12,1.32,1.32,0,0,0-.26.05l-.12.05-.16.1-.1.09-.18.24.07.56.46.36.37-.05.08.08.56,0,.44-.38,0-.57-.21-.24Z"/><path class="cls-2" d="M262.14,218.37l.11-.17.05-.14a1.36,1.36,0,0,0-.21-1.29,1.28,1.28,0,0,0-1.11-.44,1.61,1.61,0,0,0-1.34.85,1.42,1.42,0,0,0,.1,1.43l.1.1.18.13.13.06.33.08h.15l.21,0,.11,0,.18,0a1.89,1.89,0,0,0,.91-.4Z"/><path class="cls-2" d="M267.34,186.23l.23.07h.16a1.35,1.35,0,0,0,.59-.18,1,1,0,0,0,.75-1.08,1.24,1.24,0,0,0-.4-.82,1,1,0,0,0-.75-.25l-.27.14-.1.11-.11,0-.19.08-.12.09-.23.23,0,.07a1,1,0,0,0-.22.49l0,.21.09.27.12.17.33.28Z"/><path class="cls-2" d="M287.11,188.78l-.13,0-.17.08-.11.08-.12.11h0l-.26.25-.1.14-.09.21,0,.16a1.34,1.34,0,0,0,.85,1.23l.27,0,.31-.08v0l.25,0,.34-.31.11-.18.08-.28-.27-.09h-.07l.37-.07a1.18,1.18,0,0,0-.32-1A1,1,0,0,0,287.11,188.78Z"/><rect class="cls-3" x="212.21" y="134.02" width="93.07" height="103.8" transform="translate(-36.46 66.05) rotate(-13.6)"/><path class="cls-2" d="M250,186l-.11,0-.12.09-.27.31-.06.1a1,1,0,0,0-.12.51l0,.15.1.21.09.12.3.26.09.06a.94.94,0,0,0,.54.13l.15,0,.2-.1.12-.09.26-.3.06-.09,0-.05h0l.14,0,.3-.14.12-.08L252,187l.08-.12a1.57,1.57,0,0,0,.06-1,2.17,2.17,0,0,0-.07-.24l-.07-.11-.12-.15-.09-.08-.26-.15-.12,0-.18,0h-.13a1.38,1.38,0,0,0-1,.55A1.26,1.26,0,0,0,250,186Z"/><path class="cls-2" d="M308.63,208l-.26.35-.07.2,0,.29.05.21a.51.51,0,0,1,.07.18l0,.11a.85.85,0,0,0,0,.17,1.81,1.81,0,0,0,.51.91l.21.11.33.06.23,0,.41-.21.17-.17.15-.29,0-.24,0-.21v-.08a4,4,0,0,0-.08-.48,1.41,1.41,0,0,0-1.09-1.13l-.21,0-.29.1Z"/><path class="cls-2" d="M219.64,189.92h-.19l-.17,0a1,1,0,0,0-.85,1.1l0,.13.08.17.07.11,0,0,.08.13.13.15.11.08.25.13.12,0,.17,0h.12a1.1,1.1,0,0,0,.76-.47,1.14,1.14,0,0,0,.14-.87,1.52,1.52,0,0,0-.09-.25l-.08-.13-.15-.14-.12-.08-.3-.13Z"/><path class="cls-2" d="M247.54,212.41a1.22,1.22,0,0,0-1-.11l-.13.07-.17.13-.1.11-.16.3,0,.13,0,.2v.14a1.44,1.44,0,0,0,.26.53l.11.23.11.14.3.23.16.07.25,0h.17a1.16,1.16,0,0,0,.84-1.4A1.3,1.3,0,0,0,247.54,212.41Z"/><path class="cls-2" d="M264.19,139.59l-.06,0-.14.09-.06,0-.07.07,0,0a1.17,1.17,0,0,0-.18,1,1.21,1.21,0,0,0,1,.93,1.19,1.19,0,0,0,1.2-.64l0-.07,0-.16,0-.16v-.24l-.1-.41-.06-.14-.13-.17-.11-.1-.29-.18-.14-.05-.21,0h-.15l-.41.1-.06,0Z"/><path class="cls-2" d="M264.25,169.34l-.12.1-.27.34-.07.12a1.12,1.12,0,0,0-.05.75l0,.09.07.13.14.16.12.09.27.14.13,0,.19,0h.13l.31-.08.14-.06.17-.12.1-.11.18-.29,0-.14,0-.21v-.15l0-.21-.06-.12-.11-.16-.1-.1-.28-.2-.06,0a1,1,0,0,0-.52-.12l-.16,0Z"/><path class="cls-2" d="M239.39,241.84l-.14.11-.08.1a1.24,1.24,0,0,0-.14.9,1.11,1.11,0,0,0,1.22.84l.08,0,.12,0,.08,0,.18-.12.06,0,.09-.09,0-.07a1.11,1.11,0,0,0,.14-.85,1.19,1.19,0,0,0-.85-.86h-.3l-.12,0-.28.1Z"/><path class="cls-2" d="M293.72,143v.11l0,.15,0,.11.12.23.07.08.11.12.08.06a1.6,1.6,0,0,0,1.92-.5l.09-.24v-.35l-.08-.25-.3-.36-.21-.14-.33-.08h-.19l-.14,0C294.18,142.11,293.77,142.46,293.72,143Z"/><path class="cls-2" d="M217.32,169.77l-.27.26-.07.1-.07.14.07,0-.13.07a1.25,1.25,0,0,0-.09.77,1,1,0,0,0,.93.76h.14l.2-.06.13-.07.26-.21.07-.08.09-.13,0-.1a1.23,1.23,0,0,0,.14-.88,1,1,0,0,0-.91-.78l-.17,0-.23.07Z"/><path class="cls-2" d="M242.05,177.54l.12-.14.08-.15a1.08,1.08,0,0,0,.21-.93,1.15,1.15,0,0,0-.11-.29l0-.08-.09-.1-.07-.06-.18-.12-.08,0-.12,0-.09,0a1,1,0,0,0-.92.33,1.32,1.32,0,0,0-.27,1.15,1,1,0,0,0,.62.72l.08,0h.22l.26,0,.17-.07Z"/><path class="cls-2" d="M288.33,223.78l.06.21,0,.09.07.12.05.07.17.18.08.06.12.08.09,0a1.08,1.08,0,0,0,1.1-.24,1.16,1.16,0,0,0,.31-1.13,1.08,1.08,0,0,0-.64-.77,1,1,0,0,0-.87,0A1,1,0,0,0,288.33,223.78Z"/><path class="cls-2" d="M282.14,172.59l-.12.13-.07.1-.13.27,0,.12,0,.19v.13l.05.2.05.13.12.16.1.1.29.2.08,0a1.06,1.06,0,0,0,.45.11l.19-.05.25-.14.14-.14.21-.36.05-.15,0-.21v-.15a1.12,1.12,0,0,0-.62-.8,1.07,1.07,0,0,0-.92,0Z"/><path class="cls-2" d="M283.09,207.8l0,.15.07.22.09.13.1.12v.07l.07.17.22.32.14.12.22.11.17,0a1.07,1.07,0,0,0,1.11-1.15l-.18-.21,0-.2-.29-.35h-.05l0-.17a1,1,0,0,0-1.1-.22A1,1,0,0,0,283.09,207.8Z"/><path class="cls-2" d="M225.52,150.58h-.21l-.29.09-.18.12-.28.34-.08.19,0,.29,0,.21,0,.07a1.14,1.14,0,0,0,1.49.74l.12-.07.15-.12.08-.1.16-.27,0-.13,0-.19v-.21A1.3,1.3,0,0,0,225.52,150.58Z"/><path class="cls-2" d="M233.83,199.13l-.2,0h-.14a1.2,1.2,0,0,0-.84.52,1.13,1.13,0,0,0-.14.93l0,.09.06.13.14.17.11.09.28.16.14,0,.2,0h.14l.3-.07.14-.07.17-.12.1-.11.18-.29.05-.14,0-.21v-.15l-.08-.31-.06-.13-.11-.16-.1-.1-.27-.18Z"/><path class="cls-2" d="M271.24,228.79l-.07-.31-.06-.13-.11-.16-.11-.1-.27-.18-.13-.06-.19,0h-.14a1.16,1.16,0,0,0-.84.52,1.13,1.13,0,0,0-.15.93l0,.09.07.13.13.16.12.1.28.15.13.05.2,0h.14l.31-.08.13-.06.18-.13.1-.11.17-.28.06-.14,0-.21Z"/><path class="cls-2" d="M270.08,194.58l0,.15.11.19.09.11.26.22.14.07.2.06h.15a1.19,1.19,0,0,0,.91-.47l0-.07.05-.11,0-.07.05-.25v-.28a1,1,0,0,0-1.18-.76A1.06,1.06,0,0,0,270.08,194.58Z"/><path class="cls-2" d="M262.47,208.1l-.24.36-.06.16,0,.24V209a1.18,1.18,0,0,0,.61.78,1.05,1.05,0,0,0,.91,0l.1-.07.13-.13.08-.1.13-.27,0-.12,0-.19v-.17a1.2,1.2,0,0,0-1.06-.92l-.2,0-.26.12Z"/><path class="cls-2" d="M277.65,187.83a1.17,1.17,0,0,0,.09.24l.07.11.13.13.1.08.28.14.13,0,.19,0h.13l.21-.05.13-.07.17-.12.11-.11.17-.29.05-.14,0-.21v-.15l-.07-.3-.06-.13-.12-.17-.1-.1-.27-.18-.13,0-.2-.05h-.14a1.09,1.09,0,0,0-.76.47A1.15,1.15,0,0,0,277.65,187.83Z"/><path class="cls-2" d="M205.09,159.2l0,.16.11.2.11.13,0,0v0a1,1,0,0,0,.86.44l.16,0,.2-.1.13-.1.27-.33.07-.12a1.07,1.07,0,0,0,.06-.71l0-.14-.08-.13-.15-.17-.13-.09-.3-.13-.14,0h-.2l-.16,0A1,1,0,0,0,205.09,159.2Z"/><path class="cls-2" d="M271.58,160.19l-.13.13-.07.11-.13.27,0,.13v.31l.05.2.06.13.11.16.1.1.25.18.07,0a1.1,1.1,0,0,0,.49.14l.2-.05.24-.13.14-.14.22-.36.06-.15,0-.21v-.16a1.12,1.12,0,0,0-.61-.8,1,1,0,0,0-.91,0Z"/><path class="cls-2" d="M242.79,137.6l.19.25.36.2.12.07a1.36,1.36,0,0,0,1,0l.16-.12.17-.22v0l0,0,.21-.34,0-.29a1.19,1.19,0,0,0-.55-.76,1.24,1.24,0,0,0-.92-.15h0A1.17,1.17,0,0,0,242.79,137.6Z"/><path class="cls-2" d="M262.26,150.77a1.05,1.05,0,0,0-.87,0,1.13,1.13,0,0,0-.75,1.24v.11l0,.14.09.19.09.11.07.07v0a1,1,0,0,0,.67.57,1,1,0,0,0,.75-.11,1.21,1.21,0,0,0,.62-1.45A1.29,1.29,0,0,0,262.26,150.77Z"/><path class="cls-2" d="M254.77,172.68h-.2l-.26.09-.16.11-.28.32-.08.17,0,.24-.11,0-.2.15-.11.13-.16.32,0,.1h0a1.09,1.09,0,0,0-.07.66,1,1,0,0,0,1,.74l.13,0,.18-.07.11-.07.24-.21.07-.08.07-.12a1.19,1.19,0,0,0,.22.12,1.46,1.46,0,0,0,1.19,0l.16-.13.17-.25.07-.19,0-.43-.05-.21-.14-.25-.15-.15a2.53,2.53,0,0,1-.32-.29A2.44,2.44,0,0,0,254.77,172.68Z"/><path class="cls-2" d="M219,218.14l-.07.11,0,.08-.07.27v.32a1,1,0,0,0,.82.75,1.18,1.18,0,0,0,1.19-.56l.06-.18v-.26l0-.19-.17-.36-.12-.15-.21-.16-.17-.07a1.21,1.21,0,0,0-1.16.32Z"/><path class="cls-2" d="M299.91,176.52l-.06.19.07,0h-.08a1.14,1.14,0,0,0,0,.63,1,1,0,0,0,.08.24l.06.1.13.14.1.08.25.13.52-.15.26-.49-.1-.35.07-.08-.06-.54-.43-.35-.53.06-.2.23Z"/><path class="cls-2" d="M266.29,185.62l-.19-.08-.13,0a1.33,1.33,0,0,0-1.19.41,1.22,1.22,0,0,0-.24,1.11,1.54,1.54,0,0,0,1,1.13,1.33,1.33,0,0,0,1.32-.32l.09-.11.09-.18,0-.14,0-.33v-.14l-.06-.19-.05-.1a1.38,1.38,0,0,1-.06-.16,1.87,1.87,0,0,0-.53-.8Z"/><path class="cls-2" d="M235.16,185.74l0-.23v-.15a1.38,1.38,0,0,0-.27-.53,1,1,0,0,0-1.13-.54,1.19,1.19,0,0,0-.71.51,1,1,0,0,0-.12.75l.17.23.12.08,0,.1.11.16.09.1.26.18.07,0a1.13,1.13,0,0,0,.5.13l.19,0,.24-.13.14-.14.22-.36Z"/><path class="cls-2" d="M234.47,166.69l.06.13.1.15.09.09.12.09v0l.28.22.15.06.21,0h.16a1.27,1.27,0,0,0,1-1v-.25l-.12-.28h0l0-.23-.36-.27-.18-.08-.28,0,0,.27,0-.28,0,.16,0-.16,0,.21,0,.11v0l-.12-.33a1.12,1.12,0,0,0-.86.45A1,1,0,0,0,234.47,166.69Z"/><rect class="cls-3" x="211.51" y="111.98" width="88.11" height="98.27" transform="translate(-16.94 291.56) rotate(-57.81)"/><path class="cls-2" d="M249.71,166.94l0,.11,0,.14,0,.39,0,.1a.94.94,0,0,0,.26.43l.12.08.2.08.14,0,.38,0,.1,0a.94.94,0,0,0,.45-.27l.08-.12.08-.19,0-.15,0-.37,0-.1s0,0,0-.06h0l.08-.11.12-.29,0-.14v-.2l0-.14a1.52,1.52,0,0,0-.59-.69l-.21-.11-.12,0h-.3l-.27.07-.11.05-.15.1-.09.08a1.26,1.26,0,0,0-.29,1A1.13,1.13,0,0,0,249.71,166.94Z"/><path class="cls-2" d="M304,143.14l.06.4.08.19.18.21.17.11.17.07.09.07.13.09a1.82,1.82,0,0,0,1,.28l.22-.06.26-.18.13-.18.14-.41v-.23l-.1-.3-.13-.18-.16-.13-.06,0c-.12-.09-.24-.19-.37-.27a1.33,1.33,0,0,0-1.48,0l-.14.15-.12.26Z"/><path class="cls-2" d="M231.67,189.64l-.14.12-.09.14a1,1,0,0,0,.15,1.3l.11.07.17.06.12,0h0l.14,0h.32l.26-.08.1-.05.13-.1.09-.08a1.08,1.08,0,0,0,.2-.82,1.05,1.05,0,0,0-.49-.68l-.22-.12-.14,0h-.19l-.14,0-.29.11Z"/><path class="cls-2" d="M265.45,186.49a1.17,1.17,0,0,0-.74.56l0,.14,0,.2v.14l.09.3.05.12.12.15.1.1a1.52,1.52,0,0,0,.52.19l.23.08.17,0,.35-.05.16-.06.2-.12.11-.12a1.1,1.1,0,0,0-.35-1.51A1.21,1.21,0,0,0,265.45,186.49Z"/><path class="cls-2" d="M228.67,126.08l0,.06,0,.16v.23a1.15,1.15,0,0,0,1.82.72,1.11,1.11,0,0,0,.39-1.23l0-.06-.08-.14-.09-.12,0,0-.07-.07,0,0-.34-.21-.13,0-.2,0h-.14l-.31.07-.13.06-.17.11-.09.11-.22.33,0,.06Z"/><path class="cls-2" d="M248.36,146.23l0,.15,0,.41,0,.12a1,1,0,0,0,.46.54l.08.05.14,0h.33l.28-.09.11-.06.15-.11.08-.09.16-.26.05-.13,0-.2v-.14l-.07-.31-.06-.13-.11-.16-.1-.1-.17-.11-.12-.05-.19,0h-.12l-.33.06-.06,0a1,1,0,0,0-.44.26l-.08.13Z"/><path class="cls-2" d="M279.34,211.83v.29a1.19,1.19,0,0,0,.5.71,1,1,0,0,0,1.38-.24l.05-.07.05-.1,0-.08,0-.2v-.27a1.07,1.07,0,0,0-.47-.68,1.16,1.16,0,0,0-1.14,0l-.09.07-.12.13-.07.09-.11.26Z"/><path class="cls-2" d="M251,108.93l.08.07.12.08.09,0,.23.08h.36a1.53,1.53,0,0,0,1-1.61l-.1-.23-.23-.24-.21-.11-.45-.06-.23,0-.27.17-.13.13s0,.06-.08.1C250.69,108,250.64,108.5,251,108.93Z"/><path class="cls-2" d="M216.79,177.5v.36l0,.11,0,.14.08,0,0,.13a1.14,1.14,0,0,0,.44.58,1,1,0,0,0,1.14-.09l.08-.1.1-.18,0-.13,0-.31v-.1l0-.15,0-.1a1.22,1.22,0,0,0-.48-.69A1,1,0,0,0,217,177l-.1.12-.11.21Z"/><path class="cls-2" d="M238.7,166.45v-.17l-.05-.16a1,1,0,0,0-.47-.77.89.89,0,0,0-.26-.12l-.09,0h-.21l-.21,0-.08,0-.11.05-.07,0a1,1,0,0,0-.41.83,1.24,1.24,0,0,0,.58,1,1,1,0,0,0,.89.09l.07,0,.1-.07.06-.06.15-.19.08-.16Z"/><path class="cls-2" d="M300.63,167.27l.18.11.08,0,.12,0,.09,0h.32l.14,0,.08,0a1,1,0,0,0,.6-.89,1.12,1.12,0,0,0-.54-1,1.07,1.07,0,0,0-.95-.1,1,1,0,0,0-.57.59A1,1,0,0,0,300.63,167.27Z"/><path class="cls-2" d="M262.64,136.62v.17l0,.12.09.27.06.1.11.14.09.08.17.1.12.05.19,0h.13l.33-.06.08,0a1,1,0,0,0,.38-.23l.1-.16.07-.25v-.19l-.1-.39-.06-.13-.12-.16-.11-.1a1.1,1.1,0,0,0-.95-.13,1,1,0,0,0-.59.63Z"/><path class="cls-2" d="M286.52,159.89l.12.09.19.1.15,0h.14l.06,0,.16.07.36.07h.17l.23-.07.14-.08a1,1,0,0,0,0-1.51l-.26,0-.12-.15-.43-.05,0,0-.15-.08a.92.92,0,0,0-.73,1.53Z"/><path class="cls-2" d="M209.69,159.07l-.14.14-.14.25,0,.2,0,.41.07.19.16.22.16.12.07,0a1.08,1.08,0,0,0,1.5-.48l0-.13,0-.18v-.12l-.07-.29-.06-.11-.1-.16-.1-.09-.06,0A1.23,1.23,0,0,0,209.69,159.07Z"/><path class="cls-2" d="M247.38,186.53l-.17.1-.1.09a1.08,1.08,0,0,0,.29,1.63l.08,0,.13,0,.2,0H248l.3-.08.12-.06.15-.11.09-.1.16-.25,0-.14,0-.19v-.15l-.07-.31-.06-.13-.11-.16-.11-.1-.25-.16-.13,0-.18,0h-.14l-.3,0Z"/><path class="cls-2" d="M292.34,182l-.25-.16-.13,0-.18,0h-.14l-.3,0-.12.05-.17.1-.1.09a1.16,1.16,0,0,0-.23.91,1.11,1.11,0,0,0,.52.72l.08,0,.13.05.2,0h.14l.3-.08.11-.06.16-.11.09-.1.16-.25.05-.13,0-.2v-.14l-.07-.32-.06-.13-.12-.16Z"/><path class="cls-2" d="M269,159.51l.13.07.19.06.14,0,.33,0,.13,0,.18-.1.11-.09a1.1,1.1,0,0,0,.3-.91l0-.08,0-.1,0-.06-.13-.2-.05-.06-.08-.08-.06,0a1,1,0,0,0-1.31.27A1,1,0,0,0,269,159.51Z"/><path class="cls-2" d="M272.73,173.71l.08.4.06.15.13.18.12.1a1,1,0,0,0,.93.13,1,1,0,0,0,.6-.61l0-.12v-.29l-.09-.26-.06-.11-.11-.14-.09-.09,0,0a1.13,1.13,0,0,0-1.32.08l-.12.15-.09.26Z"/><path class="cls-2" d="M269.65,149.93l.22.11.12,0h.18l.12,0,.28-.08.11-.06.15-.11.08-.1.11-.17.05-.13,0-.2v-.14l-.07-.31-.06-.13-.12-.16-.1-.1-.25-.16-.12,0-.19,0h-.14l-.3,0-.13.05-.16.1-.1.09a1.07,1.07,0,0,0-.2.82A1.09,1.09,0,0,0,269.65,149.93Z"/><path class="cls-2" d="M201.52,178.4l.14.08.2.06.16,0h.08a.94.94,0,0,0,.88-.27l.08-.12.07-.21,0-.15,0-.4,0-.13a1,1,0,0,0-.42-.52l-.12-.06-.15,0-.21,0-.15,0-.29.11-.11.06-.14.13-.1.13A1,1,0,0,0,201.52,178.4Z"/><path class="cls-2" d="M247.29,135.18v.18l0,.12.09.27.06.11.11.13.09.08.17.11.12,0,.18,0h.13l.29-.05.08,0a1,1,0,0,0,.42-.23l.1-.16.08-.25v-.19l-.09-.39-.06-.13-.13-.17-.1-.09a1,1,0,0,0-1.55.47Z"/><path class="cls-2" d="M212.84,138.86l.29,0,.38-.1.12,0a1.23,1.23,0,0,0,.69-.69l0-.19,0-.27v-.06l-.08-.36-.16-.23a1.16,1.16,0,0,0-1.6.36h0A1.11,1.11,0,0,0,212.84,138.86Z"/><path class="cls-2" d="M234.75,134.94a1,1,0,0,0-.59.57,1.06,1.06,0,0,0,.31,1.34l.07.07.12.07.19.07.13,0h.1v0a.93.93,0,0,0,.83-.06.87.87,0,0,0,.44-.56,1.15,1.15,0,0,0-.53-1.39A1.24,1.24,0,0,0,234.75,134.94Z"/><path class="cls-2" d="M244.13,154.75l-.13.14-.12.24,0,.18,0,.39,0,.18.13.19-.05.11,0,.23v.16l.1.33,0,.09h0v0a1,1,0,0,0,.39.49.93.93,0,0,0,1.18-.17l.07-.11.08-.16,0-.13,0-.3v-.1l0-.12.23-.07a1.37,1.37,0,0,0,.83-.76l0-.2,0-.27-.08-.18-.27-.3-.17-.11-.27-.08h-.19a1.84,1.84,0,0,1-.42,0A2.24,2.24,0,0,0,244.13,154.75Z"/><path class="cls-2" d="M249.87,209.2l0,.12,0,.08.12.22.06.07.09.1.07.05a1,1,0,0,0,1.05,0,1.11,1.11,0,0,0,.43-1.16l-.07-.16-.17-.19-.14-.11-.36-.14-.18,0-.25,0-.16.07a1.14,1.14,0,0,0-.57,1Z"/><path class="cls-2" d="M277.29,127.56l.09.17.06,0-.05.06a1.1,1.1,0,0,0,.41.43,1,1,0,0,0,.21.11l.11,0h.29l.27-.08.25-.44-.15-.51-.3-.17V127l-.39-.33-.53,0-.33.39,0,.29Z"/><path class="cls-2" d="M260.48,155.93l-.17.07-.11.07a1.23,1.23,0,0,0-.54,1.05,1.14,1.14,0,0,0,.57.92,1.49,1.49,0,0,0,1.44.1,1.27,1.27,0,0,0,.68-1.1v-.13l-.06-.18-.07-.12-.19-.24-.11-.08-.17-.1-.09,0-.15-.07a1.76,1.76,0,0,0-.89-.19Z"/><path class="cls-2" d="M239.44,176.56l-.13-.17-.11-.1a1.15,1.15,0,0,0-.53-.18.9.9,0,0,0-1.12.38,1.11,1.11,0,0,0-.15.82,1,1,0,0,0,.41.58l.28.05.12,0,.1,0,.18,0h.13l.3,0H239a1.07,1.07,0,0,0,.43-.24l.1-.16.07-.25v-.19l-.09-.39Z"/><path class="cls-2" d="M226.4,164.09l.12,0,.17,0h.12l.14,0h0l.33,0,.14,0,.19-.11.1-.1a1.19,1.19,0,0,0,0-1.35l-.18-.16-.26-.11v0l-.19-.12-.42,0-.18.07-.21.16.16.21-.23-.15.13.09-.13-.08.17.11.08.06v0l-.31-.14a1.12,1.12,0,0,0-.28.87A.94.94,0,0,0,226.4,164.09Z"/><rect class="cls-3" x="205.41" y="91.29" width="83.15" height="92.73" transform="translate(-20.34 229.8) rotate(-48.15)"/><path class="cls-2" d="M240.62,142.15l-.06.09,0,.13,0,.36v.11a.91.91,0,0,0,.17.44l.1.09.17.1.13.05.35,0h.1a1,1,0,0,0,.47-.18l.09-.1.1-.17,0-.14,0-.35v-.09a.13.13,0,0,0,0-.06h0l.08-.09.16-.25.05-.13,0-.18v-.13a1.49,1.49,0,0,0-.44-.74l-.18-.14-.11-.05-.15,0h-.12l-.27,0-.11,0-.15.07-.1.06a1.21,1.21,0,0,0-.42.89A.89.89,0,0,0,240.62,142.15Z"/><path class="cls-2" d="M294.86,128.59V129l0,.18.13.23.14.13a.62.62,0,0,1,.15.1l.07.07.11.11a1.75,1.75,0,0,0,.84.41l.21,0,.27-.12.16-.15.19-.36,0-.21,0-.29-.1-.2-.13-.14,0-.05a3,3,0,0,0-.3-.32,1.26,1.26,0,0,0-1.37-.28l-.15.13-.16.22Z"/><path class="cls-2" d="M220.25,160.41l-.15.09-.11.11a.91.91,0,0,0-.07,1.24l.09.08.15.08.11,0h0l.12.05.17,0h.13l.24,0,.11,0,.14-.07.09-.06a1,1,0,0,0,.31-.73,1,1,0,0,0-.34-.72l-.19-.14-.12,0-.18,0h-.13l-.29.06Z"/><path class="cls-2" d="M252.17,162.82a1.18,1.18,0,0,0-.78.41l-.06.12-.05.18v.13l0,.3,0,.12.08.16.08.1a1.16,1.16,0,0,0,.46.26l.19.12.16,0,.34,0,.15,0,.2-.09.13-.1a1,1,0,0,0-.09-1.45A1.17,1.17,0,0,0,252.17,162.82Z"/><path class="cls-2" d="M227.52,100.8l0,.06-.05.14,0,.06,0,.09v.06a1,1,0,0,0,.35.8,1.08,1.08,0,0,0,1.22.16,1.07,1.07,0,0,0,.56-1.08V101l-.05-.14-.07-.13,0-.06-.06-.07,0,0-.28-.25-.12-.07-.18-.07h-.43l-.13,0-.17.08-.11.08-.25.28,0,0Z"/><path class="cls-2" d="M242.65,122.67l-.05.13,0,.39v.12a1,1,0,0,0,.35.58l.06,0,.12.06.19,0h.13l.27,0,.11,0,.16-.08.09-.08.19-.21.07-.11.06-.18,0-.13,0-.31,0-.12-.08-.18-.08-.1-.14-.13-.11-.06-.16-.06-.12,0h-.37a.93.93,0,0,0-.45.17l-.09.11Z"/><path class="cls-2" d="M261.08,188.6l0,.16v.11a1.13,1.13,0,0,0,.35.74,1,1,0,0,0,1.32,0l.05-.06.07-.09,0-.07.07-.17,0-.08,0-.11V189a1,1,0,0,0-.32-.7,1.06,1.06,0,0,0-1.06-.2l-.1.05-.13.09-.08.08-.15.22Z"/><path class="cls-2" d="M251,88.39l.06.07.1.1.08.06.2.1.09,0,.14,0h.1a1.44,1.44,0,0,0,1.16-1.34l-.06-.23L252.7,87l-.19-.14-.4-.12h-.22l-.29.11-.14.1-.08.09C250.86,87.47,250.74,87.93,251,88.39Z"/><path class="cls-2" d="M208.32,146.76l-.06.33v.25h.08l-.06.12a1.16,1.16,0,0,0,.33.61.9.9,0,0,0,1.06.09l.1-.08.12-.15.06-.11.08-.29,0-.1v-.24a1.11,1.11,0,0,0-.34-.71.94.94,0,0,0-1.06-.12l-.12.1-.13.17Z"/><path class="cls-2" d="M230.46,140l0-.16,0-.15a1,1,0,0,0-.32-.8.94.94,0,0,0-.22-.15l-.08,0-.12,0h-.35l-.12,0-.07,0a.94.94,0,0,0-.51.71,1.16,1.16,0,0,0,.38,1,.91.91,0,0,0,.82.22l.07,0,.11-.05.06,0,.17-.15.1-.14Z"/><path class="cls-2" d="M287.94,150.52l.15.13.07,0,.11.06.08,0,.21,0h.3a1,1,0,0,0,.69-.73,1,1,0,0,0-.34-1,1,1,0,0,0-.87-.25.91.91,0,0,0-.62.46A.94.94,0,0,0,287.94,150.52Z"/><path class="cls-2" d="M257.45,116l0,.16v.11l0,.26,0,.11.08.14.07.09.14.13.1.06.17.07.12,0h.4A1,1,0,0,0,259,117l.11-.14.11-.22,0-.17,0-.38,0-.13-.08-.17-.09-.11a1,1,0,0,0-.86-.27.92.92,0,0,0-.65.49Z"/><path class="cls-2" d="M276,141.42l.09.1.16.12.13.06.14,0,0,.05.14.09.32.12.16,0,.23,0,.15,0a1,1,0,0,0,.23-1.41l-.24-.06-.08-.16-.4-.11,0,0-.12-.1a.92.92,0,0,0-.93.39A.89.89,0,0,0,276,141.42Z"/><path class="cls-2" d="M204.64,128.49l-.16.11-.16.21-.07.18,0,.38,0,.19.12.23.13.14.06,0a1,1,0,0,0,1.47-.21l.06-.11,0-.17v-.12l0-.27,0-.12-.08-.16-.07-.1-.05,0A1.13,1.13,0,0,0,204.64,128.49Z"/><path class="cls-2" d="M235.35,160l-.17.07-.1.07a1,1,0,0,0-.36.8,1,1,0,0,0,.37.76l.06.05.12.06.18.06h.13l.29,0,.12,0,.16-.09.1-.07.19-.21.07-.12.06-.18,0-.13,0-.3,0-.13-.08-.17-.08-.11-.22-.19-.1-.06-.17-.07-.13,0h-.29Z"/><path class="cls-2" d="M277.91,162.86l-.21-.18-.11-.07-.17-.06-.12,0H277l-.12,0-.17.06-.1.07a1.08,1.08,0,0,0-.36.8,1,1,0,0,0,.37.76l.06.05.12.07.18,0h.13l.29,0,.12,0,.16-.08.1-.08L278,164l.07-.12.06-.18,0-.13,0-.3,0-.13L278,163Z"/><path class="cls-2" d="M259.72,138.28l.11.09.17.09.12,0,.31,0,.13,0,.18-.06.12-.06a1.11,1.11,0,0,0,.43-.81v-.07l0-.1,0-.07-.09-.2,0-.06-.06-.09-.05-.06a.94.94,0,0,0-1.28,1.36Z"/><path class="cls-2" d="M261,152.09v.39l0,.14.1.2.09.11a1,1,0,0,0,.84.27.94.94,0,0,0,.65-.48l0-.11,0-.15v-.12l0-.26,0-.11-.08-.15-.07-.09,0,0a1.06,1.06,0,0,0-1.25-.14l-.13.12-.13.23Z"/><path class="cls-2" d="M261.87,129.48a1.18,1.18,0,0,0,.18.13l.11,0,.16,0h.12l.27,0,.12,0,.15-.08.1-.07.12-.14.07-.12.06-.18,0-.13,0-.3,0-.13-.08-.17-.08-.11-.21-.18-.11-.07-.17-.06-.12,0h-.29l-.13,0-.17.07-.1.06a1,1,0,0,0-.32.73A1,1,0,0,0,261.87,129.48Z"/><path class="cls-2" d="M194,145.18l.11.09.18.1.14,0h.08a.9.9,0,0,0,.86-.11l.09-.11.1-.17.05-.14,0-.38v-.12a1.05,1.05,0,0,0-.32-.56l-.1-.07-.12-.06-.2,0h-.14l-.29.06-.12,0-.15.09-.11.11A.91.91,0,0,0,194,145.18Z"/><path class="cls-2" d="M243.4,112.22l0,.16v.12l0,.26,0,.11.08.15.07.09.14.12.1.07.17.06.12,0h.35a1,1,0,0,0,.43-.15l.12-.13.11-.22,0-.17,0-.38,0-.13L245,112l-.09-.11a1,1,0,0,0-.85-.28,1,1,0,0,0-.66.48Z"/><path class="cls-2" d="M210.77,110.19l.26.08.37,0h.12a1.21,1.21,0,0,0,.75-.54l.06-.17v-.31l0-.35-.11-.23a1.15,1.15,0,0,0-.8-.29,1.14,1.14,0,0,0-.75.36h0A1,1,0,0,0,210.77,110.19Z"/><path class="cls-2" d="M231.77,110a.92.92,0,0,0-.64.44,1,1,0,0,0,.07,1.29l.06.08.1.08.17.09.12.05h.09v0a.87.87,0,0,0,.78.08.91.91,0,0,0,.5-.45,1.11,1.11,0,0,0-.28-1.39A1.19,1.19,0,0,0,231.77,110Z"/><path class="cls-2" d="M237.36,129.93l-.14.11-.15.19-.06.17,0,.37,0,.17.09.2-.06.09-.07.21,0,.16,0,.32,0,.09h0v0a.9.9,0,0,0,.29.53.87.87,0,0,0,1.12,0l.09-.09.09-.14,0-.11.07-.27v-.22a.85.85,0,0,0,.23,0,1.25,1.25,0,0,0,.89-.57l0-.18v-.26l0-.18-.2-.33-.14-.12-.23-.12-.19,0a1.62,1.62,0,0,1-.38-.06A2.21,2.21,0,0,0,237.36,129.93Z"/><path class="cls-2" d="M234.08,181.49v.11l0,.08.08.23,0,.08.07.1.06.06a.9.9,0,0,0,1,.14,1.06,1.06,0,0,0,.59-1l-.05-.17-.12-.2-.12-.12-.31-.19-.16,0h-.24l-.16,0a1.12,1.12,0,0,0-.69.83Z"/><path class="cls-2" d="M272.52,109.88l.05.17.06,0-.06,0a1.23,1.23,0,0,0,.32.47,1.26,1.26,0,0,0,.17.13l.11,0,.16,0h.11l.25,0,.31-.37-.05-.5-.26-.2v-.1l-.31-.36-.49,0-.37.31,0,.27Z"/><path class="cls-2" d="M252.39,133.61l-.18,0-.11,0a1.2,1.2,0,0,0-.67.9,1.11,1.11,0,0,0,.39.95,1.39,1.39,0,0,0,1.32.31,1.2,1.2,0,0,0,.81-.91v-.12l0-.18,0-.12-.14-.25-.09-.1-.14-.12-.08,0-.13-.09a1.66,1.66,0,0,0-.8-.32Z"/><path class="cls-2" d="M229.55,149.47l-.09-.18-.09-.11a1.17,1.17,0,0,0-.47-.25.85.85,0,0,0-1.1.17,1.06,1.06,0,0,0-.27.74.91.91,0,0,0,.29.61l.25.09h.12l.09.05.16.06.12,0h.35a.92.92,0,0,0,.44-.15l.12-.13.1-.23,0-.17,0-.37Z"/><path class="cls-2" d="M219.39,135.81l.1.06.15.06.11,0h.17l.31,0,.14,0,.19-.07.11-.07a1.13,1.13,0,0,0,.25-1.25l-.14-.18-.23-.15v0l-.16-.15-.4,0-.17,0-.23.11.12.22-.19-.17.1.1-.1-.1.14.14.06.07v0l-.26-.19a1,1,0,0,0-.4.77A.86.86,0,0,0,219.39,135.81Z"/><rect class="cls-3" x="207.91" y="93.01" width="45.74" height="51.01" transform="translate(-25.77 157.1) rotate(-35.73)"/><path class="cls-2" d="M226.83,120.17l0,0,0,.06-.06.19v.06a.59.59,0,0,0,0,.26l0,.06.08.07.07,0,.18.07h0a.66.66,0,0,0,.28,0l.06,0,.07-.08,0-.06.06-.19v-.08h0l.06,0,.12-.12,0-.06,0-.1,0-.07a.71.71,0,0,0-.15-.44l-.08-.1-.05,0-.08,0-.06,0-.15,0h-.06l-.09,0-.06,0a.67.67,0,0,0-.33.42A.81.81,0,0,0,226.83,120.17Z"/><path class="cls-2" d="M257.58,119.31l-.06.21v.1l0,.14.06.09.07.06,0,0,0,.07a1,1,0,0,0,.4.32h.12l.15,0,.11-.06.14-.17.05-.11v-.16l0-.12-.05-.09,0,0a1.13,1.13,0,0,0-.12-.21.68.68,0,0,0-.7-.31l-.1.05-.11.1Z"/><path class="cls-2" d="M213.73,127.58l-.09,0-.08,0a.52.52,0,0,0-.18.66l0,.05.07.07.06,0h0l.06,0,.09.05h.06l.14,0H214l.08,0,.06,0a.53.53,0,0,0,.25-.36.51.51,0,0,0-.1-.42l-.08-.1-.06,0-.1,0h-.23Z"/><path class="cls-2" d="M230.59,132.65a.59.59,0,0,0-.46.13l0,.05-.05.09,0,.07,0,.17v.07l0,.09,0,.07a.7.7,0,0,0,.21.19l.09.08.08,0,.18.05h.09l.12,0,.08,0a.58.58,0,0,0,.12-.8A.66.66,0,0,0,230.59,132.65Z"/><path class="cls-2" d="M224.68,96.41l0,0,0,.07,0,0,0,0v0a.57.57,0,0,0,.1.47.58.58,0,0,0,.63.23.56.56,0,0,0,.43-.51v-.12l0-.08v0l0,0,0,0-.12-.16-.06,0-.08-.06-.07,0-.17,0h-.07l-.1,0-.07,0-.17.12,0,0Z"/><path class="cls-2" d="M230.22,110l0,.07-.07.2v.07a.48.48,0,0,0,.11.35l0,0,.06,0,.09,0h.07l.15,0h.07l.09,0,.06,0,.12-.09.05-.06.06-.09,0-.06,0-.17v-.07l0-.1,0-.07L231,110l0,0-.09-.05-.06,0-.16,0h0a.47.47,0,0,0-.26,0l-.06.05Z"/><path class="cls-2" d="M232.33,147.55l0,.08,0,.06a.61.61,0,0,0,.1.44.55.55,0,0,0,.71.15l0,0,0,0,0,0,.06-.09,0,0,0-.05v0a.52.52,0,0,0-.09-.42.6.6,0,0,0-.54-.23l-.06,0-.08,0-.06,0-.1.09Z"/><path class="cls-2" d="M238.77,92.52l0,0,0,.06,0,0,.09.08,0,0,.07,0,0,0a.78.78,0,0,0,.78-.59v-.12l-.06-.17-.08-.09-.21-.11-.12,0-.16,0-.09,0-.06,0C238.8,92,238.68,92.24,238.77,92.52Z"/><path class="cls-2" d="M208.94,118.84l-.08.16v.14h0l0,.06a.56.56,0,0,0,.1.36.49.49,0,0,0,.56.18l.06,0,.08-.07.05,0,.08-.14,0-.06v-.13a.63.63,0,0,0-.1-.42.52.52,0,0,0-.56-.19l-.07,0-.09.08Z"/><path class="cls-2" d="M221.63,117.79l0-.08v-.09a.51.51,0,0,0-.08-.46.5.5,0,0,0-.1-.11l0,0-.06,0h0l-.1,0h-.15a.49.49,0,0,0-.36.32.63.63,0,0,0,.09.57.48.48,0,0,0,.41.22h0l.07,0h0l.11-.06.06-.07Z"/><path class="cls-2" d="M251.27,130.27l.06.09,0,0,0,0,0,0,.11,0h.17a.55.55,0,0,0,.45-.32.56.56,0,0,0-.06-.57.55.55,0,0,0-.44-.23.48.48,0,0,0-.39.17A.51.51,0,0,0,251.27,130.27Z"/><path class="cls-2" d="M239,108.11l0,.09,0,.06v.2l0,.09,0,.06.06.08.05,0,.08.05.06,0,.17,0h0a.59.59,0,0,0,.22,0l.08,0,.09-.11,0-.09,0-.21v-.07l0-.1,0-.07a.55.55,0,0,0-.43-.25.53.53,0,0,0-.41.19Z"/><path class="cls-2" d="M245.92,124l0,.06.07.09.06,0,.07,0,0,0,.06.06.16.11.09,0,.12,0h.09a.54.54,0,0,0,.29-.73l-.12-.07,0-.09-.2-.11h0l-.05-.07a.5.5,0,0,0-.54.1A.48.48,0,0,0,245.92,124Z"/><path class="cls-2" d="M209.12,108.58l-.1,0-.11.09-.06.09-.07.21v.1l0,.14.06.09,0,0a.57.57,0,0,0,.82.06l0-.06.05-.08,0-.06,0-.15V109l0-.09,0-.07,0,0A.67.67,0,0,0,209.12,108.58Z"/><path class="cls-2" d="M221.89,129.14l-.1,0-.06,0a.58.58,0,0,0-.29.39.56.56,0,0,0,.11.45l0,0,0,.05.09,0,.07,0,.16,0H222l.09,0,.07,0,.12-.09,0-.05.06-.09,0-.07,0-.17v-.07l0-.1,0-.07-.09-.12-.05-.05-.08-.06-.07,0-.15,0Z"/><path class="cls-2" d="M244.41,135.72l-.09-.13,0-.05-.08,0-.06,0-.16,0h-.17l-.06,0a.58.58,0,0,0-.29.39.56.56,0,0,0,.11.45l0,0,0,0,.09.05.07,0,.16,0H244l.09,0,.07,0,.12-.09.05-.05.06-.09,0-.07,0-.16v-.08l0-.1Z"/><path class="cls-2" d="M237.55,120.36l0,.06.08.06.06,0,.16,0h.18l.07,0a.58.58,0,0,0,.33-.38V120l0-.12v0l0-.05,0,0a.51.51,0,0,0-.68-.13A.52.52,0,0,0,237.55,120.36Z"/><path class="cls-2" d="M236.59,127.93l0,.2v.09l0,.11,0,.07a.55.55,0,0,0,.42.24.5.5,0,0,0,.41-.17l0-.06,0-.08v-.06l0-.14v-.07l0-.09,0-.06h0a.59.59,0,0,0-.66-.22l-.08,0-.1.11Z"/><path class="cls-2" d="M239.75,115.88l.08.1,0,0,.09,0,.06,0h.22l.09,0,.06,0,.08-.06.05,0,.06-.09,0-.07,0-.17v-.07l0-.1,0-.07-.09-.12-.05,0-.08,0-.07,0-.15,0H240l-.07,0a.53.53,0,0,0-.15.78Z"/><path class="cls-2" d="M201.41,116.29l.05.06.09.07.07,0h0a.51.51,0,0,0,.48,0l.06,0,.07-.08,0-.07.07-.2v-.07a.5.5,0,0,0-.1-.33l0,0-.06,0-.1-.05-.08,0h-.23l-.09,0-.07,0A.5.5,0,0,0,201.41,116.29Z"/><path class="cls-2" d="M231.87,104.43l0,.08v.27l0,.09,0,.06.06.08,0,0,.08,0,.06,0,.15,0h0a.66.66,0,0,0,.25,0l.08-.06.08-.1,0-.09,0-.21v-.07l0-.11,0-.07a.59.59,0,0,0-.43-.25.55.55,0,0,0-.41.18Z"/><path class="cls-2" d="M214.58,99.47l.13.08.2,0,.06,0a.69.69,0,0,0,.47-.2l.05-.09,0-.13v0h0l0-.19,0-.14a.62.62,0,0,0-.4-.25.59.59,0,0,0-.44.11h0A.56.56,0,0,0,214.58,99.47Z"/><path class="cls-2" d="M225.88,101.86a.55.55,0,0,0-.4.16.56.56,0,0,0-.11.7l0,0,.05.06.07.07.07,0h0v0a.5.5,0,0,0,.41.13.44.44,0,0,0,.32-.18.6.6,0,0,0,0-.78A.64.64,0,0,0,225.88,101.86Z"/><path class="cls-2" d="M226.53,113.22l-.09,0-.1.09-.06.08-.07.19v.1l0,.11,0,0-.06.11,0,.08v.23h0a.45.45,0,0,0,.09.31.47.47,0,0,0,.6.15l.06,0,.06-.06,0-.06.07-.14,0,0v-.06h.12a.68.68,0,0,0,.55-.2l0-.09,0-.14v-.11l-.07-.2-.06-.08-.11-.09-.09,0a.69.69,0,0,1-.2-.07A1.23,1.23,0,0,0,226.53,113.22Z"/><path class="cls-2" d="M218.67,140.54v.11l0,.13v0l0,.07,0,0a.49.49,0,0,0,.51.18.57.57,0,0,0,.43-.47v-.09l0-.13,0-.07-.15-.14-.08,0-.12,0h-.1a.59.59,0,0,0-.46.36Z"/><path class="cls-2" d="M247.79,106.61v.1h0l0,0a.82.82,0,0,0,.11.29l.08.09.06,0,.08,0,.06,0h.14l.2-.16,0-.27-.11-.14,0,0-.13-.24-.26-.08-.23.13-.05.14Z"/><path class="cls-2" d="M234.16,117H234a.67.67,0,0,0-.47.4.64.64,0,0,0,.1.56.74.74,0,0,0,.67.32.66.66,0,0,0,.55-.39v-.23l0-.16,0-.06-.06-.08,0,0-.06-.06a.81.81,0,0,0-.39-.27Z"/><path class="cls-2" d="M220,122.8l0-.11,0-.07a.9.9,0,0,0-.22-.19.47.47,0,0,0-.62,0,.56.56,0,0,0-.23.36.5.5,0,0,0,.08.36l.13.08h.06l0,0,.08,0,.07,0,.15,0h0a.55.55,0,0,0,.26,0l.08,0,.08-.11,0-.09,0-.2Z"/><path class="cls-2" d="M216.18,114.26l0,0,.08,0,0,0,.08,0h0l.17,0h.07l.11,0,.07,0a.63.63,0,0,0,.29-.64l-.06-.11-.1-.11,0,0-.06-.1-.21-.06h-.1l-.14,0,0,.13-.08-.12,0,.07,0-.07.06.09,0,0h0l-.12-.13a.57.57,0,0,0-.31.36A.49.49,0,0,0,216.18,114.26Z"/></g></svg>