<svg xmlns="http://www.w3.org/2000/svg" viewBox="0 0 191 153"><defs><style>.cls-1{fill:#fff;}.cls-2{fill:#9adbf3;}.cls-3{fill:#626768;}.cls-4{fill:none;}.cls-5{fill:#465777;}</style></defs><title>kombucha</title><g id="Layer_2" data-name="Layer 2"><path class="cls-1" d="M154.9,18.54C101.43,10.69,54.4,10.79.38,9.43c8.78,7,10.66,9.18,19.44,16.13,2.87,2.27,5.79,4.6,7.75,7.68,2.73,4.29,3.32,9.56,3.65,14.63A205,205,0,0,1,28,99.8c-2.87,14.92-5.81,34.18,11.11,39.91A26,26,0,0,0,47.35,141l96.2.42a4.25,4.25,0,0,0,5.16-4.16q3.69-14.88,7.37-29.77c1.91-7.73,3.83-15.57,3.68-23.53-.15-7.54-2.17-15-1.67-22.55,1-15,11.83-29.7,7.06-44l-14.68.44,11.28,2.5"/><path class="cls-1" d="M163.5,47.34c8.72-1.61,19.8-2.36,22.93,7.81a15.75,15.75,0,0,1-.36,9.9l-14.63,40.87a14.77,14.77,0,0,1-2.52,5c-2.92,3.28-7.95,3.29-12.33,3-1.87-.1-4.17-.52-4.74-2.3a4,4,0,0,1,.09-2.23,13.49,13.49,0,0,1,9.05-9.27c2.73-.8,5.78-.74,8.17-2.28a12.7,12.7,0,0,0,4-4.86,60.33,60.33,0,0,0,7.18-25.3,10.27,10.27,0,0,0-2-6.88c-4.48-5.85-12.14-.53-17.4-3.61l-.56-7a5,5,0,0,1,.6-3.52c.76-1,2.64-1,2.94.22"/><path class="cls-2" d="M42.26,33.79q52-1.4,104,0a712.6,712.6,0,0,1-5.42,84.75c-.5,4-1.49,8.65-5.15,10.34a12.2,12.2,0,0,1-5.11.74l-85.59,0a10.33,10.33,0,0,1-5.26-1c-3.72-2.19-3.21-7.63-2.26-11.85,6.15-27.48,9.74-56.3,3.08-83.66"/><path class="cls-2" d="M42.26,36.29q52-1.36,104,0l-2.5-2.5c-.11,18.78-.9,37.54-2.47,56.25-.77,9.29-1.62,18.62-2.88,27.86a24,24,0,0,1-1.13,5.37c-1.28,3.3-4.56,3.83-7.69,3.84-5,0-10,0-14.93,0l-55.74,0c-4.61,0-9.33.28-13.93,0-3.13-.2-5-.69-5.61-4-.42-2.15.25-4.47.7-6.57,1.81-8.41,3.45-16.84,4.61-25.37C47.34,71.63,47.49,51.8,43,32.5c-.74-3.13-5.56-1.81-4.82,1.33,4.93,21,4.06,42.68.56,63.84-.82,5-1.78,9.9-2.84,14.82-.76,3.57-1.88,7.32-1.51,11,.78,7.85,7,8.6,13.62,8.61l64.7,0c5.31,0,10.62,0,15.92,0,3.73,0,7.55.12,10.46-2.56,5.5-5.06,4.93-16,5.65-22.79a723,723,0,0,0,4.06-73,2.54,2.54,0,0,0-2.5-2.5q-52-1.41-104,0c-3.21.09-3.22,5.09,0,5Z"/><path class="cls-3" d="M48.31,42.71l23.87-.51c.57,0,3.25-1.12,1.9-1.1l-23.87.51c-.57,0-3.25,1.13-1.9,1.1Z"/><path class="cls-3" d="M50,63.38a162.35,162.35,0,0,0,20.79-1.46c1.34-.18,2.46-1.74.44-1.46a156.52,156.52,0,0,1-20.06,1.41c-1,0-3.11,1.52-1.17,1.51Z"/><path class="cls-3" d="M49.54,83.83l20.22-.45c1,0,3.11-1.53,1.17-1.48l-20.22.44c-1,0-3.11,1.53-1.17,1.49Z"/><path class="cls-3" d="M44,106.85a221.33,221.33,0,0,1,22.75-.19c.59,0,3.28-1.07,1.89-1.13a224.91,224.91,0,0,0-23.37.23c-.73,0-3.16,1.21-1.27,1.09Z"/><path class="cls-3" d="M41.81,122.89l21.3-1.26c.88-.06,3.12-1.47,1.2-1.36L43,121.53c-.88.06-3.12,1.47-1.2,1.36Z"/><rect class="cls-4" x="128.92" y="104.15" width="50.45" height="48.08" transform="translate(-2.74 3.36) rotate(-1.24)"/><path class="cls-5" d="M146.31,114.86l-.05,0,0,0a.25.25,0,0,0-.12,0,.26.26,0,0,0-.23.13l0,0-.07.1a.35.35,0,0,0,.08.26.32.32,0,0,0,.26.12.28.28,0,0,0,.24-.15v-.13a.27.27,0,0,0,0-.2Z"/><path class="cls-5" d="M150.86,123.16l.06,0H151a.48.48,0,0,0,.4-.3v-.14l-.06-.1-.16-.07H151v0l-.09,0-.12,0-.1.14a.42.42,0,0,0,.11.35Z"/><path class="cls-5" d="M151.35,129.39h-.09l-.11.05-.07.08,0,.11a.53.53,0,0,0,.14.3l.11.1.13,0,.14-.05a.31.31,0,0,0,0-.43h0l0-.07-.07-.08Z"/><path class="cls-5" d="M131.51,127.73a.3.3,0,0,0-.28.23v.15l.05.11.14.09h0a.27.27,0,0,0,.27-.19l0-.15,0-.12Z"/><path class="cls-5" d="M162.92,133.34a.28.28,0,0,0,0-.25l-.06-.1-.09-.06h-.05l-.11,0h-.1l-.1,0a.28.28,0,0,0,0,.33h0l0,.08.08.08.13,0A.34.34,0,0,0,162.92,133.34Z"/><path class="cls-5" d="M151.6,131.25h0A.55.55,0,0,0,152,131v-.15l-.05-.11-.12-.09,0-.08-.06-.06-.08,0h-.11a.3.3,0,0,0-.2-.06h0l-.05,0a.47.47,0,0,0-.17,0,.29.29,0,0,0-.23.13v.11a.31.31,0,0,0,0,.26l.07.08.07.05.1,0h.15v.05l.11.1h0a.36.36,0,0,0,.21.1Z"/><path class="cls-5" d="M138.74,120.05l-.08,0a.29.29,0,0,0-.28.17v0h0a.32.32,0,0,0-.06.28l0,.09.06.06.1,0h0a.25.25,0,0,0,.21-.1.22.22,0,0,0,0-.08.29.29,0,0,0,.1-.33l-.07-.09Z"/><path class="cls-5" d="M139.1,146.4l0,0H139a.28.28,0,0,0-.27.22l0,.12,0,.1.06.1a.35.35,0,0,0,.19.06.34.34,0,0,0,.28-.19.31.31,0,0,0-.05-.33Z"/><path class="cls-5" d="M137.48,113.34a.21.21,0,0,0-.1-.06h-.1l-.12.06a.29.29,0,0,0-.14.37l.06.09.07,0,.12,0a.84.84,0,0,0,.18,0,.35.35,0,0,0,.18-.05l.06-.19v0h0a.25.25,0,0,0-.06-.24A.24.24,0,0,0,137.48,113.34Z"/><path class="cls-5" d="M136.71,139.31l-.12,0-.08.08h0a.31.31,0,0,0-.15.38l.1.11.17,0h0a.3.3,0,0,0,.16-.05.27.27,0,0,0,.12-.06l.05-.07,0-.07v-.09A.39.39,0,0,0,136.71,139.31Z"/><path class="cls-5" d="M136.1,142.83a.37.37,0,0,0-.1-.14.35.35,0,0,0-.13-.05.25.25,0,0,0-.19-.09h-.06l-.08,0,0,.05-.05.07a.31.31,0,0,0-.12.24.41.41,0,0,0,.11.31.48.48,0,0,0,.34.13.4.4,0,0,0,.4-.37l0-.11Z"/><path class="cls-5" d="M136.3,132.34h0l.11-.05.06-.07,0-.1v-.07l0-.1-.08-.08a.21.21,0,0,0-.12-.06l-.14.05-.06.06v0a.23.23,0,0,0-.11.26.22.22,0,0,0,.21.18h0A.16.16,0,0,0,136.3,132.34Z"/><path class="cls-5" d="M144.55,123.62h0a.27.27,0,0,0,.16,0,.23.23,0,0,0,.11-.11h0a.25.25,0,0,0,.25-.21l0-.12,0,0L145,123v0l0-.12-.16-.11,0,.15h0l0-.16-.17,0-.14.06a.33.33,0,0,0-.23.15l0,.06a.27.27,0,0,0,0,.12.3.3,0,0,0,0,.18v.16l.07.12a.22.22,0,0,0,.23.19A.18.18,0,0,0,144.55,123.62Z"/><path class="cls-5" d="M135.38,121.8a.51.51,0,0,0,.17,0l.08,0,.05,0,0-.08a.33.33,0,0,0-.21-.4l-.1,0h-.09l-.1,0a.46.46,0,0,0-.08.13l0,0-.05.13A.31.31,0,0,0,135.38,121.8Z"/><path class="cls-5" d="M146.64,131.1l0,0a.23.23,0,0,0-.14-.13l0,0,0-.06-.06,0-.1,0a.31.31,0,0,0-.19,0h0l-.09,0-.09.06a.56.56,0,0,0,.17.73l.16,0h.14l.08,0a.2.2,0,0,0,.1-.11l.11-.1a.34.34,0,0,0,.06-.28Z"/><path class="cls-5" d="M145.18,106.06l-.07,0a.29.29,0,0,0-.25-.18h-.13l-.09,0-.07.06,0,0-.05,0-.07.07,0,.13a.15.15,0,0,1,0-.08.35.35,0,0,0-.1.38l0,0a.69.69,0,0,0,.33.26h.1l.08,0H145l.11,0,.08-.08,0-.11a.18.18,0,0,1,0-.12.76.76,0,0,0,0-.16Z"/><path class="cls-5" d="M145.48,152l-.09-.06a.39.39,0,0,0-.2-.06.25.25,0,0,0-.17.08.31.31,0,0,0-.08.24l.05.1.07.07.11,0h.16l.1-.05.07-.07,0-.14,0-.08Z"/><path class="cls-5" d="M145.07,139.65l-.11,0-.07.08,0,.12v0a.34.34,0,0,0,0,.32l0,.07a.3.3,0,0,0,.21.1.34.34,0,0,0,.21-.1v0l.1,0,.08-.16A.39.39,0,0,0,145.07,139.65Z"/><path class="cls-5" d="M149.16,142.59H149l-.09,0-.09.08c-.12.25-.07.4,0,.48l0,0h0a.34.34,0,0,0,.27.16h0l.11-.06,0-.07a.28.28,0,0,0,.13-.23l0-.07A.62.62,0,0,0,149.16,142.59Z"/><path class="cls-5" d="M146.58,133.75a.09.09,0,0,0-.06,0h-.05a.33.33,0,0,0-.14,0l-.11,0-.05,0,0,0,0,.09a.42.42,0,0,0,0,.34.27.27,0,0,0,.21.12h.07l.07,0,.07-.05a.35.35,0,0,0,.19-.27.3.3,0,0,0-.12-.24Z"/><path class="cls-5" d="M140.14,136.78l-.07-.05-.09,0h-.09a.38.38,0,0,0-.32.15l0,.1a.4.4,0,0,0,.19.4h.11l.09,0,.08,0a.34.34,0,0,0,.19-.43Z"/><path class="cls-5" d="M142.89,127.37l0,0a.21.21,0,0,0-.15-.09h-.08l-.06,0-.06,0-.05.06h0l-.08.07-.06.13c0,.21.15.29.27.29h0a.29.29,0,0,0,.16,0h.05l.12-.11.05-.14a.23.23,0,0,0,0-.25Z"/><path class="cls-5" d="M142.26,119.38a.3.3,0,0,0,.08-.26.26.26,0,0,0-.17-.17l-.14,0-.09.07,0,0-.06,0a.3.3,0,0,0-.14.26.27.27,0,0,0,.15.22h.15l.11-.07Z"/><path class="cls-5" d="M129.17,114.38l-.14-.09h-.16l-.13.07-.06.11a.28.28,0,0,0-.05.24l0,.08.06.06.09,0h.05a.2.2,0,0,0,.14,0h0l.07,0,.09-.08.06-.14h0v-.11Z"/><path class="cls-5" d="M131,140.32a.27.27,0,0,0-.24-.13l-.08,0-.07.05-.07.08a.47.47,0,0,0-.14.18l0,.14.07.1.12.06h.07c.38,0,.44-.22.44-.35l-.06-.12Z"/><path class="cls-5" d="M178.33,121h.08l.09,0,.06-.06,0-.09a.27.27,0,0,0-.07-.24.34.34,0,0,0-.29-.1h0l-.09,0-.06.05,0,.07a.31.31,0,0,0,0,.28A.27.27,0,0,0,178.33,121Z"/><path class="cls-5" d="M168.33,126l-.1,0h-.06l-.1,0L168,126a.42.42,0,0,0-.06.12l.05.14.09.09.11,0a.34.34,0,0,0,.24-.11.27.27,0,0,0,0-.23l0-.09Z"/><path class="cls-5" d="M167.69,121.5a.38.38,0,0,0-.28-.1.29.29,0,0,0-.32.29v0a.27.27,0,0,0,.17.27l.09,0a.42.42,0,0,0,.13,0l.1,0,.11-.13.05-.09v-.09l0-.07Z"/><path class="cls-5" d="M170.07,132.4l-.06,0-.06,0h-.07a.38.38,0,0,0-.32.16.45.45,0,0,0,0,.4l.05.07.07.05.12,0a.4.4,0,0,0,.18,0l.09,0,.07,0,0-.06a.45.45,0,0,0,0-.53Z"/><path class="cls-5" d="M170.15,128.15h-.09l-.09.05-.07.07,0,.1v.16l0,.09.06.07.1.06a.94.94,0,0,0,.2,0,.36.36,0,0,0,.28-.15l0-.09a.35.35,0,0,0-.09-.28A.43.43,0,0,0,170.15,128.15Z"/><path class="cls-5" d="M169.89,148.83l-.12,0-.12.09a.33.33,0,0,0-.09.14l0,.14.08.09.08,0,.09-.12-.08.13h.16l.11-.07.06-.17C170.09,148.9,170,148.84,169.89,148.83Z"/><path class="cls-5" d="M165.46,142.14l-.11,0-.07.07-.05.09a.35.35,0,0,0,.07.28.33.33,0,0,0,.25.1h.06l.1,0,.06-.08,0-.11A.33.33,0,0,0,165.46,142.14Z"/><path class="cls-5" d="M166,114.31l-.07,0,.06-.07-.08-.07-.13,0a.39.39,0,0,0-.33.35l0,.11.05.08.09.06h.09a.23.23,0,0,0,.18-.08.28.28,0,0,0,.2-.21l0-.11Z"/><path class="cls-5" d="M167.89,133.86l-.07-.05-.09,0h-.09l-.11.05-.07.08,0,.14c0,.22.14.28.21.29h.1l.1-.05a.28.28,0,0,0,.12-.36Z"/><path class="cls-5" d="M151.3,148.42a.37.37,0,0,0-.23.1l0,.09v.06c0,.11.05.31.37.32l.07-.06,0,0,.07,0,.05-.09a.31.31,0,0,0-.06-.28A.33.33,0,0,0,151.3,148.42Z"/><path class="cls-5" d="M170.14,115a.45.45,0,0,0-.16,0l-.07.06,0,.07,0,.09v.09l0,.1.07.07.14,0h.19l.08-.05.06-.07,0-.09a.31.31,0,0,0-.08-.25A.31.31,0,0,0,170.14,115Z"/><path class="cls-5" d="M173.4,120.14l-.13,0-.06.06a.28.28,0,0,0-.13.24l0,.08,0,.06,0,.05a.28.28,0,0,0,.15,0,.29.29,0,0,0,.28-.28A.28.28,0,0,0,173.4,120.14Z"/><path class="cls-5" d="M178.64,127.6l.07-.13v-.16l-.05-.11-.07-.07-.14,0h-.06l0,0,0,0a.28.28,0,0,0-.09.27.32.32,0,0,0,.18.24h.15Z"/><path class="cls-5" d="M173.41,144.7l0,0v0a.29.29,0,0,0-.22-.22h0l0,0h-.06a.43.43,0,0,0-.31.14.44.44,0,0,0-.09.37l.06.11.08.05a.25.25,0,0,0,.22.1.18.18,0,0,0,.1,0h.06a.25.25,0,0,0,.24-.22l0-.08Z"/><path class="cls-5" d="M179.6,141.51a.27.27,0,0,0-.18-.1.3.3,0,0,0-.21-.08.62.62,0,0,0-.38.2l0,.07,0,.06a.52.52,0,0,0,.1.4.46.46,0,0,0,.37.14h.11l.08,0,.06-.06.05-.07a.33.33,0,0,1,0-.06C179.61,141.88,179.75,141.69,179.6,141.51Z"/><path class="cls-5" d="M161.76,144a.41.41,0,0,0,.25-.08l0-.06,0-.06v-.07c0-.34-.22-.37-.31-.37h-.08l-.1.07-.06.09v.09a.27.27,0,0,0,0,.17l0,.09.07.07.09.05Z"/><path class="cls-5" d="M171.48,139.82l-.06,0h-.09a.29.29,0,0,0-.24.1.27.27,0,0,0-.09.1l0,.07v.09l0,0h0a.29.29,0,0,0,.21.29h.05a.39.39,0,0,0,.37-.23.38.38,0,0,0-.1-.41Z"/><path class="cls-5" d="M175.07,132a.25.25,0,0,0-.21-.18.25.25,0,0,0-.16-.05.23.23,0,0,0-.18.09l0,.05,0,.06,0,.09a.45.45,0,0,0,0,.19l0,.1.06.08.05.05.07,0,.09,0a.45.45,0,0,0,.45-.37l0-.14Z"/><path class="cls-5" d="M172.63,110h0a.28.28,0,0,0,.15,0h.1a.23.23,0,0,0,.21-.16v-.15l0-.12a1,1,0,0,0,0-.17l-.08-.09-.09,0h-.17a.38.38,0,0,0-.31.47A.26.26,0,0,0,172.63,110Z"/><path class="cls-5" d="M173.32,136.74l-.15.16v0h0v.13l0,0v0l.16.15a.27.27,0,0,0,.28-.28.33.33,0,0,0-.09-.21A.27.27,0,0,0,173.32,136.74Z"/><path class="cls-5" d="M156.36,140.08l.07-.11v0h0a.34.34,0,0,0,.05-.24c0-.06,0-.14-.1-.16l-.08-.1-.12-.05a.26.26,0,0,0-.17.05h0l-.06,0h0l-.08.06-.06.1a.39.39,0,0,0,.1.32.43.43,0,0,0,.32.16A.3.3,0,0,0,156.36,140.08Z"/><path class="cls-5" d="M157,127.37l-.06,0,0,0,0,0-.07,0-.07,0h-.19l-.11,0a.26.26,0,0,0-.09.16l0,0v.21a.26.26,0,0,0,.13.21l0,0a.23.23,0,0,0,.21.11.23.23,0,0,0,.2-.12l0,0,.06-.08.05-.06,0,0a.24.24,0,0,0,0-.2Z"/><path class="cls-5" d="M157,135.33h0l0-.05-.07-.06-.1,0a.32.32,0,0,0-.22-.1.25.25,0,0,0-.18.08h0l-.11.08,0,.05a.34.34,0,0,0-.11.17v.13l0,0v.23l.05.07.11.09a.75.75,0,0,0,.36.09h.06l.08,0L157,136l.05-.08a.13.13,0,0,0,0-.06.81.81,0,0,0,.08-.06h0l0-.07,0-.1A.38.38,0,0,0,157,135.33Z"/><path class="cls-5" d="M156.66,147.86l-.09-.07-.1,0a.32.32,0,0,0-.31.29.28.28,0,0,0,.26.29l.1,0,.08-.05.07-.11a.31.31,0,0,0,.05-.1V148Z"/><path class="cls-5" d="M154.81,119.87l0,0v0l-.08,0h-.12l-.11,0-.09.12a.38.38,0,0,0-.07.26h0a.23.23,0,0,0,.11.21l0,0,.08.07a.35.35,0,0,0,.17,0l.1,0h.07l.09,0,.07,0,.05-.08a.57.57,0,0,0-.07-.47Z"/><path class="cls-5" d="M159.12,125A.35.35,0,0,0,159,125a.24.24,0,0,0-.11-.06l-.14,0a.71.71,0,0,0-.42.18l0,.06,0,.07v.07a.59.59,0,0,0,.64.46l.06,0,.05,0,0,0a.37.37,0,0,0,.07-.12.27.27,0,0,0,.08-.16l0-.09A.32.32,0,0,0,159.12,125Z"/><path class="cls-5" d="M154.26,112.31l.1,0,.13,0,.08,0,.05-.08,0-.09v-.16l0-.1-.08-.07-.11,0h-.19l-.06,0,0,0a.44.44,0,0,0-.07.32l0,.08.06.06Z"/><path class="cls-5" d="M153.32,127.36l-.08-.08h0a.31.31,0,0,0-.14-.15.39.39,0,0,0-.18,0l-.12,0h-.06l-.09,0-.07.06,0,.09a.41.41,0,0,0,.07.29l.09.09.11,0h.05a.36.36,0,0,0,.22.06h.07l.09-.05.06-.08,0-.11h0Z"/><path class="cls-5" d="M162.48,148a.27.27,0,0,0-.1-.15l-.1,0a.24.24,0,0,0-.17-.07.33.33,0,0,0-.13,0l-.06.05,0,0a.42.42,0,0,0-.14.36l0,.08,0,.06.08,0a.66.66,0,0,0,.25.05.41.41,0,0,0,.36-.22v-.14l0-.06Z"/><path class="cls-5" d="M162.38,113a.25.25,0,0,0,.18.11l.13,0,0,0a.35.35,0,0,0,.18-.14.25.25,0,0,0,0-.16.33.33,0,0,0-.36-.32.39.39,0,0,0-.18,0l-.05,0,0,0,0,.06A.32.32,0,0,0,162.38,113Z"/><path class="cls-5" d="M159.89,104.14l-.06,0-.08,0-.22,0a.35.35,0,0,0-.3.13.39.39,0,0,0-.08.34l.06.1.09.06.08,0,0,0,.1,0h.1l.13-.07a.4.4,0,0,0,.18-.47Z"/><path class="cls-5" d="M162.51,109.5v0l0,.07.08.05h.11a.39.39,0,0,0,.36-.26.26.26,0,0,0-.11-.29h0l0-.05-.12,0a.49.49,0,0,0-.35.15l0,.07v.15A.26.26,0,0,0,162.51,109.5Z"/><path class="cls-5" d="M152.24,137.74l-.06-.06-.05,0a.31.31,0,0,0-.17-.05l-.1,0-.06,0a.31.31,0,0,0-.13.29.38.38,0,0,0,.24.31H152l.1-.05.08-.1a.33.33,0,0,0,.06-.28Z"/><path class="cls-5" d="M163.44,127.93l-.06,0-.06,0c-.08,0-.18,0-.24.24s0,.3.07.32l.06,0,0,0,.07,0c.06,0,.18,0,.22-.21,0,0,0-.24-.06-.35Z"/><path class="cls-5" d="M159,130.61l.12-.1-.05-.09-.07-.07-.1,0h-.19l-.07,0-.06,0-.05,0a.29.29,0,0,0,.05.38c0,.21.18.23.24.23a.2.2,0,0,0,.11,0h0l.1,0,.09-.08a.36.36,0,0,0,0-.33Z"/><path class="cls-5" d="M164.16,129.37h0a.36.36,0,0,0-.19,0h-.07l-.09,0-.07,0,0,.05a.63.63,0,0,0-.06.46l0,.07.08.06.08.08.06,0H164a.16.16,0,0,0,.1,0l.05,0a.39.39,0,0,0,.34-.22l.07-.06,0-.07v-.09A.41.41,0,0,0,164.16,129.37Z"/><path class="cls-5" d="M161.06,137.46a.24.24,0,0,0-.23.2.31.31,0,0,0,.22.34l.16,0,.1-.08,0-.16C161.28,137.48,161.13,137.46,161.06,137.46Z"/><path class="cls-5" d="M163.17,134.59l-.12-.08a.56.56,0,0,0-.2,0,.25.25,0,0,0-.25.16v.08a.27.27,0,0,0,0,.26l0,.05.09.06a.43.43,0,0,0,.22.07h0l.11-.06.07-.09,0-.09a.73.73,0,0,0,.05-.12l0-.12Z"/><path class="cls-5" d="M161.13,117.26l.09,0h0a.43.43,0,0,0,.15,0l.15,0,.07,0,.05-.07,0-.11a.36.36,0,0,0,0-.23.25.25,0,0,0-.08-.14.23.23,0,0,0-.23-.17l-.09,0h-.1a.33.33,0,0,0-.27.13l0,.07v.13a.46.46,0,0,0,.08.37Z"/><path class="cls-5" d="M162.13,134.44l-.08-.09-.09,0h-.09a.38.38,0,0,0-.17-.05l-.09,0-.07,0-.07.12a.35.35,0,0,0,0,.3l0,.07.05,0,.12.05a.59.59,0,0,0,.2.05.34.34,0,0,0,.28-.18v-.15l0,0h0A.38.38,0,0,0,162.13,134.44Z"/><rect class="cls-4" x="137.61" y="79.27" width="47.46" height="49.8" transform="translate(-1.62 2.55) rotate(-0.9)"/><path class="cls-5" d="M174.54,96.52l.05,0,0,0a.27.27,0,0,0,0-.12.3.3,0,0,0-.14-.23l0,0-.1-.07a.34.34,0,0,0-.38.33.28.28,0,0,0,.15.24h.13a.27.27,0,0,0,.2,0Z"/><path class="cls-5" d="M166.33,101l0,.06v.06a.46.46,0,0,0,.28.4h.15l.1-.06.07-.16v-.12h0l0-.09,0-.12-.14-.1a.46.46,0,0,0-.35.1Z"/><path class="cls-5" d="M160.17,101.41v-.09l0-.11-.07-.07-.12,0a.61.61,0,0,0-.29.14l-.1.11,0,.12,0,.14a.33.33,0,0,0,.44,0h0l.07,0,.08-.08Z"/><path class="cls-5" d="M161.92,81.83a.29.29,0,0,0-.22-.28h-.15l-.11.06-.09.13v0a.27.27,0,0,0,.19.26l.14,0,.13,0Z"/><path class="cls-5" d="M156.21,112.81a.25.25,0,0,0,.24,0l.1-.06,0-.09v0l0-.1v-.1l0-.1a.28.28,0,0,0-.33,0h0l-.07,0-.08.09,0,.12A.34.34,0,0,0,156.21,112.81Z"/><path class="cls-5" d="M158.33,101.65v0a.48.48,0,0,0,.28.31l.14,0,.11-.05.1-.12.08,0,0-.06,0-.08a.28.28,0,0,0,0-.09v0a.36.36,0,0,0,0-.19h0l0,0a.47.47,0,0,0,0-.17.24.24,0,0,0-.13-.22H159a.31.31,0,0,0-.26,0l-.08.06,0,.08,0,.1a.59.59,0,0,1,0,.14h-.06l-.09.11v.05a.43.43,0,0,0-.11.21Z"/><path class="cls-5" d="M169.46,89l0-.09a.31.31,0,0,0-.17-.27h0a.31.31,0,0,0-.27-.07l-.09,0-.07.06,0,.1v0a.32.32,0,0,0,.1.21.2.2,0,0,0,.08,0,.29.29,0,0,0,.33.1l.08-.06Z"/><path class="cls-5" d="M143.45,89.22l0,0v-.06a.27.27,0,0,0-.22-.27l-.11,0-.1,0-.1.06a.35.35,0,0,0-.06.19.33.33,0,0,0,.18.28.31.31,0,0,0,.33,0Z"/><path class="cls-5" d="M176.1,87.81a.31.31,0,0,0,.05-.1v-.1l0-.11a.31.31,0,0,0-.37-.15l-.08.06,0,.08,0,.11a.48.48,0,0,0,0,.18.35.35,0,0,0,.06.18l.18.06h0v0A.27.27,0,0,0,176,88,.21.21,0,0,0,176.1,87.81Z"/><path class="cls-5" d="M150.47,86.9l0-.12-.07-.08h0a.32.32,0,0,0-.38-.15l-.1.1,0,.17v0a.34.34,0,0,0,.05.16.31.31,0,0,0,.06.13l.07,0,.07,0h.09A.38.38,0,0,0,150.47,86.9Z"/><path class="cls-5" d="M147,86.27a.27.27,0,0,0,.13-.09.35.35,0,0,0,.05-.13.24.24,0,0,0,.09-.18v-.06l0-.08,0,0-.08,0a.31.31,0,0,0-.23-.12.38.38,0,0,0-.3.11.45.45,0,0,0-.14.33.4.4,0,0,0,.36.4l.11,0Z"/><path class="cls-5" d="M157.34,86.53v0l.06.1.07.06.1,0h.06l.1,0,.08-.08a.33.33,0,0,0,.06-.12l-.05-.14-.06-.06h0a.24.24,0,0,0-.26-.11.23.23,0,0,0-.17.21v0A.29.29,0,0,0,157.34,86.53Z"/><path class="cls-5" d="M165.9,94.74h0a.62.62,0,0,0,0,.16.29.29,0,0,0,.11.11h0a.26.26,0,0,0,.21.25l.12,0,.05,0,.11-.06h0l.12,0,.1-.15-.15,0h0l.17,0,0-.17,0-.14a.35.35,0,0,0-.16-.23l0,0-.12,0a.28.28,0,0,0-.17,0h-.16l-.12.06c-.15,0-.2.14-.19.23A.22.22,0,0,0,165.9,94.74Z"/><path class="cls-5" d="M167.76,85.69a1,1,0,0,0,0,.17l0,.07.06.06.07,0a.34.34,0,0,0,.4-.21l0-.1v-.09l0-.09a.23.23,0,0,0-.13-.08l0,0-.13,0A.3.3,0,0,0,167.76,85.69Z"/><path class="cls-5" d="M158.51,96.75l0,0a.24.24,0,0,0,.13-.13l0,0,.06,0,0-.06,0-.11a.3.3,0,0,0-.05-.18v0l0-.09-.06-.09c-.34-.23-.62.07-.72.16l0,.17v0a.22.22,0,0,0,0,.09v0l0,.08a.17.17,0,0,0,.11.1l.09.11a.4.4,0,0,0,.28.06Z"/><path class="cls-5" d="M183.24,95.46l0-.07a.28.28,0,0,0,.19-.25V95l0-.09-.06-.07,0,.05,0-.06-.07-.06-.13,0a.1.1,0,0,1,.08,0,.34.34,0,0,0-.37-.1l0,0a.81.81,0,0,0-.27.32v.1l0,.08a.13.13,0,0,0,0,.06l0,.11.08.07.11,0,.11,0,.16,0Z"/><path class="cls-5" d="M137.86,95.48l.07-.08a.53.53,0,0,0,0-.2.21.21,0,0,0-.07-.17.3.3,0,0,0-.23-.08l-.11,0-.07.08,0,.1v.16l0,.1.07.07.14,0,.08,0Z"/><path class="cls-5" d="M150.08,95.15,150,95,150,95l-.11,0h0a.43.43,0,0,0-.32,0l-.07,0a.3.3,0,0,0-.1.21.26.26,0,0,0,.1.2h0l.05.1.16.07A.38.38,0,0,0,150.08,95.15Z"/><path class="cls-5" d="M147.16,99.17v-.11l0-.1-.08-.09a.44.44,0,0,0-.47,0l0,.06h0a.31.31,0,0,0-.15.27v0l.06.11.07,0a.27.27,0,0,0,.22.12h.08A.7.7,0,0,0,147.16,99.17Z"/><path class="cls-5" d="M155.9,96.68s0,0,0-.06v-.05a.32.32,0,0,0,0-.14l0-.1,0-.06,0,0-.09,0a.39.39,0,0,0-.33,0,.28.28,0,0,0-.13.2v.08l0,.06,0,.08c.05.06.13.18.27.18a.25.25,0,0,0,.23-.11Z"/><path class="cls-5" d="M152.94,90.3l.06-.07,0-.09v-.09a.36.36,0,0,0-.15-.31l-.09,0a.35.35,0,0,0-.39.18l0,.11,0,.09,0,.08a.34.34,0,0,0,.42.19Z"/><path class="cls-5" d="M162.22,93.07v0a.26.26,0,0,0,.09-.16v-.07l0-.06,0-.06-.06,0v0l-.07-.09-.13,0a.26.26,0,0,0-.28.26h0a.3.3,0,0,0-.05.16v0l.11.12.14.05a.23.23,0,0,0,.24,0Z"/><path class="cls-5" d="M170.1,92.49a.26.26,0,0,0,.26.08.25.25,0,0,0,.17-.16l0-.14-.07-.09-.05,0,.05-.06a.29.29,0,0,0-.25-.14.3.3,0,0,0-.22.15v.15l.06.11Z"/><path class="cls-5" d="M175.12,79.6l.08-.14v-.15l-.07-.13-.11-.06a.3.3,0,0,0-.23-.06l-.08,0-.06.06,0,.08v0a.2.2,0,0,0,0,.14h0l0,.07.07.09.14.06v0l.11,0Z"/><path class="cls-5" d="M149.5,81.27a.27.27,0,0,0,.13-.24l0-.08,0-.07-.07-.07a.56.56,0,0,0-.18-.13h-.14l-.1.07-.06.12V81c0,.37.22.43.34.43l.12,0Z"/><path class="cls-5" d="M168.3,128.09a.22.22,0,0,0,0,.08l0,.09.06.06.09,0a.27.27,0,0,0,.24-.07c.07,0,.1-.13.1-.28v0l0-.08-.05-.06-.07,0a.28.28,0,0,0-.27,0A.27.27,0,0,0,168.3,128.09Z"/><path class="cls-5" d="M163.47,118.19l0-.1V118l0-.1-.08-.08a.21.21,0,0,0-.12-.06l-.14,0-.08.09,0,.11a.3.3,0,0,0,.11.23.28.28,0,0,0,.22,0l.08,0Z"/><path class="cls-5" d="M167.87,117.59a.36.36,0,0,0,.09-.28.29.29,0,0,0-.28-.31h0c-.1,0-.19,0-.27.16l0,.09a.3.3,0,0,0,0,.12l0,.11.12.11.1,0h.08l.08,0Z"/><path class="cls-5" d="M157.09,119.87l0-.05,0-.07v-.07a.38.38,0,0,0-.15-.31.46.46,0,0,0-.4,0l-.07,0-.05.07,0,.11a.45.45,0,0,0,0,.19l0,.08,0,.06.07.06a.46.46,0,0,0,.52,0Z"/><path class="cls-5" d="M161.28,120v-.09l-.05-.09-.07-.07-.11,0h-.15l-.09,0-.07,0-.06.1a.94.94,0,0,0,0,.2.36.36,0,0,0,.15.28l.08,0a.36.36,0,0,0,.29-.09A.41.41,0,0,0,161.28,120Z"/><path class="cls-5" d="M140.88,119.59l0-.11-.08-.12a.32.32,0,0,0-.15-.09l-.13,0-.09.08,0,.07.12.09-.13-.08v.16l.07.11.16.07A.27.27,0,0,0,140.88,119.59Z"/><path class="cls-5" d="M147.51,115.26l0-.1-.06-.07-.09-.06a.34.34,0,0,0-.28.08.28.28,0,0,0-.1.24v.06l.05.1.08.06.1,0A.34.34,0,0,0,147.51,115.26Z"/><path class="cls-5" d="M175,115.94l-.05-.07.07.06.07-.07,0-.13a.4.4,0,0,0-.35-.34l-.1,0-.08,0-.06.09v.08a.61.61,0,0,0,.28.37l.11,0Z"/><path class="cls-5" d="M155.67,117.71l0-.06,0-.09v-.09l-.06-.12-.08-.06-.13,0c-.22,0-.28.13-.29.21v.1l.05.09a.28.28,0,0,0,.36.12Z"/><path class="cls-5" d="M141.38,101.25a.28.28,0,0,0-.09-.22l-.09,0-.06,0c-.11,0-.3.05-.31.37l0,.06,0,0,0,.07.09.06a.32.32,0,0,0,.27-.06A.34.34,0,0,0,141.38,101.25Z"/><path class="cls-5" d="M174.31,120l0-.15-.06-.08-.07,0-.08,0H174l-.09,0-.07.06-.06.14s0,0,0,.06,0,0,0,.06v.07l.05.08.07,0,.08,0a.32.32,0,0,0,.26-.08A.29.29,0,0,0,174.31,120Z"/><path class="cls-5" d="M169.18,123.23l-.05-.13-.07,0a.26.26,0,0,0-.23-.13l-.08,0-.06,0-.05,0a.28.28,0,0,0,0,.15.29.29,0,0,0,.28.28A.29.29,0,0,0,169.18,123.23Z"/><path class="cls-5" d="M161.78,128.36l.13.07h.16l.1-.05.07-.07,0-.14v0l0-.05,0,0a.3.3,0,0,0-.27-.08.32.32,0,0,0-.24.17v.15Z"/><path class="cls-5" d="M144.93,123.09l0,0v0a.26.26,0,0,0,.22-.22h0l0-.06v-.06a.39.39,0,0,0-.13-.31.45.45,0,0,0-.36-.08l-.11.06-.06.08a.29.29,0,0,0-.1.21.19.19,0,0,0,0,.1h0s0,0,0,0a.24.24,0,0,0,.21.24h.22Z"/><path class="cls-5" d="M148,129.23a.27.27,0,0,0,.1-.18.28.28,0,0,0,.08-.2.62.62,0,0,0-.2-.38l-.06,0-.07,0a.43.43,0,0,0-.53.46s0,.07,0,.11l0,.08.06.06.07,0,.06,0A.36.36,0,0,0,148,129.23Z"/><path class="cls-5" d="M145.72,111.61a.36.36,0,0,0,.09.24l.05,0,.06,0H146c.34,0,.37-.22.37-.31v-.08l-.07-.09-.08-.06-.09,0a.52.52,0,0,0-.17,0l-.1,0-.07.06,0,.09A.22.22,0,0,0,145.72,111.61Z"/><path class="cls-5" d="M149.76,121.22l0,0v-.08h0v0a.31.31,0,0,0-.1-.23.2.2,0,0,0-.1-.09l-.07,0h-.08l-.06,0h0a.27.27,0,0,0-.28.2V121a.39.39,0,0,0,.23.37.37.37,0,0,0,.39-.1Z"/><path class="cls-5" d="M157.47,124.81a.22.22,0,0,0,.17-.2.25.25,0,0,0,.05-.16.25.25,0,0,0-.08-.18l-.06,0-.05,0-.09,0a.64.64,0,0,0-.19,0l-.1,0-.08.06,0,0,0,.07,0,.08a.46.46,0,0,0,.37.45l.13,0Z"/><path class="cls-5" d="M179.18,122.53h0a.28.28,0,0,0,0,.15h0v.08a.24.24,0,0,0,.15.22h.15a.53.53,0,0,1,.12,0l.17,0,.08-.08,0-.09v-.16a.38.38,0,0,0-.47-.31A.25.25,0,0,0,179.18,122.53Z"/><path class="cls-5" d="M152.79,123.05l-.16-.14h-.19l0,0h0l-.15.15a.27.27,0,0,0,.28.28.33.33,0,0,0,.21-.09A.35.35,0,0,0,152.79,123.05Z"/><path class="cls-5" d="M149.58,106.29l.12.07h0a.37.37,0,0,0,.24,0,.23.23,0,0,0,.17-.1l.09-.07.05-.12a.26.26,0,0,0-.05-.17h0l0-.06h0v0l-.06-.08-.1-.06a.41.41,0,0,0-.32.1.42.42,0,0,0-.16.32A.33.33,0,0,0,149.58,106.29Z"/><path class="cls-5" d="M162.13,107l0,0,0,0,.05,0,0-.06,0-.08a.13.13,0,0,0,0-.06h0v-.11l0-.11a.27.27,0,0,0-.15-.09l-.06,0h-.2a.3.3,0,0,0-.21.12l0,0a.26.26,0,0,0-.11.21.23.23,0,0,0,.12.2l0,0,.07,0,.07.06,0,0a.2.2,0,0,0,.2,0Z"/><path class="cls-5" d="M154.27,107h0l0,0,.07-.08,0-.1a.27.27,0,0,0,.09-.21.29.29,0,0,0-.07-.18h0l-.08-.11,0,0a.39.39,0,0,0-.17-.11H154l0,0h-.22l-.08,0-.08.12a.74.74,0,0,0-.09.35v.06l0,.08.05.06.08,0h.06a.81.81,0,0,0,.06.08h0v0l.07,0,.09,0A.38.38,0,0,0,154.27,107Z"/><path class="cls-5" d="M141.91,106.55l.07-.09a.41.41,0,0,0,0-.11.29.29,0,0,0-.57,0l0,.09,0,.08.11.08.1,0h.12Z"/><path class="cls-5" d="M169.55,104.89l0,0h0a.19.19,0,0,1,0-.08v-.13l0-.1-.11-.1a.49.49,0,0,0-.26-.06h0a.22.22,0,0,0-.2.11l0,0-.07.07a.35.35,0,0,0,0,.17.2.2,0,0,0,0,.09.28.28,0,0,0,0,.08l0,.09,0,.07.08.05a.6.6,0,0,0,.46-.07Z"/><path class="cls-5" d="M164.44,109.11a.23.23,0,0,0,.06-.12.26.26,0,0,0,.07-.11.59.59,0,0,0,0-.14.6.6,0,0,0-.18-.41l-.06,0-.06,0h-.07a.59.59,0,0,0-.46.63V109l0,.06,0,0a.23.23,0,0,0,.12.06.24.24,0,0,0,.15.08l.09,0A.3.3,0,0,0,164.44,109.11Z"/><path class="cls-5" d="M177,104.39a.25.25,0,0,0,0,.09.83.83,0,0,0,0,.13l.06.08.07,0,.09,0h.16l.1,0,.07-.07,0-.11v-.13l0-.06,0-.06,0,0a.4.4,0,0,0-.32-.07l-.08,0-.06.06Z"/><path class="cls-5" d="M162.16,103.36l.08-.07h0a.28.28,0,0,0,.15-.14.39.39,0,0,0,0-.18s0-.07,0-.11a.13.13,0,0,1,0-.06l0-.1-.07-.06-.08-.05a.32.32,0,0,0-.28.08l-.1.09,0,.1v0a.35.35,0,0,0-.06.21v.08l0,.09.07.06.12,0v0Z"/><path class="cls-5" d="M141.69,112.29a.27.27,0,0,0,.15-.1.19.19,0,0,0,0-.1.2.2,0,0,0,.07-.16.25.25,0,0,0,0-.14l0-.05,0,0a.41.41,0,0,0-.35-.14l-.08,0-.06,0,0,.07a.92.92,0,0,0-.05.25.38.38,0,0,0,.22.35h.14l.06,0Z"/><path class="cls-5" d="M176.26,112.4a.27.27,0,0,0-.12.17l0,.13,0,0a.3.3,0,0,0,.14.18.21.21,0,0,0,.15,0,.34.34,0,0,0,.32-.35.37.37,0,0,0,0-.18l0-.06-.05,0-.05,0A.32.32,0,0,0,176.26,112.4Z"/><path class="cls-5" d="M185,110l.06-.06,0-.07a.83.83,0,0,0,0-.22.38.38,0,0,0-.13-.31.39.39,0,0,0-.34-.07l-.1.06-.06.08,0,.08,0,0,0,.1v.1l.06.13a.41.41,0,0,0,.47.18Z"/><path class="cls-5" d="M179.74,112.54h0l-.07.06,0,.07a.37.37,0,0,0,0,.11.39.39,0,0,0,.26.36.24.24,0,0,0,.28-.11v0l0,0,.05-.12a.42.42,0,0,0-.14-.34l-.07,0h-.15A.41.41,0,0,0,179.74,112.54Z"/><path class="cls-5" d="M151.92,102.24l.06,0,0-.06a.41.41,0,0,0,0-.17.27.27,0,0,0,0-.1l0,0a.3.3,0,0,0-.28-.14.42.42,0,0,0-.31.24V102l.05.1.09.08a.37.37,0,0,0,.29.06Z"/><path class="cls-5" d="M161.54,113.35l0-.06v-.06c0-.07,0-.18-.24-.23s-.29,0-.31.07l0,.05,0,.06,0,.06a.23.23,0,0,0,.2.22.48.48,0,0,0,.36-.06Z"/><path class="cls-5" d="M158.92,109l.1.12.09,0,.07-.07,0-.1v-.19l0-.07,0,0,0-.06a.31.31,0,0,0-.39,0,.24.24,0,0,0-.22.24.2.2,0,0,0,0,.11v0l0,.1.08.09a.35.35,0,0,0,.32,0Z"/><path class="cls-5" d="M160.12,114.06h0a.5.5,0,0,0,0-.19v-.07l0-.09-.05-.07,0,0a.61.61,0,0,0-.45-.06l-.07,0a.21.21,0,0,0-.06.08l-.08.07,0,.07v0a.43.43,0,0,0,0,.11l0,0a.37.37,0,0,0,.21.34l.06.06.07,0,.09,0A.41.41,0,0,0,160.12,114.06Z"/><path class="cls-5" d="M152.15,111a.26.26,0,0,0-.2-.23.32.32,0,0,0-.34.22l0,.15.08.1.16,0C152.12,111.17,152.15,111,152.15,111Z"/><path class="cls-5" d="M155,113.05l.07-.12a.54.54,0,0,0,0-.2.24.24,0,0,0-.16-.24h-.08a.34.34,0,0,0-.26,0l0,0-.06.08a.43.43,0,0,0-.07.22h0l.06.12.08.06.09,0,.12.06.12,0Z"/><path class="cls-5" d="M172.09,111.14l0,.08v0a.37.37,0,0,0,0,.14.49.49,0,0,0,0,.15l.06.07.07.05.1,0a.36.36,0,0,0,.23.05.23.23,0,0,0,.14-.08.24.24,0,0,0,.17-.22l0-.09a.38.38,0,0,0,0-.1.3.3,0,0,0-.13-.26l-.06,0h-.13a.46.46,0,0,0-.37.08Z"/><path class="cls-5" d="M155.12,112l.09-.07,0-.09v-.09a.41.41,0,0,0,0-.17l0-.09-.06-.07-.11-.07a.39.39,0,0,0-.3,0l-.07,0,0,0-.05.12a.38.38,0,0,0,0,.19.31.31,0,0,0,.17.28h.14l0,0h0A.25.25,0,0,0,155.12,112Z"/><rect class="cls-4" x="138.91" y="56.26" width="48.43" height="46.16" transform="translate(73.65 237.14) rotate(-86.38)"/><path class="cls-5" d="M149.74,85.75l0,0,0,0a.27.27,0,0,0,0,.12.25.25,0,0,0,.11.23l0,0,.09.07a.31.31,0,0,0,.26-.06.29.29,0,0,0,.13-.23.28.28,0,0,0-.12-.25H150a.36.36,0,0,0-.19,0Z"/><path class="cls-5" d="M158.05,82.07l0,0,0-.06a.48.48,0,0,0-.25-.41h-.14l-.1,0-.08.15v.12h0l0,.09,0,.12.12.1a.43.43,0,0,0,.35-.07Z"/><path class="cls-5" d="M164.05,82.11v.09l0,.11.07.07.11.05a.57.57,0,0,0,.3-.11l.1-.1,0-.12,0-.14a.31.31,0,0,0-.42,0h0l-.07,0-.08.06Z"/><path class="cls-5" d="M160.85,101a.28.28,0,0,0,.2.28l.14,0,.11,0,.1-.12h0a.25.25,0,0,0-.16-.27l-.14,0-.12,0Z"/><path class="cls-5" d="M168.77,71.36a.35.35,0,0,0-.24-.06l-.1.06-.06.08v0l0,.1v.09l0,.1a.29.29,0,0,0,.32.07h0l.08,0,.09-.08,0-.12A.38.38,0,0,0,168.77,71.36Z"/><path class="cls-5" d="M165.85,82v0a.54.54,0,0,0-.25-.33l-.14,0-.11,0-.1.11-.08,0-.06,0,0,.08s0,.06,0,.09v0a.24.24,0,0,0-.06.17v0l0,0a.38.38,0,0,0,0,.16.21.21,0,0,0,.11.22l.1,0a.29.29,0,0,0,.24.06l.08-.06.06-.07,0-.09a.71.71,0,0,1,0-.14h.06l.1-.09v-.06a.34.34,0,0,0,.12-.19Z"/><path class="cls-5" d="M154.09,93.42l0,.07a.29.29,0,0,0,.15.28h0v0a.32.32,0,0,0,.26.08l.09,0,.07-.06,0-.1h0a.29.29,0,0,0-.08-.21l-.08,0a.25.25,0,0,0-.3-.12l-.09,0Z"/><path class="cls-5" d="M179.33,95.21l0,.05v.06a.27.27,0,0,0,.19.28l.1,0h.11l.1-.05a.4.4,0,0,0,.07-.18.33.33,0,0,0-.16-.28.29.29,0,0,0-.32,0Z"/><path class="cls-5" d="M147.57,94.08a.15.15,0,0,0-.06.09v.1l.05.11a.29.29,0,0,0,.34.17l.08,0,.06-.07,0-.11a.38.38,0,0,0,0-.17.28.28,0,0,0,0-.18l-.17-.07h0v0a.27.27,0,0,0-.24,0A.21.21,0,0,0,147.57,94.08Z"/><path class="cls-5" d="M172.35,96.93l0,.11.06.09h0a.31.31,0,0,0,.36.18l.11-.09.05-.16v0a.38.38,0,0,0,0-.16.35.35,0,0,0-.05-.13l-.06,0-.07,0h-.09A.35.35,0,0,0,172.35,96.93Z"/><path class="cls-5" d="M175.66,97.8a.32.32,0,0,0-.13.08.23.23,0,0,0-.06.12.22.22,0,0,0-.1.17v.06l0,.08,0,0,.07.06a.36.36,0,0,0,.22.13.37.37,0,0,0,.3-.08.49.49,0,0,0,.16-.31.39.39,0,0,0-.32-.42h-.11Z"/><path class="cls-5" d="M165.65,96.75v0l0-.11-.06-.06-.1,0h-.06l-.1,0-.08.07a.26.26,0,0,0-.07.11l0,.15,0,0,0,0a.22.22,0,0,0,.24.12.22.22,0,0,0,.19-.18v0A.2.2,0,0,0,165.65,96.75Z"/><path class="cls-5" d="M158,88.14h0a.29.29,0,0,0,0-.16.27.27,0,0,0-.1-.11h0a.25.25,0,0,0-.18-.26l-.12,0-.05,0a.23.23,0,0,0-.11,0h0l-.12,0-.11.14.14,0h0l-.16,0-.05.15.05.15a.3.3,0,0,0,.12.23l.05,0a.53.53,0,0,0,.12,0,.24.24,0,0,0,.17,0l.15,0,.12,0a.25.25,0,0,0,.21-.21A.22.22,0,0,0,158,88.14Z"/><path class="cls-5" d="M155.49,96.77a.45.45,0,0,0,0-.16l0-.08,0-.06-.07,0a.32.32,0,0,0-.4.17l-.05.09v.09l0,.1A.28.28,0,0,0,155,97l0,0,.12.06A.3.3,0,0,0,155.49,96.77Z"/><path class="cls-5" d="M165.3,86.76l0,0a.22.22,0,0,0-.13.12l0,0-.06,0,0,0,0,.1a.31.31,0,0,0,0,.18v0l0,.09.05.09a.53.53,0,0,0,.71-.1l0-.16v0a.22.22,0,0,0,0-.09v0l0-.08a.22.22,0,0,0-.1-.11l-.08-.11a.39.39,0,0,0-.27-.08Z"/><path class="cls-5" d="M141.23,86.12l0,.06a.3.3,0,0,0-.2.23v.12l0,.09.05.07,0,0,0,0,.06.07.12,0a.11.11,0,0,1-.07,0,.33.33,0,0,0,.35.13l.05,0a.71.71,0,0,0,.28-.29v-.1l0-.08a.09.09,0,0,0,0-.05l0-.11-.06-.08-.11,0a.26.26,0,0,1-.11,0l-.15,0Z"/><path class="cls-5" d="M185.22,89.57l-.06.08a.33.33,0,0,0-.07.18.2.2,0,0,0,.06.18.3.3,0,0,0,.21.09l.11,0,.07-.06.05-.1v-.15l0-.11-.06-.07-.13,0-.08,0Z"/><path class="cls-5" d="M173.36,89l0,.11.07.07.1.05h0a.33.33,0,0,0,.3.07l.07,0A.24.24,0,0,0,174,89a.29.29,0,0,0-.08-.21h0l0-.1-.15-.09A.37.37,0,0,0,173.36,89Z"/><path class="cls-5" d="M176.5,85.28l0,.11,0,.1.06.09a.43.43,0,0,0,.46,0l0-.06h0a.33.33,0,0,0,.17-.25v0l0-.11-.06,0a.28.28,0,0,0-.21-.14h-.07A.63.63,0,0,0,176.5,85.28Z"/><path class="cls-5" d="M167.83,87l0,0v0a.21.21,0,0,0,0,.13l0,.11,0,0,.05,0,.08.05a.39.39,0,0,0,.32,0,.3.3,0,0,0,.14-.19v-.07l0-.07,0-.07a.33.33,0,0,0-.25-.2.26.26,0,0,0-.23.09Z"/><path class="cls-5" d="M170.21,93.44l-.06.06,0,.08v.09a.4.4,0,0,0,.12.32l.09,0a.36.36,0,0,0,.4-.15l0-.1,0-.09,0-.07a.33.33,0,0,0-.4-.22Z"/><path class="cls-5" d="M161.43,90l0,0a.31.31,0,0,0-.1.15v.07l0,.06,0,.06s0,0,0,0v0l.07.09.11.06c.21,0,.29-.12.3-.23h0a.25.25,0,0,0,0-.15v0l-.09-.13-.14,0a.24.24,0,0,0-.23,0Z"/><path class="cls-5" d="M153.74,90a.26.26,0,0,0-.25-.1.23.23,0,0,0-.17.15v.13l.06.09.05,0-.05.05a.29.29,0,0,0,.23.16.26.26,0,0,0,.22-.13v-.15l0-.1Z"/><path class="cls-5" d="M147.89,102.11l-.09.13v.15l.06.13.1.07a.29.29,0,0,0,.22.07l.08,0,.06-.05.05-.08v0a.29.29,0,0,0,0-.14h0l0-.07-.06-.09-.13-.07v0l-.1,0Z"/><path class="cls-5" d="M172.85,102.46a.27.27,0,0,0-.14.22l0,.08,0,.07.07.07a.52.52,0,0,0,.17.15h.13l.1-.06.07-.11v-.06c0-.37-.17-.44-.3-.45l-.12,0Z"/><path class="cls-5" d="M158.21,55.62a.09.09,0,0,0,0-.07l0-.09-.06-.07-.08,0a.33.33,0,0,0-.24,0,.36.36,0,0,0-.11.27v0l0,.08,0,.06.07,0a.25.25,0,0,0,.26,0A.26.26,0,0,0,158.21,55.62Z"/><path class="cls-5" d="M162.14,65.59l0,.09v.06l0,.1.07.09a.29.29,0,0,0,.11.07l.14,0,.09-.08,0-.1a.26.26,0,0,0-.08-.24.26.26,0,0,0-.21-.06l-.09,0Z"/><path class="cls-5" d="M157.83,65.84a.42.42,0,0,0-.12.26.29.29,0,0,0,.26.33h0a.27.27,0,0,0,.28-.14l0-.08a.25.25,0,0,0,0-.13l0-.1-.11-.11-.09-.06H158l-.07,0Z"/><path class="cls-5" d="M168.45,64.45l0,0,0,.06s0,0,0,.07a.38.38,0,0,0,.12.32.5.5,0,0,0,.39.06L169,65l0-.06.05-.11a.47.47,0,0,0,.06-.17v-.08l0-.07,0-.06a.47.47,0,0,0-.52,0Z"/><path class="cls-5" d="M164.4,64v.09l0,.1.06.06.1,0h.15l.09,0,.07,0,.06-.09A.87.87,0,0,0,165,64a.37.37,0,0,0-.12-.28l-.09,0a.38.38,0,0,0-.28.06A.4.4,0,0,0,164.4,64Z"/><path class="cls-5" d="M184.15,66l0,.12.07.12a.29.29,0,0,0,.13.09l.14,0,.09-.06,0-.07-.11-.1.12.09V66l-.06-.12-.15-.07A.25.25,0,0,0,184.15,66Z"/><path class="cls-5" d="M177.39,69.66l0,.1.05.07.09.06a.3.3,0,0,0,.39-.28v-.06l0-.09-.07-.07-.1,0A.33.33,0,0,0,177.39,69.66Z"/><path class="cls-5" d="M150.82,66.89l0,.07-.07-.06-.07.07,0,.12a.37.37,0,0,0,.3.35l.11,0,.08,0,.06-.08,0-.08a.31.31,0,0,0-.06-.19.28.28,0,0,0-.18-.2l-.11,0Z"/><path class="cls-5" d="M169.67,66.65l0,.06,0,.09v.09l0,.11.08.07.12.05c.22,0,.28-.11.3-.18v-.1l0-.09a.28.28,0,0,0-.34-.15Z"/><path class="cls-5" d="M182.26,83.71a.28.28,0,0,0,.07.22l.08.06h.06c.11,0,.29,0,.33-.33l-.05-.06,0,0-.05-.07-.08-.06a.32.32,0,0,0-.27,0A.29.29,0,0,0,182.26,83.71Z"/><path class="cls-5" d="M151.78,63a.38.38,0,0,0,0,.15l.05.07.06.05.09,0h.09l.09,0,.08,0,.06-.13a.18.18,0,0,1,0-.12v-.06l0-.09-.06,0-.08,0a.34.34,0,0,0-.25.06A.27.27,0,0,0,151.78,63Z"/><path class="cls-5" d="M157,60.26l0,.14.06.06a.27.27,0,0,0,.22.14l.07,0,.06,0,.06,0a.34.34,0,0,0,.05-.14.28.28,0,0,0-.25-.29A.28.28,0,0,0,157,60.26Z"/><path class="cls-5" d="M164.56,55.86l-.12-.08h-.15l-.11,0-.07.06-.05.13v.06l0,0,0,0a.27.27,0,0,0,.25.11.35.35,0,0,0,.25-.15V56Z"/><path class="cls-5" d="M180.49,62.26l0,0v0a.27.27,0,0,0-.23.19h0l0,0v.06a.42.42,0,0,0,.1.31.46.46,0,0,0,.35.11l.11-.05.06-.08a.23.23,0,0,0,.11-.19.45.45,0,0,0,0-.11h0v0a.23.23,0,0,0-.19-.25h-.21Z"/><path class="cls-5" d="M177.94,56.07a.3.3,0,0,0-.11.17.25.25,0,0,0-.09.19.65.65,0,0,0,.16.38l.06,0,.06,0a.46.46,0,0,0,.39-.07.41.41,0,0,0,.16-.33v-.11l0-.08,0-.07-.07,0,0,0A.35.35,0,0,0,177.94,56.07Z"/><path class="cls-5" d="M178.84,73.34a.42.42,0,0,0-.06-.25l-.05,0-.06,0-.07,0c-.32,0-.37.18-.37.27v.08l.05.1.08.06.09,0a.37.37,0,0,0,.16,0l.1,0,.07-.06.05-.08A.2.2,0,0,0,178.84,73.34Z"/><path class="cls-5" d="M175.66,63.7l0,.06v.08h0a.25.25,0,0,0,.08.23.21.21,0,0,0,.08.1l.07,0h.08l.05,0h0a.26.26,0,0,0,.29-.17V64a.35.35,0,0,0-.59-.31Z"/><path class="cls-5" d="M168.46,59.63a.23.23,0,0,0-.18.19.2.2,0,0,0-.06.14.23.23,0,0,0,.07.19l.05,0,0,0,.09,0a.46.46,0,0,0,.18.06l.09,0,.08-.06.06,0,0-.07,0-.08a.45.45,0,0,0-.32-.46l-.13,0Z"/><path class="cls-5" d="M147.24,60.18h0a.32.32,0,0,0,0-.14h0l0,0v0a.22.22,0,0,0-.13-.22l-.05,0H147l-.11,0-.17,0-.09.07,0,.09v.15a.36.36,0,0,0,.42.34A.24.24,0,0,0,147.24,60.18Z"/><path class="cls-5" d="M172.87,61.7l.14.15h.18l0,0h0l.16-.13a.27.27,0,0,0-.25-.3.27.27,0,0,0-.3.28Z"/><path class="cls-5" d="M174.69,78.19l-.1-.07h0a.35.35,0,0,0-.23-.06.21.21,0,0,0-.16.08l-.1.07-.06.11a.34.34,0,0,0,0,.17h0l0,.07h0v0l0,.09.09.06a.39.39,0,0,0,.33-.07.46.46,0,0,0,.17-.29A.37.37,0,0,0,174.69,78.19Z"/><path class="cls-5" d="M162.58,76.58l0,0,0,0,0,0,0,.06,0,.07v.06h0l0,.1,0,.12a.28.28,0,0,0,.14.09l0,.05h.19a.29.29,0,0,0,.22-.1l0,0a.23.23,0,0,0,0-.39l0-.05-.07,0-.06-.06,0,0a.25.25,0,0,0-.19,0Z"/><path class="cls-5" d="M170.2,77.16h0l0,0-.06.07,0,.1a.31.31,0,0,0-.11.2.27.27,0,0,0,.06.17h0l.07.11.05,0a.44.44,0,0,0,.15.12h.12l0,0,.12,0h.09l.08,0,.09-.1a.74.74,0,0,0,.12-.33v-.06l0-.08-.05-.07-.07-.05-.06,0-.05-.07h0v0l-.06-.06-.09,0A.37.37,0,0,0,170.2,77.16Z"/><path class="cls-5" d="M182.15,78.53l-.08.08s0,.07,0,.1a.3.3,0,0,0,.25.32.28.28,0,0,0,.3-.23v-.09l0-.08-.1-.08-.09-.06h-.12Z"/><path class="cls-5" d="M155.23,78v0h0s0,.07,0,.08l0,.12,0,.1.1.1a.39.39,0,0,0,.24.08h0a.25.25,0,0,0,.21-.1h0l.07-.07a.3.3,0,0,0,.05-.16.25.25,0,0,0,0-.09v-.08l0-.09-.05-.07-.07,0a.59.59,0,0,0-.45,0Z"/><path class="cls-5" d="M160.51,74.32a.23.23,0,0,0-.08.11.36.36,0,0,0-.07.1l0,.14a.63.63,0,0,0,.14.41l.05,0,.06,0h.07a.57.57,0,0,0,.49-.57v-.07l0,0,0,0a.26.26,0,0,0-.11-.07.19.19,0,0,0-.14-.09l-.09,0A.29.29,0,0,0,160.51,74.32Z"/><path class="cls-5" d="M148,77.94a.29.29,0,0,0,0-.09.31.31,0,0,0,0-.13l-.05-.08-.06-.06-.09,0h-.15l-.1,0-.08.06-.05.1v.19l0,.06,0,0a.39.39,0,0,0,.3.09l.09,0,.06,0Z"/><path class="cls-5" d="M162.27,80.07l-.08.06h0a.27.27,0,0,0-.16.12.61.61,0,0,0-.05.18.45.45,0,0,0,0,.11v.06l0,.09.06.07.08,0a.36.36,0,0,0,.28,0l.1-.08,0-.1v0a.31.31,0,0,0,.07-.2v-.07l0-.09-.07-.07-.11,0v0Z"/><path class="cls-5" d="M182.8,73a.31.31,0,0,0-.15.09.15.15,0,0,0-.06.09.22.22,0,0,0-.08.15.39.39,0,0,0,0,.14l0,0,0,0a.36.36,0,0,0,.32.17l.08,0,.06,0,.06-.07a.61.61,0,0,0,.06-.24A.37.37,0,0,0,183,73l-.14,0-.06,0Z"/><path class="cls-5" d="M149.3,70.23a.25.25,0,0,0,.12-.16l0-.13,0,0a.24.24,0,0,0-.12-.18.19.19,0,0,0-.15,0,.33.33,0,0,0-.34.32.57.57,0,0,0,0,.18l0,0,0,0,0,0A.34.34,0,0,0,149.3,70.23Z"/><path class="cls-5" d="M140.6,71.89l-.06,0,0,.07a.71.71,0,0,0,0,.21.39.39,0,0,0,.1.31.41.41,0,0,0,.32.1l.1,0,.06-.08,0-.08,0,0,0-.1V72.2l0-.13a.39.39,0,0,0-.44-.21Z"/><path class="cls-5" d="M145.93,69.82h0l.07,0,.06-.07a.36.36,0,0,0,0-.1.38.38,0,0,0-.23-.37.23.23,0,0,0-.27.07v0l0,0-.05.11a.48.48,0,0,0,.11.34l.07,0h.14A.24.24,0,0,0,145.93,69.82Z"/><path class="cls-5" d="M172.11,81.94l-.06,0,0,.05a.37.37,0,0,0,0,.16.51.51,0,0,0,0,.1l0,0a.29.29,0,0,0,.27.15.38.38,0,0,0,.31-.2v-.13l0-.1-.09-.08a.35.35,0,0,0-.27-.08Z"/><path class="cls-5" d="M163.64,70.43l0,.06,0,.05c0,.08,0,.18.21.25a.39.39,0,0,0,.32-.05l0,0,0,0,0-.06a.23.23,0,0,0-.18-.24.44.44,0,0,0-.34,0Z"/><path class="cls-5" d="M165.85,74.86l-.09-.12-.1,0-.06.06,0,.1v.25l0,0,0,.06a.29.29,0,0,0,.37,0,.23.23,0,0,0,.24-.22.43.43,0,0,0,0-.11h0l0-.1-.07-.1a.34.34,0,0,0-.31,0Z"/><path class="cls-5" d="M165.07,69.85h0a.78.78,0,0,0,0,.18v.08l0,.08.05.07,0,0a.62.62,0,0,0,.44.09l.07,0,.06-.07.08-.06,0-.06,0-.06a.44.44,0,0,0,0-.1l0,0a.37.37,0,0,0-.18-.34l0-.07-.06,0-.09,0A.42.42,0,0,0,165.07,69.85Z"/><path class="cls-5" d="M172.56,73.48a.23.23,0,0,0,.18.23.3.3,0,0,0,.34-.18l0-.15-.07-.1-.14,0C172.6,73.27,172.57,73.42,172.56,73.48Z"/><path class="cls-5" d="M170,71.22l-.08.12a.42.42,0,0,0-.06.18.25.25,0,0,0,.14.25h.08a.31.31,0,0,0,.25,0l.05,0,.06-.08a.29.29,0,0,0,.08-.2v0l0-.11-.08-.07-.09,0-.11-.06h-.11Z"/><path class="cls-5" d="M153.25,71.77l0-.08v0a.28.28,0,0,0,0-.13.41.41,0,0,0,0-.15l0-.07-.06-.05-.1,0a.45.45,0,0,0-.22-.06.27.27,0,0,0-.14.07.21.21,0,0,0-.18.2v.09a.31.31,0,0,0,0,.1.28.28,0,0,0,.1.26l.06,0h.13a.41.41,0,0,0,.36,0Z"/><path class="cls-5" d="M169.76,72.21l-.09.07,0,.08v.08a.37.37,0,0,0-.05.16l0,.1,0,.07.11.08a.41.41,0,0,0,.29,0l.07,0,0,0,.06-.11a.36.36,0,0,0,.06-.19.31.31,0,0,0-.15-.28H170l0,0v0A.48.48,0,0,0,169.76,72.21Z"/><rect class="cls-4" x="139.82" y="31.04" width="44.44" height="46.63" transform="translate(-7.64 74.81) rotate(-25.42)"/><path class="cls-5" d="M170.31,42.7l0-.06v-.06a.23.23,0,0,0,0-.11.25.25,0,0,0-.2-.14l0,0-.11,0a.28.28,0,0,0-.2.17.3.3,0,0,0,0,.26.27.27,0,0,0,.22.15l.11,0a.31.31,0,0,0,.17-.07Z"/><path class="cls-5" d="M165,49.68v0l0,.06a.43.43,0,0,0,.4.23l.11-.06.07-.1V49.7l0-.1h0l0-.09-.08-.08-.15,0a.4.4,0,0,0-.27.22Z"/><path class="cls-5" d="M160,52.45l0-.08-.08-.07-.09,0h-.12a.49.49,0,0,0-.19.24l0,.13,0,.11.09.1a.29.29,0,0,0,.37-.15h0l.05,0,0-.1Z"/><path class="cls-5" d="M153.85,35.09a.27.27,0,0,0-.3-.15l-.13.05-.07.09,0,.15h0a.25.25,0,0,0,.26.15l.14,0,.09-.08Z"/><path class="cls-5" d="M161,63.71a.35.35,0,0,0,.23-.07l.05-.09,0-.09,0-.05v-.1l0-.08-.07-.07a.26.26,0,0,0-.3.09h0l-.06.05,0,.1,0,.13A.37.37,0,0,0,161,63.71Z"/><path class="cls-5" d="M158.49,53.37l0,0a.46.46,0,0,0,.36.16l.13,0,.07-.09,0-.14,0-.07,0-.07v-.09l0-.08h0a.23.23,0,0,0,0-.18h0l0,0a.37.37,0,0,0,0-.16.23.23,0,0,0-.19-.14l-.09,0a.24.24,0,0,0-.23.07l-.05.08v.08l0,.1.07.11h0l-.05,0,0,.12v0a.37.37,0,0,0,0,.22Z"/><path class="cls-5" d="M163.07,38.28l0-.08a.26.26,0,0,0-.25-.16h0a.39.39,0,0,0-.27,0l0,.08,0,.08v.1h0a.31.31,0,0,0,.16.14h.09a.28.28,0,0,0,.32,0l0-.09Z"/><path class="cls-5" d="M141,48.56v-.05l0,0a.27.27,0,0,0-.29-.15l-.11,0-.08,0-.06.09a.27.27,0,0,0,0,.18.28.28,0,0,0,.26.17.3.3,0,0,0,.26-.17Z"/><path class="cls-5" d="M168.25,34.67a.31.31,0,0,0,0-.1l0-.08-.09-.08a.3.3,0,0,0-.37,0l-.05.08v.2a.59.59,0,0,0,0,.17.37.37,0,0,0,.12.13l.18,0,0,0v0a.26.26,0,0,0,.18-.15A.25.25,0,0,0,168.25,34.67Z"/><path class="cls-5" d="M146.06,43.86l-.08-.09-.09,0h0a.29.29,0,0,0-.38,0l-.05.13,0,.16,0,0a.23.23,0,0,0,.1.12.24.24,0,0,0,.09.08l.08,0h.07l.08,0A.37.37,0,0,0,146.06,43.86Z"/><path class="cls-5" d="M142.86,44.68a.43.43,0,0,0,.08-.14.28.28,0,0,0,0-.13.21.21,0,0,0,0-.19l0,0-.06,0-.05,0-.09,0a.3.3,0,0,0-.24,0,.38.38,0,0,0-.22.21.5.5,0,0,0,0,.34.4.4,0,0,0,.47.2l.09-.07Z"/><path class="cls-5" d="M151.78,40.88v0l.08.06.09,0h.09l.06,0,.06-.07.05-.1a.44.44,0,0,0,0-.12l-.1-.1-.07,0v0a.23.23,0,0,0-.26,0,.23.23,0,0,0-.07.25l0,0A.19.19,0,0,0,151.78,40.88Z"/><path class="cls-5" d="M162.26,44.54h0a.4.4,0,0,0,.1.12.2.2,0,0,0,.14,0h0a.23.23,0,0,0,.27.13l.09-.07,0-.06a.23.23,0,0,0,.08-.09h0l.09-.09,0-.16-.13,0h0l.13-.1,0-.16-.1-.1a.32.32,0,0,0-.22-.13h-.05l-.12,0a.24.24,0,0,0-.15,0l-.14.06-.08.1a.2.2,0,0,0-.07.27A.19.19,0,0,0,162.26,44.54Z"/><path class="cls-5" d="M160.32,36.11a.38.38,0,0,0,.09.13l.06,0,.07,0h.08a.32.32,0,0,0,.26-.33v-.1l0-.07-.07-.07a.32.32,0,0,0-.13,0l0,0h-.13A.29.29,0,0,0,160.32,36.11Z"/><path class="cls-5" d="M156.74,49.13l0,0a.19.19,0,0,0,.05-.16l0,0,0-.07v-.06l0-.1a.33.33,0,0,0-.11-.14h0l-.06-.07-.09-.05c-.38-.06-.5.3-.54.41l0,.15v0s0,0,0,.08v0l.05.05a.2.2,0,0,0,.13,0l.12,0a.38.38,0,0,0,.27,0Z"/><path class="cls-5" d="M177.31,38.41v-.07a.3.3,0,0,0,.06-.29l0-.1-.07-.07-.07,0,0,0,0-.06-.08,0h0a.32.32,0,0,0-.36.06l0,0a.77.77,0,0,0-.1.38l0,.08.05.06,0,0,.08.08.09,0H177a.24.24,0,0,1,.1,0l.15,0Z"/><path class="cls-5" d="M138.66,56.07l0-.1a.47.47,0,0,0,0-.19.22.22,0,0,0-.13-.12.3.3,0,0,0-.23,0l-.07.08,0,.08V56l.06.13.08.07.09,0,.13,0,.06,0Z"/><path class="cls-5" d="M148.94,51l-.09-.07-.09,0h-.08a.34.34,0,0,0-.29.09l0,.06a.26.26,0,0,0,.16.35h0l.08.06h.16A.36.36,0,0,0,148.94,51Z"/><path class="cls-5" d="M148,55.6l0-.1-.06-.07-.1,0c-.26,0-.36.09-.41.18v0h0a.3.3,0,0,0,0,.29l0,0,.09.06.08,0a.28.28,0,0,0,.24,0l.06,0A.69.69,0,0,0,148,55.6Z"/><path class="cls-5" d="M154.48,50.08a.14.14,0,0,0,0-.06l0-.05a.31.31,0,0,0,0-.13l-.06-.08,0,0-.06,0h-.09a.34.34,0,0,0-.27.15.22.22,0,0,0,0,.22l0,.06,0,.05.07,0a.3.3,0,0,0,.3,0,.23.23,0,0,0,.15-.18Z"/><path class="cls-5" d="M149.49,45.79l0-.08v-.08l0-.08a.34.34,0,0,0-.25-.21h-.09a.34.34,0,0,0-.26.31l0,.1.06.07.06.05a.32.32,0,0,0,.44,0Z"/><path class="cls-5" d="M158.47,44.55v0a.25.25,0,0,0,0-.17l0-.06,0,0-.06,0-.06,0,0,0-.09-.05h-.12a.25.25,0,0,0-.15.33h0a.26.26,0,0,0,0,.15l0,0,.14.06h.14a.25.25,0,0,0,.21-.09Z"/><path class="cls-5" d="M165,41a.24.24,0,0,0,.25,0,.23.23,0,0,0,.08-.21l-.07-.1-.09,0,0,0,0-.07a.29.29,0,0,0-.27,0,.24.24,0,0,0-.12.21l.05.13.1.06Z"/><path class="cls-5" d="M164.22,28.06l0-.15-.06-.13-.11-.08H164a.29.29,0,0,0-.22,0l0,.07,0,.07V28l0,.05c0,.07.09.11.09.1h0l.05.05.1.05h.14v0l.1,0Z"/><path class="cls-5" d="M143.05,39.44a.28.28,0,0,0,0-.25l-.06-.06-.06,0-.1,0a.46.46,0,0,0-.21-.05l-.11.07-.05.1v.12l0,.06c.15.32.35.28.46.24l.08-.1Z"/><path class="cls-5" d="M177.26,72a.21.21,0,0,0,0,.06l.07.06.07,0h.09a.3.3,0,0,0,.19-.15.36.36,0,0,0,0-.28h0l-.06-.06-.07,0h-.08a.29.29,0,0,0-.21.14A.27.27,0,0,0,177.26,72Z"/><path class="cls-5" d="M169.3,65.46v-.09l0-.05-.07-.07-.1,0a.24.24,0,0,0-.13,0l-.1.1,0,.11v.1a.25.25,0,0,0,.18.16.21.21,0,0,0,.2,0l.06-.08Z"/><path class="cls-5" d="M172.81,63.24a.43.43,0,0,0,0-.27.29.29,0,0,0-.37-.16l0,0a.27.27,0,0,0-.17.24l0,.09a.23.23,0,0,0,.07.09l.07.08.15,0a.17.17,0,0,0,.1,0l.07,0,0-.05Z"/><path class="cls-5" d="M164.52,69.37v-.12l0-.06a.36.36,0,0,0-.25-.21.43.43,0,0,0-.35.13l0,.07v.19a.45.45,0,0,0,0,.18l.05.06.06,0,.07,0a.44.44,0,0,0,.43-.25Z"/><path class="cls-5" d="M168.13,67.84a.25.25,0,0,0,0-.07L168,67.7l-.08,0h-.11l-.13.07-.06.06,0,.07V68a.83.83,0,0,0,0,.18.34.34,0,0,0,.23.18H168a.32.32,0,0,0,.21-.18A.43.43,0,0,0,168.13,67.84Z"/><path class="cls-5" d="M150.6,75.44l-.07-.09-.12-.07a.3.3,0,0,0-.16,0l-.1.08-.05.1v.08l.13,0-.13,0,.06.14.1.06h.17A.26.26,0,0,0,150.6,75.44Z"/><path class="cls-5" d="M154.56,69.17l-.07-.07-.08,0h-.1a.34.34,0,0,0-.21.17.29.29,0,0,0,0,.24l0,.06.08.06.09,0h.1A.32.32,0,0,0,154.56,69.17Z"/><path class="cls-5" d="M178.22,59.08l-.07,0,.08,0,0-.09v-.12a.37.37,0,0,0-.43-.15l-.07.06-.05.07,0,.1,0,.07a.22.22,0,0,0,.14.13.24.24,0,0,0,.25.08l.08-.06Z"/><path class="cls-5" d="M162.46,68.09l0-.08,0-.08,0-.08-.09-.07-.1,0-.12,0c-.19.09-.19.22-.17.29l.05.08.07.06a.25.25,0,0,0,.35,0Z"/><path class="cls-5" d="M143.9,59.61a.31.31,0,0,0-.17-.15h-.15c-.1,0-.24.16-.13.44l.07,0v0l.08,0,.09,0a.31.31,0,0,0,.21-.16A.33.33,0,0,0,143.9,59.61Z"/><path class="cls-5" d="M179.25,62.83a.47.47,0,0,0-.09-.12l-.07,0h-.16l-.08,0-.07.07,0,.08V63l0,0s0,0,0,.06l0,0,.07.05.07,0h.09a.36.36,0,0,0,.19-.17A.28.28,0,0,0,179.25,62.83Z"/><path class="cls-5" d="M176.12,67.54l-.09-.09-.08,0a.23.23,0,0,0-.25,0l0,0,0,.05,0,.07a.32.32,0,0,0,0,.14.26.26,0,0,0,.34.13A.27.27,0,0,0,176.12,67.54Z"/><path class="cls-5" d="M171.81,74.79H172l.13-.07.07-.08,0-.09,0-.13,0,0,0,0,0,0a.25.25,0,0,0-.26,0,.32.32,0,0,0-.14.24l.07.12Z"/><path class="cls-5" d="M155.41,76.85l0,0h0a.26.26,0,0,0,.11-.27h0v-.06l0,0a.38.38,0,0,0-.23-.22.45.45,0,0,0-.34.07l-.07.1,0,.09a.25.25,0,0,0,0,.21.24.24,0,0,0,.06.09h0s0,0,0,0a.23.23,0,0,0,.27.12l.07,0Z"/><path class="cls-5" d="M160.44,80.86a.24.24,0,0,0,0-.19.28.28,0,0,0,0-.2.6.6,0,0,0-.32-.25H160a.47.47,0,0,0-.3.24.42.42,0,0,0,0,.36.41.41,0,0,0,.05.09l.07,0,.07,0h.14C160.13,81,160.35,81.06,160.44,80.86Z"/><path class="cls-5" d="M151.62,66.75a.33.33,0,0,0,.16.17l.07,0h.06l.07,0c.28-.13.22-.33.19-.4l0-.07-.09,0-.1,0-.08,0a.3.3,0,0,0-.16,0l-.07.07,0,.08v.09Z"/><path class="cls-5" d="M158.8,73.38v-.06l0-.07h0v0a.3.3,0,0,0-.18-.16.19.19,0,0,0-.11,0l-.07,0-.07,0,0,0h0a.28.28,0,0,0-.16.29l0,0a.35.35,0,0,0,.34.22.33.33,0,0,0,.3-.23Z"/><path class="cls-5" d="M166.76,73.43a.23.23,0,0,0,.07-.24.21.21,0,0,0,0-.15.23.23,0,0,0-.15-.12h-.1l-.09,0a.45.45,0,0,0-.18,0l-.07.07,0,.08,0,.07v.07l0,.08a.42.42,0,0,0,.48.24l.1-.09Z"/><path class="cls-5" d="M184.37,63.05h0a.19.19,0,0,0,0,.14h0v0l0,.05a.22.22,0,0,0,.21.13h.05l.08,0,.09-.07.13-.09,0-.1V63l-.07-.13a.37.37,0,0,0-.52-.09A.22.22,0,0,0,184.37,63.05Z"/><path class="cls-5" d="M162.09,73.76l-.19-.07-.05,0h0l-.11.05v0l0,0-.07.19a.27.27,0,0,0,.35.13.28.28,0,0,0,.14-.16A.26.26,0,0,0,162.09,73.76Z"/><path class="cls-5" d="M152.84,60.72l.13,0h0a.38.38,0,0,0,.23-.05.23.23,0,0,0,.1-.15l.05-.1v-.12a.39.39,0,0,0-.11-.13h0l-.06,0h0v0l-.09,0H153a.36.36,0,0,0-.24.21.42.42,0,0,0,0,.33A.29.29,0,0,0,152.84,60.72Z"/><path class="cls-5" d="M163.79,56.42v-.06l0,0,0-.07V56.2l0-.07,0-.06h0l0-.09-.07-.08a.27.27,0,0,0-.17,0h-.06l-.17.08a.29.29,0,0,0-.14.19v0a.22.22,0,0,0,0,.22.25.25,0,0,0,.18.13l0,0h.09l.07,0,0,0a.26.26,0,0,0,.19,0Z"/><path class="cls-5" d="M157.11,59.49h0l0,0,0-.09,0-.09a.28.28,0,0,0,0-.22.22.22,0,0,0-.13-.12h0l-.11-.06h-.05a.41.41,0,0,0-.19,0l-.1.07,0,0-.11,0-.08.05,0,.07,0,.13a.55.55,0,0,0,.06.33l0,.05.06,0,.07,0h.09l.06,0a.2.2,0,0,0,.08,0h0l.08,0h.09A.35.35,0,0,0,157.11,59.49Z"/><path class="cls-5" d="M146.4,63.92l0-.1s0-.07,0-.09a.27.27,0,0,0-.35-.15.26.26,0,0,0-.15.33l0,.07L146,64l.12,0a.4.4,0,0,0,.11,0l.09,0Z"/><path class="cls-5" d="M169.3,51.77l0,0h0s0-.07,0-.08l0-.11-.08-.07-.13,0a.41.41,0,0,0-.24,0h0a.19.19,0,0,0-.13.17l0,0,0,.09a.29.29,0,0,0,0,.16.18.18,0,0,0,0,.07.33.33,0,0,1,0,.06l.06.07.07,0,.09,0a.55.55,0,0,0,.37-.24Z"/><path class="cls-5" d="M166.59,57.35a501903692070.81,501903692070.81,0,0,1,0-.24.28.28,0,0,0,0-.13.65.65,0,0,0-.31-.29h-.13l-.06,0a.54.54,0,0,0-.15.71l0,0,0,0,.05,0h.13a.28.28,0,0,0,.16,0l.06-.06A.28.28,0,0,0,166.59,57.35Z"/><path class="cls-5" d="M175.47,48.44a.29.29,0,0,0,0,.09l.08.1.07,0h.17l.14-.06.07-.08,0-.09v-.1l0-.11,0-.05,0,0-.06,0a.41.41,0,0,0-.3.06l-.05.07,0,.07Z"/><path class="cls-5" d="M162.42,53.34l0-.09h0a.23.23,0,0,0,.08-.17.47.47,0,0,0,0-.17.24.24,0,0,0-.06-.09l0,0-.07-.07-.08,0h-.09a.34.34,0,0,0-.21.17l-.05.11v.11l0,0a.31.31,0,0,0,0,.2l0,.06.09.06.08,0,.11,0v0Z"/><path class="cls-5" d="M148.45,68.9a.26.26,0,0,0,.09-.14.21.21,0,0,0,0-.11.15.15,0,0,0,0-.16.39.39,0,0,0-.08-.1l-.06,0-.05,0a.39.39,0,0,0-.36,0l-.05,0,0,.07,0,.08a.65.65,0,0,0,.06.23.38.38,0,0,0,.32.22l.12-.06,0,0Z"/><path class="cls-5" d="M177.94,55.56a.21.21,0,0,0,0,.19l.08.09,0,0a.27.27,0,0,0,.19.09.23.23,0,0,0,.14,0,.32.32,0,0,0,.14-.42.53.53,0,0,0-.11-.14l0,0-.06,0h-.06A.31.31,0,0,0,177.94,55.56Z"/><path class="cls-5" d="M184.49,50.09l0-.07v-.08a.7.7,0,0,0-.06-.19.37.37,0,0,0-.23-.21.36.36,0,0,0-.32.07l-.06.09v.17l0,.05V50l.05.08.1.08a.37.37,0,0,0,.47,0Z"/><path class="cls-5" d="M181,54.33l0,0,0,.07,0,.09,0,.09a.37.37,0,0,0,.36.21.23.23,0,0,0,.2-.2v0l0,0v-.12a.44.44,0,0,0-.26-.24h-.07l-.07,0-.06,0A.21.21,0,0,0,181,54.33Z"/><path class="cls-5" d="M153.26,56.36l0-.07v-.06a.39.39,0,0,0,0-.16l-.05-.08-.05,0a.27.27,0,0,0-.3,0,.36.36,0,0,0-.16.32l0,.11.07.06.12,0a.36.36,0,0,0,.26-.06Z"/><path class="cls-5" d="M165.77,62.09V62c0-.06-.1-.13-.29-.1s-.23.15-.25.18v.17c0,.06.09.14.26.12,0,0,.22-.06.27-.19Z"/><path class="cls-5" d="M161.84,59.39l.14.06.06-.07,0-.09v-.1L162,59l0-.05-.05,0-.06,0a.28.28,0,0,0-.31.18.23.23,0,0,0-.1.29.22.22,0,0,0,.07.09h0l.06.08.11,0a.33.33,0,0,0,.27-.12Z"/><path class="cls-5" d="M164.84,63.25h0a.31.31,0,0,0,0-.18l0-.06L164.7,63l-.07,0-.06,0a.57.57,0,0,0-.4.13l0,.06s0,.06,0,.09l0,.09v.12a.16.16,0,0,0,.06.08v0a.36.36,0,0,0,.31.21l.07,0h.08l.08,0A.39.39,0,0,0,164.84,63.25Z"/><path class="cls-5" d="M156.84,63.7a.22.22,0,0,0-.26-.12.28.28,0,0,0-.2.31l.08.12.11,0,.15,0A.28.28,0,0,0,156.84,63.7Z"/><path class="cls-5" d="M160.06,64.39l0-.13a.9.9,0,0,0-.05-.19.22.22,0,0,0-.23-.14l-.07,0a.27.27,0,0,0-.21.11l0,.06v.09a.33.33,0,0,0,0,.21v0l.09.07.1,0h.09a.24.24,0,0,0,.12,0l.09-.06Z"/><path class="cls-5" d="M173.9,56.11v.08l0,0a.5.5,0,0,0,0,.14l.09.11.07,0h.18a.34.34,0,0,0,.22,0,.15.15,0,0,0,.08-.12.2.2,0,0,0,.06-.25l0-.07,0-.09a.27.27,0,0,0-.21-.17h-.06l-.06,0-.06,0a.42.42,0,0,0-.28.21Z"/><path class="cls-5" d="M159.79,63.45l0-.09v-.1l0-.07a.39.39,0,0,0,0-.16l-.07-.07-.07,0h-.13a.3.3,0,0,0-.25.1l0,.06,0,.07v.12a.65.65,0,0,0,0,.18.3.3,0,0,0,.26.17l.12-.06,0,0h0A.29.29,0,0,0,159.79,63.45Z"/><rect class="cls-4" x="146.9" y="16.92" width="23.95" height="25.13" transform="translate(-0.22 1.23) rotate(-0.44)"/><path class="cls-5" d="M152.18,33.3l0,0,0,0a.13.13,0,0,0,0,.06.14.14,0,0,0,.06.11v0l.05,0a.17.17,0,0,0,.14,0,.18.18,0,0,0,.06-.13.13.13,0,0,0-.08-.12h-.06a.16.16,0,0,0-.1,0Z"/><path class="cls-5" d="M156.34,31.09V31a.28.28,0,0,0-.14-.21h-.08l0,0,0,.08V31h0v0l0,.06.07.05a.23.23,0,0,0,.18-.05Z"/><path class="cls-5" d="M159.45,30.88v.05l0,.06,0,0,.06,0a.24.24,0,0,0,.15-.07l.05,0v-.06l0-.07a.16.16,0,0,0-.22,0h0l0,0Z"/><path class="cls-5" d="M158.49,40.76a.15.15,0,0,0,.11.14h.07l.06,0,.05-.07h0a.15.15,0,0,0-.1-.13l-.07,0-.06,0Z"/><path class="cls-5" d="M161.5,25.15a.17.17,0,0,0-.13,0l-.05,0,0,0v.13l0,.05a.14.14,0,0,0,.17,0h0l.05-.05,0-.06A.24.24,0,0,0,161.5,25.15Z"/><path class="cls-5" d="M160.38,30.77h0a.25.25,0,0,0-.14-.16h-.08l0,0-.05.07,0,0,0,0,0,0v.06a.12.12,0,0,0,0,.09h0v0a.29.29,0,0,0,0,.09.12.12,0,0,0,.07.11h.05a.14.14,0,0,0,.13,0l0,0,0,0,0-.05a.15.15,0,0,1,0-.07h0l0-.05v0a.28.28,0,0,0,0-.11Z"/><path class="cls-5" d="M154.71,37.1v0a.15.15,0,0,0,.09.14h0a.16.16,0,0,0,.14,0l0,0,0,0,0-.05h0a.15.15,0,0,0,0-.11l0,0a.15.15,0,0,0-.17,0l0,0Z"/><path class="cls-5" d="M167.84,37.1v.06a.14.14,0,0,0,.11.14h.1l.05,0a.16.16,0,0,0,0-.09A.14.14,0,0,0,168,37a.14.14,0,0,0-.16,0Z"/><path class="cls-5" d="M151.36,37.68l0,0v.05l0,.06a.14.14,0,0,0,.18.08l0,0,0,0,0-.06s0,0,0-.09a.15.15,0,0,0,0-.09l-.09,0h0a.15.15,0,0,0-.12,0A.12.12,0,0,0,151.36,37.68Z"/><path class="cls-5" d="M164.29,38.25l0,.06,0,0h0a.15.15,0,0,0,.19.08l.05,0,0-.08v0a.19.19,0,0,0,0-.08.09.09,0,0,0,0-.06l0,0h-.08A.19.19,0,0,0,164.29,38.25Z"/><path class="cls-5" d="M166,38.58a.09.09,0,0,0-.07,0s0,.05,0,.07a.11.11,0,0,0,0,.09v0l0,0,0,0,0,0a.19.19,0,0,0,.12.06.22.22,0,0,0,.15-.06.2.2,0,0,0,.07-.16.22.22,0,0,0-.18-.21l-.06,0Z"/><path class="cls-5" d="M160.82,38.4h0l0,0,0,0,0,0h0l0,0,0,0s0,0,0,.06l0,.07,0,0h0a.11.11,0,0,0,.13,0s.07,0,.09-.1v0A.07.07,0,0,0,160.82,38.4Z"/><path class="cls-5" d="M156.53,34.23h0a.24.24,0,0,0,0-.08.08.08,0,0,0,0,0h0a.13.13,0,0,0-.11-.13l-.06,0,0,0a.11.11,0,0,0-.06,0h0l-.06,0,0,.08h.08l-.09,0,0,.08,0,.07a.19.19,0,0,0,.08.12h.08a.18.18,0,0,0,.09,0h.08l.06,0a.12.12,0,0,0,.1-.12A.12.12,0,0,0,156.53,34.23Z"/><path class="cls-5" d="M155.56,38.78s0-.05,0-.08l0,0,0,0,0,0a.16.16,0,0,0-.2.1l0,.05v0l0,0s0,0,.06,0l0,0,.06,0A.16.16,0,0,0,155.56,38.78Z"/><path class="cls-5" d="M160.27,33.24l0,0a.09.09,0,0,0-.06.07h0l0,0,0,0v0a.3.3,0,0,0,0,.1h0v.05l0,0a.27.27,0,0,0,.36-.08l0-.09h0s0,0,0,0h0v0l-.06-.06-.05-.05a.2.2,0,0,0-.14,0Z"/><path class="cls-5" d="M147.79,33.8l0,0a.15.15,0,0,0-.09.13V34l0,0,0,0,0,0,0,0,0,0,.06,0h0a.18.18,0,0,0,.19.05h0a.33.33,0,0,0,.13-.16v-.12l0-.06,0,0-.05,0h-.06l-.08,0Z"/><path class="cls-5" d="M170.68,34l0,0a.24.24,0,0,0,0,.1.12.12,0,0,0,0,.09.16.16,0,0,0,.11,0l.06,0,0,0,0-.06v-.07l0-.06,0,0-.07,0h0Z"/><path class="cls-5" d="M164.52,34.08l0,.06,0,0,.06,0h0a.21.21,0,0,0,.16,0l0,0a.1.1,0,0,0,.05-.1.23.23,0,0,0,0-.11h0l0,0-.08,0A.2.2,0,0,0,164.52,34.08Z"/><path class="cls-5" d="M166,32.07v.06l0,0,0,0a.22.22,0,0,0,.24,0v0h0a.16.16,0,0,0,.08-.13v0l0-.05,0,0a.12.12,0,0,0-.11-.06h0A.36.36,0,0,0,166,32.07Z"/><path class="cls-5" d="M161.59,33.29l0,0v0a.19.19,0,0,0,0,.07v.06l0,0,0,0h0a.17.17,0,0,0,.17,0,.15.15,0,0,0,.06-.11v-.07l0,0a.17.17,0,0,0-.13-.09.14.14,0,0,0-.12.06Z"/><path class="cls-5" d="M163.05,36.52l0,0,0,0v0a.18.18,0,0,0,.08.15l0,0a.19.19,0,0,0,.2-.09v-.1l0,0a.18.18,0,0,0-.22-.1Z"/><path class="cls-5" d="M158.39,35.09h0a.14.14,0,0,0,0,.08v0l0,0v0l0,0v0l0,0,.07,0c.1,0,.14-.07.14-.13h0a.1.1,0,0,0,0-.07v0l0-.06-.07,0a.15.15,0,0,0-.13,0Z"/><path class="cls-5" d="M154.4,35.34a.18.18,0,0,0-.13,0,.11.11,0,0,0-.08.09v.06l0,0,0,0,0,0s.06.08.13.07a.14.14,0,0,0,.11-.07v-.08l0,0Z"/><path class="cls-5" d="M151.82,41.83l0,.07V42l0,.06.06,0a.14.14,0,0,0,.12,0l0,0,0,0,0,0v0a.14.14,0,0,0,0-.07h0v0l0-.05-.07,0h-.06Z"/><path class="cls-5" d="M164.75,41.09a.15.15,0,0,0-.06.12v0l0,0,0,0a.35.35,0,0,0,.09.07h.07l.05,0,0-.06v0c0-.18-.11-.21-.18-.22l-.06,0Z"/><path class="cls-5" d="M155.46,17.39s0,0,0,0l0,0,0,0,0,0a.22.22,0,0,0-.13,0,.18.18,0,0,0,0,.14h0l0,0,0,0,0,0a.2.2,0,0,0,.14,0A.15.15,0,0,0,155.46,17.39Z"/><path class="cls-5" d="M157.85,22.41v.08l0,.05,0,0s0,0,.06,0l.07,0,0-.05,0-.05a.14.14,0,0,0-.05-.12.11.11,0,0,0-.11,0l-.05,0Z"/><path class="cls-5" d="M155.63,22.69a.26.26,0,0,0,0,.14.15.15,0,0,0,.15.16h0a.16.16,0,0,0,.14-.08v-.05s0-.05,0-.06v-.05l-.06-.06-.05,0h-.08Z"/><path class="cls-5" d="M161.08,21.59l0,0v.07a.22.22,0,0,0,.07.16.27.27,0,0,0,.2,0l0,0,0,0,0-.06a.64.64,0,0,0,0-.09v0l0,0,0,0a.24.24,0,0,0-.27,0Z"/><path class="cls-5" d="M159,21.51s0,0,0,0l0,0,0,0,.05,0h.08l0,0,0,0,0,0s0-.07,0-.11a.16.16,0,0,0-.07-.14h0a.19.19,0,0,0-.15,0A.21.21,0,0,0,159,21.51Z"/><path class="cls-5" d="M169.26,21.79v.06l0,.06a.19.19,0,0,0,.08,0h.06l.05,0,0,0-.06,0,.06,0v-.08l0-.06-.08,0C169.3,21.69,169.27,21.75,169.26,21.79Z"/><path class="cls-5" d="M165.9,24V24l0,0,.05,0a.17.17,0,0,0,.14,0,.17.17,0,0,0,.05-.12v0l0,0,0,0-.05,0A.17.17,0,0,0,165.9,24Z"/><path class="cls-5" d="M152,23.49l0,0,0,0,0,0,0,.06a.19.19,0,0,0,.17.17h0l0,0,0,0v0a.13.13,0,0,0,0-.09.13.13,0,0,0-.1-.1h-.06Z"/><path class="cls-5" d="M161.79,22.68l0,0,0,.05v0l0,.06,0,0,.07,0c.11,0,.14-.06.15-.1v0l0-.05a.15.15,0,0,0-.19-.06Z"/><path class="cls-5" d="M168.93,31a.17.17,0,0,0,0,.12l0,0h0c.06,0,.15,0,.16-.19l0,0,0,0,0,0,0,0a.14.14,0,0,0-.13,0A.14.14,0,0,0,168.93,31Z"/><path class="cls-5" d="M152.39,21.43a.31.31,0,0,0,0,.08l0,0,0,0h.09l.05,0,0,0,0-.07v-.09l0,0,0,0,0,0a.17.17,0,0,0-.13,0A.16.16,0,0,0,152.39,21.43Z"/><path class="cls-5" d="M155,19.84l0,.07,0,0a.13.13,0,0,0,.12.07h0l0,0,0,0a.1.1,0,0,0,0-.07.13.13,0,0,0-.13-.14A.14.14,0,0,0,155,19.84Z"/><path class="cls-5" d="M158.75,17.28l-.07,0h-.08l0,0,0,0,0,.07v.08a.16.16,0,0,0,.26,0v-.08Z"/><path class="cls-5" d="M167.23,20h0a.15.15,0,0,0-.11.11h0v.06a.22.22,0,0,0,.07.15.21.21,0,0,0,.18.05l.06,0,0,0a.14.14,0,0,0,.06-.11.43.43,0,0,1,0-.05h0v0a.15.15,0,0,0-.11-.12h-.11Z"/><path class="cls-5" d="M165.68,16.9a.19.19,0,0,0-.05.09.12.12,0,0,0,0,.1.27.27,0,0,0,.1.19l0,0,0,0a.25.25,0,0,0,.2-.05.23.23,0,0,0,.07-.18V17l0,0,0,0,0,0,0,0A.18.18,0,0,0,165.68,16.9Z"/><path class="cls-5" d="M166.78,25.8a.16.16,0,0,0,0-.12l0,0h-.06c-.17,0-.19.11-.19.16v0l0,.05,0,0h.13l.05,0,0,0,0,0Z"/><path class="cls-5" d="M164.78,20.93V21h0a.14.14,0,0,0,0,.12.1.1,0,0,0,.05,0h.07l0,0h0a.13.13,0,0,0,.14-.1v0a.2.2,0,0,0-.12-.18.19.19,0,0,0-.2,0Z"/><path class="cls-5" d="M160.91,19.09a.3.3,0,0,0-.12.18.11.11,0,0,0,.05.09l0,0h.08l.09,0h.05l0,0,0,0,0,0v-.05a.23.23,0,0,0-.18-.22l-.07,0Z"/><path class="cls-5" d="M149.94,20.16h0a.19.19,0,0,0,0-.08h0v0a.12.12,0,0,0-.08-.11h-.13l-.08,0-.05,0,0,.05v.08a.19.19,0,0,0,.24.15A.11.11,0,0,0,149.94,20.16Z"/><path class="cls-5" d="M163.26,20l.08.07h.13l.08-.07a.14.14,0,0,0-.14-.15.16.16,0,0,0-.11.05A.21.21,0,0,0,163.26,20Z"/><path class="cls-5" d="M164.81,28.47l-.05,0h0a.18.18,0,0,0-.12,0,.09.09,0,0,0-.08.05l0,0,0,.05a.13.13,0,0,0,0,.09h0l0,0h0v0l0,0,.05,0a.18.18,0,0,0,.16,0,.21.21,0,0,0,.08-.16A.14.14,0,0,0,164.81,28.47Z"/><path class="cls-5" d="M158.48,28.08v0h0l0,0,0,0v0a.06.06,0,0,0,0,0h0v.05l0,.06a.15.15,0,0,0,.07.05l0,0h.1a.19.19,0,0,0,.11-.06h0a.16.16,0,0,0,.05-.11.11.11,0,0,0-.06-.1l0,0,0,0,0,0v0a.12.12,0,0,0-.1,0Z"/><path class="cls-5" d="M162.45,28.1h0l0,0,0,.05a.16.16,0,0,0,0,.11.12.12,0,0,0,0,.08h0l0,.05h0a.15.15,0,0,0,.09.06h.19l0,0,0-.06a.35.35,0,0,0,.05-.18v0l0,0,0,0,0,0h0l0,0h0l0,0-.05,0A.2.2,0,0,0,162.45,28.1Z"/><path class="cls-5" d="M168.69,28.37l0,0a.11.11,0,0,0,0,.05.15.15,0,0,0,.14.16.14.14,0,0,0,.15-.13v0l0,0,0,0-.05,0h-.06Z"/><path class="cls-5" d="M154.73,29.1v0h0v.1l0,.05.05.05a.22.22,0,0,0,.13,0h0a.11.11,0,0,0,.11-.06h0l0,0a.29.29,0,0,0,0-.09.09.09,0,0,0,0-.05v0l0-.05,0,0,0,0a.3.3,0,0,0-.24,0Z"/><path class="cls-5" d="M157.33,27l0,.06,0,.06s0,0,0,.07a.32.32,0,0,0,.09.21l0,0h.07a.28.28,0,0,0,.23-.31V27l0,0-.06,0a.1.1,0,0,0-.08,0h0A.19.19,0,0,0,157.33,27Z"/><path class="cls-5" d="M151,29.32v-.05a.2.2,0,0,0,0-.07l0,0,0,0-.05,0h-.08l-.05,0,0,0,0,.05v.1l0,0,0,0a.18.18,0,0,0,.16,0l0,0,0,0Z"/><path class="cls-5" d="M158.45,29.89l0,0h0a.17.17,0,0,0-.08.07.29.29,0,0,0,0,.09.13.13,0,0,0,0,.06v0l0,0,0,0,0,0a.17.17,0,0,0,.14,0l.05,0,0-.05v0a.24.24,0,0,0,0-.11v0l0,0,0,0-.06,0h-.08Z"/><path class="cls-5" d="M168.82,25.47a.25.25,0,0,0-.08.05.08.08,0,0,0,0,.05.09.09,0,0,0,0,.08.19.19,0,0,0,0,.07l0,0,0,0a.23.23,0,0,0,.18.07l0,0,0,0,0,0a.31.31,0,0,0,0-.13.2.2,0,0,0-.11-.18h-.11Z"/><path class="cls-5" d="M151.38,25.28a.15.15,0,0,0,.06-.09l0-.06,0,0a.11.11,0,0,0-.06-.08.15.15,0,0,0-.08,0,.18.18,0,0,0-.17.18.16.16,0,0,0,0,.09l0,0,0,0h0A.16.16,0,0,0,151.38,25.28Z"/><path class="cls-5" d="M146.94,26.46l0,0,0,0a.34.34,0,0,0,0,.1.2.2,0,0,0,.06.16.19.19,0,0,0,.17,0l0,0,0,0,0,0,0,0v-.1l0-.07a.21.21,0,0,0-.24-.09Z"/><path class="cls-5" d="M149.62,25.19h0l0,0,0,0v-.05a.18.18,0,0,0-.13-.18.11.11,0,0,0-.14.05h0l0,0,0,.06a.29.29,0,0,0,.08.18h.11A.1.1,0,0,0,149.62,25.19Z"/><path class="cls-5" d="M163.62,30.5l0,0,0,0a.09.09,0,0,0,0,.08v.05l0,0a.16.16,0,0,0,.14.07.22.22,0,0,0,.16-.12V30.6l0-.05,0,0a.26.26,0,0,0-.15,0Z"/><path class="cls-5" d="M158.81,24.86l0,0v0s0,.09.11.11a.23.23,0,0,0,.17,0v0l0,0v0s0-.09-.1-.12-.12,0-.17,0Z"/><path class="cls-5" d="M160.11,27.07l-.05-.06L160,27l0,0,0,.05v.13l0,0,0,0a.14.14,0,0,0,.19,0c.11,0,.12-.09.12-.12a.08.08,0,0,0,0-.05h0v-.05l0-.05a.17.17,0,0,0-.16,0Z"/><path class="cls-5" d="M159.53,24.5h0a.3.3,0,0,0,0,.1v0l0,0,0,0,0,0a.3.3,0,0,0,.22,0l0,0,0,0,0,0v-.06s0,0,0-.05l0,0a.22.22,0,0,0-.11-.17l0,0,0,0h-.05A.21.21,0,0,0,159.53,24.5Z"/><path class="cls-5" d="M163.54,26.1a.12.12,0,0,0,.1.12.17.17,0,0,0,.17-.11l0-.08,0,0-.07,0C163.55,26,163.54,26.07,163.54,26.1Z"/><path class="cls-5" d="M162.12,25l0,.06a.3.3,0,0,0,0,.1.13.13,0,0,0,.08.13h0a.19.19,0,0,0,.13,0l0,0,0,0a.24.24,0,0,0,0-.11h0l0-.06,0,0,0,0-.06,0h-.06Z"/><path class="cls-5" d="M153.48,25.93v-.07a.35.35,0,0,0,0-.07.2.2,0,0,0,0-.07l0,0,0,0-.06,0a.17.17,0,0,0-.11,0,.09.09,0,0,0-.07,0,.12.12,0,0,0-.09.12v0a.43.43,0,0,1,0,.05.14.14,0,0,0,.07.13h.09a.29.29,0,0,0,.19,0Z"/><path class="cls-5" d="M162,25.55l0,0,0,0v.05a.13.13,0,0,0,0,.08v0l0,0,.06,0a.19.19,0,0,0,.15,0l0,0,0,0,0-.06a.25.25,0,0,0,0-.1.16.16,0,0,0-.09-.14h-.09A.14.14,0,0,0,162,25.55Z"/></g></svg>