<svg xmlns="http://www.w3.org/2000/svg" viewBox="0 0 254 171"><defs><style>.cls-1{fill:#f8d7a5;}.cls-2{fill:none;}.cls-3{fill:#465777;}</style></defs><title>kombucha</title><g id="Layer_2" data-name="Layer 2"><path class="cls-1" d="M79.83,96.48C61.08,95.07,46.76,102.85,38,119.2c-2.92,5.46-2.22,20.13,7.38,32.54,4.71,6.09,8.65,7.36,12,8.07,62.93,13.47,117.82,9.34,163-12.28,2.89-1.38,5.82-3.66,3.6-11.65-2.42-8.68-10.14-20.07-16.1-25.47A25.8,25.8,0,0,0,193,103.33c-43.23-7.42-84-9.46-122-6.09"/><rect class="cls-2" x="195.89" y="120.78" width="17.53" height="16.71" transform="translate(-33.77 87.77) rotate(-22.41)"/><path class="cls-3" d="M200.44,125.8h-.09a.08.08,0,0,0,0,.07v.06a.11.11,0,0,0,.06.07.12.12,0,0,0,.1,0,.1.1,0,0,0,.06-.08l0,0a.1.1,0,0,0,0-.07Z"/><path class="cls-3" d="M203,127.91H203a.17.17,0,0,0,.09-.15l0,0,0,0H203l0,0h0l0,0,0,.06s0,.08.08.1Z"/><path class="cls-3" d="M203.9,129.87h0l0,0,0,0v0a.2.2,0,0,0,.08.08l.05,0h0l0,0a.11.11,0,0,0,0-.15h0l0,0,0,0Z"/><path class="cls-3" d="M197.26,131.83a.09.09,0,0,0-.06.1v0l0,0h.06a.1.1,0,0,0,.07-.09v-.05l0,0Z"/><path class="cls-3" d="M208.14,129.7a.08.08,0,0,0,0-.09l0,0H208l0,0a.1.1,0,0,0,0,.12h0l0,0h.08A.14.14,0,0,0,208.14,129.7Z"/><path class="cls-3" d="M204.21,130.44h0a.21.21,0,0,0,.07-.13l0-.05,0,0-.05,0,0,0h-.1s0,0-.07,0h-.08s0,0,0,.07v0a.08.08,0,0,0,0,.09l0,0H204l0,0h0v0l0,0h0a.09.09,0,0,0,.08,0Z"/><path class="cls-3" d="M198.64,128.43h0a.1.1,0,0,0-.07.09h0a.12.12,0,0,0,0,.1l0,0h.07a.1.1,0,0,0,.06,0v0a.09.09,0,0,0,0-.12h-.06Z"/><path class="cls-3" d="M202.06,136.92h0a.1.1,0,0,0-.06.1v0l0,0,0,0a.09.09,0,0,0,.07,0,.1.1,0,0,0,0-.19Z"/><path class="cls-3" d="M197.39,126.41h-.07l0,0a.09.09,0,0,0,0,.13l0,0h.13l.05,0v-.07h0a.07.07,0,0,0-.05-.07A.07.07,0,0,0,197.39,126.41Z"/><path class="cls-3" d="M200.39,134.92l0,0,0,0h0a.12.12,0,0,0,0,.14l0,0h.07a.1.1,0,0,0,0,0,0,0,0,0,0,0,0V135A.15.15,0,0,0,200.39,134.92Z"/><path class="cls-3" d="M200.64,136.14l0,0s0,0-.05,0,0,0-.07,0h0l0,0v.05a.08.08,0,0,0,0,.09.11.11,0,0,0,.07.08.2.2,0,0,0,.13,0,.14.14,0,0,0,.08-.17l0,0Z"/><path class="cls-3" d="M199.39,132.72h0l0,0v-.08l0,0,0,0a0,0,0,0,0,0,0l0,0v0h0c0,.05,0,.09,0,.1s0,.05.09,0h0Z"/><path class="cls-3" d="M201,128.86h0a.09.09,0,0,0,.05,0,.06.06,0,0,0,0,0h0a.1.1,0,0,0,.06-.1l0,0,0,0,0,0v0l0,0-.06,0v.06h0l0-.05h-.06l0,0a.11.11,0,0,0-.06.08v0a.09.09,0,0,0,0,0,.13.13,0,0,0,0,.06l0,.05,0,0a.08.08,0,0,0,.1,0Z"/><path class="cls-3" d="M197.77,129.42l0,0,0,0v-.05a.13.13,0,0,0-.11-.11h-.07l0,0a.11.11,0,0,0,0,0v.07A.12.12,0,0,0,197.77,129.42Z"/><path class="cls-3" d="M202.58,131h0a.07.07,0,0,0-.06,0h-.1l0,0h0l0,0,0,0c0,.14.1.2.14.22l.06,0h0l0,0,0,0,0-.05a.12.12,0,0,0,0-.09Z"/><path class="cls-3" d="M199,123.09h0a.11.11,0,0,0-.11,0l0,0,0,0,0,0h0v0a.12.12,0,0,0,0,.14h0a.23.23,0,0,0,.14,0h0l0,0h0l0,0v-.12a.13.13,0,0,1,0-.06Z"/><path class="cls-3" d="M204.83,137.94h-.1a.06.06,0,0,0,0,.05s0,.07,0,.08l0,0h.07l.05,0,0,0,0,0V138l0,0Z"/><path class="cls-3" d="M203.15,134l0,0v.07h0s0,0,0,.11l0,0h.09s0,0,0-.06h0l0,0v-.07S203.25,133.94,203.15,134Z"/><path class="cls-3" d="M204.84,134.42h0l0,0,0,0a.15.15,0,0,0,.06.16h0a.12.12,0,0,0,.11,0h0l0,0v0a.09.09,0,0,0,0-.09l0,0A.29.29,0,0,0,204.84,134.42Z"/><path class="cls-3" d="M202.9,131.88h-.09l0,0,0,0V132a.12.12,0,0,0,.13.12l0,0h0l0,0a.12.12,0,0,0,0-.11s0-.05-.06-.06Z"/><path class="cls-3" d="M201.19,133.67h-.09a.15.15,0,0,0-.09.09v0a.14.14,0,0,0,.11.11h0l0,0,0,0a.11.11,0,0,0,0-.16Z"/><path class="cls-3" d="M200.9,130.28h0a.08.08,0,0,0-.07,0h0l0,0v0h0l0,0v.05a.1.1,0,0,0,.13.06h.07l0-.05v0a.07.07,0,0,0,0-.08Z"/><path class="cls-3" d="M199.69,127.77a.1.1,0,0,0,0-.09.09.09,0,0,0-.08,0l0,0,0,0h0a.11.11,0,0,0,0,.1.11.11,0,0,0,.08.06l0,0,0,0Z"/><path class="cls-3" d="M194.82,127.79h0l-.05,0,0,0v0a.13.13,0,0,0,0,.08l0,0h.07s.05,0,0,0h0l0,0,0,0v0h0v0Z"/><path class="cls-3" d="M198.68,136a.13.13,0,0,0-.1,0l0,0,0,0v0a.15.15,0,0,0,0,.08l0,0,0,0h.07c.12,0,.11-.13.09-.17l0,0Z"/><path class="cls-3" d="M211.58,123.77l0,0,0,0v-.06a.11.11,0,0,0-.06-.07.09.09,0,0,0-.1,0h0l0,0v.05a.1.1,0,0,0,.05.08A.13.13,0,0,0,211.58,123.77Z"/><path class="cls-3" d="M209,126.63h-.05l0,0,0,0v0l0,0H209s.06,0,.07-.06a.11.11,0,0,0,0-.08l0,0Z"/><path class="cls-3" d="M208.2,125.26a.15.15,0,0,0-.1,0c-.07,0-.09.09-.07.13h0a.1.1,0,0,0,.08.07h0l0,0,0,0,0,0a.06.06,0,0,0,0,0v0l0,0Z"/><path class="cls-3" d="M210.34,128.5h-.07c-.06,0-.08.07-.08.09a.16.16,0,0,0,0,.14h.16l0,0,0,0v0a.15.15,0,0,0-.08-.16Z"/><path class="cls-3" d="M209.83,127.11h0l0,0v.07l0,0,0,0H210a.17.17,0,0,0,.07-.09v0a.14.14,0,0,0-.07-.08A.12.12,0,0,0,209.83,127.11Z"/><path class="cls-3" d="M212.34,133.84l0,0,0,0a.06.06,0,0,0,0,.06l0,0,0,0h0v0l.06,0,0,0v-.06A.09.09,0,0,0,212.34,133.84Z"/><path class="cls-3" d="M210.07,132.23l0,0,0,0v0a.1.1,0,0,0,0,.08.15.15,0,0,0,.1,0h0l0,0v-.07A.11.11,0,0,0,210.07,132.23Z"/><path class="cls-3" d="M206.74,123.15v0h-.08a.13.13,0,0,0-.07.15l0,0,0,0h.07a.08.08,0,0,0,0,0,.09.09,0,0,0,0-.09l0,0Z"/><path class="cls-3" d="M209.82,129.24h-.09l0,0,0,0v.05a.1.1,0,0,0,.1.07l0,0,0,0a.09.09,0,0,0,0-.13Z"/><path class="cls-3" d="M206.27,136.05a.1.1,0,0,0-.06,0v.06s0,.1.16.06v0h0v-.06a.16.16,0,0,0-.06-.08A.08.08,0,0,0,206.27,136.05Z"/><path class="cls-3" d="M208.17,122.84l0,0,0,0V123l0,0,0,0,0,0h.11l0,0v-.06a.11.11,0,0,0-.06-.07A.11.11,0,0,0,208.17,122.84Z"/><path class="cls-3" d="M209.88,124.11l0,0v0a.1.1,0,0,0,0,.09l0,0,0,0h.08a.1.1,0,0,0,.05-.12A.09.09,0,0,0,209.88,124.11Z"/><path class="cls-3" d="M212.51,125.87v-.05l0-.06,0,0,0,0h-.08v0a.09.09,0,0,0,0,.1.11.11,0,0,0,.09,0l.05,0Z"/><path class="cls-3" d="M213,132.06h0s-.07-.05-.09,0h-.05s-.06,0-.08.08a.13.13,0,0,0,0,.13l0,0h0a.07.07,0,0,0,.08,0l0,0h0a.09.09,0,0,0,.05-.1v0Z"/><path class="cls-3" d="M214.57,130.25h-.07a.11.11,0,0,0-.08,0,.23.23,0,0,0-.1.12v0a.14.14,0,0,0,.22.11h0l0,0v-.08A.12.12,0,0,0,214.57,130.25Z"/><path class="cls-3" d="M209.1,133.29a.2.2,0,0,0,.07-.06v-.07c0-.11-.12-.09-.15-.08h0l0,0v.07a.18.18,0,0,0,0,.06l0,0h.09Z"/><path class="cls-3" d="M211.73,130.72h-.06a.09.09,0,0,0-.06.06.08.08,0,0,0,0,0v.07h0a.1.1,0,0,0,.11.06h0a.13.13,0,0,0,.09-.12.13.13,0,0,0-.08-.12Z"/><path class="cls-3" d="M211.91,127.74a.07.07,0,0,0-.09,0h-.06a.12.12,0,0,0,0,.05v.08a.15.15,0,0,0,0,.06l0,0,0,0h.08a.17.17,0,0,0,.1-.18l0,0Z"/><path class="cls-3" d="M208.36,120.92h.08s.05,0,.05-.08v0l0,0,0,0,0,0h0l0,0a.13.13,0,0,0-.05.19A.09.09,0,0,0,208.36,120.92Z"/><path class="cls-3" d="M211.93,129.5l0,.07h0l0,0h0v0l.07,0a.1.1,0,0,0,0-.13.12.12,0,0,0,0-.05A.1.1,0,0,0,211.93,129.5Z"/><path class="cls-3" d="M206.86,132.71v-.05h0a.09.09,0,0,0,0-.08.07.07,0,0,0,0,0l0,0h0l-.05,0h0l0,0h0l0,0v0a.16.16,0,0,0,.07.09.15.15,0,0,0,.13,0Z"/><path class="cls-3" d="M205.46,128.51h-.17l0,0a.2.2,0,0,0,0,.07v0l0,.06a.13.13,0,0,0,.07.06h0a.11.11,0,0,0,.08,0,.12.12,0,0,0,0-.07v-.08h0a.08.08,0,0,0,0-.07Z"/><path class="cls-3" d="M206.48,131.08h0v0h-.07a.08.08,0,0,0-.08,0,.08.08,0,0,0,0,.05h0l0,0v0a.15.15,0,0,0,0,.07l0,0h0s0,0,0,0l0,0,0,0h.05a.22.22,0,0,0,.13,0h0l0,0v-.08s0,0,0,0h0v-.07A.14.14,0,0,0,206.48,131.08Z"/><path class="cls-3" d="M207.93,135.19h-.07a.1.1,0,0,0-.06.13c0,.05.06.07.12.06l0,0,0,0v-.08l0,0Z"/><path class="cls-3" d="M203.82,126.35h-.09l0,0,0,0a.19.19,0,0,0,0,.1h0a.08.08,0,0,0,.06,0h.14s0,0,0,0l0,0,0,0v0a.23.23,0,0,0-.08-.14Z"/><path class="cls-3" d="M205.87,127.48h-.14a.22.22,0,0,0-.12.11v.07a.2.2,0,0,0,.26.07h0v0l0,0v0a.13.13,0,0,0,0-.06l0,0A.15.15,0,0,0,205.87,127.48Z"/><path class="cls-3" d="M202.7,124h0l0,0,0,0v-.06l0,0,0,0h-.12l0,0h0v0a.12.12,0,0,0,0,.11l0,0h.07Z"/><path class="cls-3" d="M204.28,129l0,0h0a.11.11,0,0,0-.07,0,.07.07,0,0,0-.06,0l0,0h0l0,0,0,0v0a.11.11,0,0,0,.06.08l0,0h.16l0,0V129h0Z"/><path class="cls-3" d="M209.84,134.52s0,0-.05,0h-.1a.05.05,0,0,0,0,0v0a.14.14,0,0,0,0,.13l0,0,0,0h.12a.16.16,0,0,0,.09-.12l0-.05h0Z"/><path class="cls-3" d="M205.42,123.19a.08.08,0,0,0,.07,0l0,0h0a.09.09,0,0,0,0-.07.43.43,0,0,0,0,0,.12.12,0,0,0-.16-.06.1.1,0,0,0-.05,0l0,0v0A.12.12,0,0,0,205.42,123.19Z"/><path class="cls-3" d="M203.49,120.62h-.05l-.07,0a.12.12,0,0,0-.09.08.17.17,0,0,0,0,.12l0,0h.12l0,0,0,0a.16.16,0,0,0,0-.18Z"/><path class="cls-3" d="M205,122h.11a.13.13,0,0,0,.08-.13.08.08,0,0,0-.07-.08h-.08a.19.19,0,0,0-.09.09V122l0,0Z"/><path class="cls-3" d="M205.23,132.47l0,0h-.09l0,0h0a.11.11,0,0,0,0,.11.14.14,0,0,0,.12.07h0l0,0v0a.1.1,0,0,0,0-.1Z"/><path class="cls-3" d="M207.63,127.88h0s-.05,0,0,.1a.14.14,0,0,0,.06.1h.07a.09.09,0,0,0,.05-.09s0-.09-.07-.11Z"/><path class="cls-3" d="M206.54,129.3l0-.05,0,0h-.07l-.06,0h0l0,0v0a.1.1,0,0,0,.06.12.08.08,0,0,0,.11,0l0,0h0l0,0,0,0a.19.19,0,0,0,0-.11Z"/><path class="cls-3" d="M208,128.26H208l0,0,0,0v0a.17.17,0,0,0,0,.15l0,0h0l0,0h.05l0,0h0c.05,0,.08-.06.08-.11l0,0v-.06A.15.15,0,0,0,208,128.26Z"/><path class="cls-3" d="M208.06,131.27a.07.07,0,0,0-.05.09s0,.08.11.08l0,0,0,0v-.06C208.13,131.25,208.08,131.26,208.06,131.27Z"/><path class="cls-3" d="M208.38,130.07h0l-.07,0a.08.08,0,0,0-.06.08v0a.09.09,0,0,0,0,.08h.06a.1.1,0,0,0,.07,0h0l0,0v-.12l0,0Z"/><path class="cls-3" d="M205.54,124.71h.1l0,0,0,0v-.07a.12.12,0,0,0,0-.08.08.08,0,0,0,0,0,.09.09,0,0,0-.1,0l0,0h0a.1.1,0,0,0-.07.07v.07a.14.14,0,0,0,.07.11Z"/><path class="cls-3" d="M208,130.16l0,0h-.13l0,0v.08a.14.14,0,0,0,0,.1H208a.15.15,0,0,0,.07-.1l0,0,0,0h0S208,130.17,208,130.16Z"/><rect class="cls-2" x="196.58" y="132.94" width="17.53" height="16.71" transform="translate(-16.67 254.6) rotate(-61.57)"/><path class="cls-3" d="M200,141.37h0l0,0a.17.17,0,0,0,0,.1h0l0,0a.12.12,0,0,0,.1,0,.16.16,0,0,0,.08-.06.12.12,0,0,0,0-.1l0,0-.06,0Z"/><path class="cls-3" d="M203.26,141.42v0h0a.19.19,0,0,0,0-.18l-.05,0h0l-.05,0,0,0h0l0,0v0l0,.05a.25.25,0,0,0,.13,0Z"/><path class="cls-3" d="M205.22,142.34v.07l0,0,0,0a.17.17,0,0,0,.12,0h0l0,0v-.05a.11.11,0,0,0-.13-.08h-.06Z"/><path class="cls-3" d="M201.31,148.05a.11.11,0,0,0,0,.12l0,0h0l.05,0h0a.09.09,0,0,0,0-.11l0,0h0Z"/><path class="cls-3" d="M208.41,139.53a.11.11,0,0,0-.07-.06h0l0,0,0,0,0,0,0,0v0a.09.09,0,0,0,.09.07h.07l0,0A.11.11,0,0,0,208.41,139.53Z"/><path class="cls-3" d="M205.83,142.59h0a.19.19,0,0,0,0-.15l0,0h0l-.05,0h-.06l0,0s0,0,0,0h0a.08.08,0,0,0-.05.05h0v0a.1.1,0,0,0,0,0,.08.08,0,0,0,0,.09l0,0a.1.1,0,0,0,.07,0h0l0,0,0,0a.08.08,0,0,1,0-.05h0l0,0v0s0,0,.07,0Z"/><path class="cls-3" d="M200.24,144.54l0,0a.12.12,0,0,0,0,.12h0a.12.12,0,0,0,.08.06h.06l0,0h0a.11.11,0,0,0,0-.08v0a.11.11,0,0,0-.09-.09h-.06Z"/><path class="cls-3" d="M208.25,149h0v0a.09.09,0,0,0,0,.12l0,0,0,0h0a.1.1,0,0,0,.05,0,.13.13,0,0,0,0-.12.12.12,0,0,0-.11,0Z"/><path class="cls-3" d="M198,143.77l0,0,0,0v.05a.1.1,0,0,0,.09.1h.06l0,0,0-.05a.15.15,0,0,0,0-.07l0-.05h0s0,0-.09,0A.1.1,0,0,0,198,143.77Z"/><path class="cls-3" d="M205.7,148.47v.08h0a.1.1,0,0,0,.09.11h.05l0,0v0a116613769905.45,116613769905.45,0,0,0,0-.1l0,0,0,0h0A.12.12,0,0,0,205.7,148.47Z"/><path class="cls-3" d="M206.66,149.26h-.06l0,0a.15.15,0,0,0-.06.05v.1s0,.05.06.07a.14.14,0,0,0,.11,0,.16.16,0,0,0,.1-.08.14.14,0,0,0-.05-.18h-.07Z"/><path class="cls-3" d="M203.53,147.39h0v-.07l0,0h-.1l0,0v.08h0a.11.11,0,0,0,.06.08.08.08,0,0,0,.09,0h0Z"/><path class="cls-3" d="M202.31,143.4h0a.13.13,0,0,0,0-.06.07.07,0,0,0,0-.05h0a.09.09,0,0,0,0-.11h-.17l0,0,0,0h0l-.06,0,0,.05v0a.19.19,0,0,0,0,.1h0s0,0,0,0a.05.05,0,0,0,.05,0l0,0h.05a.07.07,0,0,0,.1,0S202.32,143.43,202.31,143.4Z"/><path class="cls-3" d="M200.19,145.86s0,0,0-.06v-.05l0,0a.12.12,0,0,0-.15,0l0,0,0,0v0a.08.08,0,0,0,0,0v0l0,0A.12.12,0,0,0,200.19,145.86Z"/><path class="cls-3" d="M204.93,144.06h0l-.07,0h-.06l0,0a.08.08,0,0,0,0,.06h0v.07c.07.13.21.08.25.07l0,0h0l0,0h0v0a.06.06,0,0,0,0,0v-.05a.15.15,0,0,0-.07-.07Z"/><path class="cls-3" d="M197.12,140.19h0a.12.12,0,0,0-.1.05l0,0v.06h0v0l0,0,0,0a.14.14,0,0,0,.1.1h0a.2.2,0,0,0,.13-.06l0,0v-.13l0,0s0,0,0,0l0,0Z"/><path class="cls-3" d="M211.05,148h0l0,0a.17.17,0,0,0,0,.07.11.11,0,0,0,.06.06h.08l0,0,0,0v-.07l0,0h0Z"/><path class="cls-3" d="M207.24,146v.08l0,0h0s0,.05.09.07h0s.05,0,.06,0a.12.12,0,0,0,0-.08h0v0l0-.05A.14.14,0,0,0,207.24,146Z"/><path class="cls-3" d="M208.83,145.27l0,0v.07c.06.08.11.09.15.08h0a.12.12,0,0,0,.09,0v-.09a.1.1,0,0,0-.05-.07h0A.25.25,0,0,0,208.83,145.27Z"/><path class="cls-3" d="M205.72,144.53h0v0l0,0v.08l0,0a.13.13,0,0,0,.11.05.08.08,0,0,0,.07,0l0,0v-.06s0-.08-.05-.1a.1.1,0,0,0-.09,0Z"/><path class="cls-3" d="M205.53,147h0l0,0v0a.14.14,0,0,0,0,.12l0,0a.15.15,0,0,0,.16,0l0,0v-.06a.13.13,0,0,0-.1-.14Z"/><path class="cls-3" d="M203.16,144.55h0l-.06,0v.09h0v0l0,0c.07,0,.12,0,.14,0h0l0,0v0l0-.06,0,0a.1.1,0,0,0-.08-.05Z"/><path class="cls-3" d="M200.64,143.37s0-.06-.07-.07a.09.09,0,0,0-.08,0v.08h0a.09.09,0,0,0,.05.08.09.09,0,0,0,.09,0l0-.05v-.07Z"/><path class="cls-3" d="M196.88,146.46l0,0,0,.05v.05l0,0a.14.14,0,0,0,.07.06H197l0,0h0a.1.1,0,0,0,0,0h0v-.07l0,0h0l0,0Z"/><path class="cls-3" d="M205,150.36a.1.1,0,0,0-.08,0v.1s0,0,0,.07l0,0h0l0,0v0c.07-.12,0-.17,0-.2H205Z"/><path class="cls-3" d="M207.33,132.75v-.11a.08.08,0,0,0-.09,0s0,0-.08.07h0v.08a.11.11,0,0,0,.09,0A.09.09,0,0,0,207.33,132.75Z"/><path class="cls-3" d="M207.1,136.62l0,0v.09s0,0,0,0h.09l0,0a.09.09,0,0,0,0-.09.1.1,0,0,0-.06,0h-.07Z"/><path class="cls-3" d="M205.65,136.05s-.07.06-.08.07a.12.12,0,0,0,0,.15h0s.06,0,.11,0l0,0a.1.1,0,0,0,0,0v0l0-.06,0,0h-.08Z"/><path class="cls-3" d="M209.35,137.21h0v0a.13.13,0,0,0,0,.12.15.15,0,0,0,.12.08h.06l0,0,.05,0v-.08a.16.16,0,0,0-.17-.08Z"/><path class="cls-3" d="M208.08,136.45v.1l0,0,0,0h.07l0,0,.05-.06a.14.14,0,0,0,0-.11l0,0a.16.16,0,0,0-.1,0A.22.22,0,0,0,208.08,136.45Z"/><path class="cls-3" d="M214.28,140.09v.09s0,0,0,0h.09l0,0,0-.05,0,.05,0-.05v0l0,0A.09.09,0,0,0,214.28,140.09Z"/><path class="cls-3" d="M211.5,140.28v.07l0,0a.08.08,0,0,0,.09,0,.1.1,0,0,0,.08-.05v-.06l0,0,0,0A.12.12,0,0,0,211.5,140.28Z"/><path class="cls-3" d="M203.19,135.33v0h0l0,0a.15.15,0,0,0,0,.17h.1l0,0a.22.22,0,0,0,0-.08.08.08,0,0,0,0-.09h-.07Z"/><path class="cls-3" d="M209.42,138.12h0l0,0,0,0v.08l0,0c.07,0,.11,0,.12,0l0,0v0a.11.11,0,0,0-.09-.1Z"/><path class="cls-3" d="M211,145.63a.14.14,0,0,0,0,.09l0,0h0s.1,0,.16-.06v0h0v0l0,0a.14.14,0,0,0-.09,0A.16.16,0,0,0,211,145.63Z"/><path class="cls-3" d="M204.1,134.19a.08.08,0,0,0,0,.05v.06l0,0,0,0h.07l0,0v-.12l0,0a.1.1,0,0,0-.09,0A.07.07,0,0,0,204.1,134.19Z"/><path class="cls-3" d="M206.22,134.09v0l0,0c0,.05,0,.07.05.08h.07s0,0,0,0a.09.09,0,0,0,0-.13A.09.09,0,0,0,206.22,134.09Z"/><path class="cls-3" d="M209.38,133.79l0,0,0,0h-.07l0,0h0v0a.1.1,0,0,0,.07.07.11.11,0,0,0,.11,0l0,0Z"/><path class="cls-3" d="M213.64,138.32h0a.1.1,0,0,0-.1,0h0v0a.13.13,0,0,0,0,.12.3.3,0,0,0,.1.09h.08a.1.1,0,0,0,.06-.05,0,0,0,0,0,0,0h0a.08.08,0,0,0,0-.11h0Z"/><path class="cls-3" d="M213.74,135.9a.09.09,0,0,0-.06,0,.15.15,0,0,0-.06,0,.26.26,0,0,0,0,.15v.05a.19.19,0,0,0,.14,0s.07,0,.11-.08,0,0,0,0V136l0,0v0S213.82,135.88,213.74,135.9Z"/><path class="cls-3" d="M211.41,141.7a.08.08,0,0,0,0-.08v-.05h0c-.11-.06-.15,0-.17,0v.1l0,0,0,0h.07l0,0Z"/><path class="cls-3" d="M211.83,138.06h0l0,0h0a.1.1,0,0,0,0,.09s0,0,0,0l0,0h.05s.08,0,.12,0h0a.12.12,0,0,0,0-.15.11.11,0,0,0-.13,0Z"/><path class="cls-3" d="M210.09,135.63a.17.17,0,0,0-.13.07.06.06,0,0,0,0,.07v0h0l0,0a.12.12,0,0,0,.05.05h.1l0,0,0,0a.16.16,0,0,0,0-.2h-.07Z"/><path class="cls-3" d="M203,132.58h0s0,0,0,0h0a.09.09,0,0,0,0-.1H203l-.05,0h0l0,0,0,0c0,.09,0,.15.09.17A.07.07,0,0,0,203,132.58Z"/><path class="cls-3" d="M211.22,137l0,.08h0l0,0h0l.07,0a.09.09,0,0,0,0-.13.11.11,0,0,0-.08,0A.15.15,0,0,0,211.22,137Z"/><path class="cls-3" d="M209.31,142.67l0,0h0a.23.23,0,0,0-.07-.06s-.05,0-.07,0h0l0,0a.1.1,0,0,0,0,.06h0v0h0v0l0,0a.14.14,0,0,0,.12,0,.14.14,0,0,0,.1-.07A.09.09,0,0,0,209.31,142.67Z"/><path class="cls-3" d="M205.58,140.3h-.06l0,0,0,0v0h0l0,0v0a.11.11,0,0,0,0,.05v0l.07,0h.09a.07.07,0,0,0,.07-.05.06.06,0,0,0,0-.08v0l0,0v0l-.05-.05Z"/><path class="cls-3" d="M208,141.65H208l0,0s0,0-.07.05a.06.06,0,0,0,0,.06h0v.07l0,.06.05,0h0l0,0h.06l0,0a.24.24,0,0,0,.08-.09v-.08l0,0h0s0,0,0,0h0v0l0,0A.1.1,0,0,0,208,141.65Z"/><path class="cls-3" d="M211.71,143.92h0l0,0a.11.11,0,0,0,0,.14.09.09,0,0,0,.13,0V144l0,0,0,0h-.08Z"/><path class="cls-3" d="M203,139.66v0h0s0,0,0,0l0,0v0l0,0a.15.15,0,0,0,.07.07h0a.07.07,0,0,0,.08,0h0l0,0s0,0,0,0v-.11a.19.19,0,0,0-.16-.06Z"/><path class="cls-3" d="M205.24,139.24l0,0,0,0,0,0a.24.24,0,0,0,0,.16l0,0v0h0a.21.21,0,0,0,.25-.11v-.07l0,0s0,0,0,0h0A.12.12,0,0,0,205.24,139.24Z"/><path class="cls-3" d="M200.57,138.53l0,0s0,0,0-.05v-.06l0,0,0,0h-.08l0,0,0,0v.07a.24.24,0,0,0,.09.08h.06Z"/><path class="cls-3" d="M205,141.4h0a.12.12,0,0,0-.07,0,.1.1,0,0,0,0,.05s0,0,0,0v.08l0,0a.16.16,0,0,0,.1,0h0l0,0v0a.08.08,0,0,0,.05-.05v-.09l0,0h0Z"/><path class="cls-3" d="M212.77,142.19h-.06s0,0,0,0a.07.07,0,0,0-.06,0s0,0,0,.05v0a.16.16,0,0,0,.09.1h.08l.06-.07a.16.16,0,0,0,0-.15l0,0h0Z"/><path class="cls-3" d="M202.18,136.2a.1.1,0,0,0,.07,0v0h0a.09.09,0,0,0,0-.08l0,0a.13.13,0,0,0-.16.06.14.14,0,0,0,0,.06v.06A.12.12,0,0,0,202.18,136.2Z"/><path class="cls-3" d="M199.07,135.42h0l0,0s0,0,0,.06a.12.12,0,0,0,0,.11.2.2,0,0,0,.09.09h0l0,0,0,0h0l0,0v-.08a.14.14,0,0,0-.11-.14Z"/><path class="cls-3" d="M201.14,135.55h0l0,0s0,0,0,0a.13.13,0,0,0,0-.16.08.08,0,0,0-.1,0h0l0,0a.14.14,0,0,0,0,.13l0,0h0l0,0Z"/><path class="cls-3" d="M207.9,143.51h-.05s0,0,0,0,0,0,0,0v0a.1.1,0,0,0,.06.09.18.18,0,0,0,.14,0l0,0v0l0,0s0-.05-.07-.07Z"/><path class="cls-3" d="M206.86,138.44l0,0h0a.09.09,0,0,0,0,.11c.07,0,.1,0,.11,0h0l0,0h0a.1.1,0,0,0,0-.11.17.17,0,0,0-.12,0Z"/><path class="cls-3" d="M206.91,140.23v0h-.06l0,0,0,.06v.07a.11.11,0,0,0,.13,0c.07,0,.1,0,.11,0s0,0,0,0h0v-.08a.12.12,0,0,0-.1-.06Z"/><path class="cls-3" d="M207.42,138.47h0l0,.05v.11a.24.24,0,0,0,.13.09h.12v0s0,0,0,0h0a.14.14,0,0,0,0-.14v0l0,0,0,0A.16.16,0,0,0,207.42,138.47Z"/><path class="cls-3" d="M209.33,140.8a.08.08,0,0,0,0,.1.1.1,0,0,0,.14,0l0,0v0l0,0A.11.11,0,0,0,209.33,140.8Z"/><path class="cls-3" d="M208.83,139.67l-.05,0,0,.05a.11.11,0,0,0,0,.11h0a.09.09,0,0,0,.08,0h0l0,0s0,0,.05,0h0v0l0,0,0,0a.05.05,0,0,0,0,0l0,0Z"/><path class="cls-3" d="M203.24,137.3l0,0h0l0,0s0,0,0,0v0l0,0,0,0a.1.1,0,0,0-.06-.05h-.06a.08.08,0,0,0-.09,0v0s0,0,0,0a.11.11,0,0,0,0,.1h0l0,0h0a.14.14,0,0,0,.13,0Z"/><path class="cls-3" d="M208.6,140h0l0,0v0l0,0v.07l0,0a.15.15,0,0,0,.09.06h0l0,0,0-.05a.13.13,0,0,0,0-.12l-.05,0h0Z"/><rect class="cls-2" x="188.2" y="141.35" width="17.53" height="16.71" transform="translate(-49.84 166.77) rotate(-41.19)"/><path class="cls-3" d="M191.9,147.9h0l0,0a.07.07,0,0,0,0,.08v.06a.08.08,0,0,0,.08.05.1.1,0,0,0,.09,0,.09.09,0,0,0,0-.1l0,0a.07.07,0,0,0,0-.06Z"/><path class="cls-3" d="M195,149.09h0a.15.15,0,0,0,0-.17l0,0,0,0-.06,0,0,0h0l0,0V149a.14.14,0,0,0,.11.07Z"/><path class="cls-3" d="M196.49,150.64l0,0,0,0v0l0,0a.16.16,0,0,0,.1,0h.05l0,0,0,0a.12.12,0,0,0-.09-.12h-.1Z"/><path class="cls-3" d="M190.83,154.63a.1.1,0,0,0,0,.12l0,0,0,0h.06a.09.09,0,0,0,0-.11l0-.05,0,0Z"/><path class="cls-3" d="M200.45,149.11a.1.1,0,0,0,0-.08h-.12l0,0v0a.09.09,0,0,0,.06.1h.11A.13.13,0,0,0,200.45,149.11Z"/><path class="cls-3" d="M197,151.08h0a.21.21,0,0,0,0-.15l0,0,0,0h-.15l0,0h0l-.06,0h0v0a.09.09,0,0,0-.06,0,.11.11,0,0,0,0,.08l0,0a.1.1,0,0,0,0,.08h.07l0,0,0,0h.08l.08,0Z"/><path class="cls-3" d="M191,151h0a.11.11,0,0,0,0,.11h0a.14.14,0,0,0,.05.09h.1a.12.12,0,0,0,0-.08s0,0,0,0a.11.11,0,0,0,0-.11H191Z"/><path class="cls-3" d="M197,157.9h0a.1.1,0,0,0,0,.12l0,0,0,0,0,0,.06,0a.11.11,0,0,0,0-.11.11.11,0,0,0-.09-.08Z"/><path class="cls-3" d="M189.21,149.46h0l0,0v0a.11.11,0,0,0,0,.14h.07l0,0,.05,0a.1.1,0,0,0,0-.05l0-.06h0a.14.14,0,0,0-.07-.05Z"/><path class="cls-3" d="M194.8,156.55l0,0v0h0a.11.11,0,0,0,0,.13h.06l0,0h0a.05.05,0,0,0,0,0s0,0,0,0v-.06l0,0A.13.13,0,0,0,194.8,156.55Z"/><path class="cls-3" d="M195.42,157.62h-.1l-.07,0v0l0,0v.05a.13.13,0,0,0,0,.09.15.15,0,0,0,.09.06.16.16,0,0,0,.12,0,.14.14,0,0,0,0-.19l0,0Z"/><path class="cls-3" d="M193.13,154.79h0l0,0v0l0,0v0l0,0H193l0,0v0h0a.1.1,0,0,0,0,.09.09.09,0,0,0,.1,0h0Z"/><path class="cls-3" d="M193.39,150.62h0l0-.05v0h0a.11.11,0,0,0,0-.12l0,0h-.06l0,0h-.07l0,0h0l-.05,0-.05,0,0,0a.08.08,0,0,0,0,.09v0a.05.05,0,0,1,0,0l0,.05,0,0,0,0a.07.07,0,0,0,.1,0A.06.06,0,0,0,193.39,150.62Z"/><path class="cls-3" d="M190.54,152.18l0,0v-.09a.12.12,0,0,0-.14-.06l0,0,0,0,0,0a.07.07,0,0,0,0,.05v.06A.11.11,0,0,0,190.54,152.18Z"/><path class="cls-3" d="M195.61,152.15h-.14l0,0s0,0,0,.05h0l0,0v0a.19.19,0,0,0,.21.15l.05,0h0l0,0h0v0a.11.11,0,0,0,0,0v-.05a.14.14,0,0,0,0-.09Z"/><path class="cls-3" d="M189.63,145.8h0a.11.11,0,0,0-.11,0l0,0v.06h0v0l0,0s0,0,0,0a.12.12,0,0,0,.06.12h0a.26.26,0,0,0,.15,0l0,0,0,0h0l0,0v0l0,0,0,0s0,0,0,0Z"/><path class="cls-3" d="M200,158h0l-.06,0a.09.09,0,0,0,0,.06.12.12,0,0,0,0,.08l0,0H200l0,0,0,0v0l0-.05H200Z"/><path class="cls-3" d="M197.1,154.77v.08l0,0h0a.14.14,0,0,0,.06.09h0a.08.08,0,0,0,.08,0,.08.08,0,0,0,0-.07h0v-.09S197.18,154.7,197.1,154.77Z"/><path class="cls-3" d="M198.85,154.64l0,0v.07a.15.15,0,0,0,.11.13h0a.1.1,0,0,0,.11,0h0l0,0v0s0,0,0-.09h0A.24.24,0,0,0,198.85,154.64Z"/><path class="cls-3" d="M196.19,152.87h0l-.05,0,0,0V153s0,.07.08.08a.08.08,0,0,0,.08,0l0,0V153a.11.11,0,0,0,0-.11.09.09,0,0,0-.08,0Z"/><path class="cls-3" d="M195.15,155.11h-.06l0,0a.19.19,0,0,0-.05.12l0,0a.12.12,0,0,0,.14.06l0,0,0,0v0a.12.12,0,0,0,0-.16Z"/><path class="cls-3" d="M193.78,152h0a.07.07,0,0,0-.06,0h0v.07h0v.09a.1.1,0,0,0,.14,0h0l.05,0h0v-.06l0-.05s0-.06-.05-.07Z"/><path class="cls-3" d="M191.83,150a.09.09,0,0,0,0-.08.08.08,0,0,0-.08,0l0,0v0h0a.14.14,0,0,0,0,.1.12.12,0,0,0,.09,0l0,0,0,0Z"/><path class="cls-3" d="M187.23,151.59h-.06l0,0,0,.05v0a.1.1,0,0,0,0,.07l0,0h.07a.09.09,0,0,0,0,0h0l0,0v-.09h0l0,0Z"/><path class="cls-3" d="M193.51,158.09a.1.1,0,0,0-.1,0v.09a.21.21,0,0,0,0,.08l0,0h.11c.09-.09.06-.16,0-.19l0,0Z"/><path class="cls-3" d="M201.8,142.38h0v-.1a.08.08,0,0,0-.07-.05.16.16,0,0,0-.1,0h0l0,0v.06a.09.09,0,0,0,.08.06S201.76,142.42,201.8,142.38Z"/><path class="cls-3" d="M200.24,145.94h-.05l0,0v0a.1.1,0,0,0,0,0l0,0h.08a.09.09,0,0,0,0-.08.07.07,0,0,0,0-.07l0,0Z"/><path class="cls-3" d="M199.08,144.89a.16.16,0,0,0-.1,0,.1.1,0,0,0,0,.15h0a.09.09,0,0,0,.1,0l0,0s0,0,0,0l0,0V145s0,0,0,0l0,0,0,0Z"/><path class="cls-3" d="M202.14,147.27h-.06a.14.14,0,0,0,0,.23h.1l.06,0,0,0v0c0-.09-.08-.11-.14-.13Z"/><path class="cls-3" d="M201.22,146.12l0,0v.1l0,0,0,0h.07l.06,0a.13.13,0,0,0,0-.1v0a.2.2,0,0,0-.09-.06A.13.13,0,0,0,201.22,146.12Z"/><path class="cls-3" d="M205.76,151.68l0,0v0a.15.15,0,0,0,0,.06l0,0h.07v0l0,0v0l0-.06A.1.1,0,0,0,205.76,151.68Z"/><path class="cls-3" d="M203.09,150.89l0,0V151s.06.06.08.06a.13.13,0,0,0,.09,0v0l0,0v0l0,0A.11.11,0,0,0,203.09,150.89Z"/><path class="cls-3" d="M197,143.36v0h-.08a.14.14,0,0,0,0,.17l0,0H197a.29.29,0,0,0,0-.17l0,0Z"/><path class="cls-3" d="M201.89,148.14h0l0,0,0,0v.07l0,.05a.09.09,0,0,0,.12,0l0,0,0,0a.09.09,0,0,0-.05-.12Z"/><path class="cls-3" d="M200.72,155.72a.12.12,0,0,0,0,.08v0s.08.07.17,0v0h0v-.07a.1.1,0,0,0-.08-.05A.1.1,0,0,0,200.72,155.72Z"/><path class="cls-3" d="M198.27,142.61l0,0v.09l0,0,0,0h.08v0h0l0,0v-.09s-.05,0-.08,0A.11.11,0,0,0,198.27,142.61Z"/><path class="cls-3" d="M200.29,143.26l0,0v0a.09.09,0,0,0,0,.09l0,0h.05l0,0a.09.09,0,0,0,0-.13A.09.09,0,0,0,200.29,143.26Z"/><path class="cls-3" d="M203.35,144.07v0l0,0,0,0h0l-.05,0v0h0v0a.1.1,0,0,0,0,.09.1.1,0,0,0,.1,0l0,0Z"/><path class="cls-3" d="M205.78,149.8h0a.07.07,0,0,0-.1,0h0a.16.16,0,0,0-.05.11.17.17,0,0,0,.06.12h.08a.1.1,0,0,0,.08,0l0,0h0a.09.09,0,0,0,0-.12l0,0Z"/><path class="cls-3" d="M206.71,147.57a.06.06,0,0,0-.07,0,.1.1,0,0,0-.07,0,.28.28,0,0,0-.06.14v0a.24.24,0,0,0,.12.09.17.17,0,0,0,.13,0l0,0v-.11A.11.11,0,0,0,206.71,147.57Z"/><path class="cls-3" d="M202.51,152.2a.14.14,0,0,0,.05-.08v-.07c-.08-.09-.15-.05-.17,0l0,0v.11a.09.09,0,0,0,0,0l0,0h.09Z"/><path class="cls-3" d="M204.17,148.93h0l0,0h0a.09.09,0,0,0,0,.08.11.11,0,0,0,0,.05l0,0v0h0a.1.1,0,0,0,.12,0h0a.13.13,0,0,0,0-.14.13.13,0,0,0-.11-.09Z"/><path class="cls-3" d="M203.38,146s-.07,0-.09,0l-.06,0,0,.07v.06a.36.36,0,0,0,0,.07l0,0h.12a.17.17,0,0,0,0-.2l0,0Z"/><path class="cls-3" d="M197.83,140.73h0l0,0h0a.1.1,0,0,0,0-.09v0l0,0,0,0-.05,0h-.07l0,0a.12.12,0,0,0,0,.19A.08.08,0,0,0,197.83,140.73Z"/><path class="cls-3" d="M204,147.7v.07l0,0h0l0,0h.1a.1.1,0,0,0,0-.14.09.09,0,0,0-.07,0A.13.13,0,0,0,204,147.7Z"/><path class="cls-3" d="M200.21,152.37v0h0a.15.15,0,0,0,0-.08s0,0-.06,0H200a.15.15,0,0,0,0,.06h0v0h0v.07a.13.13,0,0,0,.1.07.24.24,0,0,0,.12,0Z"/><path class="cls-3" d="M197.53,148.85h-.11l0,0h0l0,0,0,0a.08.08,0,0,0,0,.07v0l0,.05s.06,0,.08,0h0a.11.11,0,0,0,.08,0,.11.11,0,0,0,0-.08v-.1a.07.07,0,0,0,0-.06Z"/><path class="cls-3" d="M199.33,151h-.06l0,0a.08.08,0,0,0-.08,0,.07.07,0,0,0,0,.06h0v0h0a.15.15,0,0,0,0,.07l0,0h0l0,0,0,0h.08a.15.15,0,0,0,.11-.05l0,0v-.1a.08.08,0,0,0,0,0h0v0l0,0A.12.12,0,0,0,199.33,151Z"/><path class="cls-3" d="M202,154.38h0l0,0a.1.1,0,0,0,.12.16l0,0v-.07s0,0,0,0l0,0Z"/><path class="cls-3" d="M195.28,147.33v0h0l0,0v.08a.16.16,0,0,0,0,.09h0a.06.06,0,0,0,.07,0h0l.05,0,0,0,0,0v-.09a.19.19,0,0,0-.12-.11Z"/><path class="cls-3" d="M197.58,147.74h-.09l0,0a.19.19,0,0,0-.07.14V148a.2.2,0,0,0,.28,0h0v0a.07.07,0,0,0,0,0,.07.07,0,0,0,0-.06l0,0A.14.14,0,0,0,197.58,147.74Z"/><path class="cls-3" d="M193.45,145.44l0,0s0,0,0,0v-.07l0,0,0,0,0,0h-.07l0,0v.07a.14.14,0,0,0,0,.1h.1Z"/><path class="cls-3" d="M196.56,149.66h0s0,0-.07,0l-.06,0,0,0v0l0,0v.07a.18.18,0,0,0,.08.06h.08l0,0a.09.09,0,0,0,.07,0v0l0,0v-.07h0Z"/><path class="cls-3" d="M203.61,153.12h-.1s0,0-.06,0a.05.05,0,0,0,0,0v0a.15.15,0,0,0,0,.13h.09l.07,0a.16.16,0,0,0,0-.14l0,0h0Z"/><path class="cls-3" d="M195.77,143.82a.08.08,0,0,0,.08,0l0,0h0a.13.13,0,0,0,0-.08s0,0,0,0a.12.12,0,0,0-.17,0l0,.05v.07A.12.12,0,0,0,195.77,143.82Z"/><path class="cls-3" d="M193.13,142h-.06l-.06,0a.14.14,0,0,0-.06.1.14.14,0,0,0,.06.11h.16l0,0,0-.05a.14.14,0,0,0-.06-.17Z"/><path class="cls-3" d="M195,142.85h.07l0,0a.14.14,0,0,0,0-.15.08.08,0,0,0-.09-.05h0l0,0a.17.17,0,0,0-.06.11v0l0,0,0,0Z"/><path class="cls-3" d="M198.59,152.67h-.06a.06.06,0,0,0-.05,0l0,0v0a.11.11,0,0,0,0,.11.14.14,0,0,0,.13,0l0,0v-.08a.12.12,0,0,0,0-.09Z"/><path class="cls-3" d="M199.38,147.56h0s0,.05,0,.12.08.07.09.07h.06a.09.09,0,0,0,0-.11s-.05-.07-.1-.08Z"/><path class="cls-3" d="M198.8,149.25v-.05l0,0h0l0,0-.05,0v.06a.12.12,0,0,0,.1.1.09.09,0,0,0,.12,0s0,0,0,0h0l0,0v-.05a.11.11,0,0,0-.07-.08Z"/><path class="cls-3" d="M199.89,147.78h0a.09.09,0,0,0-.06,0v0l0,0v.06a.21.21,0,0,0,.09.13H200l0,0h0s.06-.09,0-.14v-.08A.14.14,0,0,0,199.89,147.78Z"/><path class="cls-3" d="M200.87,150.62a.09.09,0,0,0,0,.11.11.11,0,0,0,.13,0l0,0v0l0-.05A.12.12,0,0,0,200.87,150.62Z"/><path class="cls-3" d="M200.79,149.39h0l-.07,0a.1.1,0,0,0,0,.1l0,0a.13.13,0,0,0,.06.07h.06a.1.1,0,0,0,.08,0h0l0,0v0l0,0a.06.06,0,0,0,0,0l0,0Z"/><path class="cls-3" d="M196.38,145.23l0,0h0l.05,0,0,0V145a.09.09,0,0,0,0-.07s0,0,0,0a.09.09,0,0,0-.1,0l0,0,0,0a.09.09,0,0,0,0,.09v0h0l0,0a.12.12,0,0,0,.1.08Z"/><path class="cls-3" d="M200.48,149.58h-.07l0,0-.06,0,0,0v.08s0,0,.07.08h.09l.07,0a.1.1,0,0,0,0-.11l0,0h0Z"/><rect class="cls-2" x="176.67" y="146.27" width="17.53" height="16.71" transform="translate(-55.78 165) rotate(-42.29)"/><path class="cls-3" d="M180.34,152.92h-.05l0,0a.08.08,0,0,0,0,.09h0v0a.1.1,0,0,0,.08,0,.12.12,0,0,0,.1,0,.17.17,0,0,0,0-.1l0,0a.07.07,0,0,0,0-.06Z"/><path class="cls-3" d="M183.43,154.05h0a.15.15,0,0,0,0-.17l0,0,0,0-.06,0,0,0h0l0,0,0,0v0s.06.07.11.07Z"/><path class="cls-3" d="M185,155.57l0,0,0,0v0l0,0a.21.21,0,0,0,.11,0h.05l0,0,0,0a.11.11,0,0,0-.09-.12H185Z"/><path class="cls-3" d="M179.4,159.67a.09.09,0,0,0,0,.12l0,0,0,0h.06a.09.09,0,0,0,0-.11l0,0,0,0Z"/><path class="cls-3" d="M188.91,154a.1.1,0,0,0,0-.08h-.12l0,0v0a.1.1,0,0,0,.06.1h.07l0,0A.09.09,0,0,0,188.91,154Z"/><path class="cls-3" d="M185.47,156h0a.15.15,0,0,0,0-.14l0,0,0,0h-.14l0,0h0l-.06,0h0v0l-.06,0a.16.16,0,0,0,0,.09l0,0a.09.09,0,0,0,0,.07h.07l0,0s0,0,0,0h.08l.08,0Z"/><path class="cls-3" d="M179.54,156l0,0a.08.08,0,0,0,0,.1h0a.11.11,0,0,0,.05.09l0,0h0l0,0h0a.09.09,0,0,0,0-.07s0,0,0,0a.11.11,0,0,0,0-.11h-.07Z"/><path class="cls-3" d="M185.65,162.82h0a.11.11,0,0,0,0,.12l0,0,0,0,0,0,.06,0a.11.11,0,0,0,0-.12s0-.06-.09-.07Z"/><path class="cls-3" d="M177.68,154.53h0l0,0,0,0a.1.1,0,0,0,.05.13h.06l0,0a.09.09,0,0,0,.06,0,.09.09,0,0,0,0-.05l0-.07h0a.14.14,0,0,0-.07-.05Z"/><path class="cls-3" d="M183.4,161.51l0,0v0h0a.13.13,0,0,0,0,.14h.05l.06,0h0a.05.05,0,0,0,0-.05.08.08,0,0,0,0,0v-.06l0,0S183.47,161.46,183.4,161.51Z"/><path class="cls-3" d="M184,162.57h0l-.05,0a.07.07,0,0,0-.07,0h0v.08a.16.16,0,0,0,0,.09.21.21,0,0,0,.1.06.16.16,0,0,0,.12,0,.15.15,0,0,0,0-.19l0,0Z"/><path class="cls-3" d="M181.71,159.78h0l0,0v0l0,0v0h-.12l0,.05v0h0a.1.1,0,0,0,0,.09.09.09,0,0,0,.1,0h0Z"/><path class="cls-3" d="M181.88,155.61h0l0-.05v-.05h0a.11.11,0,0,0,0-.12l0,0h0l0,0h0l0,0h-.06l0,.05h0l0,0-.05,0,0,0a.12.12,0,0,0,0,.09v0a.08.08,0,0,1,0,0,.11.11,0,0,0,0,.05l0,0h.05a.07.07,0,0,0,.1,0A.06.06,0,0,0,181.88,155.61Z"/><path class="cls-3" d="M179.06,157.23l0,0v-.08A.11.11,0,0,0,179,157h0l0,0,0,0a.09.09,0,0,0,0,0h0v.05A.12.12,0,0,0,179.06,157.23Z"/><path class="cls-3" d="M184.13,157.09H184l0,0s0,0,0,0h0v.06a.19.19,0,0,0,.21.15l.05,0h0l0,0v-.11a.09.09,0,0,0,0-.08Z"/><path class="cls-3" d="M178,150.87h0a.09.09,0,0,0-.11,0l0,0,0,0v0h0v0l0,0a0,0,0,0,1,0,0,.1.1,0,0,0,.06.12h.16l0,0v0h0l0,0v0l0,0,0,0a.13.13,0,0,0,0-.05Z"/><path class="cls-3" d="M188.6,162.84h0l-.06,0a.06.06,0,0,0,0,.06s0,.07,0,.08h.11l0,0,0,0v0l0,0,0,0Z"/><path class="cls-3" d="M185.67,159.69v.12h0a.18.18,0,0,0,.07.09h0a.11.11,0,0,0,.08,0,.07.07,0,0,0,0-.07h0v-.1A.14.14,0,0,0,185.67,159.69Z"/><path class="cls-3" d="M187.41,159.53l0,0,0,0v0c0,.09.07.12.11.12h0a.13.13,0,0,0,.11,0h0v-.07a.13.13,0,0,0,0-.08l0,0A.26.26,0,0,0,187.41,159.53Z"/><path class="cls-3" d="M184.72,157.8h0l0,0,0,0,0,0V158a.15.15,0,0,0,.09.08.12.12,0,0,0,.08,0l0,0v-.06a.12.12,0,0,0,0-.11.08.08,0,0,0-.08,0Z"/><path class="cls-3" d="M183.72,160.07h-.06l0,0a.15.15,0,0,0,0,.12l0,0a.14.14,0,0,0,.14.06l0,0,0,0v0a.13.13,0,0,0-.05-.16Z"/><path class="cls-3" d="M182.3,157h0a.07.07,0,0,0-.06,0v0l0,0v.05h0v.08a.11.11,0,0,0,.14,0h0l0,0h0v-.06l0-.05a.11.11,0,0,0-.06-.07Z"/><path class="cls-3" d="M180.31,155a.09.09,0,0,0,0-.08.08.08,0,0,0-.08,0l0,0v0h0a.11.11,0,0,0,0,.1.1.1,0,0,0,.09,0l0,0,0,0Z"/><path class="cls-3" d="M175.74,156.7h-.06l0,0v.09s0,0,0,.07h.11l0,0h0v-.06l0-.05h0l0,0Z"/><path class="cls-3" d="M182.14,163.08a.09.09,0,0,0-.09,0l0,0v.07a.25.25,0,0,0,0,.08l0,0h.08l0,0c.1-.08.07-.15,0-.19l-.05,0Z"/><path class="cls-3" d="M190.13,147.22l0,0v-.1a.15.15,0,0,0-.07,0,.16.16,0,0,0-.1,0h0v.08s.05.06.07.06A.08.08,0,0,0,190.13,147.22Z"/><path class="cls-3" d="M188.64,150.8h0l0,0,0,0v0a.08.08,0,0,0,0,0l0,0h.08s0,0,0-.09a.06.06,0,0,0,0-.06l0,0Z"/><path class="cls-3" d="M187.46,149.77a.16.16,0,0,0-.1,0,.11.11,0,0,0,0,.15h0a.1.1,0,0,0,.11,0l0,0s0,0,0,0l0,0v-.06a.06.06,0,0,0,0,0v0l0,0Z"/><path class="cls-3" d="M190.57,152.09h0l0,0a.12.12,0,0,0,0,.11c0,.05,0,.08.08.11h.06l0,0a.09.09,0,0,0,.06,0l0,0v-.06a.18.18,0,0,0-.14-.13Z"/><path class="cls-3" d="M189.62,151l0,0v.07l0,0,0,0,0,0h.07l.06,0a.11.11,0,0,0,0-.1v0a.16.16,0,0,0-.09-.06A.14.14,0,0,0,189.62,151Z"/><path class="cls-3" d="M194.27,156.44l0,0v.05a.18.18,0,0,0,0,.06l0,0h.07v0l0,0v0l0-.05C194.34,156.41,194.29,156.42,194.27,156.44Z"/><path class="cls-3" d="M191.58,155.69l0,0v.07a.12.12,0,0,0,.09,0,.1.1,0,0,0,.08,0h0v-.11A.12.12,0,0,0,191.58,155.69Z"/><path class="cls-3" d="M185.37,148.28v0h0l-.05,0a.15.15,0,0,0,0,.17l0,0h.1a.09.09,0,0,0,0-.07.07.07,0,0,0,0-.09l0,0Z"/><path class="cls-3" d="M190.33,153h0l0,0,0,0,0,0v0l0,0a.12.12,0,0,0,.13,0l0,0v0a.1.1,0,0,0,0-.13Z"/><path class="cls-3" d="M189.3,160.57a.11.11,0,0,0,0,.08v0s.08.07.17,0v0h0v-.07a.16.16,0,0,0-.08-.06A.17.17,0,0,0,189.3,160.57Z"/><path class="cls-3" d="M186.61,147.5l0,.05v.09l0,0,0,0h0l.05,0h0l0,0h0v-.06l0,0a.12.12,0,0,0-.08,0A.07.07,0,0,0,186.61,147.5Z"/><path class="cls-3" d="M188.64,148.12l0,0v0a.09.09,0,0,0,0,.09l0,0h.06l0,0a.1.1,0,0,0,0-.14A.09.09,0,0,0,188.64,148.12Z"/><path class="cls-3" d="M191.72,148.88v0l0-.05h-.07l0,0h0v0a.09.09,0,0,0,0,.09.11.11,0,0,0,.1,0l0,0Z"/><path class="cls-3" d="M194.25,154.55h0a.11.11,0,0,0-.11,0h0a.13.13,0,0,0-.05.11.14.14,0,0,0,.06.11l0,0h0a.09.09,0,0,0,.08,0l0,0h0a.09.09,0,0,0,0-.11l0,0Z"/><path class="cls-3" d="M195.14,152.3a.07.07,0,0,0-.06,0,.08.08,0,0,0-.08,0,.2.2,0,0,0-.05.14v.05a.14.14,0,0,0,.12.08.13.13,0,0,0,.12,0l0,0v-.11S195.22,152.32,195.14,152.3Z"/><path class="cls-3" d="M191,157a.1.1,0,0,0,0-.07v-.05l0,0c-.08-.09-.14-.05-.16,0l0,0v.08l0,0a.09.09,0,0,0,0,.05l0,0H191Z"/><path class="cls-3" d="M192.63,153.71h0s0,.06,0,.08a.09.09,0,0,0,0,.05l0,0,0,0h0a.08.08,0,0,0,.11,0h0a.14.14,0,0,0,0-.15.12.12,0,0,0-.12-.08Z"/><path class="cls-3" d="M191.78,150.84a.1.1,0,0,0-.09,0l-.05,0a.09.09,0,0,0,0,.07v0l0,0a.11.11,0,0,0,0,.06l0,0h.11a.16.16,0,0,0,0-.2l0,0Z"/><path class="cls-3" d="M186.13,145.64h0l.05,0h0l0,0a.09.09,0,0,0,0-.09h0l0,0,0,0,0,0H186l0,0c0,.08,0,.14,0,.19A.08.08,0,0,0,186.13,145.64Z"/><path class="cls-3" d="M192.41,152.49v.07h0l0,0h0v0h.08a.11.11,0,0,0,0-.14.11.11,0,0,0-.08,0A.11.11,0,0,0,192.41,152.49Z"/><path class="cls-3" d="M188.73,157.23v0h0a.15.15,0,0,0-.05-.08l-.06,0h0l0,0s0,0,0,0h0v0h0v.08a.17.17,0,0,0,.1.06.17.17,0,0,0,.12,0Z"/><path class="cls-3" d="M186,153.76h-.11l0,0h0l0,0,0,0a.06.06,0,0,0,0,.06v0l.05.06a.09.09,0,0,0,.08,0h0a.08.08,0,0,0,.08,0,.11.11,0,0,0,0-.08v-.05a0,0,0,0,0,0,0v0a.21.21,0,0,0,0-.06Z"/><path class="cls-3" d="M187.82,155.83h-.08a.11.11,0,0,0-.08,0,.09.09,0,0,0,0,.06h0v0h0a.15.15,0,0,0,0,.07l0,0h0l0,0,0,0,0,0h.05a.33.33,0,0,0,.12-.06h0V156a0,0,0,0,0,0,0h0v-.07A.14.14,0,0,0,187.82,155.83Z"/><path class="cls-3" d="M190.58,159.2h0l0,0a.1.1,0,0,0,0,.14.09.09,0,0,0,.13,0l0,0v-.07a.06.06,0,0,1,0,0l0,0Z"/><path class="cls-3" d="M183.71,152.29h0s0,0,0,0l0,0v.09a.12.12,0,0,0,0,.08h0a.08.08,0,0,0,.08,0h0l.06,0,0,0,0,0v-.09a.22.22,0,0,0-.12-.11Z"/><path class="cls-3" d="M186,152.65h-.09l-.05,0a.22.22,0,0,0-.06.14v.07a.22.22,0,0,0,.28,0h0v-.05a.06.06,0,0,0,0,0,.13.13,0,0,0,0-.06l0,0A.14.14,0,0,0,186,152.65Z"/><path class="cls-3" d="M181.84,150.43l0,0,0,0v-.07l0,0,0,0,0,0h0l0,0,0,0v.06a.14.14,0,0,0,.05.1h.1Z"/><path class="cls-3" d="M185,154.59h0a.16.16,0,0,0-.07,0,.09.09,0,0,0-.06,0l0,0h0v.1a.2.2,0,0,0,.09.06H185a.17.17,0,0,0,.07,0l0,0v-.07l0,0h0Z"/><path class="cls-3" d="M192.15,157.92l-.06,0h0l-.06,0,0,0V158a.13.13,0,0,0,0,.12l0,0h.06l.07,0a.14.14,0,0,0,.05-.14l0,0h0Z"/><path class="cls-3" d="M184.13,148.77h.08l0,0v0a.11.11,0,0,0,0-.07l0,0a.1.1,0,0,0-.16,0,.1.1,0,0,0,0,0v.07A.12.12,0,0,0,184.13,148.77Z"/><path class="cls-3" d="M181.45,147h0l-.07.05a.15.15,0,0,0-.05.1.14.14,0,0,0,.06.11h.12l0,0,0,0,0,0a.13.13,0,0,0-.06-.16Z"/><path class="cls-3" d="M183.36,147.81h.07l0,0a.13.13,0,0,0,0-.15.08.08,0,0,0-.09-.05h0l0,0a.14.14,0,0,0-.05.12v0l0,0,0,0Z"/><path class="cls-3" d="M187.11,157.56h-.05l-.05,0s0,0,0,0v0a.11.11,0,0,0,0,.11.14.14,0,0,0,.13,0l0,0v-.08a.12.12,0,0,0-.05-.09Z"/><path class="cls-3" d="M187.81,152.43h0s0,.05,0,.12.08.06.1.06h.06a.08.08,0,0,0,0-.1s0-.08-.1-.08Z"/><path class="cls-3" d="M187.27,154.14v-.06h-.07l0,0,0,0v.07s0,.07.1.09a.08.08,0,0,0,.11,0l0,0h0l0,0v0a.14.14,0,0,0-.08-.09Z"/><path class="cls-3" d="M188.33,152.64h0l-.06,0,0,0v.08a.21.21,0,0,0,.09.13h.14l0,0h0a.14.14,0,0,0,0-.13v-.06l0,0A.15.15,0,0,0,188.33,152.64Z"/><path class="cls-3" d="M189.36,155.47a.09.09,0,0,0,0,.11.1.1,0,0,0,.13,0l0,0v0l0-.05A.12.12,0,0,0,189.36,155.47Z"/><path class="cls-3" d="M189.26,154.24h0l-.06,0a.1.1,0,0,0,0,.1l0,0a.12.12,0,0,0,.07.07h0a.1.1,0,0,0,.08,0h0l0,0v-.07a.11.11,0,0,0,0,0l0,0Z"/><path class="cls-3" d="M184.77,150.16h0s0,0,0,0a.08.08,0,0,0,0,0V150l0,0a.09.09,0,0,0,0-.07l-.05,0a.08.08,0,0,0-.1,0l0,0,0,0a.12.12,0,0,0,0,.09v0l0,0v0a.2.2,0,0,0,.11.08Z"/><path class="cls-3" d="M189,154.44h-.07l0,0a.09.09,0,0,0-.06,0l0,0v.07a.18.18,0,0,0,.06.09h.1s0,0,.06,0a.11.11,0,0,0,0-.11l0,0h0Z"/><rect class="cls-2" x="165.02" y="148.9" width="16.71" height="17.53" transform="translate(-41.63 64.46) rotate(-18.85)"/><path class="cls-3" d="M169.79,161.66v0s0,0,0,0a.09.09,0,0,0,.06.07h.06a.16.16,0,0,0,.08-.06.14.14,0,0,0,0-.09.1.1,0,0,0-.08-.07h0l-.07,0Z"/><path class="cls-3" d="M172.06,159.28v0a.14.14,0,0,0-.14-.1h0l0,0v.06l0,0h0v0l0,0h.05a.13.13,0,0,0,.11-.07Z"/><path class="cls-3" d="M174.07,158.46v0l0,0h.07a.2.2,0,0,0,.08-.08l0-.05v0l0,0a.1.1,0,0,0-.14,0h0l0,0,0,0Z"/><path class="cls-3" d="M175.61,165.21a.09.09,0,0,0,.1.07h0l0,0,0-.06h0a.1.1,0,0,0-.1-.07h-.05l0,0Z"/><path class="cls-3" d="M174.16,154.22a.1.1,0,0,0-.09,0l0,0v0h0v.07l0,0a.1.1,0,0,0,.11,0h0l0,0v-.08A.12.12,0,0,0,174.16,154.22Z"/><path class="cls-3" d="M174.66,158.19v0a.17.17,0,0,0-.13-.07h0l0,0,0,.05,0,0v.09h0a.08.08,0,0,0,0,.07h0l0,0a.06.06,0,0,0,0,.06.11.11,0,0,0,.07.06h0s.06,0,.09,0l0,0v-.06s0,0,0-.05h0l0,0v0a.09.09,0,0,0,0-.08Z"/><path class="cls-3" d="M172.3,163.62v0a.1.1,0,0,0,.09.07h0a.12.12,0,0,0,.1,0l0,0,0,0v0h0a.09.09,0,0,0-.06-.06h0a.09.09,0,0,0-.12,0l0,0Z"/><path class="cls-3" d="M181,160.73v0a.11.11,0,0,0,.11.07h0l0,0,0,0a.15.15,0,0,0,0-.07.11.11,0,0,0-.09-.08.11.11,0,0,0-.1.06Z"/><path class="cls-3" d="M170.21,164.75a0,0,0,0,0,0,0l0,0,0,0a.11.11,0,0,0,.14,0l0,0v-.08a.18.18,0,0,0,0-.06.1.1,0,0,0,0-.05h-.08a.1.1,0,0,0-.07,0A.08.08,0,0,0,170.21,164.75Z"/><path class="cls-3" d="M178.89,162.27l0,0,0,0h0a.12.12,0,0,0,.15,0l0-.05v-.06h0l0-.05,0,0H179S178.87,162.19,178.89,162.27Z"/><path class="cls-3" d="M180.12,162.1l0,.05a.09.09,0,0,0,0,0,.17.17,0,0,0,0,.07v0l0,0h0a.15.15,0,0,0,.1,0,.15.15,0,0,0,.09-.07.16.16,0,0,0,0-.12.15.15,0,0,0-.17-.1l0,0Z"/><path class="cls-3" d="M176.63,163.14h0l0,0h-.09l0,0,0,0a.43.43,0,0,0,0,0l0,0h0a.08.08,0,0,0,.09,0,.07.07,0,0,0,0-.09h0Z"/><path class="cls-3" d="M172.87,161.32h0l0,0s0,0-.05,0h0a.08.08,0,0,0-.09-.06l0,0v0l0,0h0l0,0,0,.06h0l0,0v0l0,.05a.19.19,0,0,0,.08.06h.06a.06.06,0,0,0,.06,0h.05l0,0a.07.07,0,0,0,0-.09A.08.08,0,0,0,172.87,161.32Z"/><path class="cls-3" d="M173.23,164.55s0,0,0-.05l0,0,0,0h0a.12.12,0,0,0-.11.11v.07l0,0h.11A.1.1,0,0,0,173.23,164.55Z"/><path class="cls-3" d="M175.13,159.84v0s0,0,0,.06h0l0,0V160a.13.13,0,0,0,0,.06h0l0,0,0,0c.14,0,.2-.09.22-.13v-.06h0s0,0,0,0h0l0,0s0,0-.05,0l0,0a.09.09,0,0,0-.1,0Z"/><path class="cls-3" d="M167,163v0s0,0,0,.1v0l0,0,0,0v0h.05a.11.11,0,0,0,.13,0l0,0a.21.21,0,0,0,0-.13v0l0,0v0l0,0,0,0H167Z"/><path class="cls-3" d="M182.18,158v0a.21.21,0,0,0,0,.08.08.08,0,0,0,.05.05s.07,0,.08,0l0,0,0,0v0l0-.05,0,0,0,0h-.05l0,0Z"/><path class="cls-3" d="M178.13,159.46l0,0h.06s.05,0,.11,0l0,0a.19.19,0,0,0,0-.08l-.06-.06h0l0,0h-.06A.12.12,0,0,0,178.13,159.46Z"/><path class="cls-3" d="M178.67,157.8v0l0,0,0,0a.17.17,0,0,0,.16,0v0h0a.12.12,0,0,0,0-.11h0l0,0h0a.11.11,0,0,0-.08,0l0,0A.23.23,0,0,0,178.67,157.8Z"/><path class="cls-3" d="M176,159.58a0,0,0,0,1,0,0h0v.06l0,0h.08a.15.15,0,0,0,.11,0,.19.19,0,0,0,0-.08l0,0v0l0,0s-.07,0-.11,0a.11.11,0,0,0-.07.06Z"/><path class="cls-3" d="M177.69,161.4v.09a.15.15,0,0,0,.09.09h0c.08,0,.11-.07.11-.1v0l0,0,0,0a.14.14,0,0,0-.17,0Z"/><path class="cls-3" d="M174.29,161.48h0a.07.07,0,0,0,0,.06v0h0l0,0h0l0,0h.05c.07,0,.08-.08.06-.11h0a0,0,0,0,0,0-.05v0l0,0h-.05a.08.08,0,0,0-.08,0Z"/><path class="cls-3" d="M171.71,162.53a.09.09,0,0,0-.1,0,.08.08,0,0,0,0,.07l0,0,0,0v0a.1.1,0,0,0,.1,0s.05,0,.06-.07l0-.05,0,0Z"/><path class="cls-3" d="M171.43,167.39l0,.05,0,.05,0,0h0a.15.15,0,0,0,.09,0l0,0v-.08a.07.07,0,0,0,0,0h0v0l0,0h-.09Z"/><path class="cls-3" d="M179.83,164.05a.08.08,0,0,0,0,.09l0,0,0,0h0l.08,0,0,0,0,0v-.07c0-.12-.12-.12-.16-.1l0,0Z"/><path class="cls-3" d="M168.45,150.41v0l0,0h-.06a.1.1,0,0,0-.08,0,.14.14,0,0,0,0,.11h0l0,0h.06a.12.12,0,0,0,.08,0A.08.08,0,0,0,168.45,150.41Z"/><path class="cls-3" d="M171.14,153.2v.06l0,0,0,0h0l0,0,0,0v0s0,0-.06-.06a.08.08,0,0,0-.08,0l0,0Z"/><path class="cls-3" d="M169.74,153.88a.19.19,0,0,0,0,.1.11.11,0,0,0,.13.08h0s.06,0,.07-.08v0s0,0,0,0l0,0-.06,0h-.08Z"/><path class="cls-3" d="M173.1,152V152a.14.14,0,0,0,.08.09.16.16,0,0,0,.14,0l0,0V152a.2.2,0,0,0,0-.07v0l0,0h0a.15.15,0,0,0-.17.07Z"/><path class="cls-3" d="M171.68,152.37v0l0,0,0,0h0l.05,0,0,0v-.07a.23.23,0,0,0,0-.07s0,0-.08-.07h0a.11.11,0,0,0-.08.06A.17.17,0,0,0,171.68,152.37Z"/><path class="cls-3" d="M178.56,150.28l0,0,0,0h.06l0,0,0,0v0h0l0-.05,0,0h-.06C178.56,150.21,178.55,150.26,178.56,150.28Z"/><path class="cls-3" d="M176.81,152.45l0,0,0,0h0a.13.13,0,0,0,.08-.06.11.11,0,0,0,0-.09v0l0,0h-.07A.12.12,0,0,0,176.81,152.45Z"/><path class="cls-3" d="M167.54,155.2l0,0h0v.08a.13.13,0,0,0,.15.07l0,0,0,0v-.07a.12.12,0,0,0,0-.05.08.08,0,0,0-.09,0l0,0Z"/><path class="cls-3" d="M173.81,152.52v.09l0,0h.08c.08,0,.08-.07.08-.1v0l0,0a.11.11,0,0,0-.13,0Z"/><path class="cls-3" d="M180.38,156.48a.1.1,0,0,0,.05.06h.06s.1-.05.06-.16h0v0l0,0h0a.1.1,0,0,0-.08,0A.09.09,0,0,0,180.38,156.48Z"/><path class="cls-3" d="M167.31,153.76l0,.05h.12l0,0v-.14l0,0,0,0h0a.1.1,0,0,0-.08.06A.11.11,0,0,0,167.31,153.76Z"/><path class="cls-3" d="M168.69,152.13l0,0h0a.1.1,0,0,0,.1,0h0l0,0v0a.07.07,0,0,0,0,0,.09.09,0,0,0-.12-.06A.08.08,0,0,0,168.69,152.13Z"/><path class="cls-3" d="M170.61,149.61h-.05l-.06,0,0,0v.1h0a.08.08,0,0,0,.09,0,.1.1,0,0,0,.07-.08l0-.05Z"/><path class="cls-3" d="M176.82,149.55h0c-.05,0-.06.06-.05.09h0v0a.15.15,0,0,0,.07.09.2.2,0,0,0,.13,0l0,0v0a.06.06,0,0,0,0-.08s0,0,0,0h0a.1.1,0,0,0-.1-.06l0,0Z"/><path class="cls-3" d="M175.11,147.83a.17.17,0,0,0,0,.07.11.11,0,0,0,0,.08.29.29,0,0,0,.11.11h.05a.18.18,0,0,0,.12-.08.16.16,0,0,0,0-.14s0,0,0,0l0,0,0,0h-.06A.12.12,0,0,0,175.11,147.83Z"/><path class="cls-3" d="M177.8,153.48a.18.18,0,0,0-.05-.07h-.08a.11.11,0,0,0-.08.15v0l0,0h.07a.11.11,0,0,0,.06,0l0,0,0,0v-.06Z"/><path class="cls-3" d="M175.41,150.7v.05h0a.11.11,0,0,0,.06.07l0,0h.06v0h0a.1.1,0,0,0,.07-.1v0a.14.14,0,0,0-.12-.1.14.14,0,0,0-.12.08Z"/><path class="cls-3" d="M172.44,150.34a.07.07,0,0,0,0,.08.06.06,0,0,0,0,.06.08.08,0,0,0,0,.05h.14l0,0,0,0v-.08a.15.15,0,0,0-.17-.11l0,0Z"/><path class="cls-3" d="M165.41,153.45h0a0,0,0,0,0,0,0h0v0a.07.07,0,0,0-.07-.06h0l0,0,0,0-.05,0,0,0v0l0,.05a.14.14,0,0,0,.19.06A.09.09,0,0,0,165.41,153.45Z"/><path class="cls-3" d="M174.19,150.42l.07,0h.09l0-.06a.1.1,0,0,0-.12-.07.09.09,0,0,0-.06.06A.08.08,0,0,0,174.19,150.42Z"/><path class="cls-3" d="M177.08,155.68H177a.15.15,0,0,0-.09,0s0,0,0,0l0,0v.05a.11.11,0,0,0,0,.05h0l0,0h0l0,0h0a.15.15,0,0,0,.1-.06.15.15,0,0,0,0-.13A.05.05,0,0,0,177.08,155.68Z"/><path class="cls-3" d="M172.81,156.82v0h0v.1h0v0l0,0h.08l.07,0A.13.13,0,0,0,173,157h0a.08.08,0,0,0,0-.08.1.1,0,0,0-.06-.05h-.09a.08.08,0,0,0-.07,0Z"/><path class="cls-3" d="M175.44,156h0l0,0v0a.08.08,0,0,0,0,.08.07.07,0,0,0,0,0h0l0,0h0l.07,0,0,0h.08l0,0,0,0a.31.31,0,0,0,0-.13v0l0,0,0,0h-.06l0,0h-.07A.14.14,0,0,0,175.44,156Z"/><path class="cls-3" d="M179.63,154.76l0,0a.06.06,0,0,0,0,0,.11.11,0,0,0,.12.07.1.1,0,0,0,.07-.12v0l0,0h-.08l0,0Z"/><path class="cls-3" d="M170.55,158.32h0v.07l0,0,0,0a.19.19,0,0,0,.1,0h0a.07.07,0,0,0,.06-.06h0v0a.13.13,0,0,0,0-.06s0,0,0,0,0,0,0,0l0,0,0,0h0a.26.26,0,0,0-.15.07Z"/><path class="cls-3" d="M171.8,156.35s0,0,0,0,0,0,0,.05v.05a.26.26,0,0,0,.11.12H172a.2.2,0,0,0,.08-.26v0h-.13l0,0A.15.15,0,0,0,171.8,156.35Z"/><path class="cls-3" d="M168.11,159.29s0,0,0,0l0,0,0,0H168l-.05,0,0,0,0,0v.11h0a.13.13,0,0,0,.12,0l0,0v-.07Z"/><path class="cls-3" d="M173.19,158l0,0h0a.15.15,0,0,0,0,.06.13.13,0,0,0,0,.06.05.05,0,0,0,0,0v0l0,0h.06a.13.13,0,0,0,.09-.06l0,0v0h0a.11.11,0,0,0,0-.08v0l0,0h-.07Z"/><path class="cls-3" d="M179.08,152.82s0,0,0,.05a0,0,0,0,0,0,0,.09.09,0,0,0,0,.07.08.08,0,0,0,0,0h0a.13.13,0,0,0,.13,0l0,0V153a.28.28,0,0,0,0-.09.18.18,0,0,0-.11-.1l-.05,0,0,0Z"/><path class="cls-3" d="M167.49,156.53a.08.08,0,0,0,0-.07l0,0h0a.08.08,0,0,0-.06,0h-.06a.12.12,0,0,0-.07.15l0,.06h.06A.11.11,0,0,0,167.49,156.53Z"/><path class="cls-3" d="M164.81,158.29v.05s0,0,0,.08a.15.15,0,0,0,.08.09.17.17,0,0,0,.12,0l0,0v-.16l0,0a.14.14,0,0,0-.18,0Z"/><path class="cls-3" d="M166.31,156.86h0v-.09a.14.14,0,0,0-.13-.09.08.08,0,0,0-.08.06h0v.07a.15.15,0,0,0,.08.1h.05l0,0Z"/><path class="cls-3" d="M176.74,157.29v.05a.11.11,0,0,0,0,.06l0,0,0,0a.14.14,0,0,0,.11,0,.12.12,0,0,0,.07-.11v0l0,0,0,0a.12.12,0,0,0-.1,0Z"/><path class="cls-3" d="M172.31,154.61v0a.11.11,0,0,0,.11.05.14.14,0,0,0,.1-.06v-.06a.08.08,0,0,0-.09-.06.24.24,0,0,0-.11.06Z"/><path class="cls-3" d="M173.67,155.79l0,0,0,0v.07l0,.06v0l0,0h0a.11.11,0,0,0,.12-.06c.07,0,.06-.08,0-.1a.08.08,0,0,0,0,0h0l0,0,0,0a.14.14,0,0,0-.11,0Z"/><path class="cls-3" d="M172.71,154.22h0a.2.2,0,0,0,0,.07v0l0,0,0,0h0a.24.24,0,0,0,.15,0l0,0a0,0,0,0,0,0,0l0,0v-.05l0,0v0a.16.16,0,0,0-.11-.09h-.08A.14.14,0,0,0,172.71,154.22Z"/><path class="cls-3" d="M175.72,154.4a.07.07,0,0,0,.09,0,.1.1,0,0,0,.09-.1l0,0,0,0h-.06C175.71,154.32,175.71,154.38,175.72,154.4Z"/><path class="cls-3" d="M174.55,154v.05s0,0,0,.07a.13.13,0,0,0,.08.07l0,0a.09.09,0,0,0,.09,0v0a.21.21,0,0,0,0-.08h0l0,0h-.11l0,0Z"/><path class="cls-3" d="M169,156.5v-.05a0,0,0,0,0,0,0s0,0,0,0l0,0h-.07a.12.12,0,0,0-.08,0,.08.08,0,0,0,0,0,.07.07,0,0,0,0,.09v0s0,0,0,0a.12.12,0,0,0,.07.07h.07a.17.17,0,0,0,.11-.07Z"/><path class="cls-3" d="M174.61,154.36l0,0v.12l0,0,0,0h.05a.19.19,0,0,0,.1,0l0,0v-.14a.11.11,0,0,0-.09-.07h-.07Z"/><rect class="cls-2" x="152.63" y="150.73" width="16.71" height="17.53" transform="translate(-65.32 171.43) rotate(-47.75)"/><path class="cls-3" d="M162.19,154.26v0a.05.05,0,0,0,0,0,.1.1,0,0,0-.09,0H162a.12.12,0,0,0,0,.08.17.17,0,0,0,0,.1.12.12,0,0,0,.1,0l0,0a.11.11,0,0,0,0-.05Z"/><path class="cls-3" d="M161.35,157.44v0l0,0a.17.17,0,0,0,.17,0l0,0v0l0-.06,0,0h0v0l0,0h-.05a.17.17,0,0,0-.06.12Z"/><path class="cls-3" d="M160,159.13l0,0,0,0h0l0,0a.21.21,0,0,0,0,.11v.05l0,0,0,0a.14.14,0,0,0,.11-.11h0v-.06Z"/><path class="cls-3" d="M155.38,154a.11.11,0,0,0-.13,0l0,0,0,0,0,.06h0a.09.09,0,0,0,.11,0l0,0,0,0Z"/><path class="cls-3" d="M162,162.89a.1.1,0,0,0,.07,0v-.08h0l0,0,0,0h0a.11.11,0,0,0-.09.08h0l0,0v0l0,.05A.14.14,0,0,0,162,162.89Z"/><path class="cls-3" d="M159.6,159.66h0a.19.19,0,0,0,.15,0l0,0v-.18l0,0h0a.09.09,0,0,0,0-.06h0a.09.09,0,0,0,0-.06.1.1,0,0,0-.09,0l0,0a.13.13,0,0,0-.07.06v.06l0,0,0,0h0v.07h0a.11.11,0,0,0,0,.08Z"/><path class="cls-3" d="M159,153.76l0,0a.11.11,0,0,0-.11,0h0a.16.16,0,0,0-.08.06v.07l0,0h0a.13.13,0,0,0,.08,0h0a.11.11,0,0,0,.1-.06v-.07Z"/><path class="cls-3" d="M152.83,160.49v0h0a.09.09,0,0,0-.12,0l0,0,0,0v0s0,.05,0,.06a.09.09,0,0,0,.11,0,.1.1,0,0,0,.07-.09Z"/><path class="cls-3" d="M160.33,151.77a.05.05,0,0,0,0,0l0,0,0,0a.1.1,0,0,0-.12.06v.07l0,0,0,0,.06,0,.06,0v0h0a.1.1,0,0,0,0-.08A.08.08,0,0,0,160.33,151.77Z"/><path class="cls-3" d="M153.92,158.13l0,0h0a.1.1,0,0,0-.13.06v.05l0,.05h0a.05.05,0,0,0,.05,0l.05,0h0l0,0A.12.12,0,0,0,153.92,158.13Z"/><path class="cls-3" d="M152.93,158.87a.35.35,0,0,0,0-.06l0,0a.09.09,0,0,0,0-.07h-.1a.13.13,0,0,0-.09,0,.13.13,0,0,0,0,.1.17.17,0,0,0,.05.12.14.14,0,0,0,.19,0l0,0Z"/><path class="cls-3" d="M155.48,156.27h.08l0,0h0v-.08a.08.08,0,0,0,0,0l-.05,0h0a.08.08,0,0,0-.09,0,.08.08,0,0,0,0,.09h0Z"/><path class="cls-3" d="M159.65,156.05h0a.05.05,0,0,0,.05,0h0a.09.09,0,0,0,.11,0l0,0v0s0,0,0-.05h0l0,0,0-.07,0,0h0l0-.06,0,0,0,0a.14.14,0,0,0-.1,0h0a.05.05,0,0,0,0,0l-.05,0,0,0v.05a.07.07,0,0,0,0,.1Z"/><path class="cls-3" d="M157.78,153.4l0,0h.09a.11.11,0,0,0,0-.15v0l0,0h-.1l0,0A.11.11,0,0,0,157.78,153.4Z"/><path class="cls-3" d="M158.39,158.43h0a.08.08,0,0,0,0-.07h0v-.05l0,0-.06,0h-.07a.2.2,0,0,0-.13.23l0,0h0s0,0,0,0h.14a.18.18,0,0,0,.08-.06Z"/><path class="cls-3" d="M164,151.77v0a.08.08,0,0,0,0-.1l0,0,0,0h0v0h0l0,0h0a.13.13,0,0,0-.12.07v0a.32.32,0,0,0,0,.14l0,0h0v0h.07l0,0,0,0a.05.05,0,0,0,0,0Z"/><path class="cls-3" d="M153.09,163.43v0l0-.06-.06,0a.12.12,0,0,0-.08,0v.07l0,0,0,0H153l.05,0v0Z"/><path class="cls-3" d="M156,160.22l0,0h0l0,0h0s-.06,0-.09.07v0a.11.11,0,0,0,0,.07l.08,0h0l.06,0A.13.13,0,0,0,156,160.22Z"/><path class="cls-3" d="M156.28,161.93l0,0h-.07a.16.16,0,0,0-.12.12v0h0a.11.11,0,0,0,0,.1h.09a.09.09,0,0,0,.08,0v0A.24.24,0,0,0,156.28,161.93Z"/><path class="cls-3" d="M157.74,159.09v0h0a.08.08,0,0,0,0,0l0,0h-.07s-.07,0-.08.09a.16.16,0,0,0,0,.09h.07s.08,0,.11,0a.11.11,0,0,0,0-.08Z"/><path class="cls-3" d="M155.39,158.31v0l0,0,0,0a.2.2,0,0,0-.12,0l0,0a.15.15,0,0,0,0,.15l0,0,0,0h0a.12.12,0,0,0,.15-.06Z"/><path class="cls-3" d="M158.34,156.6v0a.07.07,0,0,0,0-.06h-.14l0,0a.1.1,0,0,0,0,.14h0s0,0,0,0h.07l.05,0a.09.09,0,0,0,.06-.06Z"/><path class="cls-3" d="M160.09,154.43a.08.08,0,0,0,.08,0,.14.14,0,0,0,0-.09l0,0h0v0a.08.08,0,0,0-.09,0,.1.1,0,0,0,0,.09l0,0h.08Z"/><path class="cls-3" d="M158,150v0l0,0h-.1a.08.08,0,0,0-.06.05v.09h0l.05,0h.07l0,0h0l0,0Z"/><path class="cls-3" d="M152.24,157a.12.12,0,0,0,0-.09H152l0,0v0l0,.05h0c.1.09.17.05.2,0V157Z"/><path class="cls-3" d="M168.8,163.46l0,0h.09a.12.12,0,0,0,0-.08.11.11,0,0,0,0-.09h-.09a.08.08,0,0,0-.05.08A.09.09,0,0,0,168.8,163.46Z"/><path class="cls-3" d="M165.09,162.32l0,0h0l0,0h0l0,0,0,.05v0l0,0a.07.07,0,0,0,.08,0,.1.1,0,0,0,.07,0v-.07Z"/><path class="cls-3" d="M166,161.05a.12.12,0,0,0,0-.09.1.1,0,0,0-.15,0h0a.09.09,0,0,0,0,.11l0,0,0,0,0,0H166l0,0,0,0Z"/><path class="cls-3" d="M164,164.36v0l0,0a.12.12,0,0,0-.12,0,.15.15,0,0,0-.1.09v.06l0,0,0,0,0,0h.06c.09,0,.1-.08.12-.14Z"/><path class="cls-3" d="M165,163.31l0,0h-.11l0,0,0,0v.07l.05.06a.13.13,0,0,0,.1,0l0,0a.12.12,0,0,0,.05-.09A.15.15,0,0,0,165,163.31Z"/><path class="cls-3" d="M160,168.46l0,0h0a.08.08,0,0,0-.06,0l0,0v.07h0l0,0h.05l.05,0C160.05,168.53,160,168.48,160,168.46Z"/><path class="cls-3" d="M160.49,165.72l0,0h-.07a.1.1,0,0,0,0,.17l0,0h.07l0,0A.1.1,0,0,0,160.49,165.72Z"/><path class="cls-3" d="M167.28,158.83h0v0l0,0a.15.15,0,0,0-.17,0l0,0v.07l0,0a.09.09,0,0,0,.07,0,.1.1,0,0,0,.09,0l0,0Z"/><path class="cls-3" d="M163.09,164.21v-.05l0,0H163l0,0a.1.1,0,0,0,0,.12l0,0h0c.05,0,.09,0,.12-.06Z"/><path class="cls-3" d="M155.42,163.92a.07.07,0,0,0-.08,0h-.05s-.06.09,0,.17h.1a.11.11,0,0,0,.05-.09A.09.09,0,0,0,155.42,163.92Z"/><path class="cls-3" d="M168.17,160l0,0H168l0,0,0,0v0l0,.05h0l0,0h.08l0,0a.12.12,0,0,0,0-.08A.09.09,0,0,0,168.17,160Z"/><path class="cls-3" d="M167.76,162.07l0,0h0a.19.19,0,0,0-.09,0v.08s0,0,0,0a.09.09,0,0,0,.13,0A.09.09,0,0,0,167.76,162.07Z"/><path class="cls-3" d="M167.29,165.2h.05l0,0v-.08l0,0h-.06a.1.1,0,0,0-.08.05.12.12,0,0,0,0,.1l0,0Z"/><path class="cls-3" d="M161.89,168.26h0a.09.09,0,0,0,0-.11h0v0a.16.16,0,0,0-.11,0,.19.19,0,0,0-.11.07v.08a.08.08,0,0,0,0,.08l0,0h0a.1.1,0,0,0,.12,0v0Z"/><path class="cls-3" d="M164.21,168.94a.1.1,0,0,0,0-.07.11.11,0,0,0,0-.07.26.26,0,0,0-.15,0h0a.19.19,0,0,0-.07.12.15.15,0,0,0,.06.12l0,0h.11A.12.12,0,0,0,164.21,168.94Z"/><path class="cls-3" d="M159.13,165.29a.09.09,0,0,0,.08,0h0l0,0a.11.11,0,0,0,0-.17h-.09l0,0,0,0v.1Z"/><path class="cls-3" d="M162.57,166.57v0l0,0h0s-.07,0-.09,0h-.07l0,0v0h0a.09.09,0,0,0,0,.12h0a.14.14,0,0,0,.15,0,.13.13,0,0,0,.08-.12Z"/><path class="cls-3" d="M165.35,165.46a.11.11,0,0,0,0-.1.17.17,0,0,0,0-.05.1.1,0,0,0-.07,0h-.07l0,0,0,0v.12a.17.17,0,0,0,.21,0l0,0Z"/><path class="cls-3" d="M170,159.33h0l0,0h0s.05,0,.09,0v0l0,0,0,0,0-.05v0l0,0,0,0a.13.13,0,0,0-.19,0A.08.08,0,0,0,170,159.33Z"/><path class="cls-3" d="M163.77,166.23h-.1l0,0h0v.08a.11.11,0,0,0,.14,0,.19.19,0,0,0,0-.07A.11.11,0,0,0,163.77,166.23Z"/><path class="cls-3" d="M158.69,163h.06l.07,0a.09.09,0,0,0,0-.07v-.08l-.06,0h-.11a.12.12,0,0,0-.05.1.21.21,0,0,0,0,.12Z"/><path class="cls-3" d="M161.88,160v0h0v-.05l0,0,0,0h0l0,0,0,0a.11.11,0,0,0-.06,0h0l-.05.05a.09.09,0,0,0,0,.08h0a.08.08,0,0,0,.1.1h.1a.07.07,0,0,0,.06,0Z"/><path class="cls-3" d="M160,162h0v-.06l0,0a.1.1,0,0,0-.1-.1h-.06a.09.09,0,0,0-.07,0l0,0h0l0,0,0,0V162a.28.28,0,0,0,.07.11h.2l0,0A.13.13,0,0,0,160,162Z"/><path class="cls-3" d="M156.91,165.06v0s0,0,0,0a.1.1,0,0,0-.14,0,.09.09,0,0,0,0,.13l0,0h.08l0,0,0,0Z"/><path class="cls-3" d="M163.14,157.56h0l0,0,0,0H163a.1.1,0,0,0-.08.05h0s0,0,0,.08h0v0a.1.1,0,0,0,0,0l0,0,0,0h.09a.23.23,0,0,0,.09-.14Z"/><path class="cls-3" d="M163,159.89a.09.09,0,0,0,0,0l0,0,0,0a.22.22,0,0,0-.15-.06h0l0,0a.22.22,0,0,0,.05.27h.06l0,0s0,0,.05,0l0,0A.09.09,0,0,0,163,159.89Z"/><path class="cls-3" d="M164.8,155.52l0,0,0,0h.1l0,0v-.08l0,0,0,0,0,0h-.05a.15.15,0,0,0-.09.06v.1Z"/><path class="cls-3" d="M161,159.09v0h0a.06.06,0,0,0,0-.07l0-.06,0,0h-.11a.12.12,0,0,0,0,.09v0l0,0h0l0,.07h.09l0,0h0Z"/><path class="cls-3" d="M158.33,166.49a.06.06,0,0,0,0-.06,0,0,0,0,0,0,0,.06.06,0,0,0,0-.06l0,0h0a.13.13,0,0,0-.12.06l0,0v0a.22.22,0,0,0,0,.08.17.17,0,0,0,.14,0l0,0v0Z"/><path class="cls-3" d="M166.68,157.64a.06.06,0,0,0,0,.07l0,0h0s.06,0,.08,0,0,0,0,0a.11.11,0,0,0,0-.16l-.06,0h-.06A.11.11,0,0,0,166.68,157.64Z"/><path class="cls-3" d="M168.18,154.81v-.06l0-.06a.14.14,0,0,0-.11,0,.17.17,0,0,0-.1.07v.08l0,0v.06l0,0h0a.13.13,0,0,0,.16-.08Z"/><path class="cls-3" d="M167.56,156.78h0v.07l0,0a.12.12,0,0,0,.15,0,.07.07,0,0,0,0-.09h0v0l0,0a.13.13,0,0,0-.12-.05h0l0,0,0,0S167.55,156.77,167.56,156.78Z"/><path class="cls-3" d="M158.21,161.45v0s0,0,0-.05l0,0h0a.13.13,0,0,0-.1,0,.14.14,0,0,0,0,.14l0,0h.08a.2.2,0,0,0,.09-.06Z"/><path class="cls-3" d="M163.38,161.65v0s-.05,0-.12,0a.14.14,0,0,0-.05.1v.06a.1.1,0,0,0,.11,0s.07-.05.07-.11Z"/><path class="cls-3" d="M161.63,161.27h.06v-.1l-.05-.05h-.07a.11.11,0,0,0-.08.11.1.1,0,0,0,0,.12h0l0,0h0a.14.14,0,0,0,.08-.09Z"/><path class="cls-3" d="M163.22,162.19h0l0-.06h0l0,0h0a.2.2,0,0,0-.12.1v0s0,0,0,0v.07h0l0,0v0a.13.13,0,0,0,.14,0h.06l0,0A.14.14,0,0,0,163.22,162.19Z"/><path class="cls-3" d="M160.5,163.49a.08.08,0,0,0-.1,0,.13.13,0,0,0,0,.14l0,0h0l0,0C160.55,163.54,160.52,163.5,160.5,163.49Z"/><path class="cls-3" d="M161.72,163.27v-.05l0-.06a.1.1,0,0,0-.1,0l0,0a.09.09,0,0,0-.06.06v.06a.09.09,0,0,0,0,.07h.11l0,0,0,0Z"/><path class="cls-3" d="M165.35,158.41l0,0h0l0,0,.05,0h.06l0,0a.09.09,0,0,0,.07,0,.13.13,0,0,0,0-.06.08.08,0,0,0,0-.1h0l0,0a.11.11,0,0,0-.09,0h0l0,0h0a.22.22,0,0,0-.07.12Z"/><path class="cls-3" d="M161.5,163v-.07l0,0a.09.09,0,0,0,0-.06h-.11s0,0-.07.07V163l0,0,0,.06a.14.14,0,0,0,.11,0l0,0v0h0Z"/></g></svg>