<svg xmlns="http://www.w3.org/2000/svg" viewBox="0 0 191 153"><defs><style>.cls-1{fill:#fff;}.cls-2{fill:#9adbf3;}.cls-3{fill:#626768;}</style></defs><title>kombucha</title><g id="Layer_2" data-name="Layer 2"><path class="cls-1" d="M154.9,18.54C101.43,10.69,54.4,10.79.38,9.43c8.78,7,10.66,9.18,19.44,16.13,2.87,2.27,5.79,4.6,7.75,7.68,2.73,4.29,3.32,9.56,3.65,14.63A205,205,0,0,1,28,99.8c-2.87,14.92-5.81,34.18,11.11,39.91A26,26,0,0,0,47.35,141l96.2.42a4.25,4.25,0,0,0,5.16-4.16q3.69-14.88,7.37-29.77c1.91-7.73,3.83-15.57,3.68-23.53-.15-7.54-2.17-15-1.67-22.55,1-15,11.83-29.7,7.06-44l-14.68.44,11.28,2.5"/><path class="cls-1" d="M163.5,47.34c8.72-1.61,19.8-2.36,22.93,7.81a15.75,15.75,0,0,1-.36,9.9l-14.63,40.87a14.77,14.77,0,0,1-2.52,5c-2.92,3.28-7.95,3.29-12.33,3-1.87-.1-4.17-.52-4.74-2.3a4,4,0,0,1,.09-2.23,13.49,13.49,0,0,1,9.05-9.27c2.73-.8,5.78-.74,8.17-2.28a12.7,12.7,0,0,0,4-4.86,60.33,60.33,0,0,0,7.18-25.3,10.27,10.27,0,0,0-2-6.88c-4.48-5.85-12.14-.53-17.4-3.61l-.56-7a5,5,0,0,1,.6-3.52c.76-1,2.64-1,2.94.22"/><path class="cls-2" d="M42.26,33.79q52-1.4,104,0a712.6,712.6,0,0,1-5.42,84.75c-.5,4-1.49,8.65-5.15,10.34a12.2,12.2,0,0,1-5.11.74l-85.59,0a10.33,10.33,0,0,1-5.26-1c-3.72-2.19-3.21-7.63-2.26-11.85,6.15-27.48,9.74-56.3,3.08-83.66"/><path class="cls-2" d="M42.26,36.29q52-1.36,104,0l-2.5-2.5c-.11,18.78-.9,37.54-2.47,56.25-.77,9.29-1.62,18.62-2.88,27.86a24,24,0,0,1-1.13,5.37c-1.28,3.3-4.56,3.83-7.69,3.84-5,0-10,0-14.93,0l-55.74,0c-4.61,0-9.33.28-13.93,0-3.13-.2-5-.69-5.61-4-.42-2.15.25-4.47.7-6.57,1.81-8.41,3.45-16.84,4.61-25.37C47.34,71.63,47.49,51.8,43,32.5c-.74-3.13-5.56-1.81-4.82,1.33,4.93,21,4.06,42.68.56,63.84-.82,5-1.78,9.9-2.84,14.82-.76,3.57-1.88,7.32-1.51,11,.78,7.85,7,8.6,13.62,8.61l64.7,0c5.31,0,10.62,0,15.92,0,3.73,0,7.55.12,10.46-2.56,5.5-5.06,4.93-16,5.65-22.79a723,723,0,0,0,4.06-73,2.54,2.54,0,0,0-2.5-2.5q-52-1.41-104,0c-3.21.09-3.22,5.09,0,5Z"/><path class="cls-3" d="M48.31,42.71l23.87-.51c.57,0,3.25-1.12,1.9-1.1l-23.87.51c-.57,0-3.25,1.13-1.9,1.1Z"/><path class="cls-3" d="M50,63.38a162.35,162.35,0,0,0,20.79-1.46c1.34-.18,2.46-1.74.44-1.46a156.52,156.52,0,0,1-20.06,1.41c-1,0-3.11,1.52-1.17,1.51Z"/><path class="cls-3" d="M49.54,83.83l20.22-.45c1,0,3.11-1.53,1.17-1.48l-20.22.44c-1,0-3.11,1.53-1.17,1.49Z"/><path class="cls-3" d="M44,106.85a221.33,221.33,0,0,1,22.75-.19c.59,0,3.28-1.07,1.89-1.13a224.91,224.91,0,0,0-23.37.23c-.73,0-3.16,1.21-1.27,1.09Z"/><path class="cls-3" d="M41.81,122.89l21.3-1.26c.88-.06,3.12-1.47,1.2-1.36L43,121.53c-.88.06-3.12,1.47-1.2,1.36Z"/></g></svg>