<svg xmlns="http://www.w3.org/2000/svg" viewBox="0 0 243 198"><defs><style>.cls-1{fill:#fff;}.cls-2{fill:#8d5c25;}.cls-3{fill:#4e514d;}.cls-4{fill:#feda2c;}</style></defs><title>kombucha</title><g id="Layer_2" data-name="Layer 2"><path class="cls-1" d="M106.53,134c2.93,5.24,12.9,33.14,18.79,50.74.5,1.48,1.11,3.11,2.49,3.85s3.36.25,5-.33c19.13-6.94,30.26-15,46.69-27,1.49-1.1,3.09-2.39,3.38-4.22.42-2.61-1.93-4.72-3.84-6.54-7.7-7.36-23.21-33.89-27.2-39.94a127.34,127.34,0,0,0-16.71-6.29c-.36-.1-7.69,3.9-8,4.07-5.94,3-5.87,3-11.89,6.21a25.07,25.07,0,0,0-2.81,1.57C110.76,119.76,108.1,131.68,106.53,134Z"/><path class="cls-2" d="M155.58,130.67c5.09,1.36,8.46,5.51,11.52,9.45l9.08,11.71a7.22,7.22,0,0,1,1.89,3.85c.14,2.77-2.64,5.07-5.15,6.8a276.06,276.06,0,0,1-39.71,22.74c-1.33.62-2.87,1.25-4.15.76a4.15,4.15,0,0,1-2-2.2c-4.13-8.14-5.56-17.4-6.93-26.53a9.85,9.85,0,0,1,0-4.42c.57-1.85,2.11-3.36,3.63-4.72A100.89,100.89,0,0,1,143.3,134.4c5.07-2.73,11.45-5,16-2.37"/><path class="cls-3" d="M127.13,111.7c-8.9-13.49-27.68-8.22-37.49,1.22-5.67,5.46-9.56,13-9.4,21,.22,10.83,6.53,21.94,10.57,31.75.35.84,3.2-.06,2.9-.78-5.12-12.41-14.11-27.42-8.86-41.06,5.57-14.44,28.42-27.95,39.38-11.35.55.83,3.25-.24,2.9-.77Z"/><path class="cls-4" d="M97.47,163.45a72.17,72.17,0,0,0-14.55,6.72q3.36,6.74,6.13,13.74c5.78-2.53,11.45-5.34,17-8.42a.8.8,0,0,0,.39-1.28l-4-8.59c-.69-1.5-1.81-3.24-3.44-3.05a2.18,2.18,0,0,0-1.78,1.67"/><path class="cls-1" d="M33.85,44.65c2.92,5.24,12.89,33.14,18.79,50.74.5,1.48,1.11,3.11,2.49,3.84s3.36.26,5-.32c19.14-6.94,30.26-15,46.69-27,1.5-1.1,3.09-2.39,3.39-4.22.42-2.61-1.94-4.72-3.85-6.54-7.69-7.36-23.21-33.89-27.2-39.94a127.34,127.34,0,0,0-16.71-6.29c-.36-.11-7.69,3.9-8,4.07-6,3-5.87,3-11.89,6.21a22.12,22.12,0,0,0-2.81,1.57C38.07,30.4,35.42,42.32,33.85,44.65Z"/><path class="cls-2" d="M82.89,41.31c5.1,1.36,8.47,5.51,11.52,9.45l9.08,11.71a7.15,7.15,0,0,1,1.89,3.85c.14,2.77-2.63,5.07-5.14,6.8A276.6,276.6,0,0,1,60.53,95.86c-1.33.62-2.87,1.25-4.15.76a4.11,4.11,0,0,1-2-2.2c-4.14-8.14-5.56-17.4-6.94-26.53a9.85,9.85,0,0,1,0-4.42c.57-1.85,2.11-3.36,3.63-4.72A101.14,101.14,0,0,1,70.62,45c5.06-2.73,11.45-5,16-2.36"/><path class="cls-3" d="M54.45,22.34C45.54,8.85,26.77,14.12,17,23.56c-5.68,5.46-9.57,13-9.4,21,.22,10.83,6.52,21.94,10.57,31.75.35.84,3.19-.06,2.9-.78C15.91,63.11,6.91,48.1,12.17,34.46,17.73,20,40.59,6.51,51.55,23.11c.54.82,3.25-.24,2.9-.77Z"/><path class="cls-4" d="M24.79,74.09a72,72,0,0,0-14.56,6.72q3.36,6.73,6.13,13.74,8.68-3.8,17-8.42a1.1,1.1,0,0,0,.53-.49,1.12,1.12,0,0,0-.14-.79l-4-8.6c-.68-1.49-1.8-3.23-3.43-3a2.15,2.15,0,0,0-1.78,1.67"/><path class="cls-1" d="M155.13,37.69c2.93,5.24,12.9,33.14,18.79,50.74.5,1.48,1.11,3.1,2.49,3.84s3.36.26,5-.33c19.14-6.93,30.26-15,46.69-27,1.49-1.09,3.09-2.39,3.38-4.21.42-2.61-1.93-4.72-3.84-6.55-7.7-7.35-23.21-33.89-27.2-39.93A127.34,127.34,0,0,0,183.7,8c-.36-.11-7.69,3.89-8,4.07-5.95,3-5.88,3-11.9,6.2A25.16,25.16,0,0,0,161,19.82C159.36,23.44,156.7,35.36,155.13,37.69Z"/><path class="cls-2" d="M204.18,34.35c5.09,1.36,8.46,5.51,11.52,9.45l9.08,11.71a7.22,7.22,0,0,1,1.89,3.85c.14,2.77-2.64,5.07-5.15,6.8A276.06,276.06,0,0,1,181.81,88.9c-1.33.62-2.87,1.24-4.15.75a4.09,4.09,0,0,1-2-2.19c-4.13-8.14-5.56-17.4-6.93-26.53a9.85,9.85,0,0,1,0-4.42c.57-1.85,2.11-3.36,3.63-4.72A101.38,101.38,0,0,1,191.9,38.07c5.07-2.73,11.45-5,16-2.36"/><path class="cls-3" d="M175.73,15.37c-8.9-13.48-27.68-8.21-37.49,1.23-5.67,5.46-9.56,13-9.4,21,.22,10.83,6.53,21.94,10.57,31.74.35.85,3.2,0,2.9-.77-5.12-12.41-14.11-27.42-8.86-41.06C139,13.06,161.87-.45,172.83,16.15c.55.82,3.25-.24,2.9-.78Z"/><path class="cls-4" d="M146.07,67.13a71.62,71.62,0,0,0-14.55,6.72q3.36,6.74,6.13,13.74c5.78-2.53,11.45-5.34,17-8.42a.8.8,0,0,0,.39-1.28l-4-8.6c-.69-1.49-1.81-3.23-3.44-3a2.16,2.16,0,0,0-1.78,1.67"/></g></svg>