<svg xmlns="http://www.w3.org/2000/svg" viewBox="0 0 242.99 210.96"><defs><style>.cls-1{fill:#fff;}.cls-2{fill:#efa02f;}</style></defs><title>kombucha</title><g id="Layer_2" data-name="Layer 2"><path class="cls-1" d="M63.07,33.86A308.2,308.2,0,0,0,66.89,82c1.83,11.53,2,51.64,1.55,60.15-.75,15.32,2.89,30.48,6.51,45.39.62,2.56,1.32,5.26,3.18,7.12s4.28,2.48,6.69,3.06a115.63,115.63,0,0,0,64.93-3.38,20.9,20.9,0,0,0,7.09-3.7c2.7-2.41,4.08-5.93,5.38-9.31,9.56-25,20.12-108.4,24.46-123.16,3.58-12.2,11.19-25,6.08-36.68C188,10.59,174.5,7,162.74,5.07,131.69,0,97.36-2.13,71.27,15.44c-3.6,2.43-7.08,5.33-8.89,9.27s-1.5,9.12,1.72,12"/><path class="cls-2" d="M76,49.55c3.65,23.63,7.31,47.32,8.2,71.21.67,17.82-.17,36,4.7,53.15A10.91,10.91,0,0,0,91,178.44c1.39,1.52,3.46,2.19,5.45,2.73a94.63,94.63,0,0,0,50.15-.18,18.21,18.21,0,0,0,7.16-3.31c3.76-3.25,4.56-8.68,5.11-13.61q6.26-55.38,12.49-110.76c.27-2.41.48-5.07-.92-7.05s-4.24-2.72-6.75-3.17a308.28,308.28,0,0,0-62.82-4.6c-10.42.31-23.19,2.91-26.18,12.9"/></g></svg>