<svg xmlns="http://www.w3.org/2000/svg" viewBox="0 0 1440 900"><defs><style>.cls-1{fill:#273956;}.cls-2{fill:#fff;}.cls-3{fill:none;}.cls-4{fill:#465777;}.cls-5{fill:#efa02f;}.cls-6{fill:#f8d7a5;}</style></defs><title>kombucha</title><g id="Layer_1" data-name="Layer 1"><rect class="cls-1" width="1440" height="900"/></g><g id="Layer_2" data-name="Layer 2"><path class="cls-2" d="M978.4,392.94c-18.91-1.26-35.72-2-54.49.65-4.67.65-9.53,1.51-13.29,4.36s-6,8.32-3.66,12.44c1.26,2.27,3.57,3.7,5.55,5.38,9.1,7.72,11.06,22.57,4.27,32.39-12.48,18-42.6,12.85-57.85,28.62-6.72,6.94-9.31,16.78-11.65,26.15-4.86,19.45-9.74,38.93-12.59,58.78-2.32,16.17-2.87,34.09,6.81,47.25,5.13,7,12.65,11.82,20.52,15.36,12.62,5.69,26.36,8.33,40,10.51,31.21,5,37.92,5.78,69.52,6.22,14.86.2,30.21-.19,43.78-6.28,16.28-7.3,28.23-22.19,35.46-38.5s10.27-34.14,12.92-51.79c1.93-12.8,3.35-27.1-4.3-37.54-11.79-16.11-14.63-13.29-23.87-31-3-5.82-3.37-12.62-3.65-19.18-.31-7.37.2-16.29,6.64-19.88,4.33-2.42,10.68-1.88,13.17-6.17,3.11-5.35-5.77-18.42-11.28-21.24-22-11.24-35.77-11.83-62-16.54"/><rect class="cls-3" x="942.14" y="615.27" width="55.13" height="52.54" transform="translate(145.77 1461.93) rotate(-78.36)"/><path class="cls-4" d="M953.6,646.65l-.06,0,0,.05a.33.33,0,0,0,0,.4l0,0,.09.09a.34.34,0,0,0,.31,0,.41.41,0,0,0,.19-.24.3.3,0,0,0-.11-.29l-.14,0a.33.33,0,0,0-.21-.06Z"/><path class="cls-4" d="M963.55,643.82l0-.06,0-.06a.51.51,0,0,0-.22-.5l-.15,0-.13.05-.11.15,0,.13,0,0,0,.09,0,.14.12.14a.5.5,0,0,0,.41,0Z"/><path class="cls-4" d="M970.3,644.81l0,.1,0,.13.07.09.11.07a.55.55,0,0,0,.35-.08L971,645l0-.13v-.16a.35.35,0,0,0-.46-.12h-.08l-.1.06Z"/><path class="cls-4" d="M963.71,665.55a.31.31,0,0,0,.18.35l.15.05.14,0,.12-.13h0a.3.3,0,0,0-.13-.33l-.15-.08h-.15Z"/><path class="cls-4" d="M977.33,633.44a.35.35,0,0,0-.26-.1l-.12,0-.08.08,0,0-.05.11,0,.1,0,.12a.28.28,0,0,0,.34.12h.09l.11-.07.07-.13A.44.44,0,0,0,977.33,633.44Z"/><path class="cls-4" d="M972.35,645v0a.55.55,0,0,0-.23-.41l-.15,0-.13,0-.13.11-.1,0-.07.05-.07.08a.44.44,0,0,0,0,.1v0a.31.31,0,0,0-.1.19h0v.07a.54.54,0,0,0-.08.17.27.27,0,0,0,.09.27l.11,0a.31.31,0,0,0,.27.1l.1,0,.07-.08.05-.1a.41.41,0,0,1,0-.15H972l.12-.09,0-.06a.44.44,0,0,0,.16-.2Z"/><path class="cls-4" d="M957.29,656l0,.09a.32.32,0,0,0,.12.33h0a.36.36,0,0,0,.29.14l.1,0,.09,0,.06-.1v0a.28.28,0,0,0-.06-.25.46.46,0,0,0-.07-.07.33.33,0,0,0-.33-.18l-.11,0Z"/><path class="cls-4" d="M985.45,662l0,0,0,.07a.29.29,0,0,0,.17.34l.11.06h.12l.12,0a.45.45,0,0,0,.11-.19.36.36,0,0,0-.13-.34.35.35,0,0,0-.37,0Z"/><path class="cls-4" d="M949.83,655.68a.45.45,0,0,0-.09.1v.11l0,.13a.34.34,0,0,0,.36.25l.1,0,.07-.07.07-.11a.47.47,0,0,0,.08-.19.34.34,0,0,0,0-.2l-.19-.11h0v0a.31.31,0,0,0-.27,0A.24.24,0,0,0,949.83,655.68Z"/><path class="cls-4" d="M977.3,662.83l0,.13,0,.11h0a.35.35,0,0,0,.38.26l.13-.08.09-.17V663a.35.35,0,0,0,0-.18.33.33,0,0,0,0-.15l-.07-.07-.07,0-.09,0A.44.44,0,0,0,977.3,662.83Z"/><path class="cls-4" d="M980.91,664.33a.32.32,0,0,0-.17.08.34.34,0,0,0-.09.12.26.26,0,0,0-.13.18v.07l0,.09,0,0,.07.08a.32.32,0,0,0,.22.18.43.43,0,0,0,.35,0,.49.49,0,0,0,.23-.33.45.45,0,0,0-.29-.52H981Z"/><path class="cls-4" d="M969.79,661.57v0l0-.12-.06-.09-.1-.06h-.07l-.11,0-.11.06a.27.27,0,0,0-.09.11v.17l0,.07,0,0a.27.27,0,0,0,.25.18.26.26,0,0,0,.24-.18v0A.3.3,0,0,0,969.79,661.57Z"/><path class="cls-4" d="M962.51,650.65h0a.6.6,0,0,0,0-.19.28.28,0,0,0-.1-.15h0a.28.28,0,0,0-.16-.32h-.14l-.06,0a.4.4,0,0,0-.13,0l0,0-.14,0-.15.13.16.06h-.19l-.08.17,0,.17a.37.37,0,0,0,.11.29l0,0,.12.06a.34.34,0,0,0,.19.07l.17.05.14-.05a.25.25,0,0,0,.26-.2A.24.24,0,0,0,962.51,650.65Z"/><path class="cls-4" d="M958.33,660a.35.35,0,0,0,0-.18l0-.09-.05-.07-.07-.06a.36.36,0,0,0-.48.12l-.06.1,0,.1,0,.11a.32.32,0,0,0,.11.12l0,0,.12.09A.34.34,0,0,0,958.33,660Z"/><path class="cls-4" d="M971,650.25l0,0a.26.26,0,0,0-.17.12h0l-.08,0,0,.06-.05.1a.35.35,0,0,0,0,.21v.13l.05.11a.58.58,0,0,0,.81,0l.07-.17v0a.41.41,0,0,0,0-.1v-.11a.26.26,0,0,0-.09-.14l-.08-.14a.43.43,0,0,0-.29-.13Z"/><path class="cls-4" d="M944,645.7l-.07.06a.35.35,0,0,0-.26.23l0,.14,0,.1,0,.09.07,0-.07,0,.06.09.13.07a.1.1,0,0,1-.08,0,.38.38,0,0,0,.38.2h.06a.86.86,0,0,0,.36-.29l0-.1v-.1a.35.35,0,0,0,0-.06l0-.13-.06-.09-.12-.07-.12,0-.15-.08Z"/><path class="cls-4" d="M993,656.58l-.09.07a.55.55,0,0,0-.11.2.3.3,0,0,0,0,.21.34.34,0,0,0,.23.14l.13,0,.09-.06.07-.1,0-.17,0-.12-.06-.1-.14-.07h-.09Z"/><path class="cls-4" d="M979.71,654l0,.13.07.09.11.07,0,0a.39.39,0,0,0,.33.13l.08,0a.29.29,0,0,0,.16-.2.41.41,0,0,0-.05-.25h0l0-.12-.16-.13A.42.42,0,0,0,979.71,654Z"/><path class="cls-4" d="M983.83,650.36l0,.12v.11l.06.12a.47.47,0,0,0,.51.11l0-.05h0a.38.38,0,0,0,.23-.26v0l0-.13-.06-.07a.3.3,0,0,0-.21-.18h-.08A.73.73,0,0,0,983.83,650.36Z"/><path class="cls-4" d="M973.79,651l-.06,0v.06a.27.27,0,0,0-.07.14v.12l0,.07,0,.06.09,0a.41.41,0,0,0,.36.06.3.3,0,0,0,.19-.19v-.08l0-.08,0-.09a.39.39,0,0,0-.24-.27.32.32,0,0,0-.28.07Z"/><path class="cls-4" d="M975.45,658.55l-.08.07,0,.09,0,.09a.45.45,0,0,0,.09.38l.09.05a.4.4,0,0,0,.47-.1l0-.11v-.11l0-.09a.37.37,0,0,0-.41-.31Z"/><path class="cls-4" d="M966.09,653.34l0,0a.32.32,0,0,0-.14.14v.15l0,.08,0,.06v0l.06.11.12.08c.23,0,.35-.08.37-.21h0a.24.24,0,0,0,.09-.16v0l-.08-.16-.14-.08a.25.25,0,0,0-.26-.07Z"/><path class="cls-4" d="M957.43,652.06a.27.27,0,0,0-.48,0v.15l0,.12.06,0-.06.05a.32.32,0,0,0,.23.21.3.3,0,0,0,.28-.11l0-.16,0-.13Z"/><path class="cls-4" d="M948.91,664.79l-.12.13,0,.17,0,.15.11.1a.37.37,0,0,0,.23.11l.1,0,.08,0,.06-.08,0-.06a.28.28,0,0,0,0-.16h0l0-.08-.06-.12-.13-.09v0l-.12,0Z"/><path class="cls-4" d="M977,669.14a.34.34,0,0,0-.2.22v.1l0,.08.06.1a.57.57,0,0,0,.17.19h.15l.12,0,.1-.12v-.07c.09-.41-.13-.52-.26-.55l-.15,0Z"/><path class="cls-4" d="M967.93,614a.19.19,0,0,0,0-.08l0-.11,0-.08-.09-.06a.33.33,0,0,0-.28,0,.39.39,0,0,0-.17.29h0l0,.1,0,.08.06.06a.32.32,0,0,0,.31,0A.34.34,0,0,0,967.93,614Z"/><path class="cls-4" d="M970.77,625.89l0,.09,0,.07,0,.12.06.11a.89.89,0,0,0,.12.09h.17l.11-.08.07-.11a.4.4,0,0,0-.06-.28.33.33,0,0,0-.23-.1l-.11,0Z"/><path class="cls-4" d="M965.88,625.48a.38.38,0,0,0-.17.28.32.32,0,0,0,.23.41h0a.3.3,0,0,0,.33-.11l0-.09a.32.32,0,0,0,0-.14v-.12l-.1-.15-.1-.07-.08,0H966Z"/><path class="cls-4" d="M978.07,625.61l-.05,0,0,.07,0,.08a.42.42,0,0,0,.09.37.49.49,0,0,0,.42.13l.09,0,.07-.06.07-.12a.5.5,0,0,0,.09-.18v-.1l0-.08-.06-.08a.51.51,0,0,0-.58-.07Z"/><path class="cls-4" d="M973.57,624.48s0,.06,0,.09l0,.12.06.09.1.06.17,0,.11,0,.08,0,.09-.09a.51.51,0,0,0,.08-.21.34.34,0,0,0-.09-.33l-.08-.05a.38.38,0,0,0-.33,0A.43.43,0,0,0,973.57,624.48Z"/><path class="cls-4" d="M995.53,629.8v.13l.07.15a.38.38,0,0,0,.13.13h.16l.11-.07.06-.07-.11-.12.12.12,0-.18-.05-.13-.16-.11A.28.28,0,0,0,995.53,629.8Z"/><path class="cls-4" d="M987.32,632.89V633l0,.09.09.08a.42.42,0,0,0,.32,0,.39.39,0,0,0,.16-.24v-.07l0-.12-.07-.08-.11-.06A.36.36,0,0,0,987.32,632.89Z"/><path class="cls-4" d="M957.81,625.55l0,.09-.06-.08-.09.07-.08.12a.43.43,0,0,0,.3.45H958l.1,0,.09-.08,0-.09a.29.29,0,0,0,0-.22.32.32,0,0,0-.17-.25h-.12Z"/><path class="cls-4" d="M979.09,628.28l-.06.06,0,.09,0,.1,0,.13.07.1.13.07a.31.31,0,0,0,.37-.16v-.11l0-.11a.3.3,0,0,0-.36-.21Z"/><path class="cls-4" d="M990.57,649.5a.36.36,0,0,0,0,.27l.09.07,0,0c.13,0,.34,0,.43-.32l0-.08,0,0,0-.09-.08-.08a.34.34,0,0,0-.31,0A.36.36,0,0,0,990.57,649.5Z"/><path class="cls-4" d="M959.51,621.29a.91.91,0,0,0,0,.17l0,.09.06.07.09,0,.1,0,.11,0,.09,0,.09-.14s0,0,0-.06,0,0,0-.07v-.07l0-.1-.05-.08L960,621a.39.39,0,0,0-.3,0A.32.32,0,0,0,959.51,621.29Z"/><path class="cls-4" d="M965.82,619.07l0,.15,0,.08a.34.34,0,0,0,.23.19h.08l.08,0,.07-.05a.3.3,0,0,0-.15-.51A.3.3,0,0,0,965.82,619.07Z"/><path class="cls-4" d="M975,615.3l-.12-.11-.17,0-.12,0-.1.06-.07.14v.12l0,.06a.34.34,0,0,0,.26.16.36.36,0,0,0,.31-.13l0-.16Z"/><path class="cls-4" d="M992,625l0,0v0a.28.28,0,0,0-.29.18h0l0,.06,0,.06a.43.43,0,0,0,.06.36.5.5,0,0,0,.38.19l.13,0,.08-.07a.27.27,0,0,0,.16-.2.48.48,0,0,0,0-.12h0s0,0,0,0a.28.28,0,0,0-.17-.31h-.1Z"/><path class="cls-4" d="M990.1,617.67a.26.26,0,0,0-.15.16.34.34,0,0,0-.14.21.65.65,0,0,0,.13.45l0,.06.07.05a.54.54,0,0,0,.45,0,.51.51,0,0,0,.23-.36s0-.08,0-.12l0-.1,0-.08-.07-.06-.06,0A.36.36,0,0,0,990.1,617.67Z"/><path class="cls-4" d="M988.37,637.27a.48.48,0,0,0,0-.29l-.05-.06-.06,0-.07,0c-.37-.07-.45.15-.47.25v.08l.05.12.08.08.09,0a.33.33,0,0,0,.17.08l.11,0,.09-.05.08-.08S988.36,637.29,988.37,637.27Z"/><path class="cls-4" d="M986.32,625.9l0,.06,0,.08h0a.33.33,0,0,0,0,.28.31.31,0,0,0,.08.12l.08,0,.09,0,.06,0h0a.31.31,0,0,0,.36-.16v-.05a.42.42,0,0,0-.16-.45.39.39,0,0,0-.45,0Z"/><path class="cls-4" d="M978.85,620.18a.26.26,0,0,0-.24.17.28.28,0,0,0-.09.16.25.25,0,0,0,.05.22l0,0,0,0,.1.05a.48.48,0,0,0,.19.09h.11l.1,0,.07,0,.06-.06.05-.09a.52.52,0,0,0-.29-.57h-.16Z"/><path class="cls-4" d="M954.84,617.42h0a.23.23,0,0,0,.07-.15h0l0,0,0-.06a.28.28,0,0,0-.12-.27l-.06,0-.1,0h-.32l-.12.07-.07.09,0,.17c0,.29.17.44.43.45A.28.28,0,0,0,954.84,617.42Z"/><path class="cls-4" d="M983.48,623.2l.14.2h.06v0l.13,0h.09l.19-.13a.29.29,0,0,0-.23-.37.33.33,0,0,0-.25,0A.34.34,0,0,0,983.48,623.2Z"/><path class="cls-4" d="M982.92,642.08l-.1-.1h0a.45.45,0,0,0-.25-.11.26.26,0,0,0-.2.07l-.12.06-.08.11a.38.38,0,0,0,0,.2h0l0,.07h0v0l0,.1.09.09a.42.42,0,0,0,.38,0,.48.48,0,0,0,.24-.3A.32.32,0,0,0,982.92,642.08Z"/><path class="cls-4" d="M969.52,638.35l0,0h0l-.07.05,0,.06,0,.07a.25.25,0,0,0,0,.08h0l0,.11v.13a.3.3,0,0,0,.15.13l.05.06.22,0a.35.35,0,0,0,.26-.09h0a.26.26,0,0,0,.09-.44l0-.06-.07-.07-.06-.07,0,0a.26.26,0,0,0-.21-.09Z"/><path class="cls-4" d="M978,640.2h0l-.09.07,0,.1a.36.36,0,0,0-.16.21.3.3,0,0,0,0,.21h0l.06.14.05,0a.46.46,0,0,0,.15.16l.14,0,0,0,.12,0h.11l.1,0,.12-.1a.92.92,0,0,0,.18-.36v-.07l0-.09,0-.08-.07-.07-.07,0a.93.93,0,0,0-.05-.1h0l0,0-.06-.08-.09,0A.42.42,0,0,0,978,640.2Z"/><path class="cls-4" d="M991.28,643.65l-.1.08a.21.21,0,0,0,0,.11.33.33,0,0,0,.22.39.32.32,0,0,0,.38-.2v-.11l0-.1-.1-.11-.1-.07-.12,0Z"/><path class="cls-4" d="M961,638.8v.06h0a.69.69,0,0,1,0,.08l0,.14v.11l.1.14a.44.44,0,0,0,.26.13h0a.24.24,0,0,0,.24-.07h.05l.08-.06a.51.51,0,0,0,.09-.18V639a.31.31,0,0,1,0-.09v-.1l0-.09-.07-.07a.66.66,0,0,0-.52,0Z"/><path class="cls-4" d="M967.55,635.47a.18.18,0,0,0-.1.11.24.24,0,0,0-.1.1.88.88,0,0,0-.05.15.75.75,0,0,0,.08.49l.06,0,.06,0,.08,0a.63.63,0,0,0,.64-.56v-.14l0-.06a.35.35,0,0,0-.11-.1.26.26,0,0,0-.15-.12h-.1A.32.32,0,0,0,967.55,635.47Z"/><path class="cls-4" d="M952.82,637.55a.3.3,0,0,0,0-.1.32.32,0,0,0,0-.14l0-.1-.07-.08-.09,0-.17,0-.12,0-.1.07-.07.1,0,.14v.07l0,.07,0,.07a.47.47,0,0,0,.33.15l.1,0,.07,0Z"/><path class="cls-4" d="M968.63,642.22l-.11.06h0a.32.32,0,0,0-.19.11.48.48,0,0,0-.09.19.53.53,0,0,0,0,.13.2.2,0,0,1,0,.07l0,.11,0,.08.08.07a.4.4,0,0,0,.32,0l.13-.08.07-.1v-.06a.4.4,0,0,0,.11-.21v-.08l0-.11-.07-.08-.12-.07v0Z"/><path class="cls-4" d="M992.89,637.5a.3.3,0,0,0-.19.07.22.22,0,0,0-.07.09.28.28,0,0,0-.12.16.3.3,0,0,0,0,.16l0,.07,0,.05a.42.42,0,0,0,.35.23H993l.07,0,.07-.06a.88.88,0,0,0,.12-.26.45.45,0,0,0-.16-.44l-.15,0-.07,0Z"/><path class="cls-4" d="M955.56,629.07a.25.25,0,0,0,.17-.16l0-.14,0,0a.35.35,0,0,0-.1-.23.27.27,0,0,0-.17-.06.38.38,0,0,0-.43.3.5.5,0,0,0,0,.21l0,.07,0,.05,0,0A.36.36,0,0,0,955.56,629.07Z"/><path class="cls-4" d="M945.49,629.57l-.07,0-.06.07a1.55,1.55,0,0,0-.08.23.45.45,0,0,0,.07.36.43.43,0,0,0,.34.16l.12,0,.09-.07.05-.09,0,0,.06-.1,0-.11,0-.15a.44.44,0,0,0-.46-.31Z"/><path class="cls-4" d="M951.83,628.08h0l.08,0L952,628a.49.49,0,0,0,0-.11.45.45,0,0,0-.2-.46.26.26,0,0,0-.32.05v0l-.06,0-.08.12a.5.5,0,0,0,.07.4l.07.05.07,0h.09A.21.21,0,0,0,951.83,628.08Z"/><path class="cls-4" d="M979.42,645.9l-.08,0-.05.06a.31.31,0,0,0-.09.16v.12l0,.06a.35.35,0,0,0,.28.22.45.45,0,0,0,.38-.19l0-.13,0-.12-.09-.12a.41.41,0,0,0-.29-.13Z"/><path class="cls-4" d="M971.69,631.58l0,.06,0,.06c0,.08,0,.2.19.31s.33,0,.36,0l.05,0,0-.05,0-.07a.25.25,0,0,0-.16-.29.59.59,0,0,0-.4,0Z"/><path class="cls-4" d="M973.48,636.93l-.08-.16-.11,0-.09.06-.06.1,0,.21v.07l0,.07,0,.07a.31.31,0,0,0,.42,0,.27.27,0,0,0,.3-.21.25.25,0,0,0,0-.12V637l-.06-.12a.43.43,0,0,0-.35-.08Z"/><path class="cls-4" d="M973.41,631.16h0a.68.68,0,0,0-.08.19v.18l0,.09,0,.06a.63.63,0,0,0,.47.17l.09,0a.27.27,0,0,0,.08-.07l.1-.06.05-.06,0-.06a.2.2,0,0,0,0-.11l0-.05a.42.42,0,0,0-.14-.41l0-.09-.07-.06-.09,0A.45.45,0,0,0,973.41,631.16Z"/><path class="cls-4" d="M981.27,636.43a.26.26,0,0,0,.16.29.33.33,0,0,0,.41-.15v-.17l-.07-.13-.15-.08C981.35,636.2,981.28,636.36,981.27,636.43Z"/><path class="cls-4" d="M978.73,633.48l-.11.11a.45.45,0,0,0-.09.21.26.26,0,0,0,.11.3l.09,0a.32.32,0,0,0,.28,0l.06,0,.09-.08a.36.36,0,0,0,.12-.21v0l0-.14-.08-.09-.09-.05a.59.59,0,0,0-.11-.09h-.14Z"/><path class="cls-4" d="M959.77,631.44l0-.09v-.05a.31.31,0,0,0,.06-.14.48.48,0,0,0,0-.17l0-.09-.06-.07-.11-.07a.41.41,0,0,0-.23-.1.6.6,0,0,0-.41.25v.1a.45.45,0,0,0,0,.11.31.31,0,0,0,.08.31l.06,0,.06,0,.07,0a.5.5,0,0,0,.42,0Z"/><path class="cls-4" d="M978.31,634.56l-.11.06-.07.08,0,.1a.33.33,0,0,0-.09.17v.11l0,.09.11.1a.45.45,0,0,0,.32.09l.08,0,.07-.05.09-.11a.93.93,0,0,0,.09-.2.36.36,0,0,0-.12-.35l-.16,0,0,0v0A.36.36,0,0,0,978.31,634.56Z"/><rect class="cls-3" x="968.35" y="609.79" width="51.45" height="53.98" transform="translate(4.41 1280.4) rotate(-65.68)"/><path class="cls-4" d="M992.66,620.29l0-.06,0-.06a.34.34,0,0,0-.11-.07.26.26,0,0,0-.28,0h-.05l-.11.06a.38.38,0,0,0,0,.3.37.37,0,0,0,.19.23.32.32,0,0,0,.31,0l.06-.13a.23.23,0,0,0,.1-.18Z"/><path class="cls-4" d="M993.22,630.41l0,0,.05,0a.5.5,0,0,0,.53-.1l0-.14v-.13l-.12-.14-.13-.06,0,0-.07-.07h-.14l-.16.09a.48.48,0,0,0-.07.39Z"/><path class="cls-4" d="M990.82,636.65l-.09,0h-.13l-.1,0-.09.09a.52.52,0,0,0,0,.35l.06.15.1.08.16,0a.35.35,0,0,0,.21-.42h0v-.08l0-.11Z"/><path class="cls-4" d="M972.43,625.89a.32.32,0,0,0-.38.09l-.08.14v.13l.09.15h0a.3.3,0,0,0,.34-.06l.11-.13,0-.14Z"/><path class="cls-4" d="M1000.17,645.8a.35.35,0,0,0,.15-.22l0-.13-.06-.09,0,0-.08-.08-.1,0h-.12a.29.29,0,0,0-.19.3h0v.08l0,.12.11.1A.37.37,0,0,0,1000.17,645.8Z"/><path class="cls-4" d="M990.2,638.56h0a.54.54,0,0,0,.44-.13l.08-.13v-.13l-.07-.15v-.1l0-.09-.06-.07-.09,0h0a.32.32,0,0,0-.16-.14h-.08a.38.38,0,0,0-.15-.12.26.26,0,0,0-.27,0l-.06.1a.37.37,0,0,0-.15.23l0,.11.06.08.08.07.15,0h0v.06l.05.14.06,0a.4.4,0,0,0,.15.19Z"/><path class="cls-4" d="M983,621.81l-.07-.06a.31.31,0,0,0-.34,0h0a.37.37,0,0,0-.19.24v.11l0,.09.08.08h0a.25.25,0,0,0,.24,0l.09-.05A.31.31,0,0,0,983,622l0-.11Z"/><path class="cls-4" d="M971.14,647.42l0,0-.06,0a.3.3,0,0,0-.36.09l-.08.1,0,.11v.13a.43.43,0,0,0,.16.14.34.34,0,0,0,.35,0,.36.36,0,0,0,.11-.35Z"/><path class="cls-4" d="M984.84,614.75a.25.25,0,0,0-.08-.1l-.1,0h-.14a.33.33,0,0,0-.31.29l0,.11,0,.08.1.09a.52.52,0,0,0,.16.12.34.34,0,0,0,.2,0l.14-.15v0h0a.32.32,0,0,0,.05-.26A.23.23,0,0,0,984.84,614.75Z"/><path class="cls-4" d="M972.1,639.46l-.13,0-.11,0h0a.35.35,0,0,0-.33.3l.05.15.15.12,0,0a.29.29,0,0,0,.18,0,.19.19,0,0,0,.15,0l.08,0,.06-.07,0-.08A.41.41,0,0,0,972.1,639.46Z"/><path class="cls-4" d="M969.89,642.58a.45.45,0,0,0,0-.18.55.55,0,0,0-.1-.11.26.26,0,0,0-.15-.17l-.06,0h-.09l-.06,0-.09,0a.34.34,0,0,0-.22.17.43.43,0,0,0,0,.35.5.5,0,0,0,.26.29.44.44,0,0,0,.56-.17l0-.12Z"/><path class="cls-4" d="M974.92,632.55h.15l.09,0,.08-.08,0-.07v-.11l0-.12a.25.25,0,0,0-.09-.11l-.16,0-.08,0v0a.25.25,0,0,0-.22.2.26.26,0,0,0,.12.27h0Z"/><path class="cls-4" d="M986.92,627.94h0a.39.39,0,0,0,.18,0,.34.34,0,0,0,.16-.06h0a.28.28,0,0,0,.34-.09l0-.13,0-.07a.28.28,0,0,0,0-.13l0,0v-.13l-.1-.17-.09.13h0l0-.18-.15-.11h-.17a.41.41,0,0,0-.29,0l0,0-.09.11a.32.32,0,0,0-.1.16l-.08.15v.15a.25.25,0,0,0,.13.3A.24.24,0,0,0,986.92,627.94Z"/><path class="cls-4" d="M978.91,622a.42.42,0,0,0,.17,0h.09l.08,0,.07-.06a.35.35,0,0,0,0-.48l-.08-.08-.09,0H979a.37.37,0,0,0-.14.08l0,0-.11.1A.34.34,0,0,0,978.91,622Z"/><path class="cls-4" d="M985.48,636.13v0a.25.25,0,0,0-.08-.18v0l0-.08,0-.06-.09-.08a.39.39,0,0,0-.2,0h0l-.1,0-.12,0a.59.59,0,0,0-.17.78l.15.1h0l.08,0H985a.26.26,0,0,0,.15,0l.15,0a.41.41,0,0,0,.19-.25Z"/><path class="cls-4" d="M995.63,611.28l0-.08a.37.37,0,0,0-.16-.3l-.13,0h-.1l-.09,0v.07l0-.07-.09,0-.1.1s0-.06.06-.06a.34.34,0,0,0-.27.32v0a.78.78,0,0,0,.19.41l.1,0h.09l0,0h.13l.1-.05.1-.09a.2.2,0,0,1,.07-.1.85.85,0,0,0,.11-.14Z"/><path class="cls-4" d="M974.7,655.79l-.05-.11a.49.49,0,0,0-.17-.14.3.3,0,0,0-.21,0,.38.38,0,0,0-.18.19v.13l0,.1.08.09.16.06h.12l.1,0,.11-.12v-.16Z"/><path class="cls-4" d="M980,643.66h-.13l-.1,0-.09.09,0,0a.39.39,0,0,0-.19.29v.08a.29.29,0,0,0,.16.2.32.32,0,0,0,.24,0l0,0h.11l.16-.12A.42.42,0,0,0,980,643.66Z"/><path class="cls-4" d="M982.61,648.38l-.11-.06-.11,0-.12,0c-.22.18-.25.35-.22.46l.05.05h0a.36.36,0,0,0,.19.27l0,0,.14,0,.08,0a.3.3,0,0,0,.22-.16l0-.08A.68.68,0,0,0,982.61,648.38Z"/><path class="cls-4" d="M984.2,638.66l0-.07,0,0a.28.28,0,0,0-.12-.1l-.12,0-.07,0-.06,0-.08.06a.48.48,0,0,0-.13.34.3.3,0,0,0,.14.22l.08,0h.17a.39.39,0,0,0,.3-.18.28.28,0,0,0,0-.28Z"/><path class="cls-4" d="M976.58,638.6l0-.08-.07-.07-.09,0a.47.47,0,0,0-.38,0l-.07.08a.39.39,0,0,0,0,.47l.1.06.1,0h.09a.36.36,0,0,0,.38-.33Z"/><path class="cls-4" d="M983.58,630.79l0,0a.31.31,0,0,0-.12-.16l-.07,0h-.14l-.08,0h0l-.12,0-.11.09c-.08.22,0,.35.13.4h0a.24.24,0,0,0,.13.11l.05,0,.17,0,.11-.11a.26.26,0,0,0,.12-.24Z"/><path class="cls-4" d="M986.66,622.79a.32.32,0,0,0,.2-.22.29.29,0,0,0-.09-.24l-.14,0-.12,0v.06l0-.07a.29.29,0,0,0-.21.46l.15.07h.13Z"/><path class="cls-4" d="M976.33,611.92l-.09-.15-.16-.07h-.15l-.12.08a.38.38,0,0,0-.16.21v.09l0,.09.06.08,0,0a.38.38,0,0,0,.16,0H976l.13,0,.11-.11h0l.06-.1Z"/><path class="cls-4" d="M966.14,637.81a.31.31,0,0,0-.17-.23l-.1,0-.09,0-.1,0a.54.54,0,0,0-.22.12l0,.14,0,.12.09.12.06,0c.37.17.53,0,.59-.13v-.15Z"/><path class="cls-4" d="M1020.74,641l.07,0h.11l.09,0,.08-.06a.36.36,0,0,0,0-.27.39.39,0,0,0-.24-.23h-.11l-.08,0-.08,0a.34.34,0,0,0-.09.29A.32.32,0,0,0,1020.74,641Z"/><path class="cls-4" d="M1008.79,641.16l-.08-.07-.06,0h-.11l-.12,0a.32.32,0,0,0-.12.09l0,.16.06.13.09.08a.3.3,0,0,0,.27,0,.28.28,0,0,0,.15-.2v-.11Z"/><path class="cls-4" d="M1010.23,636.57a.42.42,0,0,0-.22-.22.31.31,0,0,0-.44.13v0a.29.29,0,0,0,0,.34l.08,0a.3.3,0,0,0,.13,0h.12l.16-.07.09-.07,0-.08,0-.08Z"/><path class="cls-4" d="M1007.49,648.19l0-.05-.05,0-.07,0a.44.44,0,0,0-.38,0,.47.47,0,0,0-.21.38l0,.09,0,.08.09.09a.56.56,0,0,0,.16.13l.09,0h.08l.09,0a.52.52,0,0,0,.2-.54Z"/><path class="cls-4" d="M1009.54,644.13l-.09,0h-.12l-.09,0-.09.09-.07.15v.1l0,.09.08.11a1.11,1.11,0,0,0,.18.12.38.38,0,0,0,.33,0l.07-.08a.37.37,0,0,0,0-.31A.48.48,0,0,0,1009.54,644.13Z"/><path class="cls-4" d="M999.74,664l-.13,0-.15,0a.33.33,0,0,0-.16.1l0,.15,0,.12.05.07.14-.08-.13.09.15.07h.14l.14-.13A.29.29,0,0,0,999.74,664Z"/><path class="cls-4" d="M998.55,655.46h-.12l-.1,0-.09.07a.37.37,0,0,0-.06.3.36.36,0,0,0,.19.21l.07,0h.12l.09,0,.08-.09A.37.37,0,0,0,998.55,655.46Z"/><path class="cls-4" d="M1011.9,628.85h-.09l.09,0,0-.1-.11-.1a.44.44,0,0,0-.49.19l0,.11v.1l.06.1.08,0a.28.28,0,0,0,.22,0,.28.28,0,0,0,.27-.1l0-.12Z"/><path class="cls-4" d="M1004.72,648.6l0-.08-.08-.07-.09,0h-.13l-.11.05-.09.11a.3.3,0,0,0,.06.39l.11,0h.11a.3.3,0,0,0,.28-.3Z"/><path class="cls-4" d="M982,655a.34.34,0,0,0-.26,0l-.09.06,0,.05c-.05.11-.1.32.21.48l.09,0,0,0,.09,0,.1-.06a.36.36,0,0,0,.06-.3A.34.34,0,0,0,982,655Z"/><path class="cls-4" d="M1015.61,631.39l-.16,0-.1,0-.08,0-.06.07,0,.09v.11l0,.1.11.11.06,0,.06,0,.07,0h.1l.08,0,.08-.07a.36.36,0,0,0,0-.28A.33.33,0,0,0,1015.61,631.39Z"/><path class="cls-4" d="M1016.38,637.9l-.16,0-.08,0a.29.29,0,0,0-.23.17l0,.08v.08l0,.08a.45.45,0,0,0,.13.11.32.32,0,0,0,.4-.15A.29.29,0,0,0,1016.38,637.9Z"/><path class="cls-4" d="M1018,647.52l.13-.1.07-.15v-.12l0-.11-.11-.1h-.18a.35.35,0,0,0-.21.22.37.37,0,0,0,.06.32l.15.06Z"/><path class="cls-4" d="M1005,661.61v0h0a.29.29,0,0,0-.1-.31h0l0,0,0,0a.49.49,0,0,0-.37,0,.47.47,0,0,0-.25.32v.13l0,.09a.29.29,0,0,0,.16.2l.12,0h0l0,0a.29.29,0,0,0,.34-.1l0-.09Z"/><path class="cls-4" d="M1012.49,661.39a.27.27,0,0,0-.12-.18.29.29,0,0,0-.17-.17.66.66,0,0,0-.46,0l-.07,0-.06,0a.53.53,0,0,0-.08.43.44.44,0,0,0,.28.3l.12,0h.09l.09,0,.08-.06.06,0A.37.37,0,0,0,1012.49,661.39Z"/><path class="cls-4" d="M994.14,655.52a.4.4,0,0,0,.28,0l.07,0,0,0,.05-.07c.14-.33-.05-.46-.14-.5l-.08,0-.13,0-.09.06-.06.08a.41.41,0,0,0-.11.15v.11l0,.1.07.09Z"/><path class="cls-4" d="M1005.44,656l-.05,0-.07,0h0v0a.34.34,0,0,0-.28,0,.32.32,0,0,0-.13.05l0,.06,0,.09v.06h0a.29.29,0,0,0,.07.37l0,0a.42.42,0,0,0,.47-.06.39.39,0,0,0,.09-.43Z"/><path class="cls-4" d="M1012.51,650.1a.24.24,0,0,0-.11-.26.38.38,0,0,0-.13-.12.28.28,0,0,0-.22,0l-.06,0,0,0-.06.08a.5.5,0,0,0-.13.17l0,.11,0,.1,0,.08.05.07.08.06a.49.49,0,0,0,.6-.15l0-.15Z"/><path class="cls-4" d="M1020.3,627.76h0a.49.49,0,0,0,.13.1h0l0,0,0,0a.25.25,0,0,0,.28-.06l0,0,0-.1a.61.61,0,0,1,0-.13,1.13,1.13,0,0,0,0-.18l0-.12-.07-.09-.16-.06a.41.41,0,0,0-.52.31A.26.26,0,0,0,1020.3,627.76Z"/><path class="cls-4" d="M1008.63,653.88l-.22.09,0,0h0l-.06.12v0l0,0,.08.21a.29.29,0,0,0,.4-.14.31.31,0,0,0,0-.25A.33.33,0,0,0,1008.63,653.88Z"/><path class="cls-4" d="M990.71,649.28l.12-.07,0,0h0A.41.41,0,0,0,991,649a.2.2,0,0,0,0-.2l0-.13-.09-.11a.39.39,0,0,0-.19,0h-.11l-.1,0-.1.07a.45.45,0,0,0-.06.36.49.49,0,0,0,.24.3A.3.3,0,0,0,990.71,649.28Z"/><path class="cls-4" d="M997.16,637.29l0,0v0l0-.07-.05-.06-.06,0-.07,0h0l-.1-.06-.13,0a.3.3,0,0,0-.15.11l-.07,0-.09.19a.3.3,0,0,0,0,.27.06.06,0,0,0,0,0,.26.26,0,0,0,.15.2.25.25,0,0,0,.25,0l.06,0,.09-.05.08,0h.05a.3.3,0,0,0,.13-.18Z"/><path class="cls-4" d="M993.56,645h0V645l0-.09-.08-.08a.29.29,0,0,0-.17-.19.27.27,0,0,0-.2,0h0l-.15,0,0,0a.52.52,0,0,0-.19.11l0,.13v.05a.54.54,0,0,0-.06.11l0,.1v.1l.07.14a.78.78,0,0,0,.3.24l.06,0h.1l.08,0,.09-.06,0-.05.1,0h0l.08,0,.07-.08A.4.4,0,0,0,993.56,645Z"/><path class="cls-4" d="M987.42,656.93l-.06-.11a.24.24,0,0,0-.09-.06.31.31,0,0,0-.42.13.3.3,0,0,0,.11.4l.11,0h.09l.13-.07.09-.08,0-.12Z"/><path class="cls-4" d="M998.55,629.06h0l0,0-.07,0-.12-.07h-.12l-.15.06a.47.47,0,0,0-.18.22h0a.24.24,0,0,0,0,.26v0l0,.1a.48.48,0,0,0,.15.11l.1,0,.08,0h.11l.09,0,.08-.05a.66.66,0,0,0,.15-.49Z"/><path class="cls-4" d="M1000.34,636a.34.34,0,0,0-.09-.12.21.21,0,0,0-.08-.11l-.13-.09a.73.73,0,0,0-.48,0l-.07,0,0,.06,0,.06a.63.63,0,0,0,.4.74l.07,0h.06l.07,0a.28.28,0,0,0,.11-.08.26.26,0,0,0,.15-.12l0-.1A.33.33,0,0,0,1000.34,636Z"/><path class="cls-4" d="M1001.51,621.51l.09.06.14,0h.1l.09-.05.07-.08.07-.15v-.12l0-.1-.08-.1-.12,0-.08,0h-.07l-.07,0a.47.47,0,0,0-.21.28v.1l0,.08Z"/><path class="cls-4" d="M993.65,635.6l0-.11h0a.34.34,0,0,0-.06-.21.52.52,0,0,0-.17-.12l-.11,0-.07,0h-.11l-.09,0-.08.06a.4.4,0,0,0-.06.31l0,.14.09.09h0a.49.49,0,0,0,.18.16l.07,0h.12l.09,0,.08-.1,0,0Z"/><path class="cls-4" d="M993,659.79a.24.24,0,0,0,0-.19.16.16,0,0,0-.07-.09.24.24,0,0,0-.13-.15.24.24,0,0,0-.15,0l-.07,0-.06,0a.4.4,0,0,0-.3.28v.09l0,.08.05.08a.79.79,0,0,0,.23.16.42.42,0,0,0,.44-.05l.07-.13v-.1Z"/><path class="cls-4" d="M1009,626a.28.28,0,0,0,.12.19l.14,0h0a.29.29,0,0,0,.23-.06.21.21,0,0,0,.09-.14.36.36,0,0,0-.19-.48.65.65,0,0,0-.2,0l-.07,0-.06,0-.06,0A.34.34,0,0,0,1009,626Z"/><path class="cls-4" d="M1010.71,616.22l0-.08,0-.07a1.05,1.05,0,0,0-.21-.12.4.4,0,0,0-.35,0,.47.47,0,0,0-.24.3l0,.12,0,.1.07.07,0,.05.08.08.1,0h.16a.44.44,0,0,0,.39-.38Z"/><path class="cls-4" d="M1010.77,622.6v0l0,.09.05.09.09.06a.44.44,0,0,0,.48-.09.27.27,0,0,0,0-.32h0l0-.07-.09-.1a.49.49,0,0,0-.4,0l-.07.06,0,.06,0,.08A.34.34,0,0,0,1010.77,622.6Z"/><path class="cls-4" d="M987.82,645.12l0-.08,0-.06a.29.29,0,0,0-.14-.12l-.1,0h-.07a.35.35,0,0,0-.26.22.4.4,0,0,0,.09.41l.12.06h.12l.13-.06a.41.41,0,0,0,.18-.25Z"/><path class="cls-4" d="M1003.16,640.82l0-.05-.05,0c-.08,0-.19-.05-.34.12s-.09.31-.08.35l0,0,0,0,.06,0a.24.24,0,0,0,.31-.09.52.52,0,0,0,.1-.37Z"/><path class="cls-4" d="M997.67,641.38l.16,0v-.11l0-.1-.09-.08-.18-.08-.07,0h-.07l-.08,0a.31.31,0,0,0-.13.39.25.25,0,0,0,.13.33.17.17,0,0,0,.12,0h0l.11,0,.13,0a.44.44,0,0,0,.15-.31Z"/><path class="cls-4" d="M1003.2,642.54h0a.42.42,0,0,0-.16-.12l-.08,0h-.09l-.1,0-.06,0a.6.6,0,0,0-.27.41v.09a.19.19,0,0,0,0,.09l0,.11.05.06.06,0,.11,0,0,.06a.41.41,0,0,0,.42,0l.09,0,.08-.05,0-.08A.45.45,0,0,0,1003.2,642.54Z"/><path class="cls-4" d="M996.47,648.92a.26.26,0,0,0-.32.09.35.35,0,0,0,.06.43l.16,0,.13,0,.12-.13A.33.33,0,0,0,996.47,648.92Z"/><path class="cls-4" d="M999.83,647.13l-.08-.13a.52.52,0,0,0-.18-.13.25.25,0,0,0-.31,0l0,.08a.33.33,0,0,0-.11.26l0,.07.06.09a.42.42,0,0,0,.18.17h.16l.1-.05.07-.08a.27.27,0,0,0,.11-.09l0-.12Z"/><path class="cls-4" d="M1005.86,629.46l.07.06h.05a.32.32,0,0,0,.12.1.41.41,0,0,0,.16,0l.1,0,.07,0,.09-.09a.37.37,0,0,0,.15-.2.2.2,0,0,0,0-.17.26.26,0,0,0-.14-.28h-.1l-.09-.06a.31.31,0,0,0-.32,0l0,.05,0,0,0,.07a.5.5,0,0,0-.1.4Z"/><path class="cls-4" d="M998.89,646.5l0-.12-.07-.08-.08,0a.76.76,0,0,0-.15-.12h-.11l-.09,0-.12.08a.4.4,0,0,0-.15.29v.08l0,.08.09.11a.63.63,0,0,0,.17.13.37.37,0,0,0,.35,0l.07-.15v-.05h0A.42.42,0,0,0,998.89,646.5Z"/><rect class="cls-3" x="990.28" y="600.54" width="52.2" height="49.74" transform="translate(239.56 1531.34) rotate(-80.99)"/><path class="cls-4" d="M1001.36,630.93l-.05,0,0,0a.31.31,0,0,0,0,.38l0,0,.09.09a.34.34,0,0,0,.29,0,.31.31,0,0,0,.16-.23.28.28,0,0,0-.11-.28l-.14,0a.27.27,0,0,0-.19,0Z"/><path class="cls-4" d="M1010.65,627.82l0-.05,0-.06a.49.49,0,0,0-.23-.47h-.14l-.12,0-.1.15,0,.12,0,0,0,.08,0,.14.12.12a.44.44,0,0,0,.38,0Z"/><path class="cls-4" d="M1017.08,628.47l0,.1,0,.12.07.08.11.06a.56.56,0,0,0,.33-.09l.12-.09,0-.12,0-.15a.33.33,0,0,0-.44-.1h-.07l-.09.06Z"/><path class="cls-4" d="M1011.74,648.37a.33.33,0,0,0,.18.33l.15,0,.13,0,.11-.12v0a.28.28,0,0,0-.15-.3l-.14-.07h-.14Z"/><path class="cls-4" d="M1023.23,617.42a.28.28,0,0,0-.25-.09l-.11,0-.07.08,0,0,0,.1v.1l0,.11a.28.28,0,0,0,.33.11h.09l.09-.08.07-.12A.37.37,0,0,0,1023.23,617.42Z"/><path class="cls-4" d="M1019,628.56v0a.53.53,0,0,0-.23-.38l-.15,0-.12,0-.12.11-.09,0-.07.05,0,.08a.92.92,0,0,0,0,.09v0a.26.26,0,0,0-.09.18h0l0,.06a.38.38,0,0,0-.07.17.26.26,0,0,0,.09.25l.11,0a.32.32,0,0,0,.25.08l.1,0,.06-.07,0-.1s0-.1,0-.15h.07l.11-.09v-.05a.44.44,0,0,0,.15-.2Z"/><path class="cls-4" d="M1005.25,639.59l0,.08a.29.29,0,0,0,.13.31h0v0a.41.41,0,0,0,.28.12l.1,0,.07-.05.06-.1v0a.24.24,0,0,0-.06-.23l-.07-.06a.29.29,0,0,0-.32-.16l-.1,0Z"/><path class="cls-4" d="M1032.15,644.07l0,0v.06a.27.27,0,0,0,.17.32l.11,0h.11l.12,0a.38.38,0,0,0,.09-.18.34.34,0,0,0-.14-.32.32.32,0,0,0-.35,0Z"/><path class="cls-4" d="M998.18,639.64a.86.86,0,0,0-.07.1v.1l0,.13a.31.31,0,0,0,.35.21l.1,0,.06-.07.07-.12a.56.56,0,0,0,.06-.17.34.34,0,0,0,0-.2l-.18-.09h0v0a.31.31,0,0,0-.26,0A.28.28,0,0,0,998.18,639.64Z"/><path class="cls-4" d="M1024.48,645.21l0,.12.06.1h0a.33.33,0,0,0,.36.23l.13-.09.07-.16v0a.36.36,0,0,0,0-.18.39.39,0,0,0,0-.14L1025,645l-.07,0-.09,0A.4.4,0,0,0,1024.48,645.21Z"/><path class="cls-4" d="M1028,646.48a.27.27,0,0,0-.15.07.42.42,0,0,0-.08.12.25.25,0,0,0-.12.18v.06l0,.09,0,0,.07.07a.31.31,0,0,0,.22.16.39.39,0,0,0,.33-.06.46.46,0,0,0,.2-.32.43.43,0,0,0-.3-.48h-.12Z"/><path class="cls-4" d="M1017.32,644.34v0l0-.11-.07-.07-.09-.06h-.07l-.1,0-.11.07a.43.43,0,0,0-.08.11l0,.16.05.06,0,0a.26.26,0,0,0,.24.16.26.26,0,0,0,.22-.19v0Z"/><path class="cls-4" d="M1010,634.33h0a.35.35,0,0,0,0-.18.27.27,0,0,0-.1-.13h0a.27.27,0,0,0-.16-.3l-.13,0-.06,0-.13,0,0,0-.13,0-.14.14.15,0H1009l-.06.16,0,.16a.35.35,0,0,0,.12.27l0,0a.33.33,0,0,0,.12,0,.25.25,0,0,0,.17.05l.17,0,.13,0a.23.23,0,0,0,.24-.2A.23.23,0,0,0,1010,634.33Z"/><path class="cls-4" d="M1006.42,643.33a1,1,0,0,0,0-.17l0-.09,0-.06-.07-.06a.35.35,0,0,0-.44.14l-.06.1v.09l0,.11a.26.26,0,0,0,.11.1l0,0,.12.08A.35.35,0,0,0,1006.42,643.33Z"/><path class="cls-4" d="M1018,633.58l0,0a.26.26,0,0,0-.16.11l0,0-.07,0,0,.05,0,.11a.4.4,0,0,0,0,.2h0v.1l0,.11a.58.58,0,0,0,.77,0l.06-.17v0a.46.46,0,0,0,0-.09v-.11a.33.33,0,0,0-.09-.13l-.08-.12a.43.43,0,0,0-.28-.12Z"/><path class="cls-4" d="M992.19,630.46l-.06.06a.32.32,0,0,0-.23.23l0,.13v.1l.05.08.06,0-.06.05.06.08.12.06a.19.19,0,0,1-.08,0,.38.38,0,0,0,.37.17l.06,0a.83.83,0,0,0,.33-.28l0-.1v-.09s0,0,0-.06l0-.12-.06-.09-.11-.06a.34.34,0,0,1-.12,0l-.15-.07Z"/><path class="cls-4" d="M1039,638.62l-.08.07a.46.46,0,0,0-.09.2.26.26,0,0,0,0,.19.36.36,0,0,0,.23.12l.12,0,.08-.06.06-.1,0-.16,0-.12-.06-.09-.14-.06h-.08Z"/><path class="cls-4" d="M1026.37,636.75l0,.12.06.09.11.06h0a.44.44,0,0,0,.33.1l.07,0a.28.28,0,0,0,.14-.2.29.29,0,0,0-.06-.23h0l0-.1-.15-.12A.42.42,0,0,0,1026.37,636.75Z"/><path class="cls-4" d="M1030.11,633.13l0,.12v.1l.07.11a.46.46,0,0,0,.49.09l0-.06h0a.33.33,0,0,0,.2-.25v0l-.05-.12-.06-.06a.29.29,0,0,0-.21-.17h-.08A.74.74,0,0,0,1030.11,633.13Z"/><path class="cls-4" d="M1020.64,634.13l0,0v.05a.35.35,0,0,0-.06.14v.11l0,.07,0,.05.08,0a.44.44,0,0,0,.35,0,.32.32,0,0,0,.17-.19v-.15l0-.09a.36.36,0,0,0-.24-.24.29.29,0,0,0-.26.08Z"/><path class="cls-4" d="M1022.54,641.25l-.07.06,0,.09,0,.09a.4.4,0,0,0,.1.35l.09,0a.41.41,0,0,0,.44-.12l0-.11v-.1l0-.08a.36.36,0,0,0-.41-.28Z"/><path class="cls-4" d="M1013.47,636.72l0,0a.33.33,0,0,0-.12.14V637l0,.07,0,.06v0l.06.1.12.07a.27.27,0,0,0,.34-.22h0a.28.28,0,0,0,.08-.15v0l-.09-.15-.14-.07a.26.26,0,0,0-.25-.05Z"/><path class="cls-4" d="M1005.22,635.89a.27.27,0,0,0-.25-.13.26.26,0,0,0-.21.14V636l.06.11,0,0-.06,0a.33.33,0,0,0,.23.19.3.3,0,0,0,.26-.12l0-.15,0-.12Z"/><path class="cls-4" d="M997.72,648.29l-.12.13,0,.16,0,.15.1.08a.31.31,0,0,0,.23.1l.09,0,.07,0,.06-.08v0a.26.26,0,0,0,0-.16h0l0-.08-.06-.1-.13-.08h0l-.11,0Z"/><path class="cls-4" d="M1024.47,651.19a.28.28,0,0,0-.18.22v.09l0,.08.07.09a.49.49,0,0,0,.16.17h.15l.11-.05.08-.12,0-.07c.06-.38-.15-.48-.28-.51l-.13,0Z"/><path class="cls-4" d="M1013.5,599.46a.22.22,0,0,1,0-.08l0-.1-.06-.07-.08-.06a.31.31,0,0,0-.26,0,.35.35,0,0,0-.15.28v0l0,.09,0,.07.07.06a.31.31,0,0,0,.28,0A.32.32,0,0,0,1013.5,599.46Z"/><path class="cls-4" d="M1016.7,610.56l-.05.09v.06l0,.11.07.1a.27.27,0,0,0,.11.09l.16,0,.1-.08.06-.1a.29.29,0,0,0-.07-.26.28.28,0,0,0-.22-.09l-.1,0Z"/><path class="cls-4" d="M1012.05,610.38a.46.46,0,0,0-.15.27.32.32,0,0,0,.24.38h0a.3.3,0,0,0,.31-.11l0-.09a.32.32,0,0,0,0-.14l0-.11-.1-.14-.09-.06-.09,0h-.08Z"/><path class="cls-4" d="M1023.59,610l0,0,0,.06a.22.22,0,0,0,0,.08.37.37,0,0,0,.1.35.47.47,0,0,0,.4.1l.08,0,.06-.06.07-.12a.62.62,0,0,0,.08-.18v-.08l0-.08,0-.07a.49.49,0,0,0-.55-.05Z"/><path class="cls-4" d="M1019.28,609.1s0,.06,0,.09l0,.11.07.08.1.06.16,0h.1l.07-.05.08-.09a.52.52,0,0,0,.07-.2.34.34,0,0,0-.1-.31l-.08,0a.36.36,0,0,0-.31,0A.46.46,0,0,0,1019.28,609.1Z"/><path class="cls-4" d="M1040.28,613.18v.12l.07.14a.52.52,0,0,0,.13.12h.15l.1-.06.06-.07-.11-.12.12.11,0-.17-.06-.12-.15-.1C1040.39,613,1040.31,613.1,1040.28,613.18Z"/><path class="cls-4" d="M1032.65,616.46l0,.11,0,.09.09.07a.35.35,0,0,0,.3,0,.32.32,0,0,0,.14-.23v-.07l0-.11-.07-.07-.1-.05A.35.35,0,0,0,1032.65,616.46Z"/><path class="cls-4" d="M1004.42,610.8l0,.09-.06-.08-.09.07-.06.12a.42.42,0,0,0,.3.41h.11l.09,0,.08-.08,0-.08a.63.63,0,0,0-.22-.44h-.11Z"/><path class="cls-4" d="M1024.67,612.45l-.06.07,0,.08v.1l0,.12.07.09.13.06a.29.29,0,0,0,.34-.16v-.11l0-.1a.29.29,0,0,0-.35-.19Z"/><path class="cls-4" d="M1036.45,632a.36.36,0,0,0,.06.25l.08.06.06,0c.11,0,.32,0,.39-.33l0-.07,0,0,0-.08-.08-.07a.33.33,0,0,0-.29,0A.37.37,0,0,0,1036.45,632Z"/><path class="cls-4" d="M1005.85,606.69a.48.48,0,0,0,0,.17l0,.08.06.06.08,0,.1,0,.1,0,.09,0,.08-.14v-.06l0-.06v-.07l0-.1,0-.06-.09-.06a.38.38,0,0,0-.28,0A.32.32,0,0,0,1005.85,606.69Z"/><path class="cls-4" d="M1011.72,604.32l0,.15.06.06a.28.28,0,0,0,.22.18h.08l.07,0,.07,0a.34.34,0,0,0,.06-.15.3.3,0,0,0-.58-.15Z"/><path class="cls-4" d="M1020.28,600.36l-.12-.1-.16,0-.12,0-.08.07-.07.13v.11l0,.06a.31.31,0,0,0,.25.14.37.37,0,0,0,.29-.14l0-.15Z"/><path class="cls-4" d="M1036.73,608.83l0,0h0a.3.3,0,0,0-.27.17h0l0,.05,0,.06a.44.44,0,0,0,.08.35.5.5,0,0,0,.36.15l.12,0,.08-.08a.26.26,0,0,0,.14-.19.49.49,0,0,0,0-.12h0s0,0,0,0a.25.25,0,0,0-.17-.28h-.1Z"/><path class="cls-4" d="M1034.62,601.94a.26.26,0,0,0-.13.16.34.34,0,0,0-.13.2.71.71,0,0,0,.14.43l.06,0,.06,0a.52.52,0,0,0,.43,0,.47.47,0,0,0,.2-.34.49.49,0,0,0,0-.12l0-.09,0-.07-.07-.06,0-.05C1035,602,1034.83,601.82,1034.62,601.94Z"/><path class="cls-4" d="M1033.84,620.55a.4.4,0,0,0,0-.26l0-.06-.06,0-.07,0c-.35,0-.42.16-.44.25v.08l0,.11.08.08.09,0a.3.3,0,0,0,.17.07l.1,0,.08-.06.07-.08S1033.83,620.58,1033.84,620.55Z"/><path class="cls-4" d="M1031.4,609.89l0,.06,0,.07v0h0a.28.28,0,0,0,.06.26.24.24,0,0,0,.08.11l.07,0h.09l.06,0h0a.27.27,0,0,0,.32-.16l0,0a.38.38,0,0,0-.6-.39Z"/><path class="cls-4" d="M1024.09,604.8a.25.25,0,0,0-.22.18.27.27,0,0,0-.08.15.26.26,0,0,0,.06.21l0,0,.05,0,.09,0a.48.48,0,0,0,.19.09l.11,0,.09,0,.06,0,.06-.07,0-.08a.48.48,0,0,0-.29-.53l-.15,0Z"/><path class="cls-4" d="M1001.26,603.24h0a.3.3,0,0,0,.07-.14v0l0,0,0-.06a.24.24,0,0,0-.12-.25l0,0h-.41l-.1.07-.06.09,0,.16c0,.27.17.41.42.41A.26.26,0,0,0,1001.26,603.24Z"/><path class="cls-4" d="M1028.6,607.46l.14.18h.07l.13,0,0,0h0l.17-.13a.28.28,0,0,0-.23-.34.37.37,0,0,0-.23,0A.36.36,0,0,0,1028.6,607.46Z"/><path class="cls-4" d="M1028.89,625.34l-.1-.09h0a.39.39,0,0,0-.24-.09.24.24,0,0,0-.18.07l-.11.06-.08.12a.39.39,0,0,0,0,.18h0l0,.07h0v0l0,.09.09.08a.43.43,0,0,0,.35,0,.44.44,0,0,0,.22-.3A.3.3,0,0,0,1028.89,625.34Z"/><path class="cls-4" d="M1016.06,622.39l0,.05,0,0-.06,0,0,0,0,.08a.17.17,0,0,0,0,.07h0l0,.1,0,.13a.5.5,0,0,0,.14.12l0,0,.21,0a.28.28,0,0,0,.24-.09h0a.26.26,0,0,0,.15-.19.25.25,0,0,0-.09-.23l0,0-.07-.07-.06-.07,0,0a.28.28,0,0,0-.2-.08Z"/><path class="cls-4" d="M1024.18,623.78h0l0,0-.08.07,0,.1a.32.32,0,0,0-.14.2.25.25,0,0,0,0,.19h0l.06.12,0,0a.54.54,0,0,0,.15.15h.13l0,0,.12,0h.1l.09,0,.11-.1a.72.72,0,0,0,.15-.34v-.07l0-.09,0-.07-.08-.07-.06,0a.36.36,0,0,0,0-.09h0l0,0-.06-.07-.09-.05A.39.39,0,0,0,1024.18,623.78Z"/><path class="cls-4" d="M1036.86,626.47l-.09.07a.45.45,0,0,0,0,.11.3.3,0,0,0,.58.15v-.11l0-.08-.1-.1a.35.35,0,0,0-.09-.07H1037Z"/><path class="cls-4" d="M1008,623.19v.06h0a.19.19,0,0,1,0,.08l0,.13,0,.11.1.12a.45.45,0,0,0,.25.11h0a.26.26,0,0,0,.23-.08h0l.08-.07a.43.43,0,0,0,.07-.16.4.4,0,0,0,0-.11.28.28,0,0,1,0-.08l0-.1,0-.07-.07-.07a.63.63,0,0,0-.49,0Z"/><path class="cls-4" d="M1014.06,619.76a.45.45,0,0,0-.09.1.44.44,0,0,0-.08.11.33.33,0,0,0,0,.14.66.66,0,0,0,.1.46l0,0,.07,0,.07,0a.61.61,0,0,0,.58-.57V620l0-.06,0-.06a.34.34,0,0,0-.12-.09.26.26,0,0,0-.14-.11l-.1,0A.27.27,0,0,0,1014.06,619.76Z"/><path class="cls-4" d="M1000.23,622.36a.19.19,0,0,0,0-.09.32.32,0,0,0,0-.14l0-.09-.06-.07-.09-.05-.17,0-.11,0-.09.07-.06.1,0,.13v.07l0,.06,0,.07a.44.44,0,0,0,.32.12l.09,0,.07,0Z"/><path class="cls-4" d="M1015.38,626.1l-.1.06h0a.3.3,0,0,0-.18.11.67.67,0,0,0-.07.18.48.48,0,0,0,0,.12.2.2,0,0,1,0,.07l0,.1.05.08.08.06a.42.42,0,0,0,.31,0l.11-.08.06-.1v-.06a.54.54,0,0,0,.09-.2v-.08l0-.1-.07-.08-.11,0,0,0Z"/><path class="cls-4" d="M1038.12,620.57a.36.36,0,0,0-.17.08.22.22,0,0,0-.07.09.21.21,0,0,0-.1.16.34.34,0,0,0,0,.14l0,.07,0,0a.39.39,0,0,0,.33.2h.09l.07,0,.06-.07a.93.93,0,0,0,.1-.25.43.43,0,0,0-.17-.4l-.14,0-.07,0Z"/><path class="cls-4" d="M1002.45,614.23a.24.24,0,0,0,.15-.16l0-.14,0,0a.24.24,0,0,0-.11-.2.22.22,0,0,0-.16-.05.34.34,0,0,0-.39.3.69.69,0,0,0,0,.2l0,.06,0,0,0,0A.33.33,0,0,0,1002.45,614.23Z"/><path class="cls-4" d="M993,615.14l-.07,0,0,.07a1.8,1.8,0,0,0-.06.22.4.4,0,0,0,.08.34.39.39,0,0,0,.33.14l.11,0,.08-.08,0-.08,0,0,.06-.1v-.1l0-.15a.41.41,0,0,0-.45-.26Z"/><path class="cls-4" d="M998.88,613.45h0l.08-.05.06-.07a.3.3,0,0,0,0-.1.43.43,0,0,0-.21-.42.24.24,0,0,0-.3.06v0l-.06,0-.07.11a.51.51,0,0,0,.09.38l.07.05.07,0h.08A.23.23,0,0,0,998.88,613.45Z"/><path class="cls-4" d="M1025.75,629.1l-.07,0,0,.05a.46.46,0,0,0-.08.16.54.54,0,0,0,0,.11l0,.07a.31.31,0,0,0,.27.18.41.41,0,0,0,.36-.19l0-.13,0-.11-.09-.1a.37.37,0,0,0-.28-.11Z"/><path class="cls-4" d="M1017.82,615.9l0,.05,0,.06c0,.08,0,.19.2.29s.31,0,.34,0l.05,0,0-.06,0-.06a.25.25,0,0,0-.17-.27.51.51,0,0,0-.38,0Z"/><path class="cls-4" d="M1019.74,620.88l-.08-.15-.11,0-.07.06-.06.1,0,.19v.07l0,.07,0,.06a.31.31,0,0,0,.4,0,.26.26,0,0,0,.28-.21.25.25,0,0,0,0-.12v-.13l-.07-.1a.33.33,0,0,0-.33-.06Z"/><path class="cls-4" d="M1019.42,615.42h0a.36.36,0,0,0-.07.19v.17l0,.08.05,0a.58.58,0,0,0,.45.15l.08,0,.07-.07.1-.06,0-.06,0-.06a.41.41,0,0,0,0-.11l0,0a.4.4,0,0,0-.16-.39l-.05-.07-.06-.06-.09,0A.42.42,0,0,0,1019.42,615.42Z"/><path class="cls-4" d="M1027.09,620.07a.24.24,0,0,0,.16.27.32.32,0,0,0,.38-.16V620l-.07-.11-.14-.07C1027.15,619.85,1027.1,620,1027.09,620.07Z"/><path class="cls-4" d="M1024.55,617.39l-.1.11a.52.52,0,0,0-.07.2.25.25,0,0,0,.12.28h.08a.3.3,0,0,0,.27,0l.06,0,.07-.08a.36.36,0,0,0,.11-.21h0l0-.13-.07-.08-.09-.05-.11-.08h-.13Z"/><path class="cls-4" d="M1006.53,616.28l0-.08v-.05a.31.31,0,0,0,.06-.14.45.45,0,0,0,0-.16l0-.08-.06-.06-.11-.06a.41.41,0,0,0-.22-.09.25.25,0,0,0-.16.06.24.24,0,0,0-.22.2v.09l0,.11a.31.31,0,0,0,.09.29l.06,0,.06,0h.07a.47.47,0,0,0,.4,0Z"/><path class="cls-4" d="M1024.21,618.43l-.1.06-.07.08,0,.09a.47.47,0,0,0-.07.17v.1l0,.09.11.09a.38.38,0,0,0,.3.06l.08,0,.06,0,.07-.12a.47.47,0,0,0,.08-.19.33.33,0,0,0-.12-.32l-.15,0h0A.35.35,0,0,0,1024.21,618.43Z"/><rect class="cls-3" x="1007.32" y="582.95" width="48.35" height="46.08" transform="translate(8.51 1226.23) rotate(-61.66)"/><path class="cls-4" d="M1046.32,605.76h.06l0,0a.32.32,0,0,0,.08-.09.3.3,0,0,0,0-.26v0l0-.11a.33.33,0,0,0-.26-.05.27.27,0,0,0-.22.15.28.28,0,0,0,0,.28l.11.06a.29.29,0,0,0,.17.1Z"/><path class="cls-4" d="M1037.25,605.63l0,0,0,.05a.45.45,0,0,0,0,.47l.13.06h.11l.14-.1.05-.1,0,0,.07-.06,0-.13-.07-.14a.43.43,0,0,0-.35-.09Z"/><path class="cls-4" d="M1031.82,603.1l0-.09v-.11l0-.1-.07-.08a.51.51,0,0,0-.32,0l-.14,0-.08.09,0,.14a.32.32,0,0,0,.36.22h.07l.1,0Z"/><path class="cls-4" d="M1042.59,587.34a.29.29,0,0,0-.06-.35l-.12-.07h-.12l-.13.07h0a.26.26,0,0,0,0,.31l.11.1.12,0Z"/><path class="cls-4" d="M1023.06,610.87a.28.28,0,0,0,.19.15h.11l.09,0,0-.05.07-.07,0-.08v-.11a.25.25,0,0,0-.26-.19h0l-.08,0-.11,0-.09.09A.36.36,0,0,0,1023.06,610.87Z"/><path class="cls-4" d="M1030.15,602.42v0a.54.54,0,0,0,.09.4l.12.08h.11l.14-.06h.09l.08,0,.07-.05a.56.56,0,0,1,.05-.08v0a.27.27,0,0,0,.13-.13h0v-.06a.43.43,0,0,0,.11-.12.25.25,0,0,0,0-.25l-.09-.06a.3.3,0,0,0-.2-.15l-.1,0-.07,0-.07.07a.69.69,0,0,1,0,.13h0l0,0-.12,0,0,0a.39.39,0,0,0-.19.13Z"/><path class="cls-4" d="M1045.57,597l.06-.06a.28.28,0,0,0,0-.31h0v0a.34.34,0,0,0-.2-.19h-.1l-.08,0-.08.06v0a.28.28,0,0,0,0,.22.35.35,0,0,0,.05.08.26.26,0,0,0,.23.23h.1Z"/><path class="cls-4" d="M1023.44,584.83l0,0,0,0a.27.27,0,0,0-.06-.33l-.08-.08-.1,0h-.11a.32.32,0,0,0-.14.14.31.31,0,0,0,0,.31.31.31,0,0,0,.31.12Z"/><path class="cls-4" d="M1051.77,599.12a.24.24,0,0,0,.09-.06l0-.09v-.12a.29.29,0,0,0-.24-.3l-.09,0-.08,0-.09.09a.51.51,0,0,0-.12.13.58.58,0,0,0,0,.18l.13.14h0v0a.25.25,0,0,0,.22.06A.23.23,0,0,0,1051.77,599.12Z"/><path class="cls-4" d="M1030.49,586.19l0-.11,0-.1h0a.31.31,0,0,0-.25-.32l-.13,0-.12.12,0,0a.32.32,0,0,0,0,.16.29.29,0,0,0,0,.13l0,.07,0,.06.07,0A.37.37,0,0,0,1030.49,586.19Z"/><path class="cls-4" d="M1027.84,584a.34.34,0,0,0,.16,0,.39.39,0,0,0,.1-.08.2.2,0,0,0,.16-.12l0,0v-.14l0-.08a.3.3,0,0,0-.14-.21.37.37,0,0,0-.31-.05.44.44,0,0,0-.27.21.4.4,0,0,0,.12.52l.1,0Z"/><path class="cls-4" d="M1036.48,589.14v.14l0,.08.07.08,0,0h.1l.11,0a.37.37,0,0,0,.1-.07l0-.15,0-.07h0a.22.22,0,0,0-.17-.21.23.23,0,0,0-.25.09v0Z"/><path class="cls-4" d="M1039.85,600.15h0a.34.34,0,0,0,0,.16.24.24,0,0,0,0,.15h0a.25.25,0,0,0,.05.31l.12,0,.06,0h.12l0,0,.12,0,.16-.08-.12-.09h0l.16,0,.11-.12,0-.15a.31.31,0,0,0,0-.26l0-.05-.09-.08a.28.28,0,0,0-.14-.1l-.13-.08h-.13a.21.21,0,0,0-.27.1A.17.17,0,0,0,1039.85,600.15Z"/><path class="cls-4" d="M1045.7,593.37a.88.88,0,0,0,0,.15v.09l0,.07,0,.07a.32.32,0,0,0,.43,0l.08-.06,0-.08,0-.1a.23.23,0,0,0-.07-.13v0l-.08-.1A.31.31,0,0,0,1045.7,593.37Z"/><path class="cls-4" d="M1032.63,598.36h0a.27.27,0,0,0,.17-.06h0l.07,0,.06,0,.07-.08a.35.35,0,0,0,0-.18h0l0-.09v-.1a.53.53,0,0,0-.68-.21l-.11.13v0l0,.07v0l0,.08a.26.26,0,0,0,0,.14l0,.13a.33.33,0,0,0,.21.19Z"/><path class="cls-4" d="M1054.19,609l.07,0a.29.29,0,0,0,.28-.13l0-.1,0-.09v-.09h-.07l.07,0,0-.09-.09-.09a.16.16,0,0,1,.06,0,.34.34,0,0,0-.27-.26h0a.62.62,0,0,0-.38.15l0,.08,0,.08,0,0,0,.12,0,.1.08.08.09.08.11.1Z"/><path class="cls-4" d="M1015.74,587.49l.09,0a.62.62,0,0,0,.14-.14.25.25,0,0,0,0-.19.26.26,0,0,0-.16-.17h-.11l-.09,0-.09.07-.07.13v.11l0,.09.09.1.08,0Z"/><path class="cls-4" d="M1026.24,593v-.11l0-.1-.07-.08,0,0a.38.38,0,0,0-.25-.19h-.08a.28.28,0,0,0-.18.14.27.27,0,0,0,0,.21h0V593l.1.14A.36.36,0,0,0,1026.24,593Z"/><path class="cls-4" d="M1021.86,595l.06-.09,0-.1,0-.11a.44.44,0,0,0-.4-.23l0,0h0a.34.34,0,0,0-.26.15v.16l0,.07a.25.25,0,0,0,.13.21l.07,0A.57.57,0,0,0,1021.86,595Z"/><path class="cls-4" d="M1030.44,597.05l.07,0,0,0a.32.32,0,0,0,.1-.1l0-.1v-.07l0-.05,0-.07a.35.35,0,0,0-.29-.14.26.26,0,0,0-.21.11l0,.07v.15a.35.35,0,0,0,.14.28.27.27,0,0,0,.25,0Z"/><path class="cls-4" d="M1031,590.25l.08,0,.06-.06,0-.07a.39.39,0,0,0,0-.34l-.07-.07a.38.38,0,0,0-.42,0l-.06.08,0,.09v.09a.31.31,0,0,0,.26.36Z"/><path class="cls-4" d="M1037.51,597l0,0a.24.24,0,0,0,.15-.09l0-.06v-.13l0-.07v0l0-.11-.08-.1a.26.26,0,0,0-.37.09h0a.35.35,0,0,0-.11.1l0,0,0,.16.09.1a.24.24,0,0,0,.21.12Z"/><path class="cls-4" d="M1044.47,600.25a.24.24,0,0,0,.4.13l0-.13v-.11h-.06l.07,0a.29.29,0,0,0-.15-.24.25.25,0,0,0-.25,0l-.07.13v.12Z"/><path class="cls-4" d="M1054.83,591.7l.14-.07.07-.14v-.14l-.07-.11a.28.28,0,0,0-.17-.15h-.09l-.07,0-.08,0,0,0a.26.26,0,0,0,0,.14h0v.08l0,.11.1.11h0l.08.06Z"/><path class="cls-4" d="M1032.33,581a.29.29,0,0,0,.22-.14l0-.09v-.07l0-.1a.43.43,0,0,0-.09-.2l-.12,0h-.12l-.11.07,0,.06c-.17.31,0,.47.09.53h.13Z"/><path class="cls-4" d="M1026.06,629.55l0,.07v.09l0,.09.06.07a.3.3,0,0,0,.24.06c.08,0,.14-.07.21-.2h0v-.08l0-.08,0-.07a.32.32,0,0,0-.24-.1A.3.3,0,0,0,1026.06,629.55Z"/><path class="cls-4" d="M1026.66,618.87l.07-.07,0,0,0-.1,0-.11a.29.29,0,0,0-.08-.11l-.14,0-.11,0-.09.08a.28.28,0,0,0,.15.39h.1Z"/><path class="cls-4" d="M1030.67,620.45a.39.39,0,0,0,.21-.19.29.29,0,0,0-.09-.41h0a.27.27,0,0,0-.31,0l-.06.07a.19.19,0,0,0,0,.12l0,.1.05.15.06.08.07,0,.07,0Z"/><path class="cls-4" d="M1020.46,617.27l0,0,0,0,0-.06a.37.37,0,0,0,0-.34.41.41,0,0,0-.32-.21h-.09l-.07,0-.09.08a.52.52,0,0,0-.13.13l0,.08V617l0,.07a.48.48,0,0,0,.47.22Z"/><path class="cls-4" d="M1024,619.35l0-.08v-.1l0-.09-.07-.08-.13-.07-.09,0-.09,0-.09.05a.52.52,0,0,0-.12.16.31.31,0,0,0,0,.3l.06.07a.35.35,0,0,0,.28.06A.43.43,0,0,0,1024,619.35Z"/><path class="cls-4" d="M1006.85,609.35l0-.12,0-.13a.31.31,0,0,0-.08-.15l-.13,0-.11,0-.07,0,.06.13-.07-.12-.07.13v.13l.11.13A.26.26,0,0,0,1006.85,609.35Z"/><path class="cls-4" d="M1014.53,608.82v-.2l-.06-.08a.27.27,0,0,0-.26-.07.32.32,0,0,0-.21.15l0,.06v.11l0,.08.07.08A.33.33,0,0,0,1014.53,608.82Z"/><path class="cls-4" d="M1037.47,622.42v-.08l0,.08.09,0,.09-.09a.39.39,0,0,0-.13-.45l-.1,0h-.09l-.1,0,0,.06a.62.62,0,0,0,0,.45l.11,0Z"/><path class="cls-4" d="M1020.27,614.77l.08,0,.06-.06,0-.08v-.12l0-.1-.1-.09a.26.26,0,0,0-.35,0l0,.09v.1a.28.28,0,0,0,.25.27Z"/><path class="cls-4" d="M1016,594a.31.31,0,0,0,0-.23l-.06-.09,0,0c-.09-.06-.28-.11-.44.16l0,.07,0,0V594l0,.08a.29.29,0,0,0,.26.08A.29.29,0,0,0,1016,594Z"/><path class="cls-4" d="M1035,625.58a.38.38,0,0,0,0-.15v-.09l0-.07-.06-.06-.08,0-.1,0-.08,0-.11.09,0,.06,0,0,0,.06v.09l0,.08,0,.07a.35.35,0,0,0,.26.05A.29.29,0,0,0,1035,625.58Z"/><path class="cls-4" d="M1029.1,625.85l0-.14,0-.07a.25.25,0,0,0-.14-.22l-.07,0h-.07l-.08,0a.24.24,0,0,0-.1.1.29.29,0,0,0,.1.37A.26.26,0,0,0,1029.1,625.85Z"/><path class="cls-4" d="M1020.41,626.69l.07.12.13.07h.11l.1,0,.1-.09,0-.06v-.1a.29.29,0,0,0-.19-.2.33.33,0,0,0-.29,0l-.06.13Z"/><path class="cls-4" d="M1008.63,614.23h0v0a.27.27,0,0,0,.29-.08h0l0,0,0,0a.38.38,0,0,0-.24-.57h-.12l-.08,0a.29.29,0,0,0-.19.13l0,.1h0l0,0a.24.24,0,0,0,.07.31l.08,0Z"/><path class="cls-4" d="M1008.36,620.9a.22.22,0,0,0,.16-.1.27.27,0,0,0,.17-.13.61.61,0,0,0,0-.42l0-.06,0-.06a.46.46,0,0,0-.38-.1.42.42,0,0,0-.28.24l-.05.1v.08l0,.08,0,.07,0,.06A.34.34,0,0,0,1008.36,620.9Z"/><path class="cls-4" d="M1014.75,604.88a.42.42,0,0,0,0,.24l0,.06,0,.05.06,0c.29.15.42,0,.46-.09l0-.07V605l0-.09-.07-.06a.32.32,0,0,0-.12-.11h-.1l-.09,0-.08,0Z"/><path class="cls-4" d="M1013.61,614.94l0,0,0-.06h0a.27.27,0,0,0,0-.24.22.22,0,0,0,0-.13l-.05,0-.07,0h-.06a.27.27,0,0,0-.34,0l0,.05a.38.38,0,0,0,0,.41.35.35,0,0,0,.38.11Z"/><path class="cls-4" d="M1018.44,621.63a.2.2,0,0,0,.24-.09.28.28,0,0,0,.12-.1.23.23,0,0,0,0-.2l0,0,0,0-.08-.06a.32.32,0,0,0-.13-.13l-.1,0h-.09l-.08,0-.06,0-.06.07a.44.44,0,0,0,.1.55l.13,0Z"/><path class="cls-4" d="M1037.92,630h0a.29.29,0,0,0-.11.11h0l0,0a.25.25,0,0,0,0,.26l0,0,.09,0,.11,0,.16.05.11,0,.08-.06.07-.14a.36.36,0,0,0-.25-.48A.21.21,0,0,0,1037.92,630Z"/><path class="cls-4" d="M1015.31,617.93l-.07-.2,0,0h0l-.11-.06h0l0,0-.2.06a.27.27,0,0,0,.11.37.3.3,0,0,0,.21,0A.28.28,0,0,0,1015.31,617.93Z"/><path class="cls-4" d="M1020.54,602.21l.06.11h0a.31.31,0,0,0,.18.15.23.23,0,0,0,.18,0l.12,0,.1-.08a.3.3,0,0,0,0-.16h0v-.07h0V602l-.06-.09a.36.36,0,0,0-.32-.07.41.41,0,0,0-.28.19A.4.4,0,0,0,1020.54,602.21Z"/><path class="cls-4" d="M1030.85,608.72l.05,0h0l.07,0,0,0,0-.06,0-.06h0l.06-.09,0-.11a.35.35,0,0,0-.09-.15l0-.06-.17-.09a.28.28,0,0,0-.24,0h0a.25.25,0,0,0-.19.12.24.24,0,0,0,0,.23l0,0,0,.08,0,.08v0a.24.24,0,0,0,.15.13Z"/><path class="cls-4" d="M1024.18,605h0l.09,0,.07-.07a.3.3,0,0,0,.19-.14.23.23,0,0,0,0-.18h0l0-.12a.08.08,0,0,0,0,0,.37.37,0,0,0-.08-.18l-.12,0h0l-.09-.06-.1,0H1024l-.13,0a.88.88,0,0,0-.24.26l0,.05v.16l.05.08,0,0a.2.2,0,0,0,0,.09h0v0l0,.08.06.07A.42.42,0,0,0,1024.18,605Z"/><path class="cls-4" d="M1013.91,598.78l.11,0,.06-.08a.31.31,0,0,0-.09-.39.28.28,0,0,0-.37.08l0,.09v.09l0,.11a.24.24,0,0,0,.06.09l.11,0Z"/><path class="cls-4" d="M1038.12,610.48v-.05l0,0,0-.06.07-.1v-.1l0-.14a.55.55,0,0,0-.19-.18h0a.2.2,0,0,0-.23,0h0l-.09,0a.32.32,0,0,0-.11.12.16.16,0,0,0,0,.09.36.36,0,0,1,0,.07l0,.09,0,.08,0,.08a.6.6,0,0,0,.42.17Z"/><path class="cls-4" d="M1031.79,611.64a.26.26,0,0,0,.11-.07.21.21,0,0,0,.1-.06.54.54,0,0,0,.09-.12.61.61,0,0,0,.05-.43l0-.06,0,0-.06,0a.56.56,0,0,0-.68.31l0,.06v.12a.41.41,0,0,0,.07.11.26.26,0,0,0,.1.14h.09A.26.26,0,0,0,1031.79,611.64Z"/><path class="cls-4" d="M1044.68,613.6l-.06.07,0,.12v.1l0,.07.07.08.13.07h.11l.09,0,.09-.07.06-.11,0-.06v-.06l0-.07a.37.37,0,0,0-.23-.21h-.09l-.08,0Z"/><path class="cls-4" d="M1032.58,605.69l.11,0v0a.26.26,0,0,0,.19,0,.37.37,0,0,0,.12-.13.36.36,0,0,0,0-.11s0,0,0,0v-.1l0-.09,0-.07a.39.39,0,0,0-.27-.08l-.13,0-.08.07,0,0a.42.42,0,0,0-.15.15l0,.07v.1l0,.09.08.08,0,0Z"/><path class="cls-4" d="M1011,603.54a.21.21,0,0,0,.17,0,.18.18,0,0,0,.09-.06.21.21,0,0,0,.14-.1.32.32,0,0,0,0-.14v-.06l0-.06a.38.38,0,0,0-.23-.28H1011l-.07,0a.6.6,0,0,0-.16.19.38.38,0,0,0,0,.4l.12.07h.08Z"/><path class="cls-4" d="M1040.24,620a.23.23,0,0,0-.18.09l0,.13v0a.23.23,0,0,0,0,.21.25.25,0,0,0,.12.1.34.34,0,0,0,.44-.15.48.48,0,0,0,0-.18v-.06l0-.05,0-.06A.32.32,0,0,0,1040.24,620Z"/><path class="cls-4" d="M1048.83,622.15l.07,0,.07,0a1,1,0,0,0,.12-.17.39.39,0,0,0,0-.32.4.4,0,0,0-.25-.22h-.12l-.08,0-.07.06h0l-.08.07,0,.09v.14a.37.37,0,0,0,.31.37Z"/><path class="cls-4" d="M1043.13,621.8H1043l-.08,0-.06.08a.39.39,0,0,0,.05.43.23.23,0,0,0,.28,0l0,0,.06,0,.1-.07a.48.48,0,0,0,0-.36l-.05-.06,0,0-.07,0Z"/><path class="cls-4" d="M1024.44,599.88l.08,0,.06,0a.32.32,0,0,0,.11-.12.3.3,0,0,0,0-.09v-.06a.29.29,0,0,0-.18-.25.37.37,0,0,0-.37.06l-.06.1v.11l.05.12a.35.35,0,0,0,.21.18Z"/><path class="cls-4" d="M1027.32,613.86l0,0,0-.05c0-.06,0-.16-.09-.31a.39.39,0,0,0-.3-.09l-.06,0,0,0,0,0a.23.23,0,0,0,.06.29s.18.15.33.11Z"/><path class="cls-4" d="M1027.17,608.91l0,.16h.1l.09,0,.08-.07.08-.16,0-.07v-.12a.3.3,0,0,0-.35-.15.23.23,0,0,0-.3.09.26.26,0,0,0,0,.11v0l0,.1,0,.11a.41.41,0,0,0,.28.16Z"/><path class="cls-4" d="M1025.78,613.78h0a.58.58,0,0,0,.12-.14l0-.07,0-.08,0-.09,0,0a.52.52,0,0,0-.35-.27h-.08l-.08,0-.11,0,0,.05,0,0,0,.1-.05,0a.38.38,0,0,0,0,.39l0,.08,0,.07.06.05A.41.41,0,0,0,1025.78,613.78Z"/><path class="cls-4" d="M1020.5,607.37a.23.23,0,0,0-.06-.29.32.32,0,0,0-.39,0l0,.15,0,.12.11.11C1020.38,607.54,1020.47,607.42,1020.5,607.37Z"/><path class="cls-4" d="M1021.89,610.49l.13-.07a.49.49,0,0,0,.12-.15.22.22,0,0,0,0-.28l-.07,0a.28.28,0,0,0-.22-.11h-.06l-.09,0a.31.31,0,0,0-.16.15h0v.13l0,.09.06.07.08.1.1,0Z"/><path class="cls-4" d="M1037.3,617l0,.06,0,0a.37.37,0,0,0-.09.11.58.58,0,0,0-.05.14l0,.09,0,.07.07.08a.41.41,0,0,0,.18.15.19.19,0,0,0,.15,0,.23.23,0,0,0,.25-.11l0-.09a.22.22,0,0,0,0-.08.29.29,0,0,0,0-.28l-.05,0,0,0,0,0a.45.45,0,0,0-.35-.11Z"/><path class="cls-4" d="M1022.51,609.69l.11,0,.08,0,0-.07a.69.69,0,0,0,.11-.12l0-.1v-.09l-.07-.11a.36.36,0,0,0-.24-.15h-.08l-.07,0-.1.08a.6.6,0,0,0-.13.14.31.31,0,0,0,0,.32l.12.07h0A.53.53,0,0,0,1022.51,609.69Z"/><rect class="cls-3" x="1018.85" y="561.88" width="43.59" height="41.54" transform="translate(-124.14 326.35) rotate(-16.83)"/><path class="cls-4" d="M1031,573.37l0,0,0,0h-.11a.23.23,0,0,0-.16.17l0,0,0,.1a.3.3,0,0,0,.13.2.3.3,0,0,0,.24,0,.25.25,0,0,0,.17-.19l0-.11a.3.3,0,0,0,0-.17Z"/><path class="cls-4" d="M1036.74,579.22h.11a.42.42,0,0,0,.27-.34l0-.12-.08-.07-.15,0-.11,0v0h-.08l-.09.07,0,.13a.41.41,0,0,0,.17.28Z"/><path class="cls-4" d="M1038.6,584.29l-.08,0-.08.07,0,.08v.11a.44.44,0,0,0,.19.21l.11.06h.11l.11-.07a.28.28,0,0,0-.09-.37h0l0,0-.08-.05Z"/><path class="cls-4" d="M1021.7,587.53a.25.25,0,0,0-.18.25l0,.13.07.08.13,0h0a.26.26,0,0,0,.17-.22v-.14l-.06-.09Z"/><path class="cls-4" d="M1049.15,584.89a.31.31,0,0,0,0-.22l-.07-.06-.09,0h-.14l-.08,0-.07.06a.22.22,0,0,0,0,.28h0l0,.06.09.05h.11A.3.3,0,0,0,1049.15,584.89Z"/><path class="cls-4" d="M1039.24,585.79l0,0a.43.43,0,0,0,.19-.31l0-.12-.07-.08-.12-.06-.06-.05-.06,0h-.08l-.08,0h0a.32.32,0,0,0-.17,0h0l0,0h-.15a.22.22,0,0,0-.15.16l0,.09a.25.25,0,0,0,0,.23l.07.05.07,0h.09l.12-.05h0l0,.05.11,0h0a.4.4,0,0,0,.2,0Z"/><path class="cls-4" d="M1025.94,579.45h-.08a.28.28,0,0,0-.19.21h0v0a.26.26,0,0,0,0,.24l.06.07.07,0h.1a.24.24,0,0,0,.16-.13l0-.08a.25.25,0,0,0,0-.3l-.07,0Z"/><path class="cls-4" d="M1032.36,601.3h0l0,0a.24.24,0,0,0-.18.24v.1l0,.09.08.07a.48.48,0,0,0,.17,0,.26.26,0,0,0,.06-.48Z"/><path class="cls-4" d="M1023.33,574.16a.16.16,0,0,0-.1,0l-.08,0-.08.07a.28.28,0,0,0,0,.35l.07,0,.08,0h.26a.34.34,0,0,0,.14-.09v-.17l0,0h0a.27.27,0,0,0-.11-.19A.16.16,0,0,0,1023.33,574.16Z"/><path class="cls-4" d="M1028.72,596l-.09.06-.05.08h0a.28.28,0,0,0,0,.35l.11.07h.19a.24.24,0,0,0,.13-.08.2.2,0,0,0,.09-.07l0-.07v-.14A.33.33,0,0,0,1028.72,596Z"/><path class="cls-4" d="M1029,599a.31.31,0,0,0-.12-.09.17.17,0,0,0-.12,0,.18.18,0,0,0-.17,0l0,0,0,.05,0,0,0,.07a.29.29,0,0,0,0,.23.33.33,0,0,0,.17.23.41.41,0,0,0,.31,0,.36.36,0,0,0,.25-.4l-.05-.09Z"/><path class="cls-4" d="M1026.76,590.25h0l.07-.07,0-.07V590l-.06-.08-.09,0a.2.2,0,0,0-.11,0l-.11.07,0,.07h0a.22.22,0,0,0,0,.24.23.23,0,0,0,.22.1l0,0Z"/><path class="cls-4" d="M1031.6,581.07h0a.32.32,0,0,0,.13-.07.31.31,0,0,0,.07-.12h0a.23.23,0,0,0,.16-.23l-.06-.1,0,0-.08-.08v0l-.06-.09-.16-.05,0,.13h0l-.07-.13h-.15l-.11.08a.28.28,0,0,0-.15.18v.05a.45.45,0,0,0,0,.11.32.32,0,0,0,0,.15l0,.14.09.08a.21.21,0,0,0,.24.11A.15.15,0,0,0,1031.6,581.07Z"/><path class="cls-4" d="M1023.55,581.69l.13-.06.05-.06,0-.06v-.07a.29.29,0,0,0-.26-.28h-.1l-.07,0-.08.06a.27.27,0,0,0,0,.12l0,0,0,.12A.29.29,0,0,0,1023.55,581.69Z"/><path class="cls-4" d="M1035.08,586.81l0,0a.21.21,0,0,0-.15-.07l0,0-.06,0-.06,0h-.09a.31.31,0,0,0-.14.09h0l-.07,0-.06.08c-.11.34.21.51.31.56l.14,0h.12l.06,0a.2.2,0,0,0,.06-.11l.06-.11a.31.31,0,0,0,0-.25Z"/><path class="cls-4" d="M1028,566.31l-.06,0a.26.26,0,0,0-.26-.1l-.1,0-.07,0,0,.07,0,0,0,0,0,.08v.11a.16.16,0,0,1,0-.07.3.3,0,0,0,0,.34l0,0a.67.67,0,0,0,.33.14l.09,0,.06,0h0l.08-.07,0-.08v-.1a.37.37,0,0,1,0-.11.71.71,0,0,0,0-.14Z"/><path class="cls-4" d="M1039,604.5l-.09,0a.32.32,0,0,0-.17,0,.21.21,0,0,0-.13.11.26.26,0,0,0,0,.21l.06.08.08,0h.1l.13,0,.07-.07,0-.08v-.12l0-.06Z"/><path class="cls-4" d="M1035.76,594.29l-.08.07,0,.08v.11a.1.1,0,0,1,0,0,.34.34,0,0,0,0,.28l0,.05a.24.24,0,0,0,.2,0,.25.25,0,0,0,.15-.13h0l.07-.07,0-.15A.34.34,0,0,0,1035.76,594.29Z"/><path class="cls-4" d="M1039.84,595.79l-.1,0-.07.05-.05.08c0,.24,0,.35.11.4h0v0a.31.31,0,0,0,.27.06h0l.07-.08,0-.07a.3.3,0,0,0,0-.22l0-.06A.61.61,0,0,0,1039.84,595.79Z"/><path class="cls-4" d="M1035.64,589l-.05,0h-.17l-.09.05,0,0,0,0v.08a.35.35,0,0,0,.1.28.26.26,0,0,0,.2.05l.06,0,0,0,0-.06a.31.31,0,0,0,.09-.27.28.28,0,0,0-.15-.17Z"/><path class="cls-4" d="M1031,593.05l-.08,0h-.08l-.07,0a.33.33,0,0,0-.23.2v.09c0,.2.16.27.25.28h.09l.07,0,0-.06a.28.28,0,0,0,.06-.4Z"/><path class="cls-4" d="M1031.09,584.58h0a.22.22,0,0,0-.16,0l-.05,0,0,0,0,0,0,.06h0l-.06.08v.12a.23.23,0,0,0,.29.18h0a.22.22,0,0,0,.14,0l0,0,.08-.12v-.13a.21.21,0,0,0,0-.21Z"/><path class="cls-4" d="M1028.71,578.08a.25.25,0,0,0,0-.24.2.2,0,0,0-.18-.1l-.1,0-.06.08,0,0-.06,0a.26.26,0,0,0-.06.25.26.26,0,0,0,.18.15l.13,0,.07-.08Z"/><path class="cls-4" d="M1016.65,577l-.13,0-.13,0-.09.09,0,.11a.23.23,0,0,0,0,.2l.06.06.06,0h.13c.07,0,.11-.07.1-.07h0l.06,0,0-.08,0-.13h0V577Z"/><path class="cls-4" d="M1024.21,598.12a.25.25,0,0,0-.23-.06l-.06.05,0,0,0,.08a.5.5,0,0,0-.07.19l0,.11.08.07.12,0,0,0c.32-.09.31-.28.29-.39l-.08-.09Z"/><path class="cls-4" d="M1059.1,571l.06,0,.07-.06,0-.07v-.08a.25.25,0,0,0-.12-.19.28.28,0,0,0-.26,0h0l-.06,0,0,.06,0,.07a.26.26,0,0,0,.1.22A.27.27,0,0,0,1059.1,571Z"/><path class="cls-4" d="M1051.93,577.49h-.09l0,0-.08,0,0,.09a.71.71,0,0,0,0,.12l.07.11.1,0h.1a.26.26,0,0,0,.17-.15.21.21,0,0,0,0-.19l-.07-.06Z"/><path class="cls-4" d="M1050.36,573.93a.32.32,0,0,0-.25,0,.27.27,0,0,0-.2.32l0,0a.23.23,0,0,0,.2.19h.08l.1,0,.08,0,.06-.13a.28.28,0,0,0,0-.09V574l0-.06Z"/><path class="cls-4" d="M1054.87,582.45h-.11l-.06,0a.28.28,0,0,0-.22.2.36.36,0,0,0,.06.34l.07,0,.06,0h.11a.52.52,0,0,0,.17,0l.06,0,0,0,0-.07a.42.42,0,0,0-.16-.43Z"/><path class="cls-4" d="M1054,578.9l-.07,0-.07.07,0,.07v.1l0,.13,0,.07.06,0,.1,0a.62.62,0,0,0,.18,0,.28.28,0,0,0,.19-.18v-.09a.29.29,0,0,0-.14-.21A.32.32,0,0,0,1054,578.9Z"/><path class="cls-4" d="M1058.54,596.16l-.09.05-.08.1a.29.29,0,0,0,0,.14l.06.11.08.06.08,0,0-.13,0,.13.13,0,.07-.09,0-.15A.23.23,0,0,0,1058.54,596.16Z"/><path class="cls-4" d="M1053.3,591.62l-.08.06,0,.07,0,.09a.28.28,0,0,0,.13.21.27.27,0,0,0,.23,0l0,0,.07-.07,0-.08v-.09A.29.29,0,0,0,1053.3,591.62Z"/><path class="cls-4" d="M1047.27,568.35l0,0,0-.07-.07,0h-.12a.36.36,0,0,0-.2.37l.05.08.06.06.09,0h.07a.24.24,0,0,0,.14-.12.22.22,0,0,0,.11-.21l0-.09Z"/><path class="cls-4" d="M1053.4,584.17l-.07,0h-.07l-.08,0-.08.07,0,.08v.13c.06.18.18.2.24.19l.08,0,.07-.06a.25.25,0,0,0,0-.33Z"/><path class="cls-4" d="M1043,600.15a.26.26,0,0,0-.17.13l0,.09v0c0,.09.11.24.38.18l0-.06h0l0-.06,0-.09a.3.3,0,0,0-.12-.21A.26.26,0,0,0,1043,600.15Z"/><path class="cls-4" d="M1050.88,567.92a.67.67,0,0,0-.12.06l0,.07,0,.07v.08l0,.07.06.08.06,0h.13l0,0h.06l0,0,.06-.06,0-.07v-.08a.32.32,0,0,0-.13-.2A.3.3,0,0,0,1050.88,567.92Z"/><path class="cls-4" d="M1054.8,571.47l-.1.07,0,.07a.24.24,0,0,0-.05.23l0,.06,0,0,.06,0h.14a.25.25,0,0,0,.16-.3A.24.24,0,0,0,1054.8,571.47Z"/><path class="cls-4" d="M1060.9,576.46l0-.12,0-.13-.06-.08-.08,0h-.12l0,0,0,0,0,0a.23.23,0,0,0,0,.24.25.25,0,0,0,.2.16l.12,0Z"/><path class="cls-4" d="M1060.51,591.91l0,0h0a.24.24,0,0,0-.23-.14h-.11a.34.34,0,0,0-.23.18.39.39,0,0,0,0,.33l.08.08.07,0a.24.24,0,0,0,.2,0,.2.2,0,0,0,.09,0h0s.15-.06.15-.23l0-.07Z"/><path class="cls-4" d="M1064.92,587.82a.23.23,0,0,0-.17,0,.24.24,0,0,0-.19,0,.57.57,0,0,0-.27.26l0,.06v.06a.41.41,0,0,0,.18.31.39.39,0,0,0,.34,0l.09,0,.06-.05,0-.06,0-.07,0-.06A.31.31,0,0,0,1064.92,587.82Z"/><path class="cls-4" d="M1050.65,594a.35.35,0,0,0,.19-.12l0-.06v-.12c-.09-.28-.27-.26-.35-.23l-.06,0-.07.08,0,.09v.08a.31.31,0,0,0,0,.15l0,.07.07,0,.09,0Z"/><path class="cls-4" d="M1057.78,588.3h-.12v0h0a.25.25,0,0,0-.17.14.22.22,0,0,0-.06.1v.07l0,.07,0,0h0a.23.23,0,0,0,.24.19h0a.35.35,0,0,0,.25-.29.34.34,0,0,0-.18-.31Z"/><path class="cls-4" d="M1058.94,581a.18.18,0,0,0-.21-.1.22.22,0,0,0-.14,0,.24.24,0,0,0-.14.12v.18a.52.52,0,0,0,0,.17l0,.08.07.05.06,0,.06,0h.08a.41.41,0,0,0,.29-.42l-.07-.1Z"/><path class="cls-4" d="M1051.8,563.22h0a.23.23,0,0,0,.14,0h.08a.22.22,0,0,0,.15-.19v0l0-.08a.31.31,0,0,1-.05-.1,1.25,1.25,0,0,0-.08-.12l-.08-.06-.09,0-.13,0a.33.33,0,0,0-.15.47A.2.2,0,0,0,1051.8,563.22Z"/><path class="cls-4" d="M1058.59,585.31l-.09.17,0,0h0l0,.11h0v0l.16.09a.23.23,0,0,0,.17-.3.23.23,0,0,0-.12-.15A.23.23,0,0,0,1058.59,585.31Z"/><path class="cls-4" d="M1045.25,592l0-.11v0h0a.46.46,0,0,0,0-.22.22.22,0,0,0-.12-.11l-.09-.06-.11,0a.24.24,0,0,0-.13.08h0l0,0h0l-.06.07,0,.1a.35.35,0,0,0,.16.25.36.36,0,0,0,.3.05A.26.26,0,0,0,1045.25,592Z"/><path class="cls-4" d="M1042.8,581.31h0l0,0-.06,0h-.12l-.06,0h0l-.09,0-.09.06a.29.29,0,0,0,0,.15l0,0,0,.17a.22.22,0,0,0,.15.15l0,0a.21.21,0,0,0,.2,0,.23.23,0,0,0,.14-.15l0,0,0-.08a.25.25,0,0,0,0-.07l0,0a.23.23,0,0,0,0-.18Z"/><path class="cls-4" d="M1044.71,587.92h0l0,0-.08,0h-.09a.26.26,0,0,0-.21,0,.19.19,0,0,0-.13.1h0l-.07.1v0a.27.27,0,0,0-.06.17l0,.1,0,0a.44.44,0,0,0,0,.1l0,.08,0,.05.12,0a.66.66,0,0,0,.31,0l0,0,.06,0,0-.06,0-.07a.13.13,0,0,1,0-.06l0-.07h0l0,0,0-.07v-.09A.34.34,0,0,0,1044.71,587.92Z"/><path class="cls-4" d="M1047.31,598.43l-.09,0-.09,0a.25.25,0,0,0-.19.3.25.25,0,0,0,.28.19l.08,0,0-.05,0-.11a.3.3,0,0,0,0-.1l0-.09Z"/><path class="cls-4" d="M1039.27,575.57l0,0v0h-.07l-.1,0-.08.06-.06.11a.46.46,0,0,0,0,.23h0a.19.19,0,0,0,.14.14l0,0,.07,0h.16l.07,0,.07,0,.06,0,0-.06,0-.08a.52.52,0,0,0-.16-.37Z"/><path class="cls-4" d="M1044.05,578.85a.14.14,0,0,0-.11,0,.2.2,0,0,0-.11,0l-.12,0a.52.52,0,0,0-.31.24l0,.06v.06l0,.06a.51.51,0,0,0,.63.24l0,0,0,0,0,0a.23.23,0,0,0,0-.11.2.2,0,0,0,0-.15l0-.07A.26.26,0,0,0,1044.05,578.85Z"/><path class="cls-4" d="M1037.06,569.41l.08,0a.19.19,0,0,0,.1,0l.06-.06,0-.07v-.09l0-.13-.06-.08-.08,0h-.1l-.11,0,0,0,0,0,0,0a.37.37,0,0,0,0,.29l.05.06.06,0Z"/><path class="cls-4" d="M1039.76,582.15l-.08,0h0a.22.22,0,0,0-.15-.09.29.29,0,0,0-.16,0l-.1,0,0,0-.06.06,0,.06,0,.09a.32.32,0,0,0,.13.22l.1.06h.14a.32.32,0,0,0,.19,0l.06,0,.06-.07,0-.07v-.11h0Z"/><path class="cls-4" d="M1052.2,597.23a.32.32,0,0,0-.12-.1l-.1,0a.2.2,0,0,0-.15,0,.34.34,0,0,0-.11.07l0,.05,0,0a.38.38,0,0,0,0,.33l0,.06,0,0,.07,0a.93.93,0,0,0,.23,0,.35.35,0,0,0,.24-.27l0-.11,0,0Z"/><path class="cls-4" d="M1044,568.12a.22.22,0,0,0,.17,0l.1-.06,0,0a.26.26,0,0,0,.11-.16.19.19,0,0,0,0-.14.29.29,0,0,0-.37-.18.39.39,0,0,0-.14.08l0,.05,0,0v.06A.29.29,0,0,0,1044,568.12Z"/><path class="cls-4" d="M1039.84,561.3l-.06,0h-.07a.63.63,0,0,0-.19,0,.34.34,0,0,0-.23.18.36.36,0,0,0,0,.3l.07.07.09,0h.08l0,0h.09l.08,0,.09-.09a.35.35,0,0,0,0-.44Z"/><path class="cls-4" d="M1043.26,565.15l0,0,.06.05.08,0h.09a.34.34,0,0,0,.24-.31.22.22,0,0,0-.15-.21h0l0,0h-.11a.4.4,0,0,0-.25.2V565l0,.07A.27.27,0,0,0,1043.26,565.15Z"/><path class="cls-4" d="M1041.28,591l-.06,0-.06,0a.43.43,0,0,0-.15,0l-.08,0,0,0a.29.29,0,0,0,0,.27.36.36,0,0,0,.27.2l.11,0,.07-.06,0-.11a.32.32,0,0,0,0-.25Z"/><path class="cls-4" d="M1048.32,580.27h-.11c-.06,0-.14.07-.14.25s.11.24.14.25l0,0h.11c.05,0,.14-.06.14-.22,0,0,0-.21-.14-.28Z"/><path class="cls-4" d="M1045.28,583.53l.07-.12-.06-.06-.08,0h-.09l-.16,0,0,0,0,0,0,.05a.25.25,0,0,0,.13.31.21.21,0,0,0,.25.14l.09-.06h0l.08-.05.06-.09a.36.36,0,0,0-.08-.27Z"/><path class="cls-4" d="M1049.26,581.3h0a.35.35,0,0,0-.17,0l-.06,0-.06,0,0,.06,0,0a.51.51,0,0,0,0,.4l.06.05.07,0,.08,0h.12l.08,0h0a.33.33,0,0,0,.24-.25l0-.07v-.15A.37.37,0,0,0,1049.26,581.3Z"/><path class="cls-4" d="M1048.56,588.76a.2.2,0,0,0-.15.22.28.28,0,0,0,.26.23l.13-.06.06-.1v-.13C1048.74,588.72,1048.61,588.74,1048.56,588.76Z"/><path class="cls-4" d="M1049.65,585.88l-.12,0a.62.62,0,0,0-.18,0,.22.22,0,0,0-.17.19l0,.07a.24.24,0,0,0,.07.21l0,0,.09,0a.4.4,0,0,0,.2,0h0l.08-.08,0-.08v-.09a.27.27,0,0,0,0-.11l0-.09Z"/><path class="cls-4" d="M1043.92,571.93h.08l0,0a.17.17,0,0,0,.12,0l.12-.06,0-.06,0-.07v-.1a.28.28,0,0,0,0-.2.17.17,0,0,0-.1-.1.19.19,0,0,0-.23-.09l-.07,0h-.09s-.16.06-.19.18v.11l0,.05a.41.41,0,0,0,.15.29Z"/><path class="cls-4" d="M1048.75,586l-.09,0-.09,0-.07,0a.42.42,0,0,0-.15,0l-.07,0,0,.07,0,.11a.32.32,0,0,0,.06.25l0,.05.06,0,.11,0a.5.5,0,0,0,.17,0,.3.3,0,0,0,.2-.21l0-.13,0,0h0A.53.53,0,0,0,1048.75,586Z"/><rect class="cls-3" x="1037.71" y="548.77" width="18.27" height="19.17" transform="translate(-40.04 82.63) rotate(-4.44)"/><path class="cls-4" d="M1051.74,555.1h0v0s0,0,0,0a.11.11,0,0,0,0-.09h0l0,0a.12.12,0,0,0-.1,0,.14.14,0,0,0,0,.1.11.11,0,0,0,.06.09h.13Z"/><path class="cls-4" d="M1048.69,557v0a.18.18,0,0,0,.12.15h0l0,0,0-.07v0h0v0l0,0-.06,0a.16.16,0,0,0-.13,0Z"/><path class="cls-4" d="M1046.34,557.33v0l0,0,0,0h0a.29.29,0,0,0-.11.06l0,.05v0l0,.06a.12.12,0,0,0,.17,0h0l0,0Z"/><path class="cls-4" d="M1046.54,549.76a.11.11,0,0,0-.09-.1h-.06l0,0,0,.06h0a.12.12,0,0,0,.08.1h.06l0,0Z"/><path class="cls-4" d="M1045.08,561.8a.15.15,0,0,0,.1,0l0,0,0,0v-.1l0,0a.11.11,0,0,0-.13,0h0l0,0v.05A.18.18,0,0,0,1045.08,561.8Z"/><path class="cls-4" d="M1045.63,557.46h0c0,.07.07.09.11.12h.06l0,0,0-.05,0,0,0,0,0,0v0h0a.19.19,0,0,0,0-.08h0v0a.15.15,0,0,0,0-.07.1.1,0,0,0,0-.08h-.05a.13.13,0,0,0-.09,0l0,0,0,0v0a.07.07,0,0,1,0,0h0l0,0v0a.19.19,0,0,0,0,.09Z"/><path class="cls-4" d="M1049.61,552.34v0a.12.12,0,0,0-.07-.1h0a.2.2,0,0,0-.11,0l0,0,0,0v0h0a.08.08,0,0,0,0,.07l0,0a.11.11,0,0,0,.13,0l0,0Z"/><path class="cls-4" d="M1039.62,553v0a.11.11,0,0,0-.09-.1h-.09l0,0a.12.12,0,0,0,0,.08.11.11,0,0,0,.08.1.1.1,0,0,0,.12,0Z"/><path class="cls-4" d="M1052.13,551.72a.05.05,0,0,0,0,0v0l0,0a.13.13,0,0,0-.15-.05l0,0,0,0v0a.09.09,0,0,0,0,.07.14.14,0,0,0,0,.07l.07,0h0a.12.12,0,0,0,.09,0A.19.19,0,0,0,1052.13,551.72Z"/><path class="cls-4" d="M1042.26,552v-.05l0,0h0c0-.07-.1-.06-.15,0l0,0,0,.07v0s0,0,0,.06a.08.08,0,0,0,0,0l0,0h.06A.14.14,0,0,0,1042.26,552Z"/><path class="cls-4" d="M1040.91,551.82a.05.05,0,0,0,0,0s0,0,0,0a.11.11,0,0,0,0-.07v0l0,0,0,0a.12.12,0,0,0-.09,0,.17.17,0,0,0-.12.05.17.17,0,0,0,0,.13.16.16,0,0,0,.15.15h0Z"/><path class="cls-4" d="M1044.9,551.68h0l0,0,0,0,0,0h.06l0,0,0-.05,0-.06,0,0h0a.1.1,0,0,0-.1,0,.11.11,0,0,0-.07.09h0S1044.89,551.66,1044.9,551.68Z"/><path class="cls-4" d="M1048.38,554.62h0a.14.14,0,0,0,0,.06l0,0h0s0,.09.09.09h0l0,0,0,0h0l0,0,0-.06h-.06l.06,0v-.06l0-.05a.14.14,0,0,0-.07-.09h-.19l0,0c-.05,0-.07.06-.06.09A.06.06,0,0,0,1048.38,554.62Z"/><path class="cls-4" d="M1048.88,551.11a.13.13,0,0,0,0,.06l0,0,0,0h0a.13.13,0,0,0,.15-.09v-.07l0,0,0,0h0l0,0A.12.12,0,0,0,1048.88,551.11Z"/><path class="cls-4" d="M1045.59,555.57h0a.07.07,0,0,0,0,0h0l0,0,0,0v0a.14.14,0,0,0,0-.07h0v0l0,0c-.13-.08-.24,0-.27.08v.06h0v0h0v0s0,0,0,0l0,0a.17.17,0,0,0,.11,0Z"/><path class="cls-4" d="M1055.06,554.49v0a.13.13,0,0,0,.07-.1v-.08l0,0,0,0v0l0,0,0,0h0a.15.15,0,0,0-.15,0h0a.38.38,0,0,0-.09.13v.09l0,0,0,0h.15Z"/><path class="cls-4" d="M1037.62,555.57l0,0s0,0,0-.08a.09.09,0,0,0,0-.06.08.08,0,0,0-.09,0l0,0,0,0,0,.05v.06l0,0,0,0h.08Z"/><path class="cls-4" d="M1042.31,555.16l0,0,0,0h0a.16.16,0,0,0-.13,0l0,0a.07.07,0,0,0,0,.08.09.09,0,0,0,0,.08h0l0,0,.07,0A.14.14,0,0,0,1042.31,555.16Z"/><path class="cls-4" d="M1041.28,556.77v-.08l0,0c-.1,0-.16,0-.19,0v0h0a.14.14,0,0,0,0,.11h0l0,0,0,0s0,0,.09,0h0A.3.3,0,0,0,1041.28,556.77Z"/><path class="cls-4" d="M1044.58,555.61l0,0h0a.07.07,0,0,0,0-.06v0l0,0h0l0,0a.22.22,0,0,0-.13,0,.12.12,0,0,0,0,.08v.06l0,0a.11.11,0,0,0,.1.07.11.11,0,0,0,.09,0Z"/><path class="cls-4" d="M1043.29,553.23l0,0v-.07a.17.17,0,0,0-.07-.12h0a.15.15,0,0,0-.15.08v.08l0,0a.12.12,0,0,0,.16.06Z"/><path class="cls-4" d="M1046.92,554.07h0a.09.09,0,0,0,0-.06v-.08h0v0l0,0h0c-.08,0-.1.06-.1.1h0a.07.07,0,0,0,0,.06v0l0,0,.06,0a.09.09,0,0,0,.09,0Z"/><path class="cls-4" d="M1049.94,553.66a.13.13,0,0,0,.1,0,.11.11,0,0,0,.06-.07v0l0,0,0,0,0,0a.09.09,0,0,0-.1,0,.09.09,0,0,0-.08.06v.06l0,0Z"/><path class="cls-4" d="M1051.56,548.59l0-.05v-.06l0-.05,0,0a.1.1,0,0,0-.09,0l0,0,0,0v.06a.12.12,0,0,0,0,0h0l0,0,0,0,0,0h0Z"/><path class="cls-4" d="M1041.76,549.84a.1.1,0,0,0,0-.09v0l0,0,0,0-.08,0h-.05l0,0,0,.05v0c0,.14.09.16.14.16l0,0Z"/><path class="cls-4" d="M1050.09,567.38v.06l0,0h0a.2.2,0,0,0,.1,0,.18.18,0,0,0,0-.11h0l0,0,0,0,0,0a.14.14,0,0,0-.1,0A.13.13,0,0,0,1050.09,567.38Z"/><path class="cls-4" d="M1048,563.69v-.06l0,0,0,0,0,0-.05,0,0,0v0a.1.1,0,0,0,0,.09.1.1,0,0,0,.09,0l0,0Z"/><path class="cls-4" d="M1049.68,563.36a.2.2,0,0,0,0-.11.13.13,0,0,0-.12-.12h0a.1.1,0,0,0-.1.07v0s0,0,0,0v0l0,0h.13Z"/><path class="cls-4" d="M1045.59,564.49v-.08a.16.16,0,0,0-.07-.11.14.14,0,0,0-.15,0l0,0v0l0,0s0,0,0,.07v0l0,0,0,0a.17.17,0,0,0,.2,0Z"/><path class="cls-4" d="M1047.2,564.43v0l0,0,0,0h-.1l0,0,0,0,0,0s0,.05,0,.08a.18.18,0,0,0,.06.1h0a.16.16,0,0,0,.11,0A.18.18,0,0,0,1047.2,564.43Z"/><path class="cls-4" d="M1039.35,564.77v0l0,0-.06,0,0,0,0,0,0,0,0,0,0,0v.06l0,0,.07,0C1039.33,564.85,1039.35,564.8,1039.35,564.77Z"/><path class="cls-4" d="M1041.8,563l0,0,0,0,0,0a.12.12,0,0,0-.1,0,.1.1,0,0,0,0,.09v0l0,0,0,0h0A.13.13,0,0,0,1041.8,563Z"/><path class="cls-4" d="M1052.37,562.56l0,0,0,0,0,0v0a.16.16,0,0,0-.14-.12h0l0,0,0,0v0a.09.09,0,0,0,0,.07.11.11,0,0,0,.08.07h0Z"/><path class="cls-4" d="M1045,563.69l0,0v-.07l0,0,0,0h-.06c-.08,0-.1.06-.1.09v0l0,0a.12.12,0,0,0,.15,0Z"/><path class="cls-4" d="M1039.11,557.71a.13.13,0,0,0,0-.09H1039a.13.13,0,0,0-.11.15l0,0v0l0,0,0,0a.2.2,0,0,0,.11,0A.13.13,0,0,0,1039.11,557.71Z"/><path class="cls-4" d="M1052.21,564.15a.14.14,0,0,0,0-.06l0,0,0,0h-.07l0,0,0,0,0,.06v.07l0,0,0,0h0a.12.12,0,0,0,.1,0A.11.11,0,0,0,1052.21,564.15Z"/><path class="cls-4" d="M1050.31,565.49l0,0h0a.14.14,0,0,0-.1,0h0l0,0,0,0a.13.13,0,0,0,0,.06.12.12,0,0,0,.11.1A.1.1,0,0,0,1050.31,565.49Z"/><path class="cls-4" d="M1047.59,567.64l.05,0h.06l0,0,0,0v-.09l0,0a.1.1,0,0,0-.1,0,.14.14,0,0,0-.09.08v.05Z"/><path class="cls-4" d="M1041,566h0c.06,0,.08,0,.08-.08h0v0a.15.15,0,0,0,0-.12.19.19,0,0,0-.15,0l0,0,0,0a.09.09,0,0,0,0,.08.06.06,0,0,0,0,0h0v0a.09.09,0,0,0,.09.08h.08Z"/><path class="cls-4" d="M1042.34,568.3a.15.15,0,0,0,0-.07.11.11,0,0,0,0-.08.23.23,0,0,0-.09-.14l0,0h0a.25.25,0,0,0-.15,0,.17.17,0,0,0,0,.14v0l0,0,0,0h.05A.15.15,0,0,0,1042.34,568.3Z"/><path class="cls-4" d="M1041,561.58a.17.17,0,0,0,0,.1h.08c.13,0,.13-.09.13-.12v0l0,0,0,0h0a.08.08,0,0,0-.07,0h0l0,0v.06Z"/><path class="cls-4" d="M1042.81,565.18v0h0a.09.09,0,0,0,0-.08l0,0h-.06l0,0h0c-.06,0-.09,0-.1.09v0a.14.14,0,0,0,.09.13.14.14,0,0,0,.15,0Z"/><path class="cls-4" d="M1045.85,566.38a.11.11,0,0,0,.07-.08s0,0,0-.07a.08.08,0,0,0,0-.06h-.08l-.07,0,0,0,0,0,0,0,0,0v0a.18.18,0,0,0,.15.17l0,0Z"/><path class="cls-4" d="M1054.14,565h0a.07.07,0,0,0,0,0h0v0a.1.1,0,0,0,.07.08h.1l.06,0,0,0V565a.14.14,0,0,0-.18-.11A.09.09,0,0,0,1054.14,565Z"/><path class="cls-4" d="M1044,565.81l-.06,0h-.1l0,.06a.1.1,0,0,0,.11.1.12.12,0,0,0,.08,0A.09.09,0,0,0,1044,565.81Z"/><path class="cls-4" d="M1042.38,559.45l0,0h0a.12.12,0,0,0,.09,0,.08.08,0,0,0,.06,0l0,0v0a.08.08,0,0,0,0-.06h0l0,0h0v0l0,0,0,0a.13.13,0,0,0-.12,0,.16.16,0,0,0-.06.13Z"/><path class="cls-4" d="M1047.22,559.41v0h0l0,0v-.08h0v-.08a.11.11,0,0,0-.06,0h-.1a.1.1,0,0,0-.08.05h0a.09.09,0,0,0,0,.08.1.1,0,0,0,0,.08h0l0,0,0,0h0a.08.08,0,0,0,.08,0Z"/><path class="cls-4" d="M1044.2,559.61h0l0,0,0,0v0a.11.11,0,0,0,0-.08.06.06,0,0,0,0-.06h0l0,0h0s0,0-.06,0H1044l0,0,0,0a.24.24,0,0,0,0,.13v0l0,0,0,0,0,0h0l0,0h0l0,0h0A.15.15,0,0,0,1044.2,559.61Z"/><path class="cls-4" d="M1039.44,559.73l0,0v0a.11.11,0,0,0-.11-.1.1.1,0,0,0-.11.1v0l0,0,0,0,0,0h.05Z"/><path class="cls-4" d="M1050,558.44v0h0v-.12l0,0a.14.14,0,0,0-.1,0h0a.08.08,0,0,0-.08,0h0l0,0a.09.09,0,0,0,0,.07v0s0,0,0,0v0l0,0,0,0a.23.23,0,0,0,.17,0Z"/><path class="cls-4" d="M1048.16,560.18a.08.08,0,0,0,0,0,.05.05,0,0,0,0,0,0,0,0,0,0,0-.05.24.24,0,0,0-.07-.16h-.08a.23.23,0,0,0-.16.25v0h0l0,0,.06,0h0A.12.12,0,0,0,1048.16,560.18Z"/><path class="cls-4" d="M1052.88,558.07a0,0,0,0,0,0,0s0,0,0,0l0,0,0,0h.09l0,0,0,0V558l0,0a.19.19,0,0,0-.13,0l0,0,0,0Z"/><path class="cls-4" d="M1047.15,558l0,0h0a.1.1,0,0,0,0-.06.08.08,0,0,0,0-.07v-.06l0,0,0,0,0,0a.12.12,0,0,0-.1,0l0,0v.06a.15.15,0,0,0,0,.08v0l0,0,0,0h.11Z"/><path class="cls-4" d="M1039.49,561.94a.07.07,0,0,0,.06,0l0,0a.14.14,0,0,0,0-.06.08.08,0,0,0,0,0l0,0v0a.15.15,0,0,0-.14,0h0l0,0,0,0a.16.16,0,0,0,0,.1.15.15,0,0,0,.09.13h.08Z"/><path class="cls-4" d="M1052.78,561.16a.08.08,0,0,0,0,.07l0,0h0s0,.06.06.06h.06a.13.13,0,0,0,.12-.14.64.64,0,0,0,0-.07l0,0,0,0h0S1052.81,561.1,1052.78,561.16Z"/><path class="cls-4" d="M1056.09,560l0,0,0,0v-.09a.11.11,0,0,0-.06-.11.12.12,0,0,0-.13,0l0,0,0,0v0h0v.08l0,0a.18.18,0,0,0,.19.06Z"/><path class="cls-4" d="M1054.12,561.14h0l0,0,0,0v0a.16.16,0,0,0,.11.14.09.09,0,0,0,.1,0h0l0,0,0,0a.21.21,0,0,0-.07-.13h-.08S1054.13,561.12,1054.12,561.14Z"/><path class="cls-4" d="M1043.19,557.84l0,0v0a.35.35,0,0,0,0-.06.08.08,0,0,0,0,0v0a.12.12,0,0,0-.11,0,.15.15,0,0,0-.12.09v0l0,0,0,0a.15.15,0,0,0,.11,0Z"/><path class="cls-4" d="M1047.15,561.88v0s0-.07-.1-.08-.11,0-.12,0v.07a.08.08,0,0,0,.08.08.19.19,0,0,0,.13,0Z"/><path class="cls-4" d="M1046,560.26l0,0,0,0,0,0v-.16l0,0a.12.12,0,0,0-.15,0c-.08,0-.08.07-.08.09s0,0,0,0h0v0l0,0a.14.14,0,0,0,.13,0Z"/><path class="cls-4" d="M1046.61,562.19h0a.08.08,0,0,0,0-.07v-.06l0,0,0,0a.25.25,0,0,0-.18,0l0,0,0,0,0,0v0l0,0,0,0a.18.18,0,0,0,.09.13l0,0h.06A.15.15,0,0,0,1046.61,562.19Z"/><path class="cls-4" d="M1043.48,561.18s0-.08-.08-.08-.1,0-.13.09l0,.06,0,0h.06C1043.47,561.26,1043.48,561.2,1043.48,561.18Z"/><path class="cls-4" d="M1044.61,561.92l0,0s0,0,0-.07a.11.11,0,0,0-.07-.1h0a.12.12,0,0,0-.1,0l0,0,0,0a.29.29,0,0,0,0,.08h0l0,0,0,0h.13Z"/><path class="cls-4" d="M1051.14,560.78v.05a.43.43,0,0,0,0,0,.14.14,0,0,0,0,.06l0,0h.07l.09,0a.1.1,0,0,0,.05,0,.09.09,0,0,0,.06-.09v-.07a.14.14,0,0,0,0-.1h-.08a.17.17,0,0,0-.14,0Z"/><path class="cls-4" d="M1044.65,561.52l0,0v-.07a.08.08,0,0,0,0-.06l0,0,0,0-.05,0a.14.14,0,0,0-.11,0l0,0,0,0v.05a.14.14,0,0,0,0,.07.13.13,0,0,0,.08.11h.14Z"/><rect class="cls-3" x="1015.45" y="446.2" width="43.16" height="45.29" transform="translate(-15.03 34.77) rotate(-1.91)"/><path class="cls-4" d="M1048.91,461.67l0,0,0-.05a.45.45,0,0,0,0-.11.24.24,0,0,0-.12-.21l0,0-.09-.06a.31.31,0,0,0-.24.08.3.3,0,0,0-.11.23.26.26,0,0,0,.14.21h.13a.24.24,0,0,0,.17,0Z"/><path class="cls-4" d="M1041.51,465.84V466a.43.43,0,0,0,.27.36h.12l.1-.06.06-.15V466h0l0-.08,0-.11-.13-.09a.43.43,0,0,0-.32.1Z"/><path class="cls-4" d="M1035.93,466.35v-.09l0-.1-.07-.06-.11,0a.43.43,0,0,0-.26.13l-.09.1,0,.11,0,.13a.29.29,0,0,0,.39,0h0l.06,0,.07-.07Z"/><path class="cls-4" d="M1037.2,448.52a.25.25,0,0,0-.2-.25h-.14l-.1.05-.08.12v0a.25.25,0,0,0,.18.23l.13,0,.12,0Z"/><path class="cls-4" d="M1032.5,476.78a.38.38,0,0,0,.23,0l.08-.06,0-.08v-.05l0-.09v-.09l-.05-.09a.22.22,0,0,0-.29,0h0l-.07,0-.08.08,0,.11A.34.34,0,0,0,1032.5,476.78Z"/><path class="cls-4" d="M1034.26,466.59v0a.48.48,0,0,0,.26.28h.13l.1-.05.09-.11.07,0,0-.06,0-.07a.25.25,0,0,0,0-.08v0a.31.31,0,0,0,0-.17h0l0-.05a.65.65,0,0,0,0-.16.25.25,0,0,0-.12-.2h-.1a.28.28,0,0,0-.23,0l-.07.06,0,.07,0,.09s0,.08,0,.13h0l-.08.09v.05a.37.37,0,0,0-.09.2Z"/><path class="cls-4" d="M1044.17,454.93l0-.08a.26.26,0,0,0-.15-.24h0a.3.3,0,0,0-.25,0l-.08,0,0,.06,0,.09v0a.26.26,0,0,0,.09.19l.08,0a.24.24,0,0,0,.29.08l.08-.06Z"/><path class="cls-4" d="M1020.53,455.53v-.1a.26.26,0,0,0-.2-.25l-.1,0-.09,0-.09.06a.26.26,0,0,0,0,.17.27.27,0,0,0,.17.25.28.28,0,0,0,.29-.05Z"/><path class="cls-4" d="M1050.19,453.72a.19.19,0,0,0,0-.09v-.09l-.06-.1a.27.27,0,0,0-.33-.13l-.08.06,0,.07,0,.11a.35.35,0,0,0,0,.16.3.3,0,0,0,0,.16l.17.05h0v0a.22.22,0,0,0,.21-.06A.21.21,0,0,0,1050.19,453.72Z"/><path class="cls-4" d="M1026.87,453.3l0-.1-.07-.07h0a.29.29,0,0,0-.35-.13l-.09.09,0,.15v0a.33.33,0,0,0,0,.15.16.16,0,0,0,.05.11l.07,0,.06,0h.08A.34.34,0,0,0,1026.87,453.3Z"/><path class="cls-4" d="M1023.7,452.79a.22.22,0,0,0,.12-.09.22.22,0,0,0,0-.11.2.2,0,0,0,.07-.17v-.06l0-.06,0,0-.07-.05a.27.27,0,0,0-.21-.1.36.36,0,0,0-.28.1.43.43,0,0,0-.12.31.37.37,0,0,0,.34.35l.1,0Z"/><path class="cls-4" d="M1033.11,452.86v0l.05.09.06,0,.09,0h.06l.09,0,.07-.07a.22.22,0,0,0,0-.11l0-.13-.06,0,0,0a.21.21,0,0,0-.24-.09.21.21,0,0,0-.15.19v0A.19.19,0,0,0,1033.11,452.86Z"/><path class="cls-4" d="M1041,460.18h0a.33.33,0,0,0,0,.15.31.31,0,0,0,.1.1h0a.26.26,0,0,0,.19.23l.11,0,0,0,.1-.06h0l.11,0,.09-.14h-.14l.15,0,0-.15-.05-.14a.34.34,0,0,0-.14-.2l0,0-.11,0a.24.24,0,0,0-.16,0h-.14l-.11.07a.2.2,0,0,0-.17.21A.16.16,0,0,0,1041,460.18Z"/><path class="cls-4" d="M1042.57,451.93a.4.4,0,0,0,0,.15l0,.07.06.05.06,0a.31.31,0,0,0,.36-.19l0-.09v-.08l0-.09a.19.19,0,0,0-.11-.07l0,0-.12,0A.28.28,0,0,0,1042.57,451.93Z"/><path class="cls-4" d="M1034.34,462.14l0,0a.24.24,0,0,0,.11-.13h0l.06-.05,0-.06,0-.09a.26.26,0,0,0,0-.17h0l0-.09-.06-.08c-.31-.2-.56.07-.65.16l0,.15v0a.19.19,0,0,0,0,.08v0l0,.06a.24.24,0,0,0,.1.1l.09.09a.31.31,0,0,0,.26.05Z"/><path class="cls-4" d="M1056.8,460.56l0-.06a.28.28,0,0,0,.17-.23v-.12l0-.08,0-.06-.05,0,.05-.05-.07-.06-.11,0,.07,0a.31.31,0,0,0-.34-.09l0,0a.66.66,0,0,0-.24.29v.09l0,.08v0l0,.1.07.07.1,0,.11,0,.14,0Z"/><path class="cls-4" d="M1015.55,461.31l.05-.08a.32.32,0,0,0,0-.18.21.21,0,0,0-.07-.15.27.27,0,0,0-.21-.07l-.1,0-.06.07,0,.1v.14l.05.09.06.06.13,0,.07,0Z"/><path class="cls-4" d="M1026.65,460.82l-.05-.1-.07-.06-.1,0h0a.35.35,0,0,0-.29,0l-.06,0a.21.21,0,0,0-.08.19.26.26,0,0,0,.08.19h0l0,.09.15.07A.35.35,0,0,0,1026.65,460.82Z"/><path class="cls-4" d="M1024.06,464.52v-.11l0-.08-.07-.08c-.23-.1-.36-.06-.43,0l0,.05h0a.29.29,0,0,0-.13.25v0l.06.09.06.05a.26.26,0,0,0,.21.1h.06A.62.62,0,0,0,1024.06,464.52Z"/><path class="cls-4" d="M1032,462.11l0-.05V462a.24.24,0,0,0,0-.12l0-.1,0-.05,0,0-.08,0a.37.37,0,0,0-.3,0,.27.27,0,0,0-.11.19V462l0,.05,0,.07a.31.31,0,0,0,.25.16.23.23,0,0,0,.21-.1Z"/><path class="cls-4" d="M1029.18,456.36l0-.07,0-.08v-.08a.33.33,0,0,0-.14-.28l-.08,0a.34.34,0,0,0-.36.18v.09l0,.09,0,.06a.28.28,0,0,0,.38.17Z"/><path class="cls-4" d="M1037.65,458.73v0a.22.22,0,0,0,.08-.15v-.06l0-.06,0-.05,0,0v0l-.07-.08-.11,0c-.2,0-.26.13-.26.24h0a.33.33,0,0,0,0,.14v.05l.1.11.13,0a.2.2,0,0,0,.22,0Z"/><path class="cls-4" d="M1044.81,458.08a.28.28,0,0,0,.24.07.22.22,0,0,0,.15-.16l0-.12-.07-.08,0,0,0-.05a.26.26,0,0,0-.23-.12.24.24,0,0,0-.19.14v.13l.06.1Z"/><path class="cls-4" d="M1049.17,446.28l.07-.13V446l-.07-.12-.1-.05a.27.27,0,0,0-.21,0l-.08,0,0,.06,0,.08v0a.36.36,0,0,0,0,.13h0l0,.06.07.08.13.05h.1Z"/><path class="cls-4" d="M1025.9,448.2a.23.23,0,0,0,.11-.21l0-.08,0-.06-.07-.06a.34.34,0,0,0-.17-.12l-.12,0-.09.06,0,.11v.06c0,.34.2.39.32.39l.11-.06Z"/><path class="cls-4" d="M1043.74,490.48s0,0,0,.06l0,.08.06.06.08,0a.26.26,0,0,0,.22-.07.31.31,0,0,0,.08-.26h0l0-.08,0-.05-.07,0a.26.26,0,0,0-.24,0A.25.25,0,0,0,1043.74,490.48Z"/><path class="cls-4" d="M1039.19,481.55l0-.09v-.06l0-.08-.07-.08a.28.28,0,0,0-.11-.05l-.13,0-.08.09,0,.1a.27.27,0,0,0,.1.21.24.24,0,0,0,.2,0l.08-.05Z"/><path class="cls-4" d="M1043.18,480.93a.4.4,0,0,0,.09-.25.28.28,0,0,0-.27-.29l0,0c-.09,0-.18,0-.25.15v.08a.27.27,0,0,0,0,.11l0,.09.12.1.09,0h.07l.07,0Z"/><path class="cls-4" d="M1033.42,483.18l0-.05,0-.06V483a.37.37,0,0,0-.14-.28.41.41,0,0,0-.36,0l-.07.05,0,.06,0,.11a1.23,1.23,0,0,0,0,.16l0,.08,0,.06.06,0a.43.43,0,0,0,.48,0Z"/><path class="cls-4" d="M1037.23,483.21v-.08l0-.08-.07-.06-.09,0h-.14l-.08,0-.06.05,0,.09a.48.48,0,0,0,0,.18.31.31,0,0,0,.14.25l.08,0a.31.31,0,0,0,.25-.08A.39.39,0,0,0,1037.23,483.21Z"/><path class="cls-4" d="M1018.67,483.19l0-.11-.08-.1a.29.29,0,0,0-.13-.08l-.13,0-.08.07,0,.07.11.08-.12-.07v.14l.06.1.15.06C1018.61,483.37,1018.66,483.26,1018.67,483.19Z"/><path class="cls-4" d="M1024.63,479.14l0-.09-.06-.07-.09,0a.27.27,0,0,0-.24.07.24.24,0,0,0-.09.22v.06l.06.08.06.06.1,0A.3.3,0,0,0,1024.63,479.14Z"/><path class="cls-4" d="M1049.61,479.32l0-.06.06.05.06-.07,0-.12a.35.35,0,0,0-.32-.29l-.1,0-.07,0,0,.08v.07a.21.21,0,0,0,.08.17.23.23,0,0,0,.18.17l.1,0Z"/><path class="cls-4" d="M1032.09,481.24l0-.06,0-.08V481l-.05-.1-.07-.06-.13,0c-.2,0-.25.13-.26.19v.09l0,.09a.25.25,0,0,0,.33.1Z"/><path class="cls-4" d="M1018.84,466.5a.29.29,0,0,0-.09-.2l-.08-.05h-.06c-.1,0-.27.05-.28.34l0,.06,0,0,.06.07.08.05a.29.29,0,0,0,.24-.07A.29.29,0,0,0,1018.84,466.5Z"/><path class="cls-4" d="M1049.07,483.06a.35.35,0,0,0,0-.14l0-.07-.06,0-.08,0h-.08l-.09,0-.06.05,0,.13s0,0,0,.06a.43.43,0,0,0,0,.05v.06l.05.08.06,0,.08,0a.3.3,0,0,0,.23-.07A.24.24,0,0,0,1049.07,483.06Z"/><path class="cls-4" d="M1044.46,486l0-.12-.06-.05a.27.27,0,0,0-.22-.11l-.07,0,0,0,0,.05a.32.32,0,0,0,0,.14.25.25,0,0,0,.25.24A.25.25,0,0,0,1044.46,486Z"/><path class="cls-4" d="M1037.82,490.82l.12.07h.14l.09,0,.07-.07,0-.12v0l0-.05,0,0a.28.28,0,0,0-.46.09v.13Z"/><path class="cls-4" d="M1022.41,486.3h0a.25.25,0,0,0,.2-.2h0l0,0V486a.37.37,0,0,0-.12-.28.39.39,0,0,0-.33-.07l-.1.06,0,.07a.22.22,0,0,0-.09.19.44.44,0,0,0,0,.1h0s0,0,0,0a.24.24,0,0,0,.2.21h.2Z"/><path class="cls-4" d="M1025.34,491.83a.28.28,0,0,0,.09-.16.26.26,0,0,0,.07-.19.64.64,0,0,0-.19-.34l0,0-.07,0a.4.4,0,0,0-.35.1.37.37,0,0,0-.12.32.34.34,0,0,0,0,.1l0,.08,0,.05.07,0,0,0A.3.3,0,0,0,1025.34,491.83Z"/><path class="cls-4" d="M1023,475.84a.33.33,0,0,0,.08.22l.05,0,0,0h.07c.31,0,.33-.21.33-.29v-.07l-.06-.09-.08-.05h-.08a.45.45,0,0,0-.16,0l-.08,0-.06.05,0,.09Z"/><path class="cls-4" d="M1026.78,484.53v-.12h0a.25.25,0,0,0-.1-.21.19.19,0,0,0-.09-.09h-.14l0,0h0a.25.25,0,0,0-.26.19v0a.35.35,0,0,0,.21.33.33.33,0,0,0,.36-.09Z"/><path class="cls-4" d="M1033.84,487.66a.21.21,0,0,0,.16-.19.26.26,0,0,0,0-.14.21.21,0,0,0-.08-.16l0,0h-.05l-.08,0a.4.4,0,0,0-.18,0l-.08,0-.07.06,0,0,0,.06v.08a.42.42,0,0,0,.34.4l.12,0Z"/><path class="cls-4" d="M1053.55,485.24h0a.26.26,0,0,0,0,.14h0v.08a.22.22,0,0,0,.15.19h.13l.11,0,.15,0,.08-.07,0-.09v-.14a.35.35,0,0,0-.43-.28A.21.21,0,0,0,1053.55,485.24Z"/><path class="cls-4" d="M1029.56,486.14l-.15-.13h-.17l0,0h0l-.13.14a.25.25,0,0,0,.26.25.27.27,0,0,0,.19-.08A.31.31,0,0,0,1029.56,486.14Z"/><path class="cls-4" d="M1026.38,471l.1.06h0a.33.33,0,0,0,.22,0,.2.2,0,0,0,.15-.09l.08-.07,0-.11a.21.21,0,0,0,0-.15h0l0-.06h0v0l-.06-.07-.08-.05a.36.36,0,0,0-.3.09.39.39,0,0,0-.13.29A.2.2,0,0,0,1026.38,471Z"/><path class="cls-4" d="M1037.79,471.36l0-.05,0,0,0-.05,0-.06,0-.07a.13.13,0,0,1,0-.06h0V471l0-.11a.34.34,0,0,0-.15-.07l0,0h-.18a.25.25,0,0,0-.19.11l0,0a.2.2,0,0,0-.09.19.22.22,0,0,0,.1.18l0,0,.07,0,.06.05,0,0a.23.23,0,0,0,.18,0Z"/><path class="cls-4" d="M1030.65,471.51h0l0,0,0-.07,0-.09a.24.24,0,0,0,.08-.2.18.18,0,0,0-.07-.15h0l-.07-.09,0,0a.4.4,0,0,0-.15-.1h-.12l0,0h-.11l-.09,0-.07,0-.07.11a.74.74,0,0,0-.08.32v.06l0,.07,0,.05.07.05h.06l.06.06h0v0l.07.05.08,0A.39.39,0,0,0,1030.65,471.51Z"/><path class="cls-4" d="M1019.4,471.31l.06-.09a.29.29,0,0,0,0-.09.28.28,0,0,0-.26-.27.25.25,0,0,0-.26.24l0,.08,0,.07.1.07.09,0h.11Z"/><path class="cls-4" d="M1044.51,469.35l0,0h0a.56.56,0,0,1,0-.07v-.12l0-.09-.1-.09a.45.45,0,0,0-.24-.05h0a.21.21,0,0,0-.19.1l0,0-.06.07a.4.4,0,0,0,0,.15.24.24,0,0,0,0,.09.2.2,0,0,0,0,.07l0,.08,0,.06.08.05a.56.56,0,0,0,.41-.07Z"/><path class="cls-4" d="M1039.93,473.28a.24.24,0,0,0,.06-.11.31.31,0,0,0,0-.1.59.59,0,0,0,0-.13.56.56,0,0,0-.17-.37l-.05,0h-.13a.53.53,0,0,0-.4.58v.05l0,.05,0,.05a.22.22,0,0,0,.11.05.17.17,0,0,0,.14.07l.08,0A.3.3,0,0,0,1039.93,473.28Z"/><path class="cls-4" d="M1051.28,468.78s0,.05,0,.09a.3.3,0,0,0,0,.11l0,.08.06,0,.09,0h.14l.09-.05.07-.06,0-.1v-.11l0-.07,0-.05,0,0a.36.36,0,0,0-.29-.06l-.07,0-.05.05Z"/><path class="cls-4" d="M1037.76,468.09l.08-.07h0a.27.27,0,0,0,.13-.13.45.45,0,0,0,0-.16.41.41,0,0,0,0-.11.07.07,0,0,1,0-.05l0-.09-.06-.05-.08,0a.31.31,0,0,0-.25.07l-.09.08,0,.1v0a.43.43,0,0,0,0,.2V468l0,.08.07.06.11,0v0Z"/><path class="cls-4" d="M1019.3,476.53a.24.24,0,0,0,.13-.09,7.17,7.17,0,0,1,.11-.24.56.56,0,0,0,0-.12l0-.05,0,0a.38.38,0,0,0-.32-.12l-.07,0-.06.05,0,.06a.85.85,0,0,0,0,.23.38.38,0,0,0,.21.32h.12l.06,0Z"/><path class="cls-4" d="M1050.73,476.08a.2.2,0,0,0-.1.16l0,.11,0,0a.24.24,0,0,0,.12.16.21.21,0,0,0,.15,0,.3.3,0,0,0,.28-.33.32.32,0,0,0,0-.16l0-.05,0,0,0,0A.29.29,0,0,0,1050.73,476.08Z"/><path class="cls-4" d="M1058.68,473.74l0-.05,0-.07a.61.61,0,0,0,0-.19.32.32,0,0,0-.12-.28.36.36,0,0,0-.31-.06l-.08.05-.06.08,0,.07,0,0,0,.09v.09l.06.12a.38.38,0,0,0,.43.15Z"/><path class="cls-4" d="M1053.9,476.15h0l-.06,0,0,.07s0,.06,0,.1a.35.35,0,0,0,.24.32.23.23,0,0,0,.26-.1v0l0,0,0-.11a.4.4,0,0,0-.14-.3l-.06,0H1054A.18.18,0,0,0,1053.9,476.15Z"/><path class="cls-4" d="M1028.44,467.23l0-.05,0-.05a.27.27,0,0,0,0-.15.2.2,0,0,0,0-.09l0-.05a.27.27,0,0,0-.26-.12.35.35,0,0,0-.27.22v.12l0,.09.09.07a.41.41,0,0,0,.26,0Z"/><path class="cls-4" d="M1037.36,477.18l0-.05v-.06c0-.07,0-.16-.21-.21s-.27.05-.29.07l0,.05,0,0,0,.06a.23.23,0,0,0,.19.2.48.48,0,0,0,.32-.06Z"/><path class="cls-4" d="M1034.91,473.25l.09.11.09-.05.05-.06,0-.09V473l0-.06,0-.05,0-.05a.26.26,0,0,0-.35,0,.22.22,0,0,0-.2.22.17.17,0,0,0,0,.1v0l0,.09.07.08a.38.38,0,0,0,.3,0Z"/><path class="cls-4" d="M1036.08,477.85h0a.47.47,0,0,0,0-.17v-.07l0-.08,0-.06,0,0a.52.52,0,0,0-.41-.05l-.06,0a.23.23,0,0,0,0,.07l-.08.07,0,.06v.05a.24.24,0,0,0,0,.09l0,.05a.36.36,0,0,0,.2.3l.06.06.06,0,.08,0A.39.39,0,0,0,1036.08,477.85Z"/><path class="cls-4" d="M1028.78,475.15a.22.22,0,0,0-.18-.21.29.29,0,0,0-.3.2l0,.15.08.08.14,0C1028.76,475.34,1028.78,475.2,1028.78,475.15Z"/><path class="cls-4" d="M1031.38,477l.07-.11a.74.74,0,0,0,0-.18.22.22,0,0,0-.15-.22h-.07a.25.25,0,0,0-.24,0l0,0,0,.08a.36.36,0,0,0-.06.2h0l.05.1.08.06.09,0a.32.32,0,0,0,.11,0h.1Z"/><path class="cls-4" d="M1046.91,475v.12a.35.35,0,0,0,0,.26l0,.06.06.05.1,0a.37.37,0,0,0,.21,0,.2.2,0,0,0,.12-.08.22.22,0,0,0,.16-.2l0-.08a.34.34,0,0,0,0-.1.28.28,0,0,0-.12-.23l-.06,0h-.12a.38.38,0,0,0-.33.08Z"/><path class="cls-4" d="M1031.5,476.08l.08-.07,0-.09v-.08a.3.3,0,0,0,0-.15l0-.09-.05-.06-.11-.06a.36.36,0,0,0-.27,0l-.06,0-.05.05,0,.11a.48.48,0,0,0,0,.18.28.28,0,0,0,.16.25h.13l0,0v0A.4.4,0,0,0,1031.5,476.08Z"/><rect class="cls-3" x="1039.23" y="439.41" width="22.4" height="21.34" transform="matrix(1, -0.04, 0.04, 1, -18.87, 46.89)"/><path class="cls-4" d="M1046.82,444.24l0,0h-.08a.11.11,0,0,0-.1.06h0l0,.05a.15.15,0,0,0,0,.11.11.11,0,0,0,.11.05.11.11,0,0,0,.11-.07v-.06a.11.11,0,0,0,0-.08Z"/><path class="cls-4" d="M1048.92,447.88h0a.22.22,0,0,0,.18-.13v-.07l0,0-.07,0h-.1l0,0,0,.06s0,.11.05.15Z"/><path class="cls-4" d="M1049.2,450.64h0l-.05,0,0,0v.05a.18.18,0,0,0,.06.13l0,0,.06,0,.06,0a.15.15,0,0,0,0-.19h0v0l0,0Z"/><path class="cls-4" d="M1040.38,450.1a.15.15,0,0,0-.13.11v.06l0,.05.06,0h0a.12.12,0,0,0,.12-.09l0-.06,0-.06Z"/><path class="cls-4" d="M1054.38,452.28a.21.21,0,0,0,0-.12l0,0,0,0h0l0,0h0l0,0a.13.13,0,0,0,0,.15h0v0l0,0h.06A.15.15,0,0,0,1054.38,452.28Z"/><path class="cls-4" d="M1049.33,451.46h0a.23.23,0,0,0,.14-.13v-.06l0,0,0-.05,0,0,0,0h-.09a.08.08,0,0,0-.08,0h0l-.08,0a.17.17,0,0,0-.1.06v.05a.16.16,0,0,0,0,.12l0,0,0,0h.11v0l0,0h0a.19.19,0,0,0,.09,0Z"/><path class="cls-4" d="M1043.51,446.62h0a.14.14,0,0,0-.12.08h0a.19.19,0,0,0,0,.13l0,0,0,0,.05,0h0a.15.15,0,0,0,.1,0,.05.05,0,0,1,0,0,.16.16,0,0,0,0-.15l0,0Z"/><path class="cls-4" d="M1043.93,458.31h0a.13.13,0,0,0-.12.11l0,0v0l0,.05.09,0a.15.15,0,0,0,.12-.08.14.14,0,0,0,0-.15Z"/><path class="cls-4" d="M1042.88,443.65l0,0h0l0,0a.15.15,0,0,0-.06.17l0,0,0,0h.06a.15.15,0,0,0,.08,0,.13.13,0,0,0,.08,0l0-.08v0h0a.16.16,0,0,0,0-.1A.12.12,0,0,0,1042.88,443.65Z"/><path class="cls-4" d="M1042.8,455.19l0,0,0,0h0a.17.17,0,0,0-.07.18l0,0,.08,0h0l.07,0,.06,0,0,0v-.08A.17.17,0,0,0,1042.8,455.19Z"/><path class="cls-4" d="M1042.56,456.76a.07.07,0,0,0,0-.06.07.07,0,0,0-.06,0,.09.09,0,0,0-.08,0h0l0,0,0,0,0,0a.11.11,0,0,0,0,.1.16.16,0,0,0,0,.14.2.2,0,0,0,.15.06.2.2,0,0,0,.18-.17l0-.05Z"/><path class="cls-4" d="M1042.55,452.1h0l0,0,0,0,0,0v-.07l0,0,0,0-.07,0,0,0h0a.1.1,0,0,0,0,.11.09.09,0,0,0,.09.08h.06Z"/><path class="cls-4" d="M1046.13,448.15h0l.07,0a.23.23,0,0,0,0-.05h0a.13.13,0,0,0,.11-.1v-.05l0,0,0-.05v0l0,0-.07-.05v.07h0l0-.07-.08,0-.06,0a.15.15,0,0,0-.1.07v0a.13.13,0,0,0,0,.06.08.08,0,0,0,0,.08v.07l0,.05c0,.07.06.09.1.09A.15.15,0,0,0,1046.13,448.15Z"/><path class="cls-4" d="M1042,447.43h.07l0,0,0,0v0a.15.15,0,0,0-.09-.18H1042l0,0a.09.09,0,0,0,0,.05l0,0,0,.06A.14.14,0,0,0,1042,447.43Z"/><path class="cls-4" d="M1047.13,451.45l0,0a.1.1,0,0,0-.06-.05h0l0,0,0,0h0l-.08,0h0l0,0a.25.25,0,0,0,.09.32h.16a.23.23,0,0,0,0-.05l0,0a.18.18,0,0,0,0-.12Z"/><path class="cls-4" d="M1046.23,440.35l0,0a.12.12,0,0,0-.12-.08h-.1l0,0,0,0,0,0,0,0,0,.06v0a.15.15,0,0,0,0,.16v0a.39.39,0,0,0,.15.11h.11l0,0,0,0v-.05s0,0,0,0,0-.05,0-.07Z"/><path class="cls-4" d="M1046.82,460.74l0,0a.19.19,0,0,0-.09,0l-.07,0a.14.14,0,0,0,0,.1l0,.05,0,0,0,0h.07l0,0,0,0,0-.06v0Z"/><path class="cls-4" d="M1046.52,455.26l0,0,0,0,0,.05s0,0,0,0a.2.2,0,0,0,0,.15l0,0a.09.09,0,0,0,.09,0,.12.12,0,0,0,.09,0h0l0,0,0-.07S1046.66,455.25,1046.52,455.26Z"/><path class="cls-4" d="M1048.36,456.52h-.09l0,0c0,.11,0,.18,0,.21h0a.17.17,0,0,0,.12.06h0l0,0,0,0a.12.12,0,0,0,0-.1v0A.28.28,0,0,0,1048.36,456.52Z"/><path class="cls-4" d="M1047.13,452.62l0,0h0l-.06,0h0l0,0v0l0,0a.17.17,0,0,0,0,.15.15.15,0,0,0,.09.06h.06l0,0a.15.15,0,0,0,.08-.12.11.11,0,0,0,0-.11Z"/><path class="cls-4" d="M1044.3,454l0,0h-.07a.15.15,0,0,0-.14.07l0,0a.18.18,0,0,0,.09.18h.09l0,0a.15.15,0,0,0,.08-.19Z"/><path class="cls-4" d="M1045.42,449.83h0l-.07,0h-.09l0,0h0l0,0,0,.05c0,.1.07.13.12.13h0l.07,0h0l0-.05,0-.06a.11.11,0,0,0,0-.11Z"/><path class="cls-4" d="M1045.06,446.29a.13.13,0,0,0,0-.12.11.11,0,0,0-.08-.07H1045l0,0,0,0,0,0a.15.15,0,0,0-.06.12.13.13,0,0,0,.07.09h.07l0,0Z"/><path class="cls-4" d="M1039.2,444.2l-.06,0h-.07l0,0,0,.05a.14.14,0,0,0,0,.11l0,0,0,0h.07l.06,0h0l0,0,0,0,0-.07h0v-.05Z"/><path class="cls-4" d="M1040.28,455.7a.13.13,0,0,0-.11-.06h0l0,0,0,0a.17.17,0,0,0-.06.08v.07l0,0,.06,0h0c.17,0,.2-.1.2-.16l0-.05Z"/><path class="cls-4" d="M1061.09,446.64h0l0,0,0,0,0,0a.16.16,0,0,0,0-.11s-.06,0-.12,0h0l0,0,0,0,0,0a.12.12,0,0,0,0,.12A.14.14,0,0,0,1061.09,446.64Z"/><path class="cls-4" d="M1056.7,448.94h-.07l0,0,0,0a.16.16,0,0,0,0,.06l0,.06,0,0,.05,0s.07,0,.1-.06a.11.11,0,0,0,0-.1l0,0Z"/><path class="cls-4" d="M1056.37,447a.17.17,0,0,0-.12,0,.14.14,0,0,0-.14.14h0a.14.14,0,0,0,.08.12h.1l0,0,.05-.05s0,0,0-.05V447Z"/><path class="cls-4" d="M1057.54,451.79l0,0h-.06a.19.19,0,0,0-.14.08.2.2,0,0,0,0,.17l0,0,0,0h.05l.08,0h0l0,0,0,0a.21.21,0,0,0,0-.23Z"/><path class="cls-4" d="M1057.53,449.9h0l0,0,0,0v.12l0,0,0,0,0,0a.13.13,0,0,0,.09,0,.14.14,0,0,0,.12-.06v0a.14.14,0,0,0,0-.13A.21.21,0,0,0,1057.53,449.9Z"/><path class="cls-4" d="M1057.62,459.08h0l0,0a.14.14,0,0,0,0,.07l0,.06,0,0,0,0,0-.06,0,.06h.07l0,0,0-.07C1057.71,459.11,1057.66,459.09,1057.62,459.08Z"/><path class="cls-4" d="M1055.59,456.15l0,0,0,0,0,0a.19.19,0,0,0,0,.13.23.23,0,0,0,.11,0h0l0,0,0,0v0A.15.15,0,0,0,1055.59,456.15Z"/><path class="cls-4" d="M1055.54,443.8l0,0,0,0,0,0-.06,0a.18.18,0,0,0-.14.16V444l0,0,.05,0h0l.08,0a.13.13,0,0,0,.09-.1v0Z"/><path class="cls-4" d="M1056.59,452.46l0,0h-.09l0,0,0,0v.06c0,.1.06.12.1.13h0l0,0a.12.12,0,0,0,0-.16Z"/><path class="cls-4" d="M1049.37,459.09a.15.15,0,0,0-.1,0l0,0v0c0,.05,0,.14.17.14l0,0h0l0,0,0,0a.13.13,0,0,0-.14-.17Z"/><path class="cls-4" d="M1057.39,444.05h-.07l0,0,0,0v.08l0,0,0,0,.06,0h.09l0,0,0,0v0a.16.16,0,0,0,0-.12A.11.11,0,0,0,1057.39,444.05Z"/><path class="cls-4" d="M1058.89,446.31l-.06,0,0,0a.12.12,0,0,0,0,.11v0l0,0,0,0a.1.1,0,0,0,.07,0,.13.13,0,0,0,.12-.13A.13.13,0,0,0,1058.89,446.31Z"/><path class="cls-4" d="M1061.29,449.57l0-.06v-.07l0-.05,0,0h-.11l0,0a.14.14,0,0,0,0,.12.18.18,0,0,0,.08.11h.07Z"/><path class="cls-4" d="M1059.14,457.21h0a.11.11,0,0,0-.1-.09h0a.19.19,0,0,0-.14.06.19.19,0,0,0,0,.17l0,.05,0,0a.1.1,0,0,0,.09,0h.08s.08,0,.1-.1v-.1Z"/><path class="cls-4" d="M1061.86,455.74a.11.11,0,0,0-.08-.05.14.14,0,0,0-.09,0,.26.26,0,0,0-.17.09l0,0v0a.21.21,0,0,0,0,.18.22.22,0,0,0,.16.06h0l0,0,0,0,0,0,0,0S1061.93,455.81,1061.86,455.74Z"/><path class="cls-4" d="M1054,457a.15.15,0,0,0,.11,0l0,0v-.06c0-.15-.1-.16-.14-.16h0l0,0,0,0v0a.1.1,0,0,0,0,.08v0l0,0,0,0Z"/><path class="cls-4" d="M1058.24,455.07h-.07a.12.12,0,0,0-.1,0s0,0,0,0v.07l0,0h0a.1.1,0,0,0,.09.12h0a.18.18,0,0,0,.16-.11.16.16,0,0,0,0-.18Z"/><path class="cls-4" d="M1059.75,451.55a.09.09,0,0,0-.09-.07l-.07,0a.09.09,0,0,0-.08,0l0,0v.07a.2.2,0,0,0,0,.09l0,0,0,0,0,0h.07a.2.2,0,0,0,.2-.17l0-.06Z"/><path class="cls-4" d="M1058.45,441.82h0l.07,0h0a.12.12,0,0,0,.1-.07v-.07s0,0,0-.05a.19.19,0,0,0,0-.07l0,0,0,0h-.07a.16.16,0,0,0-.13.21A.11.11,0,0,0,1058.45,441.82Z"/><path class="cls-4" d="M1059,453.68l-.06.07v0h0v.06h0v0l.07.06a.11.11,0,0,0,.12-.12.13.13,0,0,0,0-.1A.17.17,0,0,0,1059,453.68Z"/><path class="cls-4" d="M1051.53,455.34l0-.06h0a.14.14,0,0,0,0-.11.1.1,0,0,0,0-.07l0,0,0,0-.08,0h0l0,0h0l0,0,0,0a.19.19,0,0,0,0,.14.21.21,0,0,0,.15.07Z"/><path class="cls-4" d="M1051.67,449.69h0v0l0,0h-.14l-.06,0a.09.09,0,0,0,0,.07l0,0v.09a.19.19,0,0,0,.06.1h0a.12.12,0,0,0,.09.05.15.15,0,0,0,.09-.06l0,0,0,0,0,0v0a.1.1,0,0,0,0-.09Z"/><path class="cls-4" d="M1051.78,453.22h0v0l0,0h0a.18.18,0,0,0-.1,0,.12.12,0,0,0-.08,0h0l0,0v0a.12.12,0,0,0,0,.07v.08a.07.07,0,0,0,0,.05v0l0,0,0,0a.57.57,0,0,0,.16,0h0l0,0,0,0,0,0v0l0,0h0l0,0,0,0A.18.18,0,0,0,1051.78,453.22Z"/><path class="cls-4" d="M1051.74,458.78l0,0h0a.14.14,0,0,0-.14.13.12.12,0,0,0,.12.12h0l0,0,0-.05a.08.08,0,0,0,0,0v-.06Z"/><path class="cls-4" d="M1050.64,446.38h0v0h-.09l0,0,0,.05a.25.25,0,0,0,0,.12h0a.11.11,0,0,0,.06.09v0l0,0a.11.11,0,0,0,.07,0h.08l0,0,0,0,0,0a.27.27,0,0,0,0-.21Z"/><path class="cls-4" d="M1052.61,448.62l-.06,0,0,0h-.06a.28.28,0,0,0-.18.08l0,0v.06a.26.26,0,0,0,.29.2h0l0,0,0-.05a.09.09,0,0,0,0-.07v0A.17.17,0,0,0,1052.61,448.62Z"/><path class="cls-4" d="M1050.32,443h0l.06,0,0,0,0,0v-.12l0,0,0,0,0,0h-.11l0,0a.25.25,0,0,0,0,.15l0,0,0,0Z"/><path class="cls-4" d="M1050.05,449.72l0,0h0a.13.13,0,0,0-.06-.07h-.16l0,0,0,0,0,0a.14.14,0,0,0,0,.13l0,0h.07a.12.12,0,0,0,.09,0h0l0,0,0,0,0,0h0Z"/><path class="cls-4" d="M1054.33,458.81a.15.15,0,0,0,0-.07l0,0a.11.11,0,0,0-.08,0l-.06,0,0,0,0,0a.19.19,0,0,0-.06.16l0,0,0,0,0,0,.12,0a.18.18,0,0,0,.15-.1v-.09Z"/><path class="cls-4" d="M1053.93,443.27l.08.05.06,0h0a.19.19,0,0,0,.08-.07.08.08,0,0,0,0-.07.15.15,0,0,0-.16-.14l-.08,0,0,0,0,0v0A.15.15,0,0,0,1053.93,443.27Z"/><path class="cls-4" d="M1052.74,439.35l0,0,0,0h-.1a.18.18,0,0,0-.14.06.2.2,0,0,0,0,.16l0,0,0,0,0,0h0l0,0h0l.06,0a.18.18,0,0,0,.08-.21Z"/><path class="cls-4" d="M1054,441.7h0l0,0,0,0h0a.16.16,0,0,0,.16-.12.1.1,0,0,0,0-.13h0l0,0-.06,0a.29.29,0,0,0-.15.07v.1Z"/><path class="cls-4" d="M1049.68,454.34l0,0h0l-.08,0h-.07a.14.14,0,0,0,0,.13.17.17,0,0,0,.11.14h0l.05,0,0,0a.15.15,0,0,0,0-.13Z"/><path class="cls-4" d="M1054.55,449.87h0s-.08,0-.11.1a.21.21,0,0,0,0,.15h.08a.12.12,0,0,0,.1-.1.21.21,0,0,0,0-.15Z"/><path class="cls-4" d="M1052.62,451.11l.05-.05,0,0,0,0,0,0h-.14l0,0a.13.13,0,0,0,0,.17c0,.1.09.1.11.1h.06l.05,0,0,0a.18.18,0,0,0,0-.15Z"/><path class="cls-4" d="M1054.89,450.5h-.16l0,0,0,0a.24.24,0,0,0,0,.2l0,0,0,0,0,0h.1l0,0a.21.21,0,0,0,.15-.1l0,0,0,0v0A.18.18,0,0,0,1054.89,450.5Z"/><path class="cls-4" d="M1053.59,454.12a.13.13,0,0,0-.1.1.13.13,0,0,0,.1.14h.07l0,0,0-.07C1053.69,454.13,1053.62,454.12,1053.59,454.12Z"/><path class="cls-4" d="M1054.5,452.83l0,0-.09,0a.1.1,0,0,0-.11.08v0a.13.13,0,0,0,0,.12l0,0,0,0a.11.11,0,0,0,.09,0h0l0,0,0,0v0a.11.11,0,0,0,0-.05v-.05Z"/><path class="cls-4" d="M1053.42,445.16h.06l.06,0,.07,0,0,0,0,0,0-.05a.25.25,0,0,0,0-.1.09.09,0,0,0,0-.06.12.12,0,0,0-.11-.08l0,0h0a.13.13,0,0,0-.12.07V445a.24.24,0,0,0,0,.17Z"/><path class="cls-4" d="M1054,452.77l0,0,0,0h0a.13.13,0,0,0-.08,0h0l0,0,0,.05a.17.17,0,0,0,0,.14l0,0,0,0,.06,0,.09,0a.14.14,0,0,0,.12-.08v-.09h0A.21.21,0,0,0,1054,452.77Z"/><path class="cls-5" d="M891.64,504.11c-9-5.78-21.15.27-28.47,8.12A63.7,63.7,0,0,0,876,609.74c13.59,8.48,29.82,11.52,45.72,13.47a411.42,411.42,0,0,0,42.09,3c15.59.3,31.93-.48,45.42-8.3,21.75-12.63,30.08-39.77,33.16-64.74.75-6.07,1.08-12.92-2.92-17.56-3.22-3.74-8.42-5-13.25-6Q957.91,515,889,503.3"/><path class="cls-6" d="M927.22,498.07a136.51,136.51,0,0,0-53.92-.27c-5.93,1.17-13.4,5.79-10.83,11.26,1.25,2.69,4.44,3.76,7.29,4.55a687.18,687.18,0,0,0,167.65,24.44c3.62.08,7.78-.12,10-2.95,2.45-3.08,1.17-7.91-1.7-10.6s-6.86-3.77-10.67-4.74a1101.88,1101.88,0,0,0-116.93-23"/></g></svg>