<svg xmlns="http://www.w3.org/2000/svg" viewBox="0 0 279 252"><defs><style>.cls-1{fill:#fff;}.cls-2{fill:none;}.cls-3{fill:#465777;}</style></defs><title>kombucha</title><g id="Layer_2" data-name="Layer 2"><path class="cls-1" d="M174.12.73c-18.92-1.26-35.72-2-54.5.65C115,2,110.09,2.89,106.34,5.74s-6,8.32-3.66,12.44c1.26,2.27,3.57,3.7,5.55,5.38,9.1,7.73,11.06,22.57,4.26,32.39C100,74,69.89,68.81,54.65,84.57c-6.72,6.94-9.31,16.78-11.66,26.15-4.86,19.45-9.73,38.94-12.58,58.78-2.32,16.17-2.88,34.09,6.81,47.25,5.12,7,12.64,11.82,20.52,15.37,12.62,5.68,26.36,8.33,40,10.5,31.22,5,37.92,5.78,69.53,6.22,14.86.21,30.21-.19,43.77-6.27,16.29-7.3,28.23-22.19,35.47-38.51s10.26-34.14,12.92-51.79c1.92-12.8,3.34-27.1-4.3-37.54-11.79-16.11-14.64-13.29-23.87-31-3-5.82-3.38-12.62-3.65-19.17-.31-7.38.19-16.29,6.64-19.89,4.33-2.42,10.67-1.88,13.16-6.17,3.11-5.35-5.77-18.42-11.27-21.24C214.21,6,200.39,5.44,174.12.73"/><rect class="cls-2" x="137.49" y="222.71" width="55.88" height="53.25" transform="translate(-112.15 361.07) rotate(-78.36)"/><path class="cls-3" d="M159.18,251.64l0-.06,0-.06A.52.52,0,0,0,159,251l-.16,0-.13,0-.11.16,0,.13,0,0,0,.09,0,.14.12.14a.5.5,0,0,0,.41,0Z"/><path class="cls-3" d="M173.15,241.13a.33.33,0,0,0-.26-.11l-.12,0-.08.08,0,.06-.06.1,0,.11,0,.12a.28.28,0,0,0,.34.12h.1l.11-.08.07-.13A.38.38,0,0,0,173.15,241.13Z"/><path class="cls-3" d="M163.62,221.45s0-.06,0-.09l0-.11-.05-.08-.09-.07a.36.36,0,0,0-.28,0,.36.36,0,0,0-.17.29h0l0,.1,0,.08.07.07a.35.35,0,0,0,.31,0A.33.33,0,0,0,163.62,221.45Z"/><path class="cls-3" d="M166.5,233.47l-.05.1,0,.06,0,.12.07.11a.25.25,0,0,0,.12.1l.16,0,.11-.08.07-.11a.32.32,0,0,0-.06-.28.31.31,0,0,0-.23-.1l-.11,0Z"/><path class="cls-3" d="M161.54,233.06a.47.47,0,0,0-.17.27.33.33,0,0,0,.23.42h0a.31.31,0,0,0,.33-.11l0-.1a.32.32,0,0,0,0-.14v-.12l-.1-.15a.39.39,0,0,0-.1-.08l-.09,0h-.08Z"/><path class="cls-3" d="M173.9,233.18l-.05,0,0,.07a.19.19,0,0,0,0,.07.42.42,0,0,0,.09.38.48.48,0,0,0,.43.13l.09,0,.06-.06.08-.12a.43.43,0,0,0,.09-.18v-.1l0-.08-.06-.08a.53.53,0,0,0-.59-.08Z"/><path class="cls-3" d="M169.34,232a.3.3,0,0,0,0,.1l0,.11.06.09.11.07.17,0h.1l.09,0,.09-.09a1.77,1.77,0,0,0,.08-.22.37.37,0,0,0-.09-.33l-.09-.06a.39.39,0,0,0-.33,0A.43.43,0,0,0,169.34,232Z"/><path class="cls-3" d="M191.59,237.43v.14l.06.14a.45.45,0,0,0,.14.14H192l.11-.06.07-.07-.11-.12.11.11,0-.17,0-.14-.16-.11A.29.29,0,0,0,191.59,237.43Z"/><path class="cls-3" d="M183.27,240.56l0,.12.05.1.09.08a.42.42,0,0,0,.32,0,.36.36,0,0,0,.17-.24v-.08l0-.11-.07-.09-.11-.06A.39.39,0,0,0,183.27,240.56Z"/><path class="cls-3" d="M153.36,233.13l0,.09-.06-.08-.09.06-.07.13a.44.44,0,0,0,.29.45h.12l.1,0,.09-.08,0-.08a.3.3,0,0,0,0-.23.27.27,0,0,0-.17-.25h-.13Z"/><path class="cls-3" d="M174.94,235.89l-.07.06-.05.09,0,.11,0,.13.07.09.14.08a.3.3,0,0,0,.37-.16v-.11l0-.11a.3.3,0,0,0-.36-.22Z"/><path class="cls-3" d="M155.09,228.8a.55.55,0,0,0,0,.18l0,.09.06.07.09.05.1,0,.11,0,.1-.05.09-.14v-.06l0-.07v-.08l0-.1-.06-.07-.09-.06a.39.39,0,0,0-.3,0A.32.32,0,0,0,155.09,228.8Z"/><path class="cls-3" d="M161.48,226.55l0,.16.06.08a.28.28,0,0,0,.22.19h.09l.08,0,.07,0a.28.28,0,0,0,.08-.15.33.33,0,0,0-.23-.37A.32.32,0,0,0,161.48,226.55Z"/><path class="cls-3" d="M170.83,222.74l-.12-.11-.17,0-.13,0-.09.06-.08.14v.12l0,.06a.32.32,0,0,0,.27.16.36.36,0,0,0,.31-.13l0-.16Z"/><path class="cls-3" d="M188,232.61l0,0,0,0a.3.3,0,0,0-.29.18h0l0,0,0,.06a.49.49,0,0,0,.06.37.52.52,0,0,0,.39.19l.13-.05.08-.07a.29.29,0,0,0,.16-.33h0a.09.09,0,0,0,0-.05.27.27,0,0,0-.17-.31h-.1Z"/><path class="cls-3" d="M186.09,225.14a.3.3,0,0,0-.15.16.34.34,0,0,0-.14.21.64.64,0,0,0,.13.46l0,.06.07.05a.54.54,0,0,0,.45,0,.49.49,0,0,0,.24-.36s0-.08,0-.12l0-.1-.05-.08-.07-.07-.06-.05A.37.37,0,0,0,186.09,225.14Z"/><path class="cls-3" d="M184.34,245a.44.44,0,0,0,0-.28l-.05-.07-.06,0-.08,0c-.37-.07-.45.15-.47.25v.09l0,.12.09.08.09,0a.51.51,0,0,0,.18.08l.11,0,.09-.05.07-.09Z"/><path class="cls-3" d="M182.26,233.48l0,.06,0,.08h0l0,0a.34.34,0,0,0,.05.28.38.38,0,0,0,.09.12l.07,0h.09l.07,0h0a.33.33,0,0,0,.36-.16v-.05a.43.43,0,0,0-.16-.46.41.41,0,0,0-.46,0Z"/><path class="cls-3" d="M174.69,227.68a.25.25,0,0,0-.24.18.28.28,0,0,0-.1.16.36.36,0,0,0,.05.22l0,0,.06,0,.1,0a.65.65,0,0,0,.19.1h.12l.1,0,.07,0,.06-.07,0-.09a.52.52,0,0,0-.29-.58h-.16Z"/><path class="cls-3" d="M150.35,224.89h0a.35.35,0,0,0,.08-.15v0l0,0,0-.07a.26.26,0,0,0-.12-.27l0,0-.11,0h-.32l-.12.07-.07.09,0,.17a.43.43,0,0,0,.43.46A.27.27,0,0,0,150.35,224.89Z"/><path class="cls-3" d="M179.38,230.74l.14.2h.07l.14,0,0,0h.05l.2-.13a.3.3,0,0,0-.23-.37.31.31,0,0,0-.25.05A.32.32,0,0,0,179.38,230.74Z"/><path class="cls-3" d="M178.81,249.88l-.1-.1h0a.36.36,0,0,0-.25-.11.24.24,0,0,0-.2.06l-.12.07-.09.11a.38.38,0,0,0,0,.2h0l0,.08h0v0l.05.1.09.08a.46.46,0,0,0,.38,0,.49.49,0,0,0,.24-.31A.25.25,0,0,0,178.81,249.88Z"/><path class="cls-3" d="M165.24,246.09l0,.06h0l-.07.05-.05.06,0,.08a.2.2,0,0,0,0,.07h0l0,.11v.14a.35.35,0,0,0,.15.13l.05.06.22,0a.36.36,0,0,0,.27-.09h0a.26.26,0,0,0,.17-.2.29.29,0,0,0-.07-.25l0-.05-.07-.08-.06-.07,0,0a.27.27,0,0,0-.21-.09Z"/><path class="cls-3" d="M173.85,248h0l0,0-.09.07-.06.1a.29.29,0,0,0-.15.21.25.25,0,0,0,0,.21h0l.07.14.05,0a.35.35,0,0,0,.15.17H174l.13,0h.11l.09,0,.13-.11a.91.91,0,0,0,.18-.36v-.07l0-.09,0-.09-.08-.07-.06,0-.05-.1h0v0l-.06-.07-.1-.06A.42.42,0,0,0,173.85,248Z"/><path class="cls-3" d="M187.28,251.47l-.1.08a.49.49,0,0,0,0,.11.34.34,0,0,0,.23.4.31.31,0,0,0,.38-.21v-.11l0-.1-.1-.1a.24.24,0,0,0-.09-.08l-.14,0Z"/><path class="cls-3" d="M156.61,246.56v.05h0a.2.2,0,0,1,0,.08l0,.14,0,.12.1.13a.44.44,0,0,0,.26.13h0a.24.24,0,0,0,.25-.08h0l.09-.06a.36.36,0,0,0,.08-.18.41.41,0,0,0,0-.11.28.28,0,0,1,0-.08v-.11l0-.08-.07-.08a.68.68,0,0,0-.53,0Z"/><path class="cls-3" d="M163.23,243.18a.27.27,0,0,0-.1.11.28.28,0,0,0-.09.1.44.44,0,0,0-.06.16.69.69,0,0,0,.09.49l.06.06.06,0,.08,0a.66.66,0,0,0,.65-.58v-.13l0-.07a.4.4,0,0,0-.12-.1.26.26,0,0,0-.15-.12h-.1A.34.34,0,0,0,163.23,243.18Z"/><path class="cls-3" d="M148.31,245.29a.3.3,0,0,0,0-.1.37.37,0,0,0,0-.15l0-.1-.06-.08-.09-.05-.18,0-.12,0-.09.06-.08.1,0,.14v.08l0,.07,0,.07a.49.49,0,0,0,.34.15l.09,0,.08,0Z"/><path class="cls-3" d="M164.33,250l-.11.06v0a.3.3,0,0,0-.19.12.34.34,0,0,0-.09.19.45.45,0,0,0,0,.12.17.17,0,0,1,0,.07l0,.12.06.08.08.07a.43.43,0,0,0,.33,0l.12-.08.07-.1v-.06a.44.44,0,0,0,.11-.22v-.08l0-.11-.06-.08-.12-.06,0,0Z"/><path class="cls-3" d="M188.92,245.23a.32.32,0,0,0-.19.08.24.24,0,0,0-.08.09.23.23,0,0,0-.11.16.43.43,0,0,0,0,.16l0,.07,0,.05a.41.41,0,0,0,.35.24h.09l.08,0,.07-.07a.89.89,0,0,0,.11-.26.45.45,0,0,0-.15-.44l-.15,0-.08,0Z"/><path class="cls-3" d="M151.09,236.7a.28.28,0,0,0,.16-.16v-.15l0,0a.29.29,0,0,0-.11-.22.21.21,0,0,0-.17-.06.37.37,0,0,0-.43.3.5.5,0,0,0,0,.21l0,.07,0,0,0,.05A.37.37,0,0,0,151.09,236.7Z"/><path class="cls-3" d="M140.88,237.2l-.07.05-.06.07a1.55,1.55,0,0,0-.08.23.41.41,0,0,0,.07.37.47.47,0,0,0,.35.17l.12-.05.08-.07.06-.09.05,0,.06-.1,0-.11,0-.16a.46.46,0,0,0-.47-.31Z"/><path class="cls-3" d="M147.31,235.69h0l.09,0,.08-.08a.35.35,0,0,0,0-.11.43.43,0,0,0-.19-.46.27.27,0,0,0-.33.05v0l-.06,0-.08.12a.53.53,0,0,0,.07.41l.07,0,.08,0h.08A.24.24,0,0,0,147.31,235.69Z"/><path class="cls-3" d="M167.44,239.24l0,.06,0,.06c0,.08,0,.2.2.31s.33,0,.36,0l0,0,.05-.06,0-.06a.25.25,0,0,0-.16-.3.53.53,0,0,0-.4,0Z"/><path class="cls-3" d="M169.25,244.66l-.09-.16-.11,0-.08.06-.07.1,0,.21V245l0,.07,0,.07a.34.34,0,0,0,.43,0,.26.26,0,0,0,.3-.2.19.19,0,0,0,0-.13v-.14l-.06-.12a.45.45,0,0,0-.36-.08Z"/><path class="cls-3" d="M169.17,238.81h0a.37.37,0,0,0-.08.19l0,.09v.1l0,.09,0,.05a.65.65,0,0,0,.49.18l.08,0a.19.19,0,0,0,.08-.07l.11-.06,0-.06,0-.06a.24.24,0,0,0,0-.12l0,0a.43.43,0,0,0-.15-.42l0-.09-.06-.06-.09,0A.48.48,0,0,0,169.17,238.81Z"/><path class="cls-3" d="M177.14,244.15a.27.27,0,0,0,.16.3.35.35,0,0,0,.42-.15v-.18l-.07-.12-.15-.09A.35.35,0,0,0,177.14,244.15Z"/><path class="cls-3" d="M174.56,241.16l-.11.12a.69.69,0,0,0-.09.21.26.26,0,0,0,.12.3l.09,0a.32.32,0,0,0,.28.05l.06,0,.09-.09a.42.42,0,0,0,.13-.21v0l0-.14-.07-.09-.1-.06a.59.59,0,0,0-.11-.09h-.14Z"/><path class="cls-3" d="M155.35,239.09l0-.08v0a.36.36,0,0,0,.06-.15.32.32,0,0,0,0-.17l-.05-.09-.06-.07-.11-.07a.45.45,0,0,0-.24-.1.19.19,0,0,0-.16.05.26.26,0,0,0-.25.2v.1a.49.49,0,0,0,0,.11.33.33,0,0,0,.08.32l.06,0,.07,0,.07,0a.55.55,0,0,0,.42,0Z"/><path class="cls-3" d="M174.15,242.25l-.12.07-.07.08,0,.1a.33.33,0,0,0-.09.17v.11l0,.09.11.11a.41.41,0,0,0,.32.08l.09,0,.07,0,.08-.12a.54.54,0,0,0,.1-.2.36.36,0,0,0-.12-.35l-.16,0h0v0A1,1,0,0,0,174.15,242.25Z"/><rect class="cls-2" x="163.71" y="217.21" width="52.15" height="54.73" transform="translate(-111.24 316.8) rotate(-65.68)"/><path class="cls-3" d="M188.35,227.86l0-.07,0-.06a.3.3,0,0,0-.1-.07.28.28,0,0,0-.29,0h-.05l-.11.07a.33.33,0,0,0-.05.29.36.36,0,0,0,.19.24.29.29,0,0,0,.31,0l.07-.13a.31.31,0,0,0,.1-.19Z"/><path class="cls-3" d="M188.93,238.11l0,0,.06,0a.5.5,0,0,0,.53-.09l.06-.15,0-.13-.12-.14-.13-.06,0,0-.07-.07h-.15l-.15.08a.48.48,0,0,0-.07.4Z"/><path class="cls-3" d="M186.49,244.44l-.09-.05h-.13l-.11.05-.09.09a.63.63,0,0,0,0,.36l.06.15.11.08.16,0a.36.36,0,0,0,.22-.43h0v-.08l0-.11Z"/><path class="cls-3" d="M167.85,233.53a.33.33,0,0,0-.39.09l-.07.14v.14l.1.15h0a.31.31,0,0,0,.35-.07l.11-.12,0-.14Z"/><path class="cls-3" d="M185.86,246.38h0a.54.54,0,0,0,.44-.13l.08-.14V246l-.07-.16v-.1l0-.08-.06-.08-.09,0h0a.35.35,0,0,0-.17-.14h-.07a.52.52,0,0,0-.16-.12.26.26,0,0,0-.27,0l-.06.1a.34.34,0,0,0-.16.24l0,.1.05.09.09.07.15.05h0l0,.06.06.14.06,0a.39.39,0,0,0,.16.2Z"/><path class="cls-3" d="M178.52,229.4l-.07-.06a.3.3,0,0,0-.35,0h0a.43.43,0,0,0-.2.25v.11l0,.09.08.09h0a.36.36,0,0,0,.25,0l.09-.06a.33.33,0,0,0,.25-.28l0-.11Z"/><path class="cls-3" d="M180.42,222.24a.17.17,0,0,0-.07-.1l-.1,0h-.14a.34.34,0,0,0-.32.3l0,.11.05.08.1.1a.74.74,0,0,0,.16.11.52.52,0,0,0,.21,0l.14-.16v0h0a.3.3,0,0,0,.05-.26A.22.22,0,0,0,180.42,222.24Z"/><path class="cls-3" d="M167.52,247.29l-.14,0-.11,0h0a.33.33,0,0,0-.33.31l0,.15.14.12,0,0a.29.29,0,0,0,.18,0h.15l.08-.05.06-.06,0-.08A.42.42,0,0,0,167.52,247.29Z"/><path class="cls-3" d="M165.27,250.45a.32.32,0,0,0,0-.18.36.36,0,0,0-.1-.11A.26.26,0,0,0,165,250l-.06,0h-.09l-.07,0-.08,0a.38.38,0,0,0-.23.18.43.43,0,0,0,0,.35.51.51,0,0,0,.26.3.46.46,0,0,0,.57-.18l0-.12Z"/><path class="cls-3" d="M170.37,240.28l0,0h.13l.09,0,.08-.08,0-.07V240l0-.12a.35.35,0,0,0-.09-.11l-.17,0-.08,0v0a.26.26,0,0,0-.22.21.26.26,0,0,0,.12.27h0Z"/><path class="cls-3" d="M182.54,235.61h0a.39.39,0,0,0,.18,0,.34.34,0,0,0,.16-.06h0a.28.28,0,0,0,.34-.09l0-.14,0-.06a.33.33,0,0,0,0-.14l0,0,0-.14-.11-.17-.08.14h0l0-.19-.15-.11h-.17a.38.38,0,0,0-.3,0l0,0a.44.44,0,0,0-.08.11.33.33,0,0,0-.11.17l-.08.15v.15a.26.26,0,0,0,.14.3A.24.24,0,0,0,182.54,235.61Z"/><path class="cls-3" d="M174.42,229.54a.69.69,0,0,0,.17.05h.09l.08,0,.08-.06a.37.37,0,0,0,0-.49l-.08-.08-.09,0h-.12a.32.32,0,0,0-.13.08l-.05,0-.11.1A.35.35,0,0,0,174.42,229.54Z"/><path class="cls-3" d="M181.08,243.91v0a.3.3,0,0,0-.08-.18v0l0-.08,0-.07-.1-.07a.41.41,0,0,0-.2,0h0l-.1,0-.12,0a.61.61,0,0,0-.17.79l.15.11h0l.09,0h.11a.26.26,0,0,0,.15-.05l.15,0a.45.45,0,0,0,.2-.25Z"/><path class="cls-3" d="M191.37,218.72l0-.08a.34.34,0,0,0-.17-.3l-.13-.06h-.1l-.09,0,0,.08,0-.08-.09,0-.1.11a.14.14,0,0,1,.06-.07.38.38,0,0,0-.28.33v.06a.83.83,0,0,0,.2.41l.1.05h.09l0,0H191l.11,0,.09-.09a.59.59,0,0,1,.08-.11,1.47,1.47,0,0,0,.1-.13Z"/><path class="cls-3" d="M175.54,251.54h-.13l-.1.05-.09.09s0,0,0,0a.44.44,0,0,0-.2.3V252a.29.29,0,0,0,.17.19.28.28,0,0,0,.24,0h.14l.15-.13A.42.42,0,0,0,175.54,251.54Z"/><path class="cls-3" d="M179.78,246.47l0-.07-.06,0a.24.24,0,0,0-.12-.1l-.11,0h-.08l-.06,0-.08.07a.45.45,0,0,0-.13.34.3.3,0,0,0,.14.22l.08,0h.17a.37.37,0,0,0,.31-.18.28.28,0,0,0,0-.28Z"/><path class="cls-3" d="M172.06,246.42l-.05-.08-.07-.07-.09,0a.4.4,0,0,0-.38,0l-.08.08a.42.42,0,0,0,0,.48l.1.06.1,0h.1a.37.37,0,0,0,.39-.33Z"/><path class="cls-3" d="M179.15,238.5l0,0a.28.28,0,0,0-.12-.16l-.07,0h-.15l-.07,0h0l-.12,0-.11.1a.29.29,0,0,0,.13.41h0a.3.3,0,0,0,.13.12l.06,0,.17-.05.11-.12a.25.25,0,0,0,.12-.24Z"/><path class="cls-3" d="M182.27,230.39a.28.28,0,0,0,.2-.22.27.27,0,0,0-.08-.25l-.15,0-.12,0V230l0-.08a.31.31,0,0,0-.25.18.29.29,0,0,0,0,.29l.15.07h.13Z"/><path class="cls-3" d="M171.8,219.37l-.09-.15-.16-.07h-.16l-.11.08a.31.31,0,0,0-.16.21v.1l0,.08.07.08.05,0a.31.31,0,0,0,.16,0h.08l.12,0,.12-.11v0l.06-.1Z"/><path class="cls-3" d="M161.47,245.62a.32.32,0,0,0-.18-.24h-.18l-.11.05a.5.5,0,0,0-.22.11l0,.15,0,.12.09.12.06,0c.38.16.54,0,.6-.14v-.15Z"/><path class="cls-3" d="M216.82,248.85l.08,0H217l.09,0,.08-.06a.38.38,0,0,0,0-.28.38.38,0,0,0-.24-.22h-.12l-.08,0-.08.05a.33.33,0,0,0-.08.29A.32.32,0,0,0,216.82,248.85Z"/><path class="cls-3" d="M204.71,249l-.08-.08-.06,0h-.11l-.13,0a.3.3,0,0,0-.11.1l0,.16.05.12.09.09a.3.3,0,0,0,.28,0,.28.28,0,0,0,.15-.2v-.11Z"/><path class="cls-3" d="M206.17,244.36a.41.41,0,0,0-.22-.22.32.32,0,0,0-.45.13v0a.29.29,0,0,0,0,.35l.08.06.14,0,.11,0,.17-.07.09-.08,0-.08,0-.08Z"/><path class="cls-3" d="M205.47,252l-.09,0h-.12l-.1,0-.08.08-.07.16v.1l0,.09.07.11a.93.93,0,0,0,.18.12.37.37,0,0,0,.34,0l.08-.08a.4.4,0,0,0,.05-.32A.46.46,0,0,0,205.47,252Z"/><path class="cls-3" d="M207.86,236.53h-.09l.09,0,0-.1-.11-.1a.43.43,0,0,0-.49.19l0,.11,0,.1.06.11.07.05a.28.28,0,0,0,.22,0,.3.3,0,0,0,.29-.11l0-.11Z"/><path class="cls-3" d="M211.63,239.11a.47.47,0,0,0-.17,0l-.1,0-.08,0-.06.08-.05.09v.11l0,.1.12.12.06,0,.06,0,.07,0h.1l.09,0,.07-.07a.34.34,0,0,0,0-.29A.29.29,0,0,0,211.63,239.11Z"/><path class="cls-3" d="M212.4,245.7h-.16l-.08,0a.29.29,0,0,0-.24.17v.16l0,.08a.28.28,0,0,0,.13.11.3.3,0,0,0,.4-.14A.31.31,0,0,0,212.4,245.7Z"/><path class="cls-3" d="M216.38,235.43h0a.49.49,0,0,0,.13.1h0l0,0,0,0a.27.27,0,0,0,.29-.06l0,0,0-.1,0-.13a1.62,1.62,0,0,0,0-.19l0-.12-.07-.09-.16-.06a.4.4,0,0,0-.52.31A.28.28,0,0,0,216.38,235.43Z"/><path class="cls-3" d="M192.92,245.09l0-.05v0l0-.07,0-.06-.07-.05s0,0-.07,0h0l-.1-.06-.14,0a.38.38,0,0,0-.15.12l-.07,0-.09.2a.3.3,0,0,0,0,.27v0a.29.29,0,0,0,.16.21.28.28,0,0,0,.25,0h.06l.09-.06.08,0h0a.28.28,0,0,0,.14-.18Z"/><path class="cls-3" d="M194.33,236.74h-.05v0l-.07-.06-.12-.06H194l-.14.06a.51.51,0,0,0-.19.23h0a.24.24,0,0,0,0,.26v0l0,.1.15.12.11,0,.08,0,.1,0,.09,0,.09,0a.66.66,0,0,0,.15-.49Z"/><path class="cls-3" d="M196.14,243.8a.31.31,0,0,0-.09-.12.21.21,0,0,0-.08-.11.3.3,0,0,0-.13-.09.7.7,0,0,0-.49,0l-.07,0-.05.06,0,.06a.63.63,0,0,0,.41.75l.06,0h.07l.07,0,.11-.08a.31.31,0,0,0,.16-.12v-.1A.36.36,0,0,0,196.14,243.8Z"/><path class="cls-3" d="M197.33,229.09l.09.06a.42.42,0,0,0,.14,0h.1l.09,0,.07-.07.07-.16v-.13l0-.1-.09-.09-.12-.06h-.15l-.07,0a.46.46,0,0,0-.21.29v.09l0,.09Z"/><path class="cls-3" d="M189.36,243.38l0-.12h0a.31.31,0,0,0-.07-.22.48.48,0,0,0-.16-.12l-.12,0-.06,0h-.12l-.09,0-.08.06a.42.42,0,0,0-.06.32l0,.13.09.09,0,0a.46.46,0,0,0,.19.16l.07,0h.12l.09,0,.08-.1,0,0Z"/><path class="cls-3" d="M204.94,233.59a.25.25,0,0,0,.12.19l.15,0h0a.31.31,0,0,0,.24,0,.27.27,0,0,0,.1-.15.37.37,0,0,0-.2-.48.46.46,0,0,0-.21,0h-.07l-.06,0,0,0A.36.36,0,0,0,204.94,233.59Z"/><path class="cls-3" d="M206.66,223.73l0-.08-.06-.07a.86.86,0,0,0-.2-.13.41.41,0,0,0-.6.29v.12l.06.1.06.07,0,.06.08.08.1,0h.16a.46.46,0,0,0,.4-.38Z"/><path class="cls-3" d="M206.72,230.19v0l0,.09.06.09.09.06a.44.44,0,0,0,.49-.09.26.26,0,0,0,0-.32l0,0,0-.07-.1-.1a.49.49,0,0,0-.4,0l-.07.06-.05.06,0,.09A.2.2,0,0,0,206.72,230.19Z"/><path class="cls-3" d="M199,248.67l-.05-.06,0,0c-.08,0-.19,0-.34.13s-.09.31-.08.35l0,.06.05,0,.05,0a.27.27,0,0,0,.32-.09.55.55,0,0,0,.1-.38Z"/><path class="cls-3" d="M193.43,249.23l.17,0v-.11l0-.09-.08-.09-.19-.08-.07,0h-.07l-.08,0a.32.32,0,0,0-.13.4.25.25,0,0,0,.13.33.17.17,0,0,0,.12,0h0l.11,0,.13,0a.39.39,0,0,0,.15-.32Z"/><path class="cls-3" d="M199,250.42h0a.59.59,0,0,0-.17-.13l-.08,0h-.09l-.1,0-.06,0a.63.63,0,0,0-.28.42v.09l0,.09,0,.11,0,.06.05,0,.11,0,0,.06a.45.45,0,0,0,.44-.05l.09,0,.07-.05.06-.08A.45.45,0,0,0,199,250.42Z"/><path class="cls-3" d="M201.74,237.15l.07.06h.05a.29.29,0,0,0,.13.1.53.53,0,0,0,.16,0l.09,0,.08-.05.09-.09a.37.37,0,0,0,.15-.2.23.23,0,0,0,0-.18.25.25,0,0,0-.14-.27l-.1,0a.33.33,0,0,0-.1-.06.3.3,0,0,0-.32,0l0,.05,0,.06,0,.06a.53.53,0,0,0-.1.41Z"/><rect class="cls-2" x="185.62" y="207.97" width="52.94" height="50.45" transform="translate(-51.44 406.17) rotate(-80.99)"/><path class="cls-3" d="M196.86,238.8l-.05,0-.05,0a.31.31,0,0,0,.05.38l0,0,.09.08a.3.3,0,0,0,.29,0,.32.32,0,0,0,.17-.24.28.28,0,0,0-.11-.28l-.14,0a.37.37,0,0,0-.2,0Z"/><path class="cls-3" d="M206.28,235.65l0-.05,0-.07a.5.5,0,0,0-.22-.47H206l-.12,0-.1.16,0,.13h0l0,.09,0,.14.12.12a.46.46,0,0,0,.39,0Z"/><path class="cls-3" d="M212.8,236.3v.1l0,.13.07.08.11.06a.62.62,0,0,0,.34-.09l.12-.09,0-.12,0-.16a.34.34,0,0,0-.45-.1h0l-.07,0-.1.06Z"/><path class="cls-3" d="M219,225.09a.31.31,0,0,0-.25-.08l-.11.05-.07.08,0,.05-.05.1v.1l0,.12a.28.28,0,0,0,.33.1H219l.1-.07.06-.13A.33.33,0,0,0,219,225.09Z"/><path class="cls-3" d="M214.78,236.4v0a.6.6,0,0,0-.24-.38l-.15,0-.12,0-.12.11-.1,0-.07.06,0,.08,0,.09v0a.31.31,0,0,0-.09.19h0l0,.06a.51.51,0,0,0-.07.17.27.27,0,0,0,.09.26l.11,0a.3.3,0,0,0,.26.09l.1,0,.06-.07,0-.1c0-.05,0-.1,0-.15h.07l.11-.09v-.05a.43.43,0,0,0,.15-.21Z"/><path class="cls-3" d="M200.81,247.59l0,.08a.29.29,0,0,0,.13.31h0v0a.41.41,0,0,0,.28.12l.1,0,.08-.06.06-.1v0a.26.26,0,0,0-.06-.23.27.27,0,0,0-.08-.07.32.32,0,0,0-.32-.16l-.1,0Z"/><path class="cls-3" d="M193.64,247.64a.22.22,0,0,0-.07.09v.11l0,.13a.33.33,0,0,0,.36.22l.09-.05.07-.07.06-.12a.52.52,0,0,0,.07-.18.41.41,0,0,0,0-.19l-.18-.1h0v0a.31.31,0,0,0-.26,0A.26.26,0,0,0,193.64,247.64Z"/><path class="cls-3" d="M205.58,242.25h0a.51.51,0,0,0,0-.18.36.36,0,0,0-.1-.13h0a.28.28,0,0,0-.17-.3l-.13,0-.06,0a.4.4,0,0,0-.13,0l0,0-.13,0-.13.14.15,0h-.18l-.07.17,0,.16a.39.39,0,0,0,.12.27l0,0,.12.05a.31.31,0,0,0,.18.06l.17,0,.13-.05a.23.23,0,0,0,.19-.39Z"/><path class="cls-3" d="M202,251.38a.54.54,0,0,0,0-.18l0-.08,0-.07-.07-.05a.36.36,0,0,0-.46.13l0,.1,0,.1,0,.11a.35.35,0,0,0,.12.1l0,0,.13.08A.33.33,0,0,0,202,251.38Z"/><path class="cls-3" d="M213.69,241.49l0,0a.21.21,0,0,0-.15.11l0,0-.07,0-.05.06,0,.1a.38.38,0,0,0,0,.2v.12l.05.11a.58.58,0,0,0,.78,0l.06-.17v0a.2.2,0,0,0,0-.09v-.11a.2.2,0,0,0-.1-.13l-.08-.13a.37.37,0,0,0-.28-.12Z"/><path class="cls-3" d="M187.56,238.33l-.06.06a.31.31,0,0,0-.24.23l0,.13,0,.1,0,.08.07,0-.06.05.06.08.12.07a.1.1,0,0,1-.08,0,.36.36,0,0,0,.38.17h.05a.81.81,0,0,0,.34-.29l0-.1v-.09s0,0,0-.06l0-.12-.06-.09-.11-.06a.31.31,0,0,1-.12-.05.76.76,0,0,0-.16-.06Z"/><path class="cls-3" d="M235.08,246.6l-.08.07a.53.53,0,0,0-.09.2.28.28,0,0,0,0,.2.36.36,0,0,0,.23.12l.12,0,.08-.06.07-.11,0-.16,0-.12-.06-.08-.14-.07h-.08Z"/><path class="cls-3" d="M222.23,244.71l0,.12.06.09.11.05h0a.4.4,0,0,0,.33.11l.08,0a.28.28,0,0,0,.14-.2.28.28,0,0,0-.06-.23h0l0-.11-.16-.12A.41.41,0,0,0,222.23,244.71Z"/><path class="cls-3" d="M226,241l0,.12v.11l.07.1a.47.47,0,0,0,.5.1l0-.06h0a.36.36,0,0,0,.21-.25v0l-.05-.13-.06-.06a.29.29,0,0,0-.21-.17h-.08A.67.67,0,0,0,226,241Z"/><path class="cls-3" d="M216.42,242.05l-.06,0v.05a.37.37,0,0,0-.07.14v.12l0,.06,0,.05.08,0a.4.4,0,0,0,.35,0,.25.25,0,0,0,.17-.19v-.08l0-.07,0-.09c0-.07-.1-.21-.25-.24a.31.31,0,0,0-.26.07Z"/><path class="cls-3" d="M218.34,249.26l-.06.07-.05.09,0,.09a.46.46,0,0,0,.1.36l.1,0a.38.38,0,0,0,.44-.12l0-.11v-.1l0-.08a.35.35,0,0,0-.41-.28Z"/><path class="cls-3" d="M209.14,244.67l0,0a.23.23,0,0,0-.12.15V245l0,.07.05.06v0l.07.1.11.08c.23,0,.33-.1.35-.23h0a.28.28,0,0,0,.08-.15v0l-.09-.15-.14-.07a.24.24,0,0,0-.25-.06Z"/><path class="cls-3" d="M200.78,243.83a.3.3,0,0,0-.26-.13.28.28,0,0,0-.21.14V244l.06.11.06,0-.07,0a.34.34,0,0,0,.24.2.31.31,0,0,0,.26-.12l0-.16,0-.12Z"/><path class="cls-3" d="M209.17,206.88a.19.19,0,0,0,0-.08l0-.1-.05-.08-.08-.06a.36.36,0,0,0-.27,0,.35.35,0,0,0-.15.28v0l0,.09,0,.07.06.06a.3.3,0,0,0,.29,0A.3.3,0,0,0,209.17,206.88Z"/><path class="cls-3" d="M212.42,218.14l0,.09v.07l0,.11.07.1a.26.26,0,0,0,.12.08l.15,0,.11-.08.06-.11a.33.33,0,0,0-.07-.26.32.32,0,0,0-.23-.09l-.1,0Z"/><path class="cls-3" d="M207.71,218a.44.44,0,0,0-.16.27.33.33,0,0,0,.25.39h0a.29.29,0,0,0,.31-.12l0-.09a.32.32,0,0,0,0-.14l0-.11-.1-.14L208,218l-.08,0h-.08Z"/><path class="cls-3" d="M219.41,217.54l0,.05,0,.07s0,.05,0,.07a.39.39,0,0,0,.1.35.45.45,0,0,0,.41.11l.09,0,.06-.06L220,218a.78.78,0,0,0,.08-.18v-.09l0-.08-.05-.07a.51.51,0,0,0-.56-.05Z"/><path class="cls-3" d="M215,216.66s0,.06,0,.09l0,.11.07.08.1.06.16,0,.1,0,.08,0,.08-.1a.77.77,0,0,0,.07-.2.36.36,0,0,0-.1-.31l-.09-.05a.41.41,0,0,0-.31,0A.48.48,0,0,0,215,216.66Z"/><path class="cls-3" d="M236.34,220.8v.12l.07.14a.38.38,0,0,0,.13.12h.15l.11-.06.06-.07-.11-.12.11.11,0-.17,0-.12-.16-.1C236.45,220.6,236.37,220.72,236.34,220.8Z"/><path class="cls-3" d="M228.6,224.12l0,.12,0,.08.09.07a.36.36,0,0,0,.3,0,.32.32,0,0,0,.15-.24v-.07l0-.1-.07-.08-.1,0A.35.35,0,0,0,228.6,224.12Z"/><path class="cls-3" d="M200,218.39l0,.08-.06-.07-.08.06-.07.13a.42.42,0,0,0,.3.41h.12l.09,0,.08-.08,0-.08a.23.23,0,0,0-.05-.21.25.25,0,0,0-.17-.23h-.12Z"/><path class="cls-3" d="M220.51,220.06l-.06.06,0,.09v.1l0,.12.07.09.14.06c.23,0,.31-.08.34-.16v-.11l0-.1a.28.28,0,0,0-.35-.19Z"/><path class="cls-3" d="M232.45,239.92a.36.36,0,0,0,.06.25l.09.06.05,0c.12,0,.33,0,.4-.33l0-.07,0,0,0-.09-.08-.07a.35.35,0,0,0-.3,0A.33.33,0,0,0,232.45,239.92Z"/><path class="cls-3" d="M201.41,214.22a.92.92,0,0,0,0,.16l0,.09.06.06.09,0,.1,0,.11,0,.08,0,.08-.14v-.06a.19.19,0,0,0,0-.07v-.07l0-.09-.06-.07-.08-.05a.3.3,0,0,0-.42.25Z"/><path class="cls-3" d="M207.37,211.81l0,.15.06.07a.29.29,0,0,0,.22.17h.09l.07,0,.06,0A.34.34,0,0,0,208,212a.3.3,0,0,0-.24-.34A.29.29,0,0,0,207.37,211.81Z"/><path class="cls-3" d="M216.05,207.79l-.12-.09-.16,0-.12,0-.09.06-.07.14V208l0,0,0,.06a.34.34,0,0,0,.26.14.37.37,0,0,0,.29-.14l0-.16Z"/><path class="cls-3" d="M232.73,216.39l0,0,0,0a.27.27,0,0,0-.26.18h0l0,0,0,.06a.47.47,0,0,0,.08.35.48.48,0,0,0,.37.16l.12,0,.08-.07a.3.3,0,0,0,.14-.2.48.48,0,0,0,0-.12h0l0,0a.28.28,0,0,0-.18-.29h-.1Z"/><path class="cls-3" d="M230.6,209.4a.32.32,0,0,0-.14.16.28.28,0,0,0-.12.21.62.62,0,0,0,.14.43l.05.05.07,0a.46.46,0,0,0,.43,0,.47.47,0,0,0,.21-.35s0-.07,0-.12l0-.09-.05-.07-.06-.06-.06,0C231,209.46,230.81,209.28,230.6,209.4Z"/><path class="cls-3" d="M229.8,228.28a.41.41,0,0,0,0-.27l0-.06-.06,0-.07,0c-.35,0-.43.17-.44.26v.09l.06.11.08.07.09,0a.4.4,0,0,0,.17.07l.1,0,.09-.05.06-.09A.19.19,0,0,0,229.8,228.28Z"/><path class="cls-3" d="M227.33,217.46l0,.06,0,.08h0a.28.28,0,0,0,.06.26.28.28,0,0,0,.08.12l.07,0h.09l.06,0h0a.28.28,0,0,0,.33-.16l0-.05a.4.4,0,0,0-.17-.42.38.38,0,0,0-.44,0Z"/><path class="cls-3" d="M219.92,212.3a.27.27,0,0,0-.23.18.53.53,0,0,0-.08.15.26.26,0,0,0,.06.21l.05,0,.05,0,.1,0a.49.49,0,0,0,.19.08h.11l.09-.05.06-.05.06-.06,0-.09a.49.49,0,0,0-.31-.53l-.14,0Z"/><path class="cls-3" d="M196.76,210.72h0a.26.26,0,0,0,.07-.15h0v0l0-.06a.27.27,0,0,0-.13-.25l-.05,0-.11,0h-.3l-.11.07-.06.09,0,.17c0,.27.17.41.43.4A.24.24,0,0,0,196.76,210.72Z"/><path class="cls-3" d="M224.49,215l.15.18h.05v0l.13,0,0,0h0l.18-.14a.28.28,0,0,0-.24-.34.32.32,0,0,0-.23.06A.33.33,0,0,0,224.49,215Z"/><path class="cls-3" d="M224.79,233.13l-.11-.09h0a.46.46,0,0,0-.25-.09.24.24,0,0,0-.18.07l-.12.06-.07.12a.26.26,0,0,0,0,.19h0l0,.08h0v0l0,.09.09.08a.43.43,0,0,0,.35,0,.46.46,0,0,0,.22-.31A.29.29,0,0,0,224.79,233.13Z"/><path class="cls-3" d="M211.77,230.14l0,.05-.05,0-.06,0,0,.06,0,.07v.07h0l0,.11,0,.13a.31.31,0,0,0,.15.11l0,.05.22,0a.3.3,0,0,0,.24-.09h0a.26.26,0,0,0,.15-.2.26.26,0,0,0-.09-.23l0,0-.07-.07-.06-.07,0,0a.32.32,0,0,0-.21-.08Z"/><path class="cls-3" d="M220,231.55h0l0,0-.08.07,0,.1a.28.28,0,0,0-.14.21.25.25,0,0,0,0,.19h0l.07.12,0,0a.36.36,0,0,0,.15.15h.13l.05,0,.12,0h.11l.08,0,.12-.11a.72.72,0,0,0,.15-.35v-.06l0-.09-.05-.08-.07-.06-.06,0,0-.09h0v0l-.06-.07-.09-.05A.4.4,0,0,0,220,231.55Z"/><path class="cls-3" d="M232.87,234.27l-.09.08a.23.23,0,0,0,0,.11.31.31,0,0,0,.23.36.29.29,0,0,0,.35-.21v-.11l0-.08-.09-.1-.1-.07H233Z"/><path class="cls-3" d="M203.62,231v0h0a.69.69,0,0,1,0,.08l0,.13,0,.11.1.13a.45.45,0,0,0,.25.11h0a.22.22,0,0,0,.23-.07l0,0,.09-.06a.61.61,0,0,0,.07-.17V231l0-.08-.08-.07a.63.63,0,0,0-.49,0Z"/><path class="cls-3" d="M209.75,227.47a.2.2,0,0,0-.09.11.22.22,0,0,0-.09.1.33.33,0,0,0,0,.15.66.66,0,0,0,.1.46l.06.05.06,0,.07,0a.63.63,0,0,0,.6-.57v-.13l0-.06a.27.27,0,0,0-.12-.09.26.26,0,0,0-.14-.11l-.1,0A.27.27,0,0,0,209.75,227.47Z"/><path class="cls-3" d="M195.72,230.11a.94.94,0,0,0,0-.09v-.14l-.05-.1-.06-.07-.09-.05-.16,0-.12,0-.09.06-.06.1,0,.13V230l0,.06,0,.06a.41.41,0,0,0,.32.13l.09,0,.07-.05Z"/><path class="cls-3" d="M211.08,233.9l-.1.06h0a.27.27,0,0,0-.19.12.36.36,0,0,0-.07.18.45.45,0,0,0,0,.12v.07l0,.1,0,.08.08.06a.42.42,0,0,0,.31,0l.12-.08.06-.1v-.06a.4.4,0,0,0,.1-.21v-.07l0-.11-.06-.07-.12-.06v0Z"/><path class="cls-3" d="M234.15,228.3a.26.26,0,0,0-.18.07.36.36,0,0,0-.07.1.23.23,0,0,0-.1.16.34.34,0,0,0,0,.14l0,.07,0,0a.43.43,0,0,0,.34.21l.09,0,.07,0,.06-.06a1.17,1.17,0,0,0,.1-.26.45.45,0,0,0-.17-.41l-.14,0-.07,0Z"/><path class="cls-3" d="M198,221.86a.22.22,0,0,0,.15-.16l0-.14,0,0a.32.32,0,0,0-.11-.21.24.24,0,0,0-.16,0,.36.36,0,0,0-.4.31.69.69,0,0,0,0,.2l0,.06,0,0,.05,0A.34.34,0,0,0,198,221.86Z"/><path class="cls-3" d="M188.33,222.78l-.06.05-.06.07a1.8,1.8,0,0,0-.06.22.4.4,0,0,0,.42.49l.11-.05.08-.07.05-.08,0,0,.06-.1v-.1l0-.15a.43.43,0,0,0-.46-.27Z"/><path class="cls-3" d="M194.35,221.07h0l.08,0,.07-.07a.17.17,0,0,0,0-.1.42.42,0,0,0-.2-.43.26.26,0,0,0-.31.06v0l0,0-.08.12a.51.51,0,0,0,.09.38l.07,0,.07,0h.09A.34.34,0,0,0,194.35,221.07Z"/><path class="cls-3" d="M221.6,237l-.07.05-.05.05a.38.38,0,0,0-.08.16v.11l0,.07a.35.35,0,0,0,.28.19.42.42,0,0,0,.36-.2l0-.13,0-.11L222,237a.43.43,0,0,0-.28-.11Z"/><path class="cls-3" d="M213.56,223.56l0,.05,0,.06c0,.08,0,.2.2.29s.32,0,.35,0l0,0,0-.06,0-.06a.25.25,0,0,0-.17-.27.51.51,0,0,0-.38,0Z"/><path class="cls-3" d="M215.51,228.61l-.09-.15-.11,0-.07.07-.06.1,0,.19v.08l0,.06,0,.06a.3.3,0,0,0,.41,0,.25.25,0,0,0,.27-.33v-.13l-.07-.11a.42.42,0,0,0-.34-.06Z"/><path class="cls-3" d="M215.18,223.07h0a.4.4,0,0,0-.07.19v.18l0,.08,0,0a.59.59,0,0,0,.46.15l.08,0,.07-.07.1-.06,0-.07,0-.06a.4.4,0,0,0,0-.11l0,0a.4.4,0,0,0-.16-.39l0-.08-.06-.05-.09,0A.44.44,0,0,0,215.18,223.07Z"/><path class="cls-3" d="M223,227.79a.25.25,0,0,0,.16.27.34.34,0,0,0,.39-.16v-.17l-.07-.12-.15-.07C223,227.57,223,227.72,223,227.79Z"/><path class="cls-3" d="M220.39,225.07l-.11.11a.77.77,0,0,0-.07.2.26.26,0,0,0,.12.29h.09a.29.29,0,0,0,.27,0l.05,0,.08-.08a.4.4,0,0,0,.11-.21v0l0-.13-.07-.08-.09,0a.31.31,0,0,0-.12-.08h-.12Z"/><path class="cls-3" d="M202.11,223.94l0-.08v-.05a.31.31,0,0,0,.06-.14.92.92,0,0,0,0-.16l0-.09-.07-.06-.1-.06a.5.5,0,0,0-.23-.09.25.25,0,0,0-.16.06.24.24,0,0,0-.22.2v.1a.19.19,0,0,0,0,.1.32.32,0,0,0,.09.3l.06,0,.06,0h.07a.46.46,0,0,0,.4,0Z"/><path class="cls-3" d="M220,226.12l-.11.06-.06.09,0,.09a.44.44,0,0,0-.08.17l0,.1,0,.09.11.09a.41.41,0,0,0,.31.07l.08,0,.06,0,.08-.12a.47.47,0,0,0,.08-.19.34.34,0,0,0-.13-.32l-.15,0-.05,0v0A.5.5,0,0,0,220,226.12Z"/><rect class="cls-2" x="202.67" y="190.38" width="49.1" height="46.79" transform="translate(-68.8 312.29) rotate(-61.66)"/><path class="cls-3" d="M242.27,213.55l0,0,.06,0a.24.24,0,0,0,.08-.09.27.27,0,0,0,0-.26v0l0-.1a.32.32,0,0,0-.27-.06.29.29,0,0,0-.22.15.28.28,0,0,0,0,.28l.12.07a.24.24,0,0,0,.16.1Z"/><path class="cls-3" d="M233.05,213.42l0,0,0,0a.49.49,0,0,0,.06.49l.12.06h.12l.14-.1.05-.11,0,0,.07-.06,0-.13-.07-.15a.41.41,0,0,0-.35-.08Z"/><path class="cls-3" d="M227.55,210.84l0-.08v-.12l0-.09-.08-.09a.51.51,0,0,0-.32,0l-.14,0-.08.09,0,.14a.31.31,0,0,0,.36.23h.07l.1,0Z"/><path class="cls-3" d="M238.48,194.84a.29.29,0,0,0-.06-.35l-.12-.08h-.12l-.14.08h0a.26.26,0,0,0,0,.31l.11.11.13,0Z"/><path class="cls-3" d="M218.64,218.74a.3.3,0,0,0,.2.15H219l.09,0,0,0,.08-.07,0-.09v-.1a.26.26,0,0,0-.26-.2h0l-.08,0-.11,0-.09.09A.32.32,0,0,0,218.64,218.74Z"/><path class="cls-3" d="M225.85,210.16v0a.46.46,0,0,0,.09.4l.11.08h.12l.14-.05h.09l.08,0,.08,0a.3.3,0,0,0,0-.08h0a.32.32,0,0,0,.14-.14h0v-.06a.36.36,0,0,0,.11-.13.23.23,0,0,0,0-.25l-.09-.06a.3.3,0,0,0-.2-.15l-.1,0-.08,0-.07.07a.69.69,0,0,1,0,.13h-.06l-.13,0,0,0a.44.44,0,0,0-.19.14Z"/><path class="cls-3" d="M241.51,204.65l.06-.06a.28.28,0,0,0,0-.31h0v0a.31.31,0,0,0-.21-.19h-.1l-.08,0-.08.07h0a.27.27,0,0,0,0,.23.35.35,0,0,0,.05.08.26.26,0,0,0,.23.24h.1Z"/><path class="cls-3" d="M219,192.3l0,0,0,0a.28.28,0,0,0-.06-.34l-.08-.08-.1,0h-.11a.32.32,0,0,0-.14.14.29.29,0,0,0,0,.32.33.33,0,0,0,.31.12Z"/><path class="cls-3" d="M247.8,206.81a.24.24,0,0,0,.09-.06l0-.09v-.13a.29.29,0,0,0-.24-.3h-.1l-.08,0-.09.09a.5.5,0,0,0-.11.13.41.41,0,0,0-.05.18l.13.14h0v0a.27.27,0,0,0,.23.06A.25.25,0,0,0,247.8,206.81Z"/><path class="cls-3" d="M226.19,193.68l0-.12,0-.1h0a.31.31,0,0,0-.25-.32l-.14,0-.11.12,0,0a.34.34,0,0,0,0,.16.32.32,0,0,0,0,.14l0,.07.05.06.08,0A.37.37,0,0,0,226.19,193.68Z"/><path class="cls-3" d="M223.5,191.47a.25.25,0,0,0,.16,0,.21.21,0,0,0,.1-.08.22.22,0,0,0,.17-.12l0-.05v-.14l0-.08a.3.3,0,0,0-.15-.22.37.37,0,0,0-.31,0,.44.44,0,0,0-.28.22.42.42,0,0,0,.12.52l.11,0Z"/><path class="cls-3" d="M232.27,196.68v.13l0,.09.07.08,0,0h.11l.11,0a.19.19,0,0,0,.1-.07l0-.15,0-.07h0a.22.22,0,0,0-.17-.21.23.23,0,0,0-.25.09v0Z"/><path class="cls-3" d="M235.69,207.86h0a.42.42,0,0,0,0,.15.27.27,0,0,0,0,.15h0a.26.26,0,0,0,.06.32l.12,0h.06a.24.24,0,0,0,.12,0l0,0,.12,0,.16-.08-.11-.09h0l.16.05.11-.13,0-.15a.37.37,0,0,0,0-.27l0,0-.1-.09a.25.25,0,0,0-.14-.1l-.13-.08H236a.24.24,0,0,0-.28.11A.21.21,0,0,0,235.69,207.86Z"/><path class="cls-3" d="M241.64,201a.94.94,0,0,0-.06.15v.09l0,.07.05.07a.33.33,0,0,0,.44,0l.08-.07,0-.08v-.1a.23.23,0,0,0-.07-.13v0l-.08-.11A.31.31,0,0,0,241.64,201Z"/><path class="cls-3" d="M228.36,206h0a.18.18,0,0,0,.17-.06h0l.08,0,.06,0,.07-.08a.35.35,0,0,0,.05-.18h0l0-.09v-.11a.53.53,0,0,0-.69-.2l-.11.12v0a.25.25,0,0,0-.05.07v0l0,.08a.26.26,0,0,0,0,.14l0,.14a.35.35,0,0,0,.21.18Z"/><path class="cls-3" d="M250.26,216.82l.07,0a.32.32,0,0,0,.28-.13l.06-.11v-.18l-.07,0,.07,0,0-.09-.09-.09a.16.16,0,0,1,.06,0,.34.34,0,0,0-.27-.26h-.06a.64.64,0,0,0-.38.15l-.05.08,0,.08,0,.05v.11l0,.1.08.09.09.07a1.14,1.14,0,0,0,.11.11Z"/><path class="cls-3" d="M211.21,195l.09,0a.33.33,0,0,0,.15-.14.23.23,0,0,0,0-.18.27.27,0,0,0-.17-.18h-.11l-.09,0-.09.07-.07.13v.11l0,.1.1.1.07,0Z"/><path class="cls-3" d="M221.87,200.6v-.12l0-.1-.08-.08a0,0,0,0,1,0,0,.35.35,0,0,0-.25-.19h-.08a.25.25,0,0,0-.18.13.3.3,0,0,0,0,.22v.12l.1.15A.37.37,0,0,0,221.87,200.6Z"/><path class="cls-3" d="M217.43,202.65l.06-.1,0-.1,0-.11c-.15-.22-.3-.25-.4-.23l-.05,0h0a.36.36,0,0,0-.26.16v.16l0,.07a.28.28,0,0,0,.13.22l.07,0A.7.7,0,0,0,217.43,202.65Z"/><path class="cls-3" d="M226.14,204.71l.07,0,0,0a.27.27,0,0,0,.1-.11l0-.1v-.07l0-.05-.06-.08a.39.39,0,0,0-.3-.14.28.28,0,0,0-.2.12l0,.07v.15a.36.36,0,0,0,.14.29.27.27,0,0,0,.26,0Z"/><path class="cls-3" d="M226.68,197.8l.08,0,.06-.06,0-.07a.37.37,0,0,0,0-.35l-.07-.07a.36.36,0,0,0-.43,0l-.06.09,0,.09v.08a.33.33,0,0,0,.27.37Z"/><path class="cls-3" d="M233.32,204.65l0,0a.22.22,0,0,0,.15-.1l0-.06v-.13l0-.07v0l0-.11-.08-.1a.26.26,0,0,0-.38.08h0a.23.23,0,0,0-.11.11l0,.05,0,.16.1.1a.23.23,0,0,0,.21.13Z"/><path class="cls-3" d="M240.38,208a.27.27,0,0,0,.19.19.23.23,0,0,0,.22-.06l.05-.12,0-.12h-.06l.07,0a.27.27,0,0,0-.15-.24.25.25,0,0,0-.26,0l-.07.13v.12Z"/><path class="cls-3" d="M250.9,199.27l.14-.07.08-.14v-.14l-.07-.11a.29.29,0,0,0-.17-.16h-.09l-.08,0-.08.06,0,0a.22.22,0,0,0,0,.14h0V199l0,.11.09.11h0l.09.06Z"/><path class="cls-3" d="M228.06,188.37a.28.28,0,0,0,.23-.14v-.16l0-.1a.43.43,0,0,0-.09-.2l-.12-.06h-.12l-.11.08,0,.06c-.18.32,0,.47.08.53H228Z"/><path class="cls-3" d="M221.69,237.71l0,.07v.09l0,.09,0,.07a.31.31,0,0,0,.24.06c.09,0,.15-.07.22-.2h0v-.09l0-.07,0-.08a.28.28,0,0,0-.25-.09A.27.27,0,0,0,221.69,237.71Z"/><path class="cls-3" d="M222.3,226.86l.08-.07,0,0v-.1l0-.11a.24.24,0,0,0-.07-.11l-.15,0-.11,0-.09.07a.27.27,0,0,0,.15.4h.1Z"/><path class="cls-3" d="M226.38,228.46a.36.36,0,0,0,.21-.19.29.29,0,0,0-.09-.41h0a.27.27,0,0,0-.31,0l-.06.07a.54.54,0,0,0,0,.12l0,.11.05.15.06.09.07,0,.08,0Z"/><path class="cls-3" d="M216,225.23l.05,0,.05,0,0-.06a.37.37,0,0,0,0-.34.45.45,0,0,0-.33-.22h-.09l-.07,0-.09.08a.39.39,0,0,0-.13.13l0,.08V225l0,.08a.45.45,0,0,0,.47.21Z"/><path class="cls-3" d="M219.56,227.35a.3.3,0,0,1,0-.08v-.11l0-.09-.07-.08-.14-.07-.09,0-.08,0-.1.05a.52.52,0,0,0-.12.16.33.33,0,0,0,0,.31l.06.07a.34.34,0,0,0,.29.06A.46.46,0,0,0,219.56,227.35Z"/><path class="cls-3" d="M202.19,217.19l0-.11,0-.14a.44.44,0,0,0-.08-.15l-.14,0-.11,0-.07,0,.06.13-.07-.13-.08.14v.13l.11.13A.25.25,0,0,0,202.19,217.19Z"/><path class="cls-3" d="M210,216.65l0-.1,0-.09,0-.09a.31.31,0,0,0-.48.09l0,.06v.1l0,.09.08.08A.32.32,0,0,0,210,216.65Z"/><path class="cls-3" d="M233.28,230.46v-.08l0,.08.09,0,.09-.09a.39.39,0,0,0-.13-.45l-.1,0h-.1l-.09,0,0,.07a.27.27,0,0,0,0,.2.24.24,0,0,0,.08.26l.1,0Z"/><path class="cls-3" d="M215.82,222.69l.07,0,.06-.06.05-.09v-.12l0-.09-.1-.1a.26.26,0,0,0-.35,0l0,.09v.1a.28.28,0,0,0,.25.28Z"/><path class="cls-3" d="M211.46,201.65a.34.34,0,0,0,0-.24l-.06-.08,0,0c-.1-.06-.28-.11-.45.16l0,.08,0,0v.09l0,.08a.29.29,0,0,0,.26.08A.36.36,0,0,0,211.46,201.65Z"/><path class="cls-3" d="M230.73,233.67a.33.33,0,0,0,.05-.15v-.09l0-.07-.06-.06-.08-.05h-.1l-.09,0-.11.09a.14.14,0,0,0,0,.06.1.1,0,0,0,0,.05l0,.06v.09l0,.08.06.07a.3.3,0,0,0,.25.06A.27.27,0,0,0,230.73,233.67Z"/><path class="cls-3" d="M224.78,234l0-.14,0-.08a.29.29,0,0,0-.14-.22l-.08,0h-.07l-.07,0a.29.29,0,0,0-.11.11.29.29,0,0,0,.11.37A.26.26,0,0,0,224.78,234Z"/><path class="cls-3" d="M216,234.8l.08.12.13.07h.12l.09,0,.1-.1,0,0v-.11a.27.27,0,0,0-.19-.2.3.3,0,0,0-.29,0l-.07.13Z"/><path class="cls-3" d="M204,222.15h0v0a.29.29,0,0,0,.3-.08h0l0,0,0-.05a.41.41,0,0,0,0-.32.48.48,0,0,0-.28-.26h-.12l-.09,0a.24.24,0,0,0-.18.13.3.3,0,0,0,0,.1h0l0,0a.23.23,0,0,0,.07.3l.08,0Z"/><path class="cls-3" d="M203.72,228.93a.31.31,0,0,0,.16-.1.27.27,0,0,0,.17-.14.61.61,0,0,0,0-.42l0-.07,0-.06a.49.49,0,0,0-.39-.1.44.44,0,0,0-.29.24.3.3,0,0,0,0,.1v.09l0,.08,0,.07,0,.06A.33.33,0,0,0,203.72,228.93Z"/><path class="cls-3" d="M210.21,212.65a.38.38,0,0,0-.05.25l0,.06,0,.06.06,0c.29.16.42,0,.46-.09l0-.07v-.11l0-.09-.07-.06a.3.3,0,0,0-.13-.11l-.1,0-.09,0-.08.06A.21.21,0,0,0,210.21,212.65Z"/><path class="cls-3" d="M209.05,222.87l0,0,0-.06h0a.29.29,0,0,0,0-.25.21.21,0,0,0,0-.12l0,0-.07,0H209a.26.26,0,0,0-.34,0l0,0a.38.38,0,0,0,0,.42.37.37,0,0,0,.39.11Z"/><path class="cls-3" d="M214,229.67a.25.25,0,0,0,.25-.09.31.31,0,0,0,.12-.11.23.23,0,0,0,0-.2l0-.05,0,0-.07-.07a.45.45,0,0,0-.14-.13l-.1,0-.09,0-.07,0-.07,0-.06.06a.45.45,0,0,0,.1.56l.14,0Z"/><path class="cls-3" d="M233.73,238.16h0a.27.27,0,0,0-.1.11h0l0,0,0,0a.23.23,0,0,0,0,.26l0,0,.09,0,.12,0,.16,0,.11,0,.08-.06.07-.14a.37.37,0,0,0-.25-.49A.22.22,0,0,0,233.73,238.16Z"/><path class="cls-3" d="M210.77,225.9l-.06-.2-.05,0v0l-.11,0h0l0,0-.2.06a.27.27,0,0,0,.11.37.28.28,0,0,0,.22,0A.31.31,0,0,0,210.77,225.9Z"/><path class="cls-3" d="M216.09,209.94l.06.11,0,0h0a.36.36,0,0,0,.18.15.25.25,0,0,0,.19,0l.11,0,.11-.08a.35.35,0,0,0,0-.17h0v-.07h0v-.12l-.06-.1a.38.38,0,0,0-.33-.07.41.41,0,0,0-.28.19A.27.27,0,0,0,216.09,209.94Z"/><path class="cls-3" d="M226.56,216.55l0,0h.05l.07,0,.05,0,0-.06s0,0,0-.06h0l.06-.09,0-.12a.2.2,0,0,0-.09-.14l0-.06-.17-.1a.28.28,0,0,0-.24,0h0a.26.26,0,0,0-.19.13.24.24,0,0,0,0,.23l0,.05,0,.09,0,.07v0a.24.24,0,0,0,.15.13Z"/><path class="cls-3" d="M219.78,212.79h.05l.1,0,.07-.07a.26.26,0,0,0,.18-.14.19.19,0,0,0,0-.18h0l0-.13,0,0a.38.38,0,0,0-.08-.17l-.12,0h0l-.1-.07-.09,0h-.09l-.13.06a.64.64,0,0,0-.24.25l0,.06v.09l0,.07,0,.08.05,0a.25.25,0,0,0,0,.1h0v0l0,.08.06.07A.35.35,0,0,0,219.78,212.79Z"/><path class="cls-3" d="M209.36,206.46l.1,0a.27.27,0,0,0,.07-.08.3.3,0,0,0-.1-.39.27.27,0,0,0-.37.07l0,.1v.09l.05.11.06.09.11.05Z"/><path class="cls-3" d="M233.94,218.34v-.05l0,0,.05-.06.07-.1,0-.11-.05-.14a.46.46,0,0,0-.19-.17h0a.2.2,0,0,0-.22,0h0l-.09,0a.37.37,0,0,0-.12.13.16.16,0,0,0,0,.08s0,0,0,.08l0,.09v.08l0,.08a.6.6,0,0,0,.43.17Z"/><path class="cls-3" d="M227.51,219.51a.24.24,0,0,0,.11-.06.41.41,0,0,0,.11-.07.44.44,0,0,0,.08-.11.64.64,0,0,0,.05-.44l0-.06-.05-.05-.05,0a.59.59,0,0,0-.7.32l0,.06v.12a.26.26,0,0,0,.07.11.24.24,0,0,0,.09.15h.09A.26.26,0,0,0,227.51,219.51Z"/><path class="cls-3" d="M240.6,221.51l-.06.07a.83.83,0,0,0,0,.12v.1l0,.08.07.07.13.07.11,0,.1,0,.09-.07.06-.11v-.2a.39.39,0,0,0-.24-.21h-.09l-.08,0Z"/><path class="cls-3" d="M228.32,213.48l.1,0h0a.27.27,0,0,0,.2,0,.41.41,0,0,0,.12-.14.3.3,0,0,0,0-.1s0,0,0-.06V213l0-.09,0-.08a.44.44,0,0,0-.28-.07l-.12,0-.09.08,0,0a.39.39,0,0,0-.15.16l0,.06v.11l0,.08.08.08h0Z"/><path class="cls-3" d="M206.41,211.3a.29.29,0,0,0,.18,0l.08-.06a.23.23,0,0,0,.14-.11.23.23,0,0,0,0-.14l0-.06v-.06a.41.41,0,0,0-.24-.29h-.15l-.08,0a.74.74,0,0,0-.16.19.38.38,0,0,0,0,.41l.12.07h.06Z"/><path class="cls-3" d="M236.09,228a.23.23,0,0,0-.18.09l0,.13v0a.28.28,0,0,0,0,.22.19.19,0,0,0,.12.09.32.32,0,0,0,.44-.15.49.49,0,0,0,.06-.17v-.07l0-.05,0-.06A.32.32,0,0,0,236.09,228Z"/><path class="cls-3" d="M244.81,230.19l.07,0,.07,0a1.09,1.09,0,0,0,.13-.17.4.4,0,0,0,0-.33.39.39,0,0,0-.25-.23h-.11l-.09,0-.07.06h-.05l-.08.07,0,.09v.14a.39.39,0,0,0,.32.38Z"/><path class="cls-3" d="M239,229.84h0l-.09,0-.08,0-.06.08a.41.41,0,0,0,.05.44.26.26,0,0,0,.29,0l0,0h.06l.1-.08a.49.49,0,0,0,0-.37l0-.06-.05,0-.07,0A.19.19,0,0,0,239,229.84Z"/><path class="cls-3" d="M220.05,207.58l.07,0,.06,0a.33.33,0,0,0,.12-.12.29.29,0,0,0,0-.1v-.06a.31.31,0,0,0-.19-.25.39.39,0,0,0-.38.06l-.06.1v.11l0,.12a.36.36,0,0,0,.21.19Z"/><path class="cls-3" d="M223,221.77l.05,0,0,0c0-.07.06-.18-.09-.32s-.27-.1-.3-.09l-.06,0-.05,0,0,0a.23.23,0,0,0,.06.29s.19.15.34.12Z"/><path class="cls-3" d="M222.82,216.75l0,.16h.1l.09,0,.08-.07.09-.17v-.12l0-.07a.29.29,0,0,0-.35-.15.22.22,0,0,0-.3.1.2.2,0,0,0,0,.11h0l0,.1,0,.12a.37.37,0,0,0,.28.16Z"/><path class="cls-3" d="M221.41,221.69h0a.58.58,0,0,0,.12-.14l0-.07,0-.08v-.09l0-.06a.58.58,0,0,0-.36-.27h-.08a.19.19,0,0,0-.08,0l-.11,0,0,0,0,0,0,.1,0,0a.38.38,0,0,0,0,.39l0,.08,0,.07.06.06A.43.43,0,0,0,221.41,221.69Z"/><path class="cls-3" d="M216.05,215.18a.24.24,0,0,0-.06-.29.33.33,0,0,0-.4,0l-.05.15,0,.12.11.11C215.92,215.35,216,215.24,216.05,215.18Z"/><path class="cls-3" d="M217.46,218.35l.13-.07a.49.49,0,0,0,.12-.15.25.25,0,0,0,0-.29l-.08,0a.26.26,0,0,0-.22-.12h-.06l-.1.05a.42.42,0,0,0-.16.15V218l0,.1.06.07.08.1.11,0Z"/><path class="cls-3" d="M233.11,224.94l-.06.06,0,.05a.37.37,0,0,0-.09.11.39.39,0,0,0,0,.14v.09l0,.07.07.08a.43.43,0,0,0,.17.15.22.22,0,0,0,.16,0,.23.23,0,0,0,.26-.11l0-.09.06-.08a.31.31,0,0,0,0-.29l0,0,0,0-.06,0a.46.46,0,0,0-.36-.11Z"/><path class="cls-3" d="M218.09,217.54l.11,0,.08,0,.05-.08a.32.32,0,0,0,.11-.12l0-.1v-.08l-.07-.12a.36.36,0,0,0-.24-.15h-.08l-.07,0-.11.08a.6.6,0,0,0-.13.14.33.33,0,0,0,0,.33l.12.07h.05A.35.35,0,0,0,218.09,217.54Z"/><rect class="cls-2" x="214.2" y="169.31" width="44.34" height="42.25" transform="translate(-45.02 76.61) rotate(-16.83)"/><path class="cls-3" d="M226.58,181l-.05,0-.05,0h-.11a.25.25,0,0,0-.16.17l0,0,0,.1a.32.32,0,0,0,.13.21.3.3,0,0,0,.24,0,.25.25,0,0,0,.17-.19l0-.11a.23.23,0,0,0,0-.17Z"/><path class="cls-3" d="M232.39,187h.11a.39.39,0,0,0,.27-.34l0-.12-.08-.07-.15,0-.11,0v0h-.08l-.09.07-.05.14a.41.41,0,0,0,.17.28Z"/><path class="cls-3" d="M234.28,192.11l-.08,0-.08.06,0,.09v.1a.46.46,0,0,0,.19.22l.12.06h.1l.11-.07a.27.27,0,0,0-.09-.37h0l0-.05-.08,0Z"/><path class="cls-3" d="M217.1,195.4a.27.27,0,0,0-.19.26l0,.13.07.08.14,0h0a.23.23,0,0,0,.18-.22v-.14l-.06-.1Z"/><path class="cls-3" d="M245,192.72a.26.26,0,0,0,0-.22l-.07-.07-.09,0h-.14l-.08,0-.08.07a.25.25,0,0,0,0,.29h0l0,.06.09.05h.12A.35.35,0,0,0,245,192.72Z"/><path class="cls-3" d="M234.93,193.63h0a.45.45,0,0,0,.2-.32l0-.12-.07-.09-.13-.05-.06-.06-.06,0h-.18a.25.25,0,0,0-.17,0h0l0,0a.3.3,0,0,0-.16,0,.19.19,0,0,0-.15.16v.09a.29.29,0,0,0,0,.23l.07,0,.08,0h.09l.11-.05h0l0,.05.11.05h0a.3.3,0,0,0,.2,0Z"/><path class="cls-3" d="M221.4,187.19h-.07a.28.28,0,0,0-.2.21h0v0a.28.28,0,0,0,0,.25l.06.07.07,0h.11a.21.21,0,0,0,.15-.14.19.19,0,0,0,0-.08.25.25,0,0,0,0-.3l-.08-.06Z"/><path class="cls-3" d="M227.93,209.41h-.1a.25.25,0,0,0-.18.25v.1l0,.08.08.07a.33.33,0,0,0,.17,0,.27.27,0,0,0,.19-.22.26.26,0,0,0-.12-.27Z"/><path class="cls-3" d="M218.75,181.8l-.1,0-.08,0-.09.07a.26.26,0,0,0,0,.35l.07.06.07,0h.11a.56.56,0,0,0,.17,0,.31.31,0,0,0,.14-.09v-.17l0,0h0a.22.22,0,0,0-.1-.19A.23.23,0,0,0,218.75,181.8Z"/><path class="cls-3" d="M224.23,204l-.09.06,0,.08h0a.28.28,0,0,0,0,.36l.12.06h.19a.25.25,0,0,0,.12-.08.19.19,0,0,0,.1-.08l0-.07v-.07l0-.07A.32.32,0,0,0,224.23,204Z"/><path class="cls-3" d="M224.54,207.09a.26.26,0,0,0-.11-.09.17.17,0,0,0-.12,0,.2.2,0,0,0-.18,0l0,0L224,207l0,.05,0,.08a.28.28,0,0,0,0,.23.36.36,0,0,0,.17.23.37.37,0,0,0,.31,0,.37.37,0,0,0,.26-.41l0-.08Z"/><path class="cls-3" d="M222.24,198.17h0l.07-.06,0-.08v-.15l-.06-.07-.09-.05a.18.18,0,0,0-.11,0l-.11.08,0,.06h0a.2.2,0,0,0,0,.25.21.21,0,0,0,.22.1l0,0Z"/><path class="cls-3" d="M227.17,188.84h0a.35.35,0,0,0,.13-.08.17.17,0,0,0,.06-.12h0a.23.23,0,0,0,.17-.24l-.06-.09,0,0a.35.35,0,0,0-.07-.09v0l-.07-.09-.15,0,0,.13h0l-.08-.13h-.15l-.11.08a.35.35,0,0,0-.16.19v.16a.22.22,0,0,0,0,.15l0,.14.08.09a.22.22,0,0,0,.25.11A.21.21,0,0,0,227.17,188.84Z"/><path class="cls-3" d="M219,189.46a.42.42,0,0,0,.14-.06l0-.05,0-.06,0-.08a.31.31,0,0,0-.27-.29h-.09l-.08,0-.08.06a.27.27,0,0,0,0,.12l0,0v.12A.27.27,0,0,0,219,189.46Z"/><path class="cls-3" d="M230.7,194.68l0,0a.21.21,0,0,0-.15-.07l0,0-.06,0-.06,0h-.1a.31.31,0,0,0-.14.09h0l-.07.05-.06.07a.48.48,0,0,0,.31.57h.15l0,0h.1l.06,0a.19.19,0,0,0,.06-.12l.07-.11a.35.35,0,0,0,0-.26Z"/><path class="cls-3" d="M223.54,173.82l-.06,0a.26.26,0,0,0-.26-.09l-.11,0-.07,0,0,.06.05,0-.06,0,0,.07v0a.3.3,0,0,0,0,.34l0,0a.67.67,0,0,0,.34.14l.09,0,.06,0h.05l.08-.07,0-.08v-.1a.37.37,0,0,1,0-.11.71.71,0,0,0,0-.14Z"/><path class="cls-3" d="M234.66,212.66l-.09,0a.28.28,0,0,0-.18,0,.17.17,0,0,0-.13.1.28.28,0,0,0,0,.22l.06.08.08,0h.1l.13,0,.08-.07,0-.08v-.12l0-.07Z"/><path class="cls-3" d="M231.39,202.28l-.08.07,0,.09v.1a0,0,0,0,1,0,0,.34.34,0,0,0,0,.28l0,.05a.26.26,0,0,0,.21,0,.28.28,0,0,0,.15-.13h0l.07-.07,0-.16A.36.36,0,0,0,231.39,202.28Z"/><path class="cls-3" d="M235.55,203.8l-.11,0-.07.06-.05.08c0,.24,0,.36.11.41h0a.31.31,0,0,0,.27.07l0,0,.08-.08,0-.07a.25.25,0,0,0,.06-.22l0-.06A.56.56,0,0,0,235.55,203.8Z"/><path class="cls-3" d="M231.28,196.93l-.06,0h-.05a.17.17,0,0,0-.12,0l-.09,0,0,.05,0,0v.09a.36.36,0,0,0,.1.28.3.3,0,0,0,.21.05l.06,0,.05,0,.05-.06a.32.32,0,0,0,.1-.27.25.25,0,0,0-.16-.17Z"/><path class="cls-3" d="M226.54,201l-.08,0h-.08l-.07,0a.34.34,0,0,0-.24.2v.09c.05.21.16.28.25.29h.1l.07-.05.06-.05a.31.31,0,0,0,.06-.41Z"/><path class="cls-3" d="M226.64,192.4h0a.22.22,0,0,0-.16,0l-.06,0,0,0,0,0s0,0,0,.06l0,0-.05.08,0,.12a.24.24,0,0,0,.3.18h0a.33.33,0,0,0,.14,0l0,0,.08-.12v-.13a.19.19,0,0,0-.05-.21Z"/><path class="cls-3" d="M224.22,185.79a.24.24,0,0,0,0-.24.23.23,0,0,0-.19-.1l-.11.05-.06.08,0,0,0,0a.22.22,0,0,0-.06.24.22.22,0,0,0,.18.15l.13,0,.07-.08Z"/><path class="cls-3" d="M212,184.65l-.14,0-.13,0-.09.09,0,.11a.28.28,0,0,0,0,.22l.06.05.06,0h.13c.07,0,.11-.07.11-.06h0l.05,0,.06-.08v-.13h0l0-.09Z"/><path class="cls-3" d="M219.65,206.17a.24.24,0,0,0-.23,0l-.07,0,0,.06,0,.08a.5.5,0,0,0-.07.19l.05.11.08.07.12,0,.06,0c.31-.1.31-.29.28-.4l-.07-.09Z"/><path class="cls-3" d="M255.13,178.63l.07,0,.06-.06,0-.07,0-.08a.28.28,0,0,0-.12-.19.3.3,0,0,0-.27,0h0l-.06.05,0,.06,0,.07a.24.24,0,0,0,.1.22A.21.21,0,0,0,255.13,178.63Z"/><path class="cls-3" d="M247.84,185.19h-.15l-.07.06-.05.09a.17.17,0,0,0,0,.12l.07.11.1,0h.1a.23.23,0,0,0,.17-.15.24.24,0,0,0,0-.2l-.07-.06Z"/><path class="cls-3" d="M246.25,181.57a.39.39,0,0,0-.26,0,.25.25,0,0,0-.2.32v0c0,.09.08.16.21.19h.08l.1-.06.08-.05.06-.13a.3.3,0,0,0,0-.1l0-.07,0-.06Z"/><path class="cls-3" d="M250.83,190.24l-.05,0h-.06l-.06,0a.31.31,0,0,0-.23.2.39.39,0,0,0,.07.35l.06.05.07,0h.11a.52.52,0,0,0,.17,0l.06,0,.05-.05,0-.07a.41.41,0,0,0-.16-.44Z"/><path class="cls-3" d="M249.91,186.63l-.08,0-.07.07,0,.07v.1l0,.13.05.07.06,0,.1,0a.56.56,0,0,0,.17,0,.29.29,0,0,0,.2-.19v-.08a.34.34,0,0,0-.14-.23A.35.35,0,0,0,249.91,186.63Z"/><path class="cls-3" d="M254.56,204.19l-.09.05-.08.1a.29.29,0,0,0,0,.14l.06.11.09.06.07,0,0-.13,0,.13.13,0,.08-.09,0-.15C254.75,204.2,254.63,204.18,254.56,204.19Z"/><path class="cls-3" d="M249.23,199.57l-.08.06,0,.07,0,.09a.34.34,0,0,0,.13.22.27.27,0,0,0,.23,0l.06,0,.07-.07,0-.08v-.09A.3.3,0,0,0,249.23,199.57Z"/><path class="cls-3" d="M243.1,175.9l0,0,0-.07-.07,0h-.12a.33.33,0,0,0-.2.37l0,.09.06,0,.1,0H243a.26.26,0,0,0,.14-.11.24.24,0,0,0,.11-.22l0-.09Z"/><path class="cls-3" d="M249.34,192l-.07,0h-.08l-.08,0-.08.07,0,.09v.12a.24.24,0,0,0,.25.2l.08,0,.06-.06a.24.24,0,0,0,0-.34Z"/><path class="cls-3" d="M238.73,208.24a.26.26,0,0,0-.16.13l0,.09v0c0,.1.11.25.39.18l0-.06h0l0-.06,0-.09a.27.27,0,0,0-.12-.22A.28.28,0,0,0,238.73,208.24Z"/><path class="cls-3" d="M246.77,175.46l-.12.07-.05.06,0,.07v.08l0,.08.06.07.06.05h.14l0,0H247l.06,0,0-.07,0-.06v-.09a.29.29,0,0,0-.13-.2A.3.3,0,0,0,246.77,175.46Z"/><path class="cls-3" d="M250.76,179.07l-.1.08,0,.06a.23.23,0,0,0,0,.24l0,.06,0,0,.06,0h.14a.27.27,0,0,0,.17-.3A.27.27,0,0,0,250.76,179.07Z"/><path class="cls-3" d="M257,184.15l0-.13,0-.13-.07-.08-.08,0h-.13l0,0,0,0,0,0a.28.28,0,0,0,0,.25.29.29,0,0,0,.21.16l.13,0Z"/><path class="cls-3" d="M256.57,199.86l0,0h0a.26.26,0,0,0-.24-.14h-.11a.34.34,0,0,0-.23.18.41.41,0,0,0,0,.34l.08.07.08,0a.25.25,0,0,0,.21,0l.08,0h.05a.23.23,0,0,0,.15-.24l0-.07Z"/><path class="cls-3" d="M261.06,195.7a.27.27,0,0,0-.18,0,.21.21,0,0,0-.19,0,.55.55,0,0,0-.28.26l0,.06V196a.48.48,0,0,0,.18.31.4.4,0,0,0,.34,0l.1,0,.06-.06,0-.06,0-.07a.21.21,0,0,1,0-.06A.31.31,0,0,0,261.06,195.7Z"/><path class="cls-3" d="M246.54,202a.36.36,0,0,0,.19-.13l0-.06v-.12c-.09-.28-.28-.26-.35-.24l-.07,0-.06.08,0,.09v.08a.27.27,0,0,0,0,.15l.05.07.07.05.09,0Z"/><path class="cls-3" d="M253.79,196.18h-.14a.25.25,0,0,0-.18.14.23.23,0,0,0-.05.1v.07l0,.07,0,0h0a.24.24,0,0,0,.24.19h.05a.33.33,0,0,0,.25-.28.32.32,0,0,0-.18-.32Z"/><path class="cls-3" d="M255,188.71a.22.22,0,0,0-.22-.1.29.29,0,0,0-.14,0,.24.24,0,0,0-.14.12v.19a.52.52,0,0,0,0,.17l.05.08.07.05.06,0,.07,0h.08a.41.41,0,0,0,.29-.42l-.07-.11Z"/><path class="cls-3" d="M247.71,170.68h0a.23.23,0,0,0,.14,0h.09a.22.22,0,0,0,.14-.19v0l0-.08a.41.41,0,0,1-.05-.09l-.08-.13-.08-.06-.09,0-.14,0a.34.34,0,0,0-.15.47A.2.2,0,0,0,247.71,170.68Z"/><path class="cls-3" d="M254.61,193.14l-.09.18,0,0h0l0,.11,0,0v0l.17.09a.23.23,0,0,0,.17-.3.26.26,0,0,0-.13-.16A.27.27,0,0,0,254.61,193.14Z"/><path class="cls-3" d="M241.05,200l0-.11v0h0a.3.3,0,0,0,0-.22.18.18,0,0,0-.12-.12l-.09-.06h-.11a.28.28,0,0,0-.14.08h0l-.05,0h0l0,.07,0,.1a.38.38,0,0,0,.16.25.39.39,0,0,0,.31.05A.19.19,0,0,0,241.05,200Z"/><path class="cls-3" d="M238.55,189.08h-.05l0,0-.06,0h-.13l-.05,0h0l-.09,0-.09.06a.23.23,0,0,0,0,.15l0,.06.05.17c.05.09.1.14.16.15l0,0a.21.21,0,0,0,.2.05.25.25,0,0,0,.15-.15l0-.05,0-.08,0-.07,0,0a.19.19,0,0,0,0-.18Z"/><path class="cls-3" d="M240.5,195.8h0l0,0-.08,0h-.09a.26.26,0,0,0-.21,0,.19.19,0,0,0-.13.1h0l-.08.09V196a.43.43,0,0,0-.06.17l.05.1,0,0,0,.1,0,.08.06.06.12,0a.5.5,0,0,0,.32,0h.05l.06-.05,0-.06,0-.08v-.06l0-.07h0l0,0,0-.07V196A.34.34,0,0,0,240.5,195.8Z"/><path class="cls-3" d="M243.14,206.49l-.09,0-.1,0a.25.25,0,0,0-.18.31.25.25,0,0,0,.28.19l.08-.05.05-.06,0-.11a.24.24,0,0,0,0-.09l0-.1Z"/><path class="cls-3" d="M235,183.24l0,0v0h-.08l-.11,0-.07.06-.06.12a.37.37,0,0,0,0,.23h0a.17.17,0,0,0,.14.14l0,0,.08,0a.38.38,0,0,0,.15,0,.2.2,0,0,0,.08,0l.06,0,.07,0,.05-.06,0-.08a.51.51,0,0,0-.17-.38Z"/><path class="cls-3" d="M239.83,186.58a.24.24,0,0,0-.12,0,.2.2,0,0,0-.11,0h-.12a.58.58,0,0,0-.31.25l0,.06V187a.52.52,0,0,0,.65.23l.05,0,0,0,0,0a.27.27,0,0,0,0-.12.33.33,0,0,0,0-.15l-.05-.07A.29.29,0,0,0,239.83,186.58Z"/><path class="cls-3" d="M232.71,177h.09l.1-.05.06-.07,0-.07v-.09l0-.13-.07-.08-.07,0h-.11l-.1,0-.06,0,0,0,0,0a.37.37,0,0,0,0,.29l0,.06.07,0Z"/><path class="cls-3" d="M235.47,189.93l-.09-.05h0a.26.26,0,0,0-.15-.09.32.32,0,0,0-.17,0l-.09,0,0,0-.07.06,0,.07,0,.08a.35.35,0,0,0,.13.23l.1.06h.14a.35.35,0,0,0,.2,0l.06,0,.06-.07,0-.08v-.1h0Z"/><path class="cls-3" d="M248.11,205.27a.25.25,0,0,0-.12-.1l-.1,0a.22.22,0,0,0-.16,0,.3.3,0,0,0-.1.07l0,.05,0,0a.39.39,0,0,0,0,.34l.05.06.06,0,.07,0a.93.93,0,0,0,.23,0,.35.35,0,0,0,.24-.27l0-.12,0-.05Z"/><path class="cls-3" d="M239.75,175.66a.23.23,0,0,0,.18.05l.1-.06v0a.24.24,0,0,0,.12-.16.19.19,0,0,0,0-.14.29.29,0,0,0-.38-.18.29.29,0,0,0-.14.08l0,0,0,.05v.06A.28.28,0,0,0,239.75,175.66Z"/><path class="cls-3" d="M235.54,168.73l-.06,0-.07,0-.19,0a.32.32,0,0,0-.23.18.37.37,0,0,0,0,.31l.08.07.08,0h.08l0,0h.09l.08,0,.1-.08a.38.38,0,0,0,0-.45Z"/><path class="cls-3" d="M239,172.64l0,0,.07,0,.07,0,.09,0a.35.35,0,0,0,.25-.31.21.21,0,0,0-.16-.21h0l-.05,0-.12,0a.42.42,0,0,0-.25.21v.13l0,.07A.27.27,0,0,0,239,172.64Z"/><path class="cls-3" d="M237,199l-.06,0-.06,0a.25.25,0,0,0-.15,0l-.09,0,0,0a.29.29,0,0,0,0,.28.36.36,0,0,0,.28.2l.11,0,.07-.06.05-.11a.32.32,0,0,0,0-.25Z"/><path class="cls-3" d="M244.17,188h-.11c-.07,0-.15.08-.15.26s.12.24.14.25l0,0h.11c.06,0,.15-.06.15-.22,0,0,0-.22-.14-.29Z"/><path class="cls-3" d="M241.07,191.34l.08-.12-.06-.07-.08,0h-.1l-.16,0-.05,0,0,0,0,.05a.26.26,0,0,0,.13.32c.08.16.2.15.25.13a.19.19,0,0,0,.09,0h0l.08,0,.06-.09a.35.35,0,0,0-.08-.27Z"/><path class="cls-3" d="M245.12,189.07h0a.36.36,0,0,0-.17,0l-.06,0-.07,0,0,.06,0,0a.61.61,0,0,0,.06.41l.05.05.08,0,.09.05h.11l.08,0,.05,0a.36.36,0,0,0,.24-.27l0-.06v-.15A.38.38,0,0,0,245.12,189.07Z"/><path class="cls-3" d="M244.41,196.65a.22.22,0,0,0-.15.23.28.28,0,0,0,.27.23l.12-.06.07-.1v-.13C244.6,196.62,244.46,196.64,244.41,196.65Z"/><path class="cls-3" d="M245.52,193.72l-.12,0a.37.37,0,0,0-.18,0,.22.22,0,0,0-.17.2l0,.07a.26.26,0,0,0,.07.22l.05,0,.09,0a.32.32,0,0,0,.2,0h0l.09-.08,0-.09V194a.37.37,0,0,0,0-.12l0-.1Z"/><path class="cls-3" d="M239.7,179.54h.07l0,0a.31.31,0,0,0,.13,0,.34.34,0,0,0,.12-.06l0-.07,0-.07v-.1a.28.28,0,0,0,0-.2.17.17,0,0,0-.1-.1.22.22,0,0,0-.24-.1l-.07.05h-.09s-.16.06-.19.18v.11l0,.06a.39.39,0,0,0,.16.29Z"/><path class="cls-3" d="M244.6,193.84l-.09-.05-.08,0-.08,0h-.15l-.08.05-.05.07,0,.11a.3.3,0,0,0,.06.26l0,.05.06,0,.11,0a.57.57,0,0,0,.18,0,.27.27,0,0,0,.19-.22l0-.12,0,0h0A.53.53,0,0,0,244.6,193.84Z"/><rect class="cls-2" x="233.43" y="156.57" width="18.27" height="19.17" transform="translate(-12.12 19.26) rotate(-4.44)"/><path class="cls-3" d="M247.46,162.9v0l0,0v-.05a.08.08,0,0,0-.05-.08l0,0,0,0a.11.11,0,0,0-.1,0,.11.11,0,0,0,0,.1.09.09,0,0,0,.06.09h.15Z"/><path class="cls-3" d="M244.41,164.8v0a.18.18,0,0,0,.12.15h0l0,0,0-.06v-.05h0v0l0-.05,0,0a.16.16,0,0,0-.13.05Z"/><path class="cls-3" d="M242.05,165.12v0l0,0,0,0-.05,0a.29.29,0,0,0-.11.06l0,.05v0l0,.05s.09,0,.17,0h0l0,0Z"/><path class="cls-3" d="M242.26,157.55a.11.11,0,0,0-.09-.1h-.06l0,0,0,.06h0a.1.1,0,0,0,.08.1h0l.05,0Z"/><path class="cls-3" d="M240.8,169.59a.15.15,0,0,0,.1,0l0,0,0,0v-.1l0,0a.1.1,0,0,0-.12,0h0l0,0v.05A.11.11,0,0,0,240.8,169.59Z"/><path class="cls-3" d="M241.35,165.25h0c0,.07.07.09.12.12h.05l0,0,0-.05,0,0,0,0v-.07h0a.14.14,0,0,0,0-.07h0v0s0,0,0-.06a.15.15,0,0,0-.06-.09h0a.11.11,0,0,0-.1,0l0,0V165s0,0,0,.06h0l0,0v0a.3.3,0,0,0,0,.09Z"/><path class="cls-3" d="M245.33,160.13v0a.1.1,0,0,0-.07-.1h0s-.06,0-.11,0l0,0,0,0v0h0a.09.09,0,0,0,0,.08h0a.11.11,0,0,0,.13,0l0,0Z"/><path class="cls-3" d="M235.34,160.83v0a.1.1,0,0,0-.09-.1h-.08l0,0a.08.08,0,0,0,0,.07.1.1,0,0,0,.07.1.11.11,0,0,0,.13,0Z"/><path class="cls-3" d="M247.85,159.51s0,0,0,0v0l0-.05a.11.11,0,0,0-.15,0l0,0,0,0v0a.56.56,0,0,0,0,.07.09.09,0,0,0,0,.06l.07,0h0a.12.12,0,0,0,.09,0A.09.09,0,0,0,247.85,159.51Z"/><path class="cls-3" d="M238,159.77l0,0,0,0h0a.13.13,0,0,0-.15-.06l0,.05v.08a.14.14,0,0,0,0,.06.13.13,0,0,0,0,0h.09A.15.15,0,0,0,238,159.77Z"/><path class="cls-3" d="M236.63,159.61s0,0,.05,0,0,0,0,0a.06.06,0,0,0,0-.07v0l0,0v0h0a.12.12,0,0,0-.1,0,.13.13,0,0,0-.11,0,.19.19,0,0,0,0,.13.16.16,0,0,0,.15.14h0Z"/><path class="cls-3" d="M240.61,159.47h0l0,0,0,0h.07l0,0,0,0a.08.08,0,0,0,0-.05l0,0,0,0h0a.1.1,0,0,0-.1,0,.14.14,0,0,0-.06.09h0Z"/><path class="cls-3" d="M244.1,162.42h0s0,.05,0,.06l0,0h0a.09.09,0,0,0,.08.09h0l0,0,0,0h0l0,0,0-.06h-.05l.06,0v-.07l0,0a.11.11,0,0,0-.06-.09h-.2l0,0a.1.1,0,0,0-.07.09A.09.09,0,0,0,244.1,162.42Z"/><path class="cls-3" d="M244.59,158.9a.14.14,0,0,0,0,.06v0l0,0h0a.13.13,0,0,0,.14-.09l0,0v-.07l0,0,0,0h-.05A.12.12,0,0,0,244.59,158.9Z"/><path class="cls-3" d="M241.3,163.37v0a.08.08,0,0,0,.05,0h0l0,0v-.06a.1.1,0,0,0,0-.07h0v0l0,0a.2.2,0,0,0-.27.08v.07h0s0,0,0,0h0v0a.05.05,0,0,0,0,0l0,0a.15.15,0,0,0,.11,0Z"/><path class="cls-3" d="M250.77,162.28l0,0a.09.09,0,0,0,.06-.1v-.08l0,0h0l0,0,0,0h0a.13.13,0,0,0-.14,0h0a.22.22,0,0,0-.09.13v.09l0,0,0,0h.15Z"/><path class="cls-3" d="M233.34,163.37l0,0a.12.12,0,0,0,0-.07.09.09,0,0,0,0-.07.12.12,0,0,0-.09,0l0,0,0,0v.1l0,0,0,0,.06,0,0,0Z"/><path class="cls-3" d="M238,163l0,0,0,0h0a.13.13,0,0,0-.12,0h0a.16.16,0,0,0,0,.09.14.14,0,0,0,0,.07h0l0,0,.06,0A.15.15,0,0,0,238,163Z"/><path class="cls-3" d="M237,164.57v0l0,0,0,0a.17.17,0,0,0-.18,0v0h0a.1.1,0,0,0,0,.1v0l0,0h0a.13.13,0,0,0,.09.05h0A.29.29,0,0,0,237,164.57Z"/><path class="cls-3" d="M240.3,163.4s0,0,0,0v0a.13.13,0,0,0,0-.06v0l0,0h0a.15.15,0,0,0-.13,0,.1.1,0,0,0,0,.09v.05l0,0a.13.13,0,0,0,.11.07.12.12,0,0,0,.09-.05Z"/><path class="cls-3" d="M239,161l0,0v-.07a.22.22,0,0,0-.07-.12h0c-.09,0-.13,0-.14.08v.1a.13.13,0,0,0,.17.06Z"/><path class="cls-3" d="M242.64,161.86h0a.09.09,0,0,0,0-.06v-.07l0,0h0l0,0-.05,0c-.08,0-.11.06-.1.11h0a.14.14,0,0,0,0,.06v0l0,0,.05,0a.17.17,0,0,0,.1,0Z"/><path class="cls-3" d="M245.66,161.45a.08.08,0,0,0,.1,0,.11.11,0,0,0,.06-.07v0l0,0h0l0,0s-.05-.06-.1,0a.11.11,0,0,0-.08.06v.06l0,0Z"/><path class="cls-3" d="M247.28,156.38l0,0v-.06l0-.05,0,0a.11.11,0,0,0-.09,0l0,0,0,0,0,0v0a.08.08,0,0,0,0,.05h0v0l0,0,.06,0h0Z"/><path class="cls-3" d="M237.47,157.63a.12.12,0,0,0,.05-.09l0,0v0l0,0a.1.1,0,0,0-.07-.05h0l0,0,0,0v0c0,.14.1.16.15.16l0,0Z"/><path class="cls-3" d="M245.81,175.17v0l0,0,0,0h0a.08.08,0,0,0,.09,0s0-.05,0-.11h0v0l0,0h0a.1.1,0,0,0-.11,0A.1.1,0,0,0,245.81,175.17Z"/><path class="cls-3" d="M243.72,171.48v-.06l0,0,0,0-.05,0-.06,0,0,0v.05a.1.1,0,0,0,.05.08s0,0,.09,0l0,0Z"/><path class="cls-3" d="M245.39,171.15a.13.13,0,0,0,0-.11.1.1,0,0,0-.11-.11h0a.1.1,0,0,0-.1.07v0a.43.43,0,0,0,0,.05l0,0,.05,0h.1Z"/><path class="cls-3" d="M241.31,172.28v-.07a.14.14,0,0,0-.06-.12.16.16,0,0,0-.15,0l0,0,0,0v0a.15.15,0,0,0,0,.07v.06l0,0a.18.18,0,0,0,.2,0Z"/><path class="cls-3" d="M242.92,172.22v0l0,0,0,0h-.11l0,0,0,0,0,0a.19.19,0,0,0,0,.08.12.12,0,0,0,.06.1h0a.13.13,0,0,0,.1,0A.15.15,0,0,0,242.92,172.22Z"/><path class="cls-3" d="M235.07,172.56v0l0-.05-.05,0-.06,0,0,0v0l0,0,0,0v.06l0,0,.06,0C235.05,172.64,235.07,172.59,235.07,172.56Z"/><path class="cls-3" d="M237.51,170.74v0l0,0h0a.11.11,0,0,0-.11,0,.13.13,0,0,0,0,.09v0l0,0,0,0h0A.12.12,0,0,0,237.51,170.74Z"/><path class="cls-3" d="M248.08,170.35l0,0,0,0,0,0,0-.05a.16.16,0,0,0-.14-.12h0l0,0,0,0v0a.16.16,0,0,0,0,.07.08.08,0,0,0,.08.07h0Z"/><path class="cls-3" d="M240.71,171.49v-.1l0,0,0,0h0a.12.12,0,0,0-.11.09v0l0,0a.11.11,0,0,0,.14,0Z"/><path class="cls-3" d="M234.83,165.5a.12.12,0,0,0,0-.08l0,0h0s-.12,0-.11.14l0,0h0l0,0,0,0a.15.15,0,0,0,.1,0A.13.13,0,0,0,234.83,165.5Z"/><path class="cls-3" d="M247.92,171.94a.13.13,0,0,0,0-.06l0,0h-.1l0,0,0,0,0,.06v0a0,0,0,0,0,0,0v0l0,0,0,0h0a.13.13,0,0,0,.1,0A.08.08,0,0,0,247.92,171.94Z"/><path class="cls-3" d="M246,173.29l0,0,0,0a.12.12,0,0,0-.09-.05h0l0,0,0,0a.13.13,0,0,0,0,.06.1.1,0,0,0,.11.1A.11.11,0,0,0,246,173.29Z"/><path class="cls-3" d="M243.31,175.43l.05,0h.06l0,0,0,0,0-.05v-.06a.19.19,0,0,0-.1,0,.12.12,0,0,0-.09.08v0Z"/><path class="cls-3" d="M236.71,173.81h0a.11.11,0,0,0,.08-.08h0v0a.17.17,0,0,0-.06-.12.2.2,0,0,0-.14,0l0,0,0,0s0,.06,0,.08a.06.06,0,0,0,0,0h0v0s0,.07.09.09h.08Z"/><path class="cls-3" d="M238.05,176.09a.16.16,0,0,0,0-.07.19.19,0,0,0,0-.08c0-.06-.05-.1-.08-.14H238a.17.17,0,0,0-.15,0,.18.18,0,0,0-.05.14s0,0,0,0l0,0,0,0h0l0,0S238,176.15,238.05,176.09Z"/><path class="cls-3" d="M236.74,169.38a.36.36,0,0,0,0,.09h.07c.13,0,.14-.1.14-.13v0l0,0,0,0h-.1l0,0,0,0,0,0Z"/><path class="cls-3" d="M238.52,173v0h0a.13.13,0,0,0-.05-.09s0,0,0,0h-.06l0,0h0a.11.11,0,0,0-.11.08v0a.14.14,0,0,0,.1.13.14.14,0,0,0,.15,0Z"/><path class="cls-3" d="M241.57,174.17a.09.09,0,0,0,.06-.08.14.14,0,0,0,0-.06.16.16,0,0,0,0-.07h-.08l-.07,0,0,0,0,0,0,0v.06a.18.18,0,0,0,.15.16l.06,0Z"/><path class="cls-3" d="M249.86,172.78h0a.06.06,0,0,0,0,.06h0v0a.08.08,0,0,0,.07.08h.1l.06,0,0,0,0,0v-.06a.15.15,0,0,0-.19-.11A.09.09,0,0,0,249.86,172.78Z"/><path class="cls-3" d="M239.73,173.61l-.07-.06h-.1l-.05.06a.12.12,0,0,0,.12.1.13.13,0,0,0,.07,0A.11.11,0,0,0,239.73,173.61Z"/><path class="cls-3" d="M238.1,167.24l0,0h0a.15.15,0,0,0,.1,0,.06.06,0,0,0,.06,0l0,0,0-.05s0,0,0-.06h0l0,0h0l0,0,0,0a.15.15,0,0,0-.12,0,.24.24,0,0,0,0,.13A.08.08,0,0,0,238.1,167.24Z"/><path class="cls-3" d="M242.94,167.2v0h0l0,0v-.08h0v0l0-.05-.06,0h-.1a.12.12,0,0,0-.08.06h0a.09.09,0,0,0,0,.09.1.1,0,0,0,0,.07l0,0h0l0,0v0h.08Z"/><path class="cls-3" d="M239.92,167.4h0l0,0v0a.12.12,0,0,0,0-.09s0,0,0-.06h0l0,0h0l-.07,0h-.17l0,0a.37.37,0,0,0,0,.14v.05l0,0,0,0h0s0,0,0,0h0l0,0h0A.19.19,0,0,0,239.92,167.4Z"/><path class="cls-3" d="M235.16,167.52l0,0a.08.08,0,0,0,0,0,.12.12,0,0,0-.12-.11.09.09,0,0,0-.1.1v0l0,0,0,0,0,0h0Z"/><path class="cls-3" d="M245.74,166.23v0h0a.1.1,0,0,1,0,0v-.05l0,0,0,0a.15.15,0,0,0-.1,0h0a.07.07,0,0,0-.07.05h0l0,0a.2.2,0,0,0,0,.07v.06l0,0,0,0,0,0a.24.24,0,0,0,.18,0Z"/><path class="cls-3" d="M243.87,168l0,0,0-.05v0a.24.24,0,0,0-.07-.16h-.08a.22.22,0,0,0-.16.25v0l0,0v0l.05,0,.06,0,0,0A.12.12,0,0,0,243.87,168Z"/><path class="cls-3" d="M248.59,165.86v0a.13.13,0,0,0,0,0l0,0,0,0h.1l0,0,0,0,0,0v-.1l0,0a.16.16,0,0,0-.12,0h0l0,0Z"/><path class="cls-3" d="M242.86,165.82l0,0h0a.08.08,0,0,0,0,0,.2.2,0,0,0,0-.07.09.09,0,0,0,0,0v0l0,0,0,0h0a.14.14,0,0,0-.11,0l0,0v.06a.13.13,0,0,0,0,.08v0l0,0,0,0h.1Z"/><path class="cls-3" d="M235.21,169.73a.09.09,0,0,0,.06,0s0,0,0,0a0,0,0,0,0,0-.06.09.09,0,0,0,0-.05l0,0,0,0a.19.19,0,0,0-.14,0h0l0,0v0a.3.3,0,0,0,0,.1.17.17,0,0,0,.1.13h.05l0,0Z"/><path class="cls-3" d="M248.49,169s0,0,0,.06l0,0h0a.14.14,0,0,0,.06.07h.06a.12.12,0,0,0,.11-.14.14.14,0,0,0,0-.07v0h-.05A.12.12,0,0,0,248.49,169Z"/><path class="cls-3" d="M251.81,167.82l0,0v0a.28.28,0,0,0,0-.09.19.19,0,0,0-.06-.11.14.14,0,0,0-.13,0l0,0,0,0v.12l0,.05a.15.15,0,0,0,.18.06Z"/><path class="cls-3" d="M249.84,168.93h0l0,0,0,0v0a.14.14,0,0,0,.11.13.09.09,0,0,0,.1,0h0l0,0v0a.15.15,0,0,0-.06-.13h-.09Z"/><path class="cls-3" d="M238.9,165.63l0,0,0,0s0,0,0-.07a.08.08,0,0,0,0,0v0a.13.13,0,0,0-.12,0,.14.14,0,0,0-.11.1v0l0,0,0,0a.17.17,0,0,0,.11,0Z"/><path class="cls-3" d="M242.86,169.67v0s0-.06-.09-.08-.12,0-.12,0h0v0a.08.08,0,0,0,.08.08s.1,0,.14,0Z"/><path class="cls-3" d="M241.75,168.06l0,0,0,0,0,0v-.14l0,0,0,0a.12.12,0,0,0-.14,0,.09.09,0,0,0-.08.1.06.06,0,0,0,0,0h0l0,0,0,0a.14.14,0,0,0,.12,0Z"/><path class="cls-3" d="M242.33,170h0a.19.19,0,0,0,0-.08v0l0,0,0,0,0,0a.22.22,0,0,0-.17,0l0,0,0,0,0,0v0s0,0,0,0h0a.15.15,0,0,0,.09.13l0,0,0,0h0A.16.16,0,0,0,242.33,170Z"/><path class="cls-3" d="M239.19,169a.08.08,0,0,0-.08-.08.11.11,0,0,0-.12.09V169l0,0,.06,0C239.19,169.06,239.2,169,239.19,169Z"/><path class="cls-3" d="M240.33,169.71l0-.05a.56.56,0,0,0,0-.07c0-.05,0-.08-.07-.09h0a.11.11,0,0,0-.1,0l0,0,0,0a.2.2,0,0,0,0,.09h0l0,0,0,0h0l.05,0h.05Z"/><path class="cls-3" d="M246.86,168.57v.05s0,0,0,.06a.43.43,0,0,1,0,0l0,0h0l.05,0a.17.17,0,0,0,.09,0l0,0a.11.11,0,0,0,.06-.09v-.08a.1.1,0,0,0-.06-.09H247a.17.17,0,0,0-.14,0Z"/><path class="cls-3" d="M240.36,169.31l0,0,0,0v0a.35.35,0,0,0,0-.06v0l0,0,0,0h-.12l0,0,0,0,0,.05s0,0,0,.08a.12.12,0,0,0,.07.1h.14Z"/><rect class="cls-2" x="210.81" y="53.62" width="43.87" height="46.04" transform="translate(-2.42 7.79) rotate(-1.91)"/><path class="cls-3" d="M244.83,69.34l0,0,0,0a.52.52,0,0,0,0-.11.27.27,0,0,0-.13-.21l0,0-.09-.06a.29.29,0,0,0-.25.07.31.31,0,0,0-.1.24.25.25,0,0,0,.14.22h.12a.28.28,0,0,0,.18,0Z"/><path class="cls-3" d="M237.3,73.58v.11a.43.43,0,0,0,.27.37h.13l.09-.06.07-.15v-.12h0l0-.09-.05-.11-.12-.08a.39.39,0,0,0-.33.09Z"/><path class="cls-3" d="M231.63,74.1V74l0-.1-.08-.06-.1,0a.46.46,0,0,0-.27.13l-.09.1,0,.11.05.13a.28.28,0,0,0,.4,0h0l.07,0,.06-.07Z"/><path class="cls-3" d="M232.92,56a.27.27,0,0,0-.21-.26h-.13l-.11,0-.07.13h0a.23.23,0,0,0,.17.24l.14,0,.11,0Z"/><path class="cls-3" d="M228.14,84.7a.28.28,0,0,0,.23,0l.09-.06,0-.08v0l0-.09v-.09l0-.09a.24.24,0,0,0-.3,0h0l-.07,0-.08.08,0,.12A.34.34,0,0,0,228.14,84.7Z"/><path class="cls-3" d="M229.93,74.34v0a.47.47,0,0,0,.27.28h.13l.1,0,.09-.11.07,0,0-.06,0-.08v-.1a.29.29,0,0,0,0-.17h0l0,0a.38.38,0,0,0,0-.16.23.23,0,0,0-.12-.2h-.1a.28.28,0,0,0-.23,0l-.08.06,0,.07,0,.1s0,.08,0,.13h-.06l-.08.09v.06a.3.3,0,0,0-.09.19Z"/><path class="cls-3" d="M240,62.49l0-.08a.28.28,0,0,0-.16-.24h0a.38.38,0,0,0-.26-.06l-.08,0-.06.06,0,.09v0a.22.22,0,0,0,.09.19l.07,0a.28.28,0,0,0,.3.09l.08-.06Z"/><path class="cls-3" d="M216,63.1l0-.05v0a.26.26,0,0,0-.21-.25l-.1,0-.1,0-.09.06a.25.25,0,0,0,0,.17.27.27,0,0,0,.17.25.26.26,0,0,0,.3,0Z"/><path class="cls-3" d="M246.12,61.27a.31.31,0,0,0,0-.1v-.09l-.06-.1a.28.28,0,0,0-.34-.13l-.07.06-.05.07,0,.11a.57.57,0,0,0,0,.16.34.34,0,0,0,0,.17l.17,0h0v0a.26.26,0,0,0,.22-.06A.18.18,0,0,0,246.12,61.27Z"/><path class="cls-3" d="M222.42,60.84l0-.11-.06-.07h0a.3.3,0,0,0-.36-.13l-.09.09,0,.16v0a.33.33,0,0,0,.05.15.16.16,0,0,0,0,.11l.07,0,.07,0h.08A.36.36,0,0,0,222.42,60.84Z"/><path class="cls-3" d="M219.2,60.32a.22.22,0,0,0,.12-.09.31.31,0,0,0,.05-.12.19.19,0,0,0,.07-.17v-.06l0-.06,0,0-.07-.05a.34.34,0,0,0-.22-.11.43.43,0,0,0-.28.11.45.45,0,0,0-.12.31.38.38,0,0,0,.34.36l.11,0Z"/><path class="cls-3" d="M228.77,60.39v0l0,.09.07.05.09,0H229l.09,0,.07-.08a.22.22,0,0,0,.05-.11l0-.13-.06-.05h0a.22.22,0,0,0-.24-.1.21.21,0,0,0-.16.19v0A.19.19,0,0,0,228.77,60.39Z"/><path class="cls-3" d="M236.81,67.83h0a.33.33,0,0,0,0,.15.17.17,0,0,0,.11.1h0a.22.22,0,0,0,.19.23l.11,0,.05,0,.1,0h0l.11,0,.09-.14h-.13l.15,0,0-.15-.06-.14a.3.3,0,0,0-.14-.21l-.05,0-.11,0a.24.24,0,0,0-.16,0H237l-.11.06a.2.2,0,0,0-.17.21A.17.17,0,0,0,236.81,67.83Z"/><path class="cls-3" d="M238.38,59.45a.89.89,0,0,0,0,.15l0,.07.05,0,.07,0a.31.31,0,0,0,.37-.19l0-.09v-.09l0-.09a.28.28,0,0,0-.11-.07l0,0-.12,0A.27.27,0,0,0,238.38,59.45Z"/><path class="cls-3" d="M230,69.82l0,0a.18.18,0,0,0,.11-.13l0,0,0,0,0-.06,0-.1a.58.58,0,0,0,0-.17h0l0-.09-.06-.08a.5.5,0,0,0-.66.17l0,.15v.12l0,.07a.24.24,0,0,0,.1.1l.09.09a.31.31,0,0,0,.26,0Z"/><path class="cls-3" d="M252.85,68.22l0-.06a.29.29,0,0,0,.16-.24V67.8l0-.08-.05-.06-.05,0,0,0-.06-.06-.12,0,.07,0a.31.31,0,0,0-.34-.08l0,0a.7.7,0,0,0-.24.3v.09l0,.08a.07.07,0,0,0,0,0l0,.1.07.06.1,0a.23.23,0,0,1,.11,0l.15,0Z"/><path class="cls-3" d="M210.91,69l.06-.08a.32.32,0,0,0,0-.18.19.19,0,0,0-.07-.16.27.27,0,0,0-.21-.07l-.1,0-.06.07,0,.1v.14l0,.1.07.06.13,0,.07,0Z"/><path class="cls-3" d="M222.19,68.48l-.05-.1-.07-.06-.1,0h0a.31.31,0,0,0-.29,0l-.06,0a.25.25,0,0,0-.09.19.26.26,0,0,0,.09.19h0l0,.08.15.08A.36.36,0,0,0,222.19,68.48Z"/><path class="cls-3" d="M219.56,72.24v-.11l0-.09-.07-.08a.4.4,0,0,0-.44,0v0h0a.32.32,0,0,0-.13.25v0l.06.1.07,0a.24.24,0,0,0,.2.11h.07A.63.63,0,0,0,219.56,72.24Z"/><path class="cls-3" d="M227.59,69.79a.1.1,0,0,0,0-.05v0a.28.28,0,0,0,0-.13l0-.1,0,0,0,0-.08,0a.38.38,0,0,0-.31,0,.29.29,0,0,0-.11.19v.07l0,.06,0,.07a.32.32,0,0,0,.25.17.26.26,0,0,0,.21-.11Z"/><path class="cls-3" d="M224.76,64l.05-.07,0-.08v-.09a.33.33,0,0,0-.14-.28l-.09,0a.34.34,0,0,0-.36.18v.1l0,.08,0,.07a.31.31,0,0,0,.4.17Z"/><path class="cls-3" d="M233.38,66.35v0a.22.22,0,0,0,.08-.14v-.07l0-.06,0,0-.06,0v0l-.06-.08-.12,0c-.2,0-.26.13-.26.24h0a.33.33,0,0,0,0,.14v0l.1.11.13,0a.19.19,0,0,0,.23,0Z"/><path class="cls-3" d="M240.66,65.69a.23.23,0,0,0,.39-.08l0-.13L241,65.4l0,0,0-.05a.28.28,0,0,0-.23-.12.22.22,0,0,0-.2.14v.14l.06.09Z"/><path class="cls-3" d="M245.08,53.7l.08-.13v-.15l-.07-.11-.1-.06a.23.23,0,0,0-.21,0l-.08,0-.05,0,0,.08v0a.22.22,0,0,0,0,.13h0l0,.06.07.09.13,0h.1Z"/><path class="cls-3" d="M221.43,55.65a.25.25,0,0,0,.12-.21l0-.08,0-.06-.07-.07a.56.56,0,0,0-.18-.12l-.12,0-.09.06-.06.12v.06c0,.34.21.39.33.39l.11,0Z"/><path class="cls-3" d="M239.57,98.62a.15.15,0,0,0,0,.07l0,.09.06,0,.08,0a.26.26,0,0,0,.22-.07.28.28,0,0,0,.08-.26v0l0-.07-.05-.06-.06,0a.3.3,0,0,0-.25,0A.28.28,0,0,0,239.57,98.62Z"/><path class="cls-3" d="M234.94,89.55l0-.09V89.4l0-.09-.07-.07a.19.19,0,0,0-.12-.06l-.12,0-.08.08,0,.1a.27.27,0,0,0,.1.22.28.28,0,0,0,.2,0l.08,0Z"/><path class="cls-3" d="M239,88.92a.33.33,0,0,0,.08-.25.27.27,0,0,0-.27-.29h0a.25.25,0,0,0-.25.15v.08a.29.29,0,0,0,0,.12l0,.09.11.1.09,0h.08l.06,0Z"/><path class="cls-3" d="M229.08,91.2l0,0V91.1a.2.2,0,0,0,0-.07.37.37,0,0,0-.15-.29.41.41,0,0,0-.36,0l-.07,0,0,.06,0,.11a.39.39,0,0,0,0,.17l0,.08,0,.06.06,0a.41.41,0,0,0,.48,0Z"/><path class="cls-3" d="M233,91.24v-.08l0-.09-.07-.06-.09,0h-.15l-.08,0-.06.06,0,.09a.45.45,0,0,0,0,.18.31.31,0,0,0,.14.25l.08,0a.33.33,0,0,0,.26-.08A.38.38,0,0,0,233,91.24Z"/><path class="cls-3" d="M214.09,91.22l0-.11L214,91a.29.29,0,0,0-.13-.08l-.13,0-.08.07,0,.07.12.08-.12-.07v.15l.07.1.15.06A.26.26,0,0,0,214.09,91.22Z"/><path class="cls-3" d="M220.14,87.1l0-.09-.06-.07-.09,0a.28.28,0,0,0-.25.07.3.3,0,0,0-.09.22v.06l.05.09.07,0,.1,0A.31.31,0,0,0,220.14,87.1Z"/><path class="cls-3" d="M245.54,87.28l0-.06.07,0,.06-.07,0-.11a.36.36,0,0,0-.32-.31l-.1,0-.07,0-.06.09V87a.24.24,0,0,0,.07.17.27.27,0,0,0,.19.18l.1,0Z"/><path class="cls-3" d="M227.72,89.24l0-.07,0-.08V89l-.05-.11-.07-.06-.12,0c-.21,0-.26.13-.27.2v.09l.05.08a.25.25,0,0,0,.33.11Z"/><path class="cls-3" d="M214.25,74.25a.28.28,0,0,0-.08-.2l-.09,0H214c-.11,0-.28.05-.29.35l0,0,0,0,.06.07.08,0a.28.28,0,0,0,.25-.06A.27.27,0,0,0,214.25,74.25Z"/><path class="cls-3" d="M245,91.08a.39.39,0,0,0,0-.14l-.05-.06-.07,0-.08,0h-.08l-.09,0-.07.06,0,.13a.09.09,0,0,0,0,0,.13.13,0,0,0,0,.06v.06l0,.07.06,0,.08,0a.29.29,0,0,0,.23-.07A.3.3,0,0,0,245,91.08Z"/><path class="cls-3" d="M240.3,94.12l-.05-.13-.06,0a.25.25,0,0,0-.22-.12l-.06,0-.06,0,0,0a.35.35,0,0,0,0,.14.26.26,0,0,0,.26.25A.25.25,0,0,0,240.3,94.12Z"/><path class="cls-3" d="M233.55,99l.12.06h.14l.1-.05.06-.07,0-.12v0l0,0,0,0a.27.27,0,0,0-.25-.08.3.3,0,0,0-.22.17v.13Z"/><path class="cls-3" d="M217.89,94.38l0,0h0a.23.23,0,0,0,.2-.19h0l0,0v-.06a.38.38,0,0,0-.12-.28.45.45,0,0,0-.34-.08l-.1.06,0,.08a.24.24,0,0,0-.09.19.36.36,0,0,0,0,.1h0s0,0,0,0a.24.24,0,0,0,.21.21h.2Z"/><path class="cls-3" d="M220.87,100a3,3,0,0,0,.16-.35.64.64,0,0,0-.19-.35l-.06,0-.06,0a.44.44,0,0,0-.37.09.45.45,0,0,0-.12.34s0,.06,0,.1l0,.08.05.05.07,0,.06,0A.32.32,0,0,0,220.87,100Z"/><path class="cls-3" d="M218.44,83.75a.38.38,0,0,0,.08.23l0,0,.05,0h.07c.31,0,.34-.21.33-.29v-.08L219,83.6l-.08,0-.08,0a.45.45,0,0,0-.16,0l-.09,0-.06.06,0,.08Z"/><path class="cls-3" d="M222.32,92.58l0-.06v-.06h0v0a.28.28,0,0,0-.09-.21.22.22,0,0,0-.09-.08l-.07,0H222l0,0h0a.26.26,0,0,0-.26.19v0a.33.33,0,0,0,.21.33.33.33,0,0,0,.37-.09Z"/><path class="cls-3" d="M229.51,95.77a.23.23,0,0,0,.16-.2.26.26,0,0,0,0-.14.21.21,0,0,0-.08-.17l0,0h-.05l-.09,0a.6.6,0,0,0-.18,0l-.09,0-.07.06,0,0,0,.06,0,.08a.43.43,0,0,0,.35.41l.12,0Z"/><path class="cls-3" d="M249.54,93.3h0a.2.2,0,0,0,0,.14h0v.08a.22.22,0,0,0,.15.2h.13l.11,0,.15,0,.09-.07,0-.08v-.15a.34.34,0,0,0-.43-.28A.21.21,0,0,0,249.54,93.3Z"/><path class="cls-3" d="M225.15,94.22l-.15-.14h-.17l0,0h0l-.13.14a.24.24,0,0,0,.26.25.27.27,0,0,0,.19-.08A.26.26,0,0,0,225.15,94.22Z"/><path class="cls-3" d="M221.92,78.78l.1.06h0a.3.3,0,0,0,.22,0,.24.24,0,0,0,.15-.09l.08-.07.05-.11a.23.23,0,0,0-.05-.16h0l0,0h0v0l-.06-.07-.09,0a.37.37,0,0,0-.3.09.39.39,0,0,0-.13.3A.22.22,0,0,0,221.92,78.78Z"/><path class="cls-3" d="M233.52,79.19l0,0a.05.05,0,0,0,0,0l0-.05,0-.06,0-.07s0,0,0-.06h0v-.09l0-.11a.28.28,0,0,0-.15-.08l-.05,0h-.18a.28.28,0,0,0-.2.12h0a.26.26,0,0,0-.1.2.25.25,0,0,0,.12.18l0,0,.08,0,.06,0,0,0a.21.21,0,0,0,.19,0Z"/><path class="cls-3" d="M226.26,79.35h0l0,0,.06-.07,0-.1a.25.25,0,0,0,.09-.2.21.21,0,0,0-.07-.15h0l-.07-.1h0a.33.33,0,0,0-.15-.11l-.12,0,0,0h-.11l-.09,0-.07,0-.08.11a.74.74,0,0,0-.08.32v.06l0,.07,0,.06.07,0h.06a.22.22,0,0,0,.06.07h0l0,0,.06,0,.09,0A.35.35,0,0,0,226.26,79.35Z"/><path class="cls-3" d="M214.83,79.14l.06-.08a.38.38,0,0,0,0-.1.26.26,0,0,0-.26-.27.24.24,0,0,0-.26.23l0,.1,0,.06.1.07.1,0,.1,0Z"/><path class="cls-3" d="M240.35,77.15l0,0h0s0-.07,0-.08v-.11l0-.09-.11-.09a.4.4,0,0,0-.23-.06h0a.22.22,0,0,0-.19.11l0,0-.06.06a.5.5,0,0,0,0,.16s0,.06,0,.09a.15.15,0,0,1,0,.07l0,.08,0,.06.08,0a.54.54,0,0,0,.42-.07Z"/><path class="cls-3" d="M235.69,81.14a.2.2,0,0,0,.06-.11.21.21,0,0,0,.06-.1.57.57,0,0,0,0-.13.61.61,0,0,0-.16-.38l-.06,0-.06,0h-.07a.55.55,0,0,0-.41.59l0,.06,0,0,0,0a.34.34,0,0,0,.12.06.21.21,0,0,0,.14.07l.08,0A.26.26,0,0,0,235.69,81.14Z"/><path class="cls-3" d="M247.23,76.57s0,.06,0,.09a1,1,0,0,0,0,.12l.05.07.07.05.08,0h.15l.09,0,.07-.07,0-.1V76.6l0-.06,0-.06,0,0a.36.36,0,0,0-.29-.06l-.08,0-.05,0Z"/><path class="cls-3" d="M233.49,75.87l.08-.07h0a.27.27,0,0,0,.13-.13.35.35,0,0,0,0-.17s0-.07,0-.1,0,0,0-.06l0-.09-.06-.06-.08,0a.38.38,0,0,0-.26.08l-.08.08,0,.1v0a.36.36,0,0,0,0,.19v.07l.05.08.07.06.1,0v0Z"/><path class="cls-3" d="M214.72,84.45a.25.25,0,0,0,.14-.09.36.36,0,0,0,0-.09.2.2,0,0,0,.06-.16.27.27,0,0,0,0-.12l0,0,0,0a.41.41,0,0,0-.33-.12l-.07,0-.06,0,0,.06a.85.85,0,0,0,0,.23.37.37,0,0,0,.21.33h.13l0,0Z"/><path class="cls-3" d="M246.67,84a.2.2,0,0,0-.1.16l0,.12,0,0a.27.27,0,0,0,.13.16.21.21,0,0,0,.15,0,.31.31,0,0,0,.28-.33.33.33,0,0,0,0-.17l0,0,0,0-.06,0A.3.3,0,0,0,246.67,84Z"/><path class="cls-3" d="M254.75,81.62l.05-.06,0-.07a1.23,1.23,0,0,0,0-.2.37.37,0,0,0-.13-.28.39.39,0,0,0-.31-.06l-.09.06,0,.07,0,.08,0,0,0,.09v.09l.07.12a.37.37,0,0,0,.43.16Z"/><path class="cls-3" d="M249.89,84.06l0,0-.06,0-.05.07s0,.06,0,.09a.37.37,0,0,0,.25.33.23.23,0,0,0,.26-.1v0l0,0,0-.11a.44.44,0,0,0-.14-.31l-.06,0H250A.33.33,0,0,0,249.89,84.06Z"/><path class="cls-3" d="M224,75l.06,0,0-.06a.34.34,0,0,0,0-.15.41.41,0,0,1,0-.09l0-.06a.32.32,0,0,0-.27-.11.38.38,0,0,0-.28.22v.12l0,.09.09.08a.41.41,0,0,0,.26.05Z"/><path class="cls-3" d="M233.08,85.11l0-.06v0c0-.07,0-.17-.22-.21s-.28,0-.3.07l0,0,0,.06V85a.22.22,0,0,0,.19.21s.22,0,.32-.06Z"/><path class="cls-3" d="M230.59,81.12l.1.11.08,0,.06-.07,0-.09v-.17l0-.06,0-.06-.05,0a.26.26,0,0,0-.35,0c-.19,0-.2.17-.2.22a.2.2,0,0,0,0,.11h0l0,.1.07.08a.33.33,0,0,0,.3,0Z"/><path class="cls-3" d="M231.78,85.79h0a.48.48,0,0,0,0-.18v-.07l0-.07-.05-.07,0,0a.55.55,0,0,0-.42,0l-.06,0a.18.18,0,0,0,0,.07l-.08.07,0,0v.06a.29.29,0,0,0,0,.09l0,0a.37.37,0,0,0,.2.31l.06,0,.06,0,.08,0A.4.4,0,0,0,231.78,85.79Z"/><path class="cls-3" d="M224.36,83a.2.2,0,0,0-.18-.2.29.29,0,0,0-.31.2l0,.14.08.09.14,0C224.34,83.24,224.36,83.1,224.36,83Z"/><path class="cls-3" d="M227,84.94l.07-.11a.38.38,0,0,0,0-.19.22.22,0,0,0-.15-.22h-.07a.25.25,0,0,0-.24,0l0,0-.06.08a.36.36,0,0,0-.06.2v0l.06.1.08.06.08,0a.27.27,0,0,0,.12.05l.1,0Z"/><path class="cls-3" d="M242.79,82.89l0,.08v0a.24.24,0,0,0,0,.13.35.35,0,0,0,0,.14l.05.06.06,0,.1,0a.39.39,0,0,0,.21,0,.2.2,0,0,0,.13-.08.22.22,0,0,0,.16-.21l0-.08a.28.28,0,0,0,0-.09.29.29,0,0,0-.12-.24l-.06,0h-.12a.4.4,0,0,0-.34.08Z"/><path class="cls-3" d="M227.13,84l.08-.07,0-.09v-.08a.75.75,0,0,0,0-.15l0-.09,0-.07-.12-.06a.36.36,0,0,0-.27,0l-.06,0,0,.06,0,.1a.48.48,0,0,0,0,.18.29.29,0,0,0,.16.26h.14l0,0v0A.46.46,0,0,0,227.13,84Z"/><rect class="cls-2" x="234.95" y="47.2" width="22.4" height="21.34" transform="matrix(1, -0.04, 0.04, 1, -2.32, 10.94)"/><path class="cls-3" d="M242.53,52l0,0h-.08a.12.12,0,0,0-.1.06h0l0,0a.15.15,0,0,0,0,.12.16.16,0,0,0,.11.05.14.14,0,0,0,.11-.07v-.06a.27.27,0,0,0,0-.09Z"/><path class="cls-3" d="M244.64,55.67h.05a.22.22,0,0,0,.18-.13v-.07l0,0-.07,0h-.06v0l0,0-.06,0,0,.06a.22.22,0,0,0,.05.16Z"/><path class="cls-3" d="M244.92,58.43h0l0,0,0,0,0,0a.23.23,0,0,0,.07.13l.05,0h0l.06,0a.15.15,0,0,0,0-.2h0v0l0,0Z"/><path class="cls-3" d="M236.09,57.9s-.09,0-.12.1v.07l0,0,.06,0h0a.12.12,0,0,0,.12-.08V58l0-.06Z"/><path class="cls-3" d="M250.09,60.07a.12.12,0,0,0,0-.11l0-.05,0,0h-.12l0,0a.13.13,0,0,0,0,.15h0v0l0,0H250A.13.13,0,0,0,250.09,60.07Z"/><path class="cls-3" d="M245.05,59.26h0a.23.23,0,0,0,.14-.13v-.06l0-.05-.06,0,0,0,0,0,0,0h0s-.05,0-.09,0h-.1a.1.1,0,0,0-.1.06v0a.16.16,0,0,0,0,.12l0,0,0,0h.11v0l0,0h0a.3.3,0,0,0,.1,0Z"/><path class="cls-3" d="M239.23,54.41h0a.14.14,0,0,0-.12.08h0a.16.16,0,0,0,0,.12l0,0,0,0h0a.13.13,0,0,0,.09,0,.08.08,0,0,0,0,0,.12.12,0,0,0,0-.15l0,0Z"/><path class="cls-3" d="M239.65,66.1h-.05a.12.12,0,0,0-.12.1v.09l0,0,.08,0a.13.13,0,0,0,.13-.08.14.14,0,0,0,0-.15Z"/><path class="cls-3" d="M238.6,51.45l0,0h0l0,0a.11.11,0,0,0-.06.16l0,0,0,0,0,0h.08a.11.11,0,0,0,.08,0l0-.08h0a.12.12,0,0,0,0-.1A.09.09,0,0,0,238.6,51.45Z"/><path class="cls-3" d="M238.52,63l-.06,0,0,0h0a.14.14,0,0,0-.07.17l0,0,.07,0h0l.08,0,0,0,0,0v-.07A.17.17,0,0,0,238.52,63Z"/><path class="cls-3" d="M238.28,64.55l0-.06-.06,0a.11.11,0,0,0-.09,0h0l0,0h0l0,0a.16.16,0,0,0-.05.11.18.18,0,0,0,.06.13.19.19,0,0,0,.15.06.18.18,0,0,0,.17-.17v0Z"/><path class="cls-3" d="M238.26,59.89h0l0,0,0,0v-.08l0,0,0,0s0,0-.06,0l-.06,0,0,0h0a.1.1,0,0,0,0,.12.12.12,0,0,0,.1.07h0Z"/><path class="cls-3" d="M241.84,55.94h0l.07,0a.12.12,0,0,0,.05-.05h0a.12.12,0,0,0,.11-.1l0-.05,0,0a.08.08,0,0,0,0-.05v0l0-.05-.07,0v.07h0l0-.07-.07,0-.07,0a.22.22,0,0,0-.1.07v0a.43.43,0,0,0,0,0,.11.11,0,0,0,0,.08v.07l0,0a.11.11,0,0,0,.11.09A.09.09,0,0,0,241.84,55.94Z"/><path class="cls-3" d="M237.75,55.22h.08l0,0,0,0,0,0a.16.16,0,0,0-.1-.18h-.08l-.05,0,0,.06h0l0,.06C237.62,55.19,237.69,55.23,237.75,55.22Z"/><path class="cls-3" d="M242.84,59.24v0a.1.1,0,0,0-.06,0h0l0,0h-.07a.15.15,0,0,0-.08,0h-.05l0,0a.25.25,0,0,0,.08.32h.17s0,0,0-.05l0,0a.13.13,0,0,0,0-.12Z"/><path class="cls-3" d="M241.94,48.14l0,0a.12.12,0,0,0-.11-.08h-.06l0,0,0,0,0,0,0,0,0,0,0,.05s0,0,0,0a.15.15,0,0,0,0,.17v0a.33.33,0,0,0,.15.11h.1l.05,0,0,0,0,0a.11.11,0,0,1,0,0s0,0,0-.07Z"/><path class="cls-3" d="M242.54,68.54l0,0a.13.13,0,0,0-.09,0,.11.11,0,0,0-.08,0,.18.18,0,0,0,0,.11l0,0,0,0,0,0h.07l.05,0,0,0,0-.06v0Z"/><path class="cls-3" d="M242.23,63.05l0,0,0,0,0,0v0a.16.16,0,0,0,0,.15v0a.18.18,0,0,0,.1,0,.13.13,0,0,0,.09,0h0l0,0,0-.07A.17.17,0,0,0,242.23,63.05Z"/><path class="cls-3" d="M244.08,64.31H244l0,0,0,0c0,.11,0,.18,0,.21h0a.18.18,0,0,0,.13.06h0l0,0,0,0a.14.14,0,0,0,.06-.1v0A.32.32,0,0,0,244.08,64.31Z"/><path class="cls-3" d="M242.84,60.41h0l-.07,0,0,0,0,0,0,0v0a.16.16,0,0,0,0,.15.12.12,0,0,0,.1,0h.06l0,0a.15.15,0,0,0,.08-.12.12.12,0,0,0,0-.1Z"/><path class="cls-3" d="M240,61.82l0,0h-.08a.16.16,0,0,0-.14.07v0a.18.18,0,0,0,.09.18h.09l0,0a.14.14,0,0,0,.08-.19Z"/><path class="cls-3" d="M241.14,57.62h0a.2.2,0,0,0-.08,0H241l0,0a0,0,0,0,0,0,0h0l0,0,0,.06a.12.12,0,0,0,.13.12h0l.07,0h0l.06,0v-.07a.09.09,0,0,0,0-.11Z"/><path class="cls-3" d="M240.78,54.08a.11.11,0,0,0,0-.12.12.12,0,0,0-.07-.07h-.06l0,0v0l0,0a.13.13,0,0,0-.06.12.1.1,0,0,0,.07.09h.06l.05,0Z"/><path class="cls-3" d="M234.92,52l-.06,0h-.07l-.06,0,0,0s0,.05,0,.11l0,0,0,0,0,0h0a.14.14,0,0,0,.07,0h0l0,0,0,0,0-.06h0V52Z"/><path class="cls-3" d="M236,63.49a.14.14,0,0,0-.11-.06l0,0,0,0,0,0a.24.24,0,0,0,0,.09v.06l0,0,.05,0h0c.17,0,.19-.11.19-.16l0-.06Z"/><path class="cls-3" d="M256.81,54.43h0l0,0,0,0,0,0a.16.16,0,0,0,0-.11.2.2,0,0,0-.13,0h0l0,0,0,0,0,0a.18.18,0,0,0,0,.12A.13.13,0,0,0,256.81,54.43Z"/><path class="cls-3" d="M252.42,56.73h-.07l0,0,0,0a.08.08,0,0,0,0,0l0,.06,0,0,0,0a.17.17,0,0,0,.11-.05.12.12,0,0,0,0-.1l0,0Z"/><path class="cls-3" d="M252.09,54.76a.19.19,0,0,0-.13,0,.13.13,0,0,0-.13.14h0a.13.13,0,0,0,.08.12h.14l0-.06s0,0,0,0V54.8Z"/><path class="cls-3" d="M253.25,59.58h-.08a.16.16,0,0,0-.14.07.22.22,0,0,0,0,.18l0,0,0,0,0,0h.15l0,0a.22.22,0,0,0,0-.24Z"/><path class="cls-3" d="M253.25,57.69h0l0,0,0,0,0,0v.11l0,0,0,0,.09,0a.17.17,0,0,0,.12-.07l0,0a.18.18,0,0,0,0-.13A.22.22,0,0,0,253.25,57.69Z"/><path class="cls-3" d="M253.34,66.87h-.05l0,0a.14.14,0,0,0,0,.07v.06l0,0,0,0,0-.06,0,.06h.07l0,0,0-.08A.12.12,0,0,0,253.34,66.87Z"/><path class="cls-3" d="M251.3,64h0l0,0,0,.05a.13.13,0,0,0,0,.12.14.14,0,0,0,.11,0h0l0,0,0,0v0A.15.15,0,0,0,251.3,64Z"/><path class="cls-3" d="M251.26,51.59l0,0,0,0,0,0h-.06a.17.17,0,0,0-.15.16l0,0,0,0,0,0h0a.12.12,0,0,0,.08,0,.11.11,0,0,0,.08-.09v0Z"/><path class="cls-3" d="M252.3,60.25l0,0h-.08l-.05,0,0,0v.06c0,.1.06.13.09.13h.05l0,0a.12.12,0,0,0,.05-.16Z"/><path class="cls-3" d="M245.08,66.88a.13.13,0,0,0-.09,0l0,0v0c0,.05,0,.14.17.14l0,0h0l0,0,0,0a.12.12,0,0,0,0-.12A.17.17,0,0,0,245.08,66.88Z"/><path class="cls-3" d="M253.11,51.84H253l0,0,0,0V52l0,0,0,0,.06,0h.08l0,0,0,0,0,0a.16.16,0,0,0,0-.12A.17.17,0,0,0,253.11,51.84Z"/><path class="cls-3" d="M254.61,54.1l-.06,0,0,0a.11.11,0,0,0-.06.1v0l0,0,0,0h.07a.14.14,0,0,0,.12-.12A.14.14,0,0,0,254.61,54.1Z"/><path class="cls-3" d="M257,57.36l0-.06v-.07l0,0,0,0-.06,0h-.07a.13.13,0,0,0,0,.12.15.15,0,0,0,.08.11H257Z"/><path class="cls-3" d="M254.86,65v0h0a.12.12,0,0,0-.09-.1h-.06a.2.2,0,0,0-.14.07.2.2,0,0,0,0,.16l0,.05,0,0a.12.12,0,0,0,.09,0l.05,0h0a.11.11,0,0,0,.11-.1V65Z"/><path class="cls-3" d="M257.58,63.53a.12.12,0,0,0-.08,0,.13.13,0,0,0-.1,0c-.06,0-.12.06-.16.1l0,0v0a.21.21,0,0,0,.05.18.19.19,0,0,0,.16.06h.05l0,0,0,0,0,0a0,0,0,0,0,0,0A.16.16,0,0,0,257.58,63.53Z"/><path class="cls-3" d="M249.68,64.8l.11,0,0,0v-.06c0-.15-.11-.16-.15-.16h0l0,0,0,0v0a.12.12,0,0,0,0,.07l0,0,0,0,0,0Z"/><path class="cls-3" d="M254,62.86h-.07a.12.12,0,0,0-.11,0s0,0,0,0V63h0c0,.07,0,.11.1.13h0a.17.17,0,0,0,.16-.11.18.18,0,0,0-.05-.18Z"/><path class="cls-3" d="M255.47,59.35a.1.1,0,0,0-.09-.08l-.07,0a.13.13,0,0,0-.09,0v.09a.2.2,0,0,0,0,.09v0l0,0,0,0,0,0h0a.2.2,0,0,0,.19-.17l0-.06Z"/><path class="cls-3" d="M254.17,49.61h0l.06,0h.05a.12.12,0,0,0,.09-.08V49.5s0,0,0-.06,0,0,0-.07l0,0,0,0h-.07c-.11,0-.16.11-.13.21A.09.09,0,0,0,254.17,49.61Z"/><path class="cls-3" d="M254.74,61.47l-.06.08v0h0v.06h0v0l.07.07a.13.13,0,0,0,.12-.13.13.13,0,0,0,0-.09A.13.13,0,0,0,254.74,61.47Z"/><path class="cls-3" d="M247.25,63.13l0-.05h0a.17.17,0,0,0,0-.11.14.14,0,0,0-.05-.08l0,0-.06,0a.09.09,0,0,0-.07,0h0l0,0,0,0a.16.16,0,0,0,0,.14.17.17,0,0,0,.14.07Z"/><path class="cls-3" d="M247.39,57.48h0v0l0,0h-.15l-.05,0a.25.25,0,0,0,0,.07v.11a.12.12,0,0,0,.06.1h0a.11.11,0,0,0,.09.05.1.1,0,0,0,.09-.06l0,0,0,0,0,0h0a.1.1,0,0,0,0-.09Z"/><path class="cls-3" d="M247.5,61h0v0l0,0,0,0a.21.21,0,0,0-.1,0l-.08,0h0l0,0v0a.22.22,0,0,0,0,.08v.17l0,0,.05,0a.35.35,0,0,0,.16,0h0l0,0,0,0,0,0v0l0,0h0l0,0v0A.15.15,0,0,0,247.5,61Z"/><path class="cls-3" d="M247.46,66.58l0,0h0a.13.13,0,0,0-.13.13.13.13,0,0,0,.12.13h0l0,0,0-.05,0,0v0Z"/><path class="cls-3" d="M246.36,54.17h0v0h-.1l0,0,0,0a.17.17,0,0,0,0,.12h0a.09.09,0,0,0,.05.09v0l0,0h.16l0,0,0,0,0,0a.25.25,0,0,0,0-.2Z"/><path class="cls-3" d="M248.32,56.42a.05.05,0,0,0,0,0s0,0-.05,0h-.07a.34.34,0,0,0-.18.09l0,0v.06a.24.24,0,0,0,.28.2h.08a.14.14,0,0,0,0-.06.16.16,0,0,0,0-.07l0,0A.09.09,0,0,0,248.32,56.42Z"/><path class="cls-3" d="M246,50.82h0l.06,0,0,0,0,0v-.11l0,0,0,0-.05,0H246l0,0,0,0a.17.17,0,0,0,0,.14l0,0,0,0Z"/><path class="cls-3" d="M245.77,57.51l0,0h0s0,0-.06-.06l-.09,0h-.08l0,0,0,0v0a.19.19,0,0,0,0,.13l0,0,.05,0h0a.16.16,0,0,0,.09,0h0l0,0,0,0v-.05h0Z"/><path class="cls-3" d="M250,66.6a.1.1,0,0,0,0-.07l-.05,0a.09.09,0,0,0-.07,0l-.06,0,0,0v0a.16.16,0,0,0-.06.16v0l0,0,0,0,.11,0a.19.19,0,0,0,.16-.1v-.06l0,0Z"/><path class="cls-3" d="M249.65,51.06a.11.11,0,0,0,.08,0l.06,0h0a.15.15,0,0,0,.07-.07.06.06,0,0,0,0-.07.16.16,0,0,0-.16-.14.11.11,0,0,0-.08,0h0v0l0,0A.15.15,0,0,0,249.65,51.06Z"/><path class="cls-3" d="M248.45,47.14l0,0,0,0h-.1a.18.18,0,0,0-.16.22l0,0,0,0h0l0,0h.09l.06,0a.19.19,0,0,0,.07-.22Z"/><path class="cls-3" d="M249.67,49.49h0l0,0,0,0h.05a.19.19,0,0,0,.16-.12.11.11,0,0,0-.05-.12h0l0,0-.06,0a.19.19,0,0,0-.15.06v.1A.05.05,0,0,0,249.67,49.49Z"/><path class="cls-3" d="M245.4,62.13l0,0h0a.1.1,0,0,0-.07,0h-.07a.18.18,0,0,0-.06.13.19.19,0,0,0,.11.14h.06l0,0,0-.05a.15.15,0,0,0,0-.13Z"/><path class="cls-3" d="M250.27,57.66h-.06s-.08,0-.1.11,0,.13,0,.14h.07a.11.11,0,0,0,.1-.09s0-.11,0-.16Z"/><path class="cls-3" d="M248.34,58.9l0,0,0,0,0,0h-.18l0,0a.14.14,0,0,0,0,.18c0,.09.08.1.11.09h.06l0,0,0,0a.19.19,0,0,0,0-.15Z"/><path class="cls-3" d="M250.6,58.29h-.12l0,0,0,0,0,0a.26.26,0,0,0,0,.21l0,0,0,0,0,0h.1l0,0c.08,0,.12,0,.15-.1l0,0,0,0v0A.2.2,0,0,0,250.6,58.29Z"/><path class="cls-3" d="M249.31,61.92a.11.11,0,0,0-.1.09.14.14,0,0,0,.1.15l.07,0,0,0,0-.07C249.4,61.92,249.34,61.92,249.31,61.92Z"/><path class="cls-3" d="M250.22,60.62l-.06,0-.09,0a.13.13,0,0,0-.11.08v0a.11.11,0,0,0,0,.11l0,0,0,0a.2.2,0,0,0,.1,0h0l.05,0,0,0v0a.08.08,0,0,0,0-.06v-.05Z"/><path class="cls-3" d="M249.14,53h.12l.06,0,0,0,0,0v0a.17.17,0,0,0,0-.11s0,0,0-.06a.09.09,0,0,0-.1-.07h-.09a.11.11,0,0,0-.11.06v.08a.24.24,0,0,0,0,.17Z"/><path class="cls-3" d="M249.75,60.57l0,0,0,0h0l-.08,0,0,0,0,0,0,.06a.15.15,0,0,0,0,.13l0,0,0,0,.05,0,.09,0a.13.13,0,0,0,.12-.08v-.07h0A.17.17,0,0,0,249.75,60.57Z"/></g></svg>