<svg xmlns="http://www.w3.org/2000/svg" viewBox="0 0 297 195.11"><defs><style>.cls-1{fill:#515251;}.cls-2{fill:#fff;}.cls-3{fill:none;}.cls-4{fill:#465777;}</style></defs><title>kombucha</title><g id="Layer_2" data-name="Layer 2"><path class="cls-1" d="M110.41,91.83l23.29,40.74c2.28,4,4.8,8.2,9,10.15,6.44,3,13.88-.56,20.05-4.07q60.07-34.22,118.13-71.84c4.79-3.1,10.06-7,10.51-12.69.3-3.85-1.74-7.45-3.74-10.75q-8.21-13.53-16.85-26.78c-3.23-5-6.77-10.12-12.11-12.67-8.72-4.18-19-.13-27.7,4-38.21,18.15-75.35,38.63-110.47,62.2-4.34,2.91-8.88,6.14-10.86,11s0,11.65,5.07,12.83"/><path class="cls-1" d="M121.44,110.64Q62.73,150.85,2.11,188.15c-2.74,1.69-.23,6,2.52,4.32Q65.24,155.2,124,115c2.64-1.81.14-6.14-2.53-4.32Z"/><path class="cls-2" d="M170,60.35a146.2,146.2,0,0,0-28.56,19,4.06,4.06,0,0,0-1.76,2.77c-.11,1.46.78,3.06,1.63,4.48l20.73,34.9Q214.54,91,264.92,57.05c1.59-1.07,3.33-2.5,3.06-4.94a11.15,11.15,0,0,0-2.3-4.73L250.82,26.24a7.31,7.31,0,0,0-2.64-2.66,3.54,3.54,0,0,0-3.1.43l-81.3,40.86"/><rect class="cls-3" x="188.92" y="68.38" width="55.1" height="52.51" transform="translate(94.99 297.27) rotate(-82.67)"/><path class="cls-4" d="M232.15,88.34l0,0,.05,0a.28.28,0,0,0,0-.13.27.27,0,0,0-.1-.26l0,0-.09-.09a.39.39,0,0,0-.3,0,.35.35,0,0,0-.17.26.3.3,0,0,0,.12.29l.15,0a.28.28,0,0,0,.21,0Z"/><path class="cls-4" d="M222.44,91.91l0,.06,0,.07a.53.53,0,0,0,.25.48h.16l.12,0,.1-.16,0-.14h0l0-.1,0-.14-.13-.12a.49.49,0,0,0-.4,0Z"/><path class="cls-4" d="M215.64,91.43v-.1l0-.13-.07-.09-.12-.06a.6.6,0,0,0-.34.11l-.13.1,0,.13,0,.16a.36.36,0,0,0,.47.09h0l.07,0,.1-.07Z"/><path class="cls-4" d="M220.65,70.27a.32.32,0,0,0-.2-.34l-.16,0-.13,0-.11.14h0a.3.3,0,0,0,.16.32l.16.06.14,0Z"/><path class="cls-4" d="M209.49,103.28a.3.3,0,0,0,.26.09l.12-.06.07-.08,0-.06,0-.11V103l0-.12a.3.3,0,0,0-.35-.1h-.09l-.1.08-.07.14A.43.43,0,0,0,209.49,103.28Z"/><path class="cls-4" d="M213.58,91.39v0a.56.56,0,0,0,.26.39l.16,0,.12,0,.13-.12.09,0,.08-.06.05-.08a.44.44,0,0,0,0-.1v0a.26.26,0,0,0,.09-.19h0l0-.07a.42.42,0,0,0,.07-.18.27.27,0,0,0-.1-.26l-.12,0a.31.31,0,0,0-.27-.07l-.1,0-.06.08,0,.1c0,.05,0,.11,0,.16h-.07l-.11.1v.06a.47.47,0,0,0-.15.22Z"/><path class="cls-4" d="M227.77,79.33l0-.09a.32.32,0,0,0-.14-.32h0v0a.37.37,0,0,0-.29-.11l-.1,0-.08.07-.06.1v0a.26.26,0,0,0,.07.24.16.16,0,0,0,.08.06.3.3,0,0,0,.34.16l.1,0Z"/><path class="cls-4" d="M199.26,75.43l0-.05,0-.07a.33.33,0,0,0-.2-.33l-.12,0h-.11l-.12,0a.4.4,0,0,0-.09.2.33.33,0,0,0,.15.33.35.35,0,0,0,.37,0Z"/><path class="cls-4" d="M235.23,79.06a.21.21,0,0,0,.07-.11v-.1l-.05-.14a.31.31,0,0,0-.37-.21l-.1,0-.07.07-.06.12a.69.69,0,0,0-.07.19.39.39,0,0,0,0,.21l.19.09h0v0a.3.3,0,0,0,.27,0A.25.25,0,0,0,235.23,79.06Z"/><path class="cls-4" d="M207.31,74l0-.14-.07-.09h0a.34.34,0,0,0-.39-.23l-.13.09-.07.18v0a.35.35,0,0,0,0,.18.3.3,0,0,0,.05.15l.07.06.07,0h.1A.41.41,0,0,0,207.31,74Z"/><path class="cls-4" d="M203.6,72.77a.35.35,0,0,0,.17-.09.24.24,0,0,0,.07-.13.25.25,0,0,0,.13-.19v-.07l0-.08,0-.06-.08-.07a.4.4,0,0,0-.24-.17.46.46,0,0,0-.34.08.54.54,0,0,0-.21.34.47.47,0,0,0,.34.5h.12Z"/><path class="cls-4" d="M214.89,74.69v0l0,.12.07.07.1.06h.07l.11,0,.11-.07a.24.24,0,0,0,.08-.12l0-.17-.05-.07h0a.26.26,0,0,0-.27-.16.26.26,0,0,0-.22.2v0Z"/><path class="cls-4" d="M223,85v0a.35.35,0,0,0,0,.18.27.27,0,0,0,.11.14h0a.28.28,0,0,0,.18.31l.14,0,.06,0a.25.25,0,0,0,.13,0l0,0,.14,0,.13-.15-.15,0h.18l.07-.18,0-.17a.41.41,0,0,0-.13-.27l-.05,0-.13,0a.26.26,0,0,0-.19-.05l-.17,0-.14,0a.26.26,0,0,0-.25.22A.21.21,0,0,0,223,85Z"/><path class="cls-4" d="M226.43,75.42a1.08,1.08,0,0,0,0,.18l0,.09.06.07.07,0a.37.37,0,0,0,.47-.16l.05-.1,0-.1,0-.11a.31.31,0,0,0-.12-.11l0,0-.13-.08A.36.36,0,0,0,226.43,75.42Z"/><path class="cls-4" d="M214.55,86.06l0,0a.3.3,0,0,0,.16-.13l0,0,.08,0,0,0,0-.12a.34.34,0,0,0,0-.21h0v-.11l-.06-.11a.61.61,0,0,0-.81.07l-.05.17v0a.56.56,0,0,0,0,.1v.11a.24.24,0,0,0,.1.13l.09.13a.37.37,0,0,0,.3.11Z"/><path class="cls-4" d="M241.84,88.56l.06-.06a.38.38,0,0,0,.24-.25l0-.14,0-.1,0-.09L242,88l.06,0-.06-.08-.13-.07a.15.15,0,0,1,.08,0,.37.37,0,0,0-.39-.17l-.06,0a.85.85,0,0,0-.34.31l0,.11,0,.09s0,0,0,.06l0,.13.07.09.11.06a.24.24,0,0,1,.13,0,.76.76,0,0,0,.16.06Z"/><path class="cls-4" d="M192.15,81.4l.08-.08a.51.51,0,0,0,.09-.21.29.29,0,0,0,0-.2.33.33,0,0,0-.24-.12l-.12,0-.09.07-.06.11,0,.17,0,.12.07.09.14.07.09,0Z"/><path class="cls-4" d="M205.57,83l0-.13-.07-.09-.12-.05s0,0,0,0a.45.45,0,0,0-.35-.09l-.08,0a.33.33,0,0,0-.14.21.3.3,0,0,0,.08.24h0l0,.11.16.12A.42.42,0,0,0,205.57,83Z"/><path class="cls-4" d="M201.74,86.91l0-.12,0-.11-.07-.11a.51.51,0,0,0-.52-.08l0,.06h0a.38.38,0,0,0-.21.27v0l0,.13.07.06a.28.28,0,0,0,.22.17h.09A.71.71,0,0,0,201.74,86.91Z"/><path class="cls-4" d="M211.7,85.57a.34.34,0,0,0,.06-.06v-.05a.22.22,0,0,0,.06-.15v-.12l0-.07-.05-.05-.09,0a.44.44,0,0,0-.37,0,.34.34,0,0,0-.17.2v.09l0,.07,0,.09a.4.4,0,0,0,.26.25.3.3,0,0,0,.27-.09Z"/><path class="cls-4" d="M209.48,78.12l.07-.07,0-.09,0-.1a.46.46,0,0,0-.12-.37l-.09,0a.44.44,0,0,0-.47.14l0,.12,0,.1,0,.09a.37.37,0,0,0,.43.28Z"/><path class="cls-4" d="M219.19,82.61l0,0a.3.3,0,0,0,.12-.15v-.15l0-.08-.06,0v0l-.07-.11-.12-.07c-.24,0-.34.11-.36.24h0a.24.24,0,0,0-.07.16v.06l.1.15.15.07a.27.27,0,0,0,.27,0Z"/><path class="cls-4" d="M227.92,83.24a.31.31,0,0,0,.27.12.25.25,0,0,0,.21-.15v-.15l-.06-.11-.06,0,.06,0a.32.32,0,0,0-.25-.2.31.31,0,0,0-.26.13l0,.17.05.12Z"/><path class="cls-4" d="M235.46,69.91l.11-.13,0-.18-.06-.15-.11-.08a.32.32,0,0,0-.24-.1l-.1,0-.07,0-.06.09v0a.28.28,0,0,0,0,.16h0l0,.09.07.11.14.08v0l.12,0Z"/><path class="cls-4" d="M207.14,67.68a.29.29,0,0,0,.18-.24l0-.09,0-.08-.07-.09A.51.51,0,0,0,207,67h-.15l-.12.06-.09.12v.07c0,.41.17.51.31.53l.14,0Z"/><path class="cls-4" d="M220.31,121.93V122l0,.1.06.08.09.06a.32.32,0,0,0,.27,0,.38.38,0,0,0,.15-.3h0l0-.1,0-.07-.07-.06a.31.31,0,0,0-.3,0A.31.31,0,0,0,220.31,121.93Z"/><path class="cls-4" d="M216.59,110.32l0-.1v-.07l0-.11-.07-.1a.29.29,0,0,0-.13-.09l-.16,0-.1.09-.06.11a.3.3,0,0,0,.08.27.27.27,0,0,0,.23.08l.11,0Z"/><path class="cls-4" d="M221.5,110.36a.45.45,0,0,0,.15-.29.33.33,0,0,0-.26-.39h0a.32.32,0,0,0-.33.13l0,.1a.29.29,0,0,0,0,.14l0,.12.11.14.1.06.09,0h.09Z"/><path class="cls-4" d="M209.34,111.15l0-.05,0-.07s0,0,0-.08a.4.4,0,0,0-.11-.36.49.49,0,0,0-.43-.1l-.09.05-.06.06-.07.12a1,1,0,0,0-.08.2V111l0,.08.05.07a.51.51,0,0,0,.59,0Z"/><path class="cls-4" d="M213.91,111.94s0-.07,0-.1l0-.11-.07-.08-.1-.06-.18,0-.1,0-.08,0-.08.1a1,1,0,0,0-.07.22.42.42,0,0,0,.12.32l.09,0a.38.38,0,0,0,.32,0A.47.47,0,0,0,213.91,111.94Z"/><path class="cls-4" d="M191.63,108.28v-.13l-.07-.14a.51.51,0,0,0-.15-.12h-.15l-.11.07-.06.08.12.11-.13-.1,0,.17.06.13.16.1A.3.3,0,0,0,191.63,108.28Z"/><path class="cls-4" d="M199.57,104.59l0-.12-.06-.09-.09-.07a.37.37,0,0,0-.31,0,.35.35,0,0,0-.15.25v.08l0,.11.07.07.11.06A.37.37,0,0,0,199.57,104.59Z"/><path class="cls-4" d="M229.54,109.68l0-.09.07.08.08-.07.06-.13a.41.41,0,0,0-.32-.42h-.12l-.09,0-.08.09,0,.09a.26.26,0,0,0,.06.21.28.28,0,0,0,.19.24h.12Z"/><path class="cls-4" d="M208.12,108.56l.06-.06,0-.09v-.11l0-.13-.08-.08L208,108a.3.3,0,0,0-.36.18v.11l0,.1a.3.3,0,0,0,.37.19Z"/><path class="cls-4" d="M195.09,88.27A.39.39,0,0,0,195,88l-.09-.06-.06,0c-.13,0-.34,0-.41.36l0,.07,0,0,.05.09.09.07a.35.35,0,0,0,.3,0A.39.39,0,0,0,195.09,88.27Z"/><path class="cls-4" d="M228.16,114.06a.33.33,0,0,0,0-.17l-.05-.09-.06-.06-.09,0h-.11l-.11,0-.08.06-.08.14a.09.09,0,0,0,0,.07.14.14,0,0,0,0,.07v.07l0,.09.06.07.09.06a.4.4,0,0,0,.29,0A.32.32,0,0,0,228.16,114.06Z"/><path class="cls-4" d="M222,116.75l0-.16-.06-.06a.32.32,0,0,0-.24-.18h-.09l-.07,0-.07,0a.52.52,0,0,0-.06.16.33.33,0,0,0,.25.35A.31.31,0,0,0,222,116.75Z"/><path class="cls-4" d="M213.13,121.19l.13.1.17,0,.12,0,.09-.07.07-.14V121l0-.06a.34.34,0,0,0-.28-.14.39.39,0,0,0-.29.16l0,.16Z"/><path class="cls-4" d="M195.51,112.76l0,0h0a.31.31,0,0,0,.28-.19h0l0,0,0-.07a.52.52,0,0,0-.09-.36.5.5,0,0,0-.39-.15l-.13,0-.07.08a.3.3,0,0,0-.15.21.49.49,0,0,0,0,.12h0a.43.43,0,0,0,0,0c0,.06,0,.2.2.29h.09Z"/><path class="cls-4" d="M198,120a.26.26,0,0,0,.13-.17.36.36,0,0,0,.13-.21.71.71,0,0,0-.16-.45l-.06-.06-.07,0a.53.53,0,0,0-.45,0,.5.5,0,0,0-.21.37v.12l0,.1.05.07.07.06.06,0A.38.38,0,0,0,198,120Z"/><path class="cls-4" d="M198.2,100.3a.44.44,0,0,0,.05.28l.05.06.06,0,.08,0c.37,0,.44-.18.45-.28v-.09l0-.11-.09-.08-.09,0a.39.39,0,0,0-.18-.07l-.11,0-.09.06-.06.09A.31.31,0,0,0,198.2,100.3Z"/><path class="cls-4" d="M201.1,111.47l0-.06,0-.07v0h0a.33.33,0,0,0-.07-.27.41.41,0,0,0-.09-.12l-.08,0h-.09l-.06,0h0a.32.32,0,0,0-.34.18l0,.06a.42.42,0,0,0,.2.43.39.39,0,0,0,.45,0Z"/><path class="cls-4" d="M209,116.62a.25.25,0,0,0,.22-.19.29.29,0,0,0,0-.38l-.06,0-.05,0-.1,0a.81.81,0,0,0-.2-.08l-.11,0-.1.06-.06,0-.06.06,0,.1a.49.49,0,0,0,.33.54l.15,0Z"/><path class="cls-4" d="M233.11,117.56h0a.27.27,0,0,0-.07.16h0l0,0,0,.06a.25.25,0,0,0,.14.26l0,0h.24l.19,0,.11-.07.06-.09,0-.18c0-.28-.2-.42-.46-.41A.25.25,0,0,0,233.11,117.56Z"/><path class="cls-4" d="M204.13,114l-.16-.19h-.06v0h-.14l0,0h0l-.18.14a.3.3,0,0,0,.26.35.35.35,0,0,0,.24-.06A.42.42,0,0,0,204.13,114Z"/><path class="cls-4" d="M203.27,95.09l.11.1h0a.37.37,0,0,0,.25.1.31.31,0,0,0,.2-.09l.11-.06.08-.12a.43.43,0,0,0,0-.2h0l0-.07h0v0l0-.1-.09-.08a.43.43,0,0,0-.38.06.46.46,0,0,0-.21.32A.29.29,0,0,0,203.27,95.09Z"/><path class="cls-4" d="M216.9,97.81l0,0,0,0,.06,0,.05-.07,0-.07v-.08h0l0-.11,0-.13a.28.28,0,0,0-.15-.12l0,0-.22,0a.33.33,0,0,0-.26.11h0a.29.29,0,0,0-.16.21.28.28,0,0,0,.1.24l0,0,.07.07.07.07,0,0a.28.28,0,0,0,.21.08Z"/><path class="cls-4" d="M208.29,96.6h0l.05,0,.08-.07.05-.1a.33.33,0,0,0,.14-.23.29.29,0,0,0-.05-.2h0l-.08-.13,0,0a.39.39,0,0,0-.16-.15h-.14l0,0-.13,0h-.11l-.1,0-.11.11a.81.81,0,0,0-.15.37v.07l0,.09.05.08.08.06.06,0,.06.09h0l0,0,.06.07.1,0A.41.41,0,0,0,208.29,96.6Z"/><path class="cls-4" d="M194.82,94.16l.09-.09a.36.36,0,0,0,0-.11.33.33,0,0,0-.26-.37.31.31,0,0,0-.36.23v.11l0,.09.1.1a.52.52,0,0,0,.11.07h.13Z"/><path class="cls-4" d="M225.35,96.72v-.06h0a.79.79,0,0,1,0-.09l0-.13,0-.12-.11-.12a.48.48,0,0,0-.27-.12h0a.23.23,0,0,0-.24.09h-.05l-.08.07a.51.51,0,0,0-.07.18v.11a.26.26,0,0,1,0,.09l0,.1,0,.08.07.07a.67.67,0,0,0,.52,0Z"/><path class="cls-4" d="M219.09,100.53a.24.24,0,0,0,.09-.11.21.21,0,0,0,.08-.11.43.43,0,0,0,.05-.16.78.78,0,0,0-.12-.48l-.07,0-.06,0-.08,0a.66.66,0,0,0-.6.62v.13l0,.06a.27.27,0,0,0,.12.09.28.28,0,0,0,.15.11l.11,0A.3.3,0,0,0,219.09,100.53Z"/><path class="cls-4" d="M233.6,97.35l0,.1a.86.86,0,0,0,0,.15l0,.09.06.07.1,0,.17,0,.12,0,.09-.07.07-.1v-.22l0-.07,0-.06a.49.49,0,0,0-.34-.12l-.09,0-.07,0Z"/><path class="cls-4" d="M217.5,93.88l.1-.07h0a.3.3,0,0,0,.19-.12.49.49,0,0,0,.07-.19.28.28,0,0,0,0-.13v-.07l0-.11-.06-.08-.08-.06a.42.42,0,0,0-.32,0l-.12.09-.06.11v0a.5.5,0,0,0-.1.23v.08l0,.1.07.08.12,0,0,0Z"/><path class="cls-4" d="M193.68,100.41a.33.33,0,0,0,.18-.08.36.36,0,0,0,.07-.1.27.27,0,0,0,.1-.17.26.26,0,0,0,0-.15l0-.07,0,0a.43.43,0,0,0-.36-.21l-.09,0-.08.05-.06.06a.86.86,0,0,0-.09.27.43.43,0,0,0,.18.42l.15,0,.07,0Z"/><path class="cls-4" d="M231.51,106a.24.24,0,0,0-.15.17l0,.14,0,0a.33.33,0,0,0,.13.22.24.24,0,0,0,.17,0,.36.36,0,0,0,.4-.33.5.5,0,0,0,0-.21l0-.06L232,106l-.06,0A.36.36,0,0,0,231.51,106Z"/><path class="cls-4" d="M241.51,104.75l.07,0,0-.07a.94.94,0,0,0,.06-.24.41.41,0,0,0-.09-.35.46.46,0,0,0-.36-.14l-.12,0-.07.08-.05.09-.05,0,0,.1v.11l.05.15a.46.46,0,0,0,.49.27Z"/><path class="cls-4" d="M235.3,106.71h0l-.09,0-.06.07a.76.76,0,0,0,0,.11.44.44,0,0,0,.23.44.26.26,0,0,0,.32-.07v0l.06,0,.07-.12a.52.52,0,0,0-.1-.4l-.08,0-.07,0h-.09A.31.31,0,0,0,235.3,106.71Z"/><path class="cls-4" d="M206.47,91l.07,0,.05-.06a.44.44,0,0,0,.08-.17.68.68,0,0,0,0-.12l0-.06a.33.33,0,0,0-.3-.19.42.42,0,0,0-.37.21l0,.14,0,.11.09.11a.4.4,0,0,0,.3.11Z"/><path class="cls-4" d="M215.24,104.72l0-.06,0-.07c0-.08,0-.2-.22-.29s-.33,0-.36,0l0,0,0,.06,0,.06a.26.26,0,0,0,.18.28.53.53,0,0,0,.4,0Z"/><path class="cls-4" d="M213.06,99.52l.1.15.11,0,.07-.07.06-.1,0-.21v-.07l0-.07,0-.06a.33.33,0,0,0-.42,0,.27.27,0,0,0-.29.23.25.25,0,0,0,0,.12v.14l.07.11a.42.42,0,0,0,.36.05Z"/><path class="cls-4" d="M213.57,105.27h0a.4.4,0,0,0,.07-.2V105l0-.1,0-.09,0,0a.64.64,0,0,0-.49-.14l-.08,0a.23.23,0,0,0-.07.07l-.1.07,0,.06,0,.07a.41.41,0,0,0,0,.11l0,0a.44.44,0,0,0,.17.4l.06.08.07.06.09,0A.47.47,0,0,0,213.57,105.27Z"/><path class="cls-4" d="M205.34,100.6a.27.27,0,0,0-.18-.28.36.36,0,0,0-.41.18v.18l.08.12.16.07C205.28,100.83,205.33,100.67,205.34,100.6Z"/><path class="cls-4" d="M208.09,103.35l.11-.12a.86.86,0,0,0,.07-.21.26.26,0,0,0-.14-.29H208a.28.28,0,0,0-.28,0l-.06,0-.08.08a.49.49,0,0,0-.11.23v0l.05.13.08.08.1,0a.48.48,0,0,0,.12.08H208Z"/><path class="cls-4" d="M227.14,104l0,.09v0a.64.64,0,0,0,0,.15.5.5,0,0,0,0,.17l.05.09.07.06.11.06a.46.46,0,0,0,.24.09.33.33,0,0,0,.16-.07.26.26,0,0,0,.23-.22l0-.1a.2.2,0,0,0,0-.11.31.31,0,0,0-.1-.3l-.06,0-.07,0h-.07a.49.49,0,0,0-.42,0Z"/><path class="cls-4" d="M208.42,102.25l.11-.07.06-.09,0-.1a.44.44,0,0,0,.08-.17l0-.11,0-.09-.12-.09a.4.4,0,0,0-.32-.06l-.08,0-.07,0-.07.12a.58.58,0,0,0-.08.21.33.33,0,0,0,.14.33l.16,0,0,0v0A.55.55,0,0,0,208.42,102.25Z"/><rect class="cls-3" x="214.46" y="57.61" width="48.48" height="50.88" transform="translate(130.23 311.32) rotate(-83.77)"/><path class="cls-4" d="M232.61,68.69l0,0,0,0a.19.19,0,0,0-.12,0,.28.28,0,0,0-.24.1l0,0-.08.1a.32.32,0,0,0,0,.27.33.33,0,0,0,.24.15.27.27,0,0,0,.26-.12l0-.13a.26.26,0,0,0,0-.2Z"/><path class="cls-4" d="M236.08,77.58l0,0,.06,0a.47.47,0,0,0,.44-.24v-.15l0-.11-.15-.09h-.13v0l-.09,0-.13,0-.11.12a.43.43,0,0,0,.06.37Z"/><path class="cls-4" d="M235.75,83.87h-.09l-.12,0-.08.07-.05.11a.53.53,0,0,0,.1.32l.1.11.12,0,.14,0a.31.31,0,0,0,.07-.44h0l0-.07-.06-.08Z"/><path class="cls-4" d="M216.13,79.62a.28.28,0,0,0-.31.19l0,.15,0,.12.12.1h0a.28.28,0,0,0,.28-.16l.06-.14,0-.13Z"/><path class="cls-4" d="M246.8,89.34a.3.3,0,0,0,.08-.24l-.06-.11-.08-.07h-.05l-.1,0h-.1l-.11,0a.27.27,0,0,0-.08.32h0v.08l.08.1.12,0A.36.36,0,0,0,246.8,89.34Z"/><path class="cls-4" d="M235.75,85.77h0a.51.51,0,0,0,.35-.24l0-.15,0-.12-.11-.11,0-.09-.05-.06-.08,0-.09,0h0a.31.31,0,0,0-.19-.08h0l-.05,0a.85.85,0,0,0-.17-.06.26.26,0,0,0-.24.1l0,.11a.31.31,0,0,0-.07.25l.05.09.07.06.1,0h.15v.06l.09.11h.06a.38.38,0,0,0,.2.14Z"/><path class="cls-4" d="M224.36,72.89l-.08,0A.29.29,0,0,0,224,73h0a.38.38,0,0,0-.11.28l0,.09.06.07.09,0h0a.3.3,0,0,0,.23-.07.35.35,0,0,0,0-.08.28.28,0,0,0,.14-.32l-.05-.09Z"/><path class="cls-4" d="M221.27,99.28l-.05,0h-.06a.27.27,0,0,0-.3.18l0,.11v.11l.06.11a.37.37,0,0,0,.18.08.31.31,0,0,0,.29-.49Z"/><path class="cls-4" d="M224,66a.22.22,0,0,0-.09-.07h-.1l-.13,0a.32.32,0,0,0-.19.36l.05.08.07.07.11.05a.76.76,0,0,0,.18.06.63.63,0,0,0,.19,0l.08-.18v0h0a.27.27,0,0,0,0-.24A.21.21,0,0,0,224,66Z"/><path class="cls-4" d="M219.81,91.87l-.13,0-.09.07h0a.3.3,0,0,0-.21.36l.09.12.16.06h.05a.32.32,0,0,0,.17,0,.22.22,0,0,0,.13,0l.06-.06,0-.08v-.08A.38.38,0,0,0,219.81,91.87Z"/><path class="cls-4" d="M218.73,95.31a.31.31,0,0,0-.08-.15.23.23,0,0,0-.12-.06.21.21,0,0,0-.17-.11h-.07l-.08,0-.05,0-.06.07a.36.36,0,0,0-.15.23.42.42,0,0,0,.07.31.49.49,0,0,0,.32.19.44.44,0,0,0,.46-.32l0-.12Z"/><path class="cls-4" d="M220.31,84.86h0l.11,0,.07-.07,0-.09V84.6l0-.11-.07-.09a.26.26,0,0,0-.11-.08l-.16,0-.06.05h0a.25.25,0,0,0-.15.24.26.26,0,0,0,.19.21h0Z"/><path class="cls-4" d="M229.71,77.22h0a.32.32,0,0,0,.17,0,.27.27,0,0,0,.13-.1h0a.26.26,0,0,0,.28-.17l0-.13,0,0a.21.21,0,0,0,0-.12v0l0-.13-.14-.12,0,.15h0l0-.18-.16,0-.16,0a.31.31,0,0,0-.25.12l0,0s0,.08,0,.12a.38.38,0,0,0,0,.18l0,.16.05.12a.23.23,0,0,0,.38.17Z"/><path class="cls-4" d="M220.78,74.2H221l.08,0,.06,0,0-.07a.35.35,0,0,0-.15-.43l-.1,0h-.09l-.11,0a.31.31,0,0,0-.09.11l0,0-.07.12A.33.33,0,0,0,220.78,74.2Z"/><path class="cls-4" d="M230.81,85l0,0a.24.24,0,0,0-.12-.14l0,0,0-.07-.06,0-.1,0a.34.34,0,0,0-.19,0h-.12l-.09,0a.55.55,0,0,0,.07.75l.16,0h0l.09,0h.11a.25.25,0,0,0,.12-.1l.12-.08a.44.44,0,0,0,.1-.28Z"/><path class="cls-4" d="M232.64,59.74l-.06-.05a.3.3,0,0,0-.24-.22l-.12,0-.1,0-.07.05,0,.06-.05-.06-.07.07-.06.12a.15.15,0,0,1,0-.08.35.35,0,0,0-.14.37v0a.75.75,0,0,0,.3.31h.24l.11,0,.09-.06.05-.11a.21.21,0,0,1,0-.12.53.53,0,0,0,.05-.15Z"/><path class="cls-4" d="M226.91,105.74l-.08-.08a.42.42,0,0,0-.19-.08.25.25,0,0,0-.19,0,.31.31,0,0,0-.1.23l0,.11.06.08.1,0,.16,0,.12,0,.08-.07,0-.13v-.08Z"/><path class="cls-4" d="M228.13,93.32l-.12,0-.08.07-.05.11a.1.1,0,0,1,0,0,.4.4,0,0,0-.09.32l0,.07A.3.3,0,0,0,228,94a.27.27,0,0,0,.21-.07v0l.1,0,.11-.16A.39.39,0,0,0,228.13,93.32Z"/><path class="cls-4" d="M231.83,96.79l-.12,0-.1,0-.1.07a.46.46,0,0,0-.06.48l.05,0h0a.37.37,0,0,0,.26.19h0l.12,0,.06-.07a.27.27,0,0,0,.15-.2v-.08A.64.64,0,0,0,231.83,96.79Z"/><path class="cls-4" d="M230.41,87.61s0,0,0,0h-.05a.35.35,0,0,0-.14-.06h-.11l-.06,0-.05,0,0,.08a.45.45,0,0,0,0,.35.31.31,0,0,0,.2.15h.07l.07,0,.08,0a.34.34,0,0,0,.22-.24.27.27,0,0,0-.08-.25Z"/><path class="cls-4" d="M223.57,89.79l-.07-.06-.08,0h-.09a.42.42,0,0,0-.34.11l0,.09a.38.38,0,0,0,.14.43l.1,0h.1l.08,0a.35.35,0,0,0,.25-.41Z"/><path class="cls-4" d="M227.55,80.75l0,0a.19.19,0,0,0-.15-.11h-.07l-.06,0-.07,0a.12.12,0,0,0,0,0h0l-.09.06-.07.12a.26.26,0,0,0,.23.32h0a.26.26,0,0,0,.15.07h.05l.14-.1.06-.13a.24.24,0,0,0,0-.25Z"/><path class="cls-4" d="M228,72.68a.28.28,0,0,0,.11-.25.22.22,0,0,0-.14-.19h-.14l-.1.06,0,0,0,0a.28.28,0,0,0-.18.23.28.28,0,0,0,.13.24l.15,0,.11-.05Z"/><path class="cls-4" d="M215.54,66l-.13-.1-.16,0-.14.06L215,66a.31.31,0,0,0-.08.23l0,.09.06.06.08.06h0a.29.29,0,0,0,.15,0h0l.07,0,.1-.06.08-.14h0l0-.1Z"/><path class="cls-4" d="M214,92.14a.29.29,0,0,0-.22-.16l-.09,0-.07,0-.09.07a.53.53,0,0,0-.16.17v.14l.06.11.11.08h.07c.38,0,.47-.17.48-.3l0-.13Z"/><path class="cls-4" d="M263.82,79h.08l.1,0,.07,0,.05-.09a.27.27,0,0,0,0-.25.32.32,0,0,0-.27-.13h0l-.09,0-.06,0-.06.07a.29.29,0,0,0,0,.28A.27.27,0,0,0,263.82,79Z"/><path class="cls-4" d="M253.17,82.66l-.09,0H253l-.11,0-.09.07a.21.21,0,0,0-.08.11l0,.15.08.1.11.05a.32.32,0,0,0,.25-.08.28.28,0,0,0,.07-.22l0-.09Z"/><path class="cls-4" d="M253.12,78.13a.41.41,0,0,0-.27-.14.29.29,0,0,0-.35.26v0a.31.31,0,0,0,.13.3l.09,0h.13l.11,0,.13-.11.06-.1V78.2Z"/><path class="cls-4" d="M254.07,89.34l0,0-.06,0h-.08a.37.37,0,0,0-.33.11.42.42,0,0,0-.08.4l0,.08.06.05.11.06a.42.42,0,0,0,.18.07H254l.07,0,.07,0a.48.48,0,0,0,0-.55Z"/><path class="cls-4" d="M254.71,85.11h-.09l-.1,0-.08.06-.05.1v.16l0,.09,0,.08.09.07a.8.8,0,0,0,.2.06.39.39,0,0,0,.3-.11l0-.09a.34.34,0,0,0,0-.3A.4.4,0,0,0,254.71,85.11Z"/><path class="cls-4" d="M251.73,105.74h-.12l-.13.07a.47.47,0,0,0-.11.14l0,.14.06.1.07,0,.11-.11-.1.12.16,0,.12-.06.09-.16A.26.26,0,0,0,251.73,105.74Z"/><path class="cls-4" d="M248.18,98.47l-.11,0-.08.06-.06.09a.33.33,0,0,0,0,.28.32.32,0,0,0,.24.14h.06l.11,0,.07-.06,0-.1A.35.35,0,0,0,248.18,98.47Z"/><path class="cls-4" d="M252.35,70.72l-.08,0,.07-.07-.06-.07-.13-.06a.39.39,0,0,0-.38.31V71l0,.08.09.08.08,0a.64.64,0,0,0,.41-.24v-.11Z"/><path class="cls-4" d="M251.7,90.51l-.06-.05-.09,0h-.09l-.12,0-.08.07,0,.13a.27.27,0,0,0,.17.33h.1l.1,0a.28.28,0,0,0,.17-.35Z"/><path class="cls-4" d="M233.2,102.9a.34.34,0,0,0-.24.07l-.06.08,0,.06c0,.11,0,.31.33.37l.07,0,0,0,.08,0,.07-.08a.34.34,0,0,0,0-.28A.33.33,0,0,0,233.2,102.9Z"/><path class="cls-4" d="M256.42,71.91h-.16l-.08,0-.05.06,0,.09v.09l0,.11.06.07.13.07a.06.06,0,0,0,.06,0l.07,0h.06l.09,0,.07-.06,0-.08a.31.31,0,0,0-.05-.27A.27.27,0,0,0,256.42,71.91Z"/><path class="cls-4" d="M259,77.52l-.14,0-.06.06a.25.25,0,0,0-.16.22v.08l0,.06.05.07a.25.25,0,0,0,.15,0,.29.29,0,0,0,.31-.24A.28.28,0,0,0,259,77.52Z"/><path class="cls-4" d="M263.27,85.66l.09-.12v-.16l0-.11-.06-.08-.14-.06H263l0,0a.32.32,0,0,0-.12.26.34.34,0,0,0,.15.27h.15Z"/><path class="cls-4" d="M255.79,102.08v0h0a.28.28,0,0,0-.19-.25h0l0,0h-.06a.42.42,0,0,0-.34.09.48.48,0,0,0-.13.36l0,.11.07.07a.28.28,0,0,0,.2.13h.17a.25.25,0,0,0,.26-.19v-.09Z"/><path class="cls-4" d="M262.4,99.7a.23.23,0,0,0-.16-.12.31.31,0,0,0-.2-.11.66.66,0,0,0-.41.15l-.05.06,0,.06a.46.46,0,0,0,.05.42.45.45,0,0,0,.34.18h.12l.08,0,.07,0,.05-.07.05-.06A.35.35,0,0,0,262.4,99.7Z"/><path class="cls-4" d="M244.25,99.81a.34.34,0,0,0,.26,0l.05-.05,0,0,0-.08c0-.34-.18-.4-.27-.41h-.08l-.11.06-.07.08,0,.09a.33.33,0,0,0-.05.16l0,.1.06.08.08.06Z"/><path class="cls-4" d="M254.51,96.94l-.06,0-.07,0h0a.25.25,0,0,0-.25.07.24.24,0,0,0-.11.08l0,.07v.09l0,.06h0a.3.3,0,0,0,.17.31h.05a.39.39,0,0,0,.4-.19.38.38,0,0,0,0-.41Z"/><path class="cls-4" d="M259.12,89.58a.24.24,0,0,0-.18-.2.35.35,0,0,0-.15-.07.3.3,0,0,0-.2.06l0,0,0,.06,0,.09a.38.38,0,0,0-.07.18l0,.11.05.08,0,.06.07,0,.08,0a.45.45,0,0,0,.5-.31l0-.14Z"/><path class="cls-4" d="M259.56,67.29h0a.44.44,0,0,0,.15,0h0l.06,0a.24.24,0,0,0,.23-.13l0,0v-.1a.49.49,0,0,1,0-.12c0-.06,0-.12,0-.17l-.07-.1-.09-.06h-.16c-.26.05-.39.19-.37.43A.25.25,0,0,0,259.56,67.29Z"/><path class="cls-4" d="M256.75,94.1l-.17.15v0h0l0,.13,0,0v0l.13.17a.28.28,0,0,0,.32-.25.32.32,0,0,0-.06-.21A.33.33,0,0,0,256.75,94.1Z"/><path class="cls-4" d="M239.35,95.23l.09-.11v0h0a.34.34,0,0,0,.08-.24.22.22,0,0,0-.08-.18l-.06-.1-.11-.07a.25.25,0,0,0-.18,0h0l-.07,0h0l-.09.05-.07.09a.44.44,0,0,0,.06.35.45.45,0,0,0,.3.19A.25.25,0,0,0,239.35,95.23Z"/><path class="cls-4" d="M241.62,82.6l-.05,0s0,0,0,0l-.05,0-.06,0-.07,0h-.08l-.1,0-.12,0a.31.31,0,0,0-.11.15l-.05,0,0,.2a.25.25,0,0,0,.1.23,0,0,0,0,0,0,0,.25.25,0,0,0,.19.14.23.23,0,0,0,.22-.09l.05,0,.06-.07.07-.06,0,0a.23.23,0,0,0,.06-.2Z"/><path class="cls-4" d="M240.65,90.57h0l0,0-.07-.08-.1,0a.28.28,0,0,0-.21-.12.24.24,0,0,0-.18,0h0l-.12.07,0,0a.38.38,0,0,0-.13.15v.13l0,0s0,.07,0,.12V91l0,.09.11.1a.86.86,0,0,0,.34.13h.06l.09,0,.07-.05.06-.07s0,0,0-.06l.08,0h0l.07-.06,0-.09A.37.37,0,0,0,240.65,90.57Z"/><path class="cls-4" d="M238.64,103l-.08-.08a.23.23,0,0,0-.11,0,.31.31,0,0,0-.34.24.3.3,0,0,0,.22.33h.1l.09,0,.09-.1a.35.35,0,0,0,.06-.09v-.12Z"/><path class="cls-4" d="M240.46,74.81h-.05v0l-.08,0-.12,0-.11,0-.11.1a.45.45,0,0,0-.1.25h0a.21.21,0,0,0,.08.22l0,0,.06.08a.39.39,0,0,0,.17.06h.1a.21.21,0,0,1,.08,0l.09,0,.08,0,.06-.07a.62.62,0,0,0,0-.48Z"/><path class="cls-4" d="M244.09,80.53a.15.15,0,0,0-.11-.08.25.25,0,0,0-.1-.08l-.14,0a.64.64,0,0,0-.44.12l-.05.06,0,.06v.07a.6.6,0,0,0,.57.55h.07l.06,0,.05,0A.21.21,0,0,0,244,81a.21.21,0,0,0,.1-.15l0-.09A.26.26,0,0,0,244.09,80.53Z"/><path class="cls-4" d="M240.9,67.19l.09,0h.14l.09,0,.06-.07,0-.09,0-.16,0-.11-.07-.08-.1-.05-.13,0h-.07l-.06,0-.06,0a.44.44,0,0,0-.1.32l0,.08,0,.07Z"/><path class="cls-4" d="M238,82.11l-.06-.09h0a.33.33,0,0,0-.12-.17.32.32,0,0,0-.18-.06.24.24,0,0,0-.12,0h-.06l-.1,0-.08,0-.05.09a.35.35,0,0,0,0,.29l.08.11.1.05h.05a.46.46,0,0,0,.21.09h.07l.1,0,.07-.06.05-.12h0Z"/><path class="cls-4" d="M244.43,104a.26.26,0,0,0-.08-.17l-.09-.06a.26.26,0,0,0-.16-.09.23.23,0,0,0-.14,0l-.06,0-.05,0a.4.4,0,0,0-.19.33l0,.09,0,.06.06.06a.73.73,0,0,0,.25.08.4.4,0,0,0,.39-.17l0-.15,0-.06Z"/><path class="cls-4" d="M248.93,69a.22.22,0,0,0,.16.13l.13,0,0,0a.28.28,0,0,0,.19-.12.22.22,0,0,0,0-.16.34.34,0,0,0-.31-.36.41.41,0,0,0-.19,0l-.06,0,0,0,0,.06A.33.33,0,0,0,248.93,69Z"/><path class="cls-4" d="M247.59,59.75l-.05-.06-.07,0a.73.73,0,0,0-.21-.06.41.41,0,0,0-.33.1.43.43,0,0,0-.12.33l.05.11.07.07.08,0,0,0,.1,0h.1l.14-.05a.43.43,0,0,0,.24-.46Z"/><path class="cls-4" d="M249.51,65.45v0l0,.07.07.06a.29.29,0,0,0,.1,0,.4.4,0,0,0,.4-.22.25.25,0,0,0-.07-.29h0l0,0-.12-.07a.48.48,0,0,0-.36.11l0,.06,0,.08v.08A.24.24,0,0,0,249.51,65.45Z"/><path class="cls-4" d="M235.54,92.34l0-.06-.05,0a.44.44,0,0,0-.16-.06h-.1l-.07,0a.35.35,0,0,0-.17.27.41.41,0,0,0,.21.34l.12,0,.11,0,.1-.09a.36.36,0,0,0,.09-.27Z"/><path class="cls-4" d="M248,84,248,84l-.06,0c-.08,0-.19,0-.27.21s0,.3,0,.33l.05,0,.05,0,.06,0a.23.23,0,0,0,.26-.17.53.53,0,0,0,0-.37Z"/><path class="cls-4" d="M243.27,86.11l.13-.09,0-.1-.06-.07-.1,0-.19,0h-.07l-.06,0-.06,0a.31.31,0,0,0,0,.39.24.24,0,0,0,.21.26.25.25,0,0,0,.12,0h0l.11,0,.1-.07a.37.37,0,0,0,0-.33Z"/><path class="cls-4" d="M248.56,85.54h0a.28.28,0,0,0-.18-.06h-.08l-.09,0-.08,0,0,0A.57.57,0,0,0,248,86l0,.07.07.07.06.09.06,0,.06,0h.11l0,0a.39.39,0,0,0,.37-.17l.07-.06,0-.06,0-.09A.42.42,0,0,0,248.56,85.54Z"/><path class="cls-4" d="M244.4,93.22a.26.26,0,0,0-.26.17.34.34,0,0,0,.18.37h.16l.11-.07.06-.15C244.62,93.27,244.46,93.23,244.4,93.22Z"/><path class="cls-4" d="M246.89,90.63l-.11-.09a.52.52,0,0,0-.2-.07.27.27,0,0,0-.27.13v.08a.32.32,0,0,0,0,.27l0,0,.08.07a.34.34,0,0,0,.21.1h0l.12,0,.07-.07.05-.09a.31.31,0,0,0,.07-.12v-.12Z"/><path class="cls-4" d="M247.12,73l.08,0h.05a.29.29,0,0,0,.14,0,.4.4,0,0,0,.15,0l.08,0,.06-.06,0-.1a.35.35,0,0,0,.07-.23.24.24,0,0,0-.06-.15.23.23,0,0,0-.2-.2h-.1l-.1,0a.3.3,0,0,0-.28.1l0,.06v.13a.45.45,0,0,0,0,.38Z"/><path class="cls-4" d="M245.86,90.34l-.06-.1-.09,0-.08,0a.63.63,0,0,0-.17-.06l-.1,0-.08,0-.08.11a.35.35,0,0,0,0,.3l0,.08,0,0,.11.07a.47.47,0,0,0,.19.07.33.33,0,0,0,.31-.14v-.19h0A.35.35,0,0,0,245.86,90.34Z"/><rect class="cls-3" x="234.95" y="44.92" width="44" height="41.93" transform="translate(75.3 259.2) rotate(-61.16)"/><path class="cls-4" d="M270.44,65.8h.05l.06,0a.24.24,0,0,0,.06-.08.24.24,0,0,0,0-.23v0l-.05-.1a.27.27,0,0,0-.23,0,.3.3,0,0,0-.2.14.25.25,0,0,0,0,.25l.11.06a.18.18,0,0,0,.14.09Z"/><path class="cls-4" d="M262.19,65.61l0,0,0,0a.42.42,0,0,0,.05.43l.11.06h.11l.12-.09.05-.1,0,0,.06,0,0-.11-.06-.14a.38.38,0,0,0-.31-.07Z"/><path class="cls-4" d="M257.27,63.26l0-.07v-.11l0-.08-.07-.08a.5.5,0,0,0-.29,0l-.12,0-.07.08,0,.13a.27.27,0,0,0,.32.2h0l.06,0,.09,0Z"/><path class="cls-4" d="M267.19,49a.24.24,0,0,0-.05-.31l-.1-.07h-.11l-.13.07h0a.24.24,0,0,0,0,.28l.1.09.11,0Z"/><path class="cls-4" d="M249.23,70.27a.31.31,0,0,0,.17.14h.11l.08,0,0,0,.07-.07,0-.07v-.1a.25.25,0,0,0-.23-.18h-.08l-.1,0-.08.08A.32.32,0,0,0,249.23,70.27Z"/><path class="cls-4" d="M255.76,62.63l0,0a.48.48,0,0,0,.08.36l.11.08h.1l.13,0h.08l.07,0,.07,0a.25.25,0,0,0,0-.07h0a.23.23,0,0,0,.12-.12h0v-.06a.27.27,0,0,0,.1-.11.24.24,0,0,0,0-.23l-.08-.05a.25.25,0,0,0-.18-.14l-.08,0-.07,0-.06.07-.06.11h0l-.05,0-.11,0,0,0a.35.35,0,0,0-.17.11Z"/><path class="cls-4" d="M269.83,57.82l.05,0a.25.25,0,0,0,0-.29h0v0a.3.3,0,0,0-.18-.17h-.09l-.08,0-.07.06h0a.28.28,0,0,0,0,.2.18.18,0,0,0,0,.07.24.24,0,0,0,.2.22h.09Z"/><path class="cls-4" d="M249.78,46.58l0,0,0,0a.25.25,0,0,0,0-.3l-.07-.07-.09,0h-.11a.34.34,0,0,0-.12.12.28.28,0,0,0,0,.29.26.26,0,0,0,.27.11Z"/><path class="cls-4" d="M275.45,59.8a.14.14,0,0,0,.08,0l0-.08v-.11a.26.26,0,0,0-.22-.27h-.09l-.07,0-.08.07a.5.5,0,0,0-.11.13.27.27,0,0,0,0,.16l.11.12h0v0a.26.26,0,0,0,.21.06A.26.26,0,0,0,275.45,59.8Z"/><path class="cls-4" d="M256.19,47.87l0-.11,0-.09h0a.26.26,0,0,0-.22-.28l-.12,0-.11.11,0,0a.27.27,0,0,0,0,.15.23.23,0,0,0,0,.12l0,.06,0,0,.07,0A.33.33,0,0,0,256.19,47.87Z"/><path class="cls-4" d="M253.8,45.87a.36.36,0,0,0,.14,0,.24.24,0,0,0,.09-.08.19.19,0,0,0,.15-.1l0,0V45.5l0-.07a.32.32,0,0,0-.13-.2.34.34,0,0,0-.28,0,.37.37,0,0,0-.15.66l.1,0Z"/><path class="cls-4" d="M261.62,50.6v.12l0,.08.06.07.05,0h.09l.1,0a.28.28,0,0,0,.1-.06l0-.14,0-.06h0c0-.14-.09-.18-.14-.19a.19.19,0,0,0-.23.08v0S261.64,50.57,261.62,50.6Z"/><path class="cls-4" d="M264.59,60.65h0a.25.25,0,0,0,0,.14.17.17,0,0,0,0,.13h0a.22.22,0,0,0,.05.28l.11,0h.16l0,0,.11,0,.14-.07-.1-.08h0l.14,0,.1-.11,0-.14a.29.29,0,0,0,0-.24l0,0a.71.71,0,0,0-.09-.07.19.19,0,0,0-.12-.09L265,60.4h-.12a.2.2,0,0,0-.25.09A.21.21,0,0,0,264.59,60.65Z"/><path class="cls-4" d="M270,54.52a.59.59,0,0,0-.06.14v.08l0,.06,0,.06a.29.29,0,0,0,.4,0l.07-.06,0-.07v-.09a.23.23,0,0,0-.06-.11v0l-.08-.09A.28.28,0,0,0,270,54.52Z"/><path class="cls-4" d="M258,59h0a.21.21,0,0,0,.15-.05h.1l.05,0,.06-.07a.29.29,0,0,0,.05-.16h0l0-.08v-.1a.49.49,0,0,0-.62-.19l-.09.11v0l0,.07v0l0,.07a.19.19,0,0,0,0,.12l0,.13A.33.33,0,0,0,258,59Z"/><path class="cls-4" d="M277.58,68.8l.06,0a.25.25,0,0,0,.25-.12l.06-.09V68.4h-.06l.06,0,0-.08-.08-.09,0,0a.31.31,0,0,0-.24-.24h-.05a.55.55,0,0,0-.34.13l0,.07,0,.08s0,0,0,0l0,.1,0,.09.07.08a.25.25,0,0,1,.08.07l.1.09Z"/><path class="cls-4" d="M242.75,48.93l.09,0a.36.36,0,0,0,.13-.12.25.25,0,0,0,0-.17.29.29,0,0,0-.15-.16h-.1l-.08,0-.08.06-.06.12,0,.1,0,.09.09.09h.13Z"/><path class="cls-4" d="M252.27,54v-.1l0-.09-.07-.08,0,0a.38.38,0,0,0-.23-.17h-.07a.25.25,0,0,0-.16.12.25.25,0,0,0,0,.2h0V54l.09.14A.35.35,0,0,0,252.27,54Z"/><path class="cls-4" d="M248.27,55.84l0-.09,0-.09,0-.1c-.14-.19-.27-.22-.36-.21l0,0h0a.31.31,0,0,0-.24.14v.14l0,.07a.23.23,0,0,0,.12.19l.06,0A.64.64,0,0,0,248.27,55.84Z"/><path class="cls-4" d="M256.06,57.75l.06,0,0,0a.2.2,0,0,0,.09-.09l0-.1v-.06l0,0-.05-.06a.35.35,0,0,0-.27-.13.24.24,0,0,0-.18.1l0,.06v.14a.29.29,0,0,0,.12.26.23.23,0,0,0,.23,0Z"/><path class="cls-4" d="M256.59,51.57l.08,0,.05-.05,0-.07a.32.32,0,0,0,0-.31l-.06-.06a.33.33,0,0,0-.39,0l0,.07,0,.09v.07a.28.28,0,0,0,.24.33Z"/><path class="cls-4" d="M262.49,57.75h0a.24.24,0,0,0,.14-.09l0,0v-.12a.14.14,0,0,0,0-.06v0l0-.1-.07-.09a.23.23,0,0,0-.34.07h0a.19.19,0,0,0-.1.1l0,0,0,.14.08.1a.23.23,0,0,0,.19.11Z"/><path class="cls-4" d="M268.8,60.77a.22.22,0,0,0,.16.17.21.21,0,0,0,.2,0l0-.11v-.1h-.05l.06,0a.24.24,0,0,0-.13-.21.21.21,0,0,0-.23,0l-.07.12v.11Z"/><path class="cls-4" d="M278.3,53.07l.12-.06.07-.12v-.13l-.06-.1a.23.23,0,0,0-.16-.14h-.07l-.08,0-.06,0,0,0a.21.21,0,0,0,0,.13h0v.07l0,.11.08.1h0l.08.06Z"/><path class="cls-4" d="M257.91,43.13a.26.26,0,0,0,.2-.13l0-.07v-.07l0-.09a.37.37,0,0,0-.08-.19l-.11,0h-.1l-.11.06,0,0c-.16.29,0,.43.07.49h.12Z"/><path class="cls-4" d="M251.81,87.29a.14.14,0,0,0,0,.06v.09l0,.07,0,.07a.25.25,0,0,0,.22.06.32.32,0,0,0,.19-.18h0v-.08l0-.07,0-.06a.24.24,0,0,0-.22-.09A.28.28,0,0,0,251.81,87.29Z"/><path class="cls-4" d="M252.45,77.57l.06,0,0,0v-.1l0-.09a.18.18,0,0,0-.07-.1l-.12,0-.11,0-.08.07a.28.28,0,0,0,0,.23.24.24,0,0,0,.15.13h.09Z"/><path class="cls-4" d="M256.09,79a.36.36,0,0,0,.19-.17.26.26,0,0,0-.08-.37h0a.24.24,0,0,0-.27,0l-.06.07a.26.26,0,0,0,0,.1l0,.1,0,.14.06.07.06,0,.06,0Z"/><path class="cls-4" d="M246.82,76.07l.05,0,0,0,0,0a.33.33,0,0,0-.27-.5h-.08l-.07,0-.08.08a.33.33,0,0,0-.12.12l0,.07v.07l0,.07a.39.39,0,0,0,.42.19Z"/><path class="cls-4" d="M250,78a.25.25,0,0,0,0-.07v-.09l0-.09-.06-.07-.13-.07h-.15l-.09.05a.57.57,0,0,0-.11.14.26.26,0,0,0,0,.27l.05.07a.35.35,0,0,0,.26.06A.4.4,0,0,0,250,78Z"/><path class="cls-4" d="M234.5,68.75l0-.1v-.12a.26.26,0,0,0-.08-.14l-.11,0-.1,0-.07,0,.05.12-.06-.12-.07.12v.12l.09.12A.25.25,0,0,0,234.5,68.75Z"/><path class="cls-4" d="M241.48,68.33l0-.09v-.09l-.05-.08a.31.31,0,0,0-.24-.06.28.28,0,0,0-.19.14l0,0v.1l0,.08.07.07A.28.28,0,0,0,241.48,68.33Z"/><path class="cls-4" d="M262.26,80.89v-.08l0,.08.08,0,.09-.08a.35.35,0,0,0-.12-.41l-.09,0h-.08l-.09,0,0,.06a.23.23,0,0,0,0,.18.23.23,0,0,0,.07.23l.09,0Z"/><path class="cls-4" d="M246.67,73.79l.06,0,.06-.06,0-.07v-.11l0-.09-.09-.08a.22.22,0,0,0-.31,0l0,.08v.09a.24.24,0,0,0,.22.25Z"/><path class="cls-4" d="M242.93,54.9a.31.31,0,0,0,0-.21l0-.08,0,0c-.09,0-.26-.1-.41.15l0,.07,0,0,0,.08,0,.08a.28.28,0,0,0,.23.07A.31.31,0,0,0,242.93,54.9Z"/><path class="cls-4" d="M260,83.74a.25.25,0,0,0,0-.13v-.08l0-.06-.05-.06-.08,0-.09,0-.08,0-.1.09s0,0,0,0l0,0,0,0v.09l0,.07.05.06a.28.28,0,0,0,.23.05A.23.23,0,0,0,260,83.74Z"/><path class="cls-4" d="M254.62,84l0-.13,0-.07a.25.25,0,0,0-.12-.2h-.13l-.07,0a.26.26,0,0,0-.09.09.24.24,0,0,0,.09.33A.24.24,0,0,0,254.62,84Z"/><path class="cls-4" d="M246.69,84.64l.07.11.12.07h.1l.09,0,.09-.09,0,0v-.1a.28.28,0,0,0-.17-.18.25.25,0,0,0-.26,0l-.06.11Z"/><path class="cls-4" d="M236.07,73.21h0v0a.25.25,0,0,0,.26-.07h0l0,0,0,0a.36.36,0,0,0,0-.29.39.39,0,0,0-.24-.23h-.11l-.08,0a.25.25,0,0,0-.17.11l0,.1h0l0,0a.22.22,0,0,0,.06.27l.07,0Z"/><path class="cls-4" d="M235.77,79.28a.29.29,0,0,0,.16-.09.26.26,0,0,0,.15-.12.55.55,0,0,0,0-.38l0-.06,0,0a.41.41,0,0,0-.34-.1.4.4,0,0,0-.26.22.36.36,0,0,0,0,.09v.08l0,.07,0,.06a.33.33,0,0,1,0,.06C235.49,79.13,235.57,79.32,235.77,79.28Z"/><path class="cls-4" d="M241.72,64.75a.34.34,0,0,0-.05.22l0,.06,0,0,.05.05c.26.13.38,0,.42-.08l0-.07v-.1l-.05-.08-.06-.05a.27.27,0,0,0-.11-.1l-.09,0-.08,0-.08,0Z"/><path class="cls-4" d="M240.6,73.89l0,0,0,0v0h0a.28.28,0,0,0,0-.23.2.2,0,0,0,0-.11l-.05,0-.06,0h-.06a.24.24,0,0,0-.3,0l0,0a.35.35,0,0,0,0,.38.32.32,0,0,0,.35.1Z"/><path class="cls-4" d="M244.94,80a.2.2,0,0,0,.23-.08.2.2,0,0,0,.1-.09.23.23,0,0,0,0-.18l0,0,0,0-.07-.06a.45.45,0,0,0-.12-.12l-.09,0h-.09l-.06,0-.06,0-.05.05a.41.41,0,0,0,.08.51l.12,0Z"/><path class="cls-4" d="M262.6,87.79h0a.3.3,0,0,0-.09.1h0l0,0a.21.21,0,0,0,0,.24l0,0,.08,0,.1,0,.14,0,.11,0,.07,0,.06-.13a.33.33,0,0,0-.22-.44A.21.21,0,0,0,262.6,87.79Z"/><path class="cls-4" d="M242.12,76.62l-.06-.18,0,0h0l-.1,0h0l0,0-.18.06a.23.23,0,0,0,.09.33.25.25,0,0,0,.19,0A.23.23,0,0,0,242.12,76.62Z"/><path class="cls-4" d="M247,62.36l.05.1,0,0h0a.29.29,0,0,0,.16.15s.12,0,.17,0l.1,0,.1-.06a.29.29,0,0,0,0-.15h0v-.07h0v-.11l0-.08a.34.34,0,0,0-.29-.07.4.4,0,0,0-.26.17A.31.31,0,0,0,247,62.36Z"/><path class="cls-4" d="M256.34,68.37l0,0h0l.06,0,.06,0,0-.05,0-.06h0l.06-.08,0-.1a.24.24,0,0,0-.08-.14l0,0-.15-.09a.32.32,0,0,0-.22,0h0a.23.23,0,0,0-.17.11.2.2,0,0,0,0,.21v0l0,.07a.64.64,0,0,0,0,.07v0a.21.21,0,0,0,.14.12Z"/><path class="cls-4" d="M250.3,65h0l.08,0,.06-.06a.24.24,0,0,0,.17-.12.21.21,0,0,0,0-.17h0v-.12l0,0a.31.31,0,0,0-.08-.15l-.1,0h0l-.09-.06-.08,0h-.08l-.12,0a.61.61,0,0,0-.22.23l0,0v.15l0,.07.05,0s0,.07,0,.09h0v0l0,.07.05.07A.35.35,0,0,0,250.3,65Z"/><path class="cls-4" d="M241,59.19l.09,0,.06-.08a.27.27,0,0,0-.08-.35.26.26,0,0,0-.34.07l0,.08V59l.05.11,0,.08.1,0Z"/><path class="cls-4" d="M262.94,70v0h0l0,0,.06-.09v-.1l0-.12a.38.38,0,0,0-.17-.16h0a.21.21,0,0,0-.21,0h0l-.08,0a.38.38,0,0,0-.11.11l0,.08a.39.39,0,0,1,0,.06l0,.08v.08l0,.07a.49.49,0,0,0,.38.15Z"/><path class="cls-4" d="M257.17,71a.21.21,0,0,0,.1-.06.31.31,0,0,0,.1,0,.41.41,0,0,0,.07-.11.51.51,0,0,0,.05-.39l0,0,0-.05-.05,0a.5.5,0,0,0-.62.28l0,.05v.11l.06.1a.22.22,0,0,0,.09.13H257A.25.25,0,0,0,257.17,71Z"/><path class="cls-4" d="M268.89,72.92l-.06.07a.53.53,0,0,0,0,.11v.08l0,.07.06.07.12.06h.1l.09,0,.08-.06.05-.1V73a.43.43,0,0,0-.22-.2H269l-.07,0Z"/><path class="cls-4" d="M257.94,65.63l.1,0h0a.24.24,0,0,0,.17,0,.4.4,0,0,0,.11-.12.3.3,0,0,0,0-.1s0,0,0,0v-.09l0-.08-.05-.07a.27.27,0,0,0-.24-.06L258,65l-.07.07,0,0a.45.45,0,0,0-.14.14l0,0v.1l0,.07.07.08,0,0Z"/><path class="cls-4" d="M238.33,63.5a.23.23,0,0,0,.16,0,.15.15,0,0,0,.07-.05.19.19,0,0,0,.13-.1.21.21,0,0,0,0-.12v-.06l0,0a.32.32,0,0,0-.2-.27h-.08l-.06,0-.07,0a.63.63,0,0,0-.15.17.38.38,0,0,0,0,.37l.11.06h.08Z"/><path class="cls-4" d="M264.8,78.74a.25.25,0,0,0-.17.08l0,.11v0a.24.24,0,0,0,0,.2.16.16,0,0,0,.11.08.29.29,0,0,0,.39-.13.28.28,0,0,0,.05-.16v0l0-.05,0,0A.27.27,0,0,0,264.8,78.74Z"/><path class="cls-4" d="M272.59,80.73h.07l.06,0a.58.58,0,0,0,.11-.15.36.36,0,0,0,0-.29.37.37,0,0,0-.23-.21h-.1l-.08,0-.06,0,0,0-.07.06,0,.07v.13a.37.37,0,0,0,.28.35Z"/><path class="cls-4" d="M267.41,80.37h-.11l-.07,0-.06.08a.33.33,0,0,0,.05.39.2.2,0,0,0,.25,0l0,0,.05,0,.09-.07a.37.37,0,0,0,0-.32l0-.06-.05,0-.06,0Z"/><path class="cls-4" d="M250.58,60.28l.07,0,0,0a.23.23,0,0,0,.1-.1l0-.09V60a.29.29,0,0,0-.16-.22.33.33,0,0,0-.34.05l-.06.09V60l0,.11a.36.36,0,0,0,.19.17Z"/><path class="cls-4" d="M253.09,73l0,0,0,0c0-.06.05-.15-.08-.28s-.25-.09-.27-.08l0,0-.05,0,0,0a.2.2,0,0,0,.05.26.43.43,0,0,0,.3.11Z"/><path class="cls-4" d="M253,68.52l0,.14h.09l.08,0,.07-.06.08-.14v-.12l0-.06a.25.25,0,0,0-.31-.13.19.19,0,0,0-.27.08.17.17,0,0,0,0,.1h0l0,.09,0,.11a.32.32,0,0,0,.25.14Z"/><path class="cls-4" d="M251.68,72.94h0a.28.28,0,0,0,.11-.13l0-.06V72.6l0-.06a.55.55,0,0,0-.32-.24h-.07l-.08,0-.09,0-.05,0,0,0a.16.16,0,0,0,0,.09l0,0a.36.36,0,0,0,0,.35l0,.08,0,.06.06,0A.36.36,0,0,0,251.68,72.94Z"/><path class="cls-4" d="M246.93,67.06a.2.2,0,0,0-.05-.26.26.26,0,0,0-.35,0l-.05.13,0,.11.09.1C246.82,67.21,246.91,67.11,246.93,67.06Z"/><path class="cls-4" d="M248.18,69.91l.11-.06a.57.57,0,0,0,.11-.14.21.21,0,0,0,0-.25l-.07,0a.25.25,0,0,0-.2-.1h-.05l-.09,0a.3.3,0,0,0-.14.14h0v.11l0,.09.06.06a.24.24,0,0,0,.07.09l.1,0Z"/><path class="cls-4" d="M262.15,75.94l0,0,0,0a.29.29,0,0,0-.08.1.39.39,0,0,0-.05.13v.07l0,.07.06.08a.37.37,0,0,0,.16.13.17.17,0,0,0,.14,0,.21.21,0,0,0,.23-.09l0-.08a.22.22,0,0,0,.05-.08.26.26,0,0,0,0-.25l0,0-.05,0,0,0a.43.43,0,0,0-.32-.1Z"/><path class="cls-4" d="M248.74,69.19l.1,0,.08,0,0-.07a.55.55,0,0,0,.11-.11v-.16l-.06-.11a.37.37,0,0,0-.22-.14h-.13l-.09.07a.38.38,0,0,0-.12.13.28.28,0,0,0,0,.29l.11.06h0v0Z"/><rect class="cls-3" x="243.75" y="29.63" width="26.31" height="27.61" transform="translate(175.29 290.88) rotate(-81.34)"/><path class="cls-4" d="M253.94,35.51l0,0,0,0-.06,0a.16.16,0,0,0-.14.05h0l0,0a.21.21,0,0,0,0,.15.18.18,0,0,0,.13.08.15.15,0,0,0,.14-.05l0-.08a.15.15,0,0,0,0-.1Z"/><path class="cls-4" d="M255.61,40.41l0,0h0a.26.26,0,0,0,.25-.12v-.08l0-.06-.08,0h-.07l-.05,0h-.07l-.07.07a.25.25,0,0,0,0,.2Z"/><path class="cls-4" d="M255.29,43.82h0l-.06,0-.05,0,0,.06a.26.26,0,0,0,.05.18l0,.06.06,0h.08a.17.17,0,0,0,0-.24h0v0l0,0Z"/><path class="cls-4" d="M244.75,41.06a.15.15,0,0,0-.17.1l0,.08v.06l.07.06h0a.15.15,0,0,0,.16-.07l0-.08v-.07Z"/><path class="cls-4" d="M261.16,47a.18.18,0,0,0,0-.14l0,0,0,0h0l-.06,0H261l-.06,0a.14.14,0,0,0-.05.17h0v0l0,.06.06,0A.22.22,0,0,0,261.16,47Z"/><path class="cls-4" d="M255.25,44.85h0a.29.29,0,0,0,.2-.13l0-.08,0-.06-.06-.06v-.05l0,0,0,0h-.06a.31.31,0,0,0-.1,0h0a.19.19,0,0,0-.09,0,.13.13,0,0,0-.13,0l0,.05a.2.2,0,0,0,0,.14l0,0,0,0,.05,0h.08v0l0,.06h0a.26.26,0,0,0,.11.07Z"/><path class="cls-4" d="M249.37,37.6l0,0a.17.17,0,0,0-.17.07h0a.17.17,0,0,0-.06.14l0,.06,0,0,.05,0h0a.17.17,0,0,0,.12,0l0,0a.2.2,0,0,0,.09-.17l0-.06Z"/><path class="cls-4" d="M247.09,51.84H247a.16.16,0,0,0-.17.09l0,.06V52l0,.06a.31.31,0,0,0,.1,0,.15.15,0,0,0,.16-.08.17.17,0,0,0,0-.18Z"/><path class="cls-4" d="M249.32,33.86a.1.1,0,0,0,0,0h-.05l-.07,0A.16.16,0,0,0,249,34l0,0,0,0,.06,0,.09,0a.16.16,0,0,0,.1,0l.05-.09v0h0a.14.14,0,0,0-.09-.19Z"/><path class="cls-4" d="M246.46,47.79h-.07l0,0h0a.18.18,0,0,0-.12.2l.05.06.08,0h.12l.07,0,0,0,0,0v0A.19.19,0,0,0,246.46,47.79Z"/><path class="cls-4" d="M245.8,49.63a.12.12,0,0,0,0-.08l-.06,0a.14.14,0,0,0-.1-.07h0l0,0,0,0,0,0a.19.19,0,0,0-.08.12.17.17,0,0,0,0,.17.25.25,0,0,0,.17.11.23.23,0,0,0,.25-.16v-.06Z"/><path class="cls-4" d="M246.9,44h0l.06,0,0,0,0-.06V43.8l0,0a.15.15,0,0,0-.06,0h-.09l0,0h0a.14.14,0,0,0-.08.13s0,.08.1.11h0Z"/><path class="cls-4" d="M252.17,40.07h.1l.07-.06h0a.12.12,0,0,0,.15-.08v-.07l0,0a.14.14,0,0,0,0-.07v0l0-.07-.07-.07,0,.08h0v-.09l-.09,0-.08,0a.2.2,0,0,0-.14.06l0,0a.14.14,0,0,0,0,.06.22.22,0,0,0,0,.1l0,.08,0,.07a.14.14,0,0,0,.11.13A.14.14,0,0,0,252.17,40.07Z"/><path class="cls-4" d="M247.4,38.23h.09l0,0,0,0,0,0a.2.2,0,0,0-.08-.24l-.05,0h-.11l-.05.06h0l0,.07A.18.18,0,0,0,247.4,38.23Z"/><path class="cls-4" d="M252.59,44.3v0a.11.11,0,0,0-.07-.08v0l0,0,0,0-.06,0a.19.19,0,0,0-.11,0h-.06l0,0a.31.31,0,0,0,0,.41l.09,0h.12a.1.1,0,0,0,.06,0l.07,0a.23.23,0,0,0,.06-.15Z"/><path class="cls-4" d="M254.16,30.66l0,0a.16.16,0,0,0-.12-.12l-.07,0h-.06l0,0,0,0,0,0-.05,0,0,.07a.08.08,0,0,1,0-.05.2.2,0,0,0-.09.2v0a.36.36,0,0,0,.15.17H254l.05,0,0-.05a.21.21,0,0,1,0-.07l0-.08Z"/><path class="cls-4" d="M250,55.47l0,0a.23.23,0,0,0-.1,0,.12.12,0,0,0-.1,0,.17.17,0,0,0-.06.12v.06l0,.05,0,0h.15l0,0,0-.07v0Z"/><path class="cls-4" d="M250.94,48.76l-.06,0,0,0,0,0v0a.23.23,0,0,0-.06.17l0,0a.16.16,0,0,0,.1.08.2.2,0,0,0,.13,0h.06l.05-.08A.21.21,0,0,0,250.94,48.76Z"/><path class="cls-4" d="M252.87,50.73l-.06,0h-.06l-.05,0c-.09.12-.08.21,0,.26h0a.21.21,0,0,0,.13.11h0l.07,0,0,0A.17.17,0,0,0,253,51v0A.39.39,0,0,0,252.87,50.73Z"/><path class="cls-4" d="M252.31,45.72l0,0h0a.09.09,0,0,0-.07,0h-.06l0,0,0,0,0,0a.29.29,0,0,0,0,.19.2.2,0,0,0,.11.09h.08l0,0a.21.21,0,0,0,.13-.13.17.17,0,0,0,0-.13Z"/><path class="cls-4" d="M248.55,46.75l0,0-.05,0h-.05a.25.25,0,0,0-.18,0l0,.05a.22.22,0,0,0,.07.24h.11l0,0a.18.18,0,0,0,.14-.21Z"/><path class="cls-4" d="M250.92,41.93h0a.1.1,0,0,0-.08-.06h-.07l0,0,0,0h0l0,0,0,.06c0,.12.05.17.12.18h0a.12.12,0,0,0,.08,0h0l.08,0,0-.07a.13.13,0,0,0,0-.13Z"/><path class="cls-4" d="M251.33,37.57a.13.13,0,0,0,0-.24h-.07l-.06,0v0l0,0a.18.18,0,0,0-.1.13.15.15,0,0,0,.06.13h.08l.07,0Z"/><path class="cls-4" d="M244.74,33.64l-.06-.06h-.09l-.08,0,0,0a.17.17,0,0,0-.05.12v0l0,0,0,0h.11l0,0,.06,0,0-.07h0l0-.06Z"/><path class="cls-4" d="M243.3,47.8a.13.13,0,0,0-.12-.09h-.05l0,0-.05,0a.25.25,0,0,0-.09.09v.07l0,.06.06,0h0c.21,0,.26-.08.27-.14l0-.07Z"/><path class="cls-4" d="M270.63,41.83h.09l0,0,0,0a.16.16,0,0,0-.16-.22h-.06l0,0,0,0a.16.16,0,0,0,0,.15A.16.16,0,0,0,270.63,41.83Z"/><path class="cls-4" d="M264.77,43.56l0,0h-.09l-.06,0s0,0,0,.06v.08l0,.05.06,0a.14.14,0,0,0,.18-.15l0,0Z"/><path class="cls-4" d="M264.84,41.1a.26.26,0,0,0-.14-.08.16.16,0,0,0-.2.13v0a.14.14,0,0,0,.06.16l.05,0h.13l.07-.06,0-.05v-.09Z"/><path class="cls-4" d="M265.1,47.2l0,0,0,0h0a.19.19,0,0,0-.18.06.24.24,0,0,0-.06.21l0,0,0,0,.06,0,.09,0h0l0,0,0,0a.28.28,0,0,0,0-.3Z"/><path class="cls-4" d="M265.54,44.92h-.1l0,0,0,.05,0,.09v0l0,0,0,0,.11,0a.22.22,0,0,0,.16-.06l0,0a.22.22,0,0,0,0-.17A.28.28,0,0,0,265.54,44.92Z"/><path class="cls-4" d="M263.46,56h-.07l-.07,0a.11.11,0,0,0-.06.07v.08l0,.05,0,0,.06-.05-.06.06h.09l.07,0,.05-.08A.16.16,0,0,0,263.46,56Z"/><path class="cls-4" d="M261.7,52h-.06l-.05,0,0,0a.19.19,0,0,0,0,.16.2.2,0,0,0,.12.08h0l0,0,0,0,0-.05A.18.18,0,0,0,261.7,52Z"/><path class="cls-4" d="M264.6,37.07l-.05,0,0,0,0,0-.07,0a.22.22,0,0,0-.21.15v.06l0,.05,0,0,.05,0a.2.2,0,0,0,.11,0,.16.16,0,0,0,.12-.09v-.06Z"/><path class="cls-4" d="M263.79,47.78l0,0-.05,0h0l-.07,0,0,0,0,.07a.15.15,0,0,0,.08.18h.06l0,0a.15.15,0,0,0,.1-.18Z"/><path class="cls-4" d="M253.47,54.08a.15.15,0,0,0-.13,0l0,0,0,0c0,.06,0,.17.18.21l0,0h0l0,0,0,0a.2.2,0,0,0,0-.15A.22.22,0,0,0,253.47,54.08Z"/><path class="cls-4" d="M266.78,37.81a.14.14,0,0,0-.09,0l-.05,0,0,0,0,0V38l0,0,.07,0h.11l0,0,0,0,0,0a.24.24,0,0,0,0-.15A.17.17,0,0,0,266.78,37.81Z"/><path class="cls-4" d="M268.05,40.91H268l0,0a.13.13,0,0,0-.09.12v0l0,0,0,0a.11.11,0,0,0,.08,0,.16.16,0,0,0,.08-.3Z"/><path class="cls-4" d="M270.17,45.42l.05-.06,0-.09,0-.06,0,0-.07,0H270a.15.15,0,0,0-.07.14.16.16,0,0,0,.07.15h.08Z"/><path class="cls-4" d="M265.74,54.15v0h0a.17.17,0,0,0-.09-.14h0l0,0h0a.28.28,0,0,0-.18,0,.28.28,0,0,0-.08.2l0,.06,0,0a.14.14,0,0,0,.11.07h.09s.1,0,.15-.09v-.12Z"/><path class="cls-4" d="M269.38,53a.17.17,0,0,0-.09-.07.13.13,0,0,0-.1-.06A.39.39,0,0,0,269,53l0,0,0,0a.24.24,0,0,0,0,.22.28.28,0,0,0,.19.11h.1l0,0,0,0,0,0A.21.21,0,0,0,269.38,53Z"/><path class="cls-4" d="M259.53,52.66a.22.22,0,0,0,.14,0l0,0,0,0,0,0c0-.18-.09-.22-.14-.23h0l-.06,0,0,0,0,0a.12.12,0,0,0,0,.08v.06l0,0,0,0Z"/><path class="cls-4" d="M265.16,51.34l0,0h-.05a.15.15,0,0,0-.13,0l-.06,0,0,0v0l0,0h0a.15.15,0,0,0,.09.17h0a.23.23,0,0,0,.22-.09.21.21,0,0,0,0-.23Z"/><path class="cls-4" d="M267.83,47.45a.12.12,0,0,0-.09-.11l-.08-.05a.15.15,0,0,0-.11,0l0,0,0,0,0,0a.34.34,0,0,0,0,.1v0l0,.05,0,0,0,0,0,0a.25.25,0,0,0,.28-.16v-.07Z"/><path class="cls-4" d="M268.58,35.37h0a.11.11,0,0,0,.07,0h0a.13.13,0,0,0,.14-.06v-.15a.28.28,0,0,0,0-.09l0-.06-.05,0h-.09c-.14,0-.21.09-.21.22A.14.14,0,0,0,268.58,35.37Z"/><path class="cls-4" d="M266.44,49.85l-.09.07v0h0v.11l.07.09a.15.15,0,0,0,.18-.13.14.14,0,0,0,0-.12A.14.14,0,0,0,266.44,49.85Z"/><path class="cls-4" d="M257,50.06l0-.06h0a.18.18,0,0,0,0-.13.13.13,0,0,0,0-.1l0,0-.06,0a.15.15,0,0,0-.1,0h-.05l-.05,0,0,.05a.22.22,0,0,0,0,.18.27.27,0,0,0,.16.12Z"/><path class="cls-4" d="M258.5,43.26l0,0v0l0,0,0,0h-.2a.13.13,0,0,0-.06.07l0,0,0,.11a.17.17,0,0,0,0,.13h0a.11.11,0,0,0,.1.08.14.14,0,0,0,.12,0l0,0,0,0,0,0h0a.15.15,0,0,0,0-.11Z"/><path class="cls-4" d="M257.8,47.56h0v0l0,0-.05,0a.21.21,0,0,0-.11-.08.15.15,0,0,0-.1,0h0l-.06,0,0,0a.14.14,0,0,0-.07.08v.09a.64.64,0,0,0,0,.07v.05l0,0,.05,0a.37.37,0,0,0,.19.08h.08l0,0,0,0a.08.08,0,0,0,0,0l0,0h0l0,0,0,0A.22.22,0,0,0,257.8,47.56Z"/><path class="cls-4" d="M256.42,54.28l-.05-.05-.05,0a.17.17,0,0,0-.19.13.15.15,0,0,0,.11.18h.06l0,0,.05,0,0-.05v-.12Z"/><path class="cls-4" d="M258.05,39h0v0l0,0-.07,0-.06,0-.06.05a.18.18,0,0,0-.06.13h0a.11.11,0,0,0,0,.13v0l0,0,.09,0h.15l0,0,0,0a.33.33,0,0,0,0-.26Z"/><path class="cls-4" d="M259.89,42.2a.1.1,0,0,0-.06-.05.12.12,0,0,0-.05,0l-.08,0a.38.38,0,0,0-.24.06l0,0,0,0v0a.34.34,0,0,0,.3.31h.07l0,0,0-.06a.12.12,0,0,0,.06-.08v-.05A.15.15,0,0,0,259.89,42.2Z"/><path class="cls-4" d="M258.47,34.89h.12l.05,0,0,0,0-.05v-.15l0,0-.06,0h-.14l0,0a.24.24,0,0,0-.07.17l0,0,0,0Z"/><path class="cls-4" d="M256.54,42.91l0,0h0a.12.12,0,0,0-.06-.1l-.09,0h-.16l0,0,0,.05a.2.2,0,0,0,0,.16l0,.06.05,0h0a.28.28,0,0,0,.11,0h0l.05,0,0,0,0-.06h0Z"/><path class="cls-4" d="M259.54,54.92s0-.06,0-.09l-.05,0a.15.15,0,0,0-.09-.06h-.07l0,0,0,0a.21.21,0,0,0-.11.18v0l0,0,0,0a.24.24,0,0,0,.14.05.2.2,0,0,0,.21-.08v-.13Z"/><path class="cls-4" d="M262.78,36a.11.11,0,0,0,.08.07H263a.12.12,0,0,0,.11-.06.09.09,0,0,0,0-.08.18.18,0,0,0-.16-.21h-.1l0,0,0,0,0,0A.18.18,0,0,0,262.78,36Z"/><path class="cls-4" d="M262.27,31l0,0,0,0a.35.35,0,0,0-.11,0,.19.19,0,0,0-.18,0,.21.21,0,0,0-.07.18l0,.06,0,0,0,0,0,0,.05,0h.06l.07,0a.21.21,0,0,0,.14-.24Z"/><path class="cls-4" d="M263.18,34.14v0l0,0,0,0,.06,0a.24.24,0,0,0,.22-.11.15.15,0,0,0,0-.16h0l0,0-.06,0a.25.25,0,0,0-.2,0l0,0v.08A.07.07,0,0,0,263.18,34.14Z"/><path class="cls-4" d="M255,48.41l0,0,0,0a.12.12,0,0,0-.08,0,.06.06,0,0,0-.06,0h0a.16.16,0,0,0-.1.14.21.21,0,0,0,.1.19h.13l.05,0a.21.21,0,0,0,.06-.15Z"/><path class="cls-4" d="M261.94,44.17l0,0h0s-.1,0-.15.1,0,.17,0,.19l0,0,0,0h0s.1,0,.14-.09a.25.25,0,0,0,0-.2Z"/><path class="cls-4" d="M259.32,45.2l.07,0,0-.06,0,0,0,0h-.18l0,0a.15.15,0,0,0,0,.21.14.14,0,0,0,.11.15h.13l.06,0a.23.23,0,0,0,0-.17Z"/><path class="cls-4" d="M262.2,45h0a.29.29,0,0,0-.1,0H262l0,0,0,0a.34.34,0,0,0-.07.25v0l0,0,0,0,0,0h.09l0,0a.24.24,0,0,0,.21-.08l0,0,0,0,0,0A.24.24,0,0,0,262.2,45Z"/><path class="cls-4" d="M259.77,49.09a.14.14,0,0,0-.15.08.19.19,0,0,0,.09.21h.09l.06,0,0-.08C259.88,49.12,259.8,49.09,259.77,49.09Z"/><path class="cls-4" d="M261.18,47.74l-.06-.06-.11,0a.15.15,0,0,0-.15.07v0a.16.16,0,0,0,0,.15l0,0,0,0A.28.28,0,0,0,261,48h0l.07,0,0,0,0-.05,0-.06v-.06Z"/><path class="cls-4" d="M261.7,38.2l.05,0h0a.15.15,0,0,0,.08,0h.08l.05,0,0,0,0,0a.33.33,0,0,0,0-.12.16.16,0,0,0,0-.09.13.13,0,0,0-.11-.11h-.11a.16.16,0,0,0-.15,0l0,0V38a.22.22,0,0,0,0,.21Z"/><path class="cls-4" d="M260.63,47.56l0-.06,0,0h-.05a.19.19,0,0,0-.09,0h-.05l0,0-.05.06a.23.23,0,0,0,0,.16l0,0,0,0,.06,0,.11,0a.17.17,0,0,0,.16-.07l0-.08v0h0S260.63,47.6,260.63,47.56Z"/></g></svg>