<svg xmlns="http://www.w3.org/2000/svg" viewBox="0 0 279 265.75"><defs><style>.cls-1{fill:#fff;}</style></defs><title>kombucha</title><g id="Layer_2" data-name="Layer 2"><path class="cls-1" d="M174.12,4.48c-18.92-1.26-35.72-2-54.5.65-4.67.65-9.53,1.51-13.28,4.36s-6,8.32-3.66,12.44c1.26,2.27,3.57,3.7,5.55,5.38,9.1,7.72,11.06,22.57,4.26,32.39-12.47,18-42.6,12.85-57.84,28.62C47.93,95.26,45.34,105.1,43,114.47c-4.86,19.45-9.73,38.93-12.58,58.78-2.32,16.17-2.88,34.09,6.81,47.25,5.12,7,12.64,11.82,20.52,15.36,12.62,5.69,26.36,8.33,40,10.51,31.22,5,37.92,5.78,69.53,6.22,14.86.2,30.21-.2,43.77-6.28,16.29-7.3,28.23-22.19,35.47-38.5s10.26-34.14,12.92-51.79c1.92-12.8,3.34-27.1-4.3-37.54-11.79-16.11-14.64-13.29-23.87-31-3-5.82-3.38-12.62-3.65-19.18-.31-7.37.19-16.29,6.64-19.88,4.33-2.42,10.67-1.88,13.16-6.17,3.11-5.35-5.77-18.42-11.27-21.24-21.95-11.24-35.77-11.83-62-16.54"/></g></svg>