<svg xmlns="http://www.w3.org/2000/svg" viewBox="0 0 610.19 380.82"><defs><style>.cls-1{fill:#4e514d;}</style></defs><title>kombucha</title><g id="Layer_2" data-name="Layer 2"><path class="cls-1" d="M73.44,75.1C97.7,70.92,120.53,86.53,128,109.58s0,47.69-16.89,64.59-43.5,25.7-66,15.77a49,49,0,0,1-23.79-22.29c-4.71-9.2-5.72-20.42-5.46-30.61.3-11.65,2.59-23.71,8.8-33.73,7-11.3,20-19.21,31.7-24.76,2.2-1,2.11-3.85.6-5.39-1.85-1.9-4.81-1.84-7-.79-12.17,5.76-25,14-32.89,25.21C10,107.46,6.91,119.73,6.05,131.64s0,24.66,4.67,35.65c4.91,11.54,14.23,21.09,25.21,27,51.42,27.83,116.51-25.45,103.12-81.11-7.2-29.93-36.59-51.08-67.43-45.76-6.4,1.1-3.91,8.63,1.82,7.65Z"/><path class="cls-1" d="M29.54,77.21q4.83.08,9.67.24l4.83.2c.23,0,4.19-.1,4.35,0,.65.6-1.55,7.73-1.77,8.75l-2,9.31c-.7,3.27,8.77,1,9.47-2.22l2.68-12.42c.47-2.18,2.15-5.9.34-7.85S50.26,72,47.83,71.89q-6.44-.27-12.89-.37c-2.29,0-5,.7-6.61,2.5-1.2,1.39-1,3.15,1.21,3.19Z"/><path class="cls-1" d="M31.57,37.88a52.1,52.1,0,0,1,7.78-.81c2.35-.07,4.94-2.22,4.93-4.66,0-2.69-2.63-3.75-4.91-3.69a53.31,53.31,0,0,0-7.77.81c-2.34.43-4.94,2-4.93,4.67,0,2.41,2.63,4.09,4.9,3.68Z"/><path class="cls-1" d="M25.47,24.93c2.73,1,5.46,1.95,8.18,3,1.91.71,7.77,2,8.9,3.76.85,1.33.18,1.62-.72,3.14L39.35,39l-4.94,8.35c-2.15,3.63,7.36,1.86,8.93-.79l6.43-10.85c1.1-1.85,4.26-5.33,3-7.83-1.07-2.13-5.37-2.8-7.39-3.58q-6.31-2.42-12.71-4.66c-2.87-1-11.27,3.9-7.21,5.33Z"/><path class="cls-1" d="M92,15.75q3.11,4.34,6.11,8.71c.76,1.12,5.53,6.74,5,7.87l2.4-2.1c-4.87,3-10.57,5-15.77,7.31-1.28.58-4.56,2.07-3.82,4s4.34,1,5.53.48l12.37-5.61c2.56-1.16,6.6-2.33,8.23-4.9,1.91-3-1.27-5.75-2.94-8.22-2.53-3.75-5.11-7.44-7.74-11.12-2.11-2.95-11,1.21-9.35,3.55Z"/><path class="cls-1" d="M80.6,30.45a47.55,47.55,0,0,1,22.3,1c1.44.39,4.38-2.14,5.44-2.94.41-.31,3.33-2.56,2.29-2.85a49.16,49.16,0,0,0-23.37-.82c-2.05.42-4.31,2.22-5.85,3.57-.52.46-2.75,2.4-.81,2Z"/><path class="cls-1" d="M385.22,8.28c23.38-4.87,45.64,10.14,53.65,32.05,7.83,21.4,1,45.64-13.73,62.33-2.77,3.13,5.1,9.29,8,6,17.36-19.68,23.42-48.95,11.79-73C433.38,11.82,407-5,380.24.54c-5.12,1.07,1.12,8.54,5,7.74Z"/><path class="cls-1" d="M444.75,105.75c-2.91.54-5.81,1.06-8.73,1.55-1.39.23-6.79,1.9-8,1-.67-.53.09-6.91.1-7.94l.11-9.52c0-3.73-9.43-1-9.47,2.22l-.15,12.7c0,2.37-1,6.88,1.59,8.28s7.68-.25,10.57-.71c4.38-.71,8.75-1.46,13.11-2.28,1.6-.29,5.09-1.75,5.16-3.75.07-2.17-3-1.78-4.32-1.53Z"/><path class="cls-1" d="M327.18,10.16c17.5-3.67,34.43,3.46,45.72,17,12.91,15.51,15.27,35.95,8.64,54.73-1.62,4.59,5.74,11.06,7.67,5.58C397.16,65,394,41,379,22.23,365.94,5.81,345.16-3.64,324.24.75c-5.38,1.12-1.93,10.43,2.94,9.41Z"/><path class="cls-1" d="M396,80.68c-4.67,3.13-9.79,7.61-15,9.67l4.46-.42c-1.5-.77-2.9-6.31-3.56-7.88l-3.74-9c-1.31-3.14-10.63.47-9.35,3.54,2,4.77,3.9,9.59,6,14.32,1.16,2.65,2.11,4.66,5.43,4.48,3.52-.19,6.78-2.81,9.62-4.6q6.24-3.95,12.36-8.06c1.47-1,2.35-2.74.51-3.72s-5.16.58-6.7,1.62Z"/><path class="cls-1" d="M283.7,22.53c27.38-5.69,51.45,15,56.14,41.38.38,2.14,2.49,4.36,4.39,5.31,1.11.56,3.73,1.44,3.32-.86C342,36.93,310.7,8.12,277.56,15c-2.84.59,3.09,8.16,6.14,7.52Z"/><path class="cls-1" d="M349.07,54.21c-1.64,6-2.79,13.28-5.69,18.79l4.89-3-1.11.26,3.19,0c-5.77-2-11.33-5.48-16.82-8.21-2.72-1.36-11.23,3.33-7.21,5.33l12.5,6.24c3.73,1.86,6.46,2.91,10.49,1,3.5-1.65,4-4.8,5.08-8.24q2.19-7.15,4.15-14.36c.85-3.11-8.58-1-9.47,2.22Z"/><path class="cls-1" d="M206.75,29.71c18.33-3.78,36,5,46.91,19.71,3.39,4.54,12.1,1.6,8.22-3.61-13.43-18-35.12-29.7-57.9-25-6.22,1.28-2.68,10,2.77,8.9Z"/><path class="cls-1" d="M260.4,34.77c-.68,6.46-.68,14-2.74,20.22l2.67-2.81c3.61-.22,4.49-.55,2.62-1l-2.27-.7-4.55-1.41L247,46.25c-2.16-.68-5,.27-6.7,1.61-1.11.86-2.74,3-.51,3.72l13.64,4.23c3.65,1.14,6.75,2,10.35.16s3.73-4.59,4.23-8.22c.69-5.06,1.29-10.12,1.83-15.2.37-3.55-9.13-1-9.47,2.22Z"/><path class="cls-1" d="M133.22,26.07c12.46-2.53,24.82,1.15,35.24,8,2.27,1.51,10.41-3.51,8.38-4.86a52.76,52.76,0,0,0-40.31-8.09c-1.55.31-5.5,1.63-6,3.42s1,1.82,2.65,1.48Z"/><path class="cls-1" d="M170.41,16.64q.75,4.78,1.41,9.57c.13.95,1.84,8.62,1.37,9.11L177.52,33c-2.21.63-5.78-.22-8.08-.32l-8.72-.36a8.71,8.71,0,0,0-6.61,2.51c-1.23,1.42-.93,3.1,1.21,3.18l14.27.6c3.67.15,7.47.4,10.61-1.91s2.1-5.15,1.69-8.45c-.62-5.07-1.34-10.12-2.13-15.16-.45-2.93-9.9,0-9.35,3.54Z"/><path class="cls-1" d="M460.53,4.9c14.27-2.48,29.65,4.63,39.92,14.18a57.87,57.87,0,0,1,18,34.94c3.52,27.14-11.84,54.08-35.16,67.53-1.72,1,1.47.76,1.95.74,2-.1,4.89-.41,6.69-1.45,25.46-14.68,42.12-44.56,35.38-74.12A58.43,58.43,0,0,0,502.19,11C489.51,2.73,475,.81,460.26,3.37c-.41.07-5.08,1-4.79,1.62.4.89,4.57,0,5.06-.09Z"/><path class="cls-1" d="M505.19,122.94c-3.21-.24-6.43-.5-9.64-.8-1.6-.15-3.2-.3-4.81-.47-.46,0-3.87-.08-4.26-.55-.57-.72,2-7.44,2.29-8.48l2.53-9.18c.86-3.1-8.57-1-9.47,2.22l-3.38,12.24c-.6,2.15-2.5,5.78-.73,7.8s6.84,1.57,9.22,1.81q6.42.63,12.85,1.1c2.14.16,5.25-.72,6.61-2.5,1.14-1.5,1-3-1.21-3.19Z"/><path class="cls-1" d="M534,20c26-5.06,50,18.56,55.53,42.4,5.82,25-6.36,51.14-26.28,66.35-11.68,8.91-25.75,14-40.5,13.06-4.63-.27-8.89,4.42-2.15,4.83,29.8,1.79,58.87-15.3,72.64-41.66,13.94-26.7,7.9-59.13-15.79-78.1-13.24-10.61-30-14.35-46.59-11.13-1.51.29-4,1.41-3.16,3.27s5,1.24,6.3,1Z"/><path class="cls-1" d="M537.76,151.81c-2.74-.93-5.49-1.88-8.22-2.85-2-.7-7.74-1.87-9-3.63-.91-1.3-.22-1.62.66-3.15l2.42-4.2,4.83-8.41c2.11-3.69-7.4-1.89-8.94.78l-6.28,10.94c-1.07,1.87-4.18,5.38-2.91,7.87,1.08,2.13,5.39,2.74,7.42,3.49q6.36,2.34,12.77,4.49c2.88,1,11.27-4,7.21-5.33Z"/><path class="cls-1" d="M529.37,192.69c29.09-5,52.81,23.32,54.72,50.29,2,28.53-16.22,55.81-42,67.28-17.72,7.88-37.47,7.08-53.17-4.84a9.76,9.76,0,0,0-6.71-1.46c-1,.15-3.9.84-2.08,2.23,29.69,22.56,73.23,14.63,96.8-12.89,22.35-26.1,23.44-65.92-2.87-89.78-13.92-12.62-33.1-17.35-51.43-14.2-2.06.36-1.66,1.62-.31,2.53,1.84,1.22,4.95,1.2,7,.84Z"/><path class="cls-1" d="M488.65,321.08c-2.48-6-6.1-12.67-7.23-19.07l-.77,2.11c-1.27,1.59.69.41,1.87.18l4.28-.86,8.56-1.7c4.59-.91,7.46-6.6.84-5.28l-13.7,2.72c-3.26.65-7,1.12-9.31,3.82s-.2,5.64.91,8.56q2.5,6.57,5.2,13.07c1.3,3.14,10.63-.46,9.35-3.55Z"/><path class="cls-1" d="M411.24,219.35c17.45-3,35.48,4,45.68,18.6,9.28,13.31,11.59,30.68,8.23,46.34-7.1,33-40.9,59.12-75,54.55-18.83-2.53-32.48-15.15-37.85-33.12-.74-2.45-9.15-7-8.12-3.5,5.32,17.81,18.75,31.92,35.9,39,19.06,7.85,40.7,5.47,58.4-4.77,34.28-19.85,49.11-67.19,23.24-99.86-13.57-17.12-35.92-27.4-57.74-23.71-2,.34,1,3.55,1.45,3.95,1.44,1.32,3.71,2.87,5.77,2.53Z"/><path class="cls-1" d="M348.43,320.24c-.44-6.48-1.75-13.94-.77-20.38L346,302q-5.82,1.08-2.79,1.29l2.36.31,4.72.61,9.45,1.22a8.38,8.38,0,0,0,6.61-2.51c1.33-1.54.84-2.92-1.21-3.18L351.78,298c-3.78-.49-7.45-1.12-10.87,1.06s-2.87,5.09-2.73,8.89q.29,7.25.78,14.48c.26,3.83,9.68.88,9.47-2.22Z"/><path class="cls-1" d="M268.57,243.46a48.81,48.81,0,0,1,28,3.07c9.2,4.09,16.5,13.38,20.84,22.24,8.53,17.42,7.5,38.59-.92,55.84a74,74,0,0,1-38.14,35.45c-18.69,7.65-43.51,7.76-57.84-8.29s-16-40-11.51-60.28c.38-1.69-8.73-4.86-8.72-4.89-4.73,21.33-2.5,46.55,13.6,62.77,15.07,15.18,37.91,23.42,59.07,19.7,44.8-7.88,76.53-62.43,49-102.69-12.89-18.88-38.83-31.82-61.64-27.92-.81.14,2.44,2.2,2.69,2.35,1.17.71,4,2.91,5.56,2.65Z"/><path class="cls-1" d="M194,298.58c4.3-4.37,8.76-10.06,13.91-13.41l-6.7,1.62c2.07.59,4.67,6,5.77,7.58l4.92,7.22c2,3,11-1.13,9.35-3.55-2.92-4.28-5.81-8.57-8.74-12.83-1.84-2.66-3.19-4.27-6.67-3.83s-6.18,3.29-8.65,5.65q-5.6,5.34-11,10.87c-1.51,1.54-.62,2.83,1.21,3.19,2.16.42,5.13-1,6.61-2.51Z"/><path class="cls-1" d="M124.29,201.2c21.25-3.66,41.91,8.69,51.64,27.46,10.69,20.63,7.39,46.46-5.91,65.11-12.76,17.91-34.67,30.67-57.09,28.58-20.15-1.88-38.64-16.94-43.5-36.75-5.59-22.73-2.5-50,15.58-66.25,1.77-1.59-.79-3.08-2.15-3.4a7.77,7.77,0,0,0-6.71,1.64c-18.54,16.71-22.13,44.18-17,67.64,5,22.53,25.07,38.77,47.48,42,50.89,7.27,101-44.61,81.32-95.16-9.91-25.44-37.36-40.7-64.2-36.08-1.51.26-4.93.94-4.71,3.13.21,2,3.82,2.36,5.24,2.11Z"/><path class="cls-1" d="M66.13,218.06c3.22-.28,6.43-.53,9.65-.75,1.41-.09,7.44-1.09,8.15-.19.86,1.1-.61,6.7-.77,8.17l-1,9.46c-.4,3.54,9.11,1,9.47-2.22L93,219.91c.24-2.17,1.64-6.49-.57-8.14-2.37-1.75-7.51-.5-10.17-.34q-6.43.39-12.86.95c-1.9.16-5.33,1.22-6.09,3.23s1.08,2.6,2.84,2.45Z"/></g></svg>