<svg xmlns="http://www.w3.org/2000/svg" viewBox="0 0 191 136"><defs><style>.cls-1{fill:#fff;}.cls-2{fill:#9adbf3;}.cls-3{fill:#626768;}.cls-4{fill:none;}.cls-5{fill:#465777;}</style></defs><title>kombucha</title><g id="Layer_2" data-name="Layer 2"><path class="cls-1" d="M154.9,9.54C101.43,1.69,54.4,1.79.38.43,9.16,7.38,11,9.61,19.82,16.56c2.87,2.27,5.79,4.6,7.75,7.68,2.73,4.29,3.32,9.56,3.65,14.63A205,205,0,0,1,28,90.8c-2.87,14.92-5.81,34.18,11.11,39.91A26,26,0,0,0,47.35,132l96.2.42a4.25,4.25,0,0,0,5.16-4.16q3.69-14.88,7.37-29.77c1.91-7.73,3.83-15.57,3.68-23.53-.15-7.54-2.17-15-1.67-22.55,1-15,11.83-29.7,7.06-44l-14.68.44,11.28,2.5"/><path class="cls-1" d="M163.5,38.34c8.72-1.61,19.8-2.36,22.93,7.81a15.75,15.75,0,0,1-.36,9.9L171.44,96.92a14.77,14.77,0,0,1-2.52,5c-2.92,3.28-7.95,3.29-12.33,3-1.87-.1-4.17-.52-4.74-2.3a4,4,0,0,1,.09-2.23A13.49,13.49,0,0,1,161,91.11c2.73-.8,5.78-.74,8.17-2.28a12.7,12.7,0,0,0,4-4.86,60.33,60.33,0,0,0,7.18-25.3,10.27,10.27,0,0,0-2-6.88c-4.48-5.85-12.14-.53-17.4-3.61l-.56-7a5,5,0,0,1,.6-3.52c.76-1,2.64-1,2.94.22"/><path class="cls-2" d="M42.26,24.79q52-1.39,104,0a712.6,712.6,0,0,1-5.42,84.75c-.5,4-1.49,8.65-5.15,10.34a12.2,12.2,0,0,1-5.11.74l-85.59,0a10.33,10.33,0,0,1-5.26-1c-3.72-2.19-3.21-7.63-2.26-11.85,6.15-27.48,9.74-56.3,3.08-83.66"/><path class="cls-2" d="M42.26,27.29q52-1.37,104,0l-2.5-2.5c-.11,18.78-.9,37.54-2.47,56.25-.77,9.29-1.62,18.62-2.88,27.86a24,24,0,0,1-1.13,5.37c-1.28,3.3-4.56,3.83-7.69,3.84-5,0-10,0-14.93,0l-55.74,0c-4.61,0-9.33.28-13.93,0-3.13-.2-5-.69-5.61-4-.42-2.15.25-4.47.7-6.57,1.81-8.41,3.45-16.84,4.61-25.37C47.34,62.63,47.49,42.8,43,23.5c-.74-3.13-5.56-1.81-4.82,1.33,4.93,21,4.06,42.68.56,63.84-.82,5-1.78,9.9-2.84,14.82-.76,3.57-1.88,7.32-1.51,11,.78,7.85,7,8.6,13.62,8.61l64.7,0c5.31,0,10.62,0,15.92,0,3.73,0,7.55.12,10.46-2.56,5.5-5.06,4.93-16,5.65-22.79a723,723,0,0,0,4.06-73,2.54,2.54,0,0,0-2.5-2.5q-52-1.41-104,0c-3.21.09-3.22,5.09,0,5Z"/><path class="cls-3" d="M48.31,33.71l23.87-.51c.57,0,3.25-1.12,1.9-1.1l-23.87.51c-.57,0-3.25,1.13-1.9,1.1Z"/><path class="cls-3" d="M50,54.38a162.35,162.35,0,0,0,20.79-1.46c1.34-.18,2.46-1.74.44-1.46a156.52,156.52,0,0,1-20.06,1.41c-1,0-3.11,1.52-1.17,1.51Z"/><path class="cls-3" d="M49.54,74.83l20.22-.45c1,0,3.11-1.53,1.17-1.48l-20.22.44c-1,0-3.11,1.53-1.17,1.49Z"/><path class="cls-3" d="M44,97.85a221.33,221.33,0,0,1,22.75-.19c.59,0,3.28-1.07,1.89-1.13a224.91,224.91,0,0,0-23.37.23c-.73,0-3.16,1.21-1.27,1.09Z"/><path class="cls-3" d="M41.81,113.89l21.3-1.26c.88-.06,3.12-1.47,1.2-1.36L43,112.53c-.88.06-3.12,1.47-1.2,1.36Z"/><rect class="cls-4" x="128.55" y="94.8" width="51.2" height="48.79" transform="translate(-2.54 3.36) rotate(-1.24)"/><path class="cls-5" d="M146.19,105.66l0,0-.06,0-.12,0a.25.25,0,0,0-.23.14l0,0-.07.1a.3.3,0,0,0,.08.27.36.36,0,0,0,.26.13.3.3,0,0,0,.25-.16v-.14a.33.33,0,0,0,0-.2Z"/><path class="cls-5" d="M150.81,114.08l.06,0h.06a.45.45,0,0,0,.41-.29v-.15l-.06-.1-.17-.07H151v0l-.09,0-.13,0-.1.14a.45.45,0,0,0,.11.36Z"/><path class="cls-5" d="M151.31,120.4h-.09l-.12,0-.07.08,0,.11a.59.59,0,0,0,.14.31l.11.1.13,0,.14,0a.32.32,0,0,0,0-.44h0l0-.07-.07-.08Z"/><path class="cls-5" d="M131.18,118.73a.29.29,0,0,0-.29.23v.15l.05.12.14.08h0a.26.26,0,0,0,.26-.19l0-.15,0-.13Z"/><path class="cls-5" d="M163.05,124.41a.27.27,0,0,0,0-.25l-.06-.1-.09-.06h-.06l-.1,0h-.1l-.1,0a.27.27,0,0,0,0,.34h0l0,.08.09.08.13,0A.34.34,0,0,0,163.05,124.41Z"/><path class="cls-5" d="M151.56,122.3h0a.51.51,0,0,0,.32-.29v-.15l-.05-.11-.13-.1,0-.08-.06-.06-.09,0h-.11a.3.3,0,0,0-.2-.06h0l-.05,0a.34.34,0,0,0-.18,0,.24.24,0,0,0-.22.13v.11a.3.3,0,0,0,0,.26l.07.08.08,0,.1,0h.15v.06l.1.09h.06a.43.43,0,0,0,.22.11Z"/><path class="cls-5" d="M138.51,110.93l-.08,0a.28.28,0,0,0-.28.18h0a.37.37,0,0,0-.07.28l.05.1.07.06.1,0h0a.29.29,0,0,0,.22-.1.3.3,0,0,0,0-.08.3.3,0,0,0,.1-.34l-.06-.09Z"/><path class="cls-5" d="M137.23,104.12a.21.21,0,0,0-.1-.06H137l-.12.06a.33.33,0,0,0-.15.38l.06.08.08.06.12,0a.49.49,0,0,0,.19,0,.3.3,0,0,0,.18-.06l.06-.18v0h0a.27.27,0,0,0-.06-.24A.21.21,0,0,0,137.23,104.12Z"/><path class="cls-5" d="M136.45,130.47l-.12,0-.08.07h0a.33.33,0,0,0-.16.39l.11.11.17,0h0a.38.38,0,0,0,.16,0,.31.31,0,0,0,.13-.06l.05-.08,0-.07v-.09A.38.38,0,0,0,136.45,130.47Z"/><path class="cls-5" d="M135.83,134a.27.27,0,0,0-.1-.13.18.18,0,0,0-.13,0,.23.23,0,0,0-.19-.09h-.06l-.08,0,0,0-.06.08a.35.35,0,0,0-.12.24.42.42,0,0,0,.12.31.48.48,0,0,0,.34.14.43.43,0,0,0,.41-.38l0-.11Z"/><path class="cls-5" d="M136,123.41h0l.1-.05.07-.07,0-.11v-.06l0-.1-.08-.09a.64.64,0,0,0-.12-.06l-.15,0-.06.06h0a.24.24,0,0,0,.1.44h0Z"/><path class="cls-5" d="M144.41,114.56h0a.38.38,0,0,0,.17,0,.19.19,0,0,0,.11-.11h0a.26.26,0,0,0,.26-.21l0-.13-.05,0a.28.28,0,0,0,0-.11v0l0-.12-.16-.11,0,.16h0l0-.17-.17,0-.15.06a.35.35,0,0,0-.23.16l0,0,0,.13a.3.3,0,0,0,0,.18v.16l.07.12a.25.25,0,0,0,.24.2A.21.21,0,0,0,144.41,114.56Z"/><path class="cls-5" d="M135.11,112.71l.17,0,.07,0,.06-.06,0-.08a.36.36,0,0,0-.21-.41l-.11,0H135l-.1,0a.46.46,0,0,0-.08.13l0,0,0,.13A.33.33,0,0,0,135.11,112.71Z"/><path class="cls-5" d="M146.53,122.14l0,0a.25.25,0,0,0-.14-.13l0,0-.05-.06-.06,0-.11,0a.38.38,0,0,0-.19.06h0l-.09,0-.09.06a.57.57,0,0,0,.17.74l.17,0h.14l.07,0a.23.23,0,0,0,.11-.11l.11-.1a.37.37,0,0,0,.06-.29Z"/><path class="cls-5" d="M145.05,96.73l-.07,0a.3.3,0,0,0-.26-.19h-.13l-.09,0-.07.06,0,0-.05,0-.07.08,0,.13a.24.24,0,0,1,0-.09.37.37,0,0,0-.1.39l0,.05a.71.71,0,0,0,.33.27h.1l.08,0h.06l.11-.05.07-.08.05-.11a.18.18,0,0,1,0-.12l0-.16Z"/><path class="cls-5" d="M144.94,130.82l-.11.05-.07.08,0,.12v0a.44.44,0,0,0,0,.33l0,.07a.27.27,0,0,0,.22.09.29.29,0,0,0,.21-.09v0l.1,0,.08-.17A.39.39,0,0,0,144.94,130.82Z"/><path class="cls-5" d="M149.09,133.8H149l-.1,0-.09.08a.46.46,0,0,0,0,.49h.06v0a.36.36,0,0,0,.28.15h0l.11-.07.05-.07a.28.28,0,0,0,.13-.23l0-.08A.69.69,0,0,0,149.09,133.8Z"/><path class="cls-5" d="M146.47,124.83a.15.15,0,0,0-.06,0h0a.33.33,0,0,0-.14,0l-.11,0-.06,0,0,.05,0,.09a.42.42,0,0,0,0,.34.27.27,0,0,0,.21.13h.08l.06,0,.08-.05c.06,0,.19-.13.19-.28a.3.3,0,0,0-.12-.24Z"/><path class="cls-5" d="M139.93,127.9l-.07-.05-.09,0h-.09a.46.46,0,0,0-.33.16l0,.1a.39.39,0,0,0,.2.4h.11l.09,0,.08-.05A.33.33,0,0,0,140,128Z"/><path class="cls-5" d="M142.72,118.36l0,0a.26.26,0,0,0-.16-.09h-.08l-.06,0-.06,0-.05.06h0l-.09.07,0,.13a.27.27,0,0,0,.27.29h0a.3.3,0,0,0,.16.05h0l.13-.11,0-.15a.25.25,0,0,0,0-.25Z"/><path class="cls-5" d="M142.08,110.25a.26.26,0,0,0,.08-.26.24.24,0,0,0-.17-.18l-.14,0-.09.07,0,0-.06,0a.3.3,0,0,0-.14.26.27.27,0,0,0,.15.22h.16l.1-.07Z"/><path class="cls-5" d="M128.8,105.18l-.14-.09h-.16l-.13.08-.07.11a.32.32,0,0,0-.05.24l0,.08.06.06.09,0h.06a.24.24,0,0,0,.14,0h0l.07,0,.09-.07.06-.15h0l0-.11Z"/><path class="cls-5" d="M130.67,131.5a.28.28,0,0,0-.24-.13l-.09,0-.07,0-.07.08a.47.47,0,0,0-.14.18l0,.14.07.1.13.07h.06c.39,0,.45-.23.45-.36l-.06-.12Z"/><path class="cls-5" d="M178.69,111.89h.07l.1,0,.06-.07,0-.09a.3.3,0,0,0-.07-.25.34.34,0,0,0-.29-.09h0l-.08,0-.06.06-.05.07a.31.31,0,0,0,0,.28A.32.32,0,0,0,178.69,111.89Z"/><path class="cls-5" d="M168.54,116.92l-.1,0h-.07l-.1,0-.08.09a.16.16,0,0,0-.06.12l0,.15.1.08.11,0a.3.3,0,0,0,.24-.11.27.27,0,0,0,0-.23l0-.09Z"/><path class="cls-5" d="M167.89,112.4a.39.39,0,0,0-.28-.1.3.3,0,0,0-.33.3v0a.3.3,0,0,0,.17.28l.09,0a.31.31,0,0,0,.13,0l.11,0,.11-.13a.31.31,0,0,0,0-.1v-.08l0-.08Z"/><path class="cls-5" d="M170.3,123.46l-.05,0-.07,0h-.07a.38.38,0,0,0-.32.16.42.42,0,0,0,0,.41l.05.07.07,0,.12,0a.64.64,0,0,0,.19.05l.08,0,.07,0,.06-.07a.47.47,0,0,0-.05-.54Z"/><path class="cls-5" d="M170.39,119.15h-.09l-.1,0-.06.07,0,.11v.16l0,.09.06.07.1.06a1.05,1.05,0,0,0,.21,0,.35.35,0,0,0,.28-.15l0-.09a.36.36,0,0,0-.09-.29A.44.44,0,0,0,170.39,119.15Z"/><path class="cls-5" d="M165.62,133.34l-.1,0-.08.06-.05.1a.32.32,0,0,0,.08.28.28.28,0,0,0,.25.1h.06l.1-.06.06-.08,0-.1A.35.35,0,0,0,165.62,133.34Z"/><path class="cls-5" d="M166.16,105.11l-.08,0,.06-.08-.07-.07-.13,0a.4.4,0,0,0-.35.35l0,.11,0,.08.09.06h.09a.27.27,0,0,0,.19-.08.29.29,0,0,0,.19-.21l0-.11Z"/><path class="cls-5" d="M168.09,124.94l-.07,0-.08,0h-.1l-.11,0-.08.09,0,.13c0,.23.14.29.21.3h.1l.1-.05a.29.29,0,0,0,.12-.37Z"/><path class="cls-5" d="M170.37,105.76l-.16,0-.07,0,0,.07,0,.09v.1l0,.1.06.07.14,0h.2l.08,0,.06-.07,0-.09a.34.34,0,0,0-.08-.26A.32.32,0,0,0,170.37,105.76Z"/><path class="cls-5" d="M173.69,111l-.14,0-.06.06a.3.3,0,0,0-.13.25l0,.07,0,.07,0,0a.32.32,0,0,0,.16,0,.29.29,0,0,0,.28-.28A.28.28,0,0,0,173.69,111Z"/><path class="cls-5" d="M179,118.59l.07-.13v-.16l0-.11-.07-.07-.14,0h-.06l-.05,0,0,0a.34.34,0,0,0-.09.27.33.33,0,0,0,.19.25h.15Z"/><path class="cls-5" d="M173.69,135.94l0,0h0a.29.29,0,0,0-.22-.23h0l0,0h-.06a.42.42,0,0,0-.32.14.46.46,0,0,0-.09.38l.07.1.08.06a.23.23,0,0,0,.21.1.25.25,0,0,0,.12,0h.05a.25.25,0,0,0,.24-.22v-.23Z"/><path class="cls-5" d="M180,132.71a.27.27,0,0,0-.18-.1.31.31,0,0,0-.22-.09.68.68,0,0,0-.38.21l0,.06,0,.07a.47.47,0,0,0,.1.41.49.49,0,0,0,.37.14h.11l.09,0,.06-.06,0-.08a.15.15,0,0,1,0-.06A.36.36,0,0,0,180,132.71Z"/><path class="cls-5" d="M161.88,135.2a.45.45,0,0,0,.25-.09l0-.06,0-.06v-.07c0-.35-.23-.38-.32-.38h-.08l-.1.07-.06.09v.09a.34.34,0,0,0,0,.18l0,.1.07.06.09.05Z"/><path class="cls-5" d="M171.74,131l-.06,0h-.1a.32.32,0,0,0-.24.11.19.19,0,0,0-.09.09l0,.08v.09l0,0h0a.29.29,0,0,0,.21.29h.06a.37.37,0,0,0,.27-.64Z"/><path class="cls-5" d="M175.38,123a.25.25,0,0,0-.21-.18.26.26,0,0,0-.35,0l0,.06,0,.05,0,.1a.64.64,0,0,0-.05.19l0,.1.06.08.06.06.07,0,.08,0a.47.47,0,0,0,.46-.38l0-.14Z"/><path class="cls-5" d="M172.9,100.74h0a.28.28,0,0,0,.15,0h.1a.23.23,0,0,0,.22-.16v-.15l0-.12a.85.85,0,0,0,0-.17l-.08-.09-.1,0H173a.39.39,0,0,0-.32.48A.26.26,0,0,0,172.9,100.74Z"/><path class="cls-5" d="M173.6,127.86l-.15.17v.05h0v.13l0,0v.05l.16.15a.28.28,0,0,0,.28-.29.27.27,0,0,0-.09-.21A.31.31,0,0,0,173.6,127.86Z"/><path class="cls-5" d="M156.39,131.26l.07-.12v0h0a.39.39,0,0,0,.05-.25.23.23,0,0,0-.1-.17l-.08-.09-.12-.06a.41.41,0,0,0-.18.06h0l-.07,0h0l-.08.07-.05.09a.43.43,0,0,0,.42.49A.24.24,0,0,0,156.39,131.26Z"/><path class="cls-5" d="M157,118.36l-.05,0,0,0,0,0-.07,0h-.26l-.12,0a.43.43,0,0,0-.09.16l0,0v.21a.38.38,0,0,0,.13.22l0,0a.26.26,0,0,0,.21.11.26.26,0,0,0,.21-.12l0,0,.06-.08,0-.07,0,0a.28.28,0,0,0,0-.2Z"/><path class="cls-5" d="M157.08,126.44h0l0,0-.08-.06-.1,0a.33.33,0,0,0-.23-.1.25.25,0,0,0-.17.08h0l-.11.09s0,0,0,0a.34.34,0,0,0-.11.17v.13l0,0V127l.05.08.12.09a.73.73,0,0,0,.36.08h.06l.08,0,.07,0,0-.08s0,0,0-.07a.22.22,0,0,0,.07-.06h0l0,0,.06-.07,0-.1A.38.38,0,0,0,157.08,126.44Z"/><path class="cls-5" d="M154.82,110.75h0v0h-.21l-.1,0-.1.11a.45.45,0,0,0-.06.27h0a.23.23,0,0,0,.12.21l0,0,.07.07a.38.38,0,0,0,.18,0h.17l.09,0,.07-.06.06-.08a.66.66,0,0,0-.07-.47Z"/><path class="cls-5" d="M159.2,116a.21.21,0,0,0-.12-.07.29.29,0,0,0-.12-.07.32.32,0,0,0-.14,0,.68.68,0,0,0-.43.17l0,.07,0,.06v.08a.6.6,0,0,0,.65.46H159l.05,0,.06,0a.23.23,0,0,0,.06-.12.27.27,0,0,0,.08-.16l0-.09A.29.29,0,0,0,159.2,116Z"/><path class="cls-5" d="M154.27,103.08h.09l.13,0,.09-.06,0-.07,0-.1v-.16l0-.11-.07-.07-.11,0h-.13l-.07,0-.06,0,0,0a.41.41,0,0,0-.07.33l0,.08.06.06Z"/><path class="cls-5" d="M153.3,118.35l-.07-.08h0a.29.29,0,0,0-.14-.16.42.42,0,0,0-.19,0h-.18l-.1,0-.06.07,0,.09a.4.4,0,0,0,.08.29l.09.09.11,0h0a.4.4,0,0,0,.22.05h.07l.1-.06.06-.08,0-.11h0Z"/><path class="cls-5" d="M162.51,103.8a.21.21,0,0,0,.17.12l.13,0,0,0a.3.3,0,0,0,.18-.14.24.24,0,0,0,0-.16.35.35,0,0,0-.36-.33.59.59,0,0,0-.19,0l-.05,0,0,0,0,.06A.31.31,0,0,0,162.51,103.8Z"/><path class="cls-5" d="M160,94.79l-.06-.05-.07,0a.85.85,0,0,0-.23,0,.41.41,0,0,0-.31.14.43.43,0,0,0-.08.34l.07.11.08.06.09,0,0,0,.1,0h.1l.13-.06a.43.43,0,0,0,.18-.49Z"/><path class="cls-5" d="M162.63,100.22v0l.06.07.08.06h.1a.4.4,0,0,0,.37-.27.27.27,0,0,0-.1-.29h0l0,0-.13-.05a.46.46,0,0,0-.35.15l0,.07v.15A.21.21,0,0,0,162.63,100.22Z"/><path class="cls-5" d="M152.21,128.88l-.05-.06-.06,0a.47.47,0,0,0-.17,0l-.11,0,0,0a.34.34,0,0,0-.14.3.41.41,0,0,0,.25.31H152l.1-.05.08-.1a.37.37,0,0,0,.06-.29Z"/><path class="cls-5" d="M163.57,118.93l-.06,0h-.06c-.08,0-.18,0-.24.24a.44.44,0,0,0,.08.33l.05,0,.06,0h.06a.24.24,0,0,0,.23-.2s.05-.25-.06-.37Z"/><path class="cls-5" d="M159.1,121.65l.13-.11,0-.09-.08-.07-.1,0h-.19l-.07,0-.06,0-.05,0a.29.29,0,0,0,0,.39.25.25,0,0,0,.25.23.2.2,0,0,0,.11,0h0l.1,0,.1-.08a.38.38,0,0,0,0-.34Z"/><path class="cls-5" d="M164.31,120.39h0a.38.38,0,0,0-.19,0H164l-.08,0-.08.06,0,0a.63.63,0,0,0-.06.46l0,.08.08,0,.08.09.06,0h.07l.1,0,0,0a.39.39,0,0,0,.34-.22l.07-.06,0-.08,0-.08A.42.42,0,0,0,164.31,120.39Z"/><path class="cls-5" d="M161.16,128.6a.24.24,0,0,0-.23.2.33.33,0,0,0,.22.35l.16,0,.1-.09.05-.15C161.39,128.62,161.23,128.6,161.16,128.6Z"/><path class="cls-5" d="M163.31,125.69l-.13-.08a.54.54,0,0,0-.2,0,.25.25,0,0,0-.25.16v.09a.3.3,0,0,0,0,.26l0,0,.09.06a.43.43,0,0,0,.22.07h0l.11-.06.07-.09,0-.09a.59.59,0,0,0,0-.13l0-.12Z"/><path class="cls-5" d="M161.23,108.1l.09,0h.05a.28.28,0,0,0,.14,0l.16,0,.07,0,0-.07,0-.11a.33.33,0,0,0,.05-.24.2.2,0,0,0-.08-.14.24.24,0,0,0-.23-.18l-.09,0h-.11a.3.3,0,0,0-.27.13v.2a.49.49,0,0,0,.08.38Z"/><path class="cls-5" d="M162.25,125.53l-.08-.08-.09,0H162a.43.43,0,0,0-.17-.05l-.1,0-.07,0-.07.12a.37.37,0,0,0,0,.31l.05.07,0,0,.13.05a.53.53,0,0,0,.19,0,.34.34,0,0,0,.29-.18v-.15l0,0h0A.38.38,0,0,0,162.25,125.53Z"/><rect class="cls-4" x="137.25" y="69.9" width="48.17" height="50.55" transform="translate(-1.47 2.54) rotate(-0.9)"/><path class="cls-5" d="M174.74,87.4l0,0,0-.06a.25.25,0,0,0,0-.12.27.27,0,0,0-.13-.23l0,0-.1-.06a.3.3,0,0,0-.27.08.32.32,0,0,0-.12.25.29.29,0,0,0,.15.25h.14a.29.29,0,0,0,.19,0Z"/><path class="cls-5" d="M166.4,91.92l0,0V92a.49.49,0,0,0,.29.4h.15l.1-.06.07-.16v-.13h0l0-.09,0-.12-.14-.1a.48.48,0,0,0-.36.1Z"/><path class="cls-5" d="M160.16,92.37v-.09l0-.11L160,92.1l-.12,0a.56.56,0,0,0-.3.14l-.1.11,0,.12.05.14a.31.31,0,0,0,.44,0h0l.07,0,.08-.07Z"/><path class="cls-5" d="M161.93,72.5a.29.29,0,0,0-.23-.28h-.14l-.12.05-.09.14h0a.27.27,0,0,0,.19.26l.15,0,.13,0Z"/><path class="cls-5" d="M156.13,103.94a.27.27,0,0,0,.25,0l.1-.06.05-.09v0l0-.11v-.1l0-.1a.28.28,0,0,0-.33,0h0l-.08,0-.08.09,0,.13A.36.36,0,0,0,156.13,103.94Z"/><path class="cls-5" d="M158.29,92.61v0a.52.52,0,0,0,.29.32l.14,0,.11,0,.1-.13.08,0,.06-.06,0-.09a.28.28,0,0,0,0-.09v0a.36.36,0,0,0,0-.19h0l0-.06a.43.43,0,0,0,0-.17.24.24,0,0,0-.13-.22h-.11a.34.34,0,0,0-.26,0l-.08.07,0,.07,0,.1s0,.1,0,.15h-.06l-.09.1v.06a.36.36,0,0,0-.1.21Z"/><path class="cls-5" d="M169.58,79.79l0-.08a.28.28,0,0,0-.18-.28h0v0a.32.32,0,0,0-.28-.06l-.09,0-.06.07,0,.1v0a.26.26,0,0,0,.09.21l.09,0a.29.29,0,0,0,.33.1l.08-.07Z"/><path class="cls-5" d="M143.18,80l0-.06v0a.28.28,0,0,0-.22-.28l-.11,0-.1,0-.11.07a.37.37,0,0,0,0,.18.31.31,0,0,0,.51.23Z"/><path class="cls-5" d="M176.32,78.57a.28.28,0,0,0,.05-.11v-.1l-.05-.11a.31.31,0,0,0-.38-.15l-.08.06,0,.08,0,.12a.66.66,0,0,0,0,.18.41.41,0,0,0,.05.18l.19.06h0v0a.27.27,0,0,0,.24-.06A.21.21,0,0,0,176.32,78.57Z"/><path class="cls-5" d="M150.31,77.64l0-.12-.07-.08h0a.34.34,0,0,0-.39-.16l-.1.11,0,.17v0a.31.31,0,0,0,0,.17.16.16,0,0,0,.06.12l.07.05.07,0H150A.41.41,0,0,0,150.31,77.64Z"/><path class="cls-5" d="M146.78,77a.46.46,0,0,0,.14-.1.35.35,0,0,0,.05-.13.25.25,0,0,0,.09-.19v-.06l0-.08,0,0-.08,0a.31.31,0,0,0-.24-.12.38.38,0,0,0-.3.11.44.44,0,0,0-.14.34.4.4,0,0,0,.37.4l.11,0Z"/><path class="cls-5" d="M157.28,77.27v0l.06.1.07.06.1,0h.06l.1,0,.09-.08a.64.64,0,0,0,.06-.12l0-.15-.06,0,0,0a.25.25,0,0,0-.26-.11.22.22,0,0,0-.18.21v0A.2.2,0,0,0,157.28,77.27Z"/><path class="cls-5" d="M166,85.59v0a.38.38,0,0,0,0,.16.25.25,0,0,0,.12.11h0a.25.25,0,0,0,.2.26l.13,0,0,0,.11,0h0l.12,0,.1-.15-.15,0h0l.17,0,0-.17-.06-.15a.4.4,0,0,0-.16-.23l-.05,0-.12,0a.3.3,0,0,0-.18,0h-.16l-.12.07a.23.23,0,0,0-.2.23A.21.21,0,0,0,166,85.59Z"/><path class="cls-5" d="M167.85,76.42a.61.61,0,0,0,0,.17l0,.07.06,0,.07,0a.34.34,0,0,0,.41-.2l0-.1v-.1l0-.09a.21.21,0,0,0-.12-.08l0,0-.13,0A.32.32,0,0,0,167.85,76.42Z"/><path class="cls-5" d="M158.47,87.64l0,0a.23.23,0,0,0,.13-.14l0,0,.06,0,0-.06,0-.1a.38.38,0,0,0-.06-.19v0l0-.09-.06-.09a.57.57,0,0,0-.73.16l0,.17v0a.26.26,0,0,0,0,.09v0l0,.07a.19.19,0,0,0,.11.11l.1.11a.37.37,0,0,0,.28.06Z"/><path class="cls-5" d="M183.57,86.32l0-.06a.29.29,0,0,0,.19-.26v-.12l0-.1-.06-.06-.05,0,.05-.06-.07-.06-.13,0a.1.1,0,0,1,.08,0,.35.35,0,0,0-.38-.1l-.05,0a.71.71,0,0,0-.27.33V86l0,.08v.06l.05.11.07.07.12,0,.12,0,.15,0Z"/><path class="cls-5" d="M137.51,86.35l.07-.08a.53.53,0,0,0,0-.2.24.24,0,0,0-.07-.18.35.35,0,0,0-.24-.08l-.1,0-.07.07,0,.11v.16l0,.1.08.07.14,0,.08,0Z"/><path class="cls-5" d="M149.91,86l0-.11-.08-.07-.11,0h0a.4.4,0,0,0-.33,0l-.07,0a.3.3,0,0,0-.1.21.34.34,0,0,0,.1.21h0l0,.09.16.09A.4.4,0,0,0,149.91,86Z"/><path class="cls-5" d="M146.94,90.1V90l0-.1-.08-.09a.46.46,0,0,0-.48,0l0,.06h0a.36.36,0,0,0-.16.27v0l.06.11.07,0a.3.3,0,0,0,.23.12h.07A.65.65,0,0,0,146.94,90.1Z"/><path class="cls-5" d="M155.81,87.57l.05-.06v-.05a.23.23,0,0,0,0-.14l0-.11-.05-.06,0,0-.08,0a.41.41,0,0,0-.34,0,.28.28,0,0,0-.13.21v.07l0,.07,0,.07a.35.35,0,0,0,.28.19.27.27,0,0,0,.23-.11Z"/><path class="cls-5" d="M152.82,81.09l.05-.07,0-.09v-.09a.38.38,0,0,0-.15-.32l-.1,0a.4.4,0,0,0-.4.19v.11l0,.09.05.08a.33.33,0,0,0,.43.19Z"/><path class="cls-5" d="M162.23,83.9l0,0a.28.28,0,0,0,.09-.16v-.07l0-.06,0-.06-.06,0v0l-.07-.08-.13,0c-.21,0-.29.14-.29.26h0a.29.29,0,0,0,0,.16v0l.11.13.14,0a.25.25,0,0,0,.25,0Z"/><path class="cls-5" d="M170.24,83.32a.27.27,0,0,0,.26.08.24.24,0,0,0,.17-.17l0-.13-.07-.1,0,0,.05-.06a.3.3,0,0,0-.26-.14.27.27,0,0,0-.22.15v.16l.06.1Z"/><path class="cls-5" d="M175.32,70.23l.09-.14v-.15l-.08-.13-.11-.07a.29.29,0,0,0-.23,0l-.08,0-.06.06,0,.09v.05a.2.2,0,0,0,0,.14h0l0,.08.08.09.14.05v0l.11,0Z"/><path class="cls-5" d="M149.32,71.93a.28.28,0,0,0,.13-.24l0-.09-.05-.06-.08-.08a.46.46,0,0,0-.18-.13H149l-.1.07-.07.12v.07c0,.38.23.44.35.44l.13-.06Z"/><path class="cls-5" d="M168.41,119.45v.08l.05.09.06.06.09,0a.27.27,0,0,0,.24-.07.32.32,0,0,0,.1-.28v0l0-.08,0-.06-.07,0a.28.28,0,0,0-.27,0A.25.25,0,0,0,168.41,119.45Z"/><path class="cls-5" d="M163.5,109.4l0-.1v-.06l0-.1-.08-.09a.3.3,0,0,0-.12-.06l-.14.05-.09.09,0,.11a.34.34,0,0,0,.11.24.26.26,0,0,0,.23,0l.08,0Z"/><path class="cls-5" d="M168,108.79a.42.42,0,0,0,.09-.28.29.29,0,0,0-.29-.32h0a.29.29,0,0,0-.28.16l0,.09a.31.31,0,0,0,0,.13l0,.1.13.12.1,0h.08l.07,0Z"/><path class="cls-5" d="M157,111.1l0,0,0-.06a.22.22,0,0,0,0-.08.36.36,0,0,0-.16-.31.42.42,0,0,0-.4,0l-.07.06-.05.06,0,.12a.74.74,0,0,0-.05.19l0,.08,0,.07.06.06a.47.47,0,0,0,.54,0Z"/><path class="cls-5" d="M161.28,111.22v-.09l-.05-.1-.08-.06-.1,0h-.16l-.09,0-.07.06-.06.1a.94.94,0,0,0,0,.2.36.36,0,0,0,.15.28l.09,0a.39.39,0,0,0,.29-.09A.45.45,0,0,0,161.28,111.22Z"/><path class="cls-5" d="M140.57,110.83l0-.12-.09-.12a.32.32,0,0,0-.15-.09l-.14,0-.09.08,0,.07.12.09-.12-.08v.16l.07.11.16.07A.27.27,0,0,0,140.57,110.83Z"/><path class="cls-5" d="M147.3,106.43l0-.11-.06-.07-.09,0a.33.33,0,0,0-.28.07.3.3,0,0,0-.11.24v.07l.06.1.07.06.11,0A.34.34,0,0,0,147.3,106.43Z"/><path class="cls-5" d="M175.17,107.12l0-.08.07.06.07-.07,0-.13a.43.43,0,0,0-.35-.34l-.11,0-.08.06-.06.09v.08a.26.26,0,0,0,.08.19.26.26,0,0,0,.2.19l.11,0Z"/><path class="cls-5" d="M155.58,108.92l0-.07,0-.09v-.1l-.05-.11-.08-.07-.14,0a.27.27,0,0,0-.3.21l0,.1,0,.09a.29.29,0,0,0,.37.12Z"/><path class="cls-5" d="M141.08,92.2A.29.29,0,0,0,141,92l-.09,0h-.06c-.12,0-.31,0-.32.37l0,.06,0,0,.06.07.09.06a.32.32,0,0,0,.27-.06A.35.35,0,0,0,141.08,92.2Z"/><path class="cls-5" d="M174.5,111.28a.5.5,0,0,0,0-.16l-.06-.07-.07,0-.08,0h-.1l-.1,0-.07.07-.05.14a.19.19,0,0,1,0,.12v.07l.05.08.06.05.09,0a.32.32,0,0,0,.26-.08A.29.29,0,0,0,174.5,111.28Z"/><path class="cls-5" d="M169.29,114.52l0-.14-.07,0a.28.28,0,0,0-.24-.13l-.07,0-.07,0-.05.06a.26.26,0,0,0,0,.15.29.29,0,0,0,.28.28A.28.28,0,0,0,169.29,114.52Z"/><path class="cls-5" d="M161.79,119.72l.13.08h.16l.1,0,.07-.08.05-.14,0,0,0,0,0-.05a.33.33,0,0,0-.27-.09.38.38,0,0,0-.25.18v.15Z"/><path class="cls-5" d="M144.68,114.38l0,0h0a.27.27,0,0,0,.22-.22h0l0-.06V114a.38.38,0,0,0-.13-.31.44.44,0,0,0-.37-.09l-.11.06-.06.08a.25.25,0,0,0-.1.21.36.36,0,0,0,0,.11h0a.06.06,0,0,0,0,0,.27.27,0,0,0,.22.25l.09,0Z"/><path class="cls-5" d="M147.84,120.6a.27.27,0,0,0,.1-.17.29.29,0,0,0,.09-.22.72.72,0,0,0-.21-.38l-.06,0-.07,0a.43.43,0,0,0-.54.46s0,.08,0,.12l0,.08.06.06.08,0,0,0C147.47,120.61,147.66,120.75,147.84,120.6Z"/><path class="cls-5" d="M145.49,102.72a.41.41,0,0,0,.08.24l.06.05.06,0h.07c.34,0,.38-.22.37-.32v-.08l-.06-.09-.09-.06-.09,0a.34.34,0,0,0-.17,0l-.1,0-.07.06,0,.09Z"/><path class="cls-5" d="M149.59,112.48l0-.06v-.07h0v0a.28.28,0,0,0-.1-.23.3.3,0,0,0-.09-.1h-.16l0,0h0a.26.26,0,0,0-.28.2v.05a.39.39,0,0,0,.24.37.36.36,0,0,0,.4-.09Z"/><path class="cls-5" d="M157.41,116.12a.25.25,0,0,0,.18-.21.25.25,0,0,0,0-.16.23.23,0,0,0-.09-.18l-.05,0-.06,0-.09,0a.64.64,0,0,0-.19,0l-.1,0-.08.06,0,0-.05.07,0,.09a.47.47,0,0,0,.37.45l.14,0Z"/><path class="cls-5" d="M179.45,113.8h0a.33.33,0,0,0,0,.15h0l0,0v.06a.23.23,0,0,0,.16.22h.15l.12,0,.17,0,.09-.08,0-.09v-.17a.39.39,0,0,0-.48-.31A.24.24,0,0,0,179.45,113.8Z"/><path class="cls-5" d="M152.66,114.33l-.16-.14h-.19l0,0h-.05l-.14.15a.27.27,0,0,0,.28.28.29.29,0,0,0,.21-.09A.31.31,0,0,0,152.66,114.33Z"/><path class="cls-5" d="M149.41,97.32l.11.07h0a.27.27,0,0,0,.24,0,.21.21,0,0,0,.17-.1l.09-.07.06-.12a.44.44,0,0,0-.05-.18h0l0-.07h0v0l-.06-.08-.1-.06a.37.37,0,0,0-.33.1.38.38,0,0,0-.15.32A.23.23,0,0,0,149.41,97.32Z"/><path class="cls-5" d="M162.14,98l0,0,0,0,.05,0,0-.06v-.15h0v-.1l0-.12a.26.26,0,0,0-.16-.09l-.06,0h-.2a.3.3,0,0,0-.22.13l0,0a.24.24,0,0,0-.11.2.26.26,0,0,0,.12.21l0,0,.08.06.07.05,0,0a.26.26,0,0,0,.2,0Z"/><path class="cls-5" d="M154.16,98h0l.05,0,.06-.08,0-.1a.32.32,0,0,0,.1-.22.21.21,0,0,0-.08-.17h0l-.08-.11-.05,0a.34.34,0,0,0-.17-.11h-.13l0,0h-.22l-.08,0-.09.11a.75.75,0,0,0-.09.36v.06l0,.08.05.06.08,0,.07,0,.06.07h0l0,0,.07.05.09,0A.36.36,0,0,0,154.16,98Z"/><path class="cls-5" d="M141.62,97.58l.07-.09a.34.34,0,0,0,0-.1.3.3,0,0,0-.28-.31.28.28,0,0,0-.29.26l0,.1,0,.07.1.08.11,0h.11Z"/><path class="cls-5" d="M169.67,95.9v-.05h0s0-.08,0-.09v-.12l0-.1-.11-.1a.4.4,0,0,0-.26-.07h0a.22.22,0,0,0-.2.11l0,0-.07.07a.65.65,0,0,0,0,.18.24.24,0,0,0,0,.09s0,0,0,.08l0,.09.05.07.08,0a.61.61,0,0,0,.47-.06Z"/><path class="cls-5" d="M164.48,100.18a.19.19,0,0,0,.07-.11.47.47,0,0,0,.07-.12.61.61,0,0,0,0-.14.65.65,0,0,0-.17-.42l-.06,0-.07,0h-.07a.58.58,0,0,0-.46.63V100l0,.06,0,0a.34.34,0,0,0,.12.06.26.26,0,0,0,.16.09l.09,0A.26.26,0,0,0,164.48,100.18Z"/><path class="cls-5" d="M177.25,95.39a.3.3,0,0,0,0,.1.53.53,0,0,0,0,.13l.05.08.07,0,.1,0h.16l.1,0,.07-.08.05-.11v-.19l0-.06-.05,0a.4.4,0,0,0-.32-.07l-.08,0-.06.06Z"/><path class="cls-5" d="M162.17,94.35l.09-.07h0a.29.29,0,0,0,.16-.14.58.58,0,0,0,0-.19.52.52,0,0,0,0-.11s0,0,0-.06l0-.1-.06-.06-.09,0a.41.41,0,0,0-.29.07l-.09.1,0,.1v.06a.34.34,0,0,0,0,.21v.07l.06.09.07.06.12,0v0Z"/><path class="cls-5" d="M141.4,103.41a.27.27,0,0,0,.15-.1.31.31,0,0,0,0-.1.21.21,0,0,0,.07-.17.22.22,0,0,0,0-.13l0-.06-.05,0a.4.4,0,0,0-.35-.14l-.08,0-.06,0-.05.07a1.09,1.09,0,0,0-.05.26.41.41,0,0,0,.22.36h.14l.07,0Z"/><path class="cls-5" d="M176.48,103.52a.25.25,0,0,0-.11.18l0,.13,0,0a.3.3,0,0,0,.14.18.24.24,0,0,0,.16,0,.34.34,0,0,0,.32-.36.39.39,0,0,0,0-.18l0-.05-.05,0-.06,0A.32.32,0,0,0,176.48,103.52Z"/><path class="cls-5" d="M185.4,101.07l0,0,0-.08a.82.82,0,0,0,0-.22.38.38,0,0,0-.13-.31.42.42,0,0,0-.34-.08l-.1.06-.06.09,0,.08,0,0,0,.1v.1l.07.13a.42.42,0,0,0,.48.19Z"/><path class="cls-5" d="M180,103.67h0l-.07,0,0,.08a.36.36,0,0,0,0,.1.39.39,0,0,0,.27.37.26.26,0,0,0,.28-.1v0l0,0,.05-.12a.49.49,0,0,0-.15-.35l-.07,0h-.16A.25.25,0,0,0,180,103.67Z"/><path class="cls-5" d="M151.78,93.21l.06,0,0-.06a.47.47,0,0,0,0-.17.24.24,0,0,0,0-.1l0-.06a.31.31,0,0,0-.29-.13.38.38,0,0,0-.31.24V93l0,.1.1.08a.34.34,0,0,0,.28.06Z"/><path class="cls-5" d="M161.55,104.49l0-.06v-.06c0-.08,0-.18-.24-.24s-.3.05-.32.07l0,0,0,.06v.06a.24.24,0,0,0,.2.23.48.48,0,0,0,.36-.06Z"/><path class="cls-5" d="M158.88,100.06l.11.12.09-.05.06-.07,0-.1v-.19l0-.07,0-.06,0,0a.29.29,0,0,0-.38,0c-.21,0-.23.18-.23.24a.27.27,0,0,0,0,.12h0l0,.1.08.1a.41.41,0,0,0,.33,0Z"/><path class="cls-5" d="M160.1,105.21h0a.38.38,0,0,0,0-.19v-.08l0-.08,0-.08-.05,0a.63.63,0,0,0-.46-.06l-.07,0-.06.08-.08.07,0,.07V105a.3.3,0,0,0,0,.1l0,.05a.38.38,0,0,0,.21.34l.06.07.07,0,.09,0A.44.44,0,0,0,160.1,105.21Z"/><path class="cls-5" d="M152,102.05a.24.24,0,0,0-.2-.23.32.32,0,0,0-.34.22l0,.16.08.09.15,0C152,102.27,152,102.12,152,102.05Z"/><path class="cls-5" d="M154.87,104.19l.08-.13a.54.54,0,0,0,0-.2.25.25,0,0,0-.16-.25h-.09a.27.27,0,0,0-.26,0l0,0-.05.09a.3.3,0,0,0-.07.22h0l.06.12.08.06.09,0a.73.73,0,0,0,.12.05l.12,0Z"/><path class="cls-5" d="M172.25,102.24l0,.09v0a.43.43,0,0,0,0,.15.49.49,0,0,0,0,.15l.06.07.07.05.11,0a.35.35,0,0,0,.23,0,.23.23,0,0,0,.14-.08.22.22,0,0,0,.17-.22l0-.1a.31.31,0,0,0,0-.1.32.32,0,0,0-.13-.26l-.07,0h-.13a.46.46,0,0,0-.37.08Z"/><path class="cls-5" d="M155,103.14l.09-.08,0-.09v-.08a.35.35,0,0,0,.05-.18l0-.09-.06-.07-.12-.07a.39.39,0,0,0-.3,0l-.07.05,0,0-.05.12a.53.53,0,0,0-.05.2.34.34,0,0,0,.18.28h.15l0,0h0A.38.38,0,0,0,155,103.14Z"/><rect class="cls-4" x="138.54" y="46.91" width="49.18" height="46.87" transform="translate(82.63 228.7) rotate(-86.38)"/><path class="cls-5" d="M149.54,76.85l0,0,0,0a.27.27,0,0,0,0,.12.25.25,0,0,0,.11.23l0,0,.1.07a.28.28,0,0,0,.26-.05.35.35,0,0,0,.14-.24.29.29,0,0,0-.13-.25h-.13a.3.3,0,0,0-.19,0Z"/><path class="cls-5" d="M158,73.12l0-.06V73a.45.45,0,0,0-.25-.41h-.14l-.11.06-.08.15v.12h0l0,.09,0,.12.12.11a.43.43,0,0,0,.36-.08Z"/><path class="cls-5" d="M164.06,73.15v.09l0,.11.07.08.11,0a.58.58,0,0,0,.3-.12l.1-.1,0-.11,0-.15a.32.32,0,0,0-.43,0h0l-.07,0-.08.07Z"/><path class="cls-5" d="M160.82,92.29a.27.27,0,0,0,.2.29l.14,0,.12,0,.09-.13h0a.26.26,0,0,0-.16-.27l-.14-.05-.13,0Z"/><path class="cls-5" d="M168.86,62.24a.3.3,0,0,0-.25-.06l-.09.06-.07.08v0l0,.1v.09l0,.1a.26.26,0,0,0,.32.07h0l.08,0,.09-.07,0-.12A.33.33,0,0,0,168.86,62.24Z"/><path class="cls-5" d="M165.89,73.07v0a.54.54,0,0,0-.25-.33l-.14,0-.11,0-.11.11-.08,0-.06,0,0,.08a.29.29,0,0,0,0,.09v0a.24.24,0,0,0-.06.18h0l0,0a.34.34,0,0,0,0,.17.23.23,0,0,0,.11.23h.1a.31.31,0,0,0,.25.06l.08-.06.05-.07,0-.1v-.14h.06l.1-.1v0a.38.38,0,0,0,.12-.2Z"/><path class="cls-5" d="M154,84.63l0,.08a.29.29,0,0,0,.15.28h0a.4.4,0,0,0,.27.09l.09,0,.07-.06,0-.09v0a.33.33,0,0,0-.08-.22l-.08,0a.27.27,0,0,0-.31-.12l-.09.06Z"/><path class="cls-5" d="M179.58,86.46l0,.05v0a.27.27,0,0,0,.19.29l.11,0h.1l.1-.05a.26.26,0,0,0,.07-.18.29.29,0,0,0-.48-.26Z"/><path class="cls-5" d="M147.33,85.3a.21.21,0,0,0-.06.1v.09l0,.12a.3.3,0,0,0,.35.17l.08,0,.06-.07,0-.11a.38.38,0,0,0,.05-.17.31.31,0,0,0,0-.19l-.17-.07h0v0a.26.26,0,0,0-.23,0A.2.2,0,0,0,147.33,85.3Z"/><path class="cls-5" d="M172.49,88.2l0,.12.07.08h0a.31.31,0,0,0,.36.18l.11-.09.05-.16v0a.41.41,0,0,0,0-.16A.29.29,0,0,0,173,88L173,88l-.07,0h-.08A.37.37,0,0,0,172.49,88.2Z"/><path class="cls-5" d="M175.86,89.08a.29.29,0,0,0-.14.08.22.22,0,0,0-.06.13.2.2,0,0,0-.1.17v.06l0,.08,0,0,.07.06a.32.32,0,0,0,.22.14.44.44,0,0,0,.31-.09.47.47,0,0,0,.16-.31.41.41,0,0,0-.33-.43L176,89Z"/><path class="cls-5" d="M165.69,88v0l0-.1-.07-.07-.09,0h-.06l-.1,0-.09.07a.29.29,0,0,0-.07.11l0,.15,0,0,0,0a.26.26,0,0,0,.25.13.25.25,0,0,0,.19-.19v0A.2.2,0,0,0,165.69,88Z"/><path class="cls-5" d="M157.9,79.28h0a.27.27,0,0,0,0-.16.32.32,0,0,0-.1-.12h0a.27.27,0,0,0-.18-.27l-.13,0-.05,0a.28.28,0,0,0-.11,0h0l-.12,0L157,79l.14,0h0l-.16,0-.05.16,0,.15a.36.36,0,0,0,.13.23l.05,0,.12,0a.24.24,0,0,0,.17,0l.16,0,.12,0a.25.25,0,0,0,.21-.21A.22.22,0,0,0,157.9,79.28Z"/><path class="cls-5" d="M155.38,88a1,1,0,0,0,0-.16l0-.07-.05-.06-.07,0a.34.34,0,0,0-.41.17l0,.1v.09l0,.1a.28.28,0,0,0,.12.08l0,0,.12.06A.31.31,0,0,0,155.38,88Z"/><path class="cls-5" d="M165.34,77.87l0,0a.22.22,0,0,0-.13.12l0,0-.06,0,0,.06,0,.1a.31.31,0,0,0,0,.18v0l0,.09.05.1a.54.54,0,0,0,.72-.11l0-.16v0a.64.64,0,0,0,0-.09v0l0-.08a.18.18,0,0,0-.1-.11l-.08-.11a.35.35,0,0,0-.27-.08Z"/><path class="cls-5" d="M140.89,77.22l0,.06a.33.33,0,0,0-.2.24v.12l0,.09.05.07,0,0,0,0,.06.07.12.05-.07,0a.34.34,0,0,0,.36.12l0,0a.65.65,0,0,0,.28-.29v-.23l0-.12-.07-.07-.11,0a.26.26,0,0,1-.11,0l-.15,0Z"/><path class="cls-5" d="M185.56,80.73l-.07.08a.42.42,0,0,0-.06.18.23.23,0,0,0,0,.18.36.36,0,0,0,.23.1l.1,0,.07-.07.05-.1v-.15l0-.11-.07-.07-.13,0h-.08Z"/><path class="cls-5" d="M173.52,80.1l0,.11.07.07.1,0h0a.34.34,0,0,0,.31.07l.07,0a.33.33,0,0,0,.11-.2.3.3,0,0,0-.08-.21h0l0-.1-.16-.09A.37.37,0,0,0,173.52,80.1Z"/><path class="cls-5" d="M176.7,76.37v.11l0,.1.07.09a.41.41,0,0,0,.47,0l0,0h0a.35.35,0,0,0,.17-.25v0l0-.11-.07-.05a.26.26,0,0,0-.2-.14h-.08A.62.62,0,0,0,176.7,76.37Z"/><path class="cls-5" d="M167.91,78.15a.12.12,0,0,0,0,0v0a.21.21,0,0,0-.05.13l0,.11,0,.06,0,0,.08,0a.37.37,0,0,0,.33,0,.3.3,0,0,0,.14-.2v-.07l0-.07,0-.07a.36.36,0,0,0-.25-.21.29.29,0,0,0-.24.1Z"/><path class="cls-5" d="M170.32,84.65l-.06.07,0,.08v.09a.36.36,0,0,0,.12.32l.09,0c.24,0,.35-.06.4-.15l0-.1v-.1l0-.07a.34.34,0,0,0-.4-.23Z"/><path class="cls-5" d="M161.4,81.21l0,0a.23.23,0,0,0-.09.15v.13l0,.06.06,0v0l.07.09.12.06a.26.26,0,0,0,.3-.23h0a.25.25,0,0,0,.05-.15v0l-.09-.13-.14-.06a.23.23,0,0,0-.24,0Z"/><path class="cls-5" d="M153.59,81.16a.24.24,0,0,0-.24-.1.25.25,0,0,0-.18.15v.13l.06.1,0,0,0,0a.29.29,0,0,0,.23.16.28.28,0,0,0,.23-.14v-.14l-.05-.11Z"/><path class="cls-5" d="M147.65,93.46l-.09.13v.15l.06.13.11.08a.26.26,0,0,0,.22.06l.08,0,.06,0,0-.09v0a.34.34,0,0,0,0-.14h0l0-.07-.06-.09-.13-.07v0l-.11,0Z"/><path class="cls-5" d="M173,93.81a.27.27,0,0,0-.14.22l0,.09,0,.07.07.07a.43.43,0,0,0,.17.15h.13l.1-.05.08-.12v-.06c0-.37-.18-.44-.3-.46l-.13.05Z"/><path class="cls-5" d="M158.14,46.26v-.08l0-.09,0-.07L158,46a.26.26,0,0,0-.24.05.31.31,0,0,0-.12.27h0l0,.09.05.06.06,0a.26.26,0,0,0,.27,0A.26.26,0,0,0,158.14,46.26Z"/><path class="cls-5" d="M162.12,56.38l0,.09v.06l0,.1.07.09a.31.31,0,0,0,.12.07l.14,0,.09-.09.05-.1a.3.3,0,0,0-.09-.24.28.28,0,0,0-.22-.06l-.08,0Z"/><path class="cls-5" d="M157.75,56.63a.39.39,0,0,0-.12.26.3.3,0,0,0,.26.34h0a.26.26,0,0,0,.27-.14l0-.08a.35.35,0,0,0,0-.13l0-.1-.11-.12-.09,0h-.16Z"/><path class="cls-5" d="M168.53,55.22l0,.05,0,.06s0,.05,0,.08a.36.36,0,0,0,.13.31.44.44,0,0,0,.38.07l.08,0,0-.06.05-.11a.54.54,0,0,0,.06-.18v-.08l0-.07,0-.06a.46.46,0,0,0-.53,0Z"/><path class="cls-5" d="M164.42,54.79a.27.27,0,0,0,0,.09l0,.09.06.07.1.05h.15l.09,0,.07,0,.07-.1a.74.74,0,0,0,.05-.19.39.39,0,0,0-.12-.28l-.09,0a.35.35,0,0,0-.29.06A.41.41,0,0,0,164.42,54.79Z"/><path class="cls-5" d="M184.47,56.76l0,.11.07.12a.23.23,0,0,0,.14.1l.14,0,.09-.07,0-.06-.12-.1.12.09v-.16l-.06-.11-.15-.08A.26.26,0,0,0,184.47,56.76Z"/><path class="cls-5" d="M177.61,60.51l0,.1.05.08.09.05a.37.37,0,0,0,.28,0,.28.28,0,0,0,.11-.23V60.4l0-.1-.07-.06-.1,0A.33.33,0,0,0,177.61,60.51Z"/><path class="cls-5" d="M150.63,57.7l0,.07-.07-.06-.07.07-.05.12a.4.4,0,0,0,.32.36l.1,0,.08,0,.07-.09,0-.08a.24.24,0,0,0-.07-.18.25.25,0,0,0-.18-.21h-.11Z"/><path class="cls-5" d="M169.77,57.46l-.05.06,0,.08v.1l0,.11.08.07.13,0a.26.26,0,0,0,.3-.18v-.1l0-.09a.27.27,0,0,0-.35-.15Z"/><path class="cls-5" d="M182.55,74.78a.28.28,0,0,0,.07.22l.09.06,0,0c.11,0,.31,0,.34-.34l0-.06,0,0-.05-.08L183,74.5a.31.31,0,0,0-.27,0A.31.31,0,0,0,182.55,74.78Z"/><path class="cls-5" d="M151.6,53.72a.41.41,0,0,0,0,.15l0,.08.06,0,.09,0h.09l.09,0,.08-.06.06-.13v-.06s0,0,0-.06v-.07l-.05-.08-.06-.06-.08,0a.3.3,0,0,0-.26.06A.3.3,0,0,0,151.6,53.72Z"/><path class="cls-5" d="M156.9,51l0,.14.06.06a.27.27,0,0,0,.22.14l.07,0,.07,0,0,0a.24.24,0,0,0,.05-.14.28.28,0,0,0-.25-.29A.26.26,0,0,0,156.9,51Z"/><path class="cls-5" d="M164.58,46.5l-.12-.08h-.16l-.1,0-.08.06-.05.14v.1l0,0a.31.31,0,0,0,.26.1.29.29,0,0,0,.25-.15v-.14Z"/><path class="cls-5" d="M180.76,53h0a.27.27,0,0,0-.23.19h0l0,0,0,.06a.41.41,0,0,0,.1.31.46.46,0,0,0,.36.12l.11-.06.06-.07a.29.29,0,0,0,.12-.2.36.36,0,0,0,0-.1h0s0,0,0,0A.24.24,0,0,0,181,53h-.21Z"/><path class="cls-5" d="M178.17,46.72a.27.27,0,0,0-.11.16.3.3,0,0,0-.1.2.6.6,0,0,0,.17.38l.06,0,.06,0a.45.45,0,0,0,.4-.06.47.47,0,0,0,.16-.34V47l0-.09-.05-.06-.07-.05-.06,0A.34.34,0,0,0,178.17,46.72Z"/><path class="cls-5" d="M179.08,64.24A.34.34,0,0,0,179,64L179,64l-.06,0-.07,0c-.33,0-.38.19-.38.28v.08l.06.1.08.06.09,0a.25.25,0,0,0,.16,0l.1,0,.07-.06,0-.08A.22.22,0,0,0,179.08,64.24Z"/><path class="cls-5" d="M175.86,54.46l0,.06v.07h0a.27.27,0,0,0,.08.24.29.29,0,0,0,.08.1l.07,0h.09l.05,0h0a.28.28,0,0,0,.29-.18v-.05a.37.37,0,0,0-.19-.37.35.35,0,0,0-.4.06Z"/><path class="cls-5" d="M168.55,50.33a.23.23,0,0,0-.19.19.24.24,0,0,0,0,.33l0,0,.05,0,.09,0a.54.54,0,0,0,.18.06l.1,0,.08,0,.06-.05,0-.06,0-.09a.45.45,0,0,0-.33-.46l-.13,0Z"/><path class="cls-5" d="M147,50.89h0a.27.27,0,0,0,0-.15h0v0l0-.06a.24.24,0,0,0-.14-.22l-.05,0h-.1l-.11,0-.17,0-.09.07,0,.09v.16a.38.38,0,0,0,.44.34A.24.24,0,0,0,147,50.89Z"/><path class="cls-5" d="M173,52.43l.14.15h.19l0,0h0l.16-.14a.27.27,0,0,0-.26-.29.25.25,0,0,0-.2.07A.28.28,0,0,0,173,52.43Z"/><path class="cls-5" d="M174.87,69.17l-.11-.07h0a.41.41,0,0,0-.24-.06.21.21,0,0,0-.16.08l-.1.07-.06.11a.29.29,0,0,0,0,.17h0l0,.06h0v0l.05.08.09.07a.39.39,0,0,0,.33-.07.46.46,0,0,0,.18-.3A.4.4,0,0,0,174.87,69.17Z"/><path class="cls-5" d="M162.57,67.54l0,0,0,0-.05,0,0,.06,0,.07v.07h0l0,.1,0,.11a.3.3,0,0,0,.15.1l.05,0,.2,0a.26.26,0,0,0,.22-.11h0a.22.22,0,0,0,.12-.19.22.22,0,0,0-.1-.21l0,0-.07,0-.06-.06,0,0a.25.25,0,0,0-.19,0Z"/><path class="cls-5" d="M170.31,68.12h0l-.05,0-.07.07,0,.09a.28.28,0,0,0-.11.21.2.2,0,0,0,.06.18h0l.07.11,0,0a.36.36,0,0,0,.15.12h.13l0,0h.22l.08,0,.09-.11a.69.69,0,0,0,.12-.33v-.06l0-.08-.05-.07-.07-.05-.06,0a.28.28,0,0,0-.06-.08h0l0,0L170.7,68l-.09,0A.37.37,0,0,0,170.31,68.12Z"/><path class="cls-5" d="M182.44,69.52l-.07.08a.54.54,0,0,0,0,.1.3.3,0,0,0,.25.32.27.27,0,0,0,.31-.22v-.1l0-.08-.1-.09-.1,0h-.11Z"/><path class="cls-5" d="M155.11,69v0h0s0,.07,0,.08l0,.12,0,.1.1.11a.4.4,0,0,0,.25.08h0a.2.2,0,0,0,.21-.09l0,0,.07-.06a.37.37,0,0,0,0-.16.31.31,0,0,0,0-.1V69l0-.09,0-.07-.07-.06a.62.62,0,0,0-.46,0Z"/><path class="cls-5" d="M160.47,65.25a.2.2,0,0,0-.08.1.26.26,0,0,0-.07.11.32.32,0,0,0,0,.14.61.61,0,0,0,.14.42l0,0,.06,0h.07a.56.56,0,0,0,.5-.58v-.06l0,0,0-.06a.41.41,0,0,0-.11-.07.23.23,0,0,0-.14-.09l-.1,0A.27.27,0,0,0,160.47,65.25Z"/><path class="cls-5" d="M147.72,68.91a.2.2,0,0,0,0-.09.78.78,0,0,0,0-.13l0-.08-.07-.06-.08,0h-.16l-.1,0-.08.07-.05.1v.12l0,.07,0,.06,0,.05a.41.41,0,0,0,.31.09l.08,0,.06,0Z"/><path class="cls-5" d="M162.26,71.08l-.09.06h0a.26.26,0,0,0-.16.13.49.49,0,0,0-.06.17.53.53,0,0,0,0,.12v.06l0,.09.05.07.09,0a.36.36,0,0,0,.28,0l.1-.08,0-.1v0a.42.42,0,0,0,.08-.21v-.07l0-.09-.07-.06-.11,0v0Z"/><path class="cls-5" d="M183.1,63.88A.31.31,0,0,0,183,64a.24.24,0,0,0-.06.09.21.21,0,0,0-.08.16.31.31,0,0,0,0,.13l0,.06,0,0a.41.41,0,0,0,.34.17l.08,0,.06,0,.05-.06a.72.72,0,0,0,.07-.25.38.38,0,0,0-.19-.36l-.13,0-.07,0Z"/><path class="cls-5" d="M149.09,61.09a.25.25,0,0,0,.12-.16l0-.13,0,0a.28.28,0,0,0-.12-.18.17.17,0,0,0-.16,0,.34.34,0,0,0-.34.32.57.57,0,0,0,0,.18l0,0,0,0,0,0A.33.33,0,0,0,149.09,61.09Z"/><path class="cls-5" d="M140.25,62.78l-.06,0,0,.07a.71.71,0,0,0,0,.21.39.39,0,0,0,.1.31.4.4,0,0,0,.33.1l.1-.05.06-.07,0-.08,0,0,0-.1v-.09l-.06-.14a.4.4,0,0,0-.45-.21Z"/><path class="cls-5" d="M145.67,60.67h0l.07-.05.06-.07s0-.07,0-.1a.39.39,0,0,0-.23-.38.23.23,0,0,0-.28.08v0l-.06,0-.05.12a.4.4,0,0,0,.11.34l.07,0,.07,0h.08Z"/><path class="cls-5" d="M172.25,73l-.06,0,0,0a.35.35,0,0,0-.06.16.46.46,0,0,0,0,.1l0,.06a.31.31,0,0,0,.27.15.37.37,0,0,0,.32-.21v-.12l0-.1L172.6,73a.35.35,0,0,0-.27-.08Z"/><path class="cls-5" d="M163.65,61.3l0,.05,0,.06c0,.07,0,.18.21.25s.3,0,.32,0l0,0,0-.06,0-.06a.25.25,0,0,0-.18-.24.49.49,0,0,0-.36,0Z"/><path class="cls-5" d="M165.89,65.8l-.09-.13-.1,0-.06.06,0,.1v.25l0,.06,0,.06a.29.29,0,0,0,.38,0,.24.24,0,0,0,.24-.21.2.2,0,0,0,0-.11v0l0-.1-.07-.1a.36.36,0,0,0-.32,0Z"/><path class="cls-5" d="M165.1,60.71h0a.78.78,0,0,0,0,.18V61l0,.09.05.07,0,.05a.65.65,0,0,0,.44.09l.08,0,.06-.08.08-.06,0-.06,0-.06a.34.34,0,0,0,0-.1l0,0a.37.37,0,0,0-.18-.35l-.05-.07-.07,0-.08,0A.42.42,0,0,0,165.1,60.71Z"/><path class="cls-5" d="M172.71,64.39a.23.23,0,0,0,.17.24.31.31,0,0,0,.35-.19v-.15l-.08-.1-.14-.06C172.75,64.18,172.71,64.33,172.71,64.39Z"/><path class="cls-5" d="M170.09,62.1l-.08.11a.53.53,0,0,0,0,.19.25.25,0,0,0,.13.26h.08a.3.3,0,0,0,.26,0l0,0,.06-.08a.34.34,0,0,0,.09-.2v0l0-.12-.08-.07-.09,0a.35.35,0,0,0-.11-.07h-.12Z"/><path class="cls-5" d="M153.09,62.65l0-.08v0a.84.84,0,0,0,0-.14.41.41,0,0,0,0-.15l0-.07-.06-.05-.1,0a.35.35,0,0,0-.23-.06.2.2,0,0,0-.14.06.24.24,0,0,0-.18.21v.09a.3.3,0,0,0,0,.1.32.32,0,0,0,.11.27l.06,0h.13a.52.52,0,0,0,.37-.05Z"/><path class="cls-5" d="M169.86,63.1l-.09.07-.05.08v.09a.35.35,0,0,0-.06.16l0,.1,0,.07.12.08a.38.38,0,0,0,.28,0l.08,0,.05,0,.06-.11a.39.39,0,0,0,.06-.19.32.32,0,0,0-.15-.29h-.14l0,0v0A.48.48,0,0,0,169.86,63.1Z"/><rect class="cls-4" x="139.46" y="21.66" width="45.15" height="47.38" transform="translate(-3.78 73.94) rotate(-25.42)"/><path class="cls-5" d="M170.44,33.51l0,0v-.07a.23.23,0,0,0,0-.11.23.23,0,0,0-.2-.14l0,0-.11,0a.29.29,0,0,0-.19.17.3.3,0,0,0,0,.26.25.25,0,0,0,.23.15l.11,0a.24.24,0,0,0,.18-.07Z"/><path class="cls-5" d="M165.08,40.6v.06l0,.06a.43.43,0,0,0,.4.23l.12-.06.06-.1v-.16l-.05-.11h0v-.08l-.09-.09-.15,0a.42.42,0,0,0-.27.23Z"/><path class="cls-5" d="M159.94,43.42l0-.08-.09-.07-.09,0h-.11a.46.46,0,0,0-.2.24l0,.13,0,.11.09.11a.31.31,0,0,0,.38-.16h0l.05,0,0-.09Z"/><path class="cls-5" d="M153.72,25.79a.27.27,0,0,0-.3-.16l-.13.05-.08.09,0,.15h0a.26.26,0,0,0,.27.16l.14,0,.09-.08Z"/><path class="cls-5" d="M161,54.85a.28.28,0,0,0,.23-.06l.06-.09v-.25l-.05-.08-.08-.07a.26.26,0,0,0-.3.1h0l-.06.05,0,.11,0,.12A.31.31,0,0,0,161,54.85Z"/><path class="cls-5" d="M158.43,44.35l0,0a.53.53,0,0,0,.37.16l.13,0,.07-.08,0-.15.05-.07,0-.07V44l0-.08v0a.31.31,0,0,0,0-.18h0l0,0a.55.55,0,0,0,0-.17.25.25,0,0,0-.2-.14l-.1,0a.25.25,0,0,0-.23.07l0,.08,0,.09,0,.09a.75.75,0,0,1,.07.12h0l0,0,0,.13,0,.05a.36.36,0,0,0,0,.22Z"/><path class="cls-5" d="M163.08,29v-.09a.26.26,0,0,0-.25-.16h0a.33.33,0,0,0-.27.05l-.06.08,0,.08v.12a.25.25,0,0,0,.16.14h.09a.28.28,0,0,0,.32-.05l0-.08Z"/><path class="cls-5" d="M140.65,39.47v0l0-.05a.26.26,0,0,0-.29-.15l-.11,0-.08,0-.06.1a.36.36,0,0,0,0,.18.29.29,0,0,0,.27.17.3.3,0,0,0,.26-.17Z"/><path class="cls-5" d="M168.35,25.36a.37.37,0,0,0,0-.11l-.05-.08-.09-.07a.29.29,0,0,0-.38,0l-.05.08v.2a.68.68,0,0,0,0,.17.37.37,0,0,0,.12.13l.18,0,0,0,0,0a.28.28,0,0,0,.18-.15A.25.25,0,0,0,168.35,25.36Z"/><path class="cls-5" d="M145.81,34.69l-.08-.09-.1,0h0a.3.3,0,0,0-.39,0l0,.13,0,.16,0,0a.4.4,0,0,0,.1.12.39.39,0,0,0,.1.08l.08,0h.07l.08,0A.36.36,0,0,0,145.81,34.69Z"/><path class="cls-5" d="M142.55,35.52a.21.21,0,0,0,.08-.13.28.28,0,0,0,0-.13.28.28,0,0,0,0-.2l0-.05-.07,0-.05,0-.08,0a.42.42,0,0,0-.26,0,.41.41,0,0,0-.21.22.4.4,0,0,0,0,.34.39.39,0,0,0,.47.21l.09-.07Z"/><path class="cls-5" d="M151.61,31.66v0l.09.07.08,0h.1l.06,0,.07-.07,0-.1a.27.27,0,0,0,0-.13l-.09-.1-.08,0v0a.21.21,0,0,0-.26,0,.23.23,0,0,0-.08.25l0,0A.31.31,0,0,0,151.61,31.66Z"/><path class="cls-5" d="M162.26,35.38h0a.31.31,0,0,0,.1.12.24.24,0,0,0,.14.06h0a.25.25,0,0,0,.28.13l.09-.07,0-.06.07-.09h0l.08-.08,0-.17-.13,0h0l.12-.1,0-.16-.11-.1a.32.32,0,0,0-.22-.14h-.05l-.12,0a.23.23,0,0,0-.16.05l-.14,0-.07.1a.21.21,0,0,0-.08.28A.21.21,0,0,0,162.26,35.38Z"/><path class="cls-5" d="M160.29,26.82a.6.6,0,0,0,.09.13l.07.05.06,0h.08a.31.31,0,0,0,.27-.33v-.1l0-.08-.07-.07a.36.36,0,0,0-.14,0h-.17A.3.3,0,0,0,160.29,26.82Z"/><path class="cls-5" d="M156.66,40v0a.27.27,0,0,0,.06-.17v0l0-.07v-.06l0-.1a.33.33,0,0,0-.11-.14v0l-.06-.07-.08-.05a.52.52,0,0,0-.56.42l0,.16h0a.31.31,0,0,0,0,.08l0,0,0,.06a.22.22,0,0,0,.14.05l.12,0a.35.35,0,0,0,.27-.06Z"/><path class="cls-5" d="M177.55,29.16v-.08a.28.28,0,0,0,.06-.29l-.05-.1-.06-.07-.08,0,0,.06,0-.06-.09,0-.13,0s.07,0,.08,0a.32.32,0,0,0-.36.06l0,0a.69.69,0,0,0-.11.38l0,.09,0,.06a.08.08,0,0,1,0,.05l.09.07.09,0h.11a.2.2,0,0,1,.11,0l.15,0Z"/><path class="cls-5" d="M138.28,47.09l0-.09a.44.44,0,0,0,0-.19.25.25,0,0,0-.14-.13.31.31,0,0,0-.23,0l-.07.08,0,.09V47l.06.13.08.07.09,0h.14l.05-.06Z"/><path class="cls-5" d="M148.73,42l-.09-.07-.09,0h-.08a.33.33,0,0,0-.3.09l0,.06a.28.28,0,0,0,0,.22.3.3,0,0,0,.17.14h0l.08.07h.17A.36.36,0,0,0,148.73,42Z"/><path class="cls-5" d="M147.79,46.62l0-.1-.07-.07-.1-.05c-.26,0-.37.1-.41.19v0h0a.31.31,0,0,0,0,.29l0,0,.09.07h.08a.22.22,0,0,0,.24,0l.06,0A.65.65,0,0,0,147.79,46.62Z"/><path class="cls-5" d="M154.36,41a.14.14,0,0,0,0-.06l0-.05a.31.31,0,0,0,0-.13l-.06-.08-.06,0-.06,0h-.08a.38.38,0,0,0-.28.15.24.24,0,0,0,0,.23l0,.06,0,.05.07,0a.35.35,0,0,0,.31.06.25.25,0,0,0,.15-.19Z"/><path class="cls-5" d="M149.29,36.66l0-.09v-.08l0-.08a.34.34,0,0,0-.25-.21h-.09c-.22.08-.27.22-.27.32l0,.09.06.07.06.05a.32.32,0,0,0,.44,0Z"/><path class="cls-5" d="M158.41,35.39v0a.25.25,0,0,0,0-.17l0-.06,0-.05-.06,0-.06,0,0,0-.09,0H158a.25.25,0,0,0-.14.34h0a.26.26,0,0,0,0,.15l0,0,.14.07.14,0a.2.2,0,0,0,.21-.09Z"/><path class="cls-5" d="M165,31.78a.26.26,0,0,0,.26,0,.21.21,0,0,0,.07-.21l-.07-.11-.09-.05,0,.05,0-.07a.29.29,0,0,0-.27,0,.25.25,0,0,0-.13.22l.06.12.09.07Z"/><path class="cls-5" d="M164.26,18.64l0-.15-.06-.13-.12-.08-.12,0a.31.31,0,0,0-.22,0l0,.07,0,.07v.09l0,.05c0,.07.09.11.09.1h0l.05,0,.1.05h.14l.1,0Z"/><path class="cls-5" d="M142.74,30.2a.23.23,0,0,0,0-.25l0-.07-.07,0-.09,0a.56.56,0,0,0-.21,0l-.12.07-.05.09v.13l0,.06c.16.32.36.29.47.24l.09-.1Z"/><path class="cls-5" d="M177.5,63.3l0,.07.07.06.08,0h.09a.35.35,0,0,0,.19-.16.36.36,0,0,0,0-.28h0l-.06-.06-.07,0h-.08a.27.27,0,0,0-.22.39Z"/><path class="cls-5" d="M169.41,56.64v-.09l0-.06-.08-.07-.1,0a.17.17,0,0,0-.13,0l-.1.09,0,.11v.11a.29.29,0,0,0,.19.16.23.23,0,0,0,.21-.05l0-.08Z"/><path class="cls-5" d="M173,54.38a.43.43,0,0,0,0-.27.28.28,0,0,0-.38-.16v0q-.15,0-.18.24l0,.09a.23.23,0,0,0,.07.09l.07.08.14.05h.11l.07,0,.06,0Z"/><path class="cls-5" d="M164.55,60.61v-.12l0-.06a.33.33,0,0,0-.25-.21.39.39,0,0,0-.36.13l0,.07v.19a.42.42,0,0,0,0,.18l.05.06.06,0,.07,0a.44.44,0,0,0,.44-.25Z"/><path class="cls-5" d="M168.23,59.05l0-.07-.08-.06-.09,0h-.1l-.14.06-.06.06,0,.08v.1a.9.9,0,0,0,.05.19.34.34,0,0,0,.23.18H168a.3.3,0,0,0,.21-.18A.43.43,0,0,0,168.23,59.05Z"/><path class="cls-5" d="M150.41,66.78l-.07-.1-.11-.06a.34.34,0,0,0-.16,0l-.11.08-.05.1v.08l.14,0-.14,0L150,67l.1.06h.17C150.43,67,150.43,66.85,150.41,66.78Z"/><path class="cls-5" d="M154.44,60.41l-.07-.08-.08,0h-.1a.3.3,0,0,0-.21.42l0,0,.08.06.09,0h.1A.32.32,0,0,0,154.44,60.41Z"/><path class="cls-5" d="M178.48,50.15l-.07,0,.08,0,0-.09v-.12a.37.37,0,0,0-.43-.16l-.08.07-.05.07,0,.1,0,.08a.24.24,0,0,0,.15.13.24.24,0,0,0,.24.08l.09-.06Z"/><path class="cls-5" d="M162.47,59.31v-.16l0-.08-.09-.08-.09,0-.13,0a.26.26,0,0,0-.18.29l.06.08.07.06a.26.26,0,0,0,.36,0Z"/><path class="cls-5" d="M143.61,50.7a.33.33,0,0,0-.17-.16h-.1l-.05,0c-.1,0-.25.15-.13.44l.07,0v0l.07,0,.1,0a.31.31,0,0,0,.21-.16A.3.3,0,0,0,143.61,50.7Z"/><path class="cls-5" d="M179.52,54l-.08-.12-.08,0h-.16l-.08,0-.07.07,0,.08v.14l0,0a.14.14,0,0,0,0,.06l0,0,.08.05.07,0h.09a.32.32,0,0,0,.19-.17A.27.27,0,0,0,179.52,54Z"/><path class="cls-5" d="M176.34,58.75l-.09-.09-.08,0a.25.25,0,0,0-.25,0l-.06.05,0,0,0,.07a.4.4,0,0,0,0,.15.27.27,0,0,0,.51-.19Z"/><path class="cls-5" d="M172,66.11h.14l.13-.06.07-.08,0-.09v-.14l0,0,0,0,0,0a.27.27,0,0,0-.26,0,.31.31,0,0,0-.14.25l.06.13Z"/><path class="cls-5" d="M155.3,68.21l0,0h0a.26.26,0,0,0,.1-.27h0v-.11a.44.44,0,0,0-.23-.22.45.45,0,0,0-.36.07l-.06.1,0,.09a.24.24,0,0,0,0,.22.27.27,0,0,0,.07.08h0s0,0,0,0a.23.23,0,0,0,.27.12l.07,0Z"/><path class="cls-5" d="M160.42,72.28a.27.27,0,0,0,0-.18.24.24,0,0,0,0-.22.6.6,0,0,0-.32-.24l-.07,0H160a.41.41,0,0,0-.28.6.47.47,0,0,0,.06.09l.06.06.07,0H160s.05,0,.07,0A.33.33,0,0,0,160.42,72.28Z"/><path class="cls-5" d="M151.45,58a.42.42,0,0,0,.17.18h.2c.28-.14.23-.34.19-.42l0-.06-.09-.06h-.1l-.09,0a.41.41,0,0,0-.16,0l-.06.07,0,.08v.1A.19.19,0,0,0,151.45,58Z"/><path class="cls-5" d="M158.74,64.68v-.06l0-.06h0a.29.29,0,0,0-.18-.17.21.21,0,0,0-.12,0h-.07l-.07,0,0,.05h0a.26.26,0,0,0-.16.29l0,.05a.35.35,0,0,0,.34.22.35.35,0,0,0,.31-.24Z"/><path class="cls-5" d="M166.83,64.74a.22.22,0,0,0,.07-.25.27.27,0,0,0,0-.15.27.27,0,0,0-.15-.13h-.11l-.09,0a.45.45,0,0,0-.18,0l-.07.07,0,.08,0,.07v.07l0,.08a.43.43,0,0,0,.49.25l.1-.09Z"/><path class="cls-5" d="M184.72,54.19h0a.49.49,0,0,0,0,.15h0v.09a.24.24,0,0,0,.22.12h0l.09,0a.31.31,0,0,1,.09-.07l.12-.1,0-.1v-.1l-.07-.14a.36.36,0,0,0-.52-.08A.24.24,0,0,0,184.72,54.19Z"/><path class="cls-5" d="M162.09,65.07l-.2-.07,0,0h0l-.11,0v0l0,0-.07.19a.25.25,0,0,0,.35.13.28.28,0,0,0,.14-.16A.26.26,0,0,0,162.09,65.07Z"/><path class="cls-5" d="M152.7,51.82l.12,0h0a.39.39,0,0,0,.23-.05.23.23,0,0,0,.1-.15l0-.1v-.13a.39.39,0,0,0-.11-.13h0l-.06,0h0l0,0-.08,0h-.1a.4.4,0,0,0-.25.21.45.45,0,0,0,0,.34A.32.32,0,0,0,152.7,51.82Z"/><path class="cls-5" d="M163.82,47.45v-.06l0,0,0-.07v-.06l0-.07a.33.33,0,0,0,0-.06h0l0-.1-.08-.08a.25.25,0,0,0-.17,0l-.06,0-.17.08a.28.28,0,0,0-.14.19l0,0a.24.24,0,0,0,0,.22.23.23,0,0,0,.18.13l.05,0,.09,0,.08,0,0,0a.24.24,0,0,0,.18,0Z"/><path class="cls-5" d="M157,50.58h0l0,0,0-.09,0-.09a.24.24,0,0,0,0-.23.22.22,0,0,0-.13-.12h0l-.11-.06h-.06a.28.28,0,0,0-.18,0l-.11.06,0,0-.11,0-.08.05,0,.07,0,.14a.69.69,0,0,0,.07.33l0,0,.06.06.08,0h.14l.08,0h0l0,0,.08,0h.09A.37.37,0,0,0,157,50.58Z"/><path class="cls-5" d="M146.15,55.07l0-.1a.19.19,0,0,0,0-.1.28.28,0,0,0-.36-.15.28.28,0,0,0-.15.34l.06.07.07,0,.12,0H146l.09-.06Z"/><path class="cls-5" d="M169.42,42.73l0,0,0,0a.19.19,0,0,1,0-.07l0-.11-.07-.07-.14-.05a.41.41,0,0,0-.24.05h0a.21.21,0,0,0-.13.18l0,0,0,.08a.43.43,0,0,0,0,.17l.05.07,0,.07.06.06.07,0h.09a.59.59,0,0,0,.38-.24Z"/><path class="cls-5" d="M166.66,48.4a.19.19,0,0,0,0-.13.49.49,0,0,0,0-.12.65.65,0,0,0,0-.13.61.61,0,0,0-.31-.29h-.13l-.07,0a.57.57,0,0,0-.15.73l0,.05,0,0,.05,0a.3.3,0,0,0,.13,0,.32.32,0,0,0,.17,0l.06-.06A.28.28,0,0,0,166.66,48.4Z"/><path class="cls-5" d="M175.68,39.35a.41.41,0,0,0,0,.08.49.49,0,0,0,.07.11l.08,0,.08,0H176l.14-.06.07-.08,0-.09v-.11l-.05-.11,0,0-.05,0-.06,0a.37.37,0,0,0-.3.07l-.06.06,0,.07Z"/><path class="cls-5" d="M162.43,44.32l0-.09h0a.24.24,0,0,0,.08-.17.53.53,0,0,0,0-.18l-.06-.09,0,0-.07-.06-.08,0h-.1a.32.32,0,0,0-.21.18l-.05.11V44l0,0a.43.43,0,0,0,0,.2l0,.06.09.06.08,0h.12v0Z"/><path class="cls-5" d="M148.24,60.13a.33.33,0,0,0,.09-.14.41.41,0,0,0,0-.11.2.2,0,0,0,0-.17.19.19,0,0,0-.08-.1l-.06,0-.05,0a.39.39,0,0,0-.36,0l-.06.06,0,.07v.07a.64.64,0,0,0,.05.24.38.38,0,0,0,.33.22l.12-.05,0,0Z"/><path class="cls-5" d="M178.19,46.58a.3.3,0,0,0,0,.19l.09.1h0a.29.29,0,0,0,.19.1.23.23,0,0,0,.14,0,.32.32,0,0,0,.14-.43.49.49,0,0,0-.11-.14l0,0h-.12A.31.31,0,0,0,178.19,46.58Z"/><path class="cls-5" d="M184.85,41l0-.07v-.08a.7.7,0,0,0-.06-.19.39.39,0,0,0-.23-.22.41.41,0,0,0-.33.07l-.06.09,0,.1v.08l0,.05V41l.05.08.1.09a.39.39,0,0,0,.48,0Z"/><path class="cls-5" d="M181.27,45.33l0,0,0,.07,0,.09,0,.09a.36.36,0,0,0,.37.21.22.22,0,0,0,.2-.2v0l0-.06v-.12a.44.44,0,0,0-.26-.24h-.08l-.07,0-.06,0A.24.24,0,0,0,181.27,45.33Z"/><path class="cls-5" d="M153.12,47.4l0-.08v-.06a.27.27,0,0,0,0-.16l0-.08L153,47a.32.32,0,0,0-.3,0,.37.37,0,0,0-.17.33l.05.11.08.07.11,0a.34.34,0,0,0,.27-.06Z"/><path class="cls-5" d="M165.83,53.21V53.1c0-.07-.1-.14-.3-.11s-.23.16-.24.18l0,.06v.12a.23.23,0,0,0,.26.12s.22-.06.28-.2Z"/><path class="cls-5" d="M161.84,50.47l.14.07.06-.08,0-.09v-.1l-.07-.16,0,0-.05,0-.06,0a.29.29,0,0,0-.32.19.22.22,0,0,0-.1.29.22.22,0,0,0,.07.09h0l.07.08.1.05a.34.34,0,0,0,.28-.13Z"/><path class="cls-5" d="M164.88,54.39h0a.45.45,0,0,0,0-.18l0-.06-.06-.06-.08,0,0,0a.52.52,0,0,0-.42.13l0,.06a.15.15,0,0,0,0,.09l0,.09v.13l.06.07v.06a.38.38,0,0,0,.31.21l.08,0h.08l.08,0A.41.41,0,0,0,164.88,54.39Z"/><path class="cls-5" d="M156.75,54.85a.21.21,0,0,0-.26-.12.29.29,0,0,0-.2.32l.08.12.11,0,.15,0C156.82,55,156.78,54.9,156.75,54.85Z"/><path class="cls-5" d="M160,55.55v-.13a.46.46,0,0,0,0-.19.25.25,0,0,0-.24-.15l-.06,0a.25.25,0,0,0-.22.11l0,.05v.1a.33.33,0,0,0,0,.21v0l.09.07.1,0h.22l.09-.07Z"/><path class="cls-5" d="M174.09,47.13v.08l0,0a.5.5,0,0,0,0,.14.44.44,0,0,0,.09.11l.08,0,.07,0h.11a.42.42,0,0,0,.22,0,.2.2,0,0,0,.08-.12.24.24,0,0,0,.07-.27l-.06-.07,0-.09a.27.27,0,0,0-.22-.17h-.06l-.05,0-.06,0a.44.44,0,0,0-.29.22Z"/><path class="cls-5" d="M159.75,54.6l.05-.1v-.1l0-.07a.39.39,0,0,0,0-.16l-.06-.07-.08-.05h-.13a.38.38,0,0,0-.26.11l0,.06,0,.07v.12a.36.36,0,0,0,0,.19.29.29,0,0,0,.26.17l.12-.06,0,0v0A.7.7,0,0,0,159.75,54.6Z"/><rect class="cls-4" x="146.9" y="7.92" width="23.95" height="25.13" transform="translate(-0.15 1.23) rotate(-0.44)"/><path class="cls-5" d="M152.18,24.3l0,0,0,0a.13.13,0,0,0,0,.06.14.14,0,0,0,.06.11v0l.05,0a.17.17,0,0,0,.14,0,.18.18,0,0,0,.06-.13.13.13,0,0,0-.08-.12h-.06a.16.16,0,0,0-.1,0Z"/><path class="cls-5" d="M156.34,22.09V22a.28.28,0,0,0-.14-.21h-.08l0,0,0,.08V22h0v0l0,.06.07.05a.23.23,0,0,0,.18-.05Z"/><path class="cls-5" d="M159.45,21.88v.05l0,.06,0,0,.06,0a.24.24,0,0,0,.15-.07l.05,0v-.06l0-.07a.16.16,0,0,0-.22,0h0l0,0Z"/><path class="cls-5" d="M158.49,31.76a.15.15,0,0,0,.11.14h.07l.06,0,.05-.07h0a.15.15,0,0,0-.1-.13l-.07,0-.06,0Z"/><path class="cls-5" d="M161.5,16.15a.17.17,0,0,0-.13,0l-.05,0,0,0v.13l0,.05a.14.14,0,0,0,.17,0h0l.05-.05,0-.06A.24.24,0,0,0,161.5,16.15Z"/><path class="cls-5" d="M160.38,21.77h0a.25.25,0,0,0-.14-.16h-.08l0,0-.05.07,0,0,0,0,0,0v.06a.12.12,0,0,0,0,.09h0v0a.29.29,0,0,0,0,.09.12.12,0,0,0,.07.11h.05a.14.14,0,0,0,.13,0l0,0,0,0,0-.05a.15.15,0,0,1,0-.07h0l0-.05v0a.28.28,0,0,0,0-.11Z"/><path class="cls-5" d="M154.71,28.1v0a.15.15,0,0,0,.09.14h0a.16.16,0,0,0,.14,0l0,0,0,0,0-.05h0a.15.15,0,0,0,0-.11l0,0a.15.15,0,0,0-.17,0l0,0Z"/><path class="cls-5" d="M167.84,28.1v.06a.14.14,0,0,0,.11.14h.1l.05,0a.16.16,0,0,0,0-.09A.14.14,0,0,0,168,28a.14.14,0,0,0-.16,0Z"/><path class="cls-5" d="M151.36,28.68l0,.05v.05l0,.06a.14.14,0,0,0,.18.08l0,0,0,0,0-.06s0-.05,0-.09a.15.15,0,0,0,0-.09l-.09,0h0a.15.15,0,0,0-.12,0A.12.12,0,0,0,151.36,28.68Z"/><path class="cls-5" d="M164.29,29.25l0,.06,0,0h0a.15.15,0,0,0,.19.08l.05-.05,0-.08v0a.19.19,0,0,0,0-.08.09.09,0,0,0,0-.06l0,0h-.08A.19.19,0,0,0,164.29,29.25Z"/><path class="cls-5" d="M166,29.58a.09.09,0,0,0-.07,0s0,.05,0,.07a.11.11,0,0,0,0,.09v0l0,0,0,0,0,0a.19.19,0,0,0,.12.06.22.22,0,0,0,.15-.06.2.2,0,0,0,.07-.16.22.22,0,0,0-.18-.21l-.06,0Z"/><path class="cls-5" d="M160.82,29.4h0l0-.05,0,0,0,0h0l0,0,0,0s0,0,0,.06l0,.07,0,0h0a.11.11,0,0,0,.13.05s.07,0,.09-.1v0A.07.07,0,0,0,160.82,29.4Z"/><path class="cls-5" d="M156.53,25.23h0a.24.24,0,0,0,0-.08.08.08,0,0,0,0-.05h0a.13.13,0,0,0-.11-.13l-.06,0,0,0-.06,0h0l-.06,0,0,.08h.08l-.09,0,0,.08,0,.07a.19.19,0,0,0,.08.12h.08a.18.18,0,0,0,.09,0h.08l.06,0a.12.12,0,0,0,.1-.12A.12.12,0,0,0,156.53,25.23Z"/><path class="cls-5" d="M155.56,29.78s0-.05,0-.08l0,0,0,0,0,0a.16.16,0,0,0-.2.1l0,.05v0l0,.05s0,0,.06,0l0,0,.06,0A.16.16,0,0,0,155.56,29.78Z"/><path class="cls-5" d="M160.27,24.24l0,0a.09.09,0,0,0-.06.07h0l0,0,0,0v.05a.3.3,0,0,0,0,.1h0v.05l0,.05a.27.27,0,0,0,.36-.08l0-.09h0s0,0,0,0h0v0l-.06-.06-.05,0a.2.2,0,0,0-.14,0Z"/><path class="cls-5" d="M147.79,24.8l0,0a.15.15,0,0,0-.09.13V25l0,.05,0,0,0,0,0,0,0,0,.06,0h0a.18.18,0,0,0,.19.05h0a.33.33,0,0,0,.13-.16v-.12l0-.06,0,0-.05,0h-.06l-.08,0Z"/><path class="cls-5" d="M170.68,25l0,0a.24.24,0,0,0,0,.1.12.12,0,0,0,0,.09.16.16,0,0,0,.11,0l.06,0,0,0,0-.06v-.07l0-.06,0,0-.07,0h0Z"/><path class="cls-5" d="M164.52,25.08l0,.06,0,0,.06,0h0a.21.21,0,0,0,.16,0l0,0a.1.1,0,0,0,.05-.1.23.23,0,0,0,0-.11h0l0-.05-.08,0A.2.2,0,0,0,164.52,25.08Z"/><path class="cls-5" d="M166,23.07v.06l0,0,0,0a.22.22,0,0,0,.24,0v0h0a.16.16,0,0,0,.08-.13v0l0-.05,0,0a.12.12,0,0,0-.11-.06h0A.36.36,0,0,0,166,23.07Z"/><path class="cls-5" d="M161.59,24.29s0,0,0,0v0a.19.19,0,0,0,0,.07v.06l0,0,0,0h0a.17.17,0,0,0,.17,0,.15.15,0,0,0,.06-.11v-.07l0,0a.17.17,0,0,0-.13-.09.14.14,0,0,0-.12.06Z"/><path class="cls-5" d="M163.05,27.52l0,0,0,0v0a.18.18,0,0,0,.08.15l0,0a.19.19,0,0,0,.2-.09v-.1l0,0a.18.18,0,0,0-.22-.1Z"/><path class="cls-5" d="M158.39,26.09h0a.14.14,0,0,0,0,.08v0l0,0v0l0,0v0l0,0,.07,0c.1,0,.14-.07.14-.13h0a.1.1,0,0,0,0-.07v0l0-.06-.07,0a.15.15,0,0,0-.13,0Z"/><path class="cls-5" d="M154.4,26.34a.18.18,0,0,0-.13,0,.11.11,0,0,0-.08.09v.06l0,.05,0,0,0,0s.06.08.13.07a.14.14,0,0,0,.11-.07v-.08l0-.05Z"/><path class="cls-5" d="M151.82,32.83l0,.07V33l0,.06.06,0a.14.14,0,0,0,.12,0l0,0,0,0,0,0v0a.14.14,0,0,0,0-.07h0v0l0-.05-.07,0h-.06Z"/><path class="cls-5" d="M164.75,32.09a.15.15,0,0,0-.06.12v0l0,0,0,0a.35.35,0,0,0,.09.07h.07l.05,0,0-.06v0c0-.18-.11-.21-.18-.22l-.06,0Z"/><path class="cls-5" d="M155.46,8.39s0,0,0,0l0,0,0,0,0,0a.22.22,0,0,0-.13,0,.18.18,0,0,0,0,.14h0l0,0,0,0,0,0a.2.2,0,0,0,.14,0A.15.15,0,0,0,155.46,8.39Z"/><path class="cls-5" d="M157.85,13.41v.08l0,0,0,0s0,0,.06,0l.07,0,0-.05,0,0a.14.14,0,0,0-.05-.12.11.11,0,0,0-.11,0l-.05,0Z"/><path class="cls-5" d="M155.63,13.69a.26.26,0,0,0,0,.14.15.15,0,0,0,.15.16h0a.16.16,0,0,0,.14-.08v-.05s0,0,0-.06v-.05l-.06-.06-.05,0h-.08Z"/><path class="cls-5" d="M161.08,12.59l0,0v.07a.22.22,0,0,0,.07.16.27.27,0,0,0,.2,0l0,0,0,0,0-.06a.64.64,0,0,0,0-.09V12.6l0,0,0,0a.24.24,0,0,0-.27,0Z"/><path class="cls-5" d="M159,12.51s0,0,0,.05l0,0,0,0,.05,0h.08l0,0,0,0,0,0s0-.07,0-.11a.16.16,0,0,0-.07-.14h0a.19.19,0,0,0-.15,0A.21.21,0,0,0,159,12.51Z"/><path class="cls-5" d="M169.26,12.79v.06l0,.06.08,0h.06l.05,0,0,0-.06,0,.06,0v-.08l0-.06-.08,0C169.3,12.69,169.27,12.75,169.26,12.79Z"/><path class="cls-5" d="M165.9,15V15l0,0,.05,0a.17.17,0,0,0,.14,0,.17.17,0,0,0,.05-.12v0l0,0,0,0-.05,0A.17.17,0,0,0,165.9,15Z"/><path class="cls-5" d="M152,14.49l0,0,0,0,0,0,0,.06a.19.19,0,0,0,.17.17h0l0,0,0-.05v0a.13.13,0,0,0,0-.09.13.13,0,0,0-.1-.1h-.06Z"/><path class="cls-5" d="M161.79,13.68l0,0,0,0v0l0,.06,0,0,.07,0c.11,0,.14-.06.15-.1v-.05l0,0a.15.15,0,0,0-.19-.06Z"/><path class="cls-5" d="M168.93,22a.17.17,0,0,0,0,.12l0,0h0c.06,0,.15,0,.16-.19l0,0,0,0,0,0,0,0a.14.14,0,0,0-.13,0A.14.14,0,0,0,168.93,22Z"/><path class="cls-5" d="M152.39,12.43a.31.31,0,0,0,0,.08l0,0,0,0h.09l.05,0,0,0,0-.07v-.09l0,0,0,0,0,0a.17.17,0,0,0-.13,0A.16.16,0,0,0,152.39,12.43Z"/><path class="cls-5" d="M155,10.84l0,.07,0,0a.13.13,0,0,0,.12.07h0l0,0,0,0a.1.1,0,0,0,0-.07.13.13,0,0,0-.13-.14A.14.14,0,0,0,155,10.84Z"/><path class="cls-5" d="M158.75,8.28l-.07,0h-.08l0,0,0,0,0,.07v.08a.16.16,0,0,0,.26,0V8.33Z"/><path class="cls-5" d="M167.23,11h0a.15.15,0,0,0-.11.11h0v.06a.22.22,0,0,0,.07.15.21.21,0,0,0,.18.05l.06,0,0,0a.14.14,0,0,0,.06-.11.43.43,0,0,1,0,0h0s0,0,0,0a.15.15,0,0,0-.11-.12h-.11Z"/><path class="cls-5" d="M165.68,7.9a.19.19,0,0,0-.05.09.12.12,0,0,0,0,.1.27.27,0,0,0,.1.19l0,0,0,0a.25.25,0,0,0,.2-.05.23.23,0,0,0,.07-.18V8l0,0,0,0,0,0,0,0A.18.18,0,0,0,165.68,7.9Z"/><path class="cls-5" d="M166.78,16.8a.16.16,0,0,0,0-.12l0,0h-.06c-.17,0-.19.11-.19.16v0l0,.05,0,0h.13l.05,0,0,0,0,0Z"/><path class="cls-5" d="M164.78,11.93V12h0a.14.14,0,0,0,0,.12.1.1,0,0,0,.05,0h.07l0,0h0a.13.13,0,0,0,.14-.1v0a.2.2,0,0,0-.12-.18.19.19,0,0,0-.2,0Z"/><path class="cls-5" d="M160.91,10.09a.3.3,0,0,0-.12.18.11.11,0,0,0,.05.09l0,0h.08l.09,0h.05l0,0,0,0,0,0v-.05a.23.23,0,0,0-.18-.22l-.07,0Z"/><path class="cls-5" d="M149.94,11.16h0a.19.19,0,0,0,0-.08h0v0a.12.12,0,0,0-.08-.11h-.13l-.08,0-.05,0,0,0v.08a.19.19,0,0,0,.24.15A.11.11,0,0,0,149.94,11.16Z"/><path class="cls-5" d="M163.26,11l.08.07h.13l.08-.07a.14.14,0,0,0-.14-.15.16.16,0,0,0-.11.05A.21.21,0,0,0,163.26,11Z"/><path class="cls-5" d="M164.81,19.47l-.05,0h0a.18.18,0,0,0-.12,0,.09.09,0,0,0-.08.05l0,0,0,.05a.13.13,0,0,0,0,.09h0l0,0h0v0l0,0,.05,0a.18.18,0,0,0,.16,0,.21.21,0,0,0,.08-.16A.14.14,0,0,0,164.81,19.47Z"/><path class="cls-5" d="M158.48,19.08v0h0l0,0,0,0v0a.06.06,0,0,0,0,0h0v.05l0,.06a.15.15,0,0,0,.07.05l0,0h.1a.19.19,0,0,0,.11-.06h0a.16.16,0,0,0,.05-.11.11.11,0,0,0-.06-.1l0,0,0,0,0,0v0a.12.12,0,0,0-.1,0Z"/><path class="cls-5" d="M162.45,19.1h0l0,0,0,.05a.16.16,0,0,0,0,.11.12.12,0,0,0,0,.08h0l0,.05h0a.15.15,0,0,0,.09.06h.19l0,0,0-.06a.35.35,0,0,0,.05-.18v0l0,0,0,0,0,0h0l0,0h0l0,0-.05,0A.2.2,0,0,0,162.45,19.1Z"/><path class="cls-5" d="M168.69,19.37l0,0a.11.11,0,0,0,0,.05.15.15,0,0,0,.14.16.14.14,0,0,0,.15-.13v0l0,0,0,0-.05,0h-.06Z"/><path class="cls-5" d="M154.73,20.1v0h0v.1l0,.05.05.05a.22.22,0,0,0,.13,0h0a.11.11,0,0,0,.11-.06h0l0,0a.29.29,0,0,0,0-.09.09.09,0,0,0,0-.05v0l0-.05,0,0,0,0a.3.3,0,0,0-.24,0Z"/><path class="cls-5" d="M157.33,18l0,.06,0,.06s0,0,0,.07a.32.32,0,0,0,.09.21l0,0h.07a.28.28,0,0,0,.23-.31V18l0,0-.06,0a.1.1,0,0,0-.08,0h0A.19.19,0,0,0,157.33,18Z"/><path class="cls-5" d="M151,20.32v-.05a.2.2,0,0,0,0-.07l0,0,0,0-.05,0h-.08l-.05,0,0,0,0,.05v.1l0,0,0,0a.18.18,0,0,0,.16,0l0,0,0,0Z"/><path class="cls-5" d="M158.45,20.89l0,0h0a.17.17,0,0,0-.08.07.29.29,0,0,0,0,.09.13.13,0,0,0,0,.06v0l0,0,0,0,0,0a.17.17,0,0,0,.14,0l.05,0,0-.05v0a.24.24,0,0,0,0-.11v0l0,0,0,0-.06,0h-.08Z"/><path class="cls-5" d="M168.82,16.47a.25.25,0,0,0-.08.05.08.08,0,0,0,0,.05.09.09,0,0,0,0,.08.19.19,0,0,0,0,.07l0,0,0,0a.23.23,0,0,0,.18.07l0,0,0,0,0,0a.31.31,0,0,0,0-.13.2.2,0,0,0-.11-.18h-.11Z"/><path class="cls-5" d="M151.38,16.28a.15.15,0,0,0,.06-.09l0-.06,0,0a.11.11,0,0,0-.06-.08.15.15,0,0,0-.08,0,.18.18,0,0,0-.17.18.16.16,0,0,0,0,.09l0,0,0,0h0A.16.16,0,0,0,151.38,16.28Z"/><path class="cls-5" d="M146.94,17.46l0,0,0,0a.34.34,0,0,0,0,.1.2.2,0,0,0,.06.16.19.19,0,0,0,.17,0l0,0,0,0,0,0,0,0v-.1l0-.07a.21.21,0,0,0-.24-.09Z"/><path class="cls-5" d="M149.62,16.19h0l0,0,0,0v-.05a.18.18,0,0,0-.13-.18.11.11,0,0,0-.14,0h0l0,0,0,.06a.29.29,0,0,0,.08.18h.11A.1.1,0,0,0,149.62,16.19Z"/><path class="cls-5" d="M163.62,21.5l0,0,0,0a.09.09,0,0,0,0,.08v.05l0,0a.16.16,0,0,0,.14.07.22.22,0,0,0,.16-.12V21.6l0-.05,0,0a.26.26,0,0,0-.15,0Z"/><path class="cls-5" d="M158.81,15.86l0,0v0s0,.09.11.11a.23.23,0,0,0,.17,0v0l0,0v0s0-.09-.1-.12-.12,0-.17,0Z"/><path class="cls-5" d="M160.11,18.07l-.05-.06L160,18l0,0,0,.05v.13l0,0,0,0a.14.14,0,0,0,.19,0c.11,0,.12-.09.12-.12a.08.08,0,0,0,0-.05h0v-.05l0-.05a.17.17,0,0,0-.16,0Z"/><path class="cls-5" d="M159.53,15.5h0a.3.3,0,0,0,0,.1v0l0,0,0,0,0,0a.3.3,0,0,0,.22,0l0,0,0,0,0,0v-.06s0,0,0,0l0,0a.22.22,0,0,0-.11-.17l0,0,0,0h-.05A.21.21,0,0,0,159.53,15.5Z"/><path class="cls-5" d="M163.54,17.1a.12.12,0,0,0,.1.12.17.17,0,0,0,.17-.11l0-.08,0,0-.07,0C163.55,17,163.54,17.07,163.54,17.1Z"/><path class="cls-5" d="M162.12,16l0,.06a.3.3,0,0,0,0,.1.13.13,0,0,0,.08.13h0a.19.19,0,0,0,.13,0l0,0,0,0a.24.24,0,0,0,0-.11h0l0-.06,0,0,0,0-.06,0h-.06Z"/><path class="cls-5" d="M153.48,16.93v-.07a.35.35,0,0,0,0-.07.2.2,0,0,0,0-.07l0,0,0,0-.06,0a.17.17,0,0,0-.11,0,.09.09,0,0,0-.07,0,.12.12,0,0,0-.09.12v0a.43.43,0,0,1,0,.05.14.14,0,0,0,.07.13h.09a.29.29,0,0,0,.19,0Z"/><path class="cls-5" d="M162,16.55l0,0,0,0v.05a.13.13,0,0,0,0,.08v0l0,0,.06,0a.19.19,0,0,0,.15,0l0,0,0,0,0-.06a.25.25,0,0,0,0-.1.16.16,0,0,0-.09-.14h-.09A.14.14,0,0,0,162,16.55Z"/></g></svg>