<svg xmlns="http://www.w3.org/2000/svg" viewBox="0 0 250.55 212.45"><defs><style>.cls-1{fill:#f4cd98;}.cls-2{fill:none;}.cls-3{fill:#465777;}</style></defs><title>kombucha</title><g id="Layer_2" data-name="Layer 2"><path class="cls-1" d="M68.17,118.56c-21.94-1.64-38.7,7.46-49,26.6-3.43,6.38-2.6,23.55,8.63,38.08,5.51,7.12,10.13,8.61,14,9.44,73.64,15.76,137.88,10.92,190.75-14.37,3.38-1.61,6.81-4.29,4.21-13.63C234,154.52,224.92,141.19,218,134.87s-12.32-7.42-17.33-8.28q-75.9-13-142.72-7.13"/><rect class="cls-2" x="205.01" y="146.37" width="16.71" height="17.53" transform="translate(-45.9 106.43) rotate(-25.38)"/><path class="cls-3" d="M216.48,150.75v0s0,0,0,0a.09.09,0,0,0-.08,0h-.05a.16.16,0,0,0-.08.06.17.17,0,0,0,0,.1.15.15,0,0,0,.09.06l0,0,.06,0Z"/><path class="cls-3" d="M214.49,153.38v0a.16.16,0,0,0,.15.08l0,0,0,0v-.07l0,0h0v0l0,0h-.06s-.08,0-.09.08Z"/><path class="cls-3" d="M212.59,154.42l0,0,0,0h-.07a.22.22,0,0,0-.08.09v.09l0,0a.11.11,0,0,0,.14-.06h0l0,0v-.07Z"/><path class="cls-3" d="M210.29,147.89s0-.06-.11-.06l-.05,0,0,0v.05h0a.08.08,0,0,0,.09.05h.06l0,0Z"/><path class="cls-3" d="M213,158.65a.13.13,0,0,0,.09,0l0,0v0h0v0l0,0,0,0a.12.12,0,0,0-.11,0h0l0,0v.08A.11.11,0,0,0,213,158.65Z"/><path class="cls-3" d="M212,154.76h0a.16.16,0,0,0,.13.06l.05,0,0,0v-.05l0,0v-.09h0a.17.17,0,0,0,0-.07h0l0,0a.15.15,0,0,0,0-.06.1.1,0,0,0-.08-.05h0a.12.12,0,0,0-.09,0l0,0v.07l0,0h0l0,.05v0s0,0,0,.08Z"/><path class="cls-3" d="M213.76,149.09v0a.09.09,0,0,0-.09-.06h0a.12.12,0,0,0-.1,0l0,0v.07h0s0,0,.06,0h0a.11.11,0,0,0,.12,0l0,0Z"/><path class="cls-3" d="M205.45,153v0a.09.09,0,0,0-.11,0h0l0,0,0,0a.17.17,0,0,0,0,.07.11.11,0,0,0,.2,0Z"/><path class="cls-3" d="M215.7,147.74a.06.06,0,0,0,0,0l0,0,0,0c-.07,0-.12,0-.14,0l0,0v.07a.13.13,0,0,0,0,.06l.05.05h.08a.07.07,0,0,0,.06,0A.06.06,0,0,0,215.7,147.74Z"/><path class="cls-3" d="M207.36,151.18l0,0h0a.1.1,0,0,0-.14,0l0,.05v.06h0a.1.1,0,0,0,0,.05l0,0h.09A.13.13,0,0,0,207.36,151.18Z"/><path class="cls-3" d="M206.16,151.49a.11.11,0,0,0,0-.05.09.09,0,0,0,0-.05.06.06,0,0,0,0-.07l0,0,0,0h-.05a.09.09,0,0,0-.09,0,.11.11,0,0,0-.08.08.13.13,0,0,0,0,.12.15.15,0,0,0,.18.08l0,0Z"/><path class="cls-3" d="M209.51,150.06h0l0,0h.08l0,0,0,0V150l0,0h0a.09.09,0,0,0-.1,0,.1.1,0,0,0,0,.09h0A0,0,0,0,0,209.51,150.06Z"/><path class="cls-3" d="M213.45,151.44h0l0,0s0,0,0,0h0a.09.09,0,0,0,.1.05l0,0v0s0,0,0,0h0l0,0v-.07l-.05,0h0l.05,0,0-.06,0,0a.13.13,0,0,0-.08,0h-.06a.08.08,0,0,0-.06,0l0,0,0,0a.08.08,0,0,0,0,.1A.07.07,0,0,0,213.45,151.44Z"/><path class="cls-3" d="M212.72,148.28l0,.05h.07a.11.11,0,0,0,.1-.12v-.07l0,0h-.11A.12.12,0,0,0,212.72,148.28Z"/><path class="cls-3" d="M211.37,153.17v0a.07.07,0,0,0,0-.06h0V153a.1.1,0,0,0,0-.05h0l0,0,0,0c-.15,0-.19.11-.21.16v.06h0a0,0,0,0,0,0,0h0l0,0,.05,0,0,0a.24.24,0,0,0,.1,0Z"/><path class="cls-3" d="M219.11,149.14v0a.09.09,0,0,0,0-.11v0l0,0,0,0,0,0v0H219a.11.11,0,0,0-.13,0v0a.23.23,0,0,0,0,.14v0l0,0v0l0,0h.17Z"/><path class="cls-3" d="M204.58,155.77v0a.12.12,0,0,0,0-.08.07.07,0,0,0,0,0,.09.09,0,0,0-.08,0l0,0v.07l0,.05,0,0h.08l0,0Z"/><path class="cls-3" d="M208.44,153.89l0,0h-.06s-.06,0-.11,0l0,0a.11.11,0,0,0,0,.08.08.08,0,0,0,.06.05h0l0,0h.06A.13.13,0,0,0,208.44,153.89Z"/><path class="cls-3" d="M208.09,155.6v0l0,0h0c-.09,0-.13,0-.15.07v0h0a.13.13,0,0,0,0,.11h0l0,0h0a.14.14,0,0,0,.09,0l0,0A.21.21,0,0,0,208.09,155.6Z"/><path class="cls-3" d="M210.53,153.52v0s0,0,0,0l0,0h-.07a.14.14,0,0,0-.11.05.14.14,0,0,0,0,.09l0,0v0h0a.1.1,0,0,0,.11,0,.09.09,0,0,0,.06-.07Z"/><path class="cls-3" d="M208.65,151.91v-.09a.14.14,0,0,0-.09-.08h0c-.08,0-.1.08-.1.11v0l0,0,0,0a.11.11,0,0,0,.16,0Z"/><path class="cls-3" d="M212,151.45v0s0,0,0-.06v0l0,0h-.13c-.07,0-.08.09-.06.12h0a.11.11,0,0,0,0,.05v0l0,0h.06a.07.07,0,0,0,.07,0Z"/><path class="cls-3" d="M214.47,150.11a.08.08,0,0,0,.09,0,.08.08,0,0,0,0-.08l0,0,0,0v0s-.06,0-.1,0a.08.08,0,0,0-.05.08l0,.05,0,0Z"/><path class="cls-3" d="M214.19,145.25v-.06l0-.05,0,0h0a.09.09,0,0,0-.08,0l0,0v.08l0,0h0l0,0,0,0h.08Z"/><path class="cls-3" d="M206.23,149.52a.1.1,0,0,0,0-.09l0,0h-.06l-.08,0,0,0,0,0v.07c.06.12.14.11.18.09l0,0Z"/><path class="cls-3" d="M219.08,161.78l0,0,0,0h.07a.11.11,0,0,0,.06-.06s0-.06,0-.11h0l0,0h-.06a.12.12,0,0,0-.08.05A.11.11,0,0,0,219.08,161.78Z"/><path class="cls-3" d="M216.09,159.31v-.05l0,0,0,0h0l0,0,0,0v0a.09.09,0,0,0,.07.06.1.1,0,0,0,.07,0l0,0Z"/><path class="cls-3" d="M217.41,158.48a.13.13,0,0,0,0-.11.1.1,0,0,0-.14-.06h0s-.06,0-.07.09v0s0,0,0,0l0,0,.06,0h.06l0,0Z"/><path class="cls-3" d="M214.29,160.78v-.07a.13.13,0,0,0-.09-.08.15.15,0,0,0-.13.05l0,0v.07a.13.13,0,0,0,0,.06l0,0h.05a.15.15,0,0,0,.16-.09Z"/><path class="cls-3" d="M215.65,160.2v0l0,0h-.07l0,0,0,0v.07a.64.64,0,0,1,0,.07.12.12,0,0,0,.09.06h0a.1.1,0,0,0,.08-.07A.15.15,0,0,0,215.65,160.2Z"/><path class="cls-3" d="M209.06,163.06l0,0,0,0h-.06l0,0,0,0v0h0l0,0,0,0H209A.1.1,0,0,0,209.06,163.06Z"/><path class="cls-3" d="M210.55,160.7l0,0h-.06a.11.11,0,0,0-.08.06.09.09,0,0,0,0,.09v0l0,0h.07A.12.12,0,0,0,210.55,160.7Z"/><path class="cls-3" d="M219.45,156.91h0v-.07a.13.13,0,0,0-.16-.06l0,0,0,0v.06a.08.08,0,0,0,.05.05.1.1,0,0,0,.1,0l0,0Z"/><path class="cls-3" d="M213.52,160.3v-.09l0,0h-.08a.08.08,0,0,0-.06.11l0,0,0,0a.11.11,0,0,0,.14,0Z"/><path class="cls-3" d="M206.54,157.1a.1.1,0,0,0-.06,0h0a.1.1,0,0,0-.05.16h0v0l0,0h0a.11.11,0,0,0,.07-.06A.09.09,0,0,0,206.54,157.1Z"/><path class="cls-3" d="M219.83,158.32l0,0,0,0h-.06l0,0,0,0,0,0v.09l0,0,0,0h.07l.07-.07A.12.12,0,0,0,219.83,158.32Z"/><path class="cls-3" d="M218.65,160.09l0,0h0a.1.1,0,0,0-.09,0l0,0,0,0v0a.43.43,0,0,0,0,0,.1.1,0,0,0,.13.05A.09.09,0,0,0,218.65,160.09Z"/><path class="cls-3" d="M217,162.82h.05l0,0,0,0v-.09h0v0h0a.09.09,0,0,0-.09,0,.17.17,0,0,0-.06.1l0,0Z"/><path class="cls-3" d="M210.87,163.59h0s.05-.08,0-.1h0v0a.15.15,0,0,0-.08-.08.17.17,0,0,0-.13,0l0,0v0a.12.12,0,0,0,0,.08l0,0h0v0a.11.11,0,0,0,.11,0l0,0Z"/><path class="cls-3" d="M212.76,165.1a.09.09,0,0,0,0-.07.11.11,0,0,0,0-.08.18.18,0,0,0-.12-.09h0a.17.17,0,0,0-.11.09.18.18,0,0,0,0,.14l0,0,0,0h.08S212.72,165.17,212.76,165.1Z"/><path class="cls-3" d="M209.45,159.79a.13.13,0,0,0,.06.07h.07c.11-.06.09-.13.07-.16v0l0,0h-.12l0,0v.09Z"/><path class="cls-3" d="M212.14,162.28v0h0a.1.1,0,0,0-.07-.06l0,0H212l0,0h0a.1.1,0,0,0-.06.1v0a.12.12,0,0,0,.12.08.12.12,0,0,0,.12-.08Z"/><path class="cls-3" d="M215.13,162.31a.07.07,0,0,0,0-.09.13.13,0,0,0,0-.06.12.12,0,0,0-.05,0H215l0,0v.11a.16.16,0,0,0,.18.09l0,0Z"/><path class="cls-3" d="M221.76,158.41h0s0,0,0,.05h0v0a.1.1,0,0,0,.09,0h0l0,0,0,0,.05,0v-.08l0,0a.15.15,0,0,0-.2,0A.09.09,0,0,0,221.76,158.41Z"/><path class="cls-3" d="M213.38,162.43l-.07,0h0l0,0h0l0,.07a.1.1,0,0,0,.13,0l0-.06A.11.11,0,0,0,213.38,162.43Z"/><path class="cls-3" d="M209.91,157.52H210a.18.18,0,0,0,.09,0,.09.09,0,0,0,0,0l0,0v0a.11.11,0,0,0,0-.05h0l0,0H210a.12.12,0,0,0-.09.08.17.17,0,0,0,0,.12A.08.08,0,0,0,209.91,157.52Z"/><path class="cls-3" d="M214,155.91v0h0v-.08l0,0h0v0l0,0h-.08l-.07,0a.15.15,0,0,0-.05.07h0a.08.08,0,0,0,0,.08s0,0,.07.05h.09a.08.08,0,0,0,.07,0Z"/><path class="cls-3" d="M211.51,157.06h0V157a.11.11,0,0,0,0-.08.08.08,0,0,0-.05-.05h0l0,0h0a.08.08,0,0,0-.07,0l0,0h0a.05.05,0,0,0,0,0l0,0,0,0V157a.3.3,0,0,0,0,.12v0l0,0,0,0h.16A.15.15,0,0,0,211.51,157.06Z"/><path class="cls-3" d="M207.48,158.73l0,0s0,0,0,0a.1.1,0,0,0-.13-.05.09.09,0,0,0,0,.12l0,0,0,0h.09l0,0Z"/><path class="cls-3" d="M216.1,154.16h0s0,0,0,0v-.05l0,0-.05,0a.18.18,0,0,0-.09,0h0a.06.06,0,0,0,0,.06v0a.13.13,0,0,0,0,.06l0,0a0,0,0,0,1,0,0l0,0,0,0h0a.16.16,0,0,0,.14-.09Z"/><path class="cls-3" d="M215.08,156.26v0a0,0,0,0,0,0,0,.09.09,0,0,0,0,0A.25.25,0,0,0,215,156h-.07a.21.21,0,0,0,0,.27v0H215l0,0A.08.08,0,0,0,215.08,156.26Z"/><path class="cls-3" d="M218.41,152.91s0,0,0,0l0,0,0,0h.06l.05,0,0,0v-.07l0,0v0h0a.14.14,0,0,0-.11,0l0,0,0,0Z"/><path class="cls-3" d="M213.51,154.75v0h0a.09.09,0,0,0,0-.07.14.14,0,0,0,0-.06l0,0h0l0,0h-.06a.14.14,0,0,0-.08.06l0,.05v0h0a.13.13,0,0,0,0,.08v0l0,0h.07Z"/><path class="cls-3" d="M208.25,160.6a.15.15,0,0,0,0-.06v0a.08.08,0,0,0,0-.07l0,0h0a.14.14,0,0,0-.13,0l0,0v.06s0,.06,0,.09a.2.2,0,0,0,.13.08l0,0,0,0Z"/><path class="cls-3" d="M219.34,155.59a.09.09,0,0,0,0,.07l0,0h0a.13.13,0,0,0,.07,0l.06,0a.12.12,0,0,0,.05-.16l0-.05h-.07A.13.13,0,0,0,219.34,155.59Z"/><path class="cls-3" d="M221.8,153.54v-.06a.19.19,0,0,0,0-.07.14.14,0,0,0-.09-.08.15.15,0,0,0-.11,0l0,0v.15l0,0a.14.14,0,0,0,.18,0Z"/><path class="cls-3" d="M220.48,155.13h0v.05s0,0,0,0a.15.15,0,0,0,.14.08.08.08,0,0,0,.07-.08h0v-.06a.13.13,0,0,0-.09-.09h-.08A.05.05,0,0,0,220.48,155.13Z"/><path class="cls-3" d="M210.07,155.89v0a.15.15,0,0,0,0-.06l0,0,0,0a.11.11,0,0,0-.11,0,.14.14,0,0,0-.06.12v0l0,0h0a.14.14,0,0,0,.1,0Z"/><path class="cls-3" d="M214.77,158v0s0-.05-.11,0-.09.06-.09.07v.06a.09.09,0,0,0,.1,0s.08,0,.1-.07Z"/><path class="cls-3" d="M213.29,157l.05,0,0,0V157l0-.06v0h0s-.08,0-.12.07a.08.08,0,0,0,0,.11l0,0h0l0,0,0,0a.14.14,0,0,0,.11-.05Z"/><path class="cls-3" d="M214.41,158.48h0a.17.17,0,0,0,0-.07v0l0,0,0,0h0a.25.25,0,0,0-.16,0v0a.08.08,0,0,0,0,0l0,0v.05l0,0v0a.12.12,0,0,0,.11.07l0,0h.06A.13.13,0,0,0,214.41,158.48Z"/><path class="cls-3" d="M211.41,158.64a.1.1,0,0,0-.1,0,.11.11,0,0,0-.08.12l0,0,0,0h.05A.11.11,0,0,0,211.41,158.64Z"/><path class="cls-3" d="M212.62,158.91v0a.17.17,0,0,0,0-.07.1.1,0,0,0-.09-.06h0a.13.13,0,0,0-.09,0v.05a.12.12,0,0,0,0,.08h0l0,0h.11l0,0Z"/><path class="cls-3" d="M217.82,155.79v.05a.11.11,0,0,0,0,0,.05.05,0,0,0,0,0l0,0H218a.13.13,0,0,0,.08,0,.1.1,0,0,0,0-.05.07.07,0,0,0,0-.09l0,0s0,0,0,0a.11.11,0,0,0-.08-.07h-.07a.22.22,0,0,0-.1.08Z"/><path class="cls-3" d="M212.52,158.55v-.1a.18.18,0,0,0,0-.06l0,0,0,0h-.05a.11.11,0,0,0-.09,0l0,0v.07a.25.25,0,0,0,0,.07.09.09,0,0,0,.09.06l0,0h0Z"/><rect class="cls-2" x="206.58" y="158.67" width="17.53" height="16.71" transform="translate(-47.41 94.71) rotate(-22.41)"/><path class="cls-3" d="M211.13,163.69h-.08a.11.11,0,0,0-.06.07v.06a.11.11,0,0,0,.06.07.12.12,0,0,0,.1,0,.09.09,0,0,0,.06-.08l0-.05a.08.08,0,0,0,0-.06Z"/><path class="cls-3" d="M213.65,165.8h0a.18.18,0,0,0,.1-.15l0,0,0,0h-.06l0,0h0l0,0v.06a.15.15,0,0,0,.08.1Z"/><path class="cls-3" d="M214.59,167.76h0l0,0v.08a.2.2,0,0,0,.08.08l.05,0h0l0,0a.13.13,0,0,0-.05-.15h0l0,0Z"/><path class="cls-3" d="M208,169.71a.11.11,0,0,0-.06.11l0,.05,0,0H208a.1.1,0,0,0,.06-.09v-.06l0,0Z"/><path class="cls-3" d="M218.84,167.59a.18.18,0,0,0,0-.09l0,0h-.12l0,0a.1.1,0,0,0,0,.11h0v0l0,0h.05S218.83,167.63,218.84,167.59Z"/><path class="cls-3" d="M214.9,168.33h0a.2.2,0,0,0,.06-.14v-.05l0,0h-.05l0,0h-.1a0,0,0,0,0-.06,0h-.08a.13.13,0,0,0-.06.07v0a.16.16,0,0,0,0,.09h.1l.05,0h0v0l0,0h.11Z"/><path class="cls-3" d="M209.33,166.32h0a.09.09,0,0,0-.06.09h0a.13.13,0,0,0,0,.1l0,0h.08s0,0,.05-.06a0,0,0,0,0,0,0,.11.11,0,0,0,0-.12l0,0Z"/><path class="cls-3" d="M212.76,174.81h0a.08.08,0,0,0-.06.1v0l0,0,0,0h.06a.1.1,0,0,0,.07-.09.11.11,0,0,0-.06-.1Z"/><path class="cls-3" d="M208.08,164.3s0,0,0,0h0l0,0a.1.1,0,0,0,0,.14l0,0h.07l.07,0a.07.07,0,0,0,0,0v-.06h0a.09.09,0,0,0-.05-.07A.06.06,0,0,0,208.08,164.3Z"/><path class="cls-3" d="M211.09,172.81l0,0,0,0h0a.1.1,0,0,0,0,.14l0,0h.08l.05,0,0,0v-.09A.13.13,0,0,0,211.09,172.81Z"/><path class="cls-3" d="M211.33,174a0,0,0,0,0,0,0h0a.06.06,0,0,0-.07,0h0l0,0h0v0a.15.15,0,0,0,0,.1.15.15,0,0,0,.08.08.13.13,0,0,0,.12,0,.13.13,0,0,0,.09-.17l0,0Z"/><path class="cls-3" d="M210.08,170.61h0l0,0v-.09l0,0,0,0H210l0,0v0h0a.09.09,0,0,0,0,.1.1.1,0,0,0,.09,0h0Z"/><path class="cls-3" d="M211.66,166.74h0l.05,0,0-.05h0a.09.09,0,0,0,0-.1l0,0h0l0,0h0l0,0-.06,0v.05h0l0-.05h-.06l0,0a.13.13,0,0,0-.05.08v.06a.08.08,0,0,0,0,.06v.06l0,0a.08.08,0,0,0,.1,0S211.66,166.77,211.66,166.74Z"/><path class="cls-3" d="M208.47,167.3l.05,0v0l0,0v0a.13.13,0,0,0-.12-.11h0l0,0,0,0a.11.11,0,0,0,0,.05v.07A.11.11,0,0,0,208.47,167.3Z"/><path class="cls-3" d="M213.28,168.91h0s0,0-.06,0h-.1a.07.07,0,0,0-.05,0h0l0,0,0,0a.18.18,0,0,0,.15.21h.12a.06.06,0,0,0,0-.05l0,0a.12.12,0,0,0,0-.1Z"/><path class="cls-3" d="M209.66,161h0a.11.11,0,0,0-.11,0l0,0,0,0v0h0l0,0v.05a0,0,0,0,1,0,0,.11.11,0,0,0,0,.13v0a.25.25,0,0,0,.14,0h0l0,0h0l0,0v-.08s0,0,0,0a.13.13,0,0,0,0-.06Z"/><path class="cls-3" d="M215.53,175.83h-.11a.1.1,0,0,0,0,0,.12.12,0,0,0,0,.09l0,0h.07l.05,0,0,0v-.08l0,0Z"/><path class="cls-3" d="M213.84,171.87l0,0,0,0v0h0a.15.15,0,0,0,0,.11h0a.08.08,0,0,0,.08,0A.16.16,0,0,0,214,172h0l0,0v-.07S213.94,171.83,213.84,171.87Z"/><path class="cls-3" d="M215.54,172.31h0l0,0,0,0c0,.1,0,.14.06.16h0s.06,0,.1,0h0l0,0v0a.09.09,0,0,0,0-.09v0A.23.23,0,0,0,215.54,172.31Z"/><path class="cls-3" d="M213.59,169.77h-.09l0,0v.07a.14.14,0,0,0,.05.11.11.11,0,0,0,.08,0l0,0h0v0a.1.1,0,0,0,0-.11.09.09,0,0,0-.07-.06Z"/><path class="cls-3" d="M211.89,171.56h-.1s-.06,0-.08.09v0a.16.16,0,0,0,.11.11h0l0,0,0,0a.11.11,0,0,0,0-.16Z"/><path class="cls-3" d="M211.59,168.17h0a.07.07,0,0,0-.06,0h0l0,0v0h0l0,0v0a.09.09,0,0,0,.12.06h.08l0-.05v-.05a.1.1,0,0,0,0-.08Z"/><path class="cls-3" d="M210.39,165.66a.12.12,0,0,0,0-.1.09.09,0,0,0-.07,0l-.05,0,0,0h0s0,.06,0,.1a.08.08,0,0,0,.08.05l0,0,0,0Z"/><path class="cls-3" d="M205.52,165.68h-.06l-.05,0,0,0v.05a.1.1,0,0,0,0,.08l0,0h.08a.07.07,0,0,0,0,0h0l0,0,0,0v-.05h0v0Z"/><path class="cls-3" d="M209.37,173.85a.1.1,0,0,0-.09,0l0,0v.06a.15.15,0,0,0,0,.08l0,0,0,0h.07c.12-.05.11-.13.1-.17l0,0Z"/><path class="cls-3" d="M222.28,161.65h0l0,0v-.07a.1.1,0,0,0-.05-.07.15.15,0,0,0-.11,0h0l0,0v.06a.09.09,0,0,0,0,.08A.11.11,0,0,0,222.28,161.65Z"/><path class="cls-3" d="M219.66,164.51h-.06l0,0,0,0a.1.1,0,0,0,0,0l0,0,0,0h0s.05,0,.06-.07a.09.09,0,0,0,0-.07l0,0Z"/><path class="cls-3" d="M218.89,163.15a.11.11,0,0,0-.1,0,.11.11,0,0,0-.07.13h0a.11.11,0,0,0,.09.07h0l0,0,0,0,0-.05v-.09Z"/><path class="cls-3" d="M221,166.39H221a.15.15,0,0,0-.08.09.16.16,0,0,0,0,.14h.16l0,0,0,0v0a.15.15,0,0,0-.09-.16Z"/><path class="cls-3" d="M220.53,165h0l0,0v.07l0,0,0,0h.06l.07,0a.1.1,0,0,0,.07-.08v0a.11.11,0,0,0-.06-.08A.12.12,0,0,0,220.53,165Z"/><path class="cls-3" d="M223,171.73l0,0,0,.05a.35.35,0,0,0,0,.06l0,0,0,0h0v0l.05,0,0,0v-.06A.1.1,0,0,0,223,171.73Z"/><path class="cls-3" d="M220.76,170.12l0,0v.07a.11.11,0,0,0,.06.08.09.09,0,0,0,.09,0h0l0,0v-.07A.12.12,0,0,0,220.76,170.12Z"/><path class="cls-3" d="M217.44,161l0,0v0h-.08a.15.15,0,0,0-.06.16l0,0,0,0h.06l0,0a.1.1,0,0,0,0-.09l0,0Z"/><path class="cls-3" d="M220.51,167.13h-.09l0,0v.09a.1.1,0,0,0,.11.07l0,0,0,0a.09.09,0,0,0,0-.13Z"/><path class="cls-3" d="M217,173.93a.17.17,0,0,0-.06.06v.06s0,.09.16.06v0h0l0,0v0a.08.08,0,0,0-.05-.08A.12.12,0,0,0,217,173.93Z"/><path class="cls-3" d="M218.87,160.73s0,0-.05,0l0,0v.1l0,0,0,0H219l0,0v-.06a.11.11,0,0,0-.06-.07Z"/><path class="cls-3" d="M220.57,162l0,0v0a.08.08,0,0,0,0,.09v0l0,0h.08a.1.1,0,0,0-.06-.2Z"/><path class="cls-3" d="M223.21,163.76v-.06l0,0,0,0h-.12v0a.1.1,0,0,0,0,.09.09.09,0,0,0,.09.06l0,0Z"/><path class="cls-3" d="M223.66,170h0a.1.1,0,0,0-.1-.05h0a.13.13,0,0,0-.09.08.16.16,0,0,0,0,.13l0,0h0a.08.08,0,0,0,.08,0l0,0h0s.06,0,.05-.1l0,0Z"/><path class="cls-3" d="M225.26,168.14h-.14a.23.23,0,0,0-.1.12v.05a.17.17,0,0,0,.09.11.12.12,0,0,0,.13,0l0,0,0,0v-.05s0,0,0,0A.11.11,0,0,0,225.26,168.14Z"/><path class="cls-3" d="M219.79,171.18a.22.22,0,0,0,.07-.06v-.07c-.05-.11-.12-.1-.15-.08h0l0,0v.07a.18.18,0,0,0,0,.06l0,0h.09Z"/><path class="cls-3" d="M222.42,168.61h0a.15.15,0,0,0-.07.07.06.06,0,0,0,0,0v.05h0a.09.09,0,0,0,.1.06h0a.15.15,0,0,0,.09-.13.12.12,0,0,0-.08-.11Z"/><path class="cls-3" d="M222.6,165.63a.09.09,0,0,0-.09,0h0s-.05,0-.05.05v.07a.2.2,0,0,0,0,.07l0,0,0,0h.08a.15.15,0,0,0,.1-.18l0,0Z"/><path class="cls-3" d="M219.05,158.81h.09a.1.1,0,0,0,.05-.08v0l0,0s0,0,0,0l0,0,0,0h0l0,0a.13.13,0,0,0,0,.19A.08.08,0,0,0,219.05,158.81Z"/><path class="cls-3" d="M222.63,167.38l0,.08h0l0,0h0v0l.07,0a.1.1,0,0,0,.06-.13.09.09,0,0,0-.06-.06Z"/><path class="cls-3" d="M217.55,170.6v0h0a.08.08,0,0,0,0-.08.07.07,0,0,0-.05,0l0,0h-.05a.11.11,0,0,0,0,0h0v0h0l0,0v0a.13.13,0,0,0,.07.09.17.17,0,0,0,.12,0Z"/><path class="cls-3" d="M216.15,166.4h-.1l0,0h0l0,0a.18.18,0,0,0,0,.06v0l0,.06a.17.17,0,0,0,.07.06h0a.08.08,0,0,0,.08,0,.06.06,0,0,0,0-.06v-.08h0a.15.15,0,0,0,0-.07Z"/><path class="cls-3" d="M217.18,169H217a.12.12,0,0,0,0,.05h0l0,0v0a.14.14,0,0,0,0,.07l0,0h0l0,.05,0,0,0,0h.05a.3.3,0,0,0,.12,0h0l0,0,0,0v-.06l0,0h0v-.06A.16.16,0,0,0,217.18,169Z"/><path class="cls-3" d="M218.63,173.08h-.08a.12.12,0,0,0-.06.13.11.11,0,0,0,.12.07l0,0,0,0v0s0,0,0,0v0Z"/><path class="cls-3" d="M214.52,164.24h-.09l0,0,0,.05a.18.18,0,0,0,0,.09h0s0,0,.06,0h.1l0,0h0l0,0v-.06a.19.19,0,0,0-.08-.14Z"/><path class="cls-3" d="M216.56,165.37h-.05s0,0,0,0h-.05a.17.17,0,0,0-.11.11v.07a.22.22,0,0,0,.27.07h0v0a.06.06,0,0,0,0,0,.06.06,0,0,0,0-.06l0,0A.08.08,0,0,0,216.56,165.37Z"/><path class="cls-3" d="M213.39,161.86h0l0,0,0,0v-.06l0-.05,0,0,0,0h0l0,0,0,0h0v0a.17.17,0,0,0,0,.12l0,0h.07Z"/><path class="cls-3" d="M215,166.86l0,0h0l-.06,0h-.07l0,0h0l0,0v.06a.13.13,0,0,0,.06.09l0,0H215l0,0v-.08h0Z"/><path class="cls-3" d="M220.54,172.41l0,0h-.11l0,0,0,0v0a.13.13,0,0,0,0,.13l0,0h.05a.15.15,0,0,0,.09,0,.12.12,0,0,0,.08-.11v0h0Z"/><path class="cls-3" d="M216.11,161.07a.07.07,0,0,0,.07,0l0,0h0a.09.09,0,0,0,0-.07s0,0,0,0a.11.11,0,0,0-.15-.06l-.06,0V161A.1.1,0,0,0,216.11,161.07Z"/><path class="cls-3" d="M214.19,158.51h-.06l-.07,0c-.05,0-.08,0-.08.08a.13.13,0,0,0,0,.12l0,0h.12l0,0,0,0a.13.13,0,0,0,0-.17Z"/><path class="cls-3" d="M215.71,159.91h0l0,0h.07a.15.15,0,0,0,.09-.13s0-.08-.07-.08h-.08s-.08,0-.09.09v.08Z"/><path class="cls-3" d="M215.93,170.35h-.11l0,0,0,0a.11.11,0,0,0,0,.11.12.12,0,0,0,.11.07l.05,0,0,0,0-.05a.15.15,0,0,0,0-.1Z"/><path class="cls-3" d="M218.32,165.77h0s-.05,0-.05.11a.18.18,0,0,0,.07.1h.06a.08.08,0,0,0,0-.1s0-.08-.07-.1Z"/><path class="cls-3" d="M217.23,167.19l0-.05,0,0h-.07l-.06,0,0,0v0s0,.08.06.12a.08.08,0,0,0,.11,0l0,0h0l0,0,0,0a.1.1,0,0,0,0-.1Z"/><path class="cls-3" d="M218.74,166.15h0s0,0-.07,0h0l0,0,0,0v0a.21.21,0,0,0,0,.15l0,0h0l0,0h0s0,0,0,0h0a.15.15,0,0,0,.09-.12v-.08A.14.14,0,0,0,218.74,166.15Z"/><path class="cls-3" d="M218.75,169.16a.07.07,0,0,0-.05.09.11.11,0,0,0,.11.08l.05,0,0,0v0C218.82,169.14,218.77,169.15,218.75,169.16Z"/><path class="cls-3" d="M219.07,168H219s-.07,0-.06.09v0a.12.12,0,0,0,0,.09H219a.13.13,0,0,0,.08,0h0l0,0v-.06s0,0,0,0l0,0Z"/><path class="cls-3" d="M216.24,162.6h.09s0,0,0,0v-.09a.13.13,0,0,0,0-.08.08.08,0,0,0,0,0,.1.1,0,0,0-.1,0l0,0h0s-.06,0-.06.08v.07a.18.18,0,0,0,.08.11Z"/><path class="cls-3" d="M218.72,168h-.16l0,0,0,0v0s0,.06,0,.09l0,0h.14a.11.11,0,0,0,.07-.09l0,0h0A.14.14,0,0,0,218.72,168Z"/><rect class="cls-2" x="201.53" y="169.18" width="17.53" height="16.71" transform="translate(-45.95 277.94) rotate(-61.57)"/><path class="cls-3" d="M204.92,177.6h0l0,0a.14.14,0,0,0,0,.09v0l0,0a.12.12,0,0,0,.1,0,.16.16,0,0,0,.08-.06.12.12,0,0,0,0-.1l0,0-.06,0Z"/><path class="cls-3" d="M208.21,177.66v0h0a.19.19,0,0,0,0-.18l-.05,0h0l0,0,0,0h0l0,0v0l0,.06a.25.25,0,0,0,.13,0Z"/><path class="cls-3" d="M210.17,178.58v.07l0,0,0,0h.17l0,0v-.06a.11.11,0,0,0-.13-.07h-.06Z"/><path class="cls-3" d="M206.26,184.29a.11.11,0,0,0,0,.12l.05,0h0l0,0h0a.09.09,0,0,0,0-.11l0,0h0Z"/><path class="cls-3" d="M213.36,175.76a.14.14,0,0,0-.07,0h0l0,0,0,0,0,0,0,0v0a.09.09,0,0,0,.09.07h.07l0,0A.2.2,0,0,0,213.36,175.76Z"/><path class="cls-3" d="M210.78,178.83v0a.17.17,0,0,0,0-.14l0,0h0l0,0h-.09l0,0h0a.12.12,0,0,0,0,.05h0v0l0,.05a.08.08,0,0,0,0,.09l0,0a.1.1,0,0,0,.07.05h0l0,0,0,0a.08.08,0,0,1,0,0h.07v0a.09.09,0,0,0,.06,0Z"/><path class="cls-3" d="M205.19,180.78l0,0a.1.1,0,0,0,0,.12h0a.14.14,0,0,0,.08.07h.06l0,0h0a.11.11,0,0,0,0-.08s0,0,0,0a.11.11,0,0,0-.09-.09h-.06Z"/><path class="cls-3" d="M213.2,185.2v0h0a.09.09,0,0,0,0,.12l0,0h.07a.08.08,0,0,0,0,0,.11.11,0,0,0,0-.11.1.1,0,0,0-.11,0Z"/><path class="cls-3" d="M202.94,180l0,0,0,0v.05a.1.1,0,0,0,.09.1h0l0,0,0,0,0,0a.17.17,0,0,0,0-.07l0-.05h0a.1.1,0,0,0-.09,0A.1.1,0,0,0,202.94,180Z"/><path class="cls-3" d="M210.65,184.71v.08h0a.11.11,0,0,0,.09.11h0l0,0v0a.13.13,0,0,0,0-.06.06.06,0,0,0,0,0l0,0v0l0,0A.15.15,0,0,0,210.65,184.71Z"/><path class="cls-3" d="M211.61,185.5h-.06l0,0-.06,0v.1a.18.18,0,0,0,.06.08.14.14,0,0,0,.11,0,.16.16,0,0,0,.1-.08.15.15,0,0,0,0-.19h-.07Z"/><path class="cls-3" d="M208.48,183.63h0v-.07l0,0h-.1l0,0v.07h0c0,.05,0,.07.06.07a.07.07,0,0,0,.09,0h0Z"/><path class="cls-3" d="M207.26,179.64h0a.13.13,0,0,0,0-.06.07.07,0,0,0,0-.05h0a.11.11,0,0,0,0-.12h-.16l-.06,0,0,0h0l-.06,0,0,0v.05a.11.11,0,0,0,0,.1h0l0,0a.07.07,0,0,0,0,0l0,0h0a.08.08,0,0,0,.1,0S207.27,179.67,207.26,179.64Z"/><path class="cls-3" d="M205.14,182.09s0,0,0-.05V182l0,0a.11.11,0,0,0-.15,0l0,0,0,0v0a.08.08,0,0,0,0,.05h0l0,0A.11.11,0,0,0,205.14,182.09Z"/><path class="cls-3" d="M209.88,180.3h0a.08.08,0,0,0-.07,0h-.06l0,0a.14.14,0,0,0,0,.06h0v.07c.07.13.21.08.25.07l0-.05h0l0,0h0v0a.08.08,0,0,0,0-.06v0a.15.15,0,0,0-.07-.07Z"/><path class="cls-3" d="M202.07,176.43h0a.12.12,0,0,0-.1.05l0,0v.06h0v0l0,0a0,0,0,0,1,0,0,.15.15,0,0,0,.1.1h0a.35.35,0,0,0,.14-.06v-.06h0v0l0,0,0,0,0,0,0,0Z"/><path class="cls-3" d="M216,184.25h0l-.05.05a.09.09,0,0,0,0,.07.08.08,0,0,0,.05.06h0l0,0,0,0,0,0v-.07l0,0H216Z"/><path class="cls-3" d="M212.19,182.24v.08l0,0h0a.14.14,0,0,0,.09.07h0a.1.1,0,0,0,.06,0,.12.12,0,0,0,0-.08h0v0l0-.05A.14.14,0,0,0,212.19,182.24Z"/><path class="cls-3" d="M213.78,181.51l0,0v.07c.06.08.11.09.15.08h0a.1.1,0,0,0,.09-.06h0v-.07s0-.05,0-.07h0A.25.25,0,0,0,213.78,181.51Z"/><path class="cls-3" d="M210.67,180.77h0v0l0,0v.08l0,0a.12.12,0,0,0,.1.05.12.12,0,0,0,.08,0v-.08a.11.11,0,0,0,0-.1.1.1,0,0,0-.09,0Z"/><path class="cls-3" d="M210.48,183.24h0l0,0,0,0a.14.14,0,0,0,0,.12l0,0a.15.15,0,0,0,.16,0l0,0v-.07a.12.12,0,0,0-.1-.13Z"/><path class="cls-3" d="M208.11,180.79h0l-.06,0v.09h0v0l0,0a.11.11,0,0,0,.14,0h0s0,0,0,0v0l0-.06,0,0a.08.08,0,0,0-.07,0Z"/><path class="cls-3" d="M205.59,179.6a.15.15,0,0,0-.07-.07l-.08,0v.08h0a.09.09,0,0,0,0,.08.08.08,0,0,0,.09,0l0,0v-.08Z"/><path class="cls-3" d="M201.83,182.7l-.05,0,0,.05v0l0,0a.11.11,0,0,0,.06.06h.06l0,0h0a.16.16,0,0,0,0,0h0v-.07l0,0h0l0,0Z"/><path class="cls-3" d="M210,186.6a.08.08,0,0,0-.08.05v.09a.2.2,0,0,0,0,.08l0,0h0l0,0,0,0a.14.14,0,0,0,0-.2H210Z"/><path class="cls-3" d="M212.28,169v-.09l0,0a.18.18,0,0,0-.09,0,.17.17,0,0,0-.08.07h0V169a.11.11,0,0,0,.09,0A.12.12,0,0,0,212.28,169Z"/><path class="cls-3" d="M212.06,172.86l0,0V173s0,0,0,0h.09l0,0a.09.09,0,0,0,0-.09.1.1,0,0,0-.06-.05h-.06Z"/><path class="cls-3" d="M210.6,172.29a.14.14,0,0,0-.08.07.1.1,0,0,0,0,.14h0s.06,0,.11,0l0,0a.11.11,0,0,0,0,0v0l0-.06,0,0h-.08Z"/><path class="cls-3" d="M214.3,173.45h0l0,0a.13.13,0,0,0,0,.12.16.16,0,0,0,.12.07h.06l0,0,.05-.05v-.08a.16.16,0,0,0-.17-.08Z"/><path class="cls-3" d="M213,172.69l0,0v.07l0,0,0,0h.07l0,0,.05,0a.14.14,0,0,0,0-.11l0,0a.22.22,0,0,0-.1,0A.11.11,0,0,0,213,172.69Z"/><path class="cls-3" d="M219.23,176.33v.09s0,0,0,.05h.09l0,0,0-.05,0,.05,0-.05v0l0-.05A.11.11,0,0,0,219.23,176.33Z"/><path class="cls-3" d="M216.45,176.51v.07l0,0a.08.08,0,0,0,.09,0,.09.09,0,0,0,.08-.06v-.05l0,0,0,0A.12.12,0,0,0,216.45,176.51Z"/><path class="cls-3" d="M208.14,171.57v0h0l0,0a.16.16,0,0,0,.05.17h.1l0,0a.08.08,0,0,0,0-.07.08.08,0,0,0,0-.09h-.07Z"/><path class="cls-3" d="M214.37,174.35l0,0,0,0,0,0v.08l0,0c.07,0,.11,0,.12,0l0,0v0a.11.11,0,0,0-.09-.1Z"/><path class="cls-3" d="M215.91,181.87a.12.12,0,0,0,0,.08l0,0h0s.1,0,.16-.06v0h0v0l0,0a.14.14,0,0,0-.09,0A.16.16,0,0,0,215.91,181.87Z"/><path class="cls-3" d="M209.05,170.43s0,0,0,0v.06l0,0,0,0h.07l0,0v-.12l0,0a.2.2,0,0,0-.1,0A.12.12,0,0,0,209.05,170.43Z"/><path class="cls-3" d="M211.17,170.33v.08a.1.1,0,0,0,0,.08h.07l0,0a.1.1,0,0,0,0-.14A.11.11,0,0,0,211.17,170.33Z"/><path class="cls-3" d="M214.33,170l0,0-.05,0h-.07l0,0v.06a.12.12,0,0,0,.07.07.11.11,0,0,0,.11,0l0,0Z"/><path class="cls-3" d="M218.59,174.55h0a.09.09,0,0,0-.1,0h0v0a.12.12,0,0,0,0,.11.18.18,0,0,0,.1.09h.08a.08.08,0,0,0,.06-.05,0,0,0,0,0,0,0h0a.08.08,0,0,0,0-.11h0Z"/><path class="cls-3" d="M218.69,172.14l-.06,0a.15.15,0,0,0-.06.05.26.26,0,0,0,0,.15v0a.19.19,0,0,0,.14,0s.07,0,.11-.08v-.1l0,0v0S218.77,172.12,218.69,172.14Z"/><path class="cls-3" d="M216.37,177.94a.14.14,0,0,0,0-.09v0h0a.11.11,0,0,0-.17,0v.1l0,0s0,0,0,0h.1Z"/><path class="cls-3" d="M216.79,174.3h0l0,0h0a.1.1,0,0,0,0,.09s0,0,0,0l0,0h0a.09.09,0,0,0,.12,0v0a.12.12,0,0,0,0-.15.12.12,0,0,0-.13,0Z"/><path class="cls-3" d="M215,171.87a.17.17,0,0,0-.13.07.08.08,0,0,0,0,.07v0h0l0,0,.05.05h.1l0,0,0,0a.16.16,0,0,0,0-.2H215Z"/><path class="cls-3" d="M208,168.82h0s0,0,0,0h0a.09.09,0,0,0,0-.1h0l-.05,0h-.09l0,0,0,.05c0,.09,0,.15.09.17A.08.08,0,0,0,208,168.82Z"/><path class="cls-3" d="M216.17,173.21l0,.07h0l0,0h0l.07,0a.09.09,0,0,0,0-.13.11.11,0,0,0-.08,0A.15.15,0,0,0,216.17,173.21Z"/><path class="cls-3" d="M214.26,178.91l0,0h0a.23.23,0,0,0-.07-.06s0,0-.07,0h0l0,0a.1.1,0,0,0,0,.06h0v0h0V179a.14.14,0,0,0,.12,0,.18.18,0,0,0,.1-.07S214.27,178.93,214.26,178.91Z"/><path class="cls-3" d="M210.53,176.54h-.08v.05h0l0,0v0a.1.1,0,0,0,0,.05v0l.07,0h.1s.05,0,.06-.05a.06.06,0,0,0,0-.08v0l0,0v0h0a.12.12,0,0,0,0-.05Z"/><path class="cls-3" d="M213,177.89h0l0,0s-.05,0-.07,0a.06.06,0,0,0,0,.06h0v.05h0l0,.07,0,0h0l0,0H213l.05,0a.24.24,0,0,0,.08-.09V178h0s0,0,0,0h0v0l0,0A.11.11,0,0,0,213,177.89Z"/><path class="cls-3" d="M216.66,180.15l0,0,0,0a.11.11,0,0,0,0,.14.1.1,0,0,0,.13,0v-.07l0,0,0,0,0,0Z"/><path class="cls-3" d="M207.9,175.9h0l0,0,0,0v0l0,.05a.15.15,0,0,0,.07.07h0a.07.07,0,0,0,.08,0h.05a.1.1,0,0,0,0-.05v-.14a.19.19,0,0,0-.16-.06Z"/><path class="cls-3" d="M210.19,175.48s0,0,0,0l0,0,0,0a.18.18,0,0,0,0,.16v0h0a.21.21,0,0,0,.25-.11v-.07l0,0a.05.05,0,0,0,0-.05h0A.12.12,0,0,0,210.19,175.48Z"/><path class="cls-3" d="M205.52,174.76l0,0s0,0,0-.05v-.06l0,0-.05,0h-.07l0,0,0,0v.07a.16.16,0,0,0,.09.07h.06Z"/><path class="cls-3" d="M209.9,177.64h0a.12.12,0,0,0-.07,0,.1.1,0,0,0,0,.05l0,0v.09l0,0a.16.16,0,0,0,.1,0l0,0,0,0v0s0,0,0-.05v-.09l0,0h0Z"/><path class="cls-3" d="M217.72,178.43s0,0-.06,0l0,0a.07.07,0,0,0,0,0s0,0,0,0v0a.15.15,0,0,0,.09.11h.05l0,0,.06-.07a.14.14,0,0,0,0-.14l0,0h0Z"/><path class="cls-3" d="M207.13,172.44l.07,0v-.06a.08.08,0,0,0,0-.07s0,0,0,0a.12.12,0,0,0-.16.06.11.11,0,0,0,0,.06v.06A.12.12,0,0,0,207.13,172.44Z"/><path class="cls-3" d="M204,171.66h0l0,0a.15.15,0,0,0,0,.06.12.12,0,0,0,0,.11.2.2,0,0,0,.09.09h.08l0,0h0l0,0v-.08a.14.14,0,0,0-.11-.14Z"/><path class="cls-3" d="M206.09,171.79h0l0,0,0,0a.12.12,0,0,0,0-.15.08.08,0,0,0-.1,0h0l0,0a.15.15,0,0,0,0,.13l0,0h0S206.07,171.79,206.09,171.79Z"/><path class="cls-3" d="M212.85,179.75h0l0,0s0,0,0,0,0,0,0,0v0a.11.11,0,0,0,.06.09.18.18,0,0,0,.14,0l0,0v-.08a.14.14,0,0,0-.08-.07Z"/><path class="cls-3" d="M211.81,174.68h0l0,0s0,.06,0,.11.1,0,.11,0h0l0,0h0a.08.08,0,0,0,0-.11.17.17,0,0,0-.12,0Z"/><path class="cls-3" d="M211.87,176.47l0-.05h-.06l0,0,0,.06v.07a.11.11,0,0,0,.13,0c.07,0,.1,0,.11,0a.06.06,0,0,0,0,0h0v-.07a.11.11,0,0,0-.1-.06Z"/><path class="cls-3" d="M212.37,174.71h0l0,0v.11a.24.24,0,0,0,.13.09h.1l0,0h0s0,0,0,0h0a.12.12,0,0,0,0-.13v0l0,0,0,0A.16.16,0,0,0,212.37,174.71Z"/><path class="cls-3" d="M214.28,177a.08.08,0,0,0,0,.1.11.11,0,0,0,.14,0l0,0v0l0,0A.1.1,0,0,0,214.28,177Z"/><path class="cls-3" d="M213.78,175.9l-.05,0,0,0a.11.11,0,0,0,0,.11h0a.09.09,0,0,0,.08,0h0l0,0a.1.1,0,0,0,0-.06h0V176l0,0,0,0,0,0,0,0Z"/><path class="cls-3" d="M208.2,173.54l0,0v0a.05.05,0,0,0,0,0,.43.43,0,0,1,0-.05v0l0,0,0,0a.17.17,0,0,0-.06-.06h-.06a.11.11,0,0,0-.09,0v0l0,0a.11.11,0,0,0,0,.11h0l0,0h0a.18.18,0,0,0,.13,0Z"/><path class="cls-3" d="M213.55,176.19h0l0,0,0,0,0,0v.07l0,0a.13.13,0,0,0,.09,0h.05l0,0,0,0a.13.13,0,0,0,0-.12l0,0h0Z"/><rect class="cls-2" x="190.59" y="175.01" width="17.53" height="16.71" transform="translate(-71.42 176.68) rotate(-41.19)"/><path class="cls-3" d="M194.29,181.56h0a.05.05,0,0,0,0,0,.09.09,0,0,0,0,.09h0v0a.16.16,0,0,0,.08.06.14.14,0,0,0,.09,0,.11.11,0,0,0,0-.09l0,0a.08.08,0,0,0-.05-.05Z"/><path class="cls-3" d="M197.36,182.75h0v0a.16.16,0,0,0,.05-.16l0,0h-.1l0,0h0l0,0,0,0v.05a.16.16,0,0,0,.1.08Z"/><path class="cls-3" d="M198.88,184.3l0,0,0,0v0l0,0a.14.14,0,0,0,.1,0H199l0,0,0-.05a.12.12,0,0,0-.09-.12h0l0,0h-.07Z"/><path class="cls-3" d="M193.22,188.29a.1.1,0,0,0,0,.12l0,0,0,0h.06a.11.11,0,0,0,0-.11l0,0,0,0Z"/><path class="cls-3" d="M202.84,182.77a.08.08,0,0,0-.05-.07h-.09l0,0,0,0,0,0a.09.09,0,0,0,.06.1h.07l0,0A.11.11,0,0,0,202.84,182.77Z"/><path class="cls-3" d="M199.36,184.74h0a.24.24,0,0,0,0-.14l0,0,0,0h-.15l0,0h0a.09.09,0,0,0-.06,0h0v0a.05.05,0,0,0,0,0,.07.07,0,0,0,0,.08l0,0a.09.09,0,0,0,.05.08h.06l0,0,0,0h.08a.17.17,0,0,0,.08,0Z"/><path class="cls-3" d="M193.43,184.63h0a.11.11,0,0,0,0,.11h0a.14.14,0,0,0,0,.09h.1a.09.09,0,0,0,0-.07s0,0,0,0a.09.09,0,0,0-.05-.11h-.07Z"/><path class="cls-3" d="M199.41,191.57h0v0a.09.09,0,0,0,0,.12l0,0,0,0h0a.09.09,0,0,0,.06,0,.09.09,0,0,0,0-.11.11.11,0,0,0-.08-.08Z"/><path class="cls-3" d="M191.6,183.12h0l0,0,0,0a.11.11,0,0,0,0,.13h.11l.06,0,0-.06,0-.06h0a.08.08,0,0,0-.07,0A.07.07,0,0,0,191.6,183.12Z"/><path class="cls-3" d="M197.19,190.21l0,0v0h0a.12.12,0,0,0,.05.14h0l.05,0h0l0,0,0,0v-.05l0,0A.14.14,0,0,0,197.19,190.21Z"/><path class="cls-3" d="M197.81,191.29l-.05,0,0,0a.06.06,0,0,0-.07,0h0v.08a.08.08,0,0,0,0,.09.17.17,0,0,0,.1.06.19.19,0,0,0,.12,0,.15.15,0,0,0,0-.19l0,0Z"/><path class="cls-3" d="M195.53,188.45h0l0,0v-.07l0,0,0,0h-.09l0,.05v0h0a.08.08,0,0,0,0,.1s0,0,.09,0h0Z"/><path class="cls-3" d="M195.78,184.28h0a.1.1,0,0,0,0-.05,0,0,0,0,0,0,0h0a.09.09,0,0,0,0-.11l0,0h0l0,0h0l0,0h-.06l0,0h0l0,0-.06,0,0,.05a.1.1,0,0,0,0,.09v0a.08.08,0,0,0,0,0,.09.09,0,0,0,0,.05l0,0,.05,0a.07.07,0,0,0,.1,0A.06.06,0,0,0,195.78,184.28Z"/><path class="cls-3" d="M192.93,185.84l0,0v-.08a.13.13,0,0,0-.15-.07l0,0,0,0,0,0a.43.43,0,0,0,0,.05v.07A.11.11,0,0,0,192.93,185.84Z"/><path class="cls-3" d="M198,185.81h-.14l0,0,0,.05h0v.06c0,.15.16.15.2.16l0,0h0l0,0h0v0a.11.11,0,0,0,0,0v-.05a.1.1,0,0,0,0-.09Z"/><path class="cls-3" d="M192,179.47h0a.09.09,0,0,0-.11,0l0,0,0,0v0h0v0l0,0s0,0,0,0,0,.07,0,.12h.17l0,0,0,0h0v-.08l0,0,0,0,0,0Z"/><path class="cls-3" d="M202.36,191.64h0l-.07,0a.09.09,0,0,0,0,.06.12.12,0,0,0,0,.08l0,0h.07l0,0,0,0v0l0,0,0,0Z"/><path class="cls-3" d="M199.49,188.44v.11h0a.19.19,0,0,0,.07.1h0a.08.08,0,0,0,.08,0,.07.07,0,0,0,0-.07h0v-.09A.14.14,0,0,0,199.49,188.44Z"/><path class="cls-3" d="M201.24,188.31l0,0,0,0v0c0,.09.07.12.11.13h0a.13.13,0,0,0,.11,0h0v-.08a.09.09,0,0,0,0-.08l0,0A.23.23,0,0,0,201.24,188.31Z"/><path class="cls-3" d="M198.58,186.53h0l0,0,0,0v.08a.14.14,0,0,0,.08.09.11.11,0,0,0,.08,0l0,0v-.05a.11.11,0,0,0,0-.11.09.09,0,0,0-.08,0Z"/><path class="cls-3" d="M197.54,188.77h0l0,0,0,0a.14.14,0,0,0,0,.11l0,0a.12.12,0,0,0,.14.06l0,0,0,0v0a.13.13,0,0,0-.05-.16Z"/><path class="cls-3" d="M196.17,185.65h0a.07.07,0,0,0-.06,0l0,0v.16a.11.11,0,0,0,.14,0h0l.05,0h0v-.06l0-.05a.06.06,0,0,0-.05-.06Z"/><path class="cls-3" d="M194.22,183.67s0-.07,0-.09a.08.08,0,0,0-.08,0l0,0v0h0a.08.08,0,0,0,0,.1.1.1,0,0,0,.09,0l0,0v-.07Z"/><path class="cls-3" d="M189.62,185.25h-.06l0,0,0,0v0a.14.14,0,0,0,0,.08h.11l0,0h0l0,0v-.09h0l0,0Z"/><path class="cls-3" d="M195.9,191.75a.1.1,0,0,0-.09,0l0,0v.06a.12.12,0,0,0,0,.08l0,0h.09l0,0c.1-.09.06-.16,0-.19l0,0Z"/><path class="cls-3" d="M204.19,176.05l0,0v-.1a.25.25,0,0,0-.08-.05.16.16,0,0,0-.1,0h0V176a.1.1,0,0,0,.07.06A.08.08,0,0,0,204.19,176.05Z"/><path class="cls-3" d="M202.63,179.6h0l0,0,0,0v0a.13.13,0,0,0,0,.05l0,0h.09a.09.09,0,0,0,0-.08.09.09,0,0,0,0-.07h-.07Z"/><path class="cls-3" d="M201.47,178.55a.16.16,0,0,0-.1,0,.1.1,0,0,0,0,.15h0a.1.1,0,0,0,.11,0l0,0s0,0,0,0l0,0v-.06a.08.08,0,0,0,0,0v0l0,0Z"/><path class="cls-3" d="M204.53,180.93h0l0,0a.12.12,0,0,0-.05.11.14.14,0,0,0,.08.11h.06l0,0a.09.09,0,0,0,.06,0l0,0v-.06a.16.16,0,0,0-.13-.13Z"/><path class="cls-3" d="M203.61,179.78l0,0,0,0v.07l0,0h.1l.06,0a.11.11,0,0,0,0-.1v0a.11.11,0,0,0-.09,0A.14.14,0,0,0,203.61,179.78Z"/><path class="cls-3" d="M208.15,185.34l0,0v.05a.18.18,0,0,0,0,.06l0,0h.07v0l.05,0v0l0-.05A.1.1,0,0,0,208.15,185.34Z"/><path class="cls-3" d="M205.48,184.55l0,0v.07s.06.06.08.06a.13.13,0,0,0,.09,0h0v-.07l0,0A.11.11,0,0,0,205.48,184.55Z"/><path class="cls-3" d="M199.41,177v0h0l0,0a.15.15,0,0,0,0,.17l0,0h.09a.16.16,0,0,0,0-.07.07.07,0,0,0,0-.09l0,0Z"/><path class="cls-3" d="M204.28,181.8h0l0,0,0,0,0,0v0l0,0a.09.09,0,0,0,.12,0l0,0,0,0a.09.09,0,0,0-.05-.12Z"/><path class="cls-3" d="M203.11,189.38a.12.12,0,0,0,0,.08v0h0s.08.08.17,0v0h0v-.06a.09.09,0,0,0-.08-.06A.1.1,0,0,0,203.11,189.38Z"/><path class="cls-3" d="M200.66,176.27l0,0v.09l0,0h.06l.05,0v0h0l0,0v-.09a.1.1,0,0,0-.08,0A.11.11,0,0,0,200.66,176.27Z"/><path class="cls-3" d="M202.69,176.92l0,0v0s0,.08,0,.09l0,0h.05s0,0,.05,0a.1.1,0,0,0-.11-.16Z"/><path class="cls-3" d="M205.75,177.74v-.05l0-.05h-.07l0,0v.06a.18.18,0,0,0,0,.09.14.14,0,0,0,.11,0l0,0Z"/><path class="cls-3" d="M208.17,183.46h0a.09.09,0,0,0-.1,0h0l0,0a.11.11,0,0,0-.06.1.17.17,0,0,0,.06.12h.08a.1.1,0,0,0,.08,0l0,0h0a.08.08,0,0,0,0-.11l0,0Z"/><path class="cls-3" d="M209.11,181.23a.08.08,0,0,0-.07,0,.11.11,0,0,0-.08,0,.17.17,0,0,0-.05.14v.05a.21.21,0,0,0,.11.08.17.17,0,0,0,.13,0l0,0v-.09s0,0,0,0S209.19,181.24,209.11,181.23Z"/><path class="cls-3" d="M204.9,185.86a.14.14,0,0,0,0-.08v-.07a.12.12,0,0,0-.17,0l0,0v.1s0,0,0,.05l0,0h.07Z"/><path class="cls-3" d="M206.57,182.59h0a.09.09,0,0,0,0,.08,0,0,0,0,0,0,0v0l0,0h0a.09.09,0,0,0,.11,0h0a.15.15,0,0,0,.05-.14.16.16,0,0,0-.12-.09Z"/><path class="cls-3" d="M205.77,179.7a.1.1,0,0,0-.09,0l-.05,0a.09.09,0,0,0,0,.07v.07l0,.06,0,0h.11a.17.17,0,0,0,0-.2l0,0Z"/><path class="cls-3" d="M200.22,174.39h0l.05,0h0a.09.09,0,0,0,0-.09v0l0,0,0,0-.05,0h-.07l0,0a.14.14,0,0,0,0,.2A.09.09,0,0,0,200.22,174.39Z"/><path class="cls-3" d="M206.37,181.36v.07l0,0h0l0,0h.09a.08.08,0,0,0,0-.13.08.08,0,0,0-.07,0A.11.11,0,0,0,206.37,181.36Z"/><path class="cls-3" d="M202.6,186v0h0a.2.2,0,0,0,0-.08l-.07,0h0l0,0s0,0,0,.05h0v0h0V186a.14.14,0,0,0,.1.07.17.17,0,0,0,.12,0Z"/><path class="cls-3" d="M199.92,182.51h-.11v0h0l0,0,0,0a.13.13,0,0,0,0,.06v0l.05.06a.09.09,0,0,0,.08,0h0a.08.08,0,0,0,.08,0,.11.11,0,0,0,0-.08v-.08h0a.09.09,0,0,0,0-.07Z"/><path class="cls-3" d="M201.72,184.62h-.06l0,0a.08.08,0,0,0-.08,0,.09.09,0,0,0,0,.06h0v.07a.08.08,0,0,0,0,.07l0,0h0l0,0,0,0h.08a.33.33,0,0,0,.12-.06h0v-.11a.08.08,0,0,0,0,0h0v-.06A.15.15,0,0,0,201.72,184.62Z"/><path class="cls-3" d="M204.41,188h0l0,0a.11.11,0,0,0,0,.14.11.11,0,0,0,.14,0l0,0v-.07a.06.06,0,0,1,0,0l0,0Z"/><path class="cls-3" d="M197.67,181v0h0l0,0,0,0v.05a.14.14,0,0,0,0,.09h0a.07.07,0,0,0,.07,0h.05l.06,0,0,0,0,0v-.09a.24.24,0,0,0-.13-.11Z"/><path class="cls-3" d="M200,181.41h-.09l0,0a.19.19,0,0,0-.07.14v0l0,0a.21.21,0,0,0,.27,0v-.06s0,0,0-.05a.07.07,0,0,0,0-.06h0A.08.08,0,0,0,200,181.41Z"/><path class="cls-3" d="M195.84,179.1h0l0,0V179l0,0,0,0h-.07l0,0,0,0,0,0v0a.14.14,0,0,0,.05.1h.06Z"/><path class="cls-3" d="M199,183.32h-.11l-.06,0s0,0,0,0h0l0,0v.07a.18.18,0,0,0,.08.06h.1s0,0,.07,0h0v-.07l0,0h0Z"/><path class="cls-3" d="M206,186.79l-.06,0h0a.08.08,0,0,0-.07,0,.05.05,0,0,0,0,0v0a.15.15,0,0,0,0,.13h.09l.08,0a.14.14,0,0,0,0-.14l0,0h0Z"/><path class="cls-3" d="M198.16,177.48a.08.08,0,0,0,.08,0l0,0h0a.12.12,0,0,0,0-.07s0,0,0,0a.12.12,0,0,0-.17,0l0,.06v.06A.12.12,0,0,0,198.16,177.48Z"/><path class="cls-3" d="M195.52,175.67h-.06l-.06,0a.12.12,0,0,0-.05.11.11.11,0,0,0,.05.1l0,0h.08l0,0,0,0,0-.05a.14.14,0,0,0-.06-.17Z"/><path class="cls-3" d="M197.41,176.52h.07l0,0a.12.12,0,0,0,0-.15.09.09,0,0,0-.09,0h0l0,0a.14.14,0,0,0-.06.12v0l0,0,0,0Z"/><path class="cls-3" d="M201,186.33h0l-.06,0s0,0,0,0v0a.11.11,0,0,0,0,.11.14.14,0,0,0,.13,0l0,0v-.08a.1.1,0,0,0,0-.09Z"/><path class="cls-3" d="M201.77,181.22h0s0,.05,0,.12.08.07.09.07h.06a.08.08,0,0,0,0-.1s0-.08-.1-.08Z"/><path class="cls-3" d="M201.2,182.92v-.06h-.1l0,0V183a.18.18,0,0,0,.21.1.05.05,0,0,0,0,0h0l0,0v0a.11.11,0,0,0-.07-.09Z"/><path class="cls-3" d="M202.29,181.44h0l-.05,0,0,0,0,0v0a.21.21,0,0,0,.09.13h.14s0,0,0,0h0a.14.14,0,0,0,.05-.14v-.08A.14.14,0,0,0,202.29,181.44Z"/><path class="cls-3" d="M203.26,184.29a.08.08,0,0,0,0,.1.1.1,0,0,0,.13,0l0,0v0l0-.05A.1.1,0,0,0,203.26,184.29Z"/><path class="cls-3" d="M203.19,183.05h-.05a.11.11,0,0,0-.07,0,.08.08,0,0,0,0,.1l0,0a.11.11,0,0,0,.06.07h.06l.07,0h0l0,0v-.07s0,0,0,0l0,0Z"/><path class="cls-3" d="M198.78,178.89h0v0a.06.06,0,0,0,.05,0l0,0v-.06l0,0a.09.09,0,0,0,0-.07l-.05,0a.09.09,0,0,0-.1,0l0,0,0,0a.12.12,0,0,0,0,.1v0h0l0,0a.12.12,0,0,0,.1.08Z"/><path class="cls-3" d="M202.88,183.24h-.1l-.06,0,0,0v.08a.1.1,0,0,0,.06.08h.1l.06,0a.11.11,0,0,0,0-.11l0,0h0Z"/><rect class="cls-2" x="179.06" y="179.93" width="17.53" height="16.71" transform="translate(-77.81 175.37) rotate(-42.29)"/><path class="cls-3" d="M182.73,186.58h0l0,0a.12.12,0,0,0,0,.09h0v.05l.08.05a.17.17,0,0,0,.1,0,.15.15,0,0,0,0-.1l0,0a.13.13,0,0,0-.05-.06Z"/><path class="cls-3" d="M185.82,187.71h0v0a.15.15,0,0,0,0-.17l0,0h0l-.06,0,0,0h0l0,0,0,0v.06a.19.19,0,0,0,.11.07Z"/><path class="cls-3" d="M187.37,189.23l0,0v.12a.17.17,0,0,0,.11,0h.05l0,0,0,0s0-.09-.09-.12h-.1Z"/><path class="cls-3" d="M181.79,193.33a.1.1,0,0,0,0,.12l0,0,0,0h.06a.11.11,0,0,0,0-.11l0,0,0,0Z"/><path class="cls-3" d="M191.3,187.63a.1.1,0,0,0-.05-.08h-.12l0,0,0,0a.1.1,0,0,0,.06.1h.12S191.31,187.67,191.3,187.63Z"/><path class="cls-3" d="M187.86,189.67h0a.2.2,0,0,0,0-.15l0,0,0,0h-.14l0,0h0l-.06,0h0v0a.09.09,0,0,0-.06,0,.11.11,0,0,0,0,.08l0,0a.09.09,0,0,0,.05.08h.06l0,0s0,0,0,0h0l0,0h0l0,0s0,0,.08,0Z"/><path class="cls-3" d="M181.93,189.66l0,0a.11.11,0,0,0,0,.11h0a.1.1,0,0,0,0,.08l0,0H182a.11.11,0,0,0,0-.07,0,0,0,0,0,0,0,.09.09,0,0,0-.05-.11h-.07Z"/><path class="cls-3" d="M188,196.49h0v0a.09.09,0,0,0,0,.12l0,0,0,0h0l.06,0a.1.1,0,0,0,0-.11.14.14,0,0,0-.09-.08Z"/><path class="cls-3" d="M180.07,188.19h0l0,0,0,0a.11.11,0,0,0,0,.13h.1l.06,0a.09.09,0,0,0,0,0l0-.06h0a.14.14,0,0,0-.07-.05Z"/><path class="cls-3" d="M185.79,195.17l0,0v0h0a.11.11,0,0,0,0,.14h.05l.06,0h0a.05.05,0,0,0,0,0s0,0,0-.05v0l0,0A.17.17,0,0,0,185.79,195.17Z"/><path class="cls-3" d="M186.44,196.24a.11.11,0,0,0-.06,0l0,0a0,0,0,0,0-.06,0l0,0v.08a.15.15,0,0,0,0,.09.11.11,0,0,0,.1.05.15.15,0,0,0,.11,0,.14.14,0,0,0,0-.19l0,0Z"/><path class="cls-3" d="M184.1,193.44h0l0,0v0l0,0h0l0,0h0l-.05,0,0,0v0h0a.07.07,0,0,0,0,.09.07.07,0,0,0,.09,0h0Z"/><path class="cls-3" d="M184.27,189.27h0a.1.1,0,0,0,0-.05s0,0,0-.05h0a.09.09,0,0,0,0-.11l0,0h0l0,0h0l0,0h-.06l0,0h0l-.05,0,0,0,0,0a.14.14,0,0,0,0,.1h0a.05.05,0,0,0,0,0s0,.05,0,.05l0,0h0a.09.09,0,0,0,.11,0A.08.08,0,0,0,184.27,189.27Z"/><path class="cls-3" d="M181.45,190.89a.1.1,0,0,0,0,0v-.08a.1.1,0,0,0-.14-.06h0l0,0,0,0a.43.43,0,0,0,0,0v0l0,0A.1.1,0,0,0,181.45,190.89Z"/><path class="cls-3" d="M186.52,190.76h0a.08.08,0,0,0-.07,0h-.06l0,0,0,.06h0l0,0v0a.18.18,0,0,0,.21.15l0,0h0l0,0h0l0,0s0,0,0-.05v0a.16.16,0,0,0,0-.09Z"/><path class="cls-3" d="M180.43,184.53h0a.11.11,0,0,0-.11,0l0,0,0,0v0h0v0l0,0v0a.13.13,0,0,0,.06.12h0a.17.17,0,0,0,.14,0l0,0,0,0h0l0,0v0l0,0s0,0,0,0,0,0,0,0Z"/><path class="cls-3" d="M191,196.51h0a.11.11,0,0,0-.07,0,.09.09,0,0,0,0,.06.12.12,0,0,0,0,.08H191l0,0,0,0,0,0v0l0,0,0,0Z"/><path class="cls-3" d="M188.06,193.36v.11h0s0,0,.06.09h0a.11.11,0,0,0,.08,0,.1.1,0,0,0,0-.08h0l0,0,0-.06A.14.14,0,0,0,188.06,193.36Z"/><path class="cls-3" d="M189.8,193.19l0,0,0,0v0c0,.09.07.12.11.13h0a.16.16,0,0,0,.11,0h0v-.07a.1.1,0,0,0,0-.09l0,0A.26.26,0,0,0,189.8,193.19Z"/><path class="cls-3" d="M187.11,191.46h0l-.05,0,0,0v.08s0,.07.09.08a.08.08,0,0,0,.08,0l0,0v0s0-.08,0-.12a.12.12,0,0,0-.09,0Z"/><path class="cls-3" d="M186.12,193.73h-.07l0,0a.19.19,0,0,0-.05.12l0,0a.12.12,0,0,0,.14.06l0,0,0,0v0a.11.11,0,0,0,0-.15Z"/><path class="cls-3" d="M184.69,190.64h0a.09.09,0,0,0-.07,0v.09h0v.08c.06.06.11,0,.14,0h0s0,0,.05,0h0v-.06l0-.05a.1.1,0,0,0-.05-.06Z"/><path class="cls-3" d="M182.7,188.69s0-.07,0-.09a.08.08,0,0,0-.08,0l0,0v0h0a.08.08,0,0,0,0,.1.08.08,0,0,0,.09,0l0,0v-.07Z"/><path class="cls-3" d="M178.13,190.36h-.06l0,0v.09a.07.07,0,0,0,0,.07l0,0h.07a.15.15,0,0,0,0,0h0v-.06l0-.05h0l0,0Z"/><path class="cls-3" d="M184.53,196.74a.09.09,0,0,0-.09,0l0,0v.06a.11.11,0,0,0,0,.08l0,0h.1c.1-.09.07-.16,0-.2h-.07Z"/><path class="cls-3" d="M192.52,180.88l0,0v-.1a.12.12,0,0,0-.08,0s-.06,0-.1,0h0v.08a.12.12,0,0,0,.07.07A.12.12,0,0,0,192.52,180.88Z"/><path class="cls-3" d="M191,184.46h0l0,0,0,0v0a.11.11,0,0,0,0,.05l.05,0h.08a.12.12,0,0,0,0-.08s0-.06,0-.07H191Z"/><path class="cls-3" d="M189.85,183.44a.12.12,0,0,0-.1,0,.1.1,0,0,0,0,.15h0s.05,0,.1,0h0l0,0v-.09s0,0,0,0l0,0h-.05Z"/><path class="cls-3" d="M193,185.75h0l0,0a.13.13,0,0,0-.05.11.14.14,0,0,0,.08.12H193l0,0,.06,0,0,0v-.06a.18.18,0,0,0-.14-.13Z"/><path class="cls-3" d="M192,184.62l0,0v.11l0,0h.1l.06,0a.1.1,0,0,0,0-.1v0a.11.11,0,0,0-.09,0C192.07,184.57,192,184.61,192,184.62Z"/><path class="cls-3" d="M196.66,190.1l0,0v.05a.18.18,0,0,0,0,.06l0,0h.07v0l0,0v0l0-.06C196.73,190.07,196.68,190.08,196.66,190.1Z"/><path class="cls-3" d="M194,189.36l0,0v.07a.09.09,0,0,0,.08,0s.05,0,.09,0h0v-.11A.12.12,0,0,0,194,189.36Z"/><path class="cls-3" d="M187.76,181.94v0h0l-.05,0a.14.14,0,0,0,0,.17l0,0h.07l0,0a.09.09,0,0,0,0-.07.07.07,0,0,0,0-.09l0,0Z"/><path class="cls-3" d="M192.72,186.63h0l0,0,0,0,0,0v0l0,0a.1.1,0,0,0,.13,0l0,0v0a.09.09,0,0,0-.05-.12Z"/><path class="cls-3" d="M191.7,194.23a.09.09,0,0,0,0,.08v0h0s.08.07.17,0v0h0v-.07a.1.1,0,0,0-.08,0A.1.1,0,0,0,191.7,194.23Z"/><path class="cls-3" d="M189,181.17s0,0,0,0v.09l0,0,0,0h.08v0h0l0,0v-.09s0-.05-.08-.05A.11.11,0,0,0,189,181.17Z"/><path class="cls-3" d="M191,181.78l0,0v0a.1.1,0,0,0,0,.09l0,0h.05l0,0a.09.09,0,0,0,0-.13A.09.09,0,0,0,191,181.78Z"/><path class="cls-3" d="M194.11,182.54v0l0,0,0,0h0l-.05,0h0v0a.1.1,0,0,0,0,.09.12.12,0,0,0,.1,0l0,0Z"/><path class="cls-3" d="M196.64,188.21h0a.11.11,0,0,0-.11,0h0a.16.16,0,0,0,0,.11.17.17,0,0,0,.06.12h.08a.08.08,0,0,0,.07,0s0,0,0,0h0a.09.09,0,0,0,0-.11l0,0Z"/><path class="cls-3" d="M197.54,186a.08.08,0,0,0-.07,0,.11.11,0,0,0-.08,0s0,.09,0,.14v0a.2.2,0,0,0,.12.08.17.17,0,0,0,.13-.05l0,0v-.11S197.62,186,197.54,186Z"/><path class="cls-3" d="M193.42,190.68a.14.14,0,0,0,.05-.08v-.07c-.08-.09-.15-.05-.17,0l0,0v.1a.09.09,0,0,0,0,.05l0,0h.09Z"/><path class="cls-3" d="M195,187.37h0l0,0h0a.09.09,0,0,0,0,.08.11.11,0,0,0,0,.05l0,0,0,0h0a.09.09,0,0,0,.12,0h0a.14.14,0,0,0,0-.15.11.11,0,0,0-.11-.08Z"/><path class="cls-3" d="M194.18,184.5a.11.11,0,0,0-.1,0l-.05,0a.07.07,0,0,0,0,.06v0l0,0a.09.09,0,0,0,0,.06l0,0h.12a.15.15,0,0,0,0-.2l0,0Z"/><path class="cls-3" d="M188.52,179.3h0l0,0h0a.1.1,0,0,0,0-.09v0l0,0a.05.05,0,0,1,0,0l-.05,0h-.07l0,0a.13.13,0,0,0,0,.19A.08.08,0,0,0,188.52,179.3Z"/><path class="cls-3" d="M194.8,186.15v.09h0l0,0h.1a.1.1,0,0,0-.06-.17A.11.11,0,0,0,194.8,186.15Z"/><path class="cls-3" d="M191.12,190.89v0h0a.12.12,0,0,0,0-.08l-.07,0h-.08s0,0,0,.05h0v0h0v.07a.13.13,0,0,0,.1.06.12.12,0,0,0,.12,0Z"/><path class="cls-3" d="M188.38,187.43h-.09l0,0h0l0,0,0,0a.06.06,0,0,0,0,.06v0l0,0a.1.1,0,0,0,.08,0h0a.08.08,0,0,0,.08,0,.11.11,0,0,0,0-.08v-.08h0a.1.1,0,0,0,0-.07Z"/><path class="cls-3" d="M190.21,189.49h-.05l0,0a.08.08,0,0,0-.08,0,.09.09,0,0,0,0,.06h0v.07s0,0,0,.07l0,0h0l0,0,0,0h.08a.28.28,0,0,0,.12,0v0l0,0v-.08a0,0,0,0,0,0,0h0v0l0,0A.11.11,0,0,0,190.21,189.49Z"/><path class="cls-3" d="M193,192.86h0l0,0a.11.11,0,0,0,0,.15.09.09,0,0,0,.13,0l0,0v-.08s0,0,0,0l0,0Z"/><path class="cls-3" d="M186.1,186h0l0,0,0,0v.05a.12.12,0,0,0,0,.08h0a.08.08,0,0,0,.08,0h0l.06,0,0,0,0,0V186a.19.19,0,0,0-.13-.1Z"/><path class="cls-3" d="M188.41,186.32s0,0,0,0,0,0,0,0l0,0a.19.19,0,0,0-.07.14v.05l0,0a.21.21,0,0,0,.27,0v-.06a.09.09,0,0,0,0-.05.07.07,0,0,0,0-.06l0,0A.09.09,0,0,0,188.41,186.32Z"/><path class="cls-3" d="M184.23,184.09h0l0,0V184l0,0,0,0h-.07l0,0,0,0V184a.12.12,0,0,0,.06.1h.05Z"/><path class="cls-3" d="M187.42,188.25h0a.08.08,0,0,0-.07,0l-.06,0,0,0,0,0v.09a.11.11,0,0,0,.09.06h.05l0,0h0s.05,0,.07,0l0,0v-.06l0,0h0Z"/><path class="cls-3" d="M194.54,191.58s0,0-.06,0h0s0,0-.06,0a.05.05,0,0,0,0,0v0a.14.14,0,0,0,.05.13h.08l.08,0a.15.15,0,0,0,0-.14l0,0h0Z"/><path class="cls-3" d="M186.53,182.43s0,0,.07,0l0,0h0a.15.15,0,0,0,0-.08l0,0a.14.14,0,0,0-.17,0l0,0v.07A.12.12,0,0,0,186.53,182.43Z"/><path class="cls-3" d="M183.84,180.67h-.05s0,0-.06,0-.06.08,0,.11a.14.14,0,0,0,0,.1l0,0h.12l0,0v0a.14.14,0,0,0-.06-.17Z"/><path class="cls-3" d="M185.75,181.48h.07s0,0,0,0a.13.13,0,0,0,0-.15.08.08,0,0,0-.09-.05h-.08a.17.17,0,0,0-.05.12v0h0Z"/><path class="cls-3" d="M189.51,191.22h-.06l0,0,0,0v0a.09.09,0,0,0,0,.1.17.17,0,0,0,.14,0l0,0v-.08a.09.09,0,0,0-.05-.09Z"/><path class="cls-3" d="M190.2,186.09h0s0,0,0,.12a.24.24,0,0,0,.1.07h.06a.08.08,0,0,0,0-.11.17.17,0,0,0-.1-.08Z"/><path class="cls-3" d="M189.66,187.8v-.05l0,0h0l0,0,0,0,0,0v.05a.1.1,0,0,0,.1.09.09.09,0,0,0,.12,0l0,0h0l0,0v0a.15.15,0,0,0-.08-.08Z"/><path class="cls-3" d="M190.72,186.31h0l-.06,0,0,0v.08a.21.21,0,0,0,.09.13h.14l0,0h0c0-.05.06-.08,0-.13v-.09A.15.15,0,0,0,190.72,186.31Z"/><path class="cls-3" d="M191.75,189.13a.09.09,0,0,0,0,.11.11.11,0,0,0,.13,0l0-.05v0l0-.05A.12.12,0,0,0,191.75,189.13Z"/><path class="cls-3" d="M191.65,187.9h-.05a.11.11,0,0,0-.06,0,.1.1,0,0,0,0,.1l0,0a.12.12,0,0,0,.07.07h.06s0,0,.07,0h0l0,0v0l0,0a.06.06,0,0,0,0,0l0,0Z"/><path class="cls-3" d="M187.16,183.82h0l.05,0,0,0v-.1a.5.5,0,0,0-.05-.07l-.05,0a.09.09,0,0,0-.1,0l0,0,0,0a.11.11,0,0,0,0,.09v.06a.2.2,0,0,0,.11.08Z"/><path class="cls-3" d="M191.35,188.1h-.08l0,0-.06,0,0,0v.08s0,.05.06.08h.06l0,0a.09.09,0,0,0,.06,0,.11.11,0,0,0,0-.11l0,0h0Z"/><rect class="cls-2" x="167.18" y="181.72" width="16.71" height="17.53" transform="translate(-52.12 66.91) rotate(-18.85)"/><path class="cls-3" d="M171.94,194.48v0a.06.06,0,0,0,0,0,.09.09,0,0,0,.07.06h.05a.1.1,0,0,0,.08,0,.12.12,0,0,0,0-.1.09.09,0,0,0-.07-.06h0a.11.11,0,0,0-.07,0Z"/><path class="cls-3" d="M174.21,192.1v0a.21.21,0,0,0-.14-.1l0,0,0,0v.1h0v0l0,0,.06,0a.14.14,0,0,0,.1-.07Z"/><path class="cls-3" d="M176.22,191.28v0l0,0,0,0h0a.18.18,0,0,0,.09-.08l0-.05v0l0,0a.11.11,0,0,0-.15,0h0l0,0Z"/><path class="cls-3" d="M177.76,198a.09.09,0,0,0,.1.07h0l0,0V198h0a.1.1,0,0,0-.09-.06h-.06l0,0Z"/><path class="cls-3" d="M176.31,187a.11.11,0,0,0-.09,0l0,0v.09l0,0,0,0a.11.11,0,0,0,.12,0h0l0,0v-.05A.14.14,0,0,0,176.31,187Z"/><path class="cls-3" d="M176.81,191h0a.21.21,0,0,0-.13-.07h-.05l0,0,0,0,0,0,0,0v0a0,0,0,0,0,0,0h0a.08.08,0,0,0,0,.07h0v.06s0,.06.07.06h0a.18.18,0,0,0,.09,0l0,0v-.07l0,0h0l0,0h0a.12.12,0,0,0,0-.09Z"/><path class="cls-3" d="M174.45,196.44v0a.1.1,0,0,0,.09.07h0s.06,0,.1,0l0,0v-.07h0a.1.1,0,0,0-.05-.06h0a.13.13,0,0,0-.12,0l0,0Z"/><path class="cls-3" d="M183.14,193.55v0a.09.09,0,0,0,.1.06h0l0,0,0,0v-.07a.13.13,0,0,0-.09-.07.16.16,0,0,0-.11,0Z"/><path class="cls-3" d="M172.36,197.56s0,0,0,0v0l0,0a.1.1,0,0,0,.14,0l0,0v-.07a.13.13,0,0,0,0-.06l0-.06h-.08s-.05,0-.07.05A.13.13,0,0,0,172.36,197.56Z"/><path class="cls-3" d="M181,195.09l0,0,0,0h0a.1.1,0,0,0,.14,0l0,0V195s0,0,0-.05l0,0h-.09A.14.14,0,0,0,181,195.09Z"/><path class="cls-3" d="M182.27,194.92a.11.11,0,0,0,0,.05,0,0,0,0,0,0,0,.08.08,0,0,0,0,.08h0l0,0h.05a.17.17,0,0,0,.09,0,.13.13,0,0,0,.09-.07.2.2,0,0,0,0-.13.14.14,0,0,0-.17-.09l0,0Z"/><path class="cls-3" d="M178.78,196h0l0,0h-.09l0,0,0,0a.08.08,0,0,0,0,.05l0,0h0a.09.09,0,0,0,.1,0,.1.1,0,0,0,0-.09h0A0,0,0,0,0,178.78,196Z"/><path class="cls-3" d="M175,194.14h0s0,0,0,0l-.05,0h0a.08.08,0,0,0-.09-.06l0,0v0l0,0h0l0,0,0,.06h.05l-.05,0v.06l0,0a.11.11,0,0,0,.08.06H175l0,0a.09.09,0,0,0,0-.1S175.05,194.15,175,194.14Z"/><path class="cls-3" d="M175.39,197.37l0-.06,0,0h-.06c-.06,0-.1,0-.11.11v.06l0,0,.05,0h.07A.12.12,0,0,0,175.39,197.37Z"/><path class="cls-3" d="M177.28,192.66h0a.14.14,0,0,0,0,.06h0v.09l0,0h0l0,0,0,0c.14,0,.2-.09.22-.13v-.06h0a.08.08,0,0,0,0,0h0l0,0a0,0,0,0,0,0,0l0,0a.19.19,0,0,0-.1,0Z"/><path class="cls-3" d="M169.14,195.78v0a.13.13,0,0,0,0,.11v0l0,0h0v0h.05a.12.12,0,0,0,.14,0h0a.24.24,0,0,0,0-.14v-.07l0,0,0,0h-.14Z"/><path class="cls-3" d="M184.33,190.85v.1a.08.08,0,0,0,.05.05.07.07,0,0,0,.08,0l0,0,0,0v0l0-.06,0,0h-.09l0,0Z"/><path class="cls-3" d="M180.28,192.28l0,0,0,0h0a.17.17,0,0,0,.11,0l0,0a.12.12,0,0,0,0-.08.1.1,0,0,0,0-.06h0l0,0h-.06S180.24,192.18,180.28,192.28Z"/><path class="cls-3" d="M180.82,190.62v0l0,0,0,0a.16.16,0,0,0,.16-.05v0h0a.1.1,0,0,0,0-.1h0l0,0h0a.09.09,0,0,0-.09,0h0A.25.25,0,0,0,180.82,190.62Z"/><path class="cls-3" d="M178.17,192.4v0a.07.07,0,0,0,0,.05l0,0,0,0h0a.13.13,0,0,0,.11,0,.15.15,0,0,0,0-.09v0l0,0,0,0a.1.1,0,0,0-.11,0,.13.13,0,0,0-.07.06Z"/><path class="cls-3" d="M179.85,194.22v.09s0,.06.08.09h0a.14.14,0,0,0,.12-.11v0l0,0,0,0a.11.11,0,0,0-.16,0Z"/><path class="cls-3" d="M176.44,194.3h0a.07.07,0,0,0,0,.06v0l0,0h0l0,0h.05a.1.1,0,0,0,.07-.12h0a.13.13,0,0,0,0-.06h0l0,0h-.05a.09.09,0,0,0-.09,0Z"/><path class="cls-3" d="M173.86,195.34s-.06,0-.09,0a.09.09,0,0,0,0,.08l0,0,0,0h0v0a.08.08,0,0,0,.09,0,.11.11,0,0,0,.06-.07l0-.05,0,0Z"/><path class="cls-3" d="M173.58,200.2v.06l0,.05,0,0h0a.13.13,0,0,0,.08,0l0,0,0,0v-.05s0-.05,0,0h0l0,0,0,0h-.09Z"/><path class="cls-3" d="M182,196.87a.08.08,0,0,0,0,.09l0,0,0,0,0,0,.07,0,0,0,0,0v-.07c0-.12-.12-.12-.16-.11l0,0Z"/><path class="cls-3" d="M170.6,183.23v0l0,0,0,0h0a.1.1,0,0,0-.07.05s0,0,0,.1h0l0,0,0,0h0a.11.11,0,0,0,.09,0A.09.09,0,0,0,170.6,183.23Z"/><path class="cls-3" d="M173.3,186v.06l0,0,0,0h0l0,0,0,0v0a.1.1,0,0,0-.06-.07.11.11,0,0,0-.08,0l0,0Z"/><path class="cls-3" d="M171.89,186.7a.11.11,0,0,0,0,.1.11.11,0,0,0,.13.08h0a.1.1,0,0,0,.08-.08v0a.08.08,0,0,0,0,0l0,0-.05,0h-.07l0,0Z"/><path class="cls-3" d="M175.25,184.77v.06c0,.07.06.09.09.09a.13.13,0,0,0,.13,0l0,0v-.13l0,0,0,0h0a.18.18,0,0,0-.17.07Z"/><path class="cls-3" d="M173.83,185.18l0,0,0,0H174l0,0,0,0v0s0,0,0-.07A.2.2,0,0,0,174,185h0a.11.11,0,0,0-.08.06A.17.17,0,0,0,173.83,185.18Z"/><path class="cls-3" d="M180.71,183.1l0,0,0,0,.06,0,0,0,0,0v0l-.05,0,.05,0,0-.06,0,0h-.06A.09.09,0,0,0,180.71,183.1Z"/><path class="cls-3" d="M179,185.27l0,0,0,0h0a.1.1,0,0,0,.08,0,.12.12,0,0,0,0-.09v0l0,0H179A.12.12,0,0,0,179,185.27Z"/><path class="cls-3" d="M169.69,188l0,0h0v.07a.14.14,0,0,0,.15.08l0,0,0,0,0,0v0l0,0a.1.1,0,0,0-.08-.05l0,0Z"/><path class="cls-3" d="M176,185.33v.09l0,0,0,0h.05c.07,0,.08-.08.07-.1v0l0,0a.09.09,0,0,0-.13,0Z"/><path class="cls-3" d="M182.53,189.3a.09.09,0,0,0,.06.06h0a.12.12,0,0,0,.07-.16l0,0h0l0,0h0a.14.14,0,0,0-.08,0A.11.11,0,0,0,182.53,189.3Z"/><path class="cls-3" d="M169.47,186.58a.08.08,0,0,0,0,0l0,0h.09l0,0,0,0v-.12l0,0h-.06a.16.16,0,0,0-.08.05A.14.14,0,0,0,169.47,186.58Z"/><path class="cls-3" d="M170.84,185l0,0h0a.11.11,0,0,0,.09,0l0,0,0,0v-.08a.11.11,0,0,0-.12-.06A.09.09,0,0,0,170.84,185Z"/><path class="cls-3" d="M172.76,182.43h0l-.05,0,0,0,0,0v.05h0v0h0a.09.09,0,0,0,.1,0,.16.16,0,0,0,.06-.08l0,0Z"/><path class="cls-3" d="M179,182.37h0a.1.1,0,0,0-.05.1h0v0a.11.11,0,0,0,.08.09.12.12,0,0,0,.13,0l0,0v0a.13.13,0,0,0,0-.08s0,0,0,0h0a.08.08,0,0,0-.09-.06h0Z"/><path class="cls-3" d="M177.27,180.65a.08.08,0,0,0,0,.07.11.11,0,0,0,0,.08s.06.08.1.1h.05a.19.19,0,0,0,.13-.07.22.22,0,0,0,0-.14s0,0,0,0l0,0h-.08S177.31,180.58,177.27,180.65Z"/><path class="cls-3" d="M180,186.3a.13.13,0,0,0,0-.07h-.07c-.11,0-.1.11-.09.14v0l0,0h.13l0,0v-.09Z"/><path class="cls-3" d="M177.56,183.52v0h0a.1.1,0,0,0,.05.07l0,0h.05v0h0a.11.11,0,0,0,.08-.1h0a.13.13,0,0,0-.11-.1.15.15,0,0,0-.13.07Z"/><path class="cls-3" d="M174.59,183.15a.09.09,0,0,0,0,.09.11.11,0,0,0,0,.06l0,0h.14l0,0,0,0v-.08a.18.18,0,0,0-.17-.11l0,0Z"/><path class="cls-3" d="M167.56,186.27h0a0,0,0,0,0,0-.05h0v0a.08.08,0,0,0-.08-.05h0a.05.05,0,0,1,0,0l0,0,0,0v0l0,0a.13.13,0,0,0,.19.05A.08.08,0,0,0,167.56,186.27Z"/><path class="cls-3" d="M176.35,183.23l.06,0h.07v0h0l0-.07a.09.09,0,0,0-.12-.06.1.1,0,0,0-.06.05A.11.11,0,0,0,176.35,183.23Z"/><path class="cls-3" d="M179.24,188.5h-.06a.08.08,0,0,0-.08,0s0,0,0,.05l0,0v0a.11.11,0,0,0,0,.05h0l0,0h0a.14.14,0,0,0,.1-.07.16.16,0,0,0,0-.12Z"/><path class="cls-3" d="M175,189.63v.13h0v0l0,0h.08l.07,0a.09.09,0,0,0,.06-.06h0a.08.08,0,0,0,0-.08.06.06,0,0,0-.06-.05h-.09a.06.06,0,0,0-.07,0Z"/><path class="cls-3" d="M177.59,188.77h0v.09a.08.08,0,0,0,0,.08.1.1,0,0,0,0,.05h0l0,0h0l.07,0,0,0h0l0,0,0,0,0-.05a.26.26,0,0,0,0-.12v0l0,0h-.07s0,0,0,0h-.08A.15.15,0,0,0,177.59,188.77Z"/><path class="cls-3" d="M181.78,187.58v.07a.1.1,0,0,0,.13.07.09.09,0,0,0,.07-.11l0,0,0,0-.05,0h-.08Z"/><path class="cls-3" d="M172.7,191.13v0h0v.07l0,0,0,0h.09s.05,0,.06-.06h0v-.09s0,0,0,0,0,0,0,0l0,0h-.06a.17.17,0,0,0-.14.07Z"/><path class="cls-3" d="M174,189.17s0,0,0,0a.06.06,0,0,0,0,0,.07.07,0,0,0,0,.05.2.2,0,0,0,.1.12h.07a.21.21,0,0,0,.09-.26h0l0,0h-.06a.07.07,0,0,0-.06,0l0,0A.08.08,0,0,0,174,189.17Z"/><path class="cls-3" d="M170.26,192.11a0,0,0,0,0,0,0s0,0,0,0l0,0,0,0h0l0,0,0,0,0,0v.08l0,0v0h0a.17.17,0,0,0,.12,0l0,0v-.07Z"/><path class="cls-3" d="M175.34,190.84l0,0h0a.15.15,0,0,0,0,.06.15.15,0,0,0,0,.07l0,0v0l0,0,0,0h0a.17.17,0,0,0,.09,0l0,0V191a.23.23,0,0,0,0-.07v0l0,0h-.12Z"/><path class="cls-3" d="M181.23,185.63l0,.05a.06.06,0,0,0,0,0,.06.06,0,0,0,0,.06s0,0,0,0l0,0h0a.2.2,0,0,0,.14,0l0,0v-.05a.25.25,0,0,0,0-.09.14.14,0,0,0-.11-.1l-.05,0h0Z"/><path class="cls-3" d="M169.64,189.35a.07.07,0,0,0,0-.07l0,0h0a.07.07,0,0,0-.06,0,.06.06,0,0,0-.06,0,.11.11,0,0,0-.06.15.09.09,0,0,0,0,.06h.06A.11.11,0,0,0,169.64,189.35Z"/><path class="cls-3" d="M167,191.11v0a.17.17,0,0,0,0,.07.12.12,0,0,0,.08.09.13.13,0,0,0,.12,0l0,0v-.12l0,0,0,0a.17.17,0,0,0-.18,0Z"/><path class="cls-3" d="M168.46,189.68h0l0,0v0a0,0,0,0,1,0,0,.15.15,0,0,0-.13-.1.08.08,0,0,0-.08.07h0v.06a.13.13,0,0,0,.08.1h.08Z"/><path class="cls-3" d="M178.89,190.11v0a.18.18,0,0,0,0,.06v0h0a.11.11,0,0,0,.11,0,.17.17,0,0,0,.08-.12l0,0,0,0,0,0a.17.17,0,0,0-.11,0Z"/><path class="cls-3" d="M174.47,187.43v0s0,.06.1.06.1-.05.1-.06v-.07a.09.09,0,0,0-.09-.05.17.17,0,0,0-.12.06Z"/><path class="cls-3" d="M175.82,188.61l0,0,0,0,0,0v0l0,.07,0,0h0a.1.1,0,0,0,.13-.05.11.11,0,0,0,0-.11l0,0h0l0,0,0,0a.1.1,0,0,0-.1,0Z"/><path class="cls-3" d="M174.87,187h0s0,0,0,.07v0l0,0,0,0h0a.17.17,0,0,0,.16,0l0,0s0,0,0,0l0,0v0l0,0v0a.12.12,0,0,0-.1-.09H175A.14.14,0,0,0,174.87,187Z"/><path class="cls-3" d="M177.87,187.22a.09.09,0,0,0,.09.05.11.11,0,0,0,.09-.11l0,0,0,0h-.06A.13.13,0,0,0,177.87,187.22Z"/><path class="cls-3" d="M176.7,186.82v.05a.23.23,0,0,0,0,.07.08.08,0,0,0,.08.06h0a.12.12,0,0,0,.09,0v-.06a.16.16,0,0,0,0-.07h0l0,0h-.12l0,0Z"/><path class="cls-3" d="M171.18,189.32v0a.11.11,0,0,0,0-.05s0,0,0-.05H171a.08.08,0,0,0-.08,0s0,0,0,0a.08.08,0,0,0,0,.09l0,0v0s0,.07.08.08h.06a.15.15,0,0,0,.12-.06Z"/><path class="cls-3" d="M176.76,187.18l0,0v.07a.18.18,0,0,0,0,.06l0,0,0,0h.05a.12.12,0,0,0,.1,0l0,0v-.07a.09.09,0,0,0,0-.07.12.12,0,0,0-.09-.08l0,0h0A.07.07,0,0,0,176.76,187.18Z"/><rect class="cls-2" x="154.78" y="183.55" width="16.71" height="17.53" transform="translate(-88.91 183.78) rotate(-47.75)"/><path class="cls-3" d="M164.34,187.08V187l0,0a.1.1,0,0,0-.09,0h-.06a.1.1,0,0,0,0,.08.1.1,0,0,0,0,.09.08.08,0,0,0,.09,0l0,0s0,0,.05-.05Z"/><path class="cls-3" d="M163.51,190.26v0h0a.17.17,0,0,0,.17,0l0,0v0l0-.06,0,0h0l0,0,0,0h-.06a.17.17,0,0,0-.06.12Z"/><path class="cls-3" d="M162.14,192l0,0H162l0,0a.17.17,0,0,0,0,.11v.05l0,0,0,0a.11.11,0,0,0,.11-.1h0V192Z"/><path class="cls-3" d="M157.53,186.78a.1.1,0,0,0-.12,0l0,0v.1h0a.11.11,0,0,0,.12,0l0,0,0,0Z"/><path class="cls-3" d="M164.11,195.71a.13.13,0,0,0,.07-.06v-.07h0l0,0,0,0h0a.08.08,0,0,0-.09.07h0v.07l0,0A.11.11,0,0,0,164.11,195.71Z"/><path class="cls-3" d="M161.76,192.47h0a.2.2,0,0,0,.15,0l0,0,0,0v-.11l0,0s0,0,0,0h0a.21.21,0,0,0,0-.06h0l0,0a.08.08,0,0,0-.08,0l0,0a.09.09,0,0,0-.07.05v.07l0,0,0,0h0v.07h0a.13.13,0,0,0,0,.08Z"/><path class="cls-3" d="M161.19,186.58v0a.12.12,0,0,0-.11,0h0s-.06,0-.09.06v.1h0a.11.11,0,0,0,.07,0h0a.13.13,0,0,0,.11-.06v-.07Z"/><path class="cls-3" d="M155,193.31v0a.1.1,0,0,0-.12,0l0,0,0,0v0a.09.09,0,0,0,0,.06.13.13,0,0,0,.12,0,.12.12,0,0,0,.06-.1Z"/><path class="cls-3" d="M162.48,184.58a.08.08,0,0,0,0,0l0,0h0a.11.11,0,0,0-.13.06v.07l0,0a.09.09,0,0,0,0,.06l.06,0,.06,0h0a.12.12,0,0,0,0-.08A.07.07,0,0,0,162.48,184.58Z"/><path class="cls-3" d="M156.08,190.94H156a.11.11,0,0,0-.14.06v0l0,.05h0l.05,0h.1l0,0A.15.15,0,0,0,156.08,190.94Z"/><path class="cls-3" d="M155.08,191.69a.13.13,0,0,0,0-.06.05.05,0,0,0,0,0,.08.08,0,0,0,0-.07h-.1a.1.1,0,0,0-.08,0,.12.12,0,0,0-.05.1.18.18,0,0,0,.05.12.15.15,0,0,0,.19,0l0,0Z"/><path class="cls-3" d="M157.64,189.09h.11v0l0,0v0l0-.05,0,0h0a.1.1,0,0,0-.08,0,.08.08,0,0,0,0,.1h0Z"/><path class="cls-3" d="M161.8,188.87h0l.05,0h0a.11.11,0,0,0,.12,0l0,0v0a.06.06,0,0,0,0,0h0l0,0v-.06l0,0h0l0-.05,0,0-.05,0a.09.09,0,0,0-.09,0h0l0,0-.05,0,0,0v0a.1.1,0,0,0,0,.11Z"/><path class="cls-3" d="M159.93,186.22l0,0h.08a.12.12,0,0,0,.05-.15l0,0,0,0h0a0,0,0,0,0-.05,0h0l0,0A.11.11,0,0,0,159.93,186.22Z"/><path class="cls-3" d="M160.54,191.25h0a.08.08,0,0,0,0-.07h0v0l0,0a.09.09,0,0,0-.06,0h0l0,0h0c-.14,0-.13.18-.13.22l0,0h0s0,0,0,0h.13a.09.09,0,0,0,.08-.06Z"/><path class="cls-3" d="M166.16,184.59v0a.15.15,0,0,0,0-.11l0,0H166v0h0l0,0h0a.11.11,0,0,0-.12.07v0a.22.22,0,0,0,0,.14l0,0h0l0,0h.07l0,0,0,0Z"/><path class="cls-3" d="M155.25,196.25v0s0,0,0-.06,0,0-.06,0a.08.08,0,0,0-.07,0l0,0v0l0,0,0,0,0,0h0l0,0v-.05Z"/><path class="cls-3" d="M158.1,193H158l0,0h0a.21.21,0,0,0-.09.07v0a.11.11,0,0,0,0,.08.11.11,0,0,0,.07,0h0l.06,0A.14.14,0,0,0,158.1,193Z"/><path class="cls-3" d="M158.43,194.75l0,0,0,0h0a.19.19,0,0,0-.12.12l0,0h0a.12.12,0,0,0,0,.1h.08s0,0,.08,0l0,0A.21.21,0,0,0,158.43,194.75Z"/><path class="cls-3" d="M159.89,191.9v0h0l0,0,0,0h-.08s-.07,0-.07.09a.08.08,0,0,0,0,.08l0,0h0a.11.11,0,0,0,.12,0,.09.09,0,0,0,0-.09Z"/><path class="cls-3" d="M157.55,191.13v0l0,0,0,0a.11.11,0,0,0-.12,0l0,0a.12.12,0,0,0-.05.14l0,0,0,0h0a.11.11,0,0,0,.15-.06Z"/><path class="cls-3" d="M160.49,189.41h0a.07.07,0,0,0,0-.06h-.15l0,0a.08.08,0,0,0,0,.13h0l0,0h.07l.05,0a.09.09,0,0,0,.06-.06Z"/><path class="cls-3" d="M162.24,187.25a.09.09,0,0,0,.08-.05.06.06,0,0,0,0-.08l0,0h0v0a.11.11,0,0,0-.1,0,.11.11,0,0,0,0,.1l0,0h.08Z"/><path class="cls-3" d="M160.14,182.86l0-.06,0,0-.05,0,0,0a.1.1,0,0,0-.07,0v.1h0l0,0h.07l0,0h0l0,0Z"/><path class="cls-3" d="M154.4,189.84q0-.08,0-.09h-.09a.13.13,0,0,0-.08,0l0,0v0l0,0,0,0c.09.09.16.05.19,0v-.07Z"/><path class="cls-3" d="M171,196.28l0,0H171l0,0a.09.09,0,0,0,0-.08s0-.05-.05-.09H171s-.06.06-.06.08A.09.09,0,0,0,171,196.28Z"/><path class="cls-3" d="M167.24,195.14v0l0,0h-.12l0,0v.05l0,0a.09.09,0,0,0,.08,0s.05,0,.07-.05v-.06Z"/><path class="cls-3" d="M168.15,193.86a.24.24,0,0,0-.05-.09.1.1,0,0,0-.15,0h0a.12.12,0,0,0,0,.11l0,0s0,0,0,0h.09l0,0,0,0v0Z"/><path class="cls-3" d="M166.14,197.18v0l0,0a.15.15,0,0,0-.11,0c-.05,0-.08,0-.11.1v.06l0,0a.09.09,0,0,0,0,.05l0,0H166a.17.17,0,0,0,.12-.15Z"/><path class="cls-3" d="M167.18,196.13l0,0h-.07l0,0,0,0v.06l0,0a.21.21,0,0,0,0,.06.15.15,0,0,0,.1,0l0,0a.12.12,0,0,0,0-.09A.16.16,0,0,0,167.18,196.13Z"/><path class="cls-3" d="M162.16,201.28l0,0h0l-.06,0,0,0v.07h0l.05,0h0l.06,0A.08.08,0,0,0,162.16,201.28Z"/><path class="cls-3" d="M162.65,198.53h-.07l0,0a.12.12,0,0,0,0,.08.12.12,0,0,0,0,.09h.09l0,0A.12.12,0,0,0,162.65,198.53Z"/><path class="cls-3" d="M169.43,191.64h0v0l0,0a.14.14,0,0,0-.17,0l0,0v.07l0,0a.06.06,0,0,0,.07,0,.09.09,0,0,0,.1,0l0,0Z"/><path class="cls-3" d="M165.24,197V197l0,0h-.07l0,0c-.06.05,0,.1,0,.12l0,0h0a.1.1,0,0,0,.12-.06Z"/><path class="cls-3" d="M157.57,196.73a.11.11,0,0,0-.07,0h0l0,0s-.06.08,0,.16h.1a.1.1,0,0,0,.05-.08A.11.11,0,0,0,157.57,196.73Z"/><path class="cls-3" d="M170.33,192.8l-.05,0h-.06l0,0,0,0v.07l0,.05h0l0,0h.11a.11.11,0,0,0,0-.16Z"/><path class="cls-3" d="M169.91,194.89l0,0h0a.08.08,0,0,0-.09,0l0,0V195l0,0a.1.1,0,0,0,.15-.13Z"/><path class="cls-3" d="M169.45,198l.05,0,0,0,0,0v0l0,0h-.05a.1.1,0,0,0-.09,0,.11.11,0,0,0,0,.11l0,0Z"/><path class="cls-3" d="M164,201.08h0a.13.13,0,0,0,0-.11h0l0,0a.13.13,0,0,0-.11,0s-.07,0-.11.07V201a.09.09,0,0,0,0,.07l0,0h0v0a.1.1,0,0,0,.11,0l0,0Z"/><path class="cls-3" d="M166.36,201.76a.08.08,0,0,0,0-.07.09.09,0,0,0,0-.07.2.2,0,0,0-.15,0h0a.16.16,0,0,0-.07.13.12.12,0,0,0,0,.12l0,0h.11S166.36,201.84,166.36,201.76Z"/><path class="cls-3" d="M161.28,198.11l.08,0h0l0,0c.08-.09,0-.15,0-.17l0,0h-.07l0,0-.05,0v.1Z"/><path class="cls-3" d="M164.72,199.39v0l0,0h0a.16.16,0,0,0-.09,0h-.06l0,0v0h0a.09.09,0,0,0,0,.12v0a.14.14,0,0,0,.15,0,.16.16,0,0,0,.07-.13Z"/><path class="cls-3" d="M167.5,198.27a.07.07,0,0,0,0-.09s0,0,0-.05a.06.06,0,0,0-.07,0h0l0,0-.06,0,0,0v.09l0,0a.15.15,0,0,0,.2,0l0-.05Z"/><path class="cls-3" d="M172.14,192.15h0a.05.05,0,0,0,0,0h0v0a.07.07,0,0,0,.09,0h0l0,0,0,0,0,0V192l-.05,0a.14.14,0,0,0-.19,0A.09.09,0,0,0,172.14,192.15Z"/><path class="cls-3" d="M165.92,199.05h-.09l0,0v0h0v.07a.1.1,0,0,0,.14,0,.11.11,0,0,0,0-.08A.25.25,0,0,0,165.92,199.05Z"/><path class="cls-3" d="M160.84,195.84h.06a.09.09,0,0,0,.07,0,.06.06,0,0,0,0-.06v0l0,0a.1.1,0,0,0-.06,0h-.1a.14.14,0,0,0-.06.11.18.18,0,0,0,.05.12Z"/><path class="cls-3" d="M164,192.78v-.11h0l0,0,0,0-.06,0h0l-.05.05a.18.18,0,0,0,0,.09h0a.08.08,0,0,0,0,.08.11.11,0,0,0,.08,0H164a.09.09,0,0,0,.06,0Z"/><path class="cls-3" d="M162.15,194.8h0v0l0,0a.11.11,0,0,0,0-.08l-.06,0H162l-.07,0,0,0v0l0,0,0,0v.08a.37.37,0,0,0,.07.1l0,0h.21A.15.15,0,0,0,162.15,194.8Z"/><path class="cls-3" d="M159.06,197.87v0l0,0a.1.1,0,0,0-.15.14l0,0H159l0,0Z"/><path class="cls-3" d="M165.29,190.37h0s0,0,0,0l0,0h-.08a.25.25,0,0,0-.08.05h0a.07.07,0,0,0,0,.08v.05l0,.05,0,0,0,0h.09a.19.19,0,0,0,.1-.13Z"/><path class="cls-3" d="M165.14,192.7a.06.06,0,0,0,0,0s0,0,0,0a.08.08,0,0,0,0,0,.18.18,0,0,0-.14-.06h-.05l0,0a.21.21,0,0,0,0,.26l0,0H165l.06,0v0A.09.09,0,0,0,165.14,192.7Z"/><path class="cls-3" d="M167,188.34l0,0,0,0h.06l0,0,0,0v-.07l0,0,0,0H167a.15.15,0,0,0-.09.07v.06Z"/><path class="cls-3" d="M163.12,191.9v0h0a.08.08,0,0,0,0-.07s0,0,0-.06l0,0,0,0H163l0,0a.12.12,0,0,0-.05.09v0l0,0h0a.61.61,0,0,0,0,.06l0,0h.07l0,0h0Z"/><path class="cls-3" d="M160.49,199.31a.35.35,0,0,0,0-.06s0,0,0,0a.14.14,0,0,0,0-.06l-.05,0h0a.13.13,0,0,0-.12.06v.08l0,.07a.14.14,0,0,0,.15,0l0,0v0Z"/><path class="cls-3" d="M168.83,190.46a.1.1,0,0,0,0,.07l0,0h0a.13.13,0,0,0,.08,0l.05,0a.11.11,0,0,0,0-.16.09.09,0,0,0-.06,0h-.06A.13.13,0,0,0,168.83,190.46Z"/><path class="cls-3" d="M170.33,187.62v-.05l0-.06a.16.16,0,0,0-.11,0,.12.12,0,0,0-.1.07v.07l0,0v0l0,0,0,0,0,0a.16.16,0,0,0,.16-.08Z"/><path class="cls-3" d="M169.71,189.6h0v.06s0,0,0,0a.14.14,0,0,0,.16,0,.1.1,0,0,0,0-.1h0v0l0,0a.16.16,0,0,0-.12,0h-.05v0S169.71,189.58,169.71,189.6Z"/><path class="cls-3" d="M160.37,194.26v0a.09.09,0,0,0,0-.05l0,0h0a.12.12,0,0,0-.11,0,.15.15,0,0,0,0,.13l0,0,0,0h.05a.11.11,0,0,0,.08-.06Z"/><path class="cls-3" d="M165.54,194.47v0l0,0s0,0-.11,0-.06.09-.06.1v.06a.09.09,0,0,0,.11,0s.07-.06.07-.11Z"/><path class="cls-3" d="M163.78,194.09h.06V194l0,0-.05,0h-.07s-.07,0-.08.11,0,.1,0,.11l0,0h.08a.12.12,0,0,0,.08-.08Z"/><path class="cls-3" d="M165.37,195h0l0-.05,0,0h-.08a.17.17,0,0,0-.12.1v0s0,0,0,0v.08l0,0v0a.13.13,0,0,0,.13,0h.06l0,0A.15.15,0,0,0,165.37,195Z"/><path class="cls-3" d="M162.66,196.3a.09.09,0,0,0-.11,0,.11.11,0,0,0,0,.14l0,0h.05l0,0A.11.11,0,0,0,162.66,196.3Z"/><path class="cls-3" d="M163.88,196.08l0,0s0,0,0-.06a.08.08,0,0,0-.1,0l0,0a.13.13,0,0,0-.06.07v.06a.13.13,0,0,0,0,.07h.08l0,0a.06.06,0,0,0,0,0l0,0Z"/><path class="cls-3" d="M167.51,191.23v0h0l0,0,.05,0h.06l0,0a.15.15,0,0,0,.07-.05,0,0,0,0,0,0,0,.08.08,0,0,0,0-.1l0,0,0,0a.11.11,0,0,0-.1,0h0v0a.13.13,0,0,0-.07.12Z"/><path class="cls-3" d="M163.65,195.8v-.08l0,0,0,0h-.06l0,0a.11.11,0,0,0-.08.07v.09l0,.06a.11.11,0,0,0,.12,0l0,0v0h0Z"/></g></svg>