<svg xmlns="http://www.w3.org/2000/svg" viewBox="0 0 320.24 268.75"><defs><style>.cls-1{fill:#fff;}.cls-2{fill:#8d5c25;}.cls-3{fill:#4e514d;}.cls-4{fill:#feda2c;}</style></defs><title>kombucha</title><g id="Layer_2" data-name="Layer 2"><path class="cls-1" d="M109.82,82.35c.61,17-10.33,100.48-18.21,152.6-.66,4.4-1.22,9.29,1.31,13,2.77,4,8.16,5,13,5.6,57.36,7.25,95.89,1.35,153-7.75,5.19-.83,10.91-2,14-6.28,4.43-6.05,1.22-14.43-1.24-21.52-9.93-28.56-14.78-115.74-17-136.18,0,0-16.1-20.8-34.09-37.56-.79-.73-24.49-.11-25.59-.11-18.93-.09-18.7-.07-38.1.28-.5,0-8.63-.08-9.14.33C139,51.8,116.82,78.49,109.82,82.35Z"/><path class="cls-2" d="M238.14,137.43c11.12,10,14.26,24.9,16.88,38.81s5.19,27.57,7.79,41.36c.76,4.06,1.5,8.37-.22,12.19-3.23,7.18-13.22,9.4-21.81,10.52a784.37,784.37,0,0,1-129.84,6.05c-4.17-.15-8.87-.57-11.47-3.47-2-2.21-2.17-5.27-2.16-8.1.08-25.94,8.49-51.21,16.83-76.06,1.32-3.95,2.73-8,5.76-11.16,3.83-3.94,9.68-5.76,15.29-7.24a286.59,286.59,0,0,1,67.1-9.38c16.34-.34,35.45,2.13,43.56,14.76"/><path class="cls-3" d="M189.54,51c-1.3-17.31-12.85-32-28-39.83-16.09-8.29-35.43-9.35-53-6.15C92.56,7.88,77,14.48,64.41,24.85c-13.71,11.29-22.2,26.3-26,43.57C35.84,80,34.91,91.87,33.81,103.63c-1.24,13.22-2.33,26.45-3.42,39.68-.16,1.91,5.62.75,5.75-.87,1.63-19.75,3-39.57,5.43-59.24C43.68,66,47.79,49,59,35.33,80.12,9.65,119.65-1.18,150.77,10.9c17.56,6.81,31.53,22.38,33,41.6.11,1.45,5.94.34,5.8-1.55Z"/><path class="cls-4" d="M48.79,145a202.59,202.59,0,0,0-45.5-1.87Q3.07,164.53,1,185.83q26.85,1.66,53.79.7a3.07,3.07,0,0,0,2-.55,3,3,0,0,0,.67-2.18l1.09-26.88c.19-4.66-.37-10.52-4.75-12.14a6.1,6.1,0,0,0-6.65,1.91"/></g></svg>