<svg xmlns="http://www.w3.org/2000/svg" viewBox="0 0 320.24 268.75"><defs><style>.cls-1{fill:#fff;}.cls-2{fill:#8d5c25;}.cls-3{fill:#4e514d;}.cls-4{fill:#feda2c;}.cls-5{fill:none;}.cls-6{fill:#465777;}</style></defs><title>kombucha</title><g id="Layer_2" data-name="Layer 2"><path class="cls-1" d="M109.82,82.35c.61,17-10.33,100.48-18.21,152.6-.66,4.4-1.22,9.29,1.31,13,2.77,4,8.16,5,13,5.6,57.36,7.25,95.89,1.35,153-7.75,5.19-.83,10.91-2,14-6.28,4.43-6.05,1.22-14.43-1.24-21.52-9.93-28.56-14.78-115.74-17-136.18,0,0-16.1-20.8-34.09-37.56-.79-.73-24.49-.11-25.59-.11-18.93-.09-18.7-.07-38.1.28-.5,0-8.63-.08-9.14.33C139,51.8,116.82,78.49,109.82,82.35Z"/><path class="cls-2" d="M238.14,137.43c11.12,10,14.26,24.9,16.88,38.81s5.19,27.57,7.79,41.36c.76,4.06,1.5,8.37-.22,12.19-3.23,7.18-13.22,9.4-21.81,10.52a784.37,784.37,0,0,1-129.84,6.05c-4.17-.15-8.87-.57-11.47-3.47-2-2.21-2.17-5.27-2.16-8.1.08-25.94,8.49-51.21,16.83-76.06,1.32-3.95,2.73-8,5.76-11.16,3.83-3.94,9.68-5.76,15.29-7.24a286.59,286.59,0,0,1,67.1-9.38c16.34-.34,35.45,2.13,43.56,14.76"/><path class="cls-3" d="M189.54,51c-1.3-17.31-12.85-32-28-39.83-16.09-8.29-35.43-9.35-53-6.15C92.56,7.88,77,14.48,64.41,24.85c-13.71,11.29-22.2,26.3-26,43.57C35.84,80,34.91,91.87,33.81,103.63c-1.24,13.22-2.33,26.45-3.42,39.68-.16,1.91,5.62.75,5.75-.87,1.63-19.75,3-39.57,5.43-59.24C43.68,66,47.79,49,59,35.33,80.12,9.65,119.65-1.18,150.77,10.9c17.56,6.81,31.53,22.38,33,41.6.11,1.45,5.94.34,5.8-1.55Z"/><path class="cls-4" d="M48.79,145a202.59,202.59,0,0,0-45.5-1.87Q3.07,164.53,1,185.83q26.85,1.66,53.79.7a3.07,3.07,0,0,0,2-.55,3,3,0,0,0,.67-2.18l1.09-26.88c.19-4.66-.37-10.52-4.75-12.14a6.1,6.1,0,0,0-6.65,1.91"/><rect class="cls-5" x="205.37" y="174.41" width="91.93" height="106.27" transform="matrix(0.99, -0.13, 0.13, 0.99, -26.69, 33.51)"/><path class="cls-6" d="M246.52,226.49h-.06C246.37,226.57,246.56,226.63,246.52,226.49Z"/><path class="cls-6" d="M268.58,212.72v.2l.06.12a.53.53,0,0,0,.63.15.61.61,0,0,0,.37-.6l0-.13,0-.06-.14-.11a.6.6,0,0,0-.54,0A.58.58,0,0,0,268.58,212.72Z"/><path class="cls-6" d="M237.75,266h0a.38.38,0,0,0-.21.32l.05.15h0a.46.46,0,0,0,.17.29l.13.05h.18a.47.47,0,0,0,.14-.05l.08,0,.16-.14,0-.08,0-.21a.54.54,0,0,0-.47-.41l-.28.07Z"/><path class="cls-6" d="M242.16,183.09a.39.39,0,0,0,.34,0l.19-.16,0-.08a.41.41,0,0,0,.05-.26.4.4,0,0,0-.37-.35l-.12.07a.41.41,0,0,0-.28.15.47.47,0,0,0-.08.33h0l.12.18Z"/><path class="cls-6" d="M257,204l-.11,0a.61.61,0,0,0-.47.17.53.53,0,0,0-.14.44.57.57,0,0,0,.2.37l.12.06.08,0A.59.59,0,0,0,257,205h.06l.06,0,.12-.15a.67.67,0,0,0,0-.28.65.65,0,0,0-.18-.37Z"/><path class="cls-6" d="M208.64,253l0,0,.07.1a.58.58,0,0,0,.66.09.52.52,0,0,0,.29-.54.41.41,0,0,0-.05-.18l-.1-.11-.05,0-.16-.06a.89.89,0,0,0-.36,0l-.15.1-.05.06-.08.17,0-.07h0a.56.56,0,0,0-.08.29Z"/><path class="cls-6" d="M220.69,224.23v0l0-.21,0-.08-.18-.14a.52.52,0,0,0-.5.1.57.57,0,0,0-.18.54l.09.19.06.06.19.08A.51.51,0,0,0,220.69,224.23Z"/><path class="cls-6" d="M260.33,209.1h0l-.11.26a.48.48,0,0,0,.37.42.53.53,0,0,0,.54-.23l.06-.15v-.14a.48.48,0,0,0-.14-.28h0l-.05-.06-.05,0-.16-.06A.42.42,0,0,0,260.33,209.1Z"/><path class="cls-6" d="M232,213.21l-.16-.08a.4.4,0,0,0-.32.08.45.45,0,0,0-.16.31l0,.17.06.11.29.17a.46.46,0,0,0,.34-.16.44.44,0,0,0,.09-.34v0l-.1-.18Z"/><path class="cls-6" d="M255.61,194.32a.43.43,0,0,0-.41,0l-.1.11,0,0,0,.15v.09a.59.59,0,0,0,.14.31l.14.09.12,0a.43.43,0,0,0,.34-.13.49.49,0,0,0,.11-.36A.47.47,0,0,0,255.61,194.32Z"/><path class="cls-6" d="M212.41,213.09l-.06,0-.06.07-.07.21v.07a.48.48,0,0,0,.32.43h.12a.45.45,0,0,0,.5-.21l0-.21h0a.54.54,0,0,0,0-.19.45.45,0,0,0-.32-.38h-.13a.53.53,0,0,0-.37.18Z"/><path class="cls-6" d="M299.61,248.35l0,.07,0,.19,0,.14.12.21.07,0,.23.07H300l.23-.16.05-.1,0-.18v-.08a.4.4,0,0,0-.21-.32.39.39,0,0,0-.38,0Z"/><path class="cls-6" d="M217.6,199.51h0v.11l0,.08.15.18a1,1,0,0,0,.43.09l.19-.05.07,0,.11-.16a.45.45,0,0,0,0-.23A.56.56,0,0,0,218,199a.5.5,0,0,0-.31.18A.48.48,0,0,0,217.6,199.51Z"/><path class="cls-6" d="M289.58,219.35h0l0,0,0,.06h0l-.1.18v.05a.53.53,0,0,0,.61.48l.23-.14,0-.06a.41.41,0,0,0,.11-.34l-.06-.14,0-.06,0,0h0a.46.46,0,0,0-.55-.16Z"/><path class="cls-6" d="M256.77,216.58l-.15.24a.6.6,0,0,0-.05.28s0,.05,0,.08h0l.11.22.08.06.24.06a.48.48,0,0,0,.29-.14l.17-.19,0-.11a.65.65,0,0,0,0-.3h0l-.14-.21-.08-.06-.13,0h-.31Z"/><path class="cls-6" d="M228.89,221.77l-.07,0-.07.06-.08.22v.09a.62.62,0,0,0,.14.31l.11.07.08,0a.42.42,0,0,0,.48-.18h0l.12-.19v-.13a.39.39,0,0,0-.22-.31l0,0-.2-.07a.45.45,0,0,0-.27.09Z"/><path class="cls-6" d="M291.61,210l-.16.09-.14,0h-.18l-.07,0-.14.11a.66.66,0,0,0-.15.47.47.47,0,0,0,.12.27l.14.09.06,0h.16l.19,0a1,1,0,0,0,.57-.18l.09-.11,0-.06,0-.15v0a.59.59,0,0,0-.07-.2v-.07a.46.46,0,0,0-.64-.23A.24.24,0,0,1,291.61,210Z"/><path class="cls-6" d="M254.4,184.75a.43.43,0,0,0-.17.32l0,.05v.15h0l0,0,.08.17.07.06.26.07a.47.47,0,0,0,.53-.44l-.1-.27-.06,0a.46.46,0,0,0-.52-.18Z"/><path class="cls-6" d="M246,201.45l-.13.11,0,.05,0,.16a.45.45,0,0,0,0,.12.48.48,0,0,0,.47.44l.14,0,.06,0,.11-.1a.56.56,0,0,0,.09-.36.47.47,0,0,0-.24-.35A.44.44,0,0,0,246,201.45Z"/><path class="cls-6" d="M267.11,202.46a.46.46,0,0,0,.39.39l.14,0,.06,0,.12-.08a.59.59,0,0,0,.16-.51l-.09-.18-.06-.07-.21-.09a.48.48,0,0,0-.37.17A.56.56,0,0,0,267.11,202.46Z"/><path class="cls-6" d="M280,175.56a.72.72,0,0,0,0,.19l.16.17.08,0h.27a.56.56,0,0,0,.35-.24v-.38l-.12-.2-.07-.06-.2-.06a.53.53,0,0,0-.43.18A.42.42,0,0,0,280,175.56Z"/><path class="cls-6" d="M283.65,251.25l0-.31-.08-.09-.31-.1a.51.51,0,0,0-.37.48l.1.27.09.08.28.06a.49.49,0,0,0,.34-.39Z"/><path class="cls-6" d="M206.48,233l-.24-.06.22-.09,0-.11-.25-.19a.42.42,0,0,0-.48.38l0,.15,0,.11.25.2A.43.43,0,0,0,206.48,233Z"/><path class="cls-6" d="M231.06,232.79l0-.08-.11-.16-.06,0-.18-.07a.39.39,0,0,0-.28.1.37.37,0,0,0-.21.34l0,.14,0,0,.08.11a.44.44,0,0,0,.73-.39Z"/><path class="cls-6" d="M238.51,217.92l0,.06v.17a.54.54,0,0,0,.16.33l.13.07h.2a.48.48,0,0,0,.39-.56v0l-.11-.17-.06,0-.2-.07a.59.59,0,0,0-.4.14Z"/><path class="cls-6" d="M251.38,222.84l.05-.22a.5.5,0,0,0-.55-.45h-.07l-.24.07-.07.07-.05.11h0a.56.56,0,0,0-.09.41h0a.43.43,0,0,0,.27.28.39.39,0,0,0,.26.09l.14,0,.05,0,.09-.09.18-.13Z"/><path class="cls-6" d="M235.48,254.32v.21l0,.09.14.16.1.07a1.34,1.34,0,0,0,.38.19h.14l.06,0,.13-.06a.43.43,0,0,0,.15-.37l0-.08v-.16a.69.69,0,0,0-.36-.25.21.21,0,0,1,.11.12l-.22-.22-.11,0-.31.1A.61.61,0,0,0,235.48,254.32Z"/><path class="cls-6" d="M226.23,193.05h-.06a.49.49,0,0,0-.48.19h0l-.07,0,0,.07-.06.19v0c0,.08,0,.14,0,.12h0l.08.24,0,0a.42.42,0,0,0,.32.2l.17,0,.1,0a.69.69,0,0,0,.3-.6.57.57,0,0,0-.27-.4Z"/><path class="cls-6" d="M263.83,225.29a.51.51,0,0,0-.15.43c0,.05,0,.1,0,.17l.15.19.08,0,.23,0a.25.25,0,0,1-.13,0,.37.37,0,0,0,.16.05l.21,0,.07-.05,0,0h0a.39.39,0,0,0,.34-.38.23.23,0,0,0,0-.14.38.38,0,0,0-.34-.34l-.12,0-.15-.08-.19,0-.08,0Z"/><path class="cls-6" d="M223.51,251.44l-.15.1-.05.06,0,.1h0a.55.55,0,0,0-.06.32l.11.19,0,0h0c.2.39.47.32.58.27l0,0,.2-.16,0-.1a.4.4,0,0,0,.05-.27v-.06l-.15-.19a.36.36,0,0,0-.17-.21A.5.5,0,0,0,223.51,251.44Z"/><path class="cls-6" d="M206.21,201.16v-.06a.49.49,0,0,0-.11-.23l0-.05-.08-.08-.26-.09-.17,0-.17.07-.06.06-.1.18a.69.69,0,0,0,0,.28.48.48,0,0,0,.17.31l.11.06.1,0a.56.56,0,0,0,.45-.18h0l.08-.06,0-.06Z"/><path class="cls-6" d="M271.11,245.41l0,.09.12.17.07.05.21.05.15,0,.19-.1.06-.07.08-.22v0a.42.42,0,0,0-.09-.22h0l0-.07-.07-.06-.2-.09a.5.5,0,0,0-.38.15A.45.45,0,0,0,271.11,245.41Z"/><path class="cls-6" d="M237.24,208.05a.4.4,0,0,0-.18.36v.07a.54.54,0,0,0,.62.4l.19-.12.06-.08.06-.22,0-.18-.13-.21-.08-.06-.1,0v0a.46.46,0,0,0-.26,0l-.16.09Z"/><path class="cls-6" d="M272.42,221.77h0a.4.4,0,0,0-.21.31.88.88,0,0,0,0,.17l.14.22.08.06.26,0a.52.52,0,0,0,.4-.38l-.07-.27,0,0h0a.41.41,0,0,0-.3-.21l-.26.09Z"/><path class="cls-6" d="M221.87,209l.33.26,0,0a.5.5,0,0,0,.43.11l.12-.06a.46.46,0,0,0,.16-.34l.07-.09a.58.58,0,0,0-.63-.48.49.49,0,0,0-.32.18A.53.53,0,0,0,221.87,209Z"/><path class="cls-6" d="M236.08,195.19A.49.49,0,0,0,236,195l-.14-.14-.07,0-.16,0a.55.55,0,0,0-.33,0l-.14.09-.05.06,0,.1a.58.58,0,0,0-.06.3l0,.09.12.13a.42.42,0,0,0,.37.24l.12,0h0l.18-.07.06-.05.11-.18A.52.52,0,0,0,236.08,195.19Z"/><path class="cls-6" d="M245.69,209.9a.65.65,0,0,0-.32.66.6.6,0,0,0,.41.51l.33-.11.08-.11.05-.14a.31.31,0,0,1,0,.1h0a.67.67,0,0,0,.17-.52v0l-.11-.19-.05-.05a.47.47,0,0,0-.48-.13Z"/><path class="cls-6" d="M225,177.82l0-.12-.13-.21-.09-.06-.24,0a.4.4,0,0,0-.37.4l0,.1h0a.42.42,0,0,0,.23.33.41.41,0,0,0,.4,0l.12-.13,0-.07Z"/><path class="cls-6" d="M239.47,224.13l-.12-.08-.1,0a.52.52,0,0,0-.44.15.59.59,0,0,0-.15.46.49.49,0,0,0,.23.37.53.53,0,0,0,.45,0l.06,0,0,0a.58.58,0,0,0,.18-.52A.6.6,0,0,0,239.47,224.13Z"/><path class="cls-6" d="M282.41,197.57l.09.22.11.11a.5.5,0,0,0,.22.1L283,198l.08,0,.12-.17,0-.17a.45.45,0,0,0-.46-.39A.41.41,0,0,0,282.41,197.57Z"/><path class="cls-6" d="M238.85,245l-.07.09a.47.47,0,0,0,.18.32.5.5,0,0,0,.39.11.56.56,0,0,0,.47-.66l-.35-.27h0a.74.74,0,0,0-.32,0l-.17.1A.5.5,0,0,0,238.85,245Z"/><path class="cls-6" d="M246,252.58s0,.06,0,.09l.12.19.08,0,.21.05h.15l.22-.14.06-.09v-.09h0a.51.51,0,0,0,.06-.31l-.1-.19-.07-.06,0-.06-.09-.07-.29,0A.57.57,0,0,0,246,252.58Z"/><path class="cls-6" d="M245.23,235.82l-.06.07a.48.48,0,0,0,0,.27v.05l.15.2.08.05.21,0a.4.4,0,0,0,.38-.4l-.09-.21h0a.4.4,0,0,0-.32-.22l-.24.08Z"/><path class="cls-6" d="M263,250.26l.06,0a.39.39,0,0,1,.39.34l-.23,0h-.08l0,0-.05,0,0,0,.07.07a.59.59,0,0,0,0-.08l.05.06-.06.06.12.11a.46.46,0,0,1-.39.14l-.22-.12-.1-.16a.43.43,0,0,1,.09-.4.4.4,0,0,1,.3-.14Zm.05.5h0l-.08,0-.06-.05v0l-.07,0a.22.22,0,0,0,.19.18v0h.05Z"/><path class="cls-6" d="M260.37,235.88l0,.17s0,0,0-.05l0,.24,0,.1.17.18a.62.62,0,0,0,.48,0l-.11-.27a.5.5,0,0,0,0-.13h0l0-.08h0l.08-.3c.05,0,.08.05.08,0h0a.46.46,0,0,0-.66,0Z"/><path class="cls-6" d="M258.42,264.84l0-.13a.57.57,0,0,0-.61-.39l-.06,0a.47.47,0,0,0-.32.52.59.59,0,0,0,.2.38l.13.07H258a.51.51,0,0,0,.39-.29l0-.12Z"/><path class="cls-6" d="M258.21,242.82l.08.12a.41.41,0,0,0,.4.31l.12,0,.05,0,.06,0,.2-.1a.39.39,0,0,0,.09-.33.63.63,0,0,0-.11-.28l-.11-.12-.06,0-.17-.05a.63.63,0,0,0-.44.18A.49.49,0,0,0,258.21,242.82Z"/><path class="cls-6" d="M268.4,187.29l-.12.18a.5.5,0,0,0,0,.13l.06.26.07.08.23.11a.46.46,0,0,0,.49-.44l-.1-.21h0a.43.43,0,0,0-.32-.21l-.21.06Z"/><path class="cls-6" d="M226.64,239.43l-.06,0-.1.09a.57.57,0,0,0-.11.42.53.53,0,0,0,.22.37.57.57,0,0,0,.44.11l.22-.17,0-.06,0,0,.06-.09v-.29a.64.64,0,0,0-.6-.42Z"/><path class="cls-6" d="M256.77,228.26l-.24,0,0,0a.39.39,0,0,0-.25.35v0a.44.44,0,0,0,0,.13l0,.14,0,.06.1.11a.77.77,0,0,0,.31.12h.17l.08,0,.14-.11a.48.48,0,0,0,.11-.32.19.19,0,0,1,0,.07l0-.22,0-.09-.12-.18A.77.77,0,0,0,256.77,228.26Z"/><path class="cls-6" d="M252.61,208.6l0,.11.27.2a.56.56,0,0,0,.45-.1.46.46,0,0,0,.15-.32l0-.14,0-.06-.09-.11a.57.57,0,0,0-.71.11Z"/><path class="cls-6" d="M281.91,223.83a.44.44,0,0,0,.06.16l0,.14a.49.49,0,0,0,.42.15h.16l.07,0,.14-.08a.5.5,0,0,0,.12-.37.39.39,0,0,0,0-.11h0v-.09l-.15-.23a.63.63,0,0,0-.61,0A.44.44,0,0,0,281.91,223.83Z"/><path class="cls-6" d="M277.37,237.09l-.08.11a.44.44,0,0,0,0,.24v0h0l0,.15,0,.07.15.14a.53.53,0,0,0,.52,0,.56.56,0,0,0,.25-.45l-.07-.22-.06-.07-.22-.11a.84.84,0,0,0-.35,0l-.13.07Z"/><rect class="cls-5" x="200.29" y="138.15" width="103.14" height="89.22" transform="translate(-52.21 248.9) rotate(-48.24)"/><path class="cls-6" d="M249.56,178.56l0,0C249.41,178.5,249.49,178.68,249.56,178.56Z"/><path class="cls-6" d="M273.69,186l-.1.09,0,.05-.05.12a.52.52,0,0,0,.29.56.58.58,0,0,0,.67-.11l.07-.13,0-.07v-.17a.63.63,0,0,0-.36-.39A.6.6,0,0,0,273.69,186Z"/><path class="cls-6" d="M215,197.3h0a.41.41,0,0,0-.37.05l-.07.13h0a.38.38,0,0,0-.1.31l0,.12,0,.05.09.09a.34.34,0,0,0,.12.08l.07,0,.21,0,.08,0,.17-.11a.54.54,0,0,0,0-.61l-.23-.16Z"/><path class="cls-6" d="M278.58,147.74a.39.39,0,0,0,.19.27l.24,0,.08,0a.38.38,0,0,0,.23-.12.4.4,0,0,0,0-.5l-.12,0a.38.38,0,0,0-.29-.11.4.4,0,0,0-.29.15h0l-.06.21Z"/><path class="cls-6" d="M272.69,171.92l-.05-.09a.53.53,0,0,0-.42-.24.52.52,0,0,0-.41.18.59.59,0,0,0-.14.38l0,.13,0,.07a.53.53,0,0,0,.29.2h0l.06,0h.26a.54.54,0,0,0,.22-.15.61.61,0,0,0,.15-.37Z"/><path class="cls-6" d="M206,167.71l0,0,0,.12a.55.55,0,0,0,.36.53.5.5,0,0,0,.58-.12.86.86,0,0,0,.1-.16v-.2l-.06-.15a.78.78,0,0,0-.24-.26l-.17,0h-.08l-.17.06.06,0h0a.52.52,0,0,0-.26.12Z"/><path class="cls-6" d="M234.78,158.2l0,0,.13-.16,0-.09v-.21a.5.5,0,0,0-.39-.31.58.58,0,0,0-.52.21l-.07.19v.08l.06.19A.5.5,0,0,0,234.78,158.2Z"/><path class="cls-6" d="M271.1,177.6h0l-.27.08a.49.49,0,0,0-.07.54.51.51,0,0,0,.52.24l.14,0,.09-.07h0a.46.46,0,0,0,.12-.29h0l0-.08v-.07l-.06-.15A.4.4,0,0,0,271.1,177.6Z"/><path class="cls-6" d="M250,159.44l-.05-.17a.39.39,0,0,0-.26-.18.41.41,0,0,0-.33.08l-.11.12-.05.11.06.33a.47.47,0,0,0,.33.14.42.42,0,0,0,.32-.15l0,0,.07-.18Z"/><path class="cls-6" d="M278.92,164.74a.43.43,0,0,0-.28-.29h-.21l-.13.07-.07.06a.58.58,0,0,0-.13.3l0,.16.05.1a.44.44,0,0,0,.31.17.45.45,0,0,0,.34-.15A.48.48,0,0,0,278.92,164.74Z"/><path class="cls-6" d="M237.67,145l-.06,0h-.09l-.2.08,0,.05a.49.49,0,0,0-.11.51l.08.09h0a.43.43,0,0,0,.47.23l.18-.11h0a1,1,0,0,0,.15-.12.45.45,0,0,0,.07-.47l0-.06,0,0a.54.54,0,0,0-.37-.15Z"/><path class="cls-6" d="M267.35,231.37h-.07l-.16.1-.1.1-.08.22v.09l.1.2,0,0,.26.07.11,0,.16-.1.05-.05a.41.41,0,0,0,.11-.36.42.42,0,0,0-.24-.28Z"/><path class="cls-6" d="M250.92,140.19h0l-.07.06,0,.08,0,.22a1.08,1.08,0,0,0,.2.37l.16.11.08,0,.2,0a.59.59,0,0,0,.18-.13.56.56,0,0,0,0-.76.46.46,0,0,0-.33-.11A.5.5,0,0,0,250.92,140.19Z"/><path class="cls-6" d="M282.21,205.55h-.12l-.2.05,0,0a.51.51,0,0,0,0,.75l.25.07h.07a.4.4,0,0,0,.32-.13l.07-.14v-.11h0a.46.46,0,0,0-.23-.51Z"/><path class="cls-6" d="M263.36,179.76l-.28,0a.54.54,0,0,0-.23.14.18.18,0,0,0-.05.07h0l-.08.23v.09l.11.22a.48.48,0,0,0,.29.12h.25l.1,0a.57.57,0,0,0,.23-.17h0l.07-.23v-.1l-.07-.11h0l-.2-.22Z"/><path class="cls-6" d="M241.8,162.64l-.07,0h-.09l-.22.08-.06.06a.58.58,0,0,0-.13.3v.12l0,.08a.4.4,0,0,0,.44.24h0l.22,0,.09-.08a.39.39,0,0,0,.09-.36v0l-.07-.19a.4.4,0,0,0-.24-.14Z"/><path class="cls-6" d="M290.34,201.1l-.17-.06-.07-.11-.12-.13-.07,0-.17,0a.63.63,0,0,0-.44.18.57.57,0,0,0-.12.26l0,.16,0,.06.1.12.14.13a1,1,0,0,0,.49.3h.2l.13-.08,0,0a.54.54,0,0,0,.1-.18l.06,0a.45.45,0,0,0-.23-.62A.31.31,0,0,1,290.34,201.1Z"/><path class="cls-6" d="M285.16,157.76a.39.39,0,0,0-.34.08l0,0-.07.07h0v0h0v0l-.06.16v.1l.11.24a.45.45,0,0,0,.66.1l.13-.25v-.07a.43.43,0,0,0-.19-.49Z"/><path class="cls-6" d="M267.59,162.25l-.16,0h-.07l-.14.06-.09.08a.46.46,0,0,0,0,.62l.12.08,0,0,.15,0a.47.47,0,0,0,.31-.16.5.5,0,0,0,.12-.4A.46.46,0,0,0,267.59,162.25Z"/><path class="cls-6" d="M280.28,178.35a.42.42,0,0,0,0,.52l.1.1.06,0,.13,0a.64.64,0,0,0,.48-.21l.07-.18v-.09l-.07-.21a.49.49,0,0,0-.35-.17A.51.51,0,0,0,280.28,178.35Z"/><path class="cls-6" d="M308.18,170.65a.74.74,0,0,0-.11.16l0,.22,0,.09.17.2a.55.55,0,0,0,.4.09l.17-.13h0l0,0,0,0L309,171v-.08l-.09-.19a.5.5,0,0,0-.4-.2A.43.43,0,0,0,308.18,170.65Z"/><path class="cls-6" d="M255.06,221.52l.2-.23,0-.11-.13-.29a.49.49,0,0,0-.59,0l-.13.25v.11l.14.25a.51.51,0,0,0,.5,0Z"/><path class="cls-6" d="M219.28,153.4l-.11-.22.21.11.05-.11v-.3a.41.41,0,0,0-.59-.11l-.09.11-.06.1v.31A.42.42,0,0,0,219.28,153.4Z"/><path class="cls-6" d="M235.11,171.24l0-.06,0-.18v-.08l-.06-.17a.52.52,0,0,0-.64-.08l-.08.11,0,.05,0,.13a.44.44,0,0,0,.29.4A.42.42,0,0,0,235.11,171.24Z"/><path class="cls-6" d="M234,234.69l-.21.06a.55.55,0,0,0-.19.14.53.53,0,0,0-.13.34l0,.16,0,.06,0,0,.09.15.09.06.24,0a.76.76,0,0,0,.35-.2.58.58,0,0,0,.11-.53l-.18-.18h0l0-.05-.17-.06Z"/><path class="cls-6" d="M250.74,167.24l-.06,0-.13.09a.52.52,0,0,0-.14.33l0,.14,0,.05.08.11a.48.48,0,0,0,.66-.06l0,0,.05-.19v-.08l-.07-.19a.55.55,0,0,0-.36-.2Z"/><path class="cls-6" d="M255.34,179.79l.19-.1a.49.49,0,0,0,0-.69l0-.05-.2-.13h-.1l-.11,0v0a.59.59,0,0,0-.35.2h0a.42.42,0,0,0,0,.38.38.38,0,0,0,.09.24l.12.08.06,0H255l.21.05Z"/><path class="cls-6" d="M222.16,188.19l-.17.14,0,.07,0,.21s0,.06,0,.11a1,1,0,0,0,.1.4l.09.11,0,0,.13.06a.42.42,0,0,0,.37-.13l0-.07.11-.11a.77.77,0,0,0,0-.43.24.24,0,0,1,0,.17l0-.31-.05-.1-.27-.16A.52.52,0,0,0,222.16,188.19Z"/><path class="cls-6" d="M261.15,142.41l0-.06a.5.5,0,0,0-.45-.22h0l-.08,0h-.08l-.17.08,0,0a.38.38,0,0,0-.07.1l0,0-.12.21v0a.44.44,0,0,0,.06.37l.14.11.1,0a.68.68,0,0,0,.63-.17.54.54,0,0,0,.12-.45Z"/><path class="cls-6" d="M261.46,190.47a.5.5,0,0,0-.41.17,1,1,0,0,0-.1.14l0,.22,0,.09.13.19a.31.31,0,0,1-.08-.1,1.14,1.14,0,0,0,.06.15l.17.12.08,0h0l0,0a.37.37,0,0,0,.49,0l.11-.08a.38.38,0,0,0,0-.47l-.1-.06a.75.75,0,0,0,0-.16l-.11-.15-.06-.05Z"/><path class="cls-6" d="M216.64,177.59l-.17-.05h-.07l-.1,0h0a.49.49,0,0,0-.27.16l-.08.19V178h0c-.15.39.07.55.17.6h0l.24.05.1,0a.43.43,0,0,0,.24-.13l0-.05,0-.23a.48.48,0,0,0,.05-.26A.53.53,0,0,0,216.64,177.59Z"/><path class="cls-6" d="M242.45,132.91l.05,0a.43.43,0,0,0,.1-.23l0,0v-.1l-.1-.25-.13-.12-.16-.07h-.08l-.19.05a.56.56,0,0,0-.23.16.47.47,0,0,0-.12.32l0,.12,0,.08a.5.5,0,0,0,.42.21h0l.09,0h.07Z"/><path class="cls-6" d="M251.36,208.62l-.05.07-.05.2V209l.1.19.11.09.19.08h.09l.21-.09,0,0a.6.6,0,0,0,.1-.21h0l0-.07v-.09l-.07-.2a.48.48,0,0,0-.35-.19A.46.46,0,0,0,251.36,208.62Z"/><path class="cls-6" d="M257.17,160a.4.4,0,0,0-.38.1l-.05,0a.53.53,0,0,0,.11.71l.21.06h.09l.2-.1.11-.13.08-.24,0-.09,0-.08h0a.51.51,0,0,0-.15-.21l-.17-.06Z"/><path class="cls-6" d="M269.51,194.53h0a.37.37,0,0,0-.36,0,.42.42,0,0,0-.14.09l-.08.24v.1l.14.21a.48.48,0,0,0,.53,0l.16-.22v0h0a.4.4,0,0,0,0-.36l-.23-.13Z"/><path class="cls-6" d="M246.67,149.38l0,.41s0,0,0-.06a.49.49,0,0,0,.19.39l.12,0a.45.45,0,0,0,.36-.09h.11a.57.57,0,0,0,0-.77.49.49,0,0,0-.34-.12A.56.56,0,0,0,246.67,149.38Z"/><path class="cls-6" d="M265.85,151a.69.69,0,0,0,.1-.17l0-.18,0-.08-.07-.14a.6.6,0,0,0-.23-.23l-.16,0h-.07l-.11,0a.46.46,0,0,0-.25.15l-.06.07,0,.17a.39.39,0,0,0,.06.42l.11.06,0,0,.16.08.07,0,.2,0A.46.46,0,0,0,265.85,151Z"/><path class="cls-6" d="M261.19,167.39a.63.63,0,0,0-.69.19.58.58,0,0,0-.11.62l.3.17h.12l.14-.05-.09,0h0a.64.64,0,0,0,.49-.21v0l.08-.2v-.07a.45.45,0,0,0-.21-.44Z"/><path class="cls-6" d="M271.53,131.83l.08-.09.07-.23v-.1l-.12-.2a.4.4,0,0,0-.53,0l0,.1h0a.38.38,0,0,0-.09.37.37.37,0,0,0,.27.27h.17l.07,0Z"/><path class="cls-6" d="M246.81,171.89l0-.14,0-.08a.49.49,0,0,0-.39-.23.52.52,0,0,0-.43.19.46.46,0,0,0-.13.39.5.5,0,0,0,.26.36l.06,0h.06a.53.53,0,0,0,.49-.2A.55.55,0,0,0,246.81,171.89Z"/><path class="cls-6" d="M293.61,186.44l-.11.2v.15a.42.42,0,0,0,.06.23l.17.13.09,0,.2,0,.14-.1a.44.44,0,0,0,0-.58A.39.39,0,0,0,293.61,186.44Z"/><path class="cls-6" d="M231.13,184.72H231a.48.48,0,0,0-.11.34.49.49,0,0,0,.17.35.54.54,0,0,0,.78-.08l0-.42h0a.82.82,0,0,0-.21-.22l-.19-.06A.55.55,0,0,0,231.13,184.72Z"/><path class="cls-6" d="M230.14,194.82l0,.06-.06.21v.09l.1.19.1.1.24.07h.1l.08-.05h0a.49.49,0,0,0,.27-.15l.07-.2v-.08l0-.06v-.11l-.16-.24A.56.56,0,0,0,230.14,194.82Z"/><path class="cls-6" d="M241.91,183.55h-.09a.45.45,0,0,0-.23.13l0,0-.05.24,0,.09.11.17a.39.39,0,0,0,.53,0l.1-.19h0a.41.41,0,0,0,0-.38l-.22-.12Z"/><path class="cls-6" d="M242.67,205.79l.05,0a.39.39,0,0,1,0,.5l-.17-.15,0,.06-.09-.11h0v0l0,0h0v.1a.12.12,0,0,0,.09,0v.08h-.08v.15a.46.46,0,0,1-.35-.19L242,206l.06-.18a.4.4,0,0,1,.64-.05Zm-.34.36h0s-.05,0-.06,0V206s0,0,0,0l0-.07a.21.21,0,0,0,0,.25l0,0,0,0Z"/><path class="cls-6" d="M251.5,194.68l-.14.09,0,0-.19.14-.05.09,0,.24a.6.6,0,0,0,.3.36l.12-.25.12-.06h0l.07,0h0l.27-.13a.27.27,0,0,1,0,.09h0a.45.45,0,0,0-.38-.53Z"/><path class="cls-6" d="M229.05,211.69l.08-.1a.55.55,0,0,0-.1-.69l-.05,0a.45.45,0,0,0-.59.1.56.56,0,0,0-.15.39l0,.13,0,.06.09.1,0,0a.51.51,0,0,0,.46.1l.11-.06Z"/><path class="cls-6" d="M245.05,197.52l0,.13a.41.41,0,0,0,0,.5l.1.07.05,0h.07l.2.09a.41.41,0,0,0,.3-.14.94.94,0,0,0,.14-.26v-.23l-.08-.15a.58.58,0,0,0-.41-.2A.44.44,0,0,0,245.05,197.52Z"/><path class="cls-6" d="M292.21,169.63l-.21,0-.12.05-.15.21,0,.1.07.25a.44.44,0,0,0,.63.07l.1-.21h0a.39.39,0,0,0,0-.36l-.18-.12Z"/><path class="cls-6" d="M227.43,172.24l-.06,0-.14,0a.6.6,0,0,0-.37.19.58.58,0,0,0-.13.4.55.55,0,0,0,.2.39l.26.06.07,0h0l.11,0,.22-.18a.6.6,0,0,0-.08-.7Z"/><path class="cls-6" d="M254.8,187.2l-.18-.16h0a.37.37,0,0,0-.41.05l0,0-.11.07-.08.11,0,.06,0,.14a.89.89,0,0,0,.11.31l.12.12.06,0,.18,0a.47.47,0,0,0,.3-.13l-.06,0,.18-.11,0-.07.06-.21A1.08,1.08,0,0,0,254.8,187.2Z"/><path class="cls-6" d="M266.54,171.63l-.05.1,0,.33a.53.53,0,0,0,.36.26.45.45,0,0,0,.33-.09l.08-.12,0-.05,0-.14a.56.56,0,0,0-.53-.45Z"/><path class="cls-6" d="M274.05,202.79a.37.37,0,0,0-.08.15l-.08.11a.49.49,0,0,0,.15.41l.11.12.05,0,.15,0a.42.42,0,0,0,.35-.15.24.24,0,0,0,.06-.08h0l.06-.06.07-.25a.56.56,0,0,0-.41-.43A.4.4,0,0,0,274.05,202.79Z"/><path class="cls-6" d="M261.45,207.91h-.14a.61.61,0,0,0-.2.13l0,0h0l-.1.1,0,.08v.2a.52.52,0,0,0,.34.37.54.54,0,0,0,.5-.1l.11-.19,0-.09-.06-.24a1,1,0,0,0-.23-.24l-.13-.05Z"/><rect class="cls-5" x="206.04" y="89.56" width="83.88" height="96.97" transform="translate(-13.75 247.81) rotate(-51.86)"/><path class="cls-6" d="M251.79,135.63l0,0C251.83,135.49,251.66,135.57,251.79,135.63Z"/><path class="cls-6" d="M246.28,158.72l-.09-.09,0,0-.12,0a.49.49,0,0,0-.51.31.54.54,0,0,0,.14.62l.13,0,.06,0,.16,0a.59.59,0,0,0,.35-.36A.55.55,0,0,0,246.28,158.72Z"/><path class="cls-6" d="M232.15,104.35h0a.34.34,0,0,0-.07-.34L232,104h0a.39.39,0,0,0-.3-.07l-.11,0,0,0-.09.08a.64.64,0,0,0-.06.12.25.25,0,0,0,0,.07v.2l0,.07.12.15a.48.48,0,0,0,.56,0l.14-.22Z"/><path class="cls-6" d="M282.43,161a.41.41,0,0,0-.25.2l0,.22,0,.08a.42.42,0,0,0,.13.21.36.36,0,0,0,.47,0l0-.12a.41.41,0,0,0,.09-.27.39.39,0,0,0-.16-.27h0l-.2-.05Z"/><path class="cls-6" d="M259.38,156.94l.09-.05a.51.51,0,0,0,.2-.4.47.47,0,0,0-.19-.38.56.56,0,0,0-.37-.11l-.12,0-.06,0a.51.51,0,0,0-.18.28h0l0,.06,0,.07,0,.17a.45.45,0,0,0,.16.2.53.53,0,0,0,.35.12Z"/><path class="cls-6" d="M259.39,94.13l-.05,0-.11,0a.52.52,0,0,0-.48.37.48.48,0,0,0,.15.54.8.8,0,0,0,.16.08h.18l.14-.07a.76.76,0,0,0,.23-.24l0-.16v-.07l-.06-.16,0,.05h0a.5.5,0,0,0-.13-.23Z"/><path class="cls-6" d="M270,120.56l0,0,.16.11.08,0,.21,0a.46.46,0,0,0,.26-.38.51.51,0,0,0-.23-.47l-.18-.06h-.07l-.18.06A.49.49,0,0,0,270,120.56Z"/><path class="cls-6" d="M254,155.79h0l-.1-.25a.43.43,0,0,0-.5,0,.49.49,0,0,0-.21.5l0,.13.07.08,0,0a.46.46,0,0,0,.27.09h0l.08,0h.06l.14-.06A.38.38,0,0,0,254,155.79Z"/><path class="cls-6" d="M269.75,134.94l.16-.06a.33.33,0,0,0,.15-.25.38.38,0,0,0-.09-.31l-.12-.09-.11,0-.3.07a.46.46,0,0,0-.12.32.41.41,0,0,0,.16.29l0,0,.17.05Z"/><path class="cls-6" d="M266.5,162.36a.39.39,0,0,0,.25-.28v-.19l-.07-.12-.07-.06a.49.49,0,0,0-.28-.11l-.15,0-.09.05a.36.36,0,0,0-.14.31.42.42,0,0,0,.15.3A.45.45,0,0,0,266.5,162.36Z"/><path class="cls-6" d="M282.53,122.49l0-.06v-.08l-.09-.19,0,0a.47.47,0,0,0-.49-.08l-.08.09h0a.4.4,0,0,0-.19.45l.11.16h0a.46.46,0,0,0,.12.13.39.39,0,0,0,.44,0l.06,0,0,0a.46.46,0,0,0,.12-.35Z"/><path class="cls-6" d="M203.29,155.46l0-.07-.09-.14-.11-.09-.21,0h-.08l-.19.1,0,0-.05.25,0,.1.09.15.06,0a.37.37,0,0,0,.34.08.38.38,0,0,0,.25-.24Z"/><path class="cls-6" d="M287.86,134.63h0l-.06-.07-.08,0-.21,0a.91.91,0,0,0-.33.22l-.09.16,0,.07,0,.18a.54.54,0,0,0,.14.16.5.5,0,0,0,.7-.08.44.44,0,0,0,.09-.31A.46.46,0,0,0,287.86,134.63Z"/><path class="cls-6" d="M228.39,167.87h0v0l0-.06h0l-.05-.18,0,0a.49.49,0,0,0-.71.08l0,.24v.07a.4.4,0,0,0,.15.29l.13.05h.11a.41.41,0,0,0,.46-.24Z"/><path class="cls-6" d="M251.48,148.65l-.06-.25a.43.43,0,0,0-.15-.22l-.06,0h0l-.22-.07h-.09l-.19.11a.49.49,0,0,0-.1.28v.24l0,.09a.73.73,0,0,0,.18.2h0l.22.06.1,0,.09-.07h0l.19-.2Z"/><path class="cls-6" d="M266.26,127.4l0-.06v-.09l-.09-.19-.06-.06a.57.57,0,0,0-.29-.11l-.11,0-.08,0a.39.39,0,0,0-.19.43h0l0,.2.08.08a.35.35,0,0,0,.35.06h0l.18-.08a.54.54,0,0,0,.12-.23Z"/><path class="cls-6" d="M233.05,175.24l0-.17.1-.07.11-.12,0-.07,0-.16a.61.61,0,0,0-.2-.4.45.45,0,0,0-.25-.09l-.15,0,0,0-.11.1a1.71,1.71,0,0,1-.11.14.84.84,0,0,0-.25.48v.13l0,.06.08.11,0,0a.44.44,0,0,0,.17.08l0,.06a.41.41,0,0,0,.56-.26A.27.27,0,0,1,233.05,175.24Z"/><path class="cls-6" d="M273.41,167.8a.36.36,0,0,0-.09-.31l-.05,0-.07-.06v0h-.05l-.15-.05h-.09l-.22.13a.42.42,0,0,0-.06.62l.24.11h.07a.41.41,0,0,0,.45-.22Z"/><path class="cls-6" d="M268.16,151.59v-.22l-.07-.14-.08-.07a.42.42,0,0,0-.58,0l-.08.11v.06l0,.13a.45.45,0,0,0,.18.29.41.41,0,0,0,.38.08A.42.42,0,0,0,268.16,151.59Z"/><path class="cls-6" d="M253.81,164.45a.41.41,0,0,0-.5,0l-.08.1,0,.05,0,.13a.58.58,0,0,0,.23.44l.17.06h.09l.19-.08a.46.46,0,0,0,.14-.34A.5.5,0,0,0,253.81,164.45Z"/><path class="cls-6" d="M262.68,190.17a.43.43,0,0,0-.15-.09l-.21,0-.08,0-.18.17a.53.53,0,0,0-.06.38l.14.16v0l0,0,0,0,.21.06h.08l.18-.09a.56.56,0,0,0,.16-.39A.4.4,0,0,0,262.68,190.17Z"/><path class="cls-6" d="M211.8,143.35l.23.17h.11l.26-.14a.46.46,0,0,0-.06-.55l-.24-.11H212l-.23.14a.45.45,0,0,0,0,.47Z"/><path class="cls-6" d="M273.6,105.73l.2-.12-.09.2.1,0,.29,0a.39.39,0,0,0,.06-.56l-.11-.08-.1,0-.28,0A.39.39,0,0,0,273.6,105.73Z"/><path class="cls-6" d="M257.79,121.64l.06,0,.18,0h.07l.15-.07a.41.41,0,0,0,.13-.25.34.34,0,0,0-.09-.35l-.1-.07-.05,0-.13,0a.43.43,0,0,0-.36.29A.41.41,0,0,0,257.79,121.64Z"/><path class="cls-6" d="M198.19,124.33l-.06-.19A.83.83,0,0,0,198,124a.48.48,0,0,0-.33-.1l-.14,0-.06,0,0,0-.14.1,0,.08,0,.22a.66.66,0,0,0,.21.32.52.52,0,0,0,.5.08l.16-.18h0l0-.06.05-.16Z"/><path class="cls-6" d="M262.48,136.07l0,0-.1-.12a.43.43,0,0,0-.32-.11l-.12,0-.05,0-.1.09a.45.45,0,0,0,.1.61l0,0,.18,0h.08l.17-.08a.52.52,0,0,0,.16-.35Z"/><path class="cls-6" d="M251,141.13l.11.17a.46.46,0,0,0,.65-.06l0,0,.11-.2v-.09l0-.11h0a.5.5,0,0,0-.2-.32h0a.37.37,0,0,0-.36,0,.37.37,0,0,0-.22.1l-.07.12v.16l0,.2Z"/><path class="cls-6" d="M241.12,110.49l-.13-.14-.08,0h-.2l-.1,0a1.12,1.12,0,0,0-.37.12l-.09.09,0,0,0,.13a.35.35,0,0,0,.14.33l.06,0,.11.09a.69.69,0,0,0,.4-.06.19.19,0,0,1-.15,0h.28l.1,0,.13-.26A.52.52,0,0,0,241.12,110.49Z"/><path class="cls-6" d="M286.4,144.36l0,0a.47.47,0,0,0,.19-.43h0v-.15l-.09-.16,0,0a.37.37,0,0,0-.09-.06l0,0-.21-.1h0a.37.37,0,0,0-.34.08l-.09.13,0,.1a.64.64,0,0,0,.2.58.49.49,0,0,0,.43.08Z"/><path class="cls-6" d="M241.31,147.51a.45.45,0,0,0-.18-.38l-.14-.08-.21,0-.08,0-.17.13a.28.28,0,0,1,.09-.08.42.42,0,0,0-.13.07l-.11.16,0,.08v0l0,0a.36.36,0,0,0,0,.47.34.34,0,0,0,.08.09.37.37,0,0,0,.45,0l0-.1.15,0,.13-.11,0-.06Z"/><path class="cls-6" d="M250.74,104.69l0-.16v-.07l0-.09h0a.45.45,0,0,0-.16-.24l-.19-.06h-.06a.39.39,0,0,0-.55.2l0,0,0,.24,0,.09a.4.4,0,0,0,.15.21l0,0,.22,0a.36.36,0,0,0,.24,0A.44.44,0,0,0,250.74,104.69Z"/><path class="cls-6" d="M294.2,126.26l0,0a.37.37,0,0,0,.22.09h.14l.23-.11.1-.13L295,126v-.07l-.05-.18a.64.64,0,0,0-.16-.2.39.39,0,0,0-.31-.09l-.11,0-.08.05a.51.51,0,0,0-.17.41h0v.15Z"/><path class="cls-6" d="M223.69,139.1l-.07,0-.19,0h-.08l-.17.11-.08.1-.06.19v.08l.09.19,0,0a.3.3,0,0,0,.19.08h0l.06,0h.08l.19-.07a.44.44,0,0,0,.15-.34A.42.42,0,0,0,223.69,139.1Z"/><path class="cls-6" d="M269.63,141.67a.38.38,0,0,0-.11-.35l0,0a.5.5,0,0,0-.66.14l-.05.2v.09l.11.18.12.1.23,0h.09l.07-.05v0a.55.55,0,0,0,.19-.16l0-.16Z"/><path class="cls-6" d="M238,155.3h0a.38.38,0,0,0-.06-.34.53.53,0,0,0-.1-.12l-.22-.06-.1,0-.19.13a.48.48,0,0,0,0,.51l.22.13h0a.35.35,0,0,0,.33-.06l.12-.22Z"/><path class="cls-6" d="M279,131.19l-.38.05.05,0a.39.39,0,0,0-.35.2l0,.11a.43.43,0,0,0,.11.33v.1a.52.52,0,0,0,.72-.09.44.44,0,0,0,.09-.33A.51.51,0,0,0,279,131.19Z"/><path class="cls-6" d="M278.62,149.28a.51.51,0,0,0,.16.09H279l.07,0,.12-.08a.55.55,0,0,0,.21-.22l0-.15v-.07l0-.1a.43.43,0,0,0-.16-.23l-.07-.05H279a.37.37,0,0,0-.39.08l-.05.11v0l-.07.15v.08l0,.18A.47.47,0,0,0,278.62,149.28Z"/><path class="cls-6" d="M263,145.88a.59.59,0,0,0-.22-.63.55.55,0,0,0-.6-.07l-.14.29,0,.11.06.13-.05-.08h0a.62.62,0,0,0,.23.44l0,0,.19.06h.07a.44.44,0,0,0,.4-.22Z"/><path class="cls-6" d="M296.94,153.48l.08.07.23,0,.09,0,.18-.12a.37.37,0,0,0,0-.5l-.1,0h0a.38.38,0,0,0-.35-.07.36.36,0,0,0-.24.28v.16l0,.06Z"/><path class="cls-6" d="M257.88,132.65l.13,0,.08,0a.46.46,0,0,0,.18-.38.51.51,0,0,0-.2-.4.43.43,0,0,0-.37-.09.46.46,0,0,0-.32.26l0,.07v.05a.51.51,0,0,0,.22.45A.5.5,0,0,0,257.88,132.65Z"/><path class="cls-6" d="M247,177.43l-.2-.09h-.14a.33.33,0,0,0-.21.08l-.11.16,0,.08,0,.19.1.12a.41.41,0,0,0,.55,0A.37.37,0,0,0,247,177.43Z"/><path class="cls-6" d="M244.91,118.71v-.1a.41.41,0,0,0-.32-.09.48.48,0,0,0-.32.18.51.51,0,0,0,.12.73l.39-.05,0,0h0a.81.81,0,0,0,.2-.21l0-.18A.45.45,0,0,0,244.91,118.71Z"/><path class="cls-6" d="M235.38,118.38l-.07,0-.2,0H235l-.17.11-.09.1-.05.23,0,.09,0,.08h0a.48.48,0,0,0,.16.24l.19.06h.08l0,0h.1l.22-.15A.54.54,0,0,0,235.38,118.38Z"/><path class="cls-6" d="M246.65,128.75v-.08a.43.43,0,0,0-.14-.21l0,0-.23,0-.08,0-.16.12a.37.37,0,0,0,0,.5l.19.08h0a.33.33,0,0,0,.35-.06l.1-.21Z"/><path class="cls-6" d="M225.83,130.78l0,.05a.35.35,0,0,1-.47,0l.13-.17-.06,0,.1-.09h0l0,0v0h-.09a.11.11,0,0,0,0,.08h-.08v-.08h-.14a.45.45,0,0,1,.15-.34l.23-.06.17,0a.4.4,0,0,1,.2.31.41.41,0,0,1-.11.29Zm-.36-.3h0a.15.15,0,0,1,.05-.07h.07l0,0,.06,0a.23.23,0,0,0-.24,0h0l0,0Z"/><path class="cls-6" d="M236.77,138.41l-.09-.13a.14.14,0,0,1,0,.06l-.14-.18-.08,0h-.23a.54.54,0,0,0-.32.29l.24.11a.21.21,0,0,0,.06.1h0l0,.06h0l.14.24a.15.15,0,0,1-.08,0h0a.43.43,0,0,0,.47-.39Z"/><path class="cls-6" d="M219.48,118.35l.1.07a.51.51,0,0,0,.64-.13l0-.05a.44.44,0,0,0-.13-.55.58.58,0,0,0-.38-.12l-.12,0-.05,0-.09.09,0,0a.47.47,0,0,0-.06.43l.06.1Z"/><path class="cls-6" d="M233.73,132.53l-.13,0a.36.36,0,0,0-.46.05l-.06.09,0,.05v.07L233,133a.41.41,0,0,0,.15.27,1,1,0,0,0,.25.12h.15l.07,0,.13-.08a.51.51,0,0,0,.17-.39A.44.44,0,0,0,233.73,132.53Z"/><path class="cls-6" d="M262.69,175.12l0-.19a.6.6,0,0,0-.06-.11l-.2-.13h-.1l-.23.08a.42.42,0,0,0,0,.6l.2.08h0a.37.37,0,0,0,.34-.06l.1-.18Z"/><path class="cls-6" d="M256.4,114.49l0,0v-.13a.58.58,0,0,0-.19-.34.52.52,0,0,0-.38-.1.52.52,0,0,0-.36.21l0,.25,0,.07v0l0,.1.18.2a.58.58,0,0,0,.66-.12Z"/><path class="cls-6" d="M244,141.06l.14-.18v0a.35.35,0,0,0-.06-.39h0a.2.2,0,0,0-.07-.1l-.11-.07-.05,0h-.14a.63.63,0,0,0-.28.12l-.11.11,0,.07,0,.16a.5.5,0,0,0,.14.28.11.11,0,0,1,0-.06l.12.16.07,0,.19,0A.7.7,0,0,0,244,141.06Z"/><path class="cls-6" d="M259.29,151.16l-.1,0-.3,0a.51.51,0,0,0-.22.35.41.41,0,0,0,.11.31l.11.07.05,0h.13a.51.51,0,0,0,.39-.52Z"/><path class="cls-6" d="M230.5,160.05a.37.37,0,0,0-.14-.07l-.11-.06a.46.46,0,0,0-.38.16l-.1.11,0,.05,0,.15a.45.45,0,0,0,.16.32l.09,0h0l.07.05.24,0a.57.57,0,0,0,.37-.41A.36.36,0,0,0,230.5,160.05Z"/><path class="cls-6" d="M225,148.53l0-.13a.47.47,0,0,0-.13-.18h0l-.1-.08-.08,0h-.18a.48.48,0,0,0-.21.8l.19.1h.08l.22-.07a.81.81,0,0,0,.22-.23l0-.13Z"/><rect class="cls-5" x="221.69" y="72.09" width="37.41" height="43.25" transform="translate(-17.14 77.99) rotate(-17.8)"/><path class="cls-6" d="M238.39,93.65h0S238.42,93.7,238.39,93.65Z"/><path class="cls-6" d="M246.19,86.5v.07l0,.05a.21.21,0,0,0,.26,0,.24.24,0,0,0,.1-.27l0,0,0,0-.06,0a.3.3,0,0,0-.22,0A.25.25,0,0,0,246.19,86.5Z"/><path class="cls-6" d="M237.83,110.11h0a.17.17,0,0,0-.06.14l0,.06h0a.24.24,0,0,0,.09.11H238l.06,0,0,0,0-.07v-.11a.21.21,0,0,0-.22-.13l-.11,0Z"/><path class="cls-6" d="M233.41,76.61a.16.16,0,0,0,.14,0l.07-.08v0a.39.39,0,0,0,0-.11.16.16,0,0,0-.18-.11l0,0a.13.13,0,0,0-.1.08.14.14,0,0,0,0,.13h0l.07.06Z"/><path class="cls-6" d="M240.91,83.88h0a.25.25,0,0,0-.17.11.19.19,0,0,0,0,.18.26.26,0,0,0,.11.14h.09a.31.31,0,0,0,.13-.06h0l0,0,0-.07a.17.17,0,0,0,0-.12.21.21,0,0,0-.1-.13Z"/><path class="cls-6" d="M225.22,107.09v0l0,0a.24.24,0,0,0,.27,0,.22.22,0,0,0,.07-.24.21.21,0,0,0,0-.07l-.05,0h0l-.07,0a.63.63,0,0,0-.14,0l-.06,0v0l0,.07v0h0a.2.2,0,0,0,0,.12Z"/><path class="cls-6" d="M227.89,94.67v0l0-.08,0,0-.09,0a.23.23,0,0,0-.19.08.23.23,0,0,0,0,.23l.05.07,0,0,.08,0A.21.21,0,0,0,227.89,94.67Z"/><path class="cls-6" d="M242.62,85.66h0l0,.12a.22.22,0,0,0,.18.14.21.21,0,0,0,.19-.14l0-.06v0h0a.23.23,0,0,0-.07-.1h0l0,0,0,0h-.06A.17.17,0,0,0,242.62,85.66Z"/><path class="cls-6" d="M231.58,89.42l-.07,0a.14.14,0,0,0-.12.06.2.2,0,0,0,0,.13l0,.07,0,0,.13,0a.22.22,0,0,0,.12-.09.19.19,0,0,0,0-.15h0l0-.06Z"/><path class="cls-6" d="M239.63,80.1a.18.18,0,0,0-.16,0l0,0v.13a.28.28,0,0,0,.08.11l.06,0h.05a.22.22,0,0,0,.13-.08.19.19,0,0,0,0-.15A.23.23,0,0,0,239.63,80.1Z"/><path class="cls-6" d="M223.75,90.83l0,0,0,0V91a.24.24,0,0,0,.16.15l0,0h0a.2.2,0,0,0,.19-.12v-.09h0a.25.25,0,0,0,0-.08.2.2,0,0,0-.16-.13h-.05a.18.18,0,0,0-.13.1Z"/><path class="cls-6" d="M261.26,98.43v.11l0,.06.06.07,0,0h.12l.08-.08v-.15a.15.15,0,0,0-.11-.11.16.16,0,0,0-.15,0Z"/><path class="cls-6" d="M224.81,85h0v0l0,0,.07.06a.56.56,0,0,0,.18,0l.07,0,0,0,0-.08a.28.28,0,0,0,0-.09.23.23,0,0,0-.28-.14.14.14,0,0,0-.11.09A.21.21,0,0,0,224.81,85Z"/><path class="cls-6" d="M255.09,87.58h0v0h0l0,.08v0a.22.22,0,0,0,.28.15l.08-.08v0a.17.17,0,0,0,0-.15l0,0,0,0h0a.22.22,0,0,0-.24,0Z"/><path class="cls-6" d="M241.76,88.92l0,.11a.23.23,0,0,0,0,.11,0,0,0,0,0,0,0h0l.06.08,0,0h.1a.17.17,0,0,0,.1-.08l.05-.09v0a.57.57,0,0,0,0-.12h0l-.06-.08h-.09l-.13,0Z"/><path class="cls-6" d="M231,93.08l0,0,0,0,0,.09v0a.25.25,0,0,0,.08.12l.05,0h0a.18.18,0,0,0,.18-.11h0l0-.08v0a.16.16,0,0,0-.12-.11h-.09a.22.22,0,0,0-.11,0Z"/><path class="cls-6" d="M255.2,83.7l0,0h-.06l-.07,0,0,0-.05,0a.26.26,0,0,0,0,.2.23.23,0,0,0,.07.1l.06,0h.09l.08,0a.42.42,0,0,0,.21-.12l0-.05v-.09h0a.43.43,0,0,0,0-.07v0a.18.18,0,0,0-.27-.05S255.18,83.69,255.2,83.7Z"/><path class="cls-6" d="M238.44,76.36a.16.16,0,0,0-.05.14v.07h0l0,.06,0,0h.12a.2.2,0,0,0,.17-.22l-.06-.09,0,0a.17.17,0,0,0-.22,0Z"/><path class="cls-6" d="M236.33,83.67l-.05,0v.09a.11.11,0,0,1,0,0,.2.2,0,0,0,.23.14l.05,0,0,0,0,0a.25.25,0,0,0,0-.15.2.2,0,0,0-.12-.12A.17.17,0,0,0,236.33,83.67Z"/><path class="cls-6" d="M244.84,82.5a.19.19,0,0,0,.18.13l.06,0h0l0,0a.25.25,0,0,0,0-.22l0-.07,0,0-.09,0a.19.19,0,0,0-.14.09A.23.23,0,0,0,244.84,82.5Z"/><path class="cls-6" d="M248,70.78l0,.07.07.06h0l.11,0a.26.26,0,0,0,.12-.13l0-.09h0v0l-.06-.07,0,0h-.08a.24.24,0,0,0-.16.11A.19.19,0,0,0,248,70.78Z"/><path class="cls-6" d="M255.09,100.79l0-.12,0,0-.13,0a.21.21,0,0,0-.11.22l.06.1,0,0H255a.26.26,0,0,0,.11-.18Z"/><path class="cls-6" d="M222.86,99.25h-.1l.08-.06,0,0-.12-.06a.18.18,0,0,0-.16.19l0,.06,0,0,.11.06A.16.16,0,0,0,222.86,99.25Z"/><path class="cls-6" d="M232.68,97.32v0l-.06-.05,0,0h-.08a.17.17,0,0,0-.1.06.15.15,0,0,0-.06.15l0,.06h0l0,0a.17.17,0,0,0,.2,0A.17.17,0,0,0,232.68,97.32Z"/><path class="cls-6" d="M255.37,111.21l0,.09a.31.31,0,0,0,0,.1.23.23,0,0,0,.1.12h.19l0,0,.07-.08a.24.24,0,0,0,0-.17.22.22,0,0,0-.16-.15l-.11,0h0l-.06,0Z"/><path class="cls-6" d="M234.55,90.82v.09a.17.17,0,0,0,.09.12l.06,0h.08a.2.2,0,0,0,.12-.25v0l-.06-.06,0,0h-.08a.24.24,0,0,0-.15.09Z"/><path class="cls-6" d="M240.07,91.82v-.09a.22.22,0,0,0-.26-.14h0l-.09.05,0,0v0h0a.23.23,0,0,0,0,.17h0a.17.17,0,0,0,.13.09.2.2,0,0,0,.11,0l.05,0h0l0,0,.06-.06Z"/><path class="cls-6" d="M236.05,105.6l0,.09,0,0,.07.06,0,0a.38.38,0,0,0,.16,0h.08l.05,0a.16.16,0,0,0,0-.16v0l0-.06a.3.3,0,0,0-.16-.08s0,0,0,0l-.1-.07h-.05l-.12.06A.36.36,0,0,0,236.05,105.6Z"/><path class="cls-6" d="M227.78,81.78h0a.22.22,0,0,0-.18.12h0l0,0v.14s0,0,0,0h0l0,.09h0a.18.18,0,0,0,.15.06l.06,0,0,0a.27.27,0,0,0,.07-.26.23.23,0,0,0-.14-.14Z"/><path class="cls-6" d="M245.23,91.88a.19.19,0,0,0,0,.18l0,.07.07.06h.15l.08,0,0,0h0a.16.16,0,0,0,.11-.18.13.13,0,0,0,0-.06.16.16,0,0,0-.16-.11l0,0-.06,0h-.08l0,0Z"/><path class="cls-6" d="M231.05,105.35l-.05.05,0,0v0h0a.18.18,0,0,0,0,.13l.06.07h0a.19.19,0,0,0,.26.07v0l.07-.08v0a.16.16,0,0,0,0-.12v0l-.08-.06a.11.11,0,0,0-.08-.07A.17.17,0,0,0,231.05,105.35Z"/><path class="cls-6" d="M220.38,86.52v0a.16.16,0,0,0-.06-.09h0l0,0-.11,0-.07,0-.06,0,0,0,0,.08a.2.2,0,0,0,0,.11.14.14,0,0,0,.09.11l0,0h0a.23.23,0,0,0,.16-.11h0l0,0v-.11Z"/><path class="cls-6" d="M249.64,99.39l0,0,.06.06h.12l.06,0,.07-.06v0l0-.09v0a.18.18,0,0,0-.05-.08h0l0,0,0,0-.09,0a.19.19,0,0,0-.14.09A.18.18,0,0,0,249.64,99.39Z"/><path class="cls-6" d="M233.3,87a.2.2,0,0,0,0,.16v0a.23.23,0,0,0,.28.11l.07-.06v-.13l0-.07-.07-.07,0,0h0a.19.19,0,0,0-.1,0l-.06,0Z"/><path class="cls-6" d="M248.4,89.83h0a.17.17,0,0,0-.06.14.2.2,0,0,0,0,.07l.06.08h.15a.2.2,0,0,0,.13-.18l-.05-.1h0a.14.14,0,0,0-.14-.06l-.1,0Z"/><path class="cls-6" d="M227.23,88.5l.15.08h0a.2.2,0,0,0,.18,0l0,0a.15.15,0,0,0,0-.14l0,0a.23.23,0,0,0-.29-.14.17.17,0,0,0-.11.09A.23.23,0,0,0,227.23,88.5Z"/><path class="cls-6" d="M231.88,81.9s0,0,0-.07l-.07,0h-.09a.21.21,0,0,0-.14,0l0,0,0,0v.05a.16.16,0,0,0,0,.12v0l.06,0a.17.17,0,0,0,.16.07l0,0h0l.06,0,0,0,0-.07A.19.19,0,0,0,231.88,81.9Z"/><path class="cls-6" d="M236.82,87.08a.25.25,0,0,0-.07.28.25.25,0,0,0,.2.18l.12-.08,0,0v-.06a.1.1,0,0,1,0,0h0a.31.31,0,0,0,0-.23h0l-.06-.07h0a.19.19,0,0,0-.2,0Z"/><path class="cls-6" d="M226.17,75.78l0,0-.07-.07,0,0h-.1a.18.18,0,0,0-.12.19l0,0h0A.15.15,0,0,0,226,76a.16.16,0,0,0,.16,0l0-.06v-.1Z"/><path class="cls-6" d="M235.4,93.23l-.06,0h0a.18.18,0,0,0-.16.09.23.23,0,0,0,0,.2.2.2,0,0,0,.12.12.19.19,0,0,0,.18,0l0,0v0a.23.23,0,0,0,0-.22A.27.27,0,0,0,235.4,93.23Z"/><path class="cls-6" d="M250.6,79.4l.05.08,0,0a.19.19,0,0,0,.1,0l.08,0,0,0,0-.07v-.07a.19.19,0,0,0-.21-.13A.16.16,0,0,0,250.6,79.4Z"/><path class="cls-6" d="M236.71,101.62l0,0a.23.23,0,0,0,.1.12.22.22,0,0,0,.16,0,.23.23,0,0,0,.14-.3l-.16-.08h0l-.12,0-.06.06A.14.14,0,0,0,236.71,101.62Z"/><path class="cls-6" d="M240.15,104.12v0l.06.06,0,0h.09l.05,0,.08-.07,0,0v0h0a.18.18,0,0,0,0-.13l-.05-.07,0,0,0,0,0,0h-.12A.24.24,0,0,0,240.15,104.12Z"/><path class="cls-6" d="M238.57,97.48v0a.17.17,0,0,0,0,.11v0l.08.07h.12a.16.16,0,0,0,.12-.19l0-.07h0a.17.17,0,0,0-.14-.06l-.09,0Z"/><path class="cls-6" d="M246.77,101.93l0,0a.17.17,0,0,1,.18.11l-.09,0h0v0l0,0a.08.08,0,0,0,0,0l0,0,0,0,.06,0a.19.19,0,0,1-.14.08l-.1,0-.05-.06a.15.15,0,0,1,0-.16.16.16,0,0,1,.11-.08Zm.06.2h0l0,0,0,0h0a.09.09,0,0,0,.09.06h0Z"/><path class="cls-6" d="M244.63,96.37v.15l0,0,.08.06a.3.3,0,0,0,.19,0l-.06-.1a.11.11,0,0,0,0,0h0v0h0v-.13h0a.19.19,0,0,0-.27,0Z"/><path class="cls-6" d="M246,108.1v0a.25.25,0,0,0-.27-.11h0a.21.21,0,0,0-.09.24.26.26,0,0,0,.11.14h.16a.17.17,0,0,0,.13-.14v-.08Z"/><path class="cls-6" d="M244.29,99.31l0,0a.16.16,0,0,0,.18.1l.05,0h0l0,0,.07,0a.17.17,0,0,0,0-.14.33.33,0,0,0-.06-.1l-.06,0h-.09a.24.24,0,0,0-.16.11A.18.18,0,0,0,244.29,99.31Z"/><path class="cls-6" d="M244.22,76.34l0,.07s0,0,0,.06l0,.1,0,0,.1,0a.17.17,0,0,0,.16-.21l-.05-.08h0a.17.17,0,0,0-.14-.06l-.08,0Z"/><path class="cls-6" d="M231.41,100.31h0l0,.05a.2.2,0,0,0,0,.17.26.26,0,0,0,.11.14.25.25,0,0,0,.19,0l.07-.09v0h0l0,0,0-.12a.24.24,0,0,0-.27-.12Z"/><path class="cls-6" d="M242.63,93.59l-.1,0v0a.15.15,0,0,0-.07.15v0s0,0,0,0l0,0,0,0,0,0a.35.35,0,0,0,.14,0l.07,0h0l0-.06a.15.15,0,0,0,0-.14v0l0,0-.06-.06A.28.28,0,0,0,242.63,93.59Z"/><path class="cls-6" d="M239.49,86l0,0,.13.06a.22.22,0,0,0,.16-.07.15.15,0,0,0,0-.14l0-.06,0,0,0,0a.24.24,0,0,0-.28.1Z"/><path class="cls-6" d="M252.36,89.94a.15.15,0,0,0,0,.07l0,0a.22.22,0,0,0,.18,0h.06l0,0,0,0a.18.18,0,0,0,0-.16.1.1,0,0,0,0,0h0v0l-.07-.08a.25.25,0,0,0-.25.06A.16.16,0,0,0,252.36,89.94Z"/><path class="cls-6" d="M251.53,95.59l0,0a.41.41,0,0,0,0,.1h0v.06l0,0,.07,0a.24.24,0,0,0,.21,0,.24.24,0,0,0,.07-.21l0-.08,0,0-.1,0a.29.29,0,0,0-.14,0l-.05,0Z"/></g></svg>