<?xml version="1.0" encoding="utf-8"?>
<!-- Generator: Adobe Illustrator 22.1.0, SVG Export Plug-In . SVG Version: 6.00 Build 0)  -->
<svg version="1.1" id="Layer_1" xmlns="http://www.w3.org/2000/svg" xmlns:xlink="http://www.w3.org/1999/xlink" x="0px" y="0px"
	 viewBox="0 0 191 153" style="enable-background:new 0 0 191 153;" xml:space="preserve">
<style type="text/css">
	.st0{fill:#FFFFFF;}
	.st1{fill:#9ADBF3;}
	.st2{fill:#626768;}
	.st3{fill:none;}
	.st4{fill:#465777;}
</style>
<title>kombucha</title>
<g id="Layer_2_1_">
	<path class="st0" d="M154.9,18.5C101.4,10.7,54.4,10.8,0.4,9.4c8.8,7,10.7,9.2,19.4,16.1c2.9,2.3,5.8,4.6,7.8,7.7
		c2.7,4.3,3.3,9.6,3.6,14.6c1.1,17.4,0.1,34.8-3.2,51.9c-2.9,14.9-5.8,34.2,11.1,39.9c2.7,0.9,5.4,1.3,8.2,1.3l96.2,0.4
		c2.3,0.5,4.6-0.9,5.1-3.2c0.1-0.3,0.1-0.6,0.1-0.9c2.5-9.9,4.9-19.8,7.4-29.8c1.9-7.7,3.8-15.6,3.7-23.5c-0.1-7.5-2.2-15-1.7-22.5
		c1-15,11.8-29.7,7.1-44l-14.7,0.4l11.3,2.5"/>
	<path class="st0" d="M163.5,47.3c8.7-1.6,19.8-2.4,22.9,7.8c0.9,3.3,0.8,6.7-0.4,9.9l-14.6,40.9c-0.5,1.8-1.4,3.5-2.5,5
		c-2.9,3.3-7.9,3.3-12.3,3c-1.9-0.1-4.2-0.5-4.7-2.3c-0.2-0.7-0.2-1.5,0.1-2.2c1.2-4.4,4.6-7.9,9.1-9.3c2.7-0.8,5.8-0.7,8.2-2.3
		c1.7-1.3,3.1-2.9,4-4.9c4.2-7.8,6.7-16.4,7.2-25.3c0.2-2.5-0.5-4.9-2-6.9c-4.5-5.8-12.1-0.5-17.4-3.6l-0.6-7
		c-0.2-1.2,0-2.5,0.6-3.5c0.8-1,2.6-1,2.9,0.2"/>
	<path class="st1" d="M42.3,33.8c34.7-0.9,69.3-0.9,104,0c-0.1,28.3-1.9,56.6-5.4,84.8c-0.5,4-1.5,8.7-5.1,10.3
		c-1.6,0.6-3.4,0.9-5.1,0.7H45c-1.8,0.1-3.6-0.2-5.3-1c-3.7-2.2-3.2-7.6-2.3-11.8c6.2-27.5,9.7-56.3,3.1-83.7"/>
	<path class="st1" d="M42.3,36.3c34.7-0.9,69.3-0.9,104,0l-2.5-2.5c-0.1,18.8-0.9,37.5-2.5,56.2c-0.8,9.3-1.6,18.6-2.9,27.9
		c-0.2,1.8-0.5,3.6-1.1,5.4c-1.3,3.3-4.6,3.8-7.7,3.8c-5,0-10,0-14.9,0H58.9c-4.6,0-9.3,0.3-13.9,0c-3.1-0.2-5-0.7-5.6-4
		c-0.4-2.2,0.2-4.5,0.7-6.6c1.8-8.4,3.5-16.8,4.6-25.4c2.7-19.5,2.8-39.4-1.7-58.7c-0.7-3.1-5.6-1.8-4.8,1.3
		c4.9,21,4.1,42.7,0.6,63.8c-0.8,5-1.8,9.9-2.8,14.8c-0.8,3.6-1.9,7.3-1.5,11c0.8,7.8,7,8.6,13.6,8.6h64.7c5.3,0,10.6,0,15.9,0
		c3.7,0,7.6,0.1,10.5-2.6c5.5-5.1,4.9-16,5.6-22.8c2.6-24.2,3.9-48.6,4.1-73c0-1.4-1.1-2.5-2.5-2.5c-34.7-0.9-69.3-0.9-104,0
		C39.1,31.3,39.1,36.3,42.3,36.3L42.3,36.3z"/>
	<path class="st2" d="M48.3,42.7l23.9-0.5c0.6,0,3.2-1.1,1.9-1.1l-23.9,0.5C49.6,41.6,47,42.7,48.3,42.7z"/>
	<path class="st2" d="M50,63.4c7,0,13.9-0.5,20.8-1.5c1.3-0.2,2.5-1.7,0.4-1.5c-6.6,0.9-13.4,1.4-20.1,1.4
		C50.2,61.9,48.1,63.4,50,63.4z"/>
	<path class="st2" d="M49.5,83.8l20.2-0.4c1,0,3.1-1.5,1.2-1.5l-20.2,0.4C49.7,82.3,47.6,83.9,49.5,83.8z"/>
	<path class="st2" d="M44,106.8c7.6-0.5,15.2-0.5,22.8-0.2c0.6,0,3.3-1.1,1.9-1.1c-7.8-0.3-15.6-0.3-23.4,0.2
		C44.5,105.8,42.1,107,44,106.8z"/>
	<path class="st2" d="M41.8,122.9l21.3-1.3c0.9-0.1,3.1-1.5,1.2-1.4L43,121.5C42.1,121.6,39.9,123,41.8,122.9L41.8,122.9z"/>
	
		<rect x="128.9" y="104.1" transform="matrix(0.9998 -2.164039e-02 2.164039e-02 0.9998 -2.7379 3.3657)" class="st3" width="50.4" height="48.1"/>
	<path class="st4" d="M146.3,114.9L146.3,114.9L146.3,114.9c-0.1,0-0.1,0-0.2,0c-0.1,0-0.2,0-0.2,0.1l0,0l-0.1,0.1
		c0,0.1,0,0.2,0.1,0.3c0.1,0.1,0.2,0.1,0.3,0.1c0.1,0,0.2-0.1,0.2-0.2v-0.1c0-0.1,0-0.1,0-0.2L146.3,114.9z"/>
	<path class="st4" d="M150.9,123.2L150.9,123.2h0.1c0.2,0,0.3-0.1,0.4-0.3v-0.1l-0.1-0.1l-0.2-0.1H151l0,0h-0.1h-0.1l-0.1,0.1
		c0,0.1,0,0.3,0.1,0.3L150.9,123.2z"/>
	<path class="st4" d="M151.4,129.4L151.4,129.4l-0.2,0.1l-0.1,0.1v0.1c0,0.1,0.1,0.2,0.1,0.3l0.1,0.1h0.1l0.1-0.1
		c0.1-0.1,0.1-0.3,0-0.4l0,0v-0.1l-0.1-0.1L151.4,129.4z"/>
	<path class="st4" d="M131.5,127.7c-0.1,0-0.2,0.1-0.3,0.2v0.1l0.1,0.1l0.1,0.1l0,0c0.1,0,0.2-0.1,0.3-0.2V128v-0.1L131.5,127.7z"/>
	<path class="st4" d="M162.9,133.3c0-0.1,0-0.2,0-0.2l-0.1-0.1l-0.1-0.1h-0.1h-0.1h-0.1h-0.1c-0.1,0.1-0.1,0.2,0,0.3l0,0v0.1
		l0.1,0.1h0.1C162.7,133.4,162.8,133.4,162.9,133.3z"/>
	<path class="st4" d="M151.6,131.2L151.6,131.2c0.2,0,0.3-0.1,0.4-0.2v-0.1l-0.1-0.1l-0.1-0.1v-0.1l-0.1-0.1h-0.1h-0.1
		c-0.1,0-0.1-0.1-0.2-0.1l0,0h-0.1c-0.1,0-0.1,0-0.2,0c-0.1,0-0.2,0.1-0.2,0.1v0.1c0,0.1,0,0.2,0,0.3l0.1,0.1l0.1,0.1h0.1h0.1v0.1
		l0.1,0.1l0,0C151.5,131.3,151.6,131.3,151.6,131.2L151.6,131.2z"/>
	<path class="st4" d="M138.7,120.1L138.7,120.1c-0.2,0-0.3,0.1-0.4,0.2l0,0l0,0c-0.1,0.1-0.1,0.2-0.1,0.3v0.1l0.1,0.1h0.1l0,0
		c0.1,0,0.2,0,0.2-0.1c0,0,0-0.1,0-0.1C138.8,120.4,138.8,120.3,138.7,120.1L138.7,120.1L138.7,120.1z"/>
	<path class="st4" d="M139.1,146.4L139.1,146.4H139c-0.1,0-0.2,0.1-0.3,0.2v0.1v0.1l0.1,0.1c0.1,0,0.1,0.1,0.2,0.1
		c0.1,0,0.2-0.1,0.3-0.2c0-0.1,0-0.2-0.1-0.3L139.1,146.4z"/>
	<path class="st4" d="M137.5,113.3c0,0-0.1,0-0.1-0.1h-0.1l-0.1,0.1c-0.1,0.1-0.2,0.2-0.1,0.4l0.1,0.1h0.1h0.1c0.1,0,0.1,0,0.2,0
		c0.1,0,0.1,0,0.2-0.1l0.1-0.2l0,0l0,0c0-0.1,0-0.2-0.1-0.2C137.6,113.3,137.5,113.3,137.5,113.3z"/>
	<path class="st4" d="M136.7,139.3h-0.1l-0.1,0.1l0,0c-0.1,0.1-0.2,0.2-0.1,0.4l0.1,0.1h0.2l0,0c0.1,0,0.1,0,0.2-0.1
		c0,0,0.1,0,0.1-0.1l0.1-0.1v-0.1v-0.1C136.9,139.4,136.8,139.3,136.7,139.3z"/>
	<path class="st4" d="M136.1,142.8c0-0.1-0.1-0.1-0.1-0.1c0,0-0.1,0-0.1-0.1c0-0.1-0.1-0.1-0.2-0.1h-0.1h-0.1v0.1l-0.1,0.1
		c-0.1,0.1-0.1,0.1-0.1,0.2c0,0.1,0,0.2,0.1,0.3c0.1,0.1,0.2,0.1,0.3,0.1c0.2,0,0.4-0.2,0.4-0.4v-0.1L136.1,142.8z"/>
	<path class="st4" d="M136.3,132.3L136.3,132.3l0.1-0.1l0.1-0.1v-0.1V132v-0.1l-0.1-0.1c0,0-0.1-0.1-0.1-0.1l-0.1,0.1l-0.1,0.1l0,0
		c-0.1,0.1-0.1,0.2-0.1,0.3c0,0.1,0.1,0.2,0.2,0.2l0,0C136.2,132.4,136.3,132.4,136.3,132.3z"/>
	<path class="st4" d="M144.6,123.6L144.6,123.6c0.1,0,0.1,0,0.2,0c0,0,0.1-0.1,0.1-0.1l0,0c0.1,0,0.2-0.1,0.2-0.2v-0.1l0,0L145,123
		l0,0v-0.1l-0.2-0.1v0.2l0,0v-0.2h-0.2l-0.1,0.1c-0.1,0-0.2,0.1-0.2,0.2v0.1c0,0,0,0.1,0,0.1c0,0.1,0,0.1,0,0.2v0.2l0.1,0.1
		c0,0.1,0.1,0.2,0.2,0.2C144.6,123.7,144.6,123.7,144.6,123.6z"/>
	<path class="st4" d="M135.4,121.8c0.1,0,0.1,0,0.2,0h0.1h0.1v-0.1c0-0.2,0-0.3-0.2-0.4h-0.1h-0.1h-0.1c0,0-0.1,0.1-0.1,0.1l0,0
		l-0.1,0.1C135.1,121.7,135.2,121.8,135.4,121.8z"/>
	<path class="st4" d="M146.6,131.1L146.6,131.1c0-0.1-0.1-0.1-0.1-0.1l0,0v-0.1h-0.1h-0.1c-0.1,0-0.1,0-0.2,0l0,0h-0.1L146,131
		c-0.1,0.3-0.1,0.6,0.2,0.7h0.2h0.1h0.1c0,0,0.1-0.1,0.1-0.1l0.1-0.1c0.1-0.1,0.1-0.2,0.1-0.3L146.6,131.1z"/>
	<path class="st4" d="M145.2,106.1L145.2,106.1c-0.1-0.1-0.2-0.2-0.3-0.2h-0.1h-0.1l-0.1,0.1l0,0h-0.1l-0.1,0.1v0.1c0,0,0-0.1,0-0.1
		c-0.1,0.1-0.1,0.2-0.1,0.4l0,0c0.1,0.1,0.2,0.2,0.3,0.3h0.1h0.1h0.1h0.1l0.1-0.1v-0.1c0,0,0-0.1,0-0.1c0-0.1,0-0.1,0-0.2
		L145.2,106.1z"/>
	<path class="st4" d="M145.5,152L145.5,152c-0.1-0.1-0.2-0.1-0.3-0.1c-0.1,0-0.1,0-0.2,0.1c-0.1,0.1-0.1,0.2-0.1,0.2l0.1,0.1
		l0.1,0.1h0.1h0.2l0.1-0.1l0.1-0.1v-0.1L145.5,152L145.5,152z"/>
	<path class="st4" d="M145.1,139.6H145l-0.1,0.1v0.1l0,0c-0.1,0.1-0.1,0.2,0,0.3v0.1c0.1,0.1,0.1,0.1,0.2,0.1c0.1,0,0.2,0,0.2-0.1
		l0,0h0.1l0.1-0.2C145.5,139.9,145.4,139.7,145.1,139.6C145.1,139.6,145.1,139.6,145.1,139.6z"/>
	<path class="st4" d="M149.2,142.6H149h-0.1l-0.1,0.1c-0.1,0.2-0.1,0.4,0,0.5l0,0l0,0c0.1,0.1,0.2,0.2,0.3,0.2l0,0l0.1-0.1v-0.1
		c0.1-0.1,0.1-0.1,0.1-0.2v-0.1C149.3,142.8,149.2,142.7,149.2,142.6z"/>
	<path class="st4" d="M146.6,133.8C146.6,133.7,146.5,133.7,146.6,133.8h-0.1c0,0-0.1,0-0.1,0h-0.1h-0.1l0,0v0.1c0,0.1,0,0.2,0,0.3
		c0,0.1,0.1,0.1,0.2,0.1h0.1h0.1l0.1-0.1c0.1-0.1,0.2-0.2,0.2-0.3C146.8,133.9,146.7,133.8,146.6,133.8L146.6,133.8z"/>
	<path class="st4" d="M140.1,136.8L140.1,136.8l-0.2-0.1h-0.1c-0.1,0-0.2,0.1-0.3,0.1v0.1c0,0.2,0.1,0.3,0.2,0.4h0.1h0.1h0.1
		c0.2-0.1,0.3-0.3,0.2-0.4L140.1,136.8z"/>
	<path class="st4" d="M142.9,127.4L142.9,127.4c0-0.1-0.1-0.1-0.1-0.1h-0.1h-0.1h-0.1l-0.1,0.1l0,0l-0.1,0.1l-0.1,0.1
		c0,0.2,0.1,0.3,0.3,0.3l0,0c0.1,0,0.1,0,0.2,0h0.1l0.1-0.1l0.1-0.1c0-0.1,0-0.2,0-0.2L142.9,127.4z"/>
	<path class="st4" d="M142.3,119.4c0.1-0.1,0.1-0.2,0.1-0.3c0-0.1-0.1-0.1-0.2-0.2H142l-0.1,0.1l0,0h-0.1c-0.1,0.1-0.1,0.2-0.1,0.3
		c0,0.1,0.1,0.2,0.1,0.2h0.1l0.1-0.1L142.3,119.4z"/>
	<path class="st4" d="M129.2,114.4l-0.1-0.1h-0.2l-0.1,0.1l-0.1,0.1c-0.1,0.1-0.1,0.2-0.1,0.2v0.1l0.1,0.1h0.1h0.1c0,0,0.1,0,0.1,0
		l0,0h0.1l0.1-0.1l0.1-0.1l0,0v-0.1L129.2,114.4z"/>
	<path class="st4" d="M131,140.3c-0.1-0.1-0.1-0.1-0.2-0.1h-0.1l-0.1,0.1l-0.1,0.1c-0.1,0-0.1,0.1-0.1,0.2v0.1l0.1,0.1l0.1,0.1h0.1
		c0.4,0,0.4-0.2,0.4-0.4L131,140.3L131,140.3z"/>
	<path class="st4" d="M178.3,121L178.3,121h0.2l0.1-0.1v-0.1c0-0.1,0-0.2-0.1-0.2c-0.1-0.1-0.2-0.1-0.3-0.1l0,0h-0.1l-0.1,0.1v0.1
		c0,0.1,0,0.2,0,0.3C178.1,121,178.2,121,178.3,121z"/>
	<path class="st4" d="M168.3,126h-0.1h-0.1h-0.1H168c0,0,0,0.1-0.1,0.1l0.1,0.1l0.1,0.1h0.1c0.1,0,0.2,0,0.2-0.1c0-0.1,0-0.2,0-0.2
		v-0.1L168.3,126z"/>
	<path class="st4" d="M167.7,121.5c-0.1-0.1-0.2-0.1-0.3-0.1c-0.2,0-0.3,0.1-0.3,0.3c0,0,0,0,0,0l0,0c0,0.1,0.1,0.2,0.2,0.3h0.1
		c0,0,0.1,0,0.1,0h0.1l0.1-0.1l0.1-0.1v-0.1L167.7,121.5L167.7,121.5z"/>
	<path class="st4" d="M170.1,132.4L170.1,132.4H170h-0.1c-0.1,0-0.2,0.1-0.3,0.2c-0.1,0.1-0.1,0.3,0,0.4l0.1,0.1l0.1,0.1h0.1
		c0.1,0,0.1,0,0.2,0h0.1h0.1V133C170.3,132.9,170.3,132.6,170.1,132.4L170.1,132.4z"/>
	<path class="st4" d="M170.1,128.1L170.1,128.1l-0.2,0.1l-0.1,0.1v0.1v0.2v0.1l0.1,0.1l0.1,0.1c0.1,0,0.1,0,0.2,0
		c0.1,0,0.2-0.1,0.3-0.1v-0.1c0-0.1,0-0.2-0.1-0.3C170.4,128.2,170.3,128.1,170.1,128.1z"/>
	<path class="st4" d="M169.9,148.8h-0.1l-0.1,0.1c0,0-0.1,0.1-0.1,0.1v0.1l0.1,0.1h0.1l0.1-0.1l-0.1,0.1h0.2l0.1-0.1l0.1-0.2
		C170.1,148.9,170,148.8,169.9,148.8z"/>
	<path class="st4" d="M165.5,142.1h-0.1l-0.1,0.1l-0.1,0.1c0,0.1,0,0.2,0.1,0.3c0.1,0.1,0.2,0.1,0.2,0.1h0.1h0.1l0.1-0.1v-0.1
		C165.8,142.3,165.6,142.2,165.5,142.1C165.5,142.1,165.5,142.1,165.5,142.1z"/>
	<path class="st4" d="M166,114.3L166,114.3L166,114.3l-0.1-0.1h-0.1c-0.2,0-0.3,0.2-0.3,0.3v0.1l0.1,0.1l0.1,0.1h0.1
		c0.1,0,0.1,0,0.2-0.1c0.1,0,0.2-0.1,0.2-0.2L166,114.3L166,114.3z"/>
	<path class="st4" d="M167.9,133.9L167.9,133.9l-0.2-0.1h-0.1l-0.1,0.1l-0.1,0.1v0.1c0,0.2,0.1,0.3,0.2,0.3h0.1l0.1-0.1
		c0.1-0.1,0.2-0.2,0.1-0.4L167.9,133.9z"/>
	<path class="st4" d="M151.3,148.4c-0.1,0-0.2,0-0.2,0.1v0.1v0.1c0,0.1,0.1,0.3,0.4,0.3l0.1-0.1l0,0h0.1l0.1-0.1
		c0-0.1,0-0.2-0.1-0.3C151.5,148.5,151.4,148.4,151.3,148.4z"/>
	<path class="st4" d="M170.1,115c-0.1,0-0.1,0-0.2,0l-0.1,0.1v0.1v0.1v0.1v0.1l0.1,0.1h0.1h0.2l0.1-0.1l0.1-0.1v-0.1
		c0-0.1,0-0.2-0.1-0.2C170.3,115,170.2,115,170.1,115z"/>
	<path class="st4" d="M173.4,120.1h-0.1l-0.1,0.1c-0.1,0.1-0.1,0.1-0.1,0.2v0.1v0.1v0.1c0,0,0.1,0,0.1,0c0.2,0,0.3-0.1,0.3-0.3
		C173.5,120.3,173.5,120.2,173.4,120.1z"/>
	<path class="st4" d="M178.6,127.6l0.1-0.1v-0.2l-0.1-0.1l-0.1-0.1h-0.1h-0.1l0,0l0,0c-0.1,0.1-0.1,0.2-0.1,0.3
		c0,0.1,0.1,0.2,0.2,0.2L178.6,127.6L178.6,127.6z"/>
	<path class="st4" d="M173.4,144.7L173.4,144.7L173.4,144.7c0-0.1-0.1-0.2-0.2-0.2l0,0l0,0h-0.1c-0.1,0-0.2,0.1-0.3,0.1
		c-0.1,0.1-0.1,0.2-0.1,0.4l0.1,0.1l0.1,0.1c0.1,0.1,0.1,0.1,0.2,0.1c0,0,0.1,0,0.1,0h0.1c0.1,0,0.2-0.1,0.2-0.2v-0.1L173.4,144.7z"
		/>
	<path class="st4" d="M179.6,141.5c0-0.1-0.1-0.1-0.2-0.1c-0.1-0.1-0.1-0.1-0.2-0.1c-0.1,0-0.3,0.1-0.4,0.2v0.1v0.1
		c0,0.1,0,0.3,0.1,0.4c0.1,0.1,0.2,0.2,0.4,0.1h0.1h0.1l0.1-0.1l0.1-0.1c0,0,0,0,0-0.1C179.6,141.9,179.8,141.7,179.6,141.5z"/>
	<path class="st4" d="M161.8,144c0.1,0,0.2,0,0.2-0.1v-0.1v-0.1v-0.1c0-0.3-0.2-0.4-0.3-0.4h-0.1l-0.1,0.1l-0.1,0.1v0.1
		c0,0.1,0,0.1,0,0.2v0.1l0.1,0.1l0.1,0.1L161.8,144z"/>
	<path class="st4" d="M171.5,139.8L171.5,139.8h-0.1c-0.1,0-0.2,0-0.2,0.1c0,0-0.1,0.1-0.1,0.1v0.1v0.1l0,0l0,0
		c0,0.1,0.1,0.3,0.2,0.3h0.1c0.2,0,0.3-0.1,0.4-0.2C171.7,140.1,171.6,139.9,171.5,139.8L171.5,139.8z"/>
	<path class="st4" d="M175.1,132c0-0.1-0.1-0.2-0.2-0.2c0,0-0.1-0.1-0.2-0.1c-0.1,0-0.1,0-0.2,0.1v0.1v0.1v0.1c0,0.1,0,0.1,0,0.2
		v0.1l0.1,0.1l0.1,0.1h0.1h0.1c0.2,0,0.4-0.2,0.4-0.4V132L175.1,132z"/>
	<path class="st4" d="M172.6,110L172.6,110c0,0,0.1,0,0.1,0h0.1c0.1,0,0.2-0.1,0.2-0.2v-0.2v-0.1c0-0.1,0-0.1,0-0.2l-0.1-0.1h-0.1
		h-0.2c-0.2,0-0.3,0.2-0.3,0.4c0,0,0,0,0,0C172.5,109.9,172.5,110,172.6,110z"/>
	<path class="st4" d="M173.3,136.7l-0.1,0.2l0,0l0,0v0.1l0,0l0,0l0.2,0.1c0.1,0,0.3-0.1,0.3-0.3c0,0,0,0,0,0c0-0.1,0-0.2-0.1-0.2
		C173.4,136.7,173.4,136.7,173.3,136.7z"/>
	<path class="st4" d="M156.4,140.1l0.1-0.1l0,0l0,0c0-0.1,0.1-0.2,0.1-0.2c0-0.1,0-0.1-0.1-0.2l-0.1-0.1l-0.1-0.1
		c-0.1,0-0.1,0-0.2,0.1l0,0H156l0,0l-0.1,0.1l-0.1,0.1c0,0.1,0,0.2,0.1,0.3c0.1,0.1,0.2,0.2,0.3,0.2
		C156.3,140.1,156.3,140.1,156.4,140.1z"/>
	<path class="st4" d="M157,127.4L157,127.4L157,127.4L157,127.4h-0.1h-0.1h-0.2h-0.1c0,0-0.1,0.1-0.1,0.2l0,0v0.2
		c0,0.1,0.1,0.2,0.1,0.2l0,0c0,0.1,0.1,0.1,0.2,0.1c0.1,0,0.2,0,0.2-0.1l0,0l0.1-0.1l0.1-0.1l0,0c0-0.1,0-0.1,0-0.2L157,127.4z"/>
	<path class="st4" d="M157,135.3L157,135.3L157,135.3l-0.1-0.1h-0.1c-0.1-0.1-0.1-0.1-0.2-0.1c-0.1,0-0.1,0-0.2,0.1l0,0l-0.1,0.1
		v0.1c-0.1,0-0.1,0.1-0.1,0.2v0.1l0,0v0.2l0.1,0.1l0.1,0.1c0.1,0.1,0.2,0.1,0.4,0.1h0.1h0.1l0.1-0.1l0.1-0.1c0,0,0,0,0-0.1
		c0,0,0.1,0,0.1-0.1l0,0v-0.1v-0.1C157.1,135.5,157.1,135.4,157,135.3z"/>
	<path class="st4" d="M156.7,147.9L156.7,147.9l-0.2-0.1c-0.2,0-0.3,0.1-0.3,0.3c0,0.2,0.1,0.3,0.3,0.3h0.1l0.1-0.1l0.1-0.1
		c0,0,0-0.1,0.1-0.1V148L156.7,147.9z"/>
	<path class="st4" d="M154.8,119.9L154.8,119.9L154.8,119.9L154.8,119.9h-0.2h-0.1l-0.1,0.1c-0.1,0.1-0.1,0.2-0.1,0.3l0,0
		c0,0.1,0,0.2,0.1,0.2l0,0l0.1,0.1c0.1,0,0.1,0,0.2,0h0.1h0.1h0.1h0.1l0.1-0.1c0-0.2,0-0.3-0.1-0.5L154.8,119.9z"/>
	<path class="st4" d="M159.1,125c0,0-0.1,0-0.1,0c0,0-0.1-0.1-0.1-0.1h-0.1c-0.2,0-0.3,0.1-0.4,0.2v0.1v0.1v0.1
		c0.1,0.3,0.3,0.5,0.6,0.5h0.1h0.1l0,0c0,0,0.1-0.1,0.1-0.1c0,0,0.1-0.1,0.1-0.2v-0.1C159.3,125.3,159.3,125.1,159.1,125z"/>
	<path class="st4" d="M154.3,112.3h0.1h0.1h0.1l0.1-0.1v-0.1V112v-0.1l-0.1-0.1h-0.1h-0.2h-0.1l0,0c-0.1,0.1-0.1,0.2-0.1,0.3v0.1
		L154.3,112.3L154.3,112.3z"/>
	<path class="st4" d="M153.3,127.4L153.3,127.4L153.3,127.4c-0.1-0.1-0.2-0.2-0.2-0.2c-0.1,0-0.1,0-0.2,0h-0.1h-0.1h-0.1l-0.1,0.1
		v0.1c0,0.1,0,0.2,0.1,0.3l0.1,0.1h0.1h0.1c0.1,0,0.1,0.1,0.2,0.1h0.1l0.1-0.1l0.1-0.1v-0.1l0,0L153.3,127.4z"/>
	<path class="st4" d="M162.5,148c0-0.1-0.1-0.1-0.1-0.1h-0.1c0,0-0.1-0.1-0.2-0.1c0,0-0.1,0-0.1,0l-0.1,0.1l0,0
		c-0.1,0.1-0.2,0.2-0.1,0.4v0.1v0.1h0.1c0.1,0,0.2,0,0.2,0.1c0.2,0,0.3-0.1,0.4-0.2L162.5,148L162.5,148L162.5,148z"/>
	<path class="st4" d="M162.4,113c0,0.1,0.1,0.1,0.2,0.1h0.1l0,0c0.1,0,0.1-0.1,0.2-0.1c0-0.1,0-0.1,0-0.2c0-0.2-0.2-0.3-0.3-0.3
		c0,0,0,0,0,0c-0.1,0-0.1,0-0.2,0h-0.1l0,0v0.1C162.2,112.7,162.2,112.9,162.4,113C162.4,113,162.4,113,162.4,113z"/>
	<path class="st4" d="M159.9,104.1L159.9,104.1h-0.1h-0.2c-0.1,0-0.2,0-0.3,0.1c-0.1,0.1-0.1,0.2-0.1,0.3l0.1,0.1l0.1,0.1h0.1l0,0
		h0.1h0.1l0.1-0.1C159.9,104.6,159.9,104.4,159.9,104.1L159.9,104.1z"/>
	<path class="st4" d="M162.5,109.5L162.5,109.5L162.5,109.5l0.1,0.1h0.1c0.2,0,0.3-0.1,0.4-0.3c0-0.1,0-0.2-0.1-0.3l0,0V109h-0.1
		c-0.1,0-0.3,0.1-0.4,0.2v0.1v0.2C162.5,109.4,162.5,109.5,162.5,109.5z"/>
	<path class="st4" d="M152.2,137.7L152.2,137.7l-0.1-0.1c-0.1,0-0.1-0.1-0.2-0.1h-0.1h-0.1c-0.1,0.1-0.1,0.2-0.1,0.3
		c0,0.1,0.1,0.3,0.2,0.3h0.1l0.1-0.1l0.1-0.1C152.2,138,152.3,137.9,152.2,137.7L152.2,137.7z"/>
	<path class="st4" d="M163.4,127.9L163.4,127.9h-0.1c-0.1,0-0.2,0-0.2,0.2c-0.1,0.2,0,0.3,0.1,0.3h0.1l0,0h0.1c0.1,0,0.2,0,0.2-0.2
		C163.5,128.3,163.5,128,163.4,127.9L163.4,127.9z"/>
	<path class="st4" d="M159,130.6l0.1-0.1l-0.1-0.1l-0.1-0.1h-0.1h-0.2h-0.1h-0.1h-0.1c-0.1,0.1-0.1,0.3,0.1,0.4
		c0,0.2,0.2,0.2,0.2,0.2c0,0,0.1,0,0.1,0l0,0h0.1l0.1-0.1c0.1-0.1,0.1-0.2,0-0.3L159,130.6z"/>
	<path class="st4" d="M164.2,129.4L164.2,129.4c-0.1,0-0.1,0-0.2,0h-0.1h-0.1h-0.1v0.1c-0.1,0.1-0.1,0.3-0.1,0.5v0.1l0.1,0.1
		l0.1,0.1h0.1h0.1c0,0,0.1,0,0.1,0h0.1c0.1,0,0.3-0.1,0.3-0.2l0.1-0.1v-0.1v-0.1C164.5,129.5,164.3,129.4,164.2,129.4z"/>
	<path class="st4" d="M161.1,137.5c-0.1,0-0.2,0.1-0.2,0.2c0,0.2,0.1,0.3,0.2,0.3h0.2l0.1-0.1v-0.2
		C161.3,137.5,161.1,137.5,161.1,137.5z"/>
	<path class="st4" d="M163.2,134.6l-0.1-0.1c-0.1,0-0.1,0-0.2,0c-0.1,0-0.2,0.1-0.2,0.2v0.1c0,0.1,0,0.2,0,0.3v0.1l0.1,0.1
		c0.1,0,0.1,0.1,0.2,0.1l0,0l0.1-0.1l0.1-0.1V135c0,0,0-0.1,0.1-0.1v-0.1L163.2,134.6z"/>
	<path class="st4" d="M161.1,117.3L161.1,117.3L161.1,117.3c0.1,0,0.2,0,0.2,0h0.1h0.1l0.1-0.1v-0.1c0-0.1,0-0.2,0-0.2
		c0-0.1,0-0.1-0.1-0.1c0-0.1-0.1-0.2-0.2-0.2h-0.1h-0.1c-0.1,0-0.2,0-0.3,0.1v0.1v0.1c0,0.1,0,0.3,0.1,0.4L161.1,117.3z"/>
	<path class="st4" d="M162.1,134.4L162.1,134.4l-0.2-0.1h-0.1c-0.1,0-0.1,0-0.2-0.1h-0.1h-0.1l-0.1,0.1c0,0.1,0,0.2,0,0.3v0.1h0.1
		l0.1,0.1c0.1,0,0.1,0,0.2,0.1c0.1,0,0.2-0.1,0.3-0.2v-0.1l0,0l0,0C162.1,134.5,162.1,134.5,162.1,134.4z"/>
	
		<rect x="137.6" y="79.3" transform="matrix(0.9999 -1.570732e-02 1.570732e-02 0.9999 -1.6164 2.547)" class="st3" width="47.5" height="49.8"/>
	<path class="st4" d="M174.5,96.5L174.5,96.5L174.5,96.5c0.1,0,0.1-0.1,0.1-0.1c0-0.1-0.1-0.2-0.1-0.2l0,0l-0.1-0.1
		c-0.2,0-0.4,0.1-0.4,0.3c0,0,0,0,0,0c0,0.1,0.1,0.2,0.1,0.2h0.1c0.1,0,0.1,0,0.2,0L174.5,96.5z"/>
	<path class="st4" d="M166.3,101L166.3,101v0.1c0,0.2,0.1,0.3,0.3,0.4h0.1l0.1-0.1l0.1-0.2v-0.1l0,0v-0.1V101l-0.1-0.1
		c-0.1,0-0.3,0-0.4,0.1L166.3,101z"/>
	<path class="st4" d="M160.2,101.4L160.2,101.4v-0.2l-0.1-0.1H160c-0.1,0-0.2,0.1-0.3,0.1l-0.1,0.1v0.1v0.1c0.1,0.1,0.3,0.1,0.4,0
		l0,0h0.1l0.1-0.1L160.2,101.4z"/>
	<path class="st4" d="M161.9,81.8c0-0.1-0.1-0.2-0.2-0.3h-0.1l-0.1,0.1l-0.1,0.1l0,0c0,0.1,0.1,0.2,0.2,0.3h0.1h0.1L161.9,81.8z"/>
	<path class="st4" d="M156.2,112.8c0.1,0,0.2,0,0.2,0l0.1-0.1v-0.1l0,0v-0.1v-0.1v-0.1c-0.1-0.1-0.2-0.1-0.3,0l0,0h-0.1l-0.1,0.1
		v0.1C156.1,112.7,156.1,112.8,156.2,112.8z"/>
	<path class="st4" d="M158.3,101.7L158.3,101.7c0,0.1,0.1,0.3,0.3,0.3h0.1l0.1-0.1l0.1-0.1h0.1v-0.1v-0.1c0,0,0-0.1,0-0.1l0,0
		c0-0.1,0-0.1,0-0.2l0,0l0,0c0-0.1,0-0.1,0-0.2c0-0.1,0-0.2-0.1-0.2h0.1c-0.1,0-0.2,0-0.3,0l-0.1,0.1v0.1v0.1c0,0,0,0.1,0,0.1h-0.1
		l-0.1,0.1v0.1C158.5,101.6,158.4,101.7,158.3,101.7L158.3,101.7z"/>
	<path class="st4" d="M169.5,89L169.5,89c0-0.2-0.1-0.3-0.2-0.4l0,0c-0.1-0.1-0.2-0.1-0.3-0.1h-0.1l-0.1,0.1v0.1l0,0
		c0,0.1,0,0.2,0.1,0.2c0,0,0.1,0,0.1,0C169.1,89,169.2,89.1,169.5,89L169.5,89L169.5,89z"/>
	<path class="st4" d="M143.4,89.2L143.4,89.2L143.4,89.2c0-0.2-0.1-0.3-0.2-0.3h-0.1H143l-0.1,0.1c0,0.1-0.1,0.1-0.1,0.2
		c0,0.1,0.1,0.2,0.2,0.3c0.1,0.1,0.2,0.1,0.3,0L143.4,89.2z"/>
	<path class="st4" d="M176.1,87.8C176.1,87.8,176.1,87.7,176.1,87.8l0.1-0.2v-0.1c-0.1-0.1-0.2-0.2-0.4-0.2l-0.1,0.1v0.1v0.1
		c0,0.1,0,0.1,0,0.2c0,0.1,0,0.1,0.1,0.2l0.2,0.1l0,0l0,0c0,0,0,0,0.1,0C176.1,88,176.1,87.9,176.1,87.8z"/>
	<path class="st4" d="M150.5,86.9v-0.1l-0.1-0.1l0,0c-0.1-0.1-0.2-0.2-0.4-0.2l-0.1,0.1v0.2l0,0c0,0.1,0,0.1,0.1,0.2
		c0,0,0,0.1,0.1,0.1h0.1h0.1h0.1C150.4,87.1,150.4,87,150.5,86.9z"/>
	<path class="st4" d="M147,86.3c0.1,0,0.1,0,0.1-0.1c0,0,0-0.1,0.1-0.1c0.1,0,0.1-0.1,0.1-0.2v-0.1v-0.1l0,0h-0.1
		c-0.1-0.1-0.1-0.1-0.2-0.1c-0.1,0-0.2,0-0.3,0.1c-0.1,0.1-0.1,0.2-0.1,0.3c0,0.2,0.2,0.4,0.4,0.4h0.1L147,86.3z"/>
	<path class="st4" d="M157.3,86.5L157.3,86.5L157.3,86.5l0.1,0.2h0.1h0.1h0.1l0.1-0.1c0,0,0-0.1,0.1-0.1l-0.1-0.1l-0.1-0.1l0,0
		c-0.1-0.1-0.2-0.1-0.3-0.1c-0.1,0-0.2,0.1-0.2,0.2l0,0C157.3,86.4,157.3,86.5,157.3,86.5z"/>
	<path class="st4" d="M165.9,94.7L165.9,94.7c0,0.1,0,0.1,0,0.2c0,0,0.1,0.1,0.1,0.1l0,0c0,0.1,0.1,0.2,0.2,0.2h0.1h0.1l0.1-0.1l0,0
		h0.1l0.1-0.2h-0.1l0,0h0.2v-0.2v-0.1c0-0.1-0.1-0.2-0.2-0.2l0,0h-0.1c-0.1,0-0.1,0-0.2,0h-0.2l-0.1,0.1
		C165.9,94.6,165.8,94.7,165.9,94.7C165.9,94.8,165.9,94.8,165.9,94.7z"/>
	<path class="st4" d="M167.8,85.7c0,0.1,0,0.1,0,0.2v0.1l0.1,0.1h0.1c0.2,0,0.3,0,0.4-0.2v-0.1v-0.1v-0.1c0,0-0.1-0.1-0.1-0.1l0,0
		H168C167.9,85.4,167.8,85.5,167.8,85.7z"/>
	<path class="st4" d="M158.5,96.8L158.5,96.8c0.1,0,0.1-0.1,0.1-0.1l0,0h0.1v-0.1v-0.1c0-0.1,0-0.1-0.1-0.2l0,0v-0.1l-0.1-0.1
		c-0.3-0.2-0.6,0.1-0.7,0.2v0.2l0,0c0,0,0,0.1,0,0.1l0,0v0.1c0,0,0.1,0.1,0.1,0.1l0.1,0.1c0.1,0.1,0.2,0.1,0.3,0.1L158.5,96.8z"/>
	<path class="st4" d="M183.2,95.5L183.2,95.5c0.1-0.1,0.2-0.2,0.2-0.3V95v-0.1l-0.1-0.1v0.1v-0.1l-0.1-0.1h-0.1c0,0,0.1,0,0.1,0
		c-0.1-0.1-0.2-0.1-0.4-0.1l0,0c-0.1,0.1-0.2,0.2-0.3,0.3v0.1v0.1c0,0,0,0,0,0.1v0.1l0.1,0.1h0.1h0.1h0.2L183.2,95.5z"/>
	<path class="st4" d="M137.9,95.5L137.9,95.5c0.1-0.1,0.1-0.2,0.1-0.3c0-0.1,0-0.1-0.1-0.2c-0.1-0.1-0.1-0.1-0.2-0.1h-0.1l-0.1,0.1
		v0.1v0.2v0.1l0.1,0.1h0.1h0.1L137.9,95.5z"/>
	<path class="st4" d="M150.1,95.2L150,95l0,0h-0.1l0,0c-0.1,0-0.2,0-0.3,0h-0.1c-0.1,0.1-0.1,0.1-0.1,0.2c0,0.1,0,0.2,0.1,0.2l0,0
		l0.1,0.1l0.2,0.1C149.9,95.6,150.1,95.4,150.1,95.2C150.1,95.2,150.1,95.2,150.1,95.2z"/>
	<path class="st4" d="M147.2,99.2v-0.1V99l-0.1-0.1c-0.1-0.1-0.3-0.1-0.5,0v0.1l0,0c-0.1,0.1-0.2,0.2-0.1,0.3l0,0l0.1,0.1h0.1
		c0,0.1,0.1,0.1,0.2,0.1h0.1C147,99.4,147.1,99.3,147.2,99.2z"/>
	<path class="st4" d="M155.9,96.7C155.9,96.7,155.9,96.7,155.9,96.7v-0.1c0,0,0-0.1,0-0.1v-0.1v-0.1l0,0h-0.1c-0.1,0-0.2,0-0.3,0
		c-0.1,0-0.1,0.1-0.1,0.2v0.1v0.1v0.1c0.1,0.1,0.1,0.2,0.3,0.2C155.7,96.9,155.8,96.8,155.9,96.7L155.9,96.7z"/>
	<path class="st4" d="M152.9,90.3L152.9,90.3l0.1-0.2v-0.1c0-0.1-0.1-0.2-0.1-0.3h-0.1c-0.2,0-0.3,0-0.4,0.2V90v0.1v0.1
		c0.1,0.2,0.3,0.2,0.4,0.2L152.9,90.3z"/>
	<path class="st4" d="M162.2,93.1L162.2,93.1c0,0,0.1-0.1,0.1-0.2v-0.1v-0.1v-0.1h-0.1l0,0l-0.1-0.1H162c-0.1,0-0.3,0.1-0.3,0.2
		c0,0,0,0,0,0l0,0c0,0,0,0.1-0.1,0.2l0,0l0.1,0.1l0.1,0.1c0.1,0,0.2,0,0.2,0L162.2,93.1z"/>
	<path class="st4" d="M170.1,92.5c0.1,0.1,0.2,0.1,0.3,0.1c0.1,0,0.1-0.1,0.2-0.2v-0.1l-0.1-0.1h-0.1l0.1-0.1
		c-0.1-0.1-0.1-0.1-0.2-0.1c-0.1,0-0.2,0.1-0.2,0.2v0.2L170.1,92.5L170.1,92.5z"/>
	<path class="st4" d="M175.1,79.6l0.1-0.1v-0.2l-0.1-0.1l-0.1-0.1c-0.1-0.1-0.1-0.1-0.2-0.1h-0.1l-0.1,0.1v0.1l0,0c0,0,0,0.1,0,0.1
		l0,0v0.1l0.1,0.1l0.1,0.1l0,0h0.1L175.1,79.6z"/>
	<path class="st4" d="M149.5,81.3c0.1-0.1,0.1-0.1,0.1-0.2v-0.1v-0.1l-0.1-0.1c-0.1-0.1-0.1-0.1-0.2-0.1h-0.1l-0.1,0.1l-0.1,0.1V81
		c0,0.4,0.2,0.4,0.3,0.4h0.1L149.5,81.3z"/>
	<path class="st4" d="M168.3,128.1C168.3,128.1,168.3,128.1,168.3,128.1v0.2l0.1,0.1h0.1c0.1,0,0.2,0,0.2-0.1c0.1,0,0.1-0.1,0.1-0.3
		l0,0v-0.1l-0.1-0.1h-0.1c-0.1,0-0.2,0-0.3,0C168.3,127.9,168.3,128,168.3,128.1z"/>
	<path class="st4" d="M163.5,118.2L163.5,118.2V118v-0.1l-0.1-0.1c0,0-0.1-0.1-0.1-0.1h-0.1l-0.1,0.1v0.1c0,0.1,0,0.2,0.1,0.2
		C163.2,118.2,163.3,118.2,163.5,118.2L163.5,118.2L163.5,118.2z"/>
	<path class="st4" d="M167.9,117.6c0.1-0.1,0.1-0.2,0.1-0.3c0-0.2-0.1-0.3-0.3-0.3c0,0,0,0,0,0l0,0c-0.1,0-0.2,0-0.3,0.2v0.1
		c0,0,0,0.1,0,0.1v0.1l0.1,0.1h0.1h0.1L167.9,117.6L167.9,117.6z"/>
	<path class="st4" d="M157.1,119.9L157.1,119.9v-0.1v-0.1c0-0.1-0.1-0.2-0.1-0.3c-0.1-0.1-0.3-0.1-0.4,0h-0.1l-0.1,0.1v0.1
		c0,0.1,0,0.1,0,0.2v0.1v0.1l0.1,0.1C156.6,120,156.9,120,157.1,119.9L157.1,119.9z"/>
	<path class="st4" d="M161.3,120L161.3,120l-0.1-0.2l-0.1-0.1H161h-0.1h-0.1h-0.1l-0.1,0.1c0,0.1,0,0.1,0,0.2c0,0.1,0.1,0.2,0.1,0.3
		h0.1c0.1,0,0.2,0,0.3-0.1C161.3,120.2,161.3,120.1,161.3,120z"/>
	<path class="st4" d="M140.9,119.6v-0.1l-0.1-0.1c0,0-0.1-0.1-0.1-0.1h-0.1l-0.1,0.1v0.1l0.1,0.1l-0.1-0.1v0.2l0.1,0.1l0.2,0.1
		C140.8,119.8,140.8,119.7,140.9,119.6z"/>
	<path class="st4" d="M147.5,115.3L147.5,115.3l-0.1-0.2l-0.1-0.1c-0.1,0-0.2,0-0.3,0.1c-0.1,0.1-0.1,0.1-0.1,0.2v0.1l0.1,0.1
		l0.1,0.1h0.1C147.4,115.6,147.5,115.4,147.5,115.3z"/>
	<path class="st4" d="M175,115.9L175,115.9L175,115.9L175,115.9l0.1-0.2c0-0.2-0.2-0.3-0.4-0.3h-0.1h-0.1l-0.1,0.1v0.1
		c0,0.2,0.1,0.3,0.3,0.4h0.1L175,115.9z"/>
	<path class="st4" d="M155.7,117.7L155.7,117.7v-0.1v-0.1l-0.1-0.1l-0.1-0.1h-0.1c-0.2,0-0.3,0.1-0.3,0.2v0.1l0.1,0.1
		c0.1,0.1,0.2,0.2,0.4,0.1L155.7,117.7z"/>
	<path class="st4" d="M141.4,101.2c0-0.1,0-0.2-0.1-0.2h-0.1h-0.1c-0.1,0-0.3,0.1-0.3,0.4v0.1l0,0v0.1l0.1,0.1c0.1,0,0.2,0,0.3-0.1
		C141.3,101.5,141.4,101.4,141.4,101.2z"/>
	<path class="st4" d="M174.3,120v-0.2l-0.1-0.1h-0.1h-0.1H174h-0.1l-0.1,0.1l-0.1,0.1c0,0,0,0,0,0.1s0,0,0,0.1v0.1l0.1,0.1h0.1h0.1
		c0.1,0,0.2,0,0.3-0.1C174.3,120.1,174.3,120.1,174.3,120z"/>
	<path class="st4" d="M169.2,123.2l-0.1-0.1h-0.1c0-0.1-0.1-0.1-0.2-0.1h-0.1h-0.1h-0.1c0,0,0,0.1,0,0.2c0,0.2,0.1,0.3,0.3,0.3
		C169,123.4,169.1,123.3,169.2,123.2z"/>
	<path class="st4" d="M161.8,128.4l0.1,0.1h0.2l0.1-0.1l0.1-0.1v-0.1l0,0v-0.1l0,0c-0.1-0.1-0.2-0.1-0.3-0.1c-0.1,0-0.2,0.1-0.2,0.2
		L161.8,128.4L161.8,128.4z"/>
	<path class="st4" d="M144.9,123.1L144.9,123.1L144.9,123.1c0.1,0,0.2-0.1,0.2-0.2l0,0v-0.1v-0.1c0-0.1,0-0.2-0.1-0.3
		c-0.1-0.1-0.2-0.1-0.4-0.1l-0.1,0.1l-0.1,0.1c-0.1,0.1-0.1,0.1-0.1,0.2c0,0,0,0.1,0,0.1l0,0l0,0c0,0.1,0.1,0.2,0.2,0.2h0.2
		L144.9,123.1z"/>
	<path class="st4" d="M148,129.2c0.1,0,0.1-0.1,0.1-0.2c0.1-0.1,0.1-0.1,0.1-0.2c0-0.1-0.1-0.3-0.2-0.4h-0.1h-0.1
		c-0.2-0.1-0.5,0.1-0.5,0.3c0,0,0,0.1,0,0.1c0,0,0,0.1,0,0.1v0.1l0.1,0.1h0.1h0.1C147.6,129.3,147.8,129.3,148,129.2z"/>
	<path class="st4" d="M145.7,111.6c0,0.1,0,0.2,0.1,0.2h0.1h0.1h0.1c0.3,0,0.4-0.2,0.4-0.3v-0.1l-0.1-0.1l-0.1-0.1h-0.1
		c-0.1,0-0.1,0-0.2,0h-0.1l-0.1,0.1v0.1C145.7,111.5,145.7,111.6,145.7,111.6z"/>
	<path class="st4" d="M149.8,121.2L149.8,121.2L149.8,121.2L149.8,121.2L149.8,121.2c0-0.2,0-0.3-0.1-0.3c0,0-0.1-0.1-0.1-0.1h-0.1
		h-0.1h-0.1l0,0c-0.1,0-0.2,0.1-0.3,0.2v0c0,0.2,0.1,0.3,0.2,0.4C149.4,121.4,149.6,121.4,149.8,121.2L149.8,121.2z"/>
	<path class="st4" d="M157.5,124.8c0.1,0,0.2-0.1,0.2-0.2c0,0,0.1-0.1,0.1-0.2c0-0.1,0-0.1-0.1-0.2h-0.1h-0.1h-0.1
		c-0.1,0-0.1,0-0.2,0h-0.1l-0.1,0.1l0,0v0.1v0.1c0,0.2,0.2,0.4,0.4,0.4h0.1L157.5,124.8z"/>
	<path class="st4" d="M179.2,122.5L179.2,122.5c0,0,0,0.1,0,0.2l0,0v0.1c0,0.1,0.1,0.2,0.1,0.2h0.1c0,0,0.1,0,0.1,0h0.2l0.1-0.1
		v-0.1v-0.2c0-0.2-0.2-0.3-0.4-0.3c0,0,0,0,0,0C179.3,122.4,179.2,122.4,179.2,122.5z"/>
	<path class="st4" d="M152.8,123.1l-0.2-0.1h-0.2l0,0l0,0l-0.1,0.2c0,0.1,0.1,0.3,0.3,0.3c0,0,0,0,0,0c0.1,0,0.2,0,0.2-0.1
		C152.8,123.2,152.8,123.1,152.8,123.1z"/>
	<path class="st4" d="M149.6,106.3l0.1,0.1l0,0c0.1,0,0.2,0,0.2,0c0.1,0,0.1,0,0.2-0.1l0.1-0.1l0.1-0.1c0-0.1,0-0.1-0.1-0.2l0,0
		v-0.1l0,0l0,0l-0.1-0.1l-0.1-0.1c-0.1,0-0.2,0-0.3,0.1c-0.1,0.1-0.2,0.2-0.2,0.3C149.6,106.2,149.6,106.2,149.6,106.3z"/>
	<path class="st4" d="M162.1,107L162.1,107L162.1,107L162.1,107L162.1,107l0.1-0.1c0,0,0,0,0-0.1l0,0v-0.1v-0.1c0,0-0.1-0.1-0.1-0.1
		H162h-0.2c-0.1,0-0.2,0.1-0.2,0.1l0,0c-0.1,0-0.1,0.1-0.1,0.2c0,0.1,0,0.2,0.1,0.2l0,0h0.1l0.1,0.1l0,0c0.1,0,0.1,0,0.2,0
		L162.1,107z"/>
	<path class="st4" d="M154.3,107L154.3,107L154.3,107L154.3,107l0.1-0.2c0.1-0.1,0.1-0.1,0.1-0.2c0-0.1,0-0.1-0.1-0.2l0,0l-0.1-0.1
		l0,0c0-0.1-0.1-0.1-0.2-0.1H154l0,0h-0.2h-0.1l-0.1,0.1c-0.1,0.1-0.1,0.2-0.1,0.3v0.1v0.1l0.1,0.1h0.1h0.1c0,0,0,0.1,0.1,0.1l0,0
		l0,0h0.1h0.1C154,107,154.2,107,154.3,107z"/>
	<path class="st4" d="M141.9,106.6L141.9,106.6c0.1-0.1,0.1-0.2,0.1-0.2c0-0.2-0.2-0.3-0.3-0.2c-0.1,0-0.2,0.1-0.2,0.2v0.1v0.1
		l0.1,0.1h0.1h0.1L141.9,106.6z"/>
	<path class="st4" d="M169.6,104.9L169.6,104.9L169.6,104.9C169.5,104.9,169.5,104.8,169.6,104.9v-0.2v-0.1l-0.1-0.1
		c-0.1,0-0.2-0.1-0.3-0.1l0,0c-0.1,0-0.2,0-0.2,0.1l0,0l-0.1,0.1c0,0.1,0,0.1,0,0.2c0,0,0,0.1,0,0.1c0,0,0,0.1,0,0.1v0.1v0.1
		l0.1,0.1c0.2,0,0.3,0,0.5-0.1L169.6,104.9z"/>
	<path class="st4" d="M164.4,109.1c0,0,0.1-0.1,0.1-0.1c0,0,0.1-0.1,0.1-0.1c0,0,0-0.1,0-0.1c0-0.2-0.1-0.3-0.2-0.4h-0.1h-0.1h-0.1
		c-0.3,0.1-0.5,0.3-0.5,0.6v0v0.1l0,0c0,0,0.1,0.1,0.1,0.1c0,0,0.1,0.1,0.1,0.1h0.1C164.2,109.2,164.4,109.2,164.4,109.1z"/>
	<path class="st4" d="M177,104.4C177,104.4,177,104.5,177,104.4c0,0.1,0,0.2,0,0.2l0.1,0.1h0.1h0.1h0.2h0.1l0.1-0.1v-0.1v-0.1v-0.1
		v-0.1l0,0c-0.1-0.1-0.2-0.1-0.3-0.1h-0.1l-0.1,0.1L177,104.4z"/>
	<path class="st4" d="M162.2,103.4L162.2,103.4L162.2,103.4c0.1-0.1,0.2-0.1,0.2-0.2c0-0.1,0-0.1,0-0.2c0,0,0-0.1,0-0.1
		c0,0,0,0,0-0.1v-0.1l-0.1-0.1l-0.1-0.1c-0.1,0-0.2,0-0.3,0.1l-0.1,0.1v0.1l0,0c0,0.1-0.1,0.1-0.1,0.2v0.1v0.1l0.1,0.1h0.1l0,0
		L162.2,103.4z"/>
	<path class="st4" d="M141.7,112.3c0.1,0,0.1-0.1,0.1-0.1c0,0,0-0.1,0-0.1c0,0,0.1-0.1,0.1-0.2c0,0,0-0.1,0-0.1v-0.1l0,0
		c-0.1-0.1-0.2-0.2-0.4-0.1h-0.1h-0.1v0.1c0,0.1,0,0.2-0.1,0.2c0,0.1,0.1,0.3,0.2,0.3L141.7,112.3L141.7,112.3L141.7,112.3z"/>
	<path class="st4" d="M176.3,112.4c-0.1,0-0.1,0.1-0.1,0.2v0.1l0,0c0,0.1,0.1,0.1,0.1,0.2c0,0,0.1,0,0.1,0c0.2,0,0.3-0.2,0.3-0.3
		c0-0.1,0-0.1,0-0.2v-0.1h-0.1h-0.1C176.5,112.2,176.3,112.3,176.3,112.4z"/>
	<path class="st4" d="M185,110L185,110l0.1-0.1c0-0.1,0-0.1,0-0.2c0-0.1,0-0.2-0.1-0.3c-0.1-0.1-0.2-0.1-0.3-0.1l-0.1,0.1l-0.1,0.1
		v0.1l0,0v0.1v0.1l0.1,0.1C184.6,110,184.8,110.1,185,110L185,110z"/>
	<path class="st4" d="M179.7,112.5L179.7,112.5L179.7,112.5l-0.1,0.1c0,0,0,0.1,0,0.1c0,0.2,0.1,0.3,0.3,0.4c0.1,0,0.2,0,0.3-0.1
		l0,0l0,0l0.1-0.1c0-0.1,0-0.3-0.1-0.3H180h-0.1C179.8,112.5,179.8,112.5,179.7,112.5z"/>
	<path class="st4" d="M151.9,102.2L151.9,102.2L151.9,102.2c0.1-0.1,0.1-0.2,0.1-0.2c0,0,0-0.1,0-0.1l0,0c-0.1-0.1-0.2-0.1-0.3-0.1
		c-0.1,0-0.3,0.1-0.3,0.2v0l0.1,0.1l0.1,0.1c0.1,0.1,0.2,0.1,0.3,0.1H151.9z"/>
	<path class="st4" d="M161.5,113.3L161.5,113.3v-0.1c0-0.1,0-0.2-0.2-0.2s-0.3,0-0.3,0.1v0.1v0.1v0.1c0,0.1,0.1,0.2,0.2,0.2
		C161.3,113.5,161.4,113.5,161.5,113.3L161.5,113.3z"/>
	<path class="st4" d="M158.9,109l0.1,0.1h0.1l0.1-0.1V109v-0.2v-0.1l0,0v-0.1c-0.1-0.1-0.3-0.1-0.4,0c-0.1,0-0.2,0.1-0.2,0.2
		c0,0,0,0.1,0,0.1l0,0v0.1l0.1,0.1c0.1,0.1,0.2,0.1,0.3,0L158.9,109z"/>
	<path class="st4" d="M160.1,114.1L160.1,114.1c0-0.1,0-0.1,0-0.2v-0.1v-0.1l-0.1-0.1l0,0c-0.1-0.1-0.3-0.1-0.4-0.1h-0.1
		c0,0,0,0-0.1,0.1l-0.1,0.1v0.1l0,0c0,0,0,0.1,0,0.1l0,0c0,0.1,0.1,0.3,0.2,0.3l0.1,0.1h0.1h0.1C160,114.3,160.1,114.2,160.1,114.1z
		"/>
	<path class="st4" d="M152.1,111c0-0.1-0.1-0.2-0.2-0.2c-0.2,0-0.3,0.1-0.3,0.2v0.2l0.1,0.1h0.2C152.1,111.2,152.1,111,152.1,111z"
		/>
	<path class="st4" d="M155,113.1l0.1-0.1c0-0.1,0-0.1,0-0.2c0-0.1-0.1-0.2-0.2-0.2h-0.1c-0.1,0-0.2,0-0.3,0l0,0l-0.1,0.1
		c0,0.1-0.1,0.1-0.1,0.2l0,0l0.1,0.1l0.1,0.1h0.1l0.1,0.1L155,113.1L155,113.1z"/>
	<path class="st4" d="M172.1,111.1L172.1,111.1L172.1,111.1c0,0.1,0,0.2,0,0.2c0,0,0,0.1,0,0.2l0.1,0.1l0.1,0.1h0.1
		c0.1,0,0.1,0.1,0.2,0.1c0.1,0,0.1,0,0.1-0.1c0.1,0,0.2-0.1,0.2-0.2v-0.1c0,0,0-0.1,0-0.1c0-0.1,0-0.2-0.1-0.3h-0.1h-0.1
		c-0.1,0-0.3,0-0.4,0.1L172.1,111.1z"/>
	<path class="st4" d="M155.1,112L155.1,112l0.1-0.2v-0.1c0-0.1,0-0.1,0-0.2v-0.1l-0.1-0.1l-0.1-0.1c-0.1,0-0.2,0-0.3,0h-0.1l0,0
		l-0.1,0.1c0,0.1,0,0.1,0,0.2c0,0.1,0.1,0.2,0.2,0.3h0.1l0,0l0,0C155,112,155.1,112,155.1,112z"/>
	
		<rect x="138.9" y="56.3" transform="matrix(6.313894e-02 -0.998 0.998 6.313894e-02 73.6397 237.1456)" class="st3" width="48.4" height="46.2"/>
	<path class="st4" d="M149.7,85.8L149.7,85.8L149.7,85.8c0,0,0,0.1,0,0.1c0,0.1,0,0.2,0.1,0.2l0,0l0.1,0.1c0.1,0,0.2,0,0.3-0.1
		c0.1-0.1,0.1-0.1,0.1-0.2c0-0.1,0-0.2-0.1-0.2H150c-0.1,0-0.1,0-0.2,0L149.7,85.8z"/>
	<path class="st4" d="M158.1,82.1L158.1,82.1L158.1,82.1c0-0.2-0.1-0.4-0.2-0.5h-0.1h-0.1l-0.1,0.2v0.1l0,0V82v0.1l0.1,0.1
		c0.1,0,0.2,0,0.4-0.1L158.1,82.1z"/>
	<path class="st4" d="M164.1,82.1L164.1,82.1v0.2l0.1,0.1l0.1,0.1c0.1,0,0.2,0,0.3-0.1l0.1-0.1v-0.1V82c-0.1-0.1-0.3-0.1-0.4,0l0,0
		h-0.1L164.1,82.1L164.1,82.1z"/>
	<path class="st4" d="M160.9,101c0,0.1,0.1,0.2,0.2,0.3h0.1h0.1l0.1-0.1l0,0c0-0.1,0-0.2-0.2-0.3h-0.1H161L160.9,101z"/>
	<path class="st4" d="M168.8,71.4c-0.1,0-0.2-0.1-0.2-0.1l-0.1,0.1l-0.1,0.1l0,0v0.1v0.1v0.1c0.1,0.1,0.2,0.1,0.3,0.1l0,0h0.1
		l0.1-0.1v-0.1C168.9,71.5,168.8,71.4,168.8,71.4z"/>
	<path class="st4" d="M165.9,82L165.9,82c0-0.1-0.1-0.3-0.2-0.3h-0.1h-0.1l-0.1,0.1h-0.1h-0.1v0.1c0,0,0,0.1,0,0.1l0,0
		c0,0-0.1,0.1-0.1,0.2l0,0l0,0c0,0.1,0,0.1,0,0.2c0,0.1,0,0.2,0.1,0.2h0.1c0.1,0.1,0.2,0.1,0.2,0.1l0.1-0.1l0.1-0.1v-0.1
		c0,0,0-0.1,0-0.1h0.1l0.1-0.1L165.9,82c0,0,0.1-0.1,0.1-0.1L165.9,82z"/>
	<path class="st4" d="M154.1,93.4L154.1,93.4c0,0.2,0,0.3,0.1,0.3l0,0l0,0c0.1,0.1,0.2,0.1,0.3,0.1h0.1l0.1-0.1v-0.1l0,0
		c0-0.1,0-0.2-0.1-0.2h-0.1c-0.1-0.1-0.2-0.2-0.3-0.1L154.1,93.4L154.1,93.4z"/>
	<path class="st4" d="M179.3,95.2L179.3,95.2v0.1c0,0.1,0.1,0.2,0.2,0.3h0.1h0.1l0.1-0.1c0-0.1,0.1-0.1,0.1-0.2
		c0-0.1-0.1-0.2-0.2-0.3c-0.1-0.1-0.2-0.1-0.3,0L179.3,95.2z"/>
	<path class="st4" d="M147.6,94.1C147.5,94.1,147.5,94.1,147.6,94.1l-0.1,0.2l0.1,0.1c0.1,0.1,0.2,0.2,0.3,0.2h0.1l0.1-0.1v-0.1
		c0-0.1,0-0.1,0-0.2c0-0.1,0-0.1,0-0.2l-0.2-0.1l0,0l0,0c-0.1,0-0.2,0-0.2,0C147.6,94,147.6,94,147.6,94.1z"/>
	<path class="st4" d="M172.4,96.9V97l0.1,0.1l0,0c0.1,0.1,0.2,0.2,0.4,0.2l0.1-0.1l0.1-0.2l0,0c0-0.1,0-0.1,0-0.2c0,0,0-0.1-0.1-0.1
		h-0.1h-0.1h-0.1C172.5,96.8,172.4,96.8,172.4,96.9z"/>
	<path class="st4" d="M175.7,97.8c0,0-0.1,0-0.1,0.1c0,0-0.1,0.1-0.1,0.1c-0.1,0-0.1,0.1-0.1,0.2v0.1v0.1l0,0l0.1,0.1
		c0.1,0.1,0.1,0.1,0.2,0.1c0.1,0,0.2,0,0.3-0.1c0.1-0.1,0.1-0.2,0.2-0.3c0-0.2-0.1-0.4-0.3-0.4h-0.1L175.7,97.8z"/>
	<path class="st4" d="M165.6,96.8L165.6,96.8v-0.1l-0.1-0.1h-0.1h-0.1h-0.1l-0.1,0.1c0,0-0.1,0.1-0.1,0.1v0.2l0,0l0,0
		c0,0.1,0.1,0.1,0.2,0.1c0.1,0,0.2-0.1,0.2-0.2l0,0C165.6,96.8,165.6,96.8,165.6,96.8z"/>
	<path class="st4" d="M158,88.1L158,88.1c0-0.1,0-0.1,0-0.2c0,0-0.1-0.1-0.1-0.1l0,0c0-0.1-0.1-0.2-0.2-0.3h-0.1h-0.1
		c0,0-0.1,0-0.1,0l0,0h-0.1l-0.1,0.1h0.1l0,0h-0.2l-0.1,0.2l0.1,0.2c0,0.1,0,0.2,0.1,0.2h0.1c0,0,0.1,0,0.1,0c0.1,0,0.1,0,0.2,0h0.1
		h0.1c0.1,0,0.2-0.1,0.2-0.2C158.1,88.1,158,88.1,158,88.1z"/>
	<path class="st4" d="M155.5,96.8c0-0.1,0-0.1,0-0.2v-0.1v-0.1h-0.1c-0.2-0.1-0.3,0-0.4,0.2l-0.1,0.1v0.1v0.1c0,0,0,0.1,0,0.1l0,0
		l0.1,0.1C155.3,97.1,155.4,97,155.5,96.8C155.5,96.8,155.5,96.8,155.5,96.8z"/>
	<path class="st4" d="M165.3,86.8L165.3,86.8c-0.1,0-0.1,0.1-0.1,0.1l0,0h-0.1l0,0V87c0,0.1,0,0.1,0,0.2l0,0v0.1l0.1,0.1
		c0.2,0.2,0.5,0.1,0.7-0.1v-0.2l0,0c0,0,0-0.1,0-0.1l0,0v-0.1c0,0-0.1-0.1-0.1-0.1l-0.1-0.1c-0.1-0.1-0.2-0.1-0.3-0.1L165.3,86.8z"
		/>
	<path class="st4" d="M141.2,86.1L141.2,86.1c-0.1,0.1-0.2,0.2-0.2,0.3v0.1v0.1l0.1,0.1l0,0l0,0l0.1,0.1h0.1c0,0,0,0-0.1,0
		c0.1,0.1,0.2,0.2,0.4,0.1h0.1c0.1-0.1,0.2-0.2,0.3-0.3v-0.1v-0.1c0,0,0,0,0-0.1v-0.1l-0.1-0.1h-0.1c0,0-0.1,0-0.1,0h-0.1
		L141.2,86.1z"/>
	<path class="st4" d="M185.2,89.6L185.2,89.6c-0.1,0.1-0.1,0.2-0.1,0.3c0,0.1,0,0.1,0.1,0.2c0.1,0.1,0.1,0.1,0.2,0.1h0.1l0.1-0.1
		l0.1-0.1v-0.2v-0.1l-0.1-0.1h-0.1h-0.1L185.2,89.6z"/>
	<path class="st4" d="M173.4,89v0.1l0.1,0.1l0.1,0.1l0,0c0.1,0.1,0.2,0.1,0.3,0.1h0.1c0.1-0.1,0.1-0.2,0.1-0.3c0-0.1,0-0.2-0.1-0.2
		l0,0v-0.1l-0.1-0.1C173.6,88.6,173.4,88.7,173.4,89C173.4,89,173.4,89,173.4,89z"/>
	<path class="st4" d="M176.5,85.3v0.1v0.1l0.1,0.1c0.1,0.1,0.3,0.1,0.5,0v-0.1l0,0c0.1-0.1,0.2-0.1,0.2-0.2l0,0v-0.1h-0.1
		c0-0.1-0.1-0.1-0.2-0.1h-0.1C176.7,85.1,176.6,85.2,176.5,85.3z"/>
	<path class="st4" d="M167.8,87L167.8,87L167.8,87c0,0,0,0.1,0,0.1v0.1l0,0h0.1l0.1,0.1c0.1,0,0.2,0,0.3,0c0.1,0,0.1-0.1,0.1-0.2V87
		V87v-0.1c0-0.1-0.1-0.2-0.2-0.2c-0.1,0-0.2,0-0.2,0.1L167.8,87z"/>
	<path class="st4" d="M170.2,93.4L170.2,93.4l-0.1,0.1v0.1c0,0.1,0,0.2,0.1,0.3h0.1c0.2,0,0.3,0,0.4-0.2v-0.1v-0.1v-0.1
		c-0.1-0.2-0.2-0.3-0.4-0.2L170.2,93.4z"/>
	<path class="st4" d="M161.4,90L161.4,90c0,0-0.1,0.1-0.1,0.2v0.1v0.1v0.1l0,0l0,0l0.1,0.1l0.1,0.1c0.2,0,0.3-0.1,0.3-0.2l0,0
		c0,0,0-0.1,0-0.2l0,0l-0.1-0.1h-0.1C161.5,89.9,161.4,89.9,161.4,90L161.4,90z"/>
	<path class="st4" d="M153.7,90c-0.1-0.1-0.2-0.1-0.2-0.1c-0.1,0-0.1,0.1-0.2,0.2v0.1l0.1,0.1h0.1l-0.1,0.1c0,0.1,0.1,0.1,0.2,0.2
		c0.1,0,0.2-0.1,0.2-0.1v-0.2v-0.1L153.7,90z"/>
	<path class="st4" d="M147.9,102.1l-0.1,0.1v0.2l0.1,0.1l0.1,0.1c0.1,0.1,0.1,0.1,0.2,0.1h0.1l0.1-0.1l0.1-0.1l0,0c0,0,0-0.1,0-0.1
		l0,0v-0.1l-0.1-0.1l-0.1-0.1l0,0h-0.1L147.9,102.1z"/>
	<path class="st4" d="M172.9,102.5c-0.1,0-0.1,0.1-0.1,0.2v0.1v0.1l0.1,0.1c0,0.1,0.1,0.1,0.2,0.2h0.1l0.1-0.1l0.1-0.1v-0.1
		c0-0.4-0.2-0.4-0.3-0.4L172.9,102.5L172.9,102.5z"/>
	<path class="st4" d="M158.2,55.6C158.2,55.6,158.2,55.6,158.2,55.6v-0.2l-0.1-0.1h-0.1c-0.1,0-0.2,0-0.2,0
		c-0.1,0.1-0.1,0.2-0.1,0.3l0,0v0.1v0.1h0.1c0.1,0,0.2,0,0.3,0C158.1,55.8,158.2,55.7,158.2,55.6z"/>
	<path class="st4" d="M162.1,65.6L162.1,65.6v0.1v0.1l0.1,0.1c0,0,0.1,0.1,0.1,0.1h0.1l0.1-0.1v-0.1c0-0.1,0-0.2-0.1-0.2
		c-0.1,0-0.1-0.1-0.2-0.1L162.1,65.6L162.1,65.6z"/>
	<path class="st4" d="M157.8,65.8c-0.1,0.1-0.1,0.2-0.1,0.3c0,0.2,0.1,0.3,0.2,0.3c0,0,0,0,0,0l0,0c0.1,0,0.2,0,0.3-0.1v-0.1
		c0,0,0-0.1,0-0.1V66l-0.1-0.1l-0.1-0.1H158L157.8,65.8L157.8,65.8z"/>
	<path class="st4" d="M168.4,64.4L168.4,64.4L168.4,64.4c0,0.1,0,0.1,0,0.1c0,0.1,0,0.2,0.1,0.3c0.1,0.1,0.3,0.1,0.4,0.1l0,0v-0.1
		l0.1-0.1c0-0.1,0.1-0.1,0.1-0.2v-0.1v-0.1v-0.1c-0.2-0.1-0.4-0.1-0.5,0L168.4,64.4z"/>
	<path class="st4" d="M164.4,64L164.4,64v0.2l0.1,0.1h0.1h0.1h0.1h0.1l0.1-0.1c0-0.1,0.1-0.1,0.1-0.2c0-0.1,0-0.2-0.1-0.3h-0.1
		c-0.1,0-0.2,0-0.3,0.1C164.5,63.8,164.4,63.9,164.4,64z"/>
	<path class="st4" d="M184.1,66v0.1l0.1,0.1c0,0,0.1,0.1,0.1,0.1h0.1l0.1-0.1v-0.1l-0.1-0.1l0.1,0.1V66l-0.1-0.1l-0.1-0.1
		C184.3,65.8,184.2,65.9,184.1,66z"/>
	<path class="st4" d="M177.4,69.7L177.4,69.7l0.1,0.2l0.1,0.1c0.2,0,0.3,0,0.4-0.2c0,0,0-0.1,0-0.1v-0.1v-0.1l-0.1-0.1h-0.1
		C177.6,69.4,177.4,69.5,177.4,69.7z"/>
	<path class="st4" d="M150.8,66.9L150.8,66.9L150.8,66.9l-0.1,0.1v0.1c0,0.2,0.1,0.3,0.3,0.3h0.1h0.1l0.1-0.1v-0.1
		c0-0.1,0-0.1-0.1-0.2c0-0.1-0.1-0.2-0.2-0.2H150.8L150.8,66.9z"/>
	<path class="st4" d="M169.7,66.7L169.7,66.7v0.1v0.1V67l0.1,0.1l0.1,0.1c0.2,0,0.3-0.1,0.3-0.2v-0.1v-0.1c-0.1-0.1-0.2-0.2-0.3-0.2
		L169.7,66.7z"/>
	<path class="st4" d="M182.3,83.7c0,0.1,0,0.2,0.1,0.2l0.1,0.1h0.1c0.1,0,0.3,0,0.3-0.3l-0.1-0.1l0,0l-0.1-0.1l-0.1-0.1
		c-0.1,0-0.2,0-0.3,0C182.3,83.5,182.3,83.6,182.3,83.7z"/>
	<path class="st4" d="M151.8,63c0,0,0,0.1,0,0.2l0.1,0.1l0.1,0h0.1h0.1h0.1h0.1l0.1-0.1c0,0,0-0.1,0-0.1V63v-0.1h-0.1h-0.1
		c-0.1,0-0.2,0-0.2,0.1C151.9,62.9,151.8,63,151.8,63z"/>
	<path class="st4" d="M157,60.3v0.1l0.1,0.1c0,0.1,0.1,0.1,0.2,0.1h0.1h0.1h0.1c0,0,0-0.1,0.1-0.1c0-0.1-0.1-0.3-0.2-0.3
		C157.2,60.1,157.1,60.2,157,60.3z"/>
	<path class="st4" d="M164.6,55.9l-0.1-0.1h-0.1h-0.1l-0.1,0.1l-0.1,0.1V56l0,0l0,0c0.1,0.1,0.2,0.1,0.2,0.1c0.1,0,0.2-0.1,0.2-0.2
		v0V55.9z"/>
	<path class="st4" d="M180.5,62.3L180.5,62.3L180.5,62.3c-0.1,0-0.2,0.1-0.2,0.2l0,0l0,0v0.1c0,0.1,0,0.2,0.1,0.3
		c0.1,0.1,0.2,0.1,0.4,0.1l0.1,0l0.1-0.1c0.1,0,0.1-0.1,0.1-0.2c0,0,0-0.1,0-0.1l0,0l0,0c0-0.1-0.1-0.2-0.2-0.2h-0.2L180.5,62.3z"/>
	<path class="st4" d="M177.9,56.1c-0.1,0-0.1,0.1-0.1,0.2c-0.1,0-0.1,0.1-0.1,0.2c0,0.1,0.1,0.3,0.2,0.4h0.1h0.1
		c0.1,0,0.3,0,0.4-0.1c0.1-0.1,0.2-0.2,0.2-0.3v-0.1v-0.1v-0.1h-0.1l0,0C178.4,56,178.2,55.9,177.9,56.1C178,56,178,56,177.9,56.1z"
		/>
	<path class="st4" d="M178.8,73.3c0-0.1,0-0.2-0.1-0.2h-0.1h-0.1h-0.1c-0.3,0-0.4,0.2-0.4,0.3v0.1l0.1,0.1l0.1,0.1h0.1
		c0.1,0,0.1,0,0.2,0h0.1l0.1-0.1l0.1-0.1C178.8,73.4,178.8,73.4,178.8,73.3z"/>
	<path class="st4" d="M175.7,63.7L175.7,63.7v0.1l0,0c0,0.1,0,0.2,0.1,0.2c0,0,0,0.1,0.1,0.1h0.1h0.1h0.1l0,0c0.1,0,0.2-0.1,0.3-0.2
		v0c0-0.2-0.1-0.4-0.3-0.4C175.9,63.6,175.8,63.6,175.7,63.7L175.7,63.7z"/>
	<path class="st4" d="M168.5,59.6c-0.1,0-0.2,0.1-0.2,0.2c0,0-0.1,0.1-0.1,0.1c0,0.1,0,0.1,0.1,0.2h0.1l0,0h0.1
		c0.1,0,0.1,0.1,0.2,0.1h0.1l0.1-0.1h0.1v-0.1V60C168.9,59.8,168.7,59.6,168.5,59.6L168.5,59.6L168.5,59.6z"/>
	<path class="st4" d="M147.2,60.2L147.2,60.2c0,0,0-0.1,0-0.1l0,0l0,0l0,0c0-0.1,0-0.2-0.1-0.2h-0.1H147h-0.1h-0.2l-0.1,0.1V60v0.2
		c0,0.2,0.2,0.4,0.4,0.3c0,0,0,0,0,0C147.2,60.4,147.3,60.3,147.2,60.2C147.2,60.2,147.2,60.2,147.2,60.2z"/>
	<path class="st4" d="M172.9,61.7l0.1,0.2h0.2l0,0l0,0l0.2-0.1c0-0.1-0.1-0.3-0.2-0.3c0,0,0,0,0,0C173,61.4,172.8,61.5,172.9,61.7
		C172.8,61.7,172.8,61.7,172.9,61.7L172.9,61.7z"/>
	<path class="st4" d="M174.7,78.2l-0.1-0.1l0,0c-0.1,0-0.1-0.1-0.2-0.1c-0.1,0-0.1,0-0.2,0.1l-0.1,0.1l-0.1,0.1c0,0.1,0,0.1,0,0.2
		l0,0v0.1l0,0l0,0v0.1l0.1,0.1c0.1,0,0.2,0,0.3-0.1c0.1-0.1,0.2-0.2,0.2-0.3C174.7,78.3,174.7,78.2,174.7,78.2z"/>
	<path class="st4" d="M162.6,76.6L162.6,76.6L162.6,76.6L162.6,76.6L162.6,76.6v0.1v0.1l0,0v0.1V77c0,0,0.1,0.1,0.1,0.1v0.1h0.2
		c0.1,0,0.2,0,0.2-0.1l0,0c0.1-0.1,0.1-0.2,0.1-0.3c0,0,0-0.1-0.1-0.1v-0.1h-0.1l-0.1-0.1l0,0c-0.1,0-0.1,0-0.2,0L162.6,76.6z"/>
	<path class="st4" d="M170.2,77.2L170.2,77.2L170.2,77.2L170.2,77.2l-0.1,0.2c-0.1,0.1-0.1,0.1-0.1,0.2c0,0.1,0,0.1,0.1,0.2l0,0
		l0.1,0.1h0.1c0,0.1,0.1,0.1,0.1,0.1h0.1l0,0h0.1h0.1h0.1l0.1-0.1c0.1-0.1,0.1-0.2,0.1-0.3v-0.1v-0.1l-0.1-0.1l-0.1-0.1h-0.1
		l-0.1-0.1l0,0l0,0l-0.1-0.1h-0.1C170.5,77,170.3,77.1,170.2,77.2z"/>
	<path class="st4" d="M182.1,78.5L182.1,78.5c-0.1,0.1-0.1,0.2-0.1,0.2c0,0.2,0.1,0.3,0.2,0.3c0.1,0,0.3-0.1,0.3-0.2v-0.1v-0.1
		l-0.1-0.1l-0.1-0.1h-0.1L182.1,78.5z"/>
	<path class="st4" d="M155.2,78L155.2,78L155.2,78C155.2,78,155.2,78.1,155.2,78v0.2v0.1l0.1,0.1c0.1,0.1,0.2,0.1,0.2,0.1l0,0
		c0.1,0,0.2,0,0.2-0.1l0,0l0.1-0.1c0,0,0-0.1,0.1-0.2c0,0,0-0.1,0-0.1V78v-0.1l-0.1-0.1h-0.1c-0.1-0.1-0.3-0.1-0.4,0L155.2,78z"/>
	<path class="st4" d="M160.5,74.3c0,0-0.1,0.1-0.1,0.1c0,0-0.1,0.1-0.1,0.1v0.1c0,0.1,0,0.3,0.1,0.4h0.1h0.1h0.1
		c0.3,0,0.5-0.3,0.5-0.6v-0.1l0,0l0,0c0,0-0.1-0.1-0.1-0.1c0,0-0.1-0.1-0.1-0.1h-0.1C160.7,74.2,160.6,74.2,160.5,74.3z"/>
	<path class="st4" d="M148,77.9C148,77.9,148,77.9,148,77.9c0-0.1,0-0.2,0-0.2l-0.1-0.1l-0.1-0.1h-0.1h-0.1h-0.1l-0.1,0.1l-0.1,0.1
		v0.2V78l0,0c0.1,0.1,0.2,0.1,0.3,0.1h0.1h0.1L148,77.9z"/>
	<path class="st4" d="M162.3,80.1L162.3,80.1L162.3,80.1c-0.1,0.1-0.2,0.1-0.2,0.2c0,0.1,0,0.1-0.1,0.2c0,0,0,0.1,0,0.1v0.1v0.1
		l0.1,0.1h0.1c0.1,0,0.2,0,0.3,0l0.1-0.1v-0.1l0,0c0-0.1,0.1-0.1,0.1-0.2v-0.1v-0.1l-0.1-0.1h-0.1l0,0L162.3,80.1z"/>
	<path class="st4" d="M182.8,73c-0.1,0-0.1,0-0.1,0.1c0,0-0.1,0.1-0.1,0.1c0,0-0.1,0.1-0.1,0.2c0,0,0,0.1,0,0.1l0,0l0,0
		c0.1,0.1,0.2,0.2,0.3,0.2h0.1h0.1l0.1-0.1c0-0.1,0.1-0.2,0.1-0.2c0-0.1,0-0.2-0.1-0.3H182.8L182.8,73z"/>
	<path class="st4" d="M149.3,70.2c0.1,0,0.1-0.1,0.1-0.2v-0.1l0,0c0-0.1-0.1-0.1-0.1-0.2c0,0-0.1,0-0.1,0c-0.2,0-0.3,0.1-0.3,0.3
		c0,0,0,0,0,0c0,0.1,0,0.1,0,0.2l0,0l0,0l0,0C148.9,70.4,149.2,70.4,149.3,70.2C149.3,70.2,149.3,70.2,149.3,70.2z"/>
	<path class="st4" d="M140.6,71.9L140.6,71.9L140.6,71.9c-0.1,0.1-0.1,0.2-0.1,0.3c0,0.1,0,0.2,0.1,0.3c0.1,0.1,0.2,0.1,0.3,0.1h0.1
		l0.1-0.1v-0.1l0,0v-0.1v-0.1v-0.1C141,71.9,140.9,71.8,140.6,71.9L140.6,71.9z"/>
	<path class="st4" d="M145.9,69.8L145.9,69.8L145.9,69.8l0.1-0.1c0,0,0-0.1,0-0.1c0-0.2-0.1-0.3-0.2-0.4c-0.1,0-0.2,0-0.3,0.1l0,0
		l0,0l-0.1,0.1c0,0.1,0,0.2,0.1,0.3h0.1L145.9,69.8C145.9,69.8,145.9,69.8,145.9,69.8z"/>
	<path class="st4" d="M172.1,81.9L172.1,81.9L172.1,81.9c-0.1,0.1-0.1,0.2-0.1,0.2c0,0,0,0.1,0,0.1l0,0c0.1,0.1,0.2,0.2,0.3,0.2
		c0.1,0,0.2-0.1,0.3-0.2v-0.1V82l-0.1-0.1c-0.1-0.1-0.2-0.1-0.3-0.1L172.1,81.9z"/>
	<path class="st4" d="M163.6,70.4L163.6,70.4v0.1c0,0.1,0,0.2,0.2,0.2c0.1,0,0.2,0,0.3-0.1l0,0l0,0v-0.1c0-0.1-0.1-0.2-0.2-0.2
		C163.9,70.4,163.8,70.4,163.6,70.4L163.6,70.4z"/>
	<path class="st4" d="M165.9,74.9l-0.1-0.1h-0.1l-0.1,0.1v0.1v0.2l0,0v0.1c0.1,0.1,0.3,0.1,0.4,0c0.1,0,0.2-0.1,0.2-0.2c0,0,0,0,0,0
		c0,0,0-0.1,0-0.1l0,0v-0.1l-0.1-0.1c-0.1,0-0.2,0-0.3,0L165.9,74.9z"/>
	<path class="st4" d="M165.1,69.8L165.1,69.8c0,0.1,0,0.1,0,0.2v0.1v0.1l0.1,0.1l0,0c0.1,0.1,0.3,0.1,0.4,0.1h0.1l0.1-0.1l0.1-0.1
		v-0.1v-0.1c0,0,0-0.1,0-0.1l0,0c0-0.1-0.1-0.3-0.2-0.3v-0.1h-0.1h-0.1C165.3,69.6,165.1,69.7,165.1,69.8z"/>
	<path class="st4" d="M172.6,73.5c0,0.1,0.1,0.2,0.2,0.2c0.1,0,0.3,0,0.3-0.2v-0.2l-0.1-0.1h-0.1C172.6,73.3,172.6,73.4,172.6,73.5z
		"/>
	<path class="st4" d="M170,71.2l-0.1,0.1c0,0.1-0.1,0.1-0.1,0.2c0,0.1,0,0.2,0.1,0.2h0.1c0.1,0,0.2,0,0.2,0h0.1l0.1-0.1
		c0.1-0.1,0.1-0.1,0.1-0.2l0,0v-0.1l-0.1-0.1h-0.1l-0.1-0.1h-0.1L170,71.2z"/>
	<path class="st4" d="M153.2,71.8L153.2,71.8L153.2,71.8c0-0.1,0-0.2,0-0.2c0,0,0-0.1,0-0.2v-0.1l-0.1-0.1h-0.1
		c-0.1,0-0.1-0.1-0.2-0.1c-0.1,0-0.1,0-0.1,0.1c-0.1,0-0.2,0.1-0.2,0.2v0.1c0,0,0,0.1,0,0.1c0,0.1,0,0.2,0.1,0.3h0.1h0.1
		c0.1,0.1,0.2,0.1,0.4,0L153.2,71.8z"/>
	<path class="st4" d="M169.8,72.2L169.8,72.2l-0.1,0.2v0.1c0,0,0,0.1-0.1,0.2v0.1v0.1l0.1,0.1c0.1,0,0.2,0,0.3,0h0.1l0,0l0.1-0.1
		c0-0.1,0.1-0.1,0.1-0.2c0-0.1-0.1-0.2-0.1-0.3H170l0,0l0,0C169.9,72.2,169.8,72.2,169.8,72.2z"/>
	
		<rect x="139.8" y="31" transform="matrix(0.9032 -0.4293 0.4293 0.9032 -7.6402 74.8191)" class="st3" width="44.4" height="46.6"/>
	<path class="st4" d="M170.3,42.7L170.3,42.7v-0.1c0,0,0-0.1,0-0.1c0-0.1-0.1-0.1-0.2-0.1l0,0H170c-0.1,0-0.2,0.1-0.2,0.2
		c0,0.1,0,0.2,0,0.3c0,0.1,0.1,0.1,0.2,0.2h0.1c0.1,0,0.1,0,0.2-0.1L170.3,42.7z"/>
	<path class="st4" d="M165,49.7L165,49.7L165,49.7c0.1,0.2,0.2,0.3,0.4,0.3l0.1-0.1l0.1-0.1v-0.1v-0.1l0,0v-0.1l-0.1-0.1h-0.1
		C165.2,49.5,165.1,49.5,165,49.7L165,49.7z"/>
	<path class="st4" d="M160,52.5L160,52.5l-0.1-0.2h-0.1h-0.1c-0.1,0.1-0.2,0.1-0.2,0.2v0.1v0.1l0.1,0.1c0.1,0.1,0.3,0,0.4-0.2l0,0
		h0.1v-0.1L160,52.5z"/>
	<path class="st4" d="M153.9,35.1c-0.1-0.1-0.2-0.2-0.3-0.2l-0.1,0l-0.1,0.1v0.2l0,0c0,0.1,0.1,0.2,0.3,0.2h0.1l0.1-0.1L153.9,35.1z
		"/>
	<path class="st4" d="M161,63.7c0.1,0,0.2,0,0.2-0.1l0.1-0.1v-0.1v0v-0.1v-0.1l-0.1-0.1c-0.1,0-0.2,0-0.3,0.1l0,0l-0.1,0v0.1v0.1
		C160.9,63.6,160.9,63.7,161,63.7z"/>
	<path class="st4" d="M158.5,53.4L158.5,53.4c0.1,0.1,0.2,0.2,0.4,0.2h0.1l0.1-0.1v-0.1v-0.1v-0.1v-0.1V53l0,0c0-0.1,0-0.1,0-0.2
		l0,0l0,0c0-0.1,0-0.1,0-0.2c0-0.1-0.1-0.1-0.2-0.1h-0.1c-0.1,0-0.2,0-0.2,0.1l-0.1,0.1v0.1v0.1l0.1,0.1l0,0h-0.1v0.1l0,0
		C158.5,53.1,158.5,53.2,158.5,53.4L158.5,53.4z"/>
	<path class="st4" d="M163.1,38.3L163.1,38.3c0-0.2-0.1-0.2-0.2-0.2l0,0c-0.1,0-0.2,0-0.3,0v0.1v0.1v0.1l0,0c0,0.1,0.1,0.1,0.2,0.1
		h0.1c0.1,0.1,0.2,0.1,0.3,0L163.1,38.3L163.1,38.3z"/>
	<path class="st4" d="M141,48.6L141,48.6L141,48.6c-0.1-0.2-0.2-0.2-0.3-0.2h-0.1h-0.1l-0.1,0.1c0,0.1,0,0.1,0,0.2
		c0,0.1,0.1,0.2,0.3,0.2C140.8,48.8,140.9,48.7,141,48.6L141,48.6z"/>
	<path class="st4" d="M168.2,34.7C168.3,34.6,168.3,34.6,168.2,34.7v-0.2l-0.1-0.1c-0.1-0.1-0.3-0.1-0.4,0l-0.1,0.1v0.2
		c0,0.1,0,0.1,0,0.2c0,0.1,0.1,0.1,0.1,0.1h0.2l0,0l0,0c0.1,0,0.1-0.1,0.2-0.2C168.2,34.8,168.3,34.7,168.2,34.7z"/>
	<path class="st4" d="M146.1,43.9L146.1,43.9l-0.2-0.1l0,0c-0.1-0.1-0.3-0.1-0.4,0l-0.1,0.1v0.2l0,0c0,0.1,0.1,0.1,0.1,0.1
		c0,0,0.1,0.1,0.1,0.1h0.1h0.1h0.1C146,44.2,146.1,44,146.1,43.9z"/>
	<path class="st4" d="M142.9,44.7c0,0,0.1-0.1,0.1-0.1c0,0,0-0.1,0-0.1c0-0.1,0-0.1,0-0.2l0,0h-0.1h-0.1h-0.1c-0.1,0-0.2,0-0.2,0
		c-0.1,0-0.2,0.1-0.2,0.2c0,0.1,0,0.2,0,0.3c0.1,0.2,0.3,0.3,0.5,0.2l0.1-0.1L142.9,44.7z"/>
	<path class="st4" d="M151.8,40.9L151.8,40.9L151.8,40.9l0.2,0.1h0.1h0.1l0.1-0.1l0.1-0.1c0,0,0-0.1,0-0.1l-0.1-0.1H152l0,0
		c-0.1-0.1-0.2-0.1-0.3,0C151.7,40.6,151.7,40.7,151.8,40.9L151.8,40.9C151.7,40.8,151.7,40.9,151.8,40.9z"/>
	<path class="st4" d="M162.3,44.5L162.3,44.5c0,0,0.1,0.1,0.1,0.1c0,0,0.1,0,0.1,0l0,0c0,0.1,0.2,0.2,0.3,0.1l0.1-0.1v-0.1
		c0,0,0.1-0.1,0.1-0.1l0,0l0.1-0.1v-0.2h-0.1l0,0l0.1-0.1v-0.2l-0.1-0.1c-0.1-0.1-0.1-0.1-0.2-0.1h-0.1h-0.1c0,0-0.1,0-0.1,0
		l-0.1,0.1l-0.1,0.1c-0.1,0.1-0.1,0.2-0.1,0.3C162.1,44.4,162.1,44.5,162.3,44.5C162.2,44.5,162.2,44.5,162.3,44.5z"/>
	<path class="st4" d="M160.3,36.1c0,0,0.1,0.1,0.1,0.1h0.1h0.1h0.1c0.2,0,0.3-0.2,0.3-0.3v-0.1v-0.1l-0.1-0.1c0,0-0.1,0-0.1,0l0,0
		h-0.1c-0.2,0-0.3,0.1-0.3,0.3C160.3,36,160.3,36.1,160.3,36.1z"/>
	<path class="st4" d="M156.7,49.1L156.7,49.1c0,0,0.1-0.1,0.1-0.2l0,0v-0.1v-0.1v-0.1c0-0.1-0.1-0.1-0.1-0.1l0,0l-0.1-0.1l-0.1,0
		c-0.4-0.1-0.5,0.3-0.5,0.4V49l0,0c0,0,0,0,0,0.1l0,0l0.1,0c0,0,0.1,0,0.1,0h0.1c0.1,0,0.2,0,0.3,0L156.7,49.1z"/>
	<path class="st4" d="M177.3,38.4L177.3,38.4c0.1-0.1,0.1-0.3,0.1-0.4V38l-0.1-0.1h-0.1l0,0v-0.1h-0.1l0,0c-0.1-0.1-0.3,0-0.4,0.1
		l0,0c-0.1,0.1-0.1,0.2-0.1,0.4v0.1l0.1,0.1l0,0l0.1,0.1h0.1h0.1c0,0,0.1,0,0.1,0L177.3,38.4L177.3,38.4z"/>
	<path class="st4" d="M138.7,56.1L138.7,56.1c0-0.2,0-0.2,0-0.3c0-0.1-0.1-0.1-0.1-0.1c-0.1,0-0.2,0-0.2,0l-0.1,0.1v0.1V56l0.1,0.1
		l0.1,0.1h0.1h0.1h0.1L138.7,56.1z"/>
	<path class="st4" d="M148.9,51L148.9,51l-0.2-0.1h-0.1c-0.1,0-0.2,0-0.3,0.1v0.1c-0.1,0.1,0,0.3,0.1,0.3c0,0,0,0,0,0l0,0l0.1,0.1
		h0.2C149,51.4,149,51.2,148.9,51C148.9,51,148.9,51,148.9,51z"/>
	<path class="st4" d="M148,55.6L148,55.6l-0.1-0.2h-0.1c-0.3,0-0.4,0.1-0.4,0.2l0,0l0,0c0,0.1,0,0.2,0,0.3l0,0l0.1,0.1h0.1
		c0.1,0,0.2,0,0.2,0h0.1C148,55.9,148,55.7,148,55.6z"/>
	<path class="st4" d="M154.5,50.1C154.5,50.1,154.5,50,154.5,50.1V50c0,0,0-0.1,0-0.1l-0.1-0.1l0,0h-0.1h-0.1
		c-0.1,0-0.2,0.1-0.3,0.2c0,0.1,0,0.2,0,0.2v0.1v0h0.1c0.1,0.1,0.2,0.1,0.3,0C154.4,50.2,154.5,50.1,154.5,50.1L154.5,50.1z"/>
	<path class="st4" d="M149.5,45.8L149.5,45.8v-0.2v-0.1c0-0.1-0.1-0.2-0.2-0.2h-0.1c-0.1,0-0.3,0.2-0.3,0.3v0.1l0.1,0.1l0.1,0
		C149.1,46,149.3,46,149.5,45.8L149.5,45.8z"/>
	<path class="st4" d="M158.5,44.5L158.5,44.5c0-0.1,0-0.1,0-0.2v-0.1l0,0h-0.1h-0.1l0,0l-0.1,0h-0.1c-0.1,0-0.2,0.2-0.2,0.3
		c0,0,0,0,0,0l0,0c0,0,0,0.1,0,0.2l0,0l0.1,0.1h0.1c0.1,0,0.2,0,0.2-0.1L158.5,44.5z"/>
	<path class="st4" d="M165,41c0.1,0,0.2,0,0.2,0c0.1-0.1,0.1-0.1,0.1-0.2l-0.1-0.1h-0.1l0,0v-0.1c-0.1,0-0.2,0-0.3,0
		c-0.1,0-0.1,0.1-0.1,0.2l0.1,0.1L165,41L165,41z"/>
	<path class="st4" d="M164.2,28.1v-0.1l-0.1-0.1l-0.1-0.1H164c-0.1,0-0.1,0-0.2,0v0.1v0.1V28v0c0,0.1,0.1,0.1,0.1,0.1l0,0l0.1,0
		l0.1,0h0.1l0,0h0.1L164.2,28.1z"/>
	<path class="st4" d="M143.1,39.4c0-0.1,0-0.2,0-0.2l-0.1-0.1h-0.1h-0.1c-0.1,0-0.1-0.1-0.2,0l-0.1,0.1l-0.1,0.1v0.1v0.1
		c0.1,0.3,0.4,0.3,0.5,0.2l0.1-0.1L143.1,39.4z"/>
	<path class="st4" d="M177.3,72C177.3,72,177.3,72,177.3,72l0.1,0.1h0.1h0.1c0.1,0,0.2-0.1,0.2-0.2c0-0.1,0-0.2,0-0.3l0,0l-0.1-0.1
		h-0.1h-0.1c-0.1,0-0.2,0.1-0.2,0.1C177.2,71.8,177.2,71.9,177.3,72z"/>
	<path class="st4" d="M169.3,65.5L169.3,65.5v-0.1l-0.1-0.1h-0.1c0,0-0.1,0-0.1,0l-0.1,0.1v0.1v0.1c0,0.1,0.1,0.1,0.2,0.2
		c0.1,0,0.1,0,0.2,0l0.1-0.1L169.3,65.5z"/>
	<path class="st4" d="M172.8,63.2c0-0.1,0-0.2,0-0.3c-0.1-0.1-0.2-0.2-0.4-0.2l0,0c-0.1,0-0.2,0.1-0.2,0.2v0.1c0,0,0,0.1,0.1,0.1
		l0.1,0.1h0.1c0,0,0.1,0,0.1,0L172.8,63.2L172.8,63.2L172.8,63.2z"/>
	<path class="st4" d="M164.5,69.4v-0.1v-0.1c0-0.1-0.1-0.2-0.2-0.2c-0.1,0-0.3,0-0.4,0.1v0.1v0.2c0,0.1,0,0.1,0,0.2l0.1,0.1h0.1h0.1
		C164.3,69.6,164.5,69.5,164.5,69.4L164.5,69.4z"/>
	<path class="st4" d="M168.1,67.8C168.1,67.8,168.1,67.8,168.1,67.8l-0.1-0.1h-0.1h-0.1l-0.1,0.1l-0.1,0.1v0.1V68c0,0.1,0,0.1,0,0.2
		c0,0.1,0.1,0.2,0.2,0.2h0.2c0.1,0,0.2-0.1,0.2-0.2C168.2,68.1,168.2,67.9,168.1,67.8z"/>
	<path class="st4" d="M150.6,75.4L150.6,75.4l-0.2-0.2c-0.1,0-0.1,0-0.2,0l-0.1,0.1l-0.1,0.1v0.1h0.1h-0.1l0.1,0.1l0.1,0.1h0.2
		C150.6,75.7,150.6,75.6,150.6,75.4z"/>
	<path class="st4" d="M154.6,69.2L154.6,69.2l-0.2-0.1h-0.1c-0.1,0-0.2,0.1-0.2,0.2c0,0.1,0,0.2,0,0.2v0.1l0.1,0.1h0.1h0.1
		C154.5,69.6,154.6,69.4,154.6,69.2C154.6,69.2,154.6,69.2,154.6,69.2z"/>
	<path class="st4" d="M178.2,59.1L178.2,59.1L178.2,59.1L178.2,59.1l0-0.2c-0.1-0.1-0.3-0.2-0.4-0.2l-0.1,0.1l-0.1,0.1V59V59
		c0,0.1,0.1,0.1,0.1,0.1c0.1,0.1,0.2,0.1,0.2,0.1L178.2,59.1L178.2,59.1z"/>
	<path class="st4" d="M162.5,68.1L162.5,68.1v-0.2v-0.1l-0.1-0.1h-0.1h-0.1c-0.2,0.1-0.2,0.2-0.2,0.3l0.1,0.1l0.1,0.1
		c0.1,0.1,0.3,0.1,0.4,0L162.5,68.1z"/>
	<path class="st4" d="M143.9,59.6c0-0.1-0.1-0.1-0.2-0.2h-0.1c-0.1,0-0.2,0.2-0.1,0.4h0.1l0,0h0.1h0.1c0.1,0,0.2-0.1,0.2-0.2
		C143.9,59.7,143.9,59.7,143.9,59.6z"/>
	<path class="st4" d="M179.2,62.8c0,0-0.1-0.1-0.1-0.1h-0.1h-0.2h-0.1l-0.1,0.1v0.1V63l0,0c0,0,0,0,0,0.1l0,0l0.1,0h0.1h0.1
		c0.1,0,0.1-0.1,0.2-0.2C179.2,62.9,179.2,62.9,179.2,62.8z"/>
	<path class="st4" d="M176.1,67.5L176.1,67.5l-0.2-0.1c-0.1,0-0.2,0-0.2,0l0,0v0.1v0.1c0,0,0,0.1,0,0.1c0.1,0.1,0.2,0.2,0.3,0.1
		C176.1,67.8,176.2,67.6,176.1,67.5z"/>
	<path class="st4" d="M171.8,74.8h0.2l0.1-0.1l0.1-0.1v-0.1v-0.1l0,0l0,0l0,0c-0.1,0-0.2,0-0.3,0c-0.1,0.1-0.1,0.1-0.1,0.2
		L171.8,74.8L171.8,74.8z"/>
	<path class="st4" d="M155.4,76.8L155.4,76.8L155.4,76.8c0.1-0.1,0.1-0.2,0.1-0.3l0,0v-0.1l0,0c0-0.1-0.1-0.2-0.2-0.2
		c-0.1,0-0.2,0-0.3,0.1l-0.1,0.1v0.1c0,0.1,0,0.1,0,0.2c0,0,0,0.1,0.1,0.1l0,0l0,0c0,0.1,0.2,0.2,0.3,0.1h0.1L155.4,76.8z"/>
	<path class="st4" d="M160.4,80.9c0-0.1,0-0.1,0-0.2c0-0.1,0-0.1,0-0.2c-0.1-0.1-0.2-0.2-0.3-0.2H160c-0.1,0-0.2,0.1-0.3,0.2
		c-0.1,0.1-0.1,0.2,0,0.4c0,0,0,0.1,0.1,0.1h0.1h0.1h0.1C160.1,81,160.4,81.1,160.4,80.9z"/>
	<path class="st4" d="M151.6,66.8c0,0.1,0.1,0.1,0.2,0.2h0.1h0.1h0.1c0.3-0.1,0.2-0.3,0.2-0.4v-0.1h-0.1H152h-0.1
		c-0.1,0-0.1,0-0.2,0l-0.1,0.1v0.1L151.6,66.8L151.6,66.8z"/>
	<path class="st4" d="M158.8,73.4L158.8,73.4v-0.1l0,0l0,0c0-0.1-0.1-0.1-0.2-0.2c0,0-0.1,0-0.1,0h-0.1h-0.1l0,0l0,0
		c-0.1,0.1-0.2,0.2-0.2,0.3l0,0c0.1,0.1,0.2,0.2,0.3,0.2C158.7,73.6,158.8,73.5,158.8,73.4L158.8,73.4z"/>
	<path class="st4" d="M166.8,73.4c0.1-0.1,0.1-0.2,0.1-0.2c0,0,0-0.1,0-0.2c0-0.1-0.1-0.1-0.1-0.1h-0.1h-0.1c-0.1,0-0.1,0-0.2,0
		l-0.1,0.1v0.1v0.1v0.1v0.1C166.3,73.5,166.5,73.6,166.8,73.4L166.8,73.4L166.8,73.4z"/>
	<path class="st4" d="M184.4,63L184.4,63c0,0,0,0.1,0,0.1l0,0l0,0v0c0,0.1,0.1,0.1,0.2,0.1h0.1h0.1l0.1-0.1l0.1-0.1v-0.1V63
		l-0.1-0.1c-0.1-0.2-0.3-0.2-0.5-0.1c0,0,0,0,0,0C184.3,62.9,184.3,63,184.4,63z"/>
	<path class="st4" d="M162.1,73.8l-0.2-0.1h-0.1l0,0l-0.1,0.1l0,0l0,0l-0.1,0.2c0.1,0.1,0.2,0.2,0.4,0.1c0.1,0,0.1-0.1,0.1-0.2
		C162.2,73.8,162.1,73.8,162.1,73.8z"/>
	<path class="st4" d="M152.8,60.7h0.1l0,0c0.1,0,0.2,0,0.2,0c0.1,0,0.1-0.1,0.1-0.2l0.1-0.1v-0.1c0-0.1-0.1-0.1-0.1-0.1l0,0h-0.1
		l0,0l0,0h-0.1H153c-0.1,0-0.2,0.1-0.2,0.2C152.7,60.5,152.7,60.6,152.8,60.7C152.8,60.7,152.8,60.7,152.8,60.7z"/>
	<path class="st4" d="M163.8,56.4L163.8,56.4L163.8,56.4v-0.1v-0.1v-0.1v-0.1l0,0V56l-0.1-0.1c-0.1,0-0.1,0-0.2,0h-0.1l-0.2,0.1
		c-0.1,0-0.1,0.1-0.1,0.2l0,0c0,0.1,0,0.2,0,0.2c0,0.1,0.1,0.1,0.2,0.1l0,0h0.1h0.1l0,0c0.1,0,0.1,0,0.2,0L163.8,56.4z"/>
	<path class="st4" d="M157.1,59.5L157.1,59.5L157.1,59.5L157.1,59.5v-0.2c0-0.1,0-0.1,0-0.2c0-0.1-0.1-0.1-0.1-0.1l0,0l-0.1-0.1
		h-0.1c-0.1,0-0.1,0-0.2,0l-0.1,0.1l0,0h-0.1l-0.1,0v0.1v0.1c0,0.1,0,0.2,0.1,0.3v0h0.1h0.1h0.1h0.1c0,0,0.1,0,0.1,0l0,0h0.1h0.1
		C157,59.6,157.1,59.5,157.1,59.5z"/>
	<path class="st4" d="M146.4,63.9L146.4,63.9c0-0.1,0-0.2,0-0.2c-0.1-0.1-0.2-0.2-0.4-0.2c-0.1,0.1-0.2,0.2-0.1,0.3V64l0.1,0h0.1
		c0,0,0.1,0,0.1,0L146.4,63.9L146.4,63.9z"/>
	<path class="st4" d="M169.3,51.8L169.3,51.8L169.3,51.8C169.3,51.8,169.3,51.7,169.3,51.8v-0.2l-0.1-0.1h-0.1c-0.1,0-0.2,0-0.2,0
		l0,0c-0.1,0-0.1,0.1-0.1,0.2l0,0v0.1c0,0.1,0,0.1,0,0.2c0,0,0,0,0,0.1c0,0,0,0,0,0.1l0.1,0.1h0.1h0.1c0.2,0,0.3-0.1,0.4-0.2
		L169.3,51.8z"/>
	<path class="st4" d="M175.5,48.4C175.5,48.5,175.5,48.5,175.5,48.4l0.1,0.2h0.1h0.2l0.1-0.1l0.1-0.1v-0.1v-0.1v-0.1v0l0,0h-0.1
		c-0.1,0-0.2,0-0.3,0.1l-0.1,0.1v0.1L175.5,48.4z"/>
	<path class="st4" d="M162.4,53.3L162.4,53.3L162.4,53.3c0-0.1,0.1-0.2,0.1-0.3c0-0.1,0-0.1,0-0.2c0,0,0-0.1-0.1-0.1l0,0l-0.1-0.1
		h-0.1h-0.1c-0.1,0-0.2,0.1-0.2,0.2l-0.1,0.1v0.1l0,0c0,0.1,0,0.1,0,0.2v0.1l0.1,0.1h0.1h0.1l0,0L162.4,53.3z"/>
	<path class="st4" d="M148.4,68.9c0,0,0.1-0.1,0.1-0.1c0,0,0-0.1,0-0.1c0,0,0-0.1,0-0.2c0,0,0-0.1-0.1-0.1h-0.1h-0.1
		c-0.1-0.1-0.2-0.1-0.4,0h-0.1v0.1v0.1c0,0.1,0,0.2,0.1,0.2c0.1,0.1,0.2,0.2,0.3,0.2L148.4,68.9L148.4,68.9L148.4,68.9z"/>
	<path class="st4" d="M177.9,55.6c0,0.1,0,0.1,0,0.2l0.1,0.1l0,0c0,0.1,0.1,0.1,0.2,0.1c0,0,0.1,0,0.1,0c0.2-0.1,0.2-0.3,0.1-0.4
		c0-0.1-0.1-0.1-0.1-0.1l0,0h-0.1h-0.1C178.1,55.4,178,55.4,177.9,55.6z"/>
	<path class="st4" d="M184.5,50.1L184.5,50.1v-0.2c0-0.1,0-0.1-0.1-0.2c0-0.1-0.1-0.2-0.2-0.2c-0.1,0-0.2,0-0.3,0.1l-0.1,0.1v0.2v0
		V50l0.1,0.1l0.1,0.1C184.1,50.3,184.3,50.3,184.5,50.1L184.5,50.1z"/>
	<path class="st4" d="M181,54.3L181,54.3L181,54.3v0.2v0.1c0.1,0.1,0.2,0.2,0.4,0.2c0.1,0,0.2-0.1,0.2-0.2l0,0l0,0v-0.1
		c0-0.1-0.1-0.2-0.3-0.2h-0.1h-0.1h-0.1C181.1,54.3,181,54.3,181,54.3z"/>
	<path class="st4" d="M153.3,56.4L153.3,56.4v-0.1c0-0.1,0-0.1,0-0.2l-0.1-0.1h-0.1c-0.1-0.1-0.2-0.1-0.3,0
		c-0.1,0.1-0.2,0.2-0.2,0.3v0.1l0.1,0.1h0.1c0.1,0,0.2,0,0.3-0.1L153.3,56.4z"/>
	<path class="st4" d="M165.8,62.1L165.8,62.1c0-0.2-0.1-0.2-0.3-0.2s-0.2,0.2-0.2,0.2v0.2c0,0.1,0.1,0.1,0.3,0.1
		C165.5,62.4,165.7,62.3,165.8,62.1L165.8,62.1z"/>
	<path class="st4" d="M161.8,59.4l0.1,0.1l0.1-0.1v-0.1v-0.1l0-0.2v0h-0.1h-0.1c-0.1,0-0.3,0.1-0.3,0.2c-0.1,0.1-0.1,0.2-0.1,0.3
		c0,0,0,0.1,0.1,0.1l0,0l0.1,0.1h0.1c0.1,0,0.2,0,0.3-0.1L161.8,59.4z"/>
	<path class="st4" d="M164.8,63.2L164.8,63.2c0-0.1,0-0.1,0-0.2V63l-0.1,0h-0.1h-0.1c-0.1,0-0.3,0-0.4,0.1v0.1c0,0,0,0.1,0,0.1v0.1
		v0.1c0,0,0,0.1,0.1,0.1l0,0c0.1,0.1,0.2,0.2,0.3,0.2h0.1h0.1h0.1C164.9,63.6,165,63.4,164.8,63.2z"/>
	<path class="st4" d="M156.8,63.7c0-0.1-0.2-0.1-0.3-0.1c-0.1,0-0.2,0.2-0.2,0.3l0.1,0.1h0.1h0.1C156.8,63.9,156.9,63.8,156.8,63.7z
		"/>
	<path class="st4" d="M160.1,64.4v-0.1c0-0.1,0-0.1-0.1-0.2c0-0.1-0.1-0.2-0.2-0.1h-0.1c-0.1,0-0.2,0-0.2,0.1v0.1v0.1
		c0,0.1,0,0.1,0,0.2l0,0l0.1,0.1h0.1h0.1c0,0,0.1,0,0.1,0L160.1,64.4L160.1,64.4z"/>
	<path class="st4" d="M173.9,56.1L173.9,56.1L173.9,56.1c0,0.1,0,0.2,0,0.2l0.1,0.1h0.1h0.2c0.1,0,0.1,0,0.2,0c0,0,0.1-0.1,0.1-0.1
		c0.1-0.1,0.1-0.2,0.1-0.2V56v-0.1c0-0.1-0.1-0.2-0.2-0.2h-0.1h-0.1h-0.1c-0.1,0-0.2,0.1-0.3,0.2L173.9,56.1z"/>
	<path class="st4" d="M159.8,63.5L159.8,63.5v-0.2v-0.1c0-0.1,0-0.1,0-0.2l-0.1-0.1h-0.1h-0.1c-0.1,0-0.2,0-0.2,0.1v0.1v0.1v0.1
		c0,0.1,0,0.1,0,0.2c0,0.1,0.1,0.2,0.3,0.2l0.1-0.1l0,0l0,0C159.7,63.6,159.8,63.5,159.8,63.5z"/>
	
		<rect x="146.9" y="16.9" transform="matrix(1 -7.679373e-03 7.679373e-03 1 -0.2218 1.2209)" class="st3" width="23.9" height="25.1"/>
	<path class="st4" d="M152.2,33.3L152.2,33.3L152.2,33.3C152.2,33.3,152.2,33.3,152.2,33.3c0,0.1,0,0.1,0.1,0.2l0,0h0.1
		c0,0,0.1,0,0.1,0c0,0,0.1-0.1,0.1-0.1c0-0.1,0-0.1-0.1-0.1h-0.1C152.3,33.2,152.3,33.2,152.2,33.3L152.2,33.3z"/>
	<path class="st4" d="M156.3,31.1L156.3,31.1c0-0.2-0.1-0.3-0.1-0.3h-0.1l0,0v0.1V31l0,0l0,0v0.1l0.1,0
		C156.3,31.1,156.3,31.1,156.3,31.1L156.3,31.1z"/>
	<path class="st4" d="M159.4,30.9L159.4,30.9V31l0,0h0.1c0.1,0,0.1,0,0.1-0.1h0.1v-0.1v-0.1C159.6,30.7,159.6,30.7,159.4,30.9
		L159.4,30.9L159.4,30.9L159.4,30.9z"/>
	<path class="st4" d="M158.5,40.8c0,0.1,0,0.1,0.1,0.1h0.1h0.1l0.1-0.1l0,0c0-0.1,0-0.1-0.1-0.1h-0.1L158.5,40.8L158.5,40.8z"/>
	<path class="st4" d="M161.5,25.1c0,0-0.1,0-0.1,0h-0.1l0,0v0.1v0c0.1,0,0.1,0,0.2,0l0,0l0.1,0L161.5,25.1
		C161.5,25.2,161.5,25.2,161.5,25.1z"/>
	<path class="st4" d="M160.4,30.8L160.4,30.8c0-0.1-0.1-0.1-0.1-0.2h-0.1l0,0l-0.1,0.1l0,0l0,0l0,0v0.1c0,0,0,0.1,0,0.1l0,0l0,0
		c0,0,0,0.1,0,0.1c0,0,0,0.1,0.1,0.1h0.1c0,0,0.1,0,0.1,0l0,0l0,0v0c0,0,0,0,0-0.1l0,0L160.4,30.8L160.4,30.8
		C160.4,30.8,160.4,30.8,160.4,30.8L160.4,30.8z"/>
	<path class="st4" d="M154.7,37.1L154.7,37.1c0,0.1,0,0.1,0.1,0.1l0,0c0,0,0.1,0,0.1,0l0,0l0,0v0l0,0c0,0,0-0.1,0-0.1l0,0
		C154.9,37,154.8,37,154.7,37.1L154.7,37.1L154.7,37.1z"/>
	<path class="st4" d="M167.8,37.1L167.8,37.1c0,0.1,0,0.2,0.1,0.2h0.1h0.1c0,0,0-0.1,0-0.1c0-0.1,0-0.2,0-0.2c0,0,0,0-0.1,0
		C168,37,167.9,37,167.8,37.1L167.8,37.1z"/>
	<path class="st4" d="M151.4,37.7L151.4,37.7L151.4,37.7v0.1c0,0.1,0.1,0.1,0.2,0.1l0,0l0,0v-0.1c0,0,0,0,0-0.1c0,0,0-0.1,0-0.1
		L151.4,37.7L151.4,37.7C151.4,37.6,151.4,37.6,151.4,37.7C151.3,37.6,151.3,37.7,151.4,37.7z"/>
	<path class="st4" d="M164.3,38.2L164.3,38.2L164.3,38.2L164.3,38.2c0,0.1,0.1,0.2,0.2,0.1h0.1v-0.1l0,0c0,0,0-0.1,0-0.1
		c0,0,0,0,0-0.1l0,0h-0.1C164.4,38.2,164.3,38.2,164.3,38.2z"/>
	<path class="st4" d="M166,38.6C166,38.6,166,38.6,166,38.6C165.9,38.6,165.9,38.6,166,38.6c-0.1,0.1-0.1,0.1-0.1,0.2l0,0l0,0l0,0
		l0,0c0,0,0.1,0.1,0.1,0.1c0.1,0,0.1,0,0.1-0.1c0,0,0.1-0.1,0.1-0.2c0-0.1-0.1-0.2-0.2-0.2H166L166,38.6z"/>
	<path class="st4" d="M160.8,38.4L160.8,38.4L160.8,38.4L160.8,38.4L160.8,38.4L160.8,38.4L160.8,38.4L160.8,38.4
		C160.8,38.4,160.8,38.4,160.8,38.4v0.1l0,0l0,0c0,0,0.1,0,0.1,0c0,0,0.1,0,0.1-0.1l0,0c0-0.1,0-0.1-0.1-0.1
		C160.9,38.3,160.8,38.3,160.8,38.4z"/>
	<path class="st4" d="M156.5,34.2L156.5,34.2C156.5,34.2,156.5,34.2,156.5,34.2L156.5,34.2L156.5,34.2c0-0.1,0-0.2-0.1-0.2h-0.1l0,0
		c0,0,0,0-0.1,0l0,0h-0.1v0.1h0.1h-0.1v0.1v0.1c0,0,0,0.1,0.1,0.1h0.1c0,0,0.1,0,0.1,0h0.1h0.1c0.1,0,0.1-0.1,0.1-0.1
		C156.7,34.2,156.6,34.2,156.5,34.2C156.5,34.2,156.5,34.2,156.5,34.2z"/>
	<path class="st4" d="M155.6,38.8C155.6,38.8,155.6,38.7,155.6,38.8L155.6,38.8L155.6,38.8L155.6,38.8c-0.1-0.1-0.2-0.1-0.2,0v0l0,0
		l0,0c0,0,0,0,0.1,0l0,0L155.6,38.8C155.5,38.8,155.5,38.8,155.6,38.8z"/>
	<path class="st4" d="M160.3,33.2L160.3,33.2C160.2,33.3,160.2,33.3,160.3,33.2L160.3,33.2L160.3,33.2L160.3,33.2L160.3,33.2
		c-0.1,0.1-0.1,0.1-0.1,0.2l0,0v0l0,0c0.1,0.1,0.3,0,0.4-0.1v-0.1l0,0l0,0l0,0l0,0l-0.1-0.1l-0.1,0
		C160.4,33.2,160.4,33.2,160.3,33.2L160.3,33.2z"/>
	<path class="st4" d="M147.8,33.8L147.8,33.8c-0.1,0-0.1,0.1-0.1,0.1V34l0,0l0,0l0,0l0,0l0,0h0.1l0,0c0,0.1,0.1,0.1,0.2,0l0,0
		c0.1,0,0.1-0.1,0.1-0.2v-0.1v-0.1l0,0H148H148h-0.1L147.8,33.8z"/>
	<path class="st4" d="M170.7,34L170.7,34C170.7,34,170.7,34.1,170.7,34c0,0.1,0,0.2,0,0.2c0,0,0.1,0,0.1,0h0.1l0,0v-0.1v-0.1V34l0,0
		L170.7,34L170.7,34L170.7,34z"/>
	<path class="st4" d="M164.5,34.1L164.5,34.1L164.5,34.1L164.5,34.1L164.5,34.1c0.1,0.1,0.2,0.1,0.2,0.1l0,0c0,0,0.1-0.1,0.1-0.1
		c0,0,0-0.1,0-0.1l0,0l0,0h-0.1C164.6,33.9,164.5,34,164.5,34.1z"/>
	<path class="st4" d="M166,32.1L166,32.1L166,32.1L166,32.1c0.1,0.1,0.2,0.1,0.2,0.1l0,0l0,0c0,0,0.1-0.1,0.1-0.1l0,0v0l0,0
		c0,0-0.1-0.1-0.1-0.1l0,0C166.1,31.9,166,32,166,32.1z"/>
	<path class="st4" d="M161.6,33.3L161.6,33.3L161.6,33.3C161.6,33.3,161.6,33.3,161.6,33.3v0.1l0,0l0,0l0,0c0.1,0,0.1,0,0.2,0
		c0,0,0.1-0.1,0.1-0.1v-0.1l0,0c0,0-0.1-0.1-0.1-0.1C161.6,33.1,161.6,33.2,161.6,33.3L161.6,33.3z"/>
	<path class="st4" d="M163.1,36.5L163.1,36.5L163.1,36.5L163.1,36.5c0,0.1,0,0.1,0.1,0.2l0,0c0.1,0,0.2,0,0.2-0.1v-0.1l0,0
		c0-0.1-0.1-0.1-0.2-0.1L163.1,36.5z"/>
	<path class="st4" d="M158.4,35.1L158.4,35.1C158.4,35.1,158.4,35.1,158.4,35.1L158.4,35.1L158.4,35.1L158.4,35.1L158.4,35.1
		L158.4,35.1L158.4,35.1L158.4,35.1c0.2,0.1,0.2,0,0.2,0l0,0c0,0,0,0,0-0.1l0,0v-0.1h-0.1c0,0-0.1,0-0.1,0L158.4,35.1z"/>
	<path class="st4" d="M154.4,35.3c0,0-0.1,0-0.1,0c0,0-0.1,0-0.1,0.1v0.1l0,0l0,0l0,0c0,0,0.1,0.1,0.1,0.1c0,0,0.1,0,0.1-0.1
		L154.4,35.3L154.4,35.3L154.4,35.3z"/>
	<path class="st4" d="M151.8,41.8L151.8,41.8V42v0.1h0.1c0,0,0.1,0,0.1,0l0,0l0,0l0,0l0,0c0,0,0,0,0-0.1l0,0l0,0v0h-0.1h-0.1
		L151.8,41.8z"/>
	<path class="st4" d="M164.8,41.1c0,0-0.1,0.1-0.1,0.1l0,0l0,0l0,0c0,0,0.1,0.1,0.1,0.1h0.1h0.1v-0.1l0,0
		C164.9,41,164.8,41,164.8,41.1L164.8,41.1L164.8,41.1z"/>
	<path class="st4" d="M155.5,17.4L155.5,17.4L155.5,17.4L155.5,17.4L155.5,17.4c0,0-0.1,0-0.1,0c0,0,0,0.1,0,0.1l0,0l0,0l0,0l0,0
		c0,0,0.1,0,0.1,0C155.5,17.5,155.5,17.4,155.5,17.4z"/>
	<path class="st4" d="M157.9,22.4L157.9,22.4v0.1l0,0c0,0,0,0,0.1,0h0.1v0v0C158,22.4,158,22.3,157.9,22.4
		C157.9,22.3,157.9,22.3,157.9,22.4L157.9,22.4L157.9,22.4z"/>
	<path class="st4" d="M155.6,22.7c0,0,0,0.1,0,0.1c0,0.1,0.1,0.2,0.1,0.2c0,0,0,0,0,0l0,0c0.1,0,0.1,0,0.1-0.1v0c0,0,0,0,0-0.1v0
		l-0.1-0.1h-0.1L155.6,22.7L155.6,22.7z"/>
	<path class="st4" d="M161.1,21.6L161.1,21.6L161.1,21.6c0,0.1,0,0.2,0.1,0.2c0.1,0,0.1,0,0.2,0l0,0l0,0v-0.1c0,0,0-0.1,0-0.1l0,0
		l0,0l0,0C161.3,21.6,161.2,21.6,161.1,21.6L161.1,21.6z"/>
	<path class="st4" d="M159,21.5L159,21.5L159,21.5L159,21.5L159,21.5h0.1l0,0l0,0l0,0c0,0,0-0.1,0-0.1c0-0.1,0-0.1-0.1-0.1l0,0
		c0,0-0.1,0-0.1,0C158.9,21.4,158.9,21.5,159,21.5z"/>
	<path class="st4" d="M169.3,21.8L169.3,21.8v0.1c0,0,0.1,0,0.1,0h0.1h0.1l0,0h-0.1h0.1v-0.1v-0.1h-0.1
		C169.3,21.7,169.3,21.8,169.3,21.8z"/>
	<path class="st4" d="M165.9,24L165.9,24L165.9,24L165.9,24c0.1,0,0.1,0,0.2,0c0,0,0-0.1,0.1-0.1l0,0l0,0l0,0h-0.1
		C166,23.9,165.9,23.9,165.9,24z"/>
	<path class="st4" d="M152,23.5L152,23.5L152,23.5L152,23.5L152,23.5c0,0.1,0.1,0.2,0.2,0.2l0,0l0,0l0,0l0,0c0,0,0-0.1,0-0.1
		C152.2,23.6,152.1,23.5,152,23.5L152,23.5L152,23.5z"/>
	<path class="st4" d="M161.8,22.7L161.8,22.7L161.8,22.7L161.8,22.7v0.1l0,0h0.1c0.1,0,0.1-0.1,0.1-0.1l0,0v0c0-0.1-0.1-0.1-0.2-0.1
		L161.8,22.7z"/>
	<path class="st4" d="M168.9,31c0,0,0,0.1,0,0.1l0,0l0,0c0.1,0,0.1,0,0.2-0.2l0,0l0,0l0,0l0,0C169,30.9,169,30.9,168.9,31
		C168.9,31,168.9,31,168.9,31z"/>
	<path class="st4" d="M152.4,21.4C152.4,21.5,152.4,21.5,152.4,21.4L152.4,21.4L152.4,21.4L152.4,21.4l0.1,0.1l0,0v-0.1v-0.1l0,0
		l0,0l0,0C152.5,21.3,152.4,21.3,152.4,21.4C152.4,21.4,152.4,21.4,152.4,21.4z"/>
	<path class="st4" d="M155,19.8L155,19.8L155,19.8c0,0.1,0.1,0.1,0.1,0.1l0,0l0,0l0,0c0,0,0,0,0-0.1C155.1,19.8,155.1,19.8,155,19.8
		C155,19.8,155,19.8,155,19.8C155,19.8,155,19.8,155,19.8z"/>
	<path class="st4" d="M158.8,17.3L158.8,17.3h-0.2l0,0l0,0v0.1v0.1c0.1,0.1,0.2,0.1,0.2,0c0,0,0,0,0,0v-0.1L158.8,17.3z"/>
	<path class="st4" d="M167.2,20L167.2,20c-0.1,0-0.1,0.1-0.1,0.1l0,0v0.1c0,0.1,0,0.1,0.1,0.1c0,0,0.1,0.1,0.2,0h0.1l0,0
		c0,0,0.1-0.1,0.1-0.1c0,0,0,0,0,0l0,0l0,0c0-0.1-0.1-0.1-0.1-0.1L167.2,20L167.2,20z"/>
	<path class="st4" d="M165.7,16.9C165.7,16.9,165.6,17,165.7,16.9c-0.1,0.1-0.1,0.2-0.1,0.2c0,0.1,0,0.1,0.1,0.2l0,0l0,0
		c0.1,0,0.1,0,0.2,0c0,0,0.1-0.1,0.1-0.2V17l0,0l0,0l0,0l0,0c0-0.1-0.1-0.2-0.2-0.2C165.8,16.8,165.7,16.9,165.7,16.9z"/>
	<path class="st4" d="M166.8,25.8c0,0,0-0.1,0-0.1l0,0h-0.1c-0.2,0-0.2,0.1-0.2,0.2l0,0v0l0,0h0.1L166.8,25.8L166.8,25.8L166.8,25.8
		L166.8,25.8z"/>
	<path class="st4" d="M164.8,20.9L164.8,20.9L164.8,20.9c0,0.1,0,0.2,0,0.2c0,0,0,0,0.1,0h0.1l0,0l0,0c0.1,0,0.1,0,0.1-0.1l0,0
		c0-0.1,0-0.1-0.1-0.2C164.9,20.8,164.8,20.8,164.8,20.9L164.8,20.9z"/>
	<path class="st4" d="M160.9,19.1c-0.1,0-0.1,0.1-0.1,0.2c0,0,0,0.1,0.1,0.1l0,0h0.1h0.1h0.1l0,0l0,0l0,0v0
		C161.1,19.2,161,19.1,160.9,19.1L160.9,19.1L160.9,19.1z"/>
	<path class="st4" d="M149.9,20.2L149.9,20.2C149.9,20.1,149.9,20.1,149.9,20.2L149.9,20.2L149.9,20.2c0-0.1,0-0.2-0.1-0.2h-0.1
		h-0.1h-0.1v0v0.1c0,0.1,0.1,0.2,0.2,0.2c0,0,0,0,0,0C149.9,20.2,149.9,20.2,149.9,20.2z"/>
	<path class="st4" d="M163.3,20L163.3,20l0.2,0.1l0.1-0.1c0-0.1-0.1-0.1-0.1-0.1c0,0,0,0,0,0c0,0-0.1,0-0.1,0
		C163.3,19.9,163.3,20,163.3,20z"/>
	<path class="st4" d="M164.8,28.5L164.8,28.5L164.8,28.5c-0.1,0-0.1,0-0.2,0c0,0-0.1,0-0.1,0l0,0v0c0,0,0,0.1,0,0.1l0,0l0,0l0,0l0,0
		l0,0h0.1c0.1,0,0.1,0,0.2,0C164.8,28.6,164.8,28.6,164.8,28.5C164.8,28.5,164.8,28.5,164.8,28.5z"/>
	<path class="st4" d="M158.5,28.1L158.5,28.1L158.5,28.1L158.5,28.1L158.5,28.1L158.5,28.1L158.5,28.1L158.5,28.1L158.5,28.1v0.1
		c0,0,0,0,0.1,0l0,0h0.1c0,0,0.1,0,0.1-0.1l0,0c0,0,0-0.1,0.1-0.1c0,0,0-0.1-0.1-0.1l0,0l0,0l0,0l0,0c0,0-0.1,0-0.1,0L158.5,28.1z"
		/>
	<path class="st4" d="M162.4,28.1L162.4,28.1L162.4,28.1L162.4,28.1c0,0.1,0,0.1,0,0.2c0,0,0,0.1,0,0.1l0,0v0l0,0
		c0,0,0.1,0.1,0.1,0.1h0.2l0,0v-0.1c0-0.1,0-0.1,0.1-0.2l0,0l0,0l0,0l0,0l0,0l0,0l0,0l0,0h-0.1C162.7,28.1,162.6,28.1,162.4,28.1
		C162.5,28.1,162.5,28.1,162.4,28.1z"/>
	<path class="st4" d="M168.7,28.4L168.7,28.4C168.7,28.4,168.7,28.4,168.7,28.4c0,0.1,0.1,0.2,0.1,0.2c0,0,0,0,0,0
		c0.1,0,0.1-0.1,0.1-0.1c0,0,0,0,0,0l0,0l0,0l0,0h-0.1h-0.1L168.7,28.4z"/>
	<path class="st4" d="M154.7,29.1L154.7,29.1L154.7,29.1v0.1v0l0.1,0c0,0,0.1,0,0.1,0l0,0c0,0,0.1,0,0.1-0.1l0,0l0,0
		c0,0,0-0.1,0-0.1c0,0,0,0,0,0l0,0v0l0,0l0,0C154.9,29,154.9,29,154.7,29.1L154.7,29.1z"/>
	<path class="st4" d="M157.3,27L157.3,27v0.1c0,0,0,0,0,0.1c0,0.1,0,0.2,0.1,0.2l0,0h0.1c0.1,0,0.2-0.2,0.2-0.3V27l0,0h-0.1
		c0,0-0.1,0-0.1,0l0,0C157.5,26.9,157.4,26.9,157.3,27z"/>
	<path class="st4" d="M151,29.3L151,29.3c0-0.1,0-0.1,0-0.1l0,0l0,0h-0.1h-0.1h-0.1l0,0v0v0.1l0,0l0,0
		C150.9,29.4,150.9,29.4,151,29.3L151,29.3L151,29.3L151,29.3z"/>
	<path class="st4" d="M158.4,29.9L158.4,29.9L158.4,29.9C158.4,29.9,158.4,29.9,158.4,29.9c-0.1,0.1-0.1,0.1-0.1,0.2c0,0,0,0,0,0.1
		l0,0l0,0l0,0l0,0c0,0,0.1,0,0.1,0h0.1v0l0,0c0,0,0-0.1,0-0.1l0,0l0,0l0,0L158.4,29.9L158.4,29.9L158.4,29.9z"/>
	<path class="st4" d="M168.8,25.5C168.8,25.5,168.8,25.5,168.8,25.5C168.7,25.5,168.7,25.6,168.8,25.5c-0.1,0.1-0.1,0.2-0.1,0.2
		c0,0,0,0,0,0.1l0,0l0,0c0,0,0.1,0.1,0.2,0.1l0,0l0,0l0,0c0,0,0-0.1,0-0.1C168.9,25.6,168.9,25.5,168.8,25.5l-0.1,0L168.8,25.5z"/>
	<path class="st4" d="M151.4,25.3C151.4,25.3,151.4,25.2,151.4,25.3l0.1-0.1l0,0c0,0,0-0.1-0.1-0.1c0,0-0.1,0-0.1,0
		c-0.1,0-0.2,0.1-0.2,0.2c0,0,0,0.1,0,0.1l0,0l0,0l0,0C151.2,25.4,151.3,25.4,151.4,25.3C151.4,25.3,151.4,25.3,151.4,25.3z"/>
	<path class="st4" d="M146.9,26.5L146.9,26.5L146.9,26.5c0,0,0,0.1,0,0.1c0,0.1,0,0.1,0.1,0.2c0.1,0,0.1,0,0.2,0l0,0l0,0l0,0l0,0
		v-0.1v-0.1C147.1,26.5,147,26.4,146.9,26.5L146.9,26.5z"/>
	<path class="st4" d="M149.6,25.2L149.6,25.2L149.6,25.2L149.6,25.2L149.6,25.2c0-0.1-0.1-0.2-0.1-0.2c-0.1,0-0.1,0-0.1,0l0,0l0,0
		v0.1c0,0.1,0,0.1,0.1,0.2L149.6,25.2C149.6,25.2,149.6,25.2,149.6,25.2z"/>
	<path class="st4" d="M163.6,30.5L163.6,30.5L163.6,30.5C163.6,30.5,163.6,30.6,163.6,30.5v0.1l0,0c0,0,0.1,0.1,0.1,0.1
		c0.1,0,0.1-0.1,0.2-0.1v0v0l0,0c0,0-0.1,0-0.1,0L163.6,30.5z"/>
	<path class="st4" d="M158.8,24.9L158.8,24.9L158.8,24.9c0,0,0,0.1,0.1,0.1c0.1,0,0.1,0,0.2,0l0,0l0,0l0,0c0,0,0-0.1-0.1-0.1
		S158.9,24.9,158.8,24.9L158.8,24.9z"/>
	<path class="st4" d="M160.1,27.1L160.1,27.1L160,27l0,0v0v0.1l0,0l0,0c0.1,0,0.1,0,0.2,0c0.1,0,0.1-0.1,0.1-0.1c0,0,0,0,0,0l0,0v0
		v0c-0.1,0-0.1,0-0.2,0L160.1,27.1z"/>
	<path class="st4" d="M159.5,24.5L159.5,24.5c0,0,0,0.1,0,0.1l0,0l0,0l0,0l0,0c0.1,0,0.1,0,0.2,0l0,0l0,0l0,0v-0.1c0,0,0,0,0,0l0,0
		c0-0.1,0-0.1-0.1-0.2l0,0l0,0h-0.1C159.5,24.4,159.5,24.4,159.5,24.5z"/>
	<path class="st4" d="M163.5,26.1c0,0.1,0,0.1,0.1,0.1c0.1,0,0.1,0,0.2-0.1V26l0,0h-0.1C163.6,26,163.5,26.1,163.5,26.1z"/>
	<path class="st4" d="M162.1,25L162.1,25c0,0.1,0,0.1,0,0.2c0,0.1,0,0.1,0.1,0.1l0,0c0,0,0.1,0,0.1,0l0,0l0,0c0,0,0-0.1,0-0.1l0,0
		v-0.1l0,0l0,0h-0.1h-0.1L162.1,25z"/>
	<path class="st4" d="M153.5,25.9L153.5,25.9c0-0.1,0-0.1,0-0.1c0,0,0,0,0-0.1l0,0l0,0h-0.1c0,0-0.1,0-0.1,0c0,0,0,0-0.1,0
		c-0.1,0-0.1,0.1-0.1,0.1l0,0c0,0,0,0,0,0c0,0.1,0,0.1,0.1,0.1h0.1C153.4,26,153.4,26,153.5,25.9L153.5,25.9z"/>
	<path class="st4" d="M162,25.5L162,25.5L162,25.5L162,25.5c0,0.1,0,0.1,0,0.1l0,0l0,0h0.1c0,0,0.1,0,0.1,0l0,0l0,0v-0.1
		c0,0,0-0.1,0-0.1c0-0.1,0-0.1-0.1-0.1H162C162,25.4,162,25.5,162,25.5z"/>
</g>
</svg>
