<svg id="Layer_1" data-name="Layer 1" xmlns="http://www.w3.org/2000/svg" viewBox="0 0 311.45 512.17"><defs><style>.cls-1{fill:#fff;}.cls-2{fill:#666766;}.cls-3{fill:#231f20;}.cls-4{fill:#df8026;}.cls-5{fill:#efd6ac;}.cls-6{fill:#cca26b;}.cls-7{opacity:0.4;}</style></defs><title>makeyouown</title><path class="cls-1" d="M216.4,147.46a94.48,94.48,0,0,0,39.91,13.93l-2-14.73a90.27,90.27,0,0,1-21.84,3.5,94.38,94.38,0,0,1-11.15-.31c-1.49-.13-3-.3-4.47-.53-.92-.13-1.84-.29-2.75-.46q-3.47-1.23,1.12,3.08l-1,3.78L212.87,157l-3.31-12.53c-4.22,3.71-8.93,1.6-13.73,3.33-2.23.81-3.57,2.63-5.51,3.68-2.5,1.35-6,1.79-8.78,2.35-11.6,2.37-23.58,1.49-35.2-.25-12.09-1.82-24-3.49-36.2-3.64-12.84-.16-24.51-2.8-36.77-6.44l-4,14.47c10.33,2.3,18.88-2.55,26.62-9l-9.09,1.17c11,6.6,23.45,8.64,36,9.84,12,1.14,24.76,1.31,36,6.23V153.28c-17.44,8.67-38.15-1-55.8-4l-2,14.73c21.06,1,41.83,7,63,5.64,10.69-.69,21.11-3.29,31.51-5.68L228,156.5c9.41-2.16,5.43-16.63-4-14.46l-30.4,7c-10.32,2.38-20.68,5.23-31.3,5.7-20.55.9-40.68-4.77-61.13-5.75-8.3-.4-10.41,13.27-2,14.73,22.6,3.92,45.18,13.54,67.36,2.52,4.72-2.34,5.09-10.72,0-12.95-11.89-5.2-24.35-6.63-37.17-7.72-12-1-24.31-2-34.88-8.35-3.07-1.84-6.51-1-9.09,1.17-3.23,2.68-7.57,6.1-12,5.1-9.4-2.1-13.29,11.71-4,14.47,13.53,4,26.61,6.79,40.76,7,13.78.17,27,2.57,40.63,4.27,13.34,1.67,27,1.46,40.06-2.19a32,32,0,0,0,7.79-2.89,30.13,30.13,0,0,0,3.52-2.94c-1.55,1.29-2.07,1,.47,1a26.31,26.31,0,0,0,17.56-7.07c4-3.53,2.16-11.58-3.31-12.53-7-1.21-15,.29-16.5,8.42-1.38,7.51,5.2,11.6,11.6,12.71a104.94,104.94,0,0,0,46.35-2.52c8.69-2.45,6-13.77-2-14.74A77.61,77.61,0,0,1,224,134.51c-8.17-5.2-15.7,7.78-7.57,13Z"/><path class="cls-1" d="M259.51,155.51a77.84,77.84,0,0,1,12.4-.53c3.28.12,3.12-4.66,0-5a32.59,32.59,0,0,0-12,.94c-2.83.76-2.06,4.72.67,4.92a7.56,7.56,0,0,0,6.42-2.7,2.53,2.53,0,0,0-1.77-4.26l-8-1c-3.18-.41-3.15,4.59,0,5l8,1-1.77-4.27a3,3,0,0,1-2.88,1.23l.66,4.91a28.66,28.66,0,0,1,10.71-.77v-5a77.84,77.84,0,0,0-12.4.53c-3.15.38-3.19,5.38,0,5Z"/><path class="cls-1" d="M66.19,145.43a57.47,57.47,0,0,1-17.92,1.42c-2.92-.21-3.25,4.09-.67,4.91a144.38,144.38,0,0,0,20,4.86c2.62.44,4.59-3.11,1.93-4.57l-8.07-4.41-.59,4.57L68.9,151c3.17-.5,1.83-5.31-1.33-4.82l-8,1.26c-2.17.34-2.37,3.6-.6,4.57L67,156.37l1.93-4.57a145.82,145.82,0,0,1-20-4.86l-.66,4.91a62.33,62.33,0,0,0,19.25-1.59c3.13-.75,1.8-5.58-1.33-4.83Z"/><path class="cls-1" d="M178.53,88.64c6.81-1,13.75,1.45,19.67,4.61,4.89,2.62,13.83,7,16.08,12.54,1.92,4.69-5.82,6.26-9.08,7.21-7.91,2.31-15.87,4.43-23.8,6.65-6.81,1.9-7.49,12.95,0,14.46a39.1,39.1,0,0,0,28.07-4.45c6-3.49,3.93-14.88-3.78-14-20.78,2.43-41.78,4.46-62.71,3a137.56,137.56,0,0,1-29.31-5.21c-4.4-1.3-9.56-2.61-13.46-5.12-3.18-2,1.23-4.66,3.43-6.59,4.69-4.14,1.11-13.34-5.31-12.81-7.59.64-13.79,5.08-15.65,12.71l9.23-5.24,2.76,2.39v4c-.66.64-.61.7.14.18.46-.27.93-.53,1.4-.78q2-1.08,4-2.14c2.65-1.42,5.31-2.83,8-4.15a88.89,88.89,0,0,1,16.59-6.36c12.16-3.18,25-2.77,37.42-2.42,10.39.29,22.79.7,31.21,7.68a13.89,13.89,0,0,1,4.08,5c.25.59.27,2.2.69,2.61.74.74,2.77-.5,1.58-1.59s-4.66-2-6.26-3.1a22.46,22.46,0,0,1-2.57-2.08c-.5-.48-2-2.82-2-1.7l-1,3.79-1.21,1.36-3.79,1c1.81-.18,2.85,1.21,2.6,3.05-.38,2.69-3.47,4.34-5.81,4.86-6.79,1.5-14.38-2.58-18.86-7.42-.56-.62-1.05-1.38-1.63-2-.35-.36-.72-2-.65-.49s-.13-.1.84,1.24a10.47,10.47,0,0,1,2,8.11c-.95,7-6.23,7.73-11.73,4.32a19.75,19.75,0,0,1-6.53-6.64,17.42,17.42,0,0,1-1.67-3.55c-.25-.77-.36-3.44-1-3,3.75-2.62,6.62,6,6.45,8.17-.34,4.45-4.82,7.32-9.13,6.7-5.94-.85-9.45-8.15-10.88-13.07-.12-.4,1,.14.63-.86,0,.06-1.56.17-1.55-.12,0,.78,1.09,2.46,1.27,3.39a17.15,17.15,0,0,1,.25,1.89c.08,1.3.83-.2-.16,0a27.19,27.19,0,0,1-4.71.57,19.87,19.87,0,0,1-9.19-2,11.63,11.63,0,0,1-3.91-3,11.16,11.16,0,0,0-.92-1.25,1.19,1.19,0,0,1-.18-.55c-.1-1-.48-.3-1.13,2.2l-3.78,1c-.9,0-.75-.86-.84-.81s-1.21,1.35-2,1.63c-.33.12-.89,0-1.18.2l-.46,0c-1-.37-1.14-.29-.56.23.26-.37,0,2.59-.17,2.39a28.2,28.2,0,0,0,2.91-.94c2.62-.52,3.5.15,4.86,2.37,2.06,3.35,4.11,6.38,7.26,8.8,6.09,4.68,13.71,6.21,21.12,7.43a174.29,174.29,0,0,0,24.22,2.51,102.88,102.88,0,0,0,24.75-2.29c7.09-1.58,17.2-4.07,21.95-10,5.25-6.5,2-15.7-4.93-19.45-3.63-1.95-7.79-2.28-11.79-2.8q-7.24-.94-14.52-1.62a387.07,387.07,0,0,0-63.24-.55c-9.57.69-9.64,15.7,0,15a387.61,387.61,0,0,1,62.27.46c4.85.43,9.7.94,14.52,1.58.86.12,4.89,1.31,5.57,1,0,0,.89-3.32.85-3.34-.2-.09-3.85,1.87-4.22,2a71.89,71.89,0,0,1-25.23,4.92,138.58,138.58,0,0,1-27-2.09,59.16,59.16,0,0,1-11.26-2.59c-4-1.53-5.53-3.75-7.68-7.22-4.67-7.54-12-10.62-20.75-8.82-8.3,1.72-16.39,8.16-13.58,17.57,5.66,19,36.89,9.18,32.93-9.55-1.69-8-10.7-14.24-18.5-9.7-7.37,4.3-6.09,14.51-1.74,20.39,4.86,6.57,12.35,10.27,20.34,11.36,7.47,1,16.9.47,22.06-5.79s3.34-16.56-.88-22.78A14,14,0,0,0,117,89c-12.86,12.81,2,35.7,16.86,39A22.91,22.91,0,0,0,161.37,101c-1.48-7.23-6.65-13.83-13.67-16.34-7.72-2.76-16.82-.44-20.39,7.42-7.15,15.75,10.65,34.3,25.33,36.59,18.87,2.95,29.5-19.88,21-35.13-4.35-7.81-14.24-12.24-22.52-7.7-8.09,4.43-9.23,14.34-4.14,21.44,9.77,13.59,31.75,22.3,46.06,10.39,6.41-5.33,9.38-14.28,6-22.12-3.13-7.2-12.14-13.2-19.95-9.43-10,4.78-3.52,16,2.32,21.1,5.69,4.93,15.43,10.94,23.29,8.4,8.71-2.81,9.78-13.37,6.91-20.75-3.13-8-10.11-13.81-17.85-17.23-8.33-3.68-17.35-4.92-26.39-5.39a228,228,0,0,0-29.11,0,92.81,92.81,0,0,0-28.51,6.5C101.63,82.15,92.65,86,85.5,91.12c-3.75,2.71-6.25,6.9-5.3,11.64.8,3.93,3.61,7.39,7.72,8.09,3.9.66,8.19-1,9.23-5.24.17-.72.26-1.62,1.18-1.7L93,91.11c-4.47,3.94-8.83,9-9.2,15.19-.36,6,2.88,11,7.7,14.26s11,5.1,16.46,6.82a133,133,0,0,0,18.91,4.39c26.18,4.17,52.61,2,78.79-1.09l-3.79-14a23.06,23.06,0,0,1-16.52,2.94v14.46c10.56-2.94,22.11-5,32.06-9.65,8.9-4.19,14.88-13.23,11.21-23.13-3.49-9.42-13.74-16-22.14-20.62-10-5.55-20.55-8.16-32-6.54-4,.57-6.24,5.69-5.24,9.23,1.2,4.31,5.18,5.81,9.22,5.24Z"/><path class="cls-2" d="M91.54,121.47l-3.11-4.29-7.85,6.06a58.28,58.28,0,0,0,11.76,11l3.85-9.14a13.64,13.64,0,0,1-4.9-2.35c-5-3.59-9.24,3.79-6.06,7.85,4.37,5.59,10,11,17.69,10.22,3.29-.34,6.86-4.17,4.32-7.53l-4.58-6-6.84,6.84a129,129,0,0,0,22.46,7.49l1.33-9.82a69.48,69.48,0,0,1-14.4-.94c-6.23-1.1-9,8-2.66,9.64A330.35,330.35,0,0,0,184.86,151c5.44,0,7-8.91,1.33-9.82L177,139.67l-1.33,9.82a78.18,78.18,0,0,0,57.93-22.2c4.62-4.5-2.46-11.56-7.07-7.07a68.17,68.17,0,0,1-50.86,19.27c-5.52-.24-7,8.93-1.33,9.82l9.18,1.46,1.33-9.82a318.92,318.92,0,0,1-79.65-10.12l-2.66,9.64a82,82,0,0,0,17.06,1.3c5.46-.18,7-8.51,1.33-9.82a115.18,115.18,0,0,1-20.07-6.49c-3.93-1.7-10.25,2.33-6.84,6.84l4.58,6.06,4.31-7.52c-4.82.49-7.93-3.85-10.62-7.29l-6.06,7.86a21.64,21.64,0,0,0,7.3,3.35c5.74,1.5,8.31-5.93,3.85-9.14a49.28,49.28,0,0,1-9.74-9.45c-3.5-4.4-11.18,1.46-7.85,6.06l3.11,4.29c3.74,5.16,12.42.18,8.63-5Z"/><path class="cls-3" d="M78.41,112.77a21,21,0,0,0,2.5,19.87c1.86,2.6,6.19.11,4.32-2.52a16.35,16.35,0,0,1-2-16c1.17-3-3.67-4.3-4.83-1.33Z"/><path class="cls-3" d="M227.2,117.44c4.3,5.59,3.39,14-2.62,18-2.67,1.78-.16,6.12,2.52,4.32,8.07-5.4,10.46-17,4.42-24.88-1.94-2.52-6.28,0-4.32,2.52Z"/><path class="cls-3" d="M254.79,161.92c6.82,6.14,13.18,11.06,16,20.37,3.22,10.66,3.33,22.77,3.79,33.82,1.39,32.76,3.29,65.63,3.39,98.42.08,25.34-.79,51-2.5,76.31-.8,11.71-1.73,23.8-5.15,35.09-1.07,3.55-2.38,7.17-5.12,9.77-3.9,3.71-9,6.49-13.56,9.21a140.65,140.65,0,0,1-15.9,8.34c-6.55,2.8-14.05,3.44-21,4.7-15.46,2.81-31,5.24-46.73,6.09A327.13,327.13,0,0,1,123.48,463c-8.11-.67-16.7-.83-24.64-2.61a111.91,111.91,0,0,1-15.42-5,185.28,185.28,0,0,1-18-7.91c-3.52-1.8-7.48-3.62-9.88-6.89-5.81-7.91-7.77-19.36-9.78-28.72-4.62-21.57-7.06-43.64-9.07-65.59-3-33.25-2.86-66.59-3.45-99.94C33,232,33.13,217.54,35.35,203.4c2.18-13.83,7.15-29.16,19.56-37.24,4-2.57,8.47-3.35,13-4.45,3.12-.76,1.8-5.59-1.33-4.82-4.6,1.12-9.2,2-13.33,4.44-6.27,3.71-11,9.94-14.78,16-7.33,11.94-8.76,27.32-9.69,41-1.09,16.12-.42,32.27-.22,48.41.21,16.82.28,33.66,1.08,50.47a706.65,706.65,0,0,0,8,78.15c2,12.18,4.16,24.55,8.23,36.24,3.08,8.86,6.84,14.68,15.18,19.16a161.41,161.41,0,0,0,34.88,14c7.29,1.9,15.09,2.08,22.56,2.76,8.46.76,16.93,1.38,25.42,1.68a277.45,277.45,0,0,0,45.46-2.2c8.37-1.09,16.7-2.45,25-3.94,7.29-1.31,15.19-2,22.1-4.75a121.45,121.45,0,0,0,30.88-17.92c7.05-5.78,8.85-15.78,10.32-24.31,3.94-23,3.71-46.61,4.68-69.86,1.51-36.27-.7-72.38-2.07-108.6-.53-14.09-.67-28.16-2.23-42.18-1.16-10.4-3.28-19.62-9.75-28.14-2.63-3.46-6.75-6-10-8.94-2.38-2.15-5.93,1.38-3.53,3.54Z"/><path class="cls-4" d="M151.52,205.58c-34.28-.93-67.61,2.7-100.31-5.4a10,10,0,0,0-12.38,8.66c-1.1,10.36-1.66,20.76-.3,31,.88,6.72-1.28,15.47-.74,22.22,1.09,13.6,1.33,24.92-.28,38.46C32.93,338.84,44.4,377,55.72,413.81c3.74,12.15,8.3,25.38,19.1,31.84,5.35,3.19,11.62,4.3,17.76,5.2a378.42,378.42,0,0,0,143.67-6.64c8.85-2.15,18-4.85,24.57-11.3,10.09-10,11.07-26.19,8.36-40.22s2.21-32.46,1.25-46.72c-1.61-24-.32-42,.44-66,.48-15.18-2.61-30-2.61-45.19,0-11-2.46-29.13-.37-38.56"/><path class="cls-5" d="M262.66,230.77c-2.7-8.07-9.87-13.73-17.05-18.28-56-35.5-131.9-29.62-188.9,4.21-5.76,3.42-12,8-12.49,14.71-.76,9.8,10.56,15.53,19.92,18.53l41.78,13.38c17.67,5.66,35.86,11.39,54.36,10.08,25.45-1.79,48.61-16.69,74.07-18.24,6.3-.38,12.71.06,18.85-1.38s12.24-5.26,14.15-11.28-2.37-13.82-8.68-13.69"/><path class="cls-6" d="M41.91,238.21c-.13,6.51,4.9,10.43,10.46,12.75,8.67,3.63,18.51,5.17,27.59,7.49,19.78,5.07,39.79,11.57,60.16,13.75,19.35,2.07,37.19-3.15,55.33-9.29,9.11-3.09,18.26-6.19,27.71-8,10-1.94,20.11-1.78,30.17-2.88,6.64-.73,16.41-1.3,16.89-9.93.51-9.21-8.9-12.74-16.22-14.41-3.13-.72-4.47,4.1-1.33,4.82,3.51.8,8,1.58,10.53,4.33,1.86,2,2.67,4.78,1,7-1.44,1.94-3.82,2.13-6.1,2.51-8.25,1.4-16.66,1.37-25,2.14-15,1.38-29,6.27-43.17,11-14.71,4.94-29.51,9.08-45.18,8.11-17-1.06-33.57-6.3-49.94-10.49l-28.08-7.2c-6-1.55-20-3.19-19.86-11.7.06-3.22-4.94-3.22-5,0Z"/><g class="cls-7"><path class="cls-6" d="M232.67,229.39a56.66,56.66,0,0,0-34,9.6c-2.66,1.78-.16,6.11,2.52,4.31a52.12,52.12,0,0,1,31.46-8.91c3.22.12,3.21-4.88,0-5Z"/></g><g class="cls-7"><path class="cls-6" d="M158.19,243.35c-17.21,5.56-35.08,2.35-52.16-2.06-3.12-.8-4.45,4-1.33,4.83,17.91,4.62,36.78,7.88,54.82,2.06,3-1,1.74-5.82-1.33-4.83Z"/></g><g class="cls-7"><path class="cls-6" d="M73.29,235.65a29.57,29.57,0,0,0-5.94-2.73c-1.9-.77-2.43-.81-3.17-2.93-1-2.92.8-4.28,3.19-5.79,5.7-3.58,12.41-5.79,18.87-7.48,3.11-.81,1.8-5.64-1.33-4.82a87.92,87.92,0,0,0-15.17,5.44c-3.88,1.82-8.35,3.92-10.35,8a8.11,8.11,0,0,0,1.14,9.35c2.73,2.87,7.06,3.15,10.23,5.32,2.67,1.82,5.17-2.51,2.53-4.32Z"/></g><path class="cls-3" d="M79.05,110.91C86,121.44,97.33,127,108.91,131A185.67,185.67,0,0,0,141.18,139c22,3.4,45.94,3.79,66.82-4.83a59.63,59.63,0,0,0,26.49-20.73c1.86-2.64-2.47-5.14-4.31-2.53-15.39,21.88-44.65,26.24-69.53,25.1a181.07,181.07,0,0,1-39.71-6.45c-13.73-3.78-29.34-8.64-37.57-21.13-1.76-2.68-6.09-.18-4.32,2.52Z"/><path class="cls-3" d="M79.39,129.86c8,12.16,20.81,15,34.24,17.69a354.75,354.75,0,0,0,41.63,6.31c27.07,2.17,54.81-1.4,76.5-19,2.5-2-1-5.55-3.53-3.54-20.17,16.34-46.3,19.45-71.41,17.63a319.19,319.19,0,0,1-38.06-5.5c-13-2.53-27.13-4.15-35.05-16.14-1.77-2.68-6.1-.17-4.32,2.52Z"/><path class="cls-3" d="M227.22,139.29A256.89,256.89,0,0,0,280,153.1l-.59-4.57c-15.3,7.73-31.8,13.33-48.88,15.3a119.07,119.07,0,0,1-25.32.26c-2.67-.27-6.61-1.91-9.11-.72-1.12.53-1.86,1.9-3,2.56a15.82,15.82,0,0,1-5.57,1.65c-6.75,1-13.92,1.08-20.74,1.62a173.06,173.06,0,0,1-26.16,0c-18-1.28-35.63-5.05-53.17-9-8.17-1.84-16.36-3.57-24.55-5.32-7.4-1.59-15.17-3.73-18.86-10.95l-2.16,3.76c11.09,1,23.26.48,33.73-3.65C80,142.3,89.11,138,85.15,131.83c-1.74-2.69-6.07-.19-4.32,2.53s-12.54,6.74-14.07,7.06a82.4,82.4,0,0,1-24.92,1.28c-2-.19-2.94,2.23-2.16,3.76C45,156.88,57.06,158.82,67.47,160.9c16.27,3.25,32.31,7.49,48.67,10.27,16.08,2.72,32.4,4.26,48.7,3.17,6.76-.46,13.57-.89,20.32-1.48,5.14-.45,10.43-1.45,13.92-5.56l-2.43.64c29.43,4.83,58.85-1.77,85.23-15.09,1.8-.92,1.53-4.25-.6-4.57a256.89,256.89,0,0,1-52.73-13.81c-3-1.15-4.31,3.68-1.33,4.82Z"/><path class="cls-3" d="M83.27,108.71c-7.35-15.92,19.12-27.44,30.27-31.18,15.22-5.09,31.38-6.1,47.32-5.39,15.57.7,32.45,1.82,46.63,8.88A44.33,44.33,0,0,1,223.42,94c3.16,4.28,9.26,15,5.23,20.21-2,2.5,1.56,6.07,3.54,3.53C239,108.94,231.24,95.09,225,88c-9.19-10.37-22.51-15.53-35.85-18-29.21-5.35-63-5.85-90,8.17C87.26,84.4,72,96.07,79,111.23c1.35,2.92,5.66.38,4.31-2.52Z"/></svg>