<svg id="Layer_1" data-name="Layer 1" xmlns="http://www.w3.org/2000/svg" viewBox="0 0 311.45 308.18"><defs><style>.cls-1{fill:#fff;}.cls-2{opacity:0.3;}.cls-3{fill:#4f3c18;}.cls-4{fill:#231f20;}.cls-5{fill:#edcc7c;}</style></defs><title>makeyouown</title><path class="cls-1" d="M97.39,133.6c0-2.58,3.43-3.43,6-3.47,13.41-.22,28.63-2.95,42-3.17,8.13,10.78,10,21.14,17.47,32.37,5,7.51,14.19,18.89,14,27.91-.13,6.28-2.67,13.22.84,18.42l.34-6.64c-.3,6.63,2.08,13.08,2.68,19.7a37.09,37.09,0,0,1-8,26.28l6.41-4.79c-5.41,6-14.08,7.65-22.11,8.72a461.15,461.15,0,0,1-79.14,3.67c-9.65-.39-19.81-1.25-27.79-6.7a7.71,7.71,0,0,1-2.44-2.38,8.09,8.09,0,0,1-.7-4.23,49.12,49.12,0,0,1,4.38-18.69c2.19-4.81,5.25-9.72,4.49-14.95-1.57,2.14.27,5.55-1.3,7.69.18-9.75.41-20.34,4-29.4,2.19-5.53,4.41-11.11,7.71-16.06s7.42-9,11.58-13.08l16.31-16.07a66.87,66.87,0,0,0,8.54-9.58"/><path class="cls-1" d="M107,136.26l-.28.58-3.58,3.59c1.33-1-.77-.34,1.9-.34,1.72,0,3.45-.14,5.16-.25,3.84-.26,7.67-.63,11.5-1,7.89-.8,15.77-1.67,23.7-1.86l-8.63-5c4.84,6.64,7.94,14,11.42,21.38,3.12,6.62,7.13,12.47,11.23,18.5,3,4.46,7.22,10.09,7.45,15.35.16,3.73-1,7.45-1,11.18a24.67,24.67,0,0,0,3.22,12.28c5.09,9,18.15,4.54,18.63-5l.34-6.64h-20c-.08,7.81,2.86,15.25,2.82,23,0,6.77-2.69,12.63-6.76,17.93-6,7.81,5.86,19.51,13.68,13.68l6.41-4.79-12.12-15.7c-3.85,3.94-9.39,4.88-14.66,5.71-6.49,1-13.06,1.63-19.6,2.23-15.09,1.37-30.26,2-45.41,1.86-7-.05-14-.14-21-.71A47.17,47.17,0,0,1,63,240.78c-2.51-.69-4.7-2.41-7.08-3.08q-2.5-1.84,1.15,3.05v-1.46c.42-1.25.17-3,.38-4.32A40.78,40.78,0,0,1,60,225.65c2.78-6.64,6.42-12.5,5.86-20-.33-4.43-2.87-8.41-7.34-9.64-4-1.09-9.47.63-11.29,4.59-1.9,4.14-1.63,7.31-2.14,11.58l1.37-5.05-.54,1.16,18.64,5.05c.29-15.35,2.31-31,12.5-43.25,10.56-12.74,24.59-22.39,34.29-35.89,3.15-4.39.76-11.14-3.59-13.68-5-3-10.52-.82-13.68,3.58-4.86,6.77-11.94,12.44-17.86,18.27-6.36,6.27-13,12.37-18.07,19.75-10.55,15.21-13.25,33.19-13.59,51.22-.19,9.42,14.38,14.29,18.63,5,1.9-4.14,1.63-7.3,2.14-11.57l-1.37,5,.54-1.16-18.64-5c.24,3.2-1.13,5.64-2.45,8.46a68.1,68.1,0,0,0-4.59,12.11c-2,8.07-3.77,18.62,2.47,25.29,10.8,11.53,30.92,11.05,45.34,11.35a462.16,462.16,0,0,0,53.14-2c15.6-1.48,34.76-1.62,46.48-13.62a10,10,0,0,0,.78-13.13c-2.82-3.54-8.85-5.6-12.9-2.58l-6.42,4.79L181.41,250a46.7,46.7,0,0,0,9.33-24.71c.76-9-2.74-17.43-2.65-26.31.12-12.94-19.36-12.8-20,0l-.34,6.64,18.64-5c-2.17-3.83.79-11.42.35-15.88-.66-6.63-3.6-12.77-7.05-18.39-3-4.94-6.65-9.49-9.66-14.45-3.58-5.9-6.09-12.33-9.1-18.53-3.14-6.44-7.37-16-15.49-16.4-6.92-.35-14.15.88-21,1.59s-14,1.1-21,1.58c-6.82.47-14.17,3.24-15.65,10.81-1,5.3,1.5,10.8,7,12.3,4.9,1.35,11.26-1.65,12.3-7Z"/><g class="cls-2"><path class="cls-3" d="M258.38,151.24c8.18-1.88,14.87,4.79,23.05,4.87l-5-18.63c-7.51,4-13.51,12-19.4,18-7.7,7.79,2.61,22.51,12.12,15.7l9-6.43L266,149q-6.87,5.81-13.48,11.89c-5.49,5.06-2.74,15,4.41,16.72,7.41,1.82,15.82-2.21,17.25-10.2,1.56-8.81-6.54-15.23-14.69-11.3L261,156l-2.66-.36a12.64,12.64,0,0,0-3.91.33,10.38,10.38,0,0,0-6.65,5.24l13.68-3.59c-6.93-3.87-8.68-13.23-18.63-10.4-3.2.9-6.29,3.61-7,7l-.15.73,18.28-2.39c.71,1.09-1.05,2.8-1.76,3.33,3.61-2.71,5.87-6.65,4.6-11.29-1.13-4.1-5.29-7.55-9.64-7.34-1.52.07-3,.18-4.52.35-4,.44-7.52,2.14-9.13,6.15-1.37,3.4-1,8.4,2.06,10.92,7.34,5.94,15.74,8.74,25.2,6.86,8.32-1.65,14.78-6.59,23.57-6.42v-20h-3.08c-12.87,0-12.89,20,0,20h3.08c12.88,0,12.87-19.74,0-20-7.8-.15-14.54,1.78-21.64,4.74-4.06,1.69-9,3.89-13,.68l-7.08,17.07c1.51-.17,3-.28,4.52-.35l-5-18.64c-7.56,5.7-10.92,15.54-5.42,24,4.36,6.73,16.44,6.5,18.28-2.39l.15-.73-7,7,.83-.23-7.7-1,.7.49-3.58-3.58c3.52,5.27,7.37,9.58,13,12.72,4.5,2.52,11.19,1.31,13.68-3.59l.28-.56-6,4.6c-5.42,1.15,2.26.48,3.5.3a21.87,21.87,0,0,0,6.73-2.28L254.86,162.1l1.89-2.63,5.05-1.36.42.22,4.41,16.72q6.62-6.11,13.48-11.9c8.59-7.24-2.86-22.33-12.12-15.7l-9,6.43,12.12,15.71,8.24-8.35c2.22-2.25,4.3-5,7.11-6.49,9-4.74,4.55-18.54-5.05-18.64-4,0-8.23-3.58-12.27-4.43a36.76,36.76,0,0,0-16.1.27c-12.54,2.89-7.23,22.17,5.32,19.29Z"/></g><path class="cls-4" d="M153.29,115.69l-29,0c-5.15,0-10.3,0-15.45,0-3.47,0-7.1-.19-10.34,1.25-3.48,1.55-6.06,4.68-8.68,7.31L79.59,134.51,58.36,155.88c-2.27,2.29,1.27,5.83,3.54,3.54l19.17-19.3,9.59-9.65c2.93-3,6-7.16,9.8-8.89,3.65-1.67,8.33-1,12.28-1l13.52,0,27,0c3.22,0,3.22-5,0-5Z"/><g class="cls-2"><path class="cls-3" d="M55.82,204.69c-1.85,6-4.9,11.62-6.84,17.62s-2.7,12.76,0,18.45c4.77,10.05,17.62,12.62,28.66,14,28.63,3.46,58.25,6.84,85.86-1.49,4.5-1.36,9.08-3.13,12.31-6.54,3.92-4.16,5.25-10.08,6.12-15.73,1.22-7.86.84-17.83-6.32-21.31-6.66-3.24-14.19,1.53-20.65,5.15a73,73,0,0,1-54.09,6.7c-15.93-4.31-30.38-14.05-46.81-15.59"/></g><path class="cls-5" d="M152.81,117.89a161.8,161.8,0,0,0,22.24,43.43"/><path class="cls-4" d="M150.39,118.56a169.48,169.48,0,0,0,22.5,44c1.85,2.59,6.19.1,4.32-2.53a164.48,164.48,0,0,1-22-42.83c-1-3-5.86-1.73-4.83,1.33Z"/><path class="cls-4" d="M55.24,158.12q-5.88,19.68-11.77,39.37c-3.49,11.74-6.86,23.72-7.26,36-.34,10.21.28,20.7,11.14,24.48,11.39,4,23.7,5.91,35.66,7.07,25.46,2.47,51.11.14,76.38-3.23,8.47-1.13,17.8-2.28,24.66-7.87,8.33-6.79,7.65-18.48,8-28.24.51-13.64.57-27.62-1.27-41.16-1.45-10.65-4.8-21.2-13.17-28.42-2.42-2.09-6,1.43-3.53,3.54,14.84,12.81,13.28,37.62,13.2,55.37q0,8.25-.51,16.48c-.31,5.56-.12,11.9-3.81,16.46-5.61,6.93-16.3,7.87-24.52,9-21.61,2.87-43.45,4.92-65.27,3.85a183.6,183.6,0,0,1-32.35-4.31C56.1,255.41,50.11,254.59,46,252c-5.4-3.36-4.87-11.94-4.76-17.54.26-12.83,4-25.26,7.64-37.46q5.61-18.78,11.24-37.55c.92-3.09-3.9-4.41-4.83-1.33Z"/><path class="cls-4" d="M124.18,114.4c-5.69-20.54-12-44.18,0-63.79C136,31.17,161,32.49,181,33.49c17.76.88,46.81,4.78,53.1,25.16,6.62,21.46-18.41,37.77-26.53,55-3.71,7.87-6,18.16,0,25.57,5.57,7,15.43,8.16,23.73,8.85,3.21.26,3.19-4.74,0-5-10.43-.86-23.62-3.61-22.32-17,1.09-11.19,9.29-20.41,16-28.78,11.91-14.82,22.66-35.31,6.88-51.6-14.27-14.73-37.83-17-57.16-17.39-19.71-.39-41.36.05-53.62,18-14.26,20.86-7.88,47-1.67,69.48.86,3.09,5.69,1.78,4.83-1.33Z"/><path class="cls-4" d="M226.37,147l21.37-9.15c8-3.42,15.22-6.45,24-4.25A46.49,46.49,0,0,1,282.4,138c2.35,1.26,7.57,3.34,9.08,5.52q2.43.88.14,2.43l-1.11,1.48c-1.35,1.81-2.71,3.6-4.1,5.37q-3.69,4.75-7.53,9.37-3.54,4.28-7.2,8.44c-2.57,2.93-5.06,7-9,7.68-6.08,1.06-16.25-6.7-20.45-10.94a21.7,21.7,0,0,1-5.71-9.37c-.76-2.78-.37-5.5-.74-8.31-.47-3.54-2-6.91-6.07-6.79-3.21.1-3.22,5.1,0,5,1.78-.05,1.31,8.07,1.5,9.2a24.31,24.31,0,0,0,4.55,10.37c4.54,6.19,11.31,10.14,18,13.63,3,1.58,6.25,3.45,9.78,3,3.82-.51,6.19-3.8,8.59-6.47q9.27-10.32,17.8-21.26c2.74-3.52,10.88-10.28,6.9-15.08-2.36-2.84-7.2-4.93-10.38-6.72a58.08,58.08,0,0,0-11.75-5.25c-8.21-2.49-15.77-1.46-23.63,1.78-9.12,3.77-18.16,7.78-27.24,11.67-2.95,1.26-.41,5.57,2.52,4.31Z"/><path class="cls-4" d="M56.49,195.19a101,101,0,0,0,46.31,7.4l-.67-4.91-1.41.26c-3.16.59-1.82,5.41,1.33,4.82l1.41-.26c2.75-.51,2.15-5.12-.66-4.91a97.68,97.68,0,0,1-45-7.22c-3-1.23-4.27,3.6-1.33,4.82Z"/><path class="cls-4" d="M73.45,201.94A39.31,39.31,0,0,1,66,221.75c-1.89,2.61,2.44,5.11,4.31,2.52a44.1,44.1,0,0,0,8.19-22.33c.28-3.21-4.72-3.19-5,0Z"/><path class="cls-4" d="M95,207.1a39.79,39.79,0,0,1-9.9,19,2.53,2.53,0,0,0,1.77,4.26,132.35,132.35,0,0,0,19.1-.09c3.19-.25,3.22-5.25,0-5a132.35,132.35,0,0,1-19.1.09l1.77,4.27a44.73,44.73,0,0,0,11.18-21.16c.69-3.14-4.13-4.48-4.82-1.33Z"/><path class="cls-4" d="M88.85,218.52a95.75,95.75,0,0,1,17.5.89c3.15.46,4.51-4.36,1.33-4.82a102.25,102.25,0,0,0-18.83-1.07c-3.2.11-3.22,5.11,0,5Z"/><path class="cls-4" d="M92.79,208.85a65.56,65.56,0,0,0,23.35,4.61c3.22.06,3.22-4.94,0-5a61.81,61.81,0,0,1-22-4.43c-3-1.19-4.29,3.64-1.33,4.82Z"/><path class="cls-4" d="M111.52,233a166,166,0,0,1,19.21-19.93c1-.9,3.65-4.37,4.33-2.5.61,1.69-.85,5.87-1.22,7.63a106.05,106.05,0,0,1-4,14.08c-1.08,3,3.75,4.34,4.83,1.33a91.1,91.1,0,0,0,5.23-21.31c.3-3.17-.1-7-3.9-7.67-4.85-.81-10.36,6.21-13.43,9.11A165.48,165.48,0,0,0,108,229.49c-2,2.47,1.49,6,3.53,3.53Z"/><path class="cls-4" d="M113.52,221.55a186.08,186.08,0,0,0,27.92,1.17c3.21-.1,3.22-5.1,0-5a186.08,186.08,0,0,1-27.92-1.17c-3.19-.37-3.16,4.63,0,5Z"/><path class="cls-4" d="M114.75,117.78l-3.6,13.09A2.52,2.52,0,0,0,112.9,134a113.86,113.86,0,0,0,21,1.14,2.53,2.53,0,0,0,2.5-2.5,83.85,83.85,0,0,1,.46-11.75c.34-3.2-4.66-3.17-5,0a83.85,83.85,0,0,0-.46,11.75l2.5-2.5a107.3,107.3,0,0,1-19.7-1L116,132.2l3.59-13.09c.85-3.11-4-4.43-4.82-1.33Z"/><path class="cls-4" d="M66.12,156.11q55.46,1.11,110.64,7.28c3.2.36,3.17-4.65,0-5q-55.12-6.16-110.64-7.28c-3.22-.06-3.22,4.94,0,5Z"/><path class="cls-4" d="M149.74,119.69c-1.37,23.88,11.79,45.35,12.64,69,.9,25-9.07,48.76-20.26,70.53-1.47,2.86,2.84,5.39,4.32,2.52,11.06-21.52,20.87-44.85,21-69.45.13-25-14.13-47.6-12.69-72.57.18-3.22-4.82-3.21-5,0Z"/></svg>