<svg id="Layer_1" data-name="Layer 1" xmlns="http://www.w3.org/2000/svg" viewBox="0 0 311.45 518.27"><defs><style>.cls-1{fill:#fff;}.cls-2{fill:#d6b429;}.cls-3{fill:#3f3017;}.cls-4{fill:#231f20;}</style></defs><title>makeyouown</title><polygon class="cls-1" points="159.11 358.6 159.13 358.29 158.93 358.29 137.07 320.94 65.46 320.94 43.6 358.29 43.4 358.29 43.4 474.02 151.78 474.02 159.11 358.63 159.13 358.63 159.11 358.6"/><path d="M161.61,358.6l0-.31a2.52,2.52,0,0,0-2.5-2.5h-.2l2.16,1.24-18.15-31c-1.47-2.5-2.9-7-6-7.57-3.4-.64-7.58,0-11,0H81.43c-4.85,0-9.71-.12-14.56,0-3.07.07-3.76,1.56-5.24,4.08L41.44,357l2.16-1.24h-.2a2.54,2.54,0,0,0-2.5,2.5V474a2.54,2.54,0,0,0,2.5,2.5H151.78a2.56,2.56,0,0,0,2.5-2.5l6.41-100.94.92-14.45-2.5,2.5h0a2.52,2.52,0,0,0,2.16-3.76l0,0c-1.62-2.78-5.94-.27-4.32,2.52l0,0,2.16-3.76h0a2.56,2.56,0,0,0-2.5,2.5L150.2,459.57,149.28,474l2.5-2.5H43.4l2.5,2.5V358.29l-2.5,2.5c2.39,0,3.46-3.12,4.48-4.85L55.43,343,67.62,322.2l-2.16,1.24h71.61l-2.15-1.24L147.1,343l7.4,12.64c1,1.76,2.19,5.12,4.63,5.12l-2.5-2.5,0,.31C156.41,361.81,161.41,361.8,161.61,358.6Z"/><path d="M157.15,359.94l5.9,99.9.84,14.25c.18,3.2,5.19,3.22,5,0l-5.9-99.9-.84-14.25c-.19-3.2-5.19-3.22-5,0Z"/><path d="M101.62,336.78c-.26,4.88-7.6,4.92-7.6,0s7.34-4.87,7.6,0c.17,3.2,5.17,3.22,5,0-.26-4.77-3.83-8.8-8.8-8.8a8.8,8.8,0,0,0-.34,17.59c5.1.23,8.88-3.9,9.14-8.79C106.79,333.57,101.79,333.58,101.62,336.78Z"/><path d="M97.4,339c3.21,0,3.22-5,0-5s-3.23,5,0,5Z"/><path class="cls-2" d="M177.34,315.48l-1.26,37.36,0,0,26.48,34,37.72-29.39-26.48-34h0Zm13.71,17.61a4.2,4.2,0,1,1,.73-5.9A4.21,4.21,0,0,1,191.05,333.09Z"/><path d="M99.9,336.5c.16-24.33,9.67-53.13,38.12-54.65,26.52-1.42,41.17,24.29,46.76,46.74.78,3.13,5.6,1.8,4.82-1.32-4.85-19.52-15.51-40.7-35.55-48.09-20.26-7.47-42.26,2.42-51.64,21.31-5.53,11.12-7.43,23.7-7.51,36,0,3.21,5,3.22,5,0Z"/><polygon class="cls-3" points="50.5 406.75 50.5 467.55 144.51 467.55 150.89 407.03 50.5 406.75"/><circle class="cls-3" cx="59.01" cy="406.43" r="8.55"/><circle class="cls-3" cx="72.83" cy="400.04" r="9.94"/><circle class="cls-3" cx="85.83" cy="404.56" r="8.55"/><circle class="cls-3" cx="93.78" cy="408.33" r="8.55"/><ellipse class="cls-3" cx="107.02" cy="403.87" rx="11.13" ry="9.24"/><ellipse class="cls-3" cx="125.78" cy="399.52" rx="12.12" ry="11.09"/><ellipse class="cls-3" cx="138.15" cy="405.33" rx="6.29" ry="7.37"/><ellipse class="cls-3" cx="145.05" cy="403.87" rx="6.29" ry="7.37"/><polygon class="cls-2" points="159.16 362.56 166 474.02 150.99 474.02 159.16 362.56"/><path class="cls-4" d="M156.66,362.56l6,97.63L163.5,474l2.5-2.5H151l2.5,2.5,7.16-97.62,1-13.84c.24-3.21-4.76-3.19-5,0l-7.16,97.63-1,13.83a2.53,2.53,0,0,0,2.5,2.5h15a2.52,2.52,0,0,0,2.5-2.5l-6-97.62-.85-13.84C161.47,359.37,156.47,359.35,156.66,362.56Z"/></svg>