<svg id="Layer_1" data-name="Layer 1" xmlns="http://www.w3.org/2000/svg" viewBox="0 0 311.45 512.17"><defs><style>.cls-1{fill:#231f20;}.cls-2{opacity:0.4;}</style></defs><title>makeyouown</title><path class="cls-1" d="M185,86c-23.45-2.35-47.64-4.59-70.81,1-9.56,2.31-22,5.92-28.74,13.59-6.11,7-4.59,16.7,4,20.52,10.51,4.68,23.42,5.89,34.76,7.15,13.13,1.45,26.35,1.87,39.54,2.2,12.67.31,25.42.75,38-.9,8.79-1.14,22.61-2.82,28.6-10.34,7.9-9.91-7.06-16.54-14.06-19.72a158.18,158.18,0,0,0-39.74-12.06c-3.15-.52-4.5,4.3-1.33,4.82A158.06,158.06,0,0,1,204.45,100c4.54,1.69,9,3.62,13.32,5.75,4,1.94,13.09,5.67,8,11.12-3,3.2-8.8,4.4-12.87,5.49a96.28,96.28,0,0,1-16.78,2.83c-9.51.82-19.08.6-28.62.38-21.39-.51-43-1-64-5.65-4.14-.92-9.07-1.61-12.84-3.69-7.52-4.18-3-12,2.39-15.55,7.75-5.16,17.53-7.94,26.57-9.75,21.49-4.29,43.75-2.09,65.36.07,3.19.32,3.17-4.69,0-5Z"/><path class="cls-1" d="M78.41,112.77a20.64,20.64,0,0,0,21.41,27.94c3.17-.31,3.21-5.31,0-5-12.32,1.22-21-10-16.58-21.61,1.14-3-3.7-4.32-4.83-1.33Z"/><path class="cls-1" d="M227.2,117.44a12.76,12.76,0,0,1,1.34,13.61c-2.55,5-7.9,6.07-12.66,8.1-2.95,1.26-.41,5.56,2.52,4.32,6.47-2.76,12.4-4.52,15.23-11.6a17.43,17.43,0,0,0-2.11-17c-1.92-2.53-6.27,0-4.32,2.52Z"/><path class="cls-1" d="M79.94,133.44c-.73,6.8-.34,16.12-8.26,18.66-3.05,1-1.75,5.81,1.33,4.82,10.59-3.4,10.93-14.11,11.93-23.48.34-3.2-4.67-3.18-5,0Z"/><path class="cls-1" d="M226.6,133.81a18.3,18.3,0,0,0,4.93,15.89c2.24,2.32,5.78-1.22,3.54-3.54a12.94,12.94,0,0,1-3.65-11c.48-3.15-4.34-4.5-4.82-1.33Z"/><path class="cls-1" d="M236.72,151.44a57.72,57.72,0,0,1,20,12.36c4.91,4.79,10.38,11.2,12.86,17.68,2,5.15,2.3,11.19,2.84,16.62.6,5.94,1,11.9,1.27,17.86,1.44,32.88,3.3,65.9,3.4,98.81.08,25.9-.76,52.2-2.62,78.05-.84,11.54-1.78,23.56-5.42,34.62-3.25,9.89-12.29,14.31-20.9,19.23-4.93,2.8-10,5.73-15.37,7.65-7.47,2.69-16.11,3.4-23.92,4.76a340.32,340.32,0,0,1-45.66,5.38c-15.79.61-31.58-.39-47.3-1.84-7.11-.66-14.38-.92-21.27-2.9a167.74,167.74,0,0,1-17.24-6.19c-8.53-3.51-20-7.07-24.54-15.74-5-9.54-7.11-20.93-9.14-31.41-4.58-23.65-7.12-47.84-8.91-71.84-2.4-32.11-2.61-64.6-2.53-96.79,0-15.09.56-30.69,4.57-45.32s14.37-26,28.08-32.31a75.58,75.58,0,0,1,23.6-6c3.17-.34,3.2-5.34,0-5-15.66,1.67-31,6.7-42.44,17.93C35.22,177.65,31.13,191.1,29.15,205.8c-2.12,15.72-2,31.55-1.7,47.37.31,17.56.29,35.12.83,52.67a728.82,728.82,0,0,0,7.42,83.05c1.89,12.86,4.07,25.81,7.77,38.29,2.48,8.37,5.4,17,13.12,21.82,10.68,6.66,23.3,11.47,35.3,15.13,6.42,1.95,12.93,2.42,19.6,3.07,9.3.91,18.62,1.69,28,2.12a277.06,277.06,0,0,0,46.25-1.71c8.46-1,16.89-2.37,25.29-3.85,7.81-1.37,16.4-2.05,23.82-4.89a120.37,120.37,0,0,0,31.33-18c7.54-6,9.33-16.6,10.81-25.63,3.95-24.13,3.81-49,4.68-73.4,1.32-37.13-1.26-74.12-2.5-111.21-.45-13.47-.77-26.92-2.65-40.29-.73-5.22-1.59-10.17-4.36-14.71a73.23,73.23,0,0,0-14.81-18.06,65.89,65.89,0,0,0-19.26-11c-3-1.15-4.3,3.68-1.33,4.82Z"/><g class="cls-2"><path class="cls-1" d="M54.7,428.15a311,311,0,0,1,204.92-11.08c3.09.91,4.42-3.92,1.33-4.82A315.43,315.43,0,0,0,53.37,423.33c-2.93,1.21-1.64,6.05,1.33,4.82Z"/></g></svg>