<svg id="Layer_1" data-name="Layer 1" xmlns="http://www.w3.org/2000/svg" viewBox="0 0 427.67 494.64"><defs><style>.cls-1{fill:#666766;opacity:0.6;}.cls-2{fill:#231f20;}.cls-3{fill:#f78f41;}.cls-4{fill:#efd6ac;}.cls-5{fill:#cca26b;}.cls-6{opacity:0.4;}</style></defs><title>makeyouown</title><ellipse class="cls-1" cx="152.67" cy="449.69" rx="120.56" ry="44.1"/><ellipse class="cls-1" cx="337.22" cy="460.27" rx="49.05" ry="19.68"/><path class="cls-2" d="M156.36,93.05C133.88,90.78,111,87.66,89,94.88c-8.8,2.89-21.56,7.15-25.21,16.64-4,10.36,4.55,15.61,13.22,17.92,25.56,6.81,52.55,7.11,78.83,7.52,12.09.19,24.31-.06,36.16-2.69,7.11-1.59,21.3-4.58,21.65-14.1.16-4.17-2.58-8.76-5-12-3-4.13-7.24-5.82-11.94-7.68-12.63-5-26.23-6.14-39.67-6.91-3.21-.19-3.2,4.81,0,5,9.92.57,19.88,1.31,29.53,3.85a64.38,64.38,0,0,1,13.77,5.1c3.6,1.9,5.83,5.25,7.36,9,6.35,15.59-43.36,15.53-51.91,15.39-21.24-.33-42.77-.62-63.74-4.34-7.14-1.26-29.37-3.34-23.24-15.26,2.16-4.21,6.94-6.5,11-8.45A87.78,87.78,0,0,1,95,98.32c20.1-5.41,41-2.33,61.38-.27,3.2.32,3.17-4.68,0-5Z"/><path class="cls-2" d="M59.68,119a20.65,20.65,0,0,0,21.41,28c3.17-.32,3.2-5.32,0-5-12.32,1.22-21-10-16.59-21.62,1.14-3-3.69-4.32-4.82-1.33Z"/><path class="cls-2" d="M208.47,123.69a12.76,12.76,0,0,1,1.34,13.61c-2.55,5-7.9,6.07-12.66,8.1-3,1.26-.41,5.57,2.52,4.32,6.46-2.76,12.4-4.52,15.22-11.6a17.38,17.38,0,0,0-2.11-17c-1.92-2.53-6.26,0-4.31,2.52Z"/><path class="cls-2" d="M61.2,139.69c-.72,6.8-.34,16.12-8.25,18.66-3.05,1-1.75,5.81,1.33,4.82,10.59-3.4,10.92-14.11,11.92-23.48.34-3.2-4.66-3.17-5,0Z"/><path class="cls-2" d="M207.86,140.06A18.31,18.31,0,0,0,212.8,156c2.24,2.32,5.77-1.22,3.53-3.53a13,13,0,0,1-3.65-11c.49-3.14-4.33-4.5-4.82-1.33Z"/><path class="cls-2" d="M218,157.69a57.83,57.83,0,0,1,20,12.36c4.91,4.79,10.38,11.2,12.87,17.68,2,5.15,2.29,11.2,2.84,16.63q.89,8.89,1.27,17.85c1.43,32.88,3.3,65.9,3.4,98.82.08,25.89-.76,52.19-2.63,78-.83,11.54-1.78,23.56-5.41,34.62-3.25,9.89-12.3,14.32-20.91,19.23-4.92,2.81-10,5.73-15.36,7.66-7.47,2.69-16.11,3.39-23.92,4.75a340.27,340.27,0,0,1-45.67,5.38c-15.79.61-31.58-.38-47.29-1.84C90,468.22,82.77,468,75.88,466a166.06,166.06,0,0,1-17.24-6.19c-8.53-3.51-20-7.06-24.55-15.74-5-9.54-7.11-20.92-9.14-31.41-4.57-23.65-7.11-47.84-8.9-71.84-2.4-32.11-2.62-64.6-2.53-96.79,0-15.09.55-30.69,4.57-45.32s14.37-26,28.08-32.3a75.32,75.32,0,0,1,23.6-6c3.16-.33,3.2-5.34,0-5-15.67,1.67-31,6.7-42.44,17.93C16.48,183.9,12.4,197.36,10.41,212.06c-2.12,15.71-2,31.55-1.69,47.36C9,277,9,294.54,9.55,312.1a726.58,726.58,0,0,0,7.42,83C18.86,408,21,421,24.74,433.43c2.48,8.37,5.4,17,13.12,21.82,10.68,6.66,23.29,11.48,35.29,15.13,6.42,1.95,12.94,2.42,19.6,3.07,9.31.91,18.63,1.69,28,2.12A276.94,276.94,0,0,0,167,473.86c8.47-1,16.9-2.37,25.3-3.85,7.8-1.37,16.39-2,23.82-4.89a120.7,120.7,0,0,0,31.33-18c7.54-6,9.32-16.6,10.8-25.63,4-24.12,3.81-49,4.68-73.4,1.33-37.13-1.26-74.12-2.49-111.21-.45-13.46-.77-26.92-2.65-40.29-.74-5.22-1.59-10.17-4.36-14.71a73.49,73.49,0,0,0-14.82-18.06,65.71,65.71,0,0,0-19.25-11c-3-1.15-4.31,3.68-1.33,4.82Z"/><path class="cls-3" d="M136,211.18a14.11,14.11,0,0,1-3.67-.21c-13.73-2.6-74.92-13.51-99.84-4.54-3.33,1.2-11.71,2.33-12.38,8.67C19,225.45,25.66,383.26,37,420.06c3.74,12.15,8.29,25.38,19.1,31.84,5.34,3.19,11.62,4.3,17.76,5.2a378.36,378.36,0,0,0,143.66-6.64c8.86-2.15,18.05-4.85,24.57-11.29,8.68-8.57,7.57-170.7,7.17-221.74a14,14,0,0,0-15.05-13.81Z"/><path class="cls-4" d="M243.93,237c-2.7-8.06-9.87-13.73-17.05-18.28C170.89,183.25,95,189.12,38,223c-5.76,3.42-12,8-12.48,14.71-.77,9.8,10.56,15.53,19.92,18.53l41.78,13.38c17.66,5.66,35.86,11.39,54.36,10.08,25.44-1.79,48.61-16.69,74.06-18.24,6.31-.38,12.71.06,18.86-1.38s12.24-5.26,14.15-11.28-2.38-13.82-8.69-13.68"/><path class="cls-5" d="M23.18,244.46c-.14,6.51,4.9,10.43,10.46,12.76,8.66,3.62,18.51,5.16,27.59,7.49C81,269.77,101,276.27,121.38,278.45c19.36,2.07,37.2-3.15,55.34-9.29,9.11-3.08,18.25-6.19,27.71-8,10-1.95,20.11-1.79,30.16-2.89,6.64-.73,16.42-1.3,16.9-9.93.51-9.2-8.91-12.74-16.23-14.41-3.13-.72-4.47,4.1-1.32,4.82,3.51.8,7.95,1.58,10.52,4.33,1.87,2,2.68,4.78,1,7-1.44,1.94-3.82,2.13-6.1,2.51-8.26,1.4-16.67,1.37-25,2.14-15,1.38-29,6.27-43.18,11-14.7,4.94-29.51,9.08-45.17,8.11-17-1.06-33.57-6.3-49.95-10.49L48,256.16c-6-1.55-20-3.18-19.86-11.7.06-3.21-4.94-3.21-5,0Z"/><g class="cls-6"><path class="cls-5" d="M213.93,235.64a56.61,56.61,0,0,0-34,9.6c-2.66,1.78-.16,6.11,2.52,4.32a52,52,0,0,1,31.45-8.92c3.22.13,3.22-4.87,0-5Z"/></g><g class="cls-6"><path class="cls-5" d="M139.46,249.61c-17.22,5.55-35.08,2.34-52.17-2.06-3.12-.81-4.45,4-1.33,4.82,17.92,4.62,36.79,7.88,54.82,2.06,3.05-1,1.75-5.82-1.32-4.82Z"/></g><g class="cls-6"><path class="cls-5" d="M54.55,241.9a29.61,29.61,0,0,0-5.94-2.73c-1.89-.77-2.43-.81-3.16-2.93-1-2.91.79-4.28,3.19-5.79,5.69-3.58,12.4-5.79,18.87-7.48,3.11-.81,1.79-5.64-1.33-4.82A87.62,87.62,0,0,0,51,223.59c-3.88,1.82-8.36,3.92-10.35,8a8.1,8.1,0,0,0,1.13,9.34c2.73,2.87,7.06,3.15,10.24,5.32,2.66,1.82,5.17-2.51,2.52-4.32Z"/></g><path class="cls-2" d="M345.6,307.32a250.37,250.37,0,0,0-26.7-.55c-8.1.21-16.36.3-24.3,2.07-5.54,1.24-13.33,3.47-15.87,9.18-2.21,5,.69,8.88,5.2,10.77,7.31,3.07,15.55,3.74,23.37,4.26s15.58.93,23.37.82c13.92-.21,29.79-2.18,41.25-10.87,4.46-3.38,4.39-7.82-.74-10.22a56.3,56.3,0,0,0-25.33-5.29c-3.21.09-3.23,5.09,0,5a52.68,52.68,0,0,1,21.49,4.09c2.8,1.13,3.74,1,.72,3A45.58,45.58,0,0,1,363.9,322a53.14,53.14,0,0,1-9.76,3.82c-13.2,3.8-27.24,3.3-40.82,2.56-7.7-.42-15.53-.71-23-2.75-1.4-.38-4.8-.9-5.61-1.93l-.58-5a10.37,10.37,0,0,1,2.79-2c3.21-1.86,7.12-2.78,10.74-3.47,7.58-1.44,15.46-1.42,23.15-1.59a241.3,241.3,0,0,1,24.79.6c3.21.26,3.19-4.74,0-5Z"/><path class="cls-2" d="M276.09,324.65c2.35,34.53,5.19,69,9,103.43q1.38,12.5,3,25c.68,5.41,2.66,8.69,6.87,12.26,9.81,8.32,22,9.7,34.51,9.84,15.31.17,29.13-4.71,41.9-13,2.7-1.73.19-6.06-2.52-4.31-14,9-28.69,13.23-45.39,12-8.32-.62-15.91-1.54-22.85-6.48-2.63-1.87-5.94-4.42-7.1-7.57-1.49-4-1.27-9.55-1.78-13.82-4.67-39-8-78.19-10.63-117.38-.22-3.2-5.22-3.22-5,0Z"/><path class="cls-2" d="M372.45,460.71c1.27-5.4,1.49-11.12,1.84-16.64.61-9.41.93-18.85,1.21-28.28.66-22.55.92-45.11,1.14-67.67.09-9.86.16-19.72.27-29.58,0-3.22-5-3.22-5,0-.43,40.2-.17,80.48-2.33,120.64-.36,6.66-.42,13.67-1.95,20.2-.74,3.13,4.08,4.47,4.82,1.33Z"/><path class="cls-3" d="M285.5,352.71c3.8,2.44,8.49,2.92,13,3.34,19.66,1.81,40,3.57,58.76-2.45,3.91-1.25,7.74-2.84,11.79-3.41,1.61,12.92-1.08,96.84-1.67,100.52-1.38,8.57-11,10.18-18.95,13.68s-16.86,4-25.54,3.82c-9.16-.24-19.51-1.95-24.6-9.56-4.61-6.9-14.22-89.49-13.95-105.82"/></svg>