<svg id="Layer_1" data-name="Layer 1" xmlns="http://www.w3.org/2000/svg" viewBox="0 0 311.45 512.17"><defs><style>.cls-1{fill:#666766;opacity:0.6;}.cls-2{fill:#231f20;}.cls-3{fill:#f78f41;}.cls-4{fill:#efd6ac;}.cls-5{fill:#cca26b;}.cls-6{opacity:0.4;}</style></defs><title>makeyouown</title><ellipse class="cls-1" cx="169.17" cy="440.57" rx="120.56" ry="44.1"/><path class="cls-2" d="M175.09,86.8c-22.48-2.28-45.38-5.39-67.33,1.83C99,91.52,86.2,95.77,82.55,105.27c-4,10.36,4.55,15.61,13.22,17.92,25.57,6.81,52.55,7.11,78.84,7.52,12.09.19,24.3-.06,36.15-2.7,7.11-1.58,21.31-4.57,21.66-14.09.15-4.17-2.59-8.76-5-12-3-4.12-7.24-5.82-11.93-7.67-12.63-5-26.24-6.14-39.67-6.92-3.22-.18-3.21,4.82,0,5,9.92.58,19.88,1.32,29.52,3.86a64.38,64.38,0,0,1,13.77,5.1c3.61,1.9,5.83,5.25,7.36,9,6.36,15.59-43.36,15.52-51.9,15.39-21.25-.34-42.78-.62-63.75-4.34-7.14-1.26-29.37-3.34-23.23-15.27,2.16-4.2,6.94-6.49,11-8.44a89.29,89.29,0,0,1,15.08-5.6c20.11-5.4,41-2.32,61.38-.26,3.2.32,3.18-4.68,0-5Z"/><path class="cls-2" d="M78.41,112.77a20.64,20.64,0,0,0,21.41,27.94c3.17-.31,3.21-5.31,0-5-12.32,1.22-21-10-16.58-21.61,1.14-3-3.7-4.32-4.83-1.33Z"/><path class="cls-2" d="M227.2,117.44a12.76,12.76,0,0,1,1.34,13.61c-2.55,5-7.9,6.07-12.66,8.1-2.95,1.26-.41,5.56,2.52,4.32,6.47-2.76,12.4-4.52,15.23-11.6a17.43,17.43,0,0,0-2.11-17c-1.92-2.53-6.27,0-4.32,2.52Z"/><path class="cls-2" d="M79.94,133.44c-.73,6.8-.34,16.12-8.26,18.66-3.05,1-1.75,5.81,1.33,4.82,10.59-3.4,10.93-14.11,11.93-23.48.34-3.2-4.67-3.18-5,0Z"/><path class="cls-2" d="M226.6,133.81a18.3,18.3,0,0,0,4.93,15.89c2.24,2.32,5.78-1.22,3.54-3.54a12.94,12.94,0,0,1-3.65-11c.48-3.15-4.34-4.5-4.82-1.33Z"/><path class="cls-2" d="M236.72,151.44a57.72,57.72,0,0,1,20,12.36c4.91,4.79,10.38,11.2,12.86,17.68,2,5.15,2.3,11.19,2.84,16.62.6,5.94,1,11.9,1.27,17.86,1.44,32.88,3.3,65.9,3.4,98.81.08,25.9-.76,52.2-2.62,78.05-.84,11.54-1.78,23.56-5.42,34.62-3.25,9.89-12.29,14.31-20.9,19.23-4.93,2.8-10,5.73-15.37,7.65-7.47,2.69-16.11,3.4-23.92,4.76a340.32,340.32,0,0,1-45.66,5.38c-15.79.61-31.58-.39-47.3-1.84-7.11-.66-14.38-.92-21.27-2.9a167.74,167.74,0,0,1-17.24-6.19c-8.53-3.51-20-7.07-24.54-15.74-5-9.54-7.11-20.93-9.14-31.41-4.58-23.65-7.12-47.84-8.91-71.84-2.4-32.11-2.61-64.6-2.53-96.79,0-15.09.56-30.69,4.57-45.32s14.37-26,28.08-32.31a75.58,75.58,0,0,1,23.6-6c3.17-.34,3.2-5.34,0-5-15.66,1.67-31,6.7-42.44,17.93C35.22,177.65,31.13,191.1,29.15,205.8c-2.12,15.72-2,31.55-1.7,47.37.31,17.56.29,35.12.83,52.67a728.82,728.82,0,0,0,7.42,83.05c1.89,12.86,4.07,25.81,7.77,38.29,2.48,8.37,5.4,17,13.12,21.82,10.68,6.66,23.3,11.47,35.3,15.13,6.42,1.95,12.93,2.42,19.6,3.07,9.3.91,18.62,1.69,28,2.12a277.06,277.06,0,0,0,46.25-1.71c8.46-1,16.89-2.37,25.29-3.85,7.81-1.37,16.4-2.05,23.82-4.89a120.37,120.37,0,0,0,31.33-18c7.54-6,9.33-16.6,10.81-25.63,3.95-24.13,3.81-49,4.68-73.4,1.32-37.13-1.26-74.12-2.5-111.21-.45-13.47-.77-26.92-2.65-40.29-.73-5.22-1.59-10.17-4.36-14.71a73.23,73.23,0,0,0-14.81-18.06,65.89,65.89,0,0,0-19.26-11c-3-1.15-4.3,3.68-1.33,4.82Z"/><path class="cls-3" d="M154.73,204.93a14.21,14.21,0,0,1-3.68-.21c-13.72-2.6-74.91-13.51-99.84-4.54-3.32,1.2-11.71,2.33-12.38,8.66-1.1,10.36,5.57,168.17,16.89,205,3.74,12.15,8.3,25.38,19.1,31.84,5.35,3.19,11.62,4.3,17.76,5.2a378.42,378.42,0,0,0,143.67-6.64c8.85-2.15,18-4.85,24.57-11.3,8.67-8.56,7.56-170.69,7.16-221.73a14,14,0,0,0-15.05-13.82Z"/><path class="cls-4" d="M262.66,230.77c-2.7-8.07-9.87-13.73-17.05-18.28-56-35.5-131.9-29.62-188.9,4.21-5.76,3.42-12,8-12.49,14.71-.76,9.8,10.56,15.53,19.92,18.53l41.78,13.38c17.67,5.66,35.86,11.39,54.36,10.08,25.45-1.79,48.61-16.69,74.07-18.24,6.3-.38,12.71.06,18.85-1.38s12.24-5.26,14.15-11.28-2.37-13.82-8.68-13.69"/><path class="cls-5" d="M41.91,238.21c-.13,6.51,4.9,10.43,10.46,12.75,8.67,3.63,18.51,5.17,27.59,7.49,19.78,5.07,39.79,11.57,60.16,13.75,19.35,2.07,37.19-3.15,55.33-9.29,9.11-3.09,18.26-6.19,27.71-8,10-1.94,20.11-1.78,30.17-2.88,6.64-.73,16.41-1.3,16.89-9.93.51-9.21-8.9-12.74-16.22-14.41-3.13-.72-4.47,4.1-1.33,4.82,3.51.8,8,1.58,10.53,4.33,1.86,2,2.67,4.78,1,7-1.44,1.94-3.82,2.13-6.1,2.51-8.25,1.4-16.66,1.37-25,2.14-15,1.38-29,6.27-43.17,11-14.71,4.94-29.51,9.08-45.18,8.11-17-1.06-33.57-6.3-49.94-10.49l-28.08-7.2c-6-1.55-20-3.19-19.86-11.7.06-3.22-4.94-3.22-5,0Z"/><g class="cls-6"><path class="cls-5" d="M232.67,229.39a56.66,56.66,0,0,0-34,9.6c-2.66,1.78-.16,6.11,2.52,4.31a52.12,52.12,0,0,1,31.46-8.91c3.22.12,3.21-4.88,0-5Z"/></g><g class="cls-6"><path class="cls-5" d="M158.19,243.35c-17.21,5.56-35.08,2.35-52.16-2.06-3.12-.8-4.45,4-1.33,4.83,17.91,4.62,36.78,7.88,54.82,2.06,3-1,1.74-5.82-1.33-4.83Z"/></g><g class="cls-6"><path class="cls-5" d="M73.29,235.65a29.57,29.57,0,0,0-5.94-2.73c-1.9-.77-2.43-.81-3.17-2.93-1-2.92.8-4.28,3.19-5.79,5.7-3.58,12.41-5.79,18.87-7.48,3.11-.81,1.8-5.64-1.33-4.82a87.92,87.92,0,0,0-15.17,5.44c-3.88,1.82-8.35,3.92-10.35,8a8.11,8.11,0,0,0,1.14,9.35c2.73,2.87,7.06,3.15,10.23,5.32,2.67,1.82,5.17-2.51,2.53-4.32Z"/></g></svg>