<svg id="Layer_1" data-name="Layer 1" xmlns="http://www.w3.org/2000/svg" viewBox="0 0 311.45 512.17"><title>makeyouown</title><path d="M70.34,208.89a85.06,85.06,0,0,1,15.35-48.12c10.68-15,27.34-22.56,45-26.2a154,154,0,0,1,29-2.84c10.29-.14,20.77,0,30.84,2.27,18.89,4.32,38.64,11.57,52.38,25.72,23,23.72,27.27,64,17.08,94.41-10.39,31-40.3,53.09-72.09,57.35-20.38,2.73-44.52,3.72-63.36-5.8-16.54-8.36-33.22-17.4-41-35.08l-6.84,6.84c7.19,3.44,15.25,4.16,22.4,7.58a5,5,0,0,0,5-8.63c-7-5.05-15.86-5-23.61-8.31-2.34-1-5.73,1.08-6.15,3.49-1.25,7.15-1.41,14.4-2.66,21.54-1.1,6.3,8.54,9,9.65,2.66,1.25-7.14,1.4-14.4,2.65-21.54l-6.15,3.49c6.92,2.92,15,2.83,21.22,7.3l5-8.63c-7.2-3.44-15.25-4.17-22.41-7.58-4.71-2.25-8.87,2.23-6.84,6.84,7.73,17.49,23,26.94,39.19,35.73,9,4.88,18,8.48,28.15,10.09a151.6,151.6,0,0,0,33.46,1.12c18.4-1.18,36.31-4.81,52.22-14.58a102.79,102.79,0,0,0,36.76-39.33c8.49-16.51,11.2-35.87,10-54.25-1.16-18.1-5.88-36.79-16.45-51.77A83.13,83.13,0,0,0,237,141.84c-8.71-5.92-18.65-9.53-28.54-13-21.72-7.54-44.72-8.66-67.47-6-21.81,2.57-44.52,9.52-59.24,26.75-13.92,16.3-21.22,37.93-21.44,59.25-.06,6.43,9.94,6.44,10,0Z"/><path d="M145.87,176.1a81,81,0,0,0-24-1.87,2.54,2.54,0,0,0-2.5,2.5l-.08,15a2.54,2.54,0,0,0,2.5,2.5c5.27,0,22.36-3.15,19.83,7-2.1,8.48-13.36,12.67-20.82,9.52-2.93-1.24-5.49,3.07-2.53,4.32,10.53,4.44,25-.66,28.18-12.51,1.3-4.83-.47-10-5.09-12.2-5.62-2.69-13.62-1.18-19.57-1.13l2.5,2.5.08-15-2.5,2.5a76.46,76.46,0,0,1,22.67,1.69c3.14.71,4.47-4.11,1.33-4.82Z"/><path d="M157.88,203h18.91c3.22,0,3.22-5,0-5H157.88c-3.22,0-3.22,5,0,5Z"/><path d="M186.83,180.51,206,182.27l-2.41-3.16q-3.79,17.52-7.57,35c-.68,3.14,4.14,4.48,4.82,1.33q3.78-17.52,7.57-35a2.55,2.55,0,0,0-2.41-3.17l-19.17-1.76c-3.21-.29-3.19,4.71,0,5Z"/><path d="M190.14,197.34a64.14,64.14,0,0,1,18.08,1c3.14.63,4.48-4.19,1.33-4.82a69.09,69.09,0,0,0-19.41-1.17c-3.18.26-3.21,5.27,0,5Z"/><path d="M131.39,254.42c-1.62-3.93-1-8.67-3.36-12.3-2.1-3.26-6-4.74-9.65-5.25-7.94-1.09-17.33,4.2-15.22,13.4,1.81,7.89,14.1,9.45,20.45,6.76,4.13-1.75,6.06-5.52,6.69-9.79.9-6.18.66-12.65.88-18.88.12-3.22-4.88-3.21-5,0-.21,5.77,0,11.72-.7,17.45-.57,4.69-2.9,7-7.6,7.2-2.3.11-7.77-.26-9.3-2.48-2.3-3.32,1-7.48,4.13-8.45a12.23,12.23,0,0,1,8.54.74c4.6,2.3,3.56,8.67,5.32,12.93,1.22,2.93,6.05,1.65,4.82-1.33Z"/><path d="M160.2,238.1c-3.17-4.85-10-6.47-15.4-4.64-5,1.71-9.46,9.13-8.42,14.41,1.37,6.94,10.73,8.88,16.53,7.43,7.48-1.87,12.45-9.49,9.52-17-.8-2-4.33-2.69-4.82,0-2.21,12,8.44,21.94,20.26,17.89,3-1,1.73-5.87-1.33-4.82-7.88,2.7-15.68-3.2-14.11-11.74h-4.82c5,12.65-17.7,14.38-16,5,1.11-6.21,10.29-10.16,14.29-4,1.75,2.68,6.08.18,4.32-2.53Z"/><path d="M168.44,239.48c.52,7,6.4,15.61,14.42,14.59,6.94-.88,11.88-9.54,14.45-15.23l-4.65-1.27c.5,7,1.1,14.09.68,21.07-.24,4-1.31,8.27-4.18,11.25-3.33,3.45-10.49,4.12-12.49-1.21-1.11-3-5.95-1.69-4.82,1.33,3.91,10.47,17.43,9.19,22.9.82,6.05-9.25,3.66-22.89,2.91-33.26-.16-2.21-3.55-3.72-4.66-1.26-1.74,3.86-4,7.89-7.22,10.73-5.55,4.93-11.89-1.46-12.34-7.56-.23-3.19-5.24-3.22-5,0Z"/><path d="M227.7,236.69a28.21,28.21,0,0,0-17.4-1.44c-3.34.8-8.72,3.48-6.77,7.83,1.67,3.75,8.16,3.85,11.61,4.2,1,.1,3-.1,4,.44,2.45,1.33.72,2.34-1,3.26-3.25,1.67-9.61.38-12.87-.41s-4.46,4.05-1.33,4.82c5.37,1.31,12.06,2.15,17.26-.24,3.56-1.64,6.53-5.59,3.9-9.4-2.74-4-8.87-3.17-13-3.91-.74-.13-1.47-.28-2.2-.46-1.6-.24-2-.38-1-.4.61-1,5.2-1.38,5.95-1.45a24.63,24.63,0,0,1,11.55,2c3,1.21,4.27-3.62,1.33-4.82Z"/></svg>