<svg id="Layer_1" data-name="Layer 1" xmlns="http://www.w3.org/2000/svg" viewBox="0 0 311.45 397.88"><defs><style>.cls-1{fill:#666766;}.cls-2,.cls-9{fill:#fff;}.cls-3{fill:#231f20;}.cls-4{fill:#df8026;}.cls-5{fill:#f49c53;}.cls-6{fill:#efd6ac;}.cls-7{fill:#e2c599;}.cls-8{opacity:0.05;}.cls-9{opacity:0.4;}</style></defs><title>makeyouown</title><ellipse class="cls-1" cx="178.09" cy="352.87" rx="120.56" ry="44.1"/><path class="cls-2" d="M277.79,112.62c0-17.13-26.81-46.53-38.8-58.81a20,20,0,0,1-5.67-14V21.38H96.43V39.7a20,20,0,0,1-5.86,14.15C78.13,66.26,50.21,96,50.21,112.62c0,0,5.24,229.54,5.24,230,0,13.7,46,39.18,108.79,39.18S273,356.29,273,342.59C273,342.05,277.79,112.62,277.79,112.62Z"/><path class="cls-3" d="M280.25,112.44c-.23-8.66-4.85-16.77-9.4-23.88a204,204,0,0,0-20.23-25.81c-6.43-7.17-14.59-13.23-14.84-23.66-.15-6,0-11.93,0-17.89,0-1.3-1.21-1.77-2.33-1.77H96.56c-1.07,0-2.59.94-2.59,2.13,0,5.91.09,11.83,0,17.74-.16,10.82-9,17.12-15.77,24.44a216,216,0,0,0-20,24.63C53.5,95.23,48.23,103.43,47.78,112c-.23,4.27.15,8.64.25,12.91q.36,16.08.73,32.15,2,85.74,3.92,171.49c.1,4.71,0,9.47.32,14.17.72,10.63,14.28,17.73,22.47,22,20.42,10.6,43.81,15.88,66.59,18a225.5,225.5,0,0,0,80.26-6.6c16.31-4.47,35-10.92,47.3-23.15,4.48-4.46,5.83-8.58,5.95-14.52q.66-32.47,1.34-65l3.27-157.87.07-3.17c.05-2.71-4.87-2.08-4.92.36q-1.4,67.08-2.78,134.18-.81,39.42-1.63,78.84c-.11,5.47,0,11-.34,16.45-.59,9.45-13.82,15.9-21,19.55-21.18,10.73-45.43,15.77-69,17.42-26.84,1.89-54.39-.76-80.07-9A131,131,0,0,1,74,358.84c-5.27-3.1-11.17-6.86-14.52-12.15-2.27-3.57-1.66-8.08-1.76-12.15Q55.9,253.26,54,172l-1.32-57.51c-.27-12,8.07-22.9,15.09-32a274,274,0,0,1,20.43-23.3c6.09-6.27,10.57-11.72,10.66-20.9,0-5.68,0-11.37,0-17L96.3,23.34H233.19l-2.33-1.78c0,5.89-.07,11.78,0,17.67.12,10,5.88,15.47,12.21,22.32a240.4,240.4,0,0,1,20.05,24.32c5.45,7.72,12,17.12,12.21,26.93C275.4,115.52,280.31,114.87,280.25,112.44Z"/><ellipse class="cls-2" cx="165.67" cy="16.08" rx="70.55" ry="12.58"/><path class="cls-3" d="M233.87,15.74c-.27,3.56-11.26,5.47-13.61,6C210,24.1,199.45,25.1,189,25.78c-24.27,1.57-49.34,1.37-73.34-2.92a83,83,0,0,1-11.75-2.81c-1.25-.43-5.75-1.58-6.26-3.16-1-3,8.55-5.22,10.28-5.7,22.18-6,46.8-6.06,69.59-5.4A259.54,259.54,0,0,1,215.68,9.3a75.62,75.62,0,0,1,13,3.25c1.17.43,5.06,1.54,5.19,3.19.18,2.48,4.93,3.63,4.7.68-.41-5.48-8.17-7.7-12.43-8.93-11-3.18-22.61-4.36-34-5.19-27.43-2-56.66-2.19-83.6,4.07-4.44,1-13.93,2.66-15.57,8-1.58,5.09,5.53,8.06,9.11,9.34,9.93,3.56,20.84,4.73,31.27,5.7a369,369,0,0,0,46.31,1.2c14.21-.48,28.64-1.5,42.54-4.67,4.82-1.1,15.86-2.94,16.35-9.49C238.76,13.94,234.09,12.78,233.87,15.74Z"/><path class="cls-2" d="M164.68,27.9c-34.84,0-63.84-6.21-70.19-14.43a5.54,5.54,0,0,0-1.31,3.39c0,9.84,32,17.82,71.5,17.82s71.5-8,71.5-17.82a5.54,5.54,0,0,0-1.31-3.39C228.52,21.69,199.52,27.9,164.68,27.9Z"/><path class="cls-3" d="M165.39,26.29c-14.89-.05-29.91-1-44.53-4-7.78-1.58-18.88-3.57-24.28-10.1-.91-1.09-3.52.09-4.11,1C81.89,29.59,130.08,34.33,137.26,35a273.51,273.51,0,0,0,49.48.32c12.76-1.07,25.95-2.8,38-7.32,5.8-2.18,17.56-7.59,12.44-15.52-.95-1.46-3.47-.35-4.33.69-5.26,6.35-16.87,8-24.4,9.46-14.17,2.73-28.67,3.57-43.07,3.62-2.06,0-4.69,3.22-1.42,3.21,16.19-.05,32.58-1.11,48.41-4.67,8.2-1.84,18.85-4.28,24.51-11.11l-4.33.69c5.8,9-14.61,13-19.78,14.15-15.78,3.57-32.21,4.56-48.34,4.51-15.95,0-32.24-1.18-47.79-4.89-4.58-1.1-25.63-6-20.15-14.46l-4.11,1C97.93,21.41,109,23.51,117,25.21c15.41,3.29,31.29,4.24,47,4.29C166,29.51,168.66,26.3,165.39,26.29Z"/><path class="cls-4" d="M266.66,123.09c0-15.51-206-15.08-206,0,0,0,4.75,207.81,4.75,208.2,0,12.4,41.59,35.47,98.49,35.47s98.49-23.07,98.49-35.47C262.35,330.81,266.66,123.09,266.66,123.09Z"/><ellipse class="cls-5" cx="163.34" cy="122.97" rx="102.5" ry="22.89"/><path class="cls-6" d="M268.69,128.78c0,7.26-19.32,10.52-48.46,14.16-16.31,2-35.7,6.34-56.49,6.34-23.91,0-45.95-6.24-63.59-8.87-25.14-3.75-41.37-5-41.37-11.63,0-11.32,47-20.49,105-20.49S268.69,117.46,268.69,128.78Z"/><rect class="cls-6" x="58.46" y="107.96" width="211.24" height="27.18" rx="10.43" ry="10.43"/><path class="cls-7" d="M269.47,115.93c0,8.55-19.86,12.93-49.69,17.13-16.05,2.26-35,6.68-55.26,6.68-23.39,0-45-6.42-62.45-9.35-25.79-4.34-42.51-6.62-42.51-14.46,0-13.15,47-23.81,105-23.81S269.47,102.78,269.47,115.93Z"/><path class="cls-8" d="M223.43,143s32.73,90.26-36.83,221.65c0,0,66.25-7,75.75-33.4l4.09-201.59c.8,2.62-4.12,5.6-11.31,7.82C245.56,140.49,232.05,142.4,223.43,143Z"/><path class="cls-9" d="M68.6,91.15l7.19,234a12.43,12.43,0,0,0,5.13,9.3c5,3.9,13.36,9.52,23.11,12.51,2.84.88,5.53-1.23,4.47-3.52C91.59,306.87,90.31,97.8,102.79,94.11,102.79,94.11,77.74,87.45,68.6,91.15Z"/></svg>