<svg id="Layer_1" data-name="Layer 1" xmlns="http://www.w3.org/2000/svg" viewBox="0 0 2060.25 864.92"><defs><style>.cls-1{fill:#666766;}.cls-2{fill:#231f20;}.cls-3,.cls-8{fill:#fff;}.cls-4{fill:#df8026;}.cls-5{fill:#e8e8e8;}.cls-6{opacity:0.05;}.cls-7{fill:#f49c53;}.cls-8{opacity:0.4;}.cls-9{fill:#c2c1c0;}.cls-10{fill:#efd6ac;}.cls-11{fill:#e2c599;}.cls-12{fill:#ed2024;}</style></defs><title>makeyouown</title><ellipse class="cls-1" cx="1376.92" cy="763.89" rx="50.28" ry="18.39"/><path class="cls-2" d="M1315.14,626.51c3.21,0,3.22-5,0-5s-3.23,5,0,5Z"/><path class="cls-3" d="M1315.14,624l10.65,130.65a14.15,14.15,0,0,0,6.2,10.62c6.63,4.44,19.16,10.4,38.42,10.4s31.86-6,38.51-10.47a14.17,14.17,0,0,0,6.23-10.64L1425.79,624"/><path class="cls-2" d="M1313.26,624c3.54,43.36,6.23,86.88,10.61,130.16,1.62,16,22.9,21.19,36.1,22.77,12.22,1.47,25.1.51,36.74-3.64,7.27-2.58,16.31-6.37,19.28-14.09,2.35-6.12,1.82-14.18,2.34-20.59l3.33-40.9,6-73.71c.2-2.4-3.56-2.39-3.75,0l-10.43,128c-.4,4.94-1.72,9-6.18,12-7.89,5.42-17.88,8.18-27.27,9.26-12,1.37-24.65.32-36-4-7.2-2.71-15.32-6.52-16.37-15-2.56-20.68-3.4-41.72-5.09-62.48L1317,624c-.19-2.39-4-2.41-3.75,0Z"/><path class="cls-4" d="M1323.72,663l8.71,90.55a10,10,0,0,0,5.25,7.62c5.6,3.18,16.2,7.46,32.5,7.46s27-4.33,32.58-7.52a10,10,0,0,0,5.27-7.63l8.71-90.57C1411.11,662.94,1323.58,661.56,1323.72,663Z"/><ellipse class="cls-5" cx="1370.41" cy="624.35" rx="55.3" ry="14.68"/><path class="cls-2" d="M1423.84,624.35c-.28,4.41-8.63,6.71-11.83,7.71a117.25,117.25,0,0,1-25.16,4.44c-18.32,1.52-37.84,1.16-55.66-3.74-3.74-1-12.42-3-14-7.36-1.45-4.14,6.13-6.83,8.84-7.83,16.7-6.2,36.1-6.6,53.67-5.81a137.47,137.47,0,0,1,29.27,4c3.71,1,14.5,3.38,14.83,8.57.15,2.4,3.9,2.42,3.75,0-.32-5-5.33-7.67-9.41-9.43-8.23-3.55-17.4-5-26.25-6-21.44-2.41-46.3-2.58-66.86,5-4.17,1.54-10.42,4-11.64,8.9-1.14,4.54,3.07,7.81,6.58,9.7,7.66,4.12,16.86,5.63,25.37,6.77a194.64,194.64,0,0,0,37.07,1.24c11.13-.66,22.77-1.92,33.3-5.81,4.72-1.74,11.46-4.55,11.84-10.4C1427.74,621.94,1424,622,1423.84,624.35Z"/><path class="cls-6" d="M1377.55,768.16s22.1-32.16,20.57-105.41l18.54.21L1408,753.51S1409.08,764.66,1377.55,768.16Z"/><ellipse class="cls-7" cx="1370.07" cy="662.28" rx="46.32" ry="12.66"/><path class="cls-8" d="M1328.39,645.3l10.2,108.51a6.09,6.09,0,0,0,2.21,4.12,25.72,25.72,0,0,0,9,4.88,1.31,1.31,0,0,0,1.55-1.81c-7.47-16.33-14.67-113.48-10.15-115.7C1341.2,645.3,1331.66,643.22,1328.39,645.3Z"/><ellipse class="cls-1" cx="731.07" cy="773.36" rx="50.28" ry="18.39"/><path class="cls-2" d="M669.29,636c3.21,0,3.22-5,0-5s-3.23,5,0,5Z"/><path class="cls-3" d="M669.29,633.47l10.65,130.65a14.15,14.15,0,0,0,6.2,10.62c6.63,4.44,19.16,10.4,38.42,10.4s31.86-6,38.51-10.47A14.15,14.15,0,0,0,769.3,764L780,633.47"/><path class="cls-2" d="M667.41,633.47c3.54,43.37,6.23,86.88,10.61,130.17,1.62,16,22.9,21.18,36.11,22.76,12.22,1.47,25.09.51,36.73-3.63,7.27-2.59,16.31-6.38,19.28-14.1,2.35-6.12,1.82-14.18,2.34-20.59l3.33-40.9,6-73.71c.2-2.4-3.55-2.39-3.75,0l-10.43,128c-.4,4.94-1.72,9-6.17,12.06-7.89,5.42-17.88,8.18-27.28,9.25-12,1.37-24.65.32-36-4-7.2-2.71-15.32-6.52-16.37-15-2.56-20.68-3.4-41.71-5.09-62.48l-5.53-67.81c-.19-2.38-3.94-2.41-3.75,0Z"/><path class="cls-4" d="M677.88,672.49l8.7,90.55a10,10,0,0,0,5.25,7.62c5.6,3.19,16.2,7.46,32.5,7.46s27-4.32,32.58-7.51a10,10,0,0,0,5.27-7.63l8.71-90.58C765.26,672.4,677.73,671,677.88,672.49Z"/><ellipse class="cls-5" cx="724.56" cy="633.82" rx="55.3" ry="14.68"/><path class="cls-2" d="M778,633.82c-.28,4.41-8.63,6.7-11.83,7.7A116,116,0,0,1,741,646c-18.32,1.52-37.85,1.16-55.67-3.74-3.74-1-12.42-3-14-7.36-1.45-4.13,6.13-6.83,8.84-7.83,16.7-6.2,36.1-6.6,53.68-5.81a138.29,138.29,0,0,1,29.27,4c3.7,1,14.49,3.38,14.82,8.58.15,2.39,3.9,2.41,3.75,0-.32-5-5.33-7.68-9.4-9.44-8.23-3.55-17.41-5-26.25-6-21.45-2.41-46.31-2.58-66.87,5-4.17,1.54-10.42,4-11.64,8.9-1.14,4.54,3.07,7.81,6.58,9.7,7.66,4.12,16.86,5.64,25.37,6.77A193.83,193.83,0,0,0,736.6,650c11.13-.66,22.77-1.92,33.3-5.8,4.72-1.75,11.47-4.55,11.84-10.4C781.89,631.41,778.14,631.41,778,633.82Z"/><path class="cls-6" d="M731.7,777.62s22.1-32.16,20.57-105.4l18.54.2L762.18,763S763.23,774.12,731.7,777.62Z"/><ellipse class="cls-7" cx="724.23" cy="671.74" rx="46.32" ry="12.66"/><path class="cls-8" d="M682.54,654.76l10.21,108.51a6,6,0,0,0,2.2,4.12,25.56,25.56,0,0,0,9,4.88,1.31,1.31,0,0,0,1.55-1.81C698,754.13,690.83,657,695.35,654.76,695.35,654.76,685.82,652.68,682.54,654.76Z"/><ellipse class="cls-1" cx="1619.11" cy="746.12" rx="120.56" ry="44.1"/><path class="cls-3" d="M1721.56,506.52c0-17.13-26.81-46.52-38.79-58.81a20,20,0,0,1-5.68-13.95V415.28H1540.21v18.33a20,20,0,0,1-5.86,14.14c-12.44,12.41-40.36,42.12-40.36,58.77,0,0,5.24,229.54,5.24,230,0,13.7,45.94,39.18,108.79,39.18s108.78-25.48,108.78-39.18C1716.8,736,1721.56,506.52,1721.56,506.52Z"/><path class="cls-2" d="M1724,506.34c-.22-8.65-4.84-16.77-9.4-23.87a204,204,0,0,0-20.22-25.82c-6.44-7.17-14.59-13.23-14.85-23.66-.14-6,0-11.93,0-17.89,0-1.3-1.2-1.77-2.33-1.77H1540.33c-1.06,0-2.58.95-2.58,2.13,0,5.91.09,11.83,0,17.74-.16,10.82-9,17.13-15.77,24.45a214.87,214.87,0,0,0-20,24.62c-4.67,6.86-9.94,15.07-10.4,23.62-.23,4.27.16,8.64.26,12.91q.36,16.07.73,32.14,1.95,85.75,3.91,171.49c.11,4.71,0,9.48.32,14.18.72,10.62,14.28,17.73,22.48,22,20.41,10.61,43.8,15.88,66.58,18a225.35,225.35,0,0,0,80.27-6.6c16.3-4.46,35-10.92,47.29-23.15,4.48-4.46,5.83-8.58,5.95-14.52q.66-32.48,1.34-65L1724,509.52l.07-3.18c.06-2.71-4.86-2.08-4.91.36q-1.39,67.09-2.78,134.18-.82,39.42-1.64,78.85c-.11,5.46,0,11-.33,16.44-.59,9.45-13.83,15.9-21,19.55-21.19,10.74-45.43,15.77-69,17.42-26.84,1.89-54.38-.75-80.06-9a130.69,130.69,0,0,1-26.51-11.41c-5.27-3.11-11.18-6.87-14.52-12.15-2.27-3.58-1.67-8.09-1.76-12.16q-1.85-81.29-3.71-162.57-.66-28.75-1.31-57.52c-.28-12,8.06-22.9,15.08-32A274.21,274.21,0,0,1,1532,453.05c6.08-6.27,10.57-11.72,10.65-20.9.06-5.68,0-11.36,0-17l-2.58,2.14H1677l-2.33-1.78c0,5.89-.07,11.78,0,17.67.11,10,5.88,15.48,12.21,22.32a239.31,239.31,0,0,1,20,24.33c5.45,7.72,12,17.12,12.22,26.92C1719.18,509.42,1724.08,508.77,1724,506.34Z"/><path class="cls-9" d="M1677.21,391.58H1540.94v18.2c0,.11,0,.23,0,.34s0,.23,0,.35v.3h0c1.81,6.65,31.51,11.94,67.87,11.94s66.06-5.29,67.87-11.94h.48Z"/><path class="cls-2" d="M1676.6,389.34H1540.33a1.33,1.33,0,0,0-1.38,1.52v19.19c0,1.21,1.29,2.95,2.61,2.95h0l-2.52-2.39c2.5,7.15,13.46,8.83,19.73,10.14,15.94,3.3,32.48,4.1,48.72,4.19,16.43.08,33.09-.64,49.3-3.51,5.86-1,19.42-2.44,21.86-9.43l-1.35,1h.48a1.34,1.34,0,0,0,1.39-1.51v-19.2c0-2.13-4-4.48-4-1.43v19.19l1.39-1.52h-.48a1.28,1.28,0,0,0-1.35,1c-.83,2.39-5,3.59-7,4.31a85.26,85.26,0,0,1-13.75,3.31c-14.44,2.48-29.19,3.25-43.82,3.32a297.69,297.69,0,0,1-43.35-2.6,105.81,105.81,0,0,1-16.27-3.36c-1.77-.54-7.09-1.9-7.68-3.58-.35-1-1.28-2.4-2.52-2.4h0l2.61,3v-19.2l-1.38,1.52h136.26C1680.55,393.81,1678.68,389.34,1676.6,389.34Z"/><ellipse class="cls-9" cx="1608.86" cy="390.98" rx="67.96" ry="12.58"/><path class="cls-2" d="M1674.47,390.64c-.28,3.63-11,5.53-13.45,6.1-10,2.36-20.43,3.35-30.7,4-23,1.48-46.87,1.25-69.64-3a77,77,0,0,1-11.2-2.78c-1.34-.46-5.67-1.56-6.1-3.22-.82-3.14,8.73-5.35,10.64-5.87,20.79-5.64,43.72-5.79,65.09-5.23A243.57,243.57,0,0,1,1657,384.2c2.66.5,17.12,2.42,17.43,6.44.18,2.48,4.93,3.63,4.7.69-.4-5.31-7.59-7.58-11.76-8.85-10.66-3.26-22-4.44-33.06-5.28-26.47-2-54.79-2.17-80.74,4.12-4.28,1-13.51,2.81-14.91,8.07-1.33,5,5.41,7.89,9,9.22,9.7,3.61,20.49,4.78,30.73,5.73a341.1,341.1,0,0,0,44.41,1.13c13.8-.51,27.84-1.56,41.29-4.82,4.72-1.15,14.6-3.07,15.07-9.32C1679.36,388.84,1674.69,387.68,1674.47,390.64Z"/><path class="cls-3" d="M1608.45,421.8c-34.83,0-63.83-6.21-70.19-14.43a5.54,5.54,0,0,0-1.31,3.39c0,9.84,32,17.82,71.5,17.82s71.51-8,71.51-17.82a5.54,5.54,0,0,0-1.31-3.39C1672.29,415.59,1643.29,421.8,1608.45,421.8Z"/><path class="cls-2" d="M1609.16,420.19c-14.89,0-29.91-1-44.53-4-7.77-1.58-18.87-3.58-24.28-10.11-.9-1.09-3.51.09-4.1,1-10.59,16.38,37.6,21.13,44.78,21.83a273.62,273.62,0,0,0,49.49.32c12.76-1.07,26-2.8,38-7.32,5.79-2.17,17.56-7.59,12.43-15.51-.94-1.47-3.47-.35-4.32.68-5.26,6.35-16.87,8-24.41,9.47-14.16,2.73-28.67,3.57-43.07,3.61-2.06,0-4.68,3.22-1.41,3.21,16.19,0,32.57-1.11,48.41-4.66,8.2-1.84,18.85-4.29,24.5-11.11l-4.33.68c5.8,9-14.61,13-19.78,14.15-15.78,3.57-32.2,4.57-48.34,4.51-16-.05-32.23-1.17-47.79-4.89-4.58-1.09-25.62-6-20.15-14.45l-4.1,1c5.53,6.68,16.59,8.78,24.57,10.48,15.41,3.29,31.28,4.24,47,4.29C1609.81,423.41,1612.43,420.21,1609.16,420.19Z"/><path class="cls-4" d="M1710.43,517c0-15.51-206-15.07-206,0,0,0,4.75,207.81,4.75,208.2,0,12.41,41.6,35.48,98.49,35.48s98.49-23.07,98.49-35.48C1706.12,724.71,1710.43,517,1710.43,517Z"/><ellipse class="cls-7" cx="1607.12" cy="516.87" rx="102.5" ry="22.89"/><path class="cls-10" d="M1712.47,522.68c0,7.26-19.32,10.52-48.47,14.16-16.31,2-35.69,6.34-56.49,6.34-23.9,0-45.94-6.24-63.59-8.87-25.14-3.74-41.36-5-41.36-11.63,0-11.31,47-20.49,105-20.49S1712.47,511.37,1712.47,522.68Z"/><rect class="cls-10" x="1502.23" y="501.87" width="211.24" height="27.18" rx="10.43" ry="10.43"/><path class="cls-11" d="M1713.25,509.83c0,8.55-19.86,12.93-49.69,17.13-16,2.26-35,6.68-55.27,6.68-23.39,0-45-6.41-62.44-9.35-25.8-4.34-42.51-6.61-42.51-14.46,0-13.15,47-23.81,105-23.81S1713.25,496.68,1713.25,509.83Z"/><path class="cls-6" d="M1667.21,536.94s32.73,90.27-36.83,221.65c0,0,66.24-7,75.74-33.4l4.1-201.58c.8,2.62-4.13,5.59-11.31,7.82C1689.33,534.39,1675.82,536.3,1667.21,536.94Z"/><path class="cls-8" d="M1512.38,485.05l7.18,234a12.45,12.45,0,0,0,5.13,9.3c5,3.9,13.36,9.52,23.11,12.51,2.85.87,5.53-1.23,4.48-3.52-16.92-36.59-18.19-245.67-5.71-249.36C1546.57,488,1521.51,481.35,1512.38,485.05Z"/><ellipse class="cls-1" cx="520.16" cy="744.15" rx="75.87" ry="21.13"/><path class="cls-3" d="M582,532.6c-1.27-10.18-4.44-20.33-10.65-28.49-5.41-7.13-13-12.53-17.74-20.1H553l-8.53-78.75c0-2.29-1.54-4.42-3.25-6.24A3.86,3.86,0,0,1,541,394c.29-.35.5-7.73.56-10.38,0-.59,0-1.18,0-1.78l-1.44-23.36a20.43,20.43,0,0,0-.32-2.58l-4.68-25.06-.61-4a8.42,8.42,0,0,0-8.28-7H494.83a8.42,8.42,0,0,0-8.31,7.23l-.56,3.64-5.1,26.51a20.13,20.13,0,0,0-.35,3l-1.06,22.55c0,.24.1,10.48.26,10.72a3.75,3.75,0,0,1-.35,4.87c-2,2-3.82,4.4-3.82,7l-8.33,76.85-.84,0c-4.79,7.57-12.33,13-17.75,20.1-6.21,8.17-9.38,18.31-10.65,28.49s0,185.16.51,195.41H439a39.77,39.77,0,0,0,3.61,9.93,28.45,28.45,0,0,0,8,9.78c4.47,3.3,10,4.8,15.4,6,0,0,27.8,6.47,36.14,6.24,17.34-.5,34.77-.57,51.71-4.32,5.42-1.19,10.94-2.69,15.4-6a28.45,28.45,0,0,0,8-9.78A39.62,39.62,0,0,0,581,728h.52C582,717.76,583.26,542.77,582,532.6Z"/><path d="M584.4,531.93c-1.52-11.15-5.08-22-12.28-30.83-3.34-4.09-7.29-7.62-10.88-11.48-2.33-2.5-4.53-8-8.29-8.12l2.5,2.5-8.11-74.86c-.14-1.25-.26-2.5-.41-3.75-.49-4.15-3.63-6.9-3.42-11a174.5,174.5,0,0,0,.12-19.54c-.39-6.3-.38-12.77-1.33-19s-2.31-12.53-3.48-18.77c-.93-5-1-12.29-4.49-16.16-4.32-4.83-11.31-3.68-17.13-3.68-7.13,0-14.29-.17-21.42,0-8.15.19-11,5.52-12.23,12.73-1.94,11.18-5.17,22.31-5.71,33.68-.3,6.33-.78,12.68-.89,19a86.43,86.43,0,0,0,.18,9.66c.19,2,.46,3.39-.72,5.4-1.57,2.67-3,4.34-3.37,7.54-3,24.68-5.36,49.45-8,74.17l-.29,2.68,2.5-2.5c-2.14,0-2.68.88-3.87,2.54a88.24,88.24,0,0,1-9,10.08c-5.65,5.7-10.54,11.58-13.76,19a64.33,64.33,0,0,0-5.28,23.39c-.43,12.87-.32,25.77-.33,38.65q-.06,59,.57,117.93c.11,11.61-.07,23.28.49,34.88a2.55,2.55,0,0,0,2.5,2.5H439l-2.41-1.83c1.92,7.91,5.69,15.75,12.29,20.81,5,3.83,11.13,5.42,17.18,6.79,9.83,2.24,19.74,4.44,29.75,5.7,7.21.9,14.55.3,21.79,0a237.35,237.35,0,0,0,29.4-2.53c8.2-1.32,17.29-2.89,24.06-8.07,6.6-5.06,10.37-12.91,12.29-20.83L581,730.5h.52A2.54,2.54,0,0,0,584,728c1.09-22.45.6-45.07.76-67.53.22-33.54.42-67.09.26-100.63,0-9,.54-18.31-.51-27.24-.36-3.16-5.37-3.2-5,0,.87,7.37.44,15,.48,22.46.1,15,.09,30,0,45q-.12,50.31-.62,100.64c-.09,9.08,0,18.2-.42,27.27l2.5-2.5H581a2.52,2.52,0,0,0-2.41,1.83c-2.09,8.6-6.44,16.84-14.77,20.75-7.59,3.57-16.8,4.66-25,5.6-8.61,1-17.28,1.31-25.94,1.56-5.68.16-11.32.54-17-.19-9.11-1.19-18.15-3.19-27.1-5.22-4.24-1-8.57-1.82-12.54-3.67-8.31-3.9-12.68-12.16-14.76-20.74a2.55,2.55,0,0,0-2.41-1.84h-.53l2.5,2.5c-1.3-26.89-.68-54-.84-80.91-.2-34.68-.57-69.38,0-104.06a97.44,97.44,0,0,1,.5-11.47c1.32-9.9,4.84-19.79,11.26-27.53,5.37-6.47,12-11.71,16.65-18.76l-2.15,1.23.84,0a2.57,2.57,0,0,0,2.5-2.5l7.84-72.38c.14-1.28.18-2.62.42-3.88.73-3.8,4.83-6.09,5-9.95.05-1.5-.63-2.83-.84-4.26a44.47,44.47,0,0,1-.11-5.54c0-2,0-3.93.07-5.91.31-6.52.44-13.08.92-19.58.42-5.57,1.89-11.11,2.94-16.58,1-5.15,2-10.29,2.87-15.46,1.45-8.31,10.54-6.34,16.9-6.34s13.12-.43,19.58,0c7.26.48,7,7,8.07,12.63,2.21,11.86,4.25,23.23,5,35.26a182.14,182.14,0,0,1,.61,18.39,25.21,25.21,0,0,1-.74,5.42c-.47,1.84-.79,3.36.06,5.18,1.24,2.64,3.32,4.45,3.8,7.43,2.23,14,3.08,28.43,4.61,42.55L550.45,484a2.57,2.57,0,0,0,2.5,2.5h.64l-2.16-1.24c4.83,7.28,11.72,12.62,17.16,19.37,6.58,8.17,9.6,18.38,11,28.62C580,536.43,584.82,535.08,584.4,531.93Z"/><rect class="cls-12" x="484.98" y="311.8" width="51.86" height="6.61" rx="3.3" ry="3.3"/><rect class="cls-12" x="490.7" y="322.06" width="40.14" height="6.61" rx="3.3" ry="3.3"/><path class="cls-3" d="M530.27,290.94H492.13c-2.44,0-4.44,1.22-4.44,2.71l3.36,15.28c0,1.48,2,2.7,4.45,2.7h31.4c2.45,0,4.45-1.22,4.45-2.7l3.36-15.28C534.71,292.16,532.71,290.94,530.27,290.94Z"/><path d="M531.2,290.32H502.66c-4.58,0-17.16-1.93-16,5.43.42,2.77,1.22,5.54,1.82,8.27.37,1.71.48,4.12,1.28,5.72,1.66,3.33,6.6,2.52,9.75,2.52H517c3.48,0,7.27.42,10.74-.14,5.64-.92,5.52-5.37,6.56-10.12,1.13-5.12,4.33-10.95-3-11.68-.68-.07-3.33,1.11-1.86,1.25,6.39.63,2.73,7.79,1.84,11.85-.74,3.36-.6,6.85-4.5,7.58-3.44.65-7.65,0-11.14,0H501.33c-3.13,0-7.21.68-8.85-2.54s-1.73-7.87-2.47-11.24c-.44-2-1.32-3.35.19-4.77,1.18-1.1,1.7-.88,3.23-.88h35.91C530,291.57,532.63,290.32,531.2,290.32Z"/><path class="cls-4" d="M572.8,535.36c-1.1-9.18-3.86-18.34-9.26-25.7-4.71-6.44-12.26-11.31-16.42-18.14h-.56l-7.41-71.07c0-2.06-1.34-4-2.83-5.63-1.14-1.26-50.57-1.87-51.73-.69-1.76,1.78-3.32,4-3.32,6.32L474,489.79h-.73c-4.16,6.83-11.72,11.7-16.43,18.14-5.39,7.36-8.15,16.52-9.26,25.7s.91,176.34.91,176.34c.66,3.12,1.71,18.14,3.14,21a25.49,25.49,0,0,0,7,8.82c3.88,3,8.67,4.34,13.39,5.42,0,0,24.16,5.84,31.41,5.63,15.07-.45,30.22-.52,44.95-3.89,4.71-1.08,9.51-2.44,13.39-5.42a25.49,25.49,0,0,0,7-8.82,36.61,36.61,0,0,0,3.14-9l.46-12C572.81,702.45,573.91,544.54,572.8,535.36Z"/><path class="cls-6" d="M525.19,413.69l1.88,71.94a28.73,28.73,0,0,0,5.09,15.85c6.64,9.38,15.67,53.22-6.07,247.58,0,0,24.57.27,35.69-7.58,0,0,7.47-4.89,10.12-17.79,0,0,2.43-187.49.9-188.33,0,0-1.78-16.27-9.26-25.7,0,0-17.15-17.84-17-18.15s-6.21-57.74-6.21-57.74l-1.2-13.33s.38-1.85-2.83-5.63Z"/><path class="cls-8" d="M497.65,407.41c-2.06-1.27-5.09-2.35-8.1-.57l-6.35,92.27c-11.45,5.72-28.2,23.46-24.46,77a13.18,13.18,0,0,1,.14,1.76c-.67,9.91-11.54,111.13.77,152.2,1.76,5.87,3.86,6,8.12,7.84,3.73,1.6,8.62,2,11.52,2.44,4.59.76,8.76,1.33,10.9-4.12,4.81-12.24-5-47.14-7.29-76.27-3.63-46.13-2.63-88.93-2.63-88.93s-1-33.45,2.12-41.06c3.61-8.83,13.53-22.2,13.74-23a7.25,7.25,0,0,0,.19-.93,5.72,5.72,0,0,0-.07-2.11L500,411.74A4.61,4.61,0,0,0,497.65,407.41Z"/><path class="cls-6" d="M519.22,291.37s7.35,20.43-5.11,37.18l13.43.12s3.29-.15,3.31-3.3.5-16.44.5-16.44l3.36-15.28-4.44-2.71Z"/><ellipse class="cls-1" cx="419.89" cy="777.67" rx="75.87" ry="21.13"/><path class="cls-3" d="M481.71,566.11c-1.27-10.17-4.44-20.32-10.65-28.48-5.42-7.13-13-12.53-17.75-20.1l-.63,0-8.54-78.75c0-2.28-1.54-4.41-3.25-6.23a3.87,3.87,0,0,1-.13-5.06c.28-.36.49-7.73.55-10.38,0-.6,0-1.19,0-1.78L439.84,392a20.58,20.58,0,0,0-.32-2.59l-4.68-25.05-.61-4a8.43,8.43,0,0,0-8.28-7H394.56a8.42,8.42,0,0,0-8.31,7.24l-.56,3.64-5.1,26.5a21.69,21.69,0,0,0-.36,3l-1.06,22.55c0,.24.11,10.48.27,10.72a3.75,3.75,0,0,1-.36,4.87c-2,2-3.82,4.39-3.82,7l-8.33,76.86-.84,0c-4.78,7.57-12.33,13-17.75,20.1-6.2,8.16-9.38,18.31-10.65,28.48s0,185.17.51,195.41h.54a39.14,39.14,0,0,0,3.61,9.93,28.45,28.45,0,0,0,8,9.78c4.46,3.3,10,4.8,15.4,6,0,0,27.8,6.48,36.13,6.24,17.35-.49,34.78-.57,51.72-4.31,5.42-1.2,10.93-2.7,15.4-6a28.53,28.53,0,0,0,8-9.77,39.91,39.91,0,0,0,3.61-10h.53C481.72,751.28,483,576.29,481.71,566.11Z"/><path d="M484.12,565.45c-1.51-11.16-5.07-22-12.27-30.83-3.34-4.1-7.29-7.62-10.89-11.48-2.33-2.5-4.53-8-8.28-8.13l2.5,2.5-8.12-74.86c-.13-1.24-.25-2.49-.4-3.74-.49-4.16-3.63-6.91-3.42-11a172,172,0,0,0,.11-19.53c-.39-6.3-.37-12.77-1.32-19s-2.32-12.52-3.49-18.76c-.93-5-1-12.29-4.48-16.16-4.32-4.83-11.31-3.69-17.14-3.69-7.13,0-14.28-.17-21.41,0-8.16.2-11,5.53-12.24,12.74-1.94,11.18-5.17,22.31-5.7,33.68-.3,6.33-.78,12.68-.9,19a91.55,91.55,0,0,0,.18,9.66c.2,2,.47,3.39-.71,5.4-1.57,2.67-3,4.34-3.38,7.53-3,24.69-5.36,49.46-8,74.18l-.29,2.68,2.5-2.5c-2.14,0-2.68.88-3.87,2.53A86.49,86.49,0,0,1,354,525.73c-5.65,5.71-10.53,11.58-13.76,19A64.52,64.52,0,0,0,335,568.13c-.43,12.88-.32,25.78-.33,38.66q-.06,59,.56,117.93c.11,11.61-.07,23.28.49,34.87a2.55,2.55,0,0,0,2.5,2.5h.54l-2.42-1.84c1.92,7.92,5.69,15.76,12.29,20.81,5,3.84,11.14,5.43,17.19,6.8,9.83,2.23,19.74,4.44,29.74,5.69,7.22.91,14.55.3,21.8.05a237,237,0,0,0,29.39-2.53c8.21-1.33,17.3-2.9,24.06-8.08,6.61-5,10.37-12.9,12.29-20.82L480.67,764h.53a2.55,2.55,0,0,0,2.5-2.5c1.09-22.45.6-45.07.75-67.54.23-33.54.42-67.08.27-100.62-.05-9,.53-18.32-.51-27.25-.37-3.16-5.37-3.19-5,0,.86,7.38.43,15.06.48,22.47.1,15,.08,30,.05,45q-.12,50.32-.62,100.64c-.1,9.08,0,18.21-.42,27.28l2.5-2.5h-.53a2.55,2.55,0,0,0-2.41,1.84c-2.08,8.6-6.44,16.84-14.77,20.75-7.59,3.57-16.8,4.66-25,5.6-8.6,1-17.28,1.31-25.93,1.56-5.69.16-11.32.54-17-.2-9.1-1.18-18.14-3.19-27.09-5.21-4.24-1-8.58-1.82-12.54-3.68-8.32-3.9-12.68-12.15-14.76-20.74a2.54,2.54,0,0,0-2.41-1.83h-.54l2.5,2.5c-1.3-26.89-.67-54-.83-80.9-.21-34.68-.58-69.39,0-104.06a99.91,99.91,0,0,1,.49-11.48c1.32-9.89,4.84-19.79,11.27-27.53,5.36-6.47,12-11.7,16.65-18.76l-2.16,1.24.84,0a2.56,2.56,0,0,0,2.5-2.5l7.85-72.39c.13-1.28.17-2.61.42-3.87.73-3.8,4.83-6.09,5-9.95,0-1.5-.62-2.83-.83-4.26a44.67,44.67,0,0,1-.12-5.55c0-2,0-3.93.08-5.91.31-6.52.44-13.07.92-19.58.41-5.56,1.88-11.11,2.93-16.57,1-5.15,2-10.3,2.87-15.46,1.45-8.31,10.55-6.35,16.91-6.35s13.11-.43,19.57,0c7.26.49,7,7,8.07,12.63,2.22,11.86,4.26,23.24,5,35.27a181.94,181.94,0,0,1,.6,18.38,24.51,24.51,0,0,1-.73,5.42c-.47,1.84-.8,3.36.06,5.19,1.23,2.64,3.32,4.45,3.79,7.43,2.23,14,3.08,28.42,4.61,42.55l3.79,34.91a2.55,2.55,0,0,0,2.5,2.5l.63,0-2.16-1.24c4.83,7.28,11.73,12.61,17.16,19.37,6.58,8.17,9.6,18.37,11,28.62C479.73,570,484.55,568.6,484.12,565.45Z"/><rect class="cls-12" x="384.71" y="345.32" width="51.86" height="6.61" rx="3.3" ry="3.3"/><rect class="cls-12" x="390.43" y="355.58" width="40.14" height="6.61" rx="3.3" ry="3.3"/><path class="cls-3" d="M430,324.46H391.86c-2.45,0-4.45,1.22-4.45,2.71l3.37,15.27c0,1.49,2,2.71,4.44,2.71h31.41c2.44,0,4.44-1.22,4.44-2.71l3.37-15.27C434.44,325.68,432.44,324.46,430,324.46Z"/><path d="M430.92,323.83H402.38c-4.58,0-17.15-1.92-16,5.44.42,2.77,1.22,5.53,1.82,8.27.38,1.7.48,4.12,1.28,5.72,1.67,3.33,6.61,2.52,9.76,2.52h17.47c3.49,0,7.28.42,10.74-.14,5.65-.92,5.52-5.38,6.57-10.13,1.12-5.12,4.33-10.95-3.06-11.68-.68-.07-3.33,1.11-1.86,1.26,6.4.63,2.74,7.79,1.85,11.85-.74,3.36-.61,6.85-4.5,7.58-3.44.65-7.65,0-11.15,0h-14.2c-3.14,0-7.22.68-8.85-2.54s-1.73-7.87-2.47-11.24c-.44-2-1.32-3.36.18-4.77,1.18-1.11,1.71-.88,3.23-.88h35.91C429.72,325.09,432.36,323.83,430.92,323.83Z"/><path class="cls-4" d="M472.53,568.88c-1.11-9.19-3.86-18.34-9.26-25.71-4.71-6.43-12.27-11.31-16.43-18.14h-.55L438.87,454c0-2.06-1.33-4-2.82-5.63-1.15-1.26-50.57-1.87-51.73-.69-1.76,1.78-3.33,4-3.33,6.32l-7.23,69.35-.74,0c-4.15,6.83-11.71,11.71-16.42,18.14-5.4,7.37-8.16,16.52-9.26,25.71s.9,176.34.9,176.34c.66,3.11,1.72,18.14,3.15,21a25.37,25.37,0,0,0,7,8.82c3.87,3,8.67,4.33,13.38,5.41,0,0,24.17,5.85,31.41,5.63,15.08-.44,30.23-.51,45-3.89,4.71-1.08,9.5-2.43,13.38-5.41a25.49,25.49,0,0,0,7-8.82,36.93,36.93,0,0,0,3.15-9l.45-12C472.54,736,473.63,578.06,472.53,568.88Z"/><path class="cls-6" d="M424.91,447.21l1.89,71.93A28.7,28.7,0,0,0,431.88,535c6.65,9.39,15.67,53.23-6.07,247.59,0,0,24.58.26,35.69-7.58,0,0,7.48-4.89,10.13-17.79,0,0,2.42-187.5.9-188.33,0,0-1.78-16.27-9.26-25.71,0,0-17.16-17.83-17-18.15s-6.22-57.73-6.22-57.73L438.87,454s.38-1.85-2.82-5.63Z"/><path class="cls-8" d="M397.37,440.93c-2.05-1.27-5.08-2.35-8.09-.57l-6.35,92.26c-11.46,5.73-28.2,23.47-24.47,77a13.2,13.2,0,0,1,.15,1.76c-.67,9.91-11.54,111.13.77,152.2,1.76,5.86,3.85,6,8.11,7.84,3.73,1.6,8.63,2,11.53,2.44,4.58.76,8.76,1.32,10.89-4.12,4.81-12.24-5-47.14-7.28-76.28C379,647.33,380,604.53,380,604.53s-1-33.46,2.11-41.06c3.61-8.84,13.54-22.21,13.75-23a8.7,8.7,0,0,0,.19-.92,5.94,5.94,0,0,0-.07-2.11l3.74-92.18A4.58,4.58,0,0,0,397.37,440.93Z"/><path class="cls-6" d="M419,324.89s7.35,20.43-5.11,37.18l13.43.12s3.28-.15,3.3-3.3.5-16.45.5-16.45l3.37-15.27L430,324.46Z"/></svg>