<svg id="Layer_1" data-name="Layer 1" xmlns="http://www.w3.org/2000/svg" viewBox="0 0 311.45 512.17"><defs><style>.cls-1{fill:#fff;}.cls-2{fill:#666766;}.cls-3{fill:#df8026;}</style></defs><title>makeyouown</title><path class="cls-1" d="M131.26,35.4l-3.52,22.29c-1,6.14,1,12.25,7.23,14.74a12.63,12.63,0,0,0,15.61-5.11c6.86-10.54,8.58-22.7,6.45-34.93L132.92,39a116.13,116.13,0,0,1,4.74,44.31c-.72,8.8,0,16.46,4.09,24.39,3,5.79,4.09,11.28,5.18,17.78,2.53,15.09,5,30.2,6.07,45.47.55,7.76.69,15.51.56,23.29-.14,8.48.57,16.57,4.76,24.13,5.24,9.45,20.07,7.25,22.84-3,3-10.9.81-21.14-.35-32.08a53.62,53.62,0,0,1,.41-13.89,55.07,55.07,0,0,0-1-18.58,29,29,0,0,0-.77-3.43c-.5,0-2.46,11.06.06,1.83A13.25,13.25,0,0,0,178,138.91c-3.81-6.22-12.46-8.09-19.15-6.17-6.08,1.73-10.79,6.43-14,11.67-1.11,1.79-1.93,3.74-3,5.58a16,16,0,0,1-1.42,2.39c.52-.65,1.71-1.18-.42-.08l18.36,7.47a39.37,39.37,0,0,1-.77-15.14C159,134,143,128,136.29,135.79A171.52,171.52,0,0,1,115,156.53L135.91,162a22.56,22.56,0,0,1,1-11.36L112.84,144,102,191.52h24.1c.9,5.64.3,1.15.33-.46,0-1.95.14-3.91.25-5.86.29-4.81.69-9.62,1.15-14.43q.36-3.79.78-7.59c.15-1.36.31-2.73.48-4.09.09-.78.53-3.82,0-.45.27-1.82.52-3.65.86-5.45s2-5.9-.25-1L108.2,139.61,105,146.7l21.58,12.61c.35-.8.83-1.52,1.2-2.31-1.63,3.41.91-.8-.44.51s.61-.3,1.09-.62c2.35-1.53-1.84.44.82-.43,3.52-1.13,7.1-1.83,10.68-2.73,10.5-2.63,19.37-10.8,15.85-22.6a26.89,26.89,0,0,0-3.19-6.72c-.88-1.35-2.66-3.57-3.1-4.18a4.91,4.91,0,0,1-.83-2.1c.26,1.22-.11-2.54-.15-3-.09-1.12-.21-2.22-.34-3.33a30.86,30.86,0,0,0-1.92-8.61c-3.13-7.46-11.82-11.29-19.18-7.08-3.66,2.09-5.95,5.7-7.64,9.43-2.24,4.93-4.08,10-6.07,15.07-.43,1.1-.87,2.19-1.31,3.27,1.13-2.74-.36.76-.68,1.43a38.28,38.28,0,0,1-3.17,5.66l21.58,12.62c4.59-10.1,7.09-20.35,9-31.23.92-5.31,1.8-10.64,3-15.89,1.42-6,2.85-11.71,1.48-17.89-.87-3.89-3-7-2.19-11,.91-4.72,3.66-9.21,5.7-13.48,5-10.44,8.73-21.81,1-32.09l-4.48,17.1a34.69,34.69,0,0,0,4.53-3.75c.61-.65,4.53-5.21,1.35-1.87l-5.52,3.21.53-.13h-6.64l-1-.34-5.74-14.12c-.84,4.3-.38,8.35,2.39,11.82a13,13,0,0,0,4,3.61c2.59,1.57.42,1.16-1.75-2.57L134.2,25.3l-.09.49c-1.29,6.62,1.87,13.49,8.73,15.37,6.13,1.69,14.08-2.07,15.38-8.73.83-4.29.37-8.34-2.4-11.81a12.85,12.85,0,0,0-4-3.61c-2.59-1.57-.42-1.16,1.75,2.57l1.26,9.63.09-.49c1.06-5.45-.68-11.23-5.74-14.12-3.79-2.16-7.81-3.21-12.15-2a13.27,13.27,0,0,0-5.91,3.64c-1.3,1.36-4.84,4.63-.42,1.3-4.9,3.69-8.91,11.2-4.49,17.1a13.88,13.88,0,0,1,1.8,2.69,1.32,1.32,0,0,1-.58-1c.84-2.15-1.05,2.72-.8,2.09-1.7,4.37-4.15,8.47-6,12.77-4.51,10.29-6.16,19.86-2.41,30.69,1.14,3.28.19,4.83-.72,8.8-1.08,4.67-1.87,9.4-2.68,14.12-1.51,8.77-2.88,18-6.59,26.13-2.79,6.14-1.76,13.45,4.48,17.1s13.24,1.07,17.1-4.48c5.48-7.87,8.11-17.76,11.7-26.58-1.37,3.37.93-1.08,1.15-2.07.35-1.55-1.7,1.91-.9,1.14q-15.48,6-18.78-4.27c.12.4.23.81.32,1.23.52,2.35-.13-2.5.08.29.13,1.77.23,3.54.37,5.3a30.93,30.93,0,0,0,3.61,13.22c.52.91,3.78,5.32,3.31,4.64a17.33,17.33,0,0,0,1.36,2.21c.87,1-.26-.79-.3-1.35a8.9,8.9,0,0,1,2.58-7.35c-1.22,1.25,3.08-1.84.42-.49,1.13-.57,2.77-.91.64-.39-1.69.42-3.37.86-5.07,1.25-10,2.25-20.85,6.25-25.27,16.38-2.7,6.18-1.82,13.41,4.48,17.1,5.36,3.13,14.31,1.69,17.1-4.49l3.2-7.08c2.78-6.15,1.77-13.45-4.48-17.1-5.37-3.15-14.29-1.69-17.1,4.48-4.16,9.12-4.27,20.22-5.23,30.06-.9,9.32-2.42,19.18-.93,28.5,2,12.34,21.49,11.49,24.1,0L137,150.68c3.57-15.69-19.27-22-24.11-6.65a49.66,49.66,0,0,0-1,24.66c1.94,10.11,14.3,10.91,20.9,5.51A170.73,170.73,0,0,0,154,153.47l-21.34-8.84a58.08,58.08,0,0,0,1.66,21.79c2.13,8.14,11.34,11.1,18.37,7.47,4.75-2.46,8.27-6.65,10.81-11.28.89-1.63,1.61-3.37,2.56-5,.43-.72,1-1.18,1.05-1.47q1.23-1.09-.54.09c-1.66,1.23-3.54,1.14-5.64-.25l-4.48-4.48.28.45-1.26-9.63c1.17-4.58-.43,1.24-.67,2.19a15.78,15.78,0,0,0-.34,4.54c.14,3.5,1.51,6.8,2,10.24.84,5.86-.86,10.62-1,16.57-.27,10.85,4.45,22.5,1.64,32.89l22.84-3c-2.62-4.72-1.27-11.7-1.26-17.12,0-7.87-.41-15.73-1.13-23.56-1.48-16.15-4.1-32.19-6.8-48.17a63.78,63.78,0,0,0-6.63-20.46C161.19,91.09,162.67,85,163,78.65a134.71,134.71,0,0,0-6-46.26,12.77,12.77,0,0,0-15.38-8.73c-7,1.94-9.9,8.71-8.73,15.38,1,5.52-.82,10.89-3.92,15.66l22.84,9.63,3.52-22.28c1.06-6.66-1.7-13.45-8.73-15.38-5.94-1.63-14.31,2-15.37,8.73Z"/><path class="cls-1" d="M176.24,215.87c4.41,5,12.92,6.18,16.27,11.84l5.65-7.35-10.45-3.43c-5.31-1.74-9,6.65-3.85,9.14,6.42,3.13,12.64,7.21,14,14.69l8.36-4.86a72.7,72.7,0,0,0-7.27-7.82c-4.77-4.29-11.54,2.39-7.07,7.07C205.13,249,202,268.41,201.64,286h10l0-10.85-9.82,1.33c1.49,5.91.17,12.29.77,18.33.21,2.2.47,4.36.49,6.56,0,3-.06,5.94-.11,8.9-.18,10.94-.42,21.88-.65,32.83-.57,27.32-1.21,54.65-1.53,82-.09,7.42-.88,15.35.09,22.74.83,6.29,10.84,6.37,10,0-.8-6.16-.2-12.74-.14-18.93.13-12.76.37-25.51.61-38.26.5-26.19,1.14-52.38,1.59-78.56.06-3.48.17-7,.14-10.44,0-2.29-.26-4.53-.49-6.82-.71-7,.63-14.06-1.13-21-1.39-5.5-9.8-4.3-9.82,1.33l0,10.85c0,6.44,9.88,6.43,10,0,.2-10.92,1.28-22.26-.3-33.11A45.19,45.19,0,0,0,199,228.08l-7.07,7.07a72.7,72.7,0,0,1,7.27,7.82c3.48,4.2,9.17-.47,8.35-4.87-1.84-9.89-10-16.47-18.62-20.66l-3.86,9.14L195.5,230c4.2,1.38,7.8-3.7,5.65-7.34-4.25-7.18-12.67-8-17.84-13.86-4.25-4.85-11.3,2.25-7.07,7.07Z"/><path class="cls-2" d="M125.92,16.86a21.3,21.3,0,0,0,1.41,8.65,2.57,2.57,0,0,0,3.08,1.75c7.44-1.94,16.3-1.27,23.91-.6,2.61.23,3.2-3.43,1.26-4.66.64.4,1.82-4,1.48-4.93-.64-1.64-2.36-2.23-4-2.2-1.17,0-4.17.89-4.05,2.55s1.64,1.49,2-.09a3.93,3.93,0,0,0-.58-2.66,2.42,2.42,0,0,0-2.16-1.23c-4,.2-6.25,3.83-6.24,7.55l2.5-2.5c.54.93.78,1,.74.14a4,4,0,0,0,0-1.71,4.39,4.39,0,0,0-.54-1.52,3.46,3.46,0,0,0-3.5-1.83,4.36,4.36,0,0,0-3.71,3.89c0,1.75,1.32,2.78,2.34.92,1.35-2.44-1.28-5.95-3.87-5.8A4.27,4.27,0,0,0,133,14.27c-.89,1.05-.93,4.88-1.45,5.26h2.52c-.32-.22-.48-3.52-.52-3.82l-2.5,2.5h.82c3.21,0,3.22-5,0-5h-.82a2.52,2.52,0,0,0-2.5,2.5c.41,3.17.18,6.23,3,8.14a2.45,2.45,0,0,0,2.52,0,4.64,4.64,0,0,0,2.28-3.32c.68-3-1.93-3.7-1.91-.69,0,2.35,1.82,4.8,4.39,4.46a4.16,4.16,0,0,0,2.67-1.75,5,5,0,0,0,.71-1.93c.05-.63-.3-3.54-1.89-2.55-.91.56.17,3.33.66,4a3.3,3.3,0,0,0,3.52,1.41A2.55,2.55,0,0,0,147,21l1.24-2.55-2.16-1.24c-.25-.56-1,2.06-1,2.33a4.29,4.29,0,0,0,.9,2.66,3.91,3.91,0,0,0,5.22.88c.75-.42,1.91-1.32,2-2.27.15-2.3-1.57-1.81-2.32-.09-1,2.27.33,4.44,2.17,5.61l1.26-4.66c-8.11-.72-17.3-1.29-25.24.78l3.08,1.75a18,18,0,0,1-1.24-7.33c.11-3.22-4.89-3.21-5,0Z"/><path class="cls-1" d="M101.73,210.83l-.63-.19v-7.07A21.54,21.54,0,0,0,97.35,208c-1.33,2-.55,4.35.79,6.05l1.26,1.63,1-7.85C93,212.66,87.62,221.13,82.7,228.35c-5.54,8.13-9.78,17.11-11.3,26.89-1.59,10.23,1,20.05.42,30.23-.5,8.39-4.71,16.09,1.5,23.41,3,3.52,8.33.45,8.54-3.54l.81-15.53c.34-6.47-9.49-6.35-10,0q-1.48,18.81-3,37.62c-.43,5.47-.37,10.3,1.6,15.47,2.23,5.83,3.15,10.51.95,16.56l9.82,1.33a115.09,115.09,0,0,1,.84-12.71c.77-6.39-9.2-6.29-10,0a212.71,212.71,0,0,0-1.37,33.85c.37,11.5,0,23-.2,34.51-.14,10.16.07,20.31.06,30.47,0,6.73,1.94,13.56,9.8,13.89,3.76.16,6.26-4.37,4.32-7.52a26.8,26.8,0,0,1-3.67-9.69l-9.14,3.86q6.27,9,12.82,17.7l5.65-7.35a142.3,142.3,0,0,1-15.28-6.74c-5.76-2.94-10.37,5-5,8.64C81.54,467,93,473.3,105.39,477.07c13.07,4,26.76,4.15,40.3,4.22,13,.08,26.42-.35,38.64-5.18A55.71,55.71,0,0,0,210.88,454c3.52-5.49-5-10.21-8.63-5l-8.2,11.55c-1,1.44-2.27,4.06-4,4.75s-4.54-.43-6.33-1c-6.17-1.9-8.8,7.75-2.66,9.64,5.91,1.82,12.13,2.46,16.93-2.21,5.07-4.94,8.84-11.94,12.92-17.7l-8.63-5c-13.44,21-37.34,22.52-60,22.28-11.86-.12-23.6-.5-35-4.09s-21.6-9.49-31.35-16.11l-5,8.64a167.11,167.11,0,0,0,17.67,7.75c3.9,1.45,8.23-3.91,5.65-7.35q-6.57-8.75-12.82-17.7a5,5,0,0,0-9.14,3.85,34.09,34.09,0,0,0,4.67,12.07l4.32-7.52c.65.78.82.84.5.16a5.31,5.31,0,0,1-.25-1.57,31.07,31.07,0,0,1,0-3.86c0-3.83-.09-7.67-.12-11.5-.06-9.71.06-19.4.24-29.1.35-19-1.05-37.93,1.36-56.85h-10a115.09,115.09,0,0,0-.84,12.71c-.06,5.9,8,6.45,9.82,1.33a28.49,28.49,0,0,0,1.22-15.49c-.57-2.83-1.9-5.3-2.81-8a23.34,23.34,0,0,1-.74-9.41c.92-13.14,2.08-26.28,3.12-39.41h-10l-.81,15.53,8.54-3.53c-1.88-2.21-.07-6.59.45-9.11a48,48,0,0,0,1-11.84c-.37-8.3-2-16.35-.48-24.66,1.4-7.8,4.74-14.81,9.07-21.4,4-6.15,8.81-14.26,15.06-18.33,3-1.92,3-5.25,1-7.85L105.21,207l.78,6.06a8.1,8.1,0,0,1,2.18-2.41c2.12-1.89,1.67-5.12,0-7.07a8.23,8.23,0,0,0-3.78-2.38c-6-2.28-8.63,7.38-2.66,9.64Z"/><path d="M127.42,27.91c1-3.82-.45-9.73-1.16-13.5L125,16.57a82.35,82.35,0,0,1,31.33-.07l-1.22-2.15c-.85,4.4-.62,8.87-1.26,13.29l2.16-1.22a99.44,99.44,0,0,0-30.27-.65c-2.2.28-2.23,3.79,0,3.5a96.23,96.23,0,0,1,29.34.52,1.77,1.77,0,0,0,2.15-1.22c.63-4.41.41-8.9,1.25-13.29a1.77,1.77,0,0,0-1.22-2.15,87.4,87.4,0,0,0-33.19.06,1.78,1.78,0,0,0-1.22,2.15c.58,3.11,2,8.53,1.16,11.64-.57,2.18,2.81,3.11,3.37.93Z"/><path d="M122.52,28.44c.45,5.38.75,10.61-1.11,15.77C119.68,49,118,53.4,117.2,58.45c-1.41,9.28-.83,18.65-.17,28,.23,3.19,5.23,3.21,5,0-.71-10-1.5-20.21.62-30.07,1-4.65,3.21-8.82,4.4-13.38,1.23-4.76.88-9.68.47-14.53-.27-3.18-5.27-3.21-5,0Z"/><path d="M155.26,28.13a86.7,86.7,0,0,0,1,12.68c.8,4.76,2.85,9,3.94,13.69,2.4,10.25.64,22.09.42,32.55-.07,3.22,4.93,3.22,5,0,.21-10.1,1.45-20.81,0-30.84-.63-4.37-2.52-8.29-3.63-12.53a66.06,66.06,0,0,1-1.7-15.55c0-3.21-5-3.22-5,0Z"/><path d="M118.17,87.8c-5,8.7-4.88,19.24-7.24,28.79-1.93,7.85-3.85,15.71-5.84,23.55-5.22,20.56-5.58,42.87-6.34,63.93-.12,3.22,4.88,3.22,5,0,.75-20.62,1-42.47,6.17-62.6,1.87-7.37,3.67-14.76,5.49-22.14,2.33-9.46,2.22-20.46,7.07-29,1.6-2.8-2.72-5.32-4.31-2.52Z"/><path d="M161.55,90.52c2.52,3.47,3.53,7.93,5,11.94a96.83,96.83,0,0,1,3.68,14.13c2,9.66,4.18,19.29,5.61,29,1.51,10.27,2.13,20.7,3.08,31,.47,5.1.92,10.21,1.44,15.31.42,4.13,2.42,10.24,1.18,14.25-1,3.08,3.87,4.4,4.82,1.33,1.22-3.94-.27-8.7-.7-12.73-.59-5.4-1.06-10.82-1.56-16.23-1-10.79-1.69-21.66-3.17-32.41s-3.91-21.26-6.07-31.85a97.11,97.11,0,0,0-4.16-14.9c-1.48-3.93-2.33-8-4.83-11.45-1.87-2.58-6.21-.08-4.32,2.53Z"/><path d="M181.17,208.52c4.1,6.16,9.59,11,14.56,16.39a51.37,51.37,0,0,1,12.07,23.16,68.05,68.05,0,0,1,1.73,14.86c.29,13.65.25,27.31.25,41q0,57.27-.59,114.54c-.1,10.92.06,21.9-.47,32.81-.16,3.21,4.84,3.21,5,0,1.33-27.41.69-55,.85-82.47.2-34.66.61-69.35,0-104a84,84,0,0,0-1.22-14.68,58.17,58.17,0,0,0-10.1-24c-5.38-7.18-12.77-12.59-17.75-20.1-1.77-2.66-6.1-.16-4.32,2.53Z"/><path d="M98.47,203.29C89.85,214.73,79.67,226,73.34,239c-6.47,13.22-4.28,26.79-4.29,41,0,7.36.31,14.79,0,22.13-.24,5.68-1.07,10.56-.51,16.23a40.1,40.1,0,0,1,.06,5.37c-.1,2.75.41,5.19.55,7.9.13,2.47-.5,4.88-.39,7.37.12,2.72.15,5.42.17,8.16.21,25.2-.77,50.43-1.21,75.63-.19,11-1.26,22.47-.32,33.46.27,3.18,5.27,3.21,5,0-.78-9.12.07-18.62.22-27.76q.4-23.7.87-47.4c.2-10.36.55-20.75.49-31.11,0-2.57,0-5.14,0-7.71-.1-4.49.4-8.93-.19-13.39s-.09-9.08-.57-13.63c-.65-6.18.86-12.62.86-18.89,0-8.35.21-16.72-.14-25.06s-1.1-16.85,1.73-25c2.54-7.28,7.1-13.71,11.65-19.86,5.11-6.91,10.33-13.73,15.5-20.59,1.94-2.58-2.4-5.07-4.31-2.53Z"/><path d="M68.26,458.28c19.34,22,50.37,26.34,78.13,25.68,14.87-.35,31-1.73,45.19-6.53,12.55-4.26,19.67-15.07,22-27.78.56-3.15-4.26-4.5-4.83-1.33-1.14,6.39-3.5,12.78-7.91,17.66-4.27,4.73-10.15,6.76-16.19,8.2A186.19,186.19,0,0,1,142.53,479c-25.39.09-53.11-4.22-70.74-24.28-2.12-2.42-5.65,1.13-3.53,3.54Z"/><path class="cls-3" d="M170.61,160.1c-18.88,0-40.48,5.52-59.32,2.35-2.56-.43-3.6,1.91-4,4.47-2.41,17.09,3.84,27.93-4,42-5.25,9.42-20.6,26.09-23.56,34.76-7.62,22.37-5,172.82-1.6,196.4,1.09,7.63,4.07,15.63,9.51,21.09,6.06,6.08,17.5,10.54,26.05,11.17,10.55.77,21.29,1.29,31.84,2.06,16.68,1.22,40.31-3.07,51.27-15.71,6.64-7.66,6.72-14.68,7-24.81,1.24-40.52,1.15-160.16.6-175.41-.38-10.56-7.07-25.1-14.7-32.41a27,27,0,0,1-4.15-5.1c-5-7.62-7.07-12.77-8.19-22.38-1.57-13.59-1.71-14.43-1.84-27.93l-.13-2.49-.36-3.81a2.56,2.56,0,0,0-.05-.27C174.44,162,174.92,160.1,170.61,160.1Z"/><path class="cls-3" d="M119.89,165.06c-3.91-4,.31-10.68,2-14.76a34.78,34.78,0,0,0,2.79-16.51l-9.82,1.33c1.23,4.44-.46,10.28-1.47,14.64-1.09,4.7-2.23,10.14-5.13,14.12l9.32,2.52c-.23-5.14,1.34-10.58,2.32-15.58.53-2.74,1.09-5.47,1.63-8.2.7-3.61.9-6.22,5-7.31,4.91-1.32,10.2-1.25,15.23-.92s10.91.4,15.62,2.06c4.11,1.45,4.49,8.06,5.35,11.85q.93,4.13,1.63,8.3c.23,1.32.43,2.65.62,4,.16,1.12-.25,3.79,1.05,2.32l3.54-1.46c.57-.06-2-4.58-2.49-5.68-1.21-2.65-2.24-5.37-3.54-8a59,59,0,0,0-9.68-13.71l-1,7.86c-1-.59-1.3-.45-.79.41a7.35,7.35,0,0,1,.53,2.06,29.87,29.87,0,0,1,.4,5.17,38.69,38.69,0,0,1-1.46,10.64l7.35-3c-3.19-1.83-3.82-6.93-4.83-10.15l-4.19-13.37c-1.68-5.35-9.69-4.4-9.82,1.33q-.28,12.89-.34,25.78l9.31-2.52A124.88,124.88,0,0,1,143.19,147c-.81-1.81-1.55-3.65-2.25-5.51-.42-1.13-.83-2.27-1.21-3.41q-.64-3.61-1.24.37h-7.07c2.3,2.15,1.21,7.44.92,10.23-.48,4.6-1.46,9.14-2.38,13.66l9.14-1.2a152.37,152.37,0,0,1-8-24.85c-1.29-5.49-9.93-4.29-9.82,1.33a125.65,125.65,0,0,1-2.53,27.7h9.64l-4.67-14c-1.44-4.33-8.62-5.16-9.64,0a114.53,114.53,0,0,0-2.21,18.27c-.14,4.37-.24,9.89,4.49,11.89,5.86,2.48,11-6.13,5-8.63.46.83.6.69.41-.42,0-1,0-1.9.05-2.84,0-1.58.15-3.16.28-4.74A97.11,97.11,0,0,1,123.75,154h-9.64l4.67,14c1.45,4.36,8.58,5.14,9.64,0a137.56,137.56,0,0,0,2.89-30.36L121.48,139a168.36,168.36,0,0,0,9,27.24c1.67,4,8.33,2.78,9.14-1.2,1.94-9.48,7.22-25.83-1.11-33.62a5.13,5.13,0,0,0-7.07,0c-4.36,3.9-1.22,10,.53,14.47a131.17,131.17,0,0,0,8.4,17.48c2.48,4.33,9.3,2.41,9.32-2.52q0-12.88.34-25.78l-9.82,1.33c1.93,6.16,3.75,12.36,5.79,18.48,1.52,4.54,3.54,8.56,7.82,11a5,5,0,0,0,7.34-3c2-7.42,3-16.39.38-23.82-2-5.67-8.26-9.3-13.75-5.75a5.08,5.08,0,0,0-1,7.85c6.25,6.76,8.79,14.59,13,22.51,2.59,4.84,10.29,12.6,14.71,4.59,1.86-3.37.47-8-.07-11.52-.74-4.95-1.73-9.87-2.95-14.73-2-8.05-4.76-14.06-13.61-15.6-12.93-2.25-40.38-7.52-45.19,9.85-1.34,4.81-2,9.93-3,14.83s-2.35,10.29-2.12,15.33c.23,5.22,6.44,6.46,9.31,2.52,3.6-4.92,5.13-11.86,6.41-17.7s2.85-12.82,1.2-18.76c-1.46-5.27-10.27-4.45-9.82,1.33a25.85,25.85,0,0,1-1.44,11.4c-1.31,3.56-3.33,6.92-4.23,10.64-1.43,5.89-.54,11.86,3.78,16.3,4.5,4.62,11.57-2.46,7.08-7.07Z"/></svg>