<svg id="Layer_1" data-name="Layer 1" xmlns="http://www.w3.org/2000/svg" viewBox="0 0 311.45 512.17"><defs><style>.cls-1{fill:#666766;opacity:0.6;}.cls-2{fill:#231f20;}.cls-3{fill:#f78f41;}</style></defs><title>makeyouown</title><ellipse class="cls-1" cx="163.72" cy="354.74" rx="65.18" ry="40.77"/><path class="cls-2" d="M178,136.61a354.46,354.46,0,0,0-37.45-.73c-11.34.32-22.85.45-34,2.63C98.35,140.1,86,143.05,82,151.36c-4.17,8.54,2.88,13.34,10,15.72,10.3,3.44,21.27,4.31,32.05,4.94,10.39.61,20.8,1.15,31.21,1,19.68-.26,40.16-3,57.17-13.64,3.05-1.89,7.62-4.47,7.82-8.59s-3.79-5.78-7-7.09c-11.29-4.59-22.65-7.29-34.89-6.85-3.21.11-3.22,5.11,0,5a70.92,70.92,0,0,1,24.71,3.41c1.87.6,3.73,1.27,5.57,2,1.09.42,2.19.84,3.28,1.29,1.82.76,1.94.37,2,2.39.12,3.13-7.56,6.29-10.23,7.61-14.7,7.26-31.43,9.22-47.63,9.49-16.45.27-33.63-.13-49.9-2.71a80.64,80.64,0,0,1-12-2.78c-1.89-.6-4.39-1.2-6-2.38-3.51-2.49-2.36-6.63.29-9.14,6.52-6.18,18.28-7.85,26.83-8.8a336.43,336.43,0,0,1,62.75-.6c3.21.26,3.19-4.74,0-5Z"/><path class="cls-2" d="M78.1,161c3.49,49.35,7.71,98.67,13.27,147.83q2.05,18.22,4.4,36.42c.46,3.61.49,7.45,2.26,10.72a30.48,30.48,0,0,0,7,8.06c5.78,5.05,12.89,9.64,20.42,11.48,9.4,2.28,19.79,2.93,29.43,3,22.19.24,42.24-6.81,60.71-18.85,2.69-1.75.18-6.08-2.52-4.32-15.92,10.38-33.16,17.35-52.31,18.09-17.69.69-37.07-.44-51.21-12.14-2.53-2.09-5.31-4.55-6.91-7.48-2.3-4.19-2.06-10.39-2.65-15.07Q97.89,322.37,96.05,306q-3.84-34.26-6.87-68.61Q85.76,199.2,83.1,161c-.23-3.19-5.23-3.22-5,0Z"/><path class="cls-2" d="M216.6,358.16c1.86-7.91,2.12-16.32,2.6-24.39.84-13.81,1.27-27.64,1.62-41.47.84-32.51,1.13-65,1.34-97.55q.14-21.54.26-43.08c0-3.22-5-3.23-5,0-.44,58.74.14,117.62-2.89,176.3-.5,9.52-.56,19.54-2.75,28.86-.74,3.13,4.08,4.47,4.82,1.33Z"/><path class="cls-3" d="M90.76,201.75c5.54,3.53,12.37,4.21,18.92,4.8,28.6,2.56,58.13,5,85.45-3.82,5.67-1.84,11.24-4.16,17.14-5,2.39,18.79-1.16,140.85-2,146.21-2,12.47-16,14.85-27.5,20s-24.51,5.94-37.14,5.66c-13.31-.3-28.38-2.75-35.81-13.8-6.74-10-21.08-130.09-20.75-153.84"/></svg>