<svg id="Layer_1" data-name="Layer 1" xmlns="http://www.w3.org/2000/svg" viewBox="0 0 311.45 512.17"><defs><style>.cls-1{fill:#666766;}.cls-2,.cls-6{fill:#fff;}.cls-3{fill:#ed2024;}.cls-4{fill:#df8026;}.cls-5{opacity:0.05;}.cls-6{opacity:0.4;}</style></defs><title>makeyouown</title><ellipse class="cls-1" cx="197.8" cy="473.2" rx="75.87" ry="21.13"/><path class="cls-2" d="M259.62,261.65c-1.27-10.18-4.44-20.32-10.65-28.49-5.42-7.12-13-12.53-17.75-20.1h-.63l-8.54-78.75c0-2.28-1.54-4.42-3.25-6.24a3.88,3.88,0,0,1-.14-5.06c.29-.35.5-7.72.56-10.37,0-.6,0-1.19,0-1.79l-1.44-23.35a20.36,20.36,0,0,0-.32-2.59l-4.68-25.05-.61-4.05a8.43,8.43,0,0,0-8.29-7H172.47A8.41,8.41,0,0,0,164.16,56l-.56,3.64-5.1,26.51a21.55,21.55,0,0,0-.36,3l-1.06,22.55c0,.24.1,10.49.27,10.72a3.75,3.75,0,0,1-.36,4.87c-2,2-3.82,4.4-3.82,7l-8.33,76.85H144c-4.78,7.56-12.33,13-17.75,20.09-6.2,8.17-9.38,18.31-10.65,28.49s0,185.17.51,195.41h.53a39.48,39.48,0,0,0,3.62,9.94,28.51,28.51,0,0,0,8,9.77c4.46,3.3,10,4.8,15.4,6,0,0,27.8,6.48,36.13,6.24,17.34-.5,34.77-.57,51.72-4.31,5.42-1.2,10.93-2.7,15.39-6a28.34,28.34,0,0,0,8-9.78,39.48,39.48,0,0,0,3.62-9.94h.53C259.63,446.81,260.89,271.82,259.62,261.65Z"/><path d="M262,261c-1.51-11.15-5.07-22-12.27-30.83-3.34-4.09-7.29-7.62-10.89-11.48-2.33-2.5-4.53-8-8.28-8.12l2.5,2.5L225,138.19c-.13-1.25-.25-2.5-.4-3.74-.49-4.16-3.63-6.91-3.42-11a172,172,0,0,0,.11-19.53c-.39-6.31-.37-12.78-1.32-19s-2.32-12.52-3.49-18.77c-.93-5-1-12.28-4.48-16.15-4.32-4.83-11.31-3.69-17.14-3.69-7.13,0-14.28-.17-21.41,0-8.16.19-11,5.52-12.24,12.73-1.94,11.19-5.17,22.32-5.7,33.68-.3,6.33-.78,12.68-.9,19a89.12,89.12,0,0,0,.18,9.67c.2,2,.47,3.38-.71,5.39-1.57,2.67-3,4.34-3.38,7.54-3,24.68-5.36,49.46-8,74.17l-.29,2.68,2.5-2.5c-2.14,0-2.68.88-3.87,2.54a87.31,87.31,0,0,1-9.05,10.08c-5.65,5.7-10.53,11.58-13.76,19a64.41,64.41,0,0,0-5.27,23.39c-.43,12.87-.32,25.78-.33,38.65q-.06,59,.56,117.94c.11,11.6-.07,23.27.49,34.87a2.56,2.56,0,0,0,2.5,2.5h.53l-2.41-1.83c1.92,7.92,5.69,15.76,12.29,20.81,5,3.83,11.14,5.42,17.19,6.8,9.82,2.23,19.73,4.43,29.74,5.69,7.22.9,14.55.3,21.8,0a235.11,235.11,0,0,0,29.39-2.53c8.21-1.32,17.3-2.89,24.06-8.07s10.37-12.9,12.29-20.83l-2.41,1.84h.53a2.56,2.56,0,0,0,2.5-2.5c1.08-22.45.6-45.07.75-67.54.23-33.54.42-67.09.27-100.63-.05-9,.53-18.31-.51-27.24-.37-3.16-5.37-3.2-5,0,.86,7.37.43,15.06.48,22.46.1,15,.08,30,0,45q-.12,50.33-.62,100.64c-.1,9.08,0,18.2-.42,27.28l2.5-2.5h-.53a2.52,2.52,0,0,0-2.41,1.83c-2.08,8.6-6.44,16.84-14.77,20.76-7.59,3.56-16.8,4.65-25,5.59-8.61,1-17.28,1.32-25.93,1.56-5.69.17-11.33.54-17-.19-9.1-1.19-18.14-3.19-27.09-5.21-4.25-1-8.58-1.83-12.54-3.68-8.32-3.9-12.68-12.15-14.76-20.74a2.57,2.57,0,0,0-2.42-1.84h-.53l2.5,2.5c-1.3-26.89-.68-54-.83-80.91-.21-34.68-.58-69.38,0-104.06a99.83,99.83,0,0,1,.49-11.47c1.32-9.9,4.84-19.79,11.27-27.53,5.36-6.47,12-11.71,16.65-18.76L144,213.64h.84a2.55,2.55,0,0,0,2.5-2.5l7.85-72.38c.13-1.28.17-2.61.42-3.88.73-3.8,4.83-6.08,5-9.95.05-1.5-.62-2.83-.83-4.26a44.47,44.47,0,0,1-.12-5.54c0-2,0-3.93.08-5.91.3-6.52.44-13.07.92-19.58.41-5.56,1.88-11.11,2.93-16.57,1-5.16,2-10.3,2.87-15.47,1.45-8.31,10.55-6.34,16.91-6.34s13.11-.43,19.57,0c7.26.48,7,7,8.07,12.63,2.22,11.86,4.26,23.23,5,35.26a182.13,182.13,0,0,1,.6,18.39,24.51,24.51,0,0,1-.73,5.42c-.47,1.84-.8,3.36.06,5.19,1.23,2.63,3.32,4.44,3.79,7.42,2.23,14,3.08,28.43,4.61,42.55l3.79,34.92a2.55,2.55,0,0,0,2.5,2.5h.63l-2.16-1.23c4.83,7.27,11.73,12.61,17.16,19.36,6.58,8.17,9.6,18.38,11,28.62C257.64,265.49,262.46,264.13,262,261Z"/><rect class="cls-3" x="162.62" y="40.86" width="51.86" height="6.61" rx="3.3" ry="3.3"/><rect class="cls-3" x="168.34" y="51.12" width="40.14" height="6.61" rx="3.3" ry="3.3"/><path class="cls-2" d="M207.9,20H169.77c-2.45,0-4.45,1.22-4.45,2.71L168.69,38c0,1.48,2,2.7,4.44,2.7h31.41c2.44,0,4.44-1.22,4.44-2.7l3.36-15.28C212.34,21.21,210.34,20,207.9,20Z"/><path d="M208.44,19.07H179.9c-3.18,0-6.42-.16-9.6,0-4.53.23-6.85,2.07-5.9,6.41L166.27,34c.33,1.5.43,4,1.25,5.35,1.82,3.08,7,2.29,10,2.29H195c3.48,0,7.35.48,10.8-.15,5.55-1,5.35-6.74,6.35-11.27,1.16-5.28,3.75-10.38-3.68-11.12-1.26-.12-3,1.66-1.08,1.85a3.89,3.89,0,0,1,3.33,2.82A8.34,8.34,0,0,1,210.2,26l-1.61,7.3c-.78,3.52-.73,6-4.87,6.47-8.11,1-17,0-25.15,0-3,0-6.61.64-8.5-2.47-.68-1.13-.72-3.26-1-4.53l-1.61-7.31c-.5-2.28-1.38-3.75,1.81-4.53a11,11,0,0,1,2.43,0h35.66C208.59,20.92,210.39,19.07,208.44,19.07Z"/><path class="cls-4" d="M250.44,264.41c-1.11-9.18-3.87-18.34-9.26-25.7-4.71-6.43-12.27-11.31-16.43-18.14h-.55l-7.42-71.07c0-2.06-1.34-4-2.82-5.63-1.15-1.26-50.57-1.87-51.74-.69-1.75,1.78-3.32,4-3.32,6.32l-7.24,69.36-.73,0c-4.15,6.83-11.71,11.71-16.42,18.14-5.4,7.36-8.16,16.52-9.26,25.7s.9,176.34.9,176.34c.66,3.12,1.72,18.14,3.14,21a25.61,25.61,0,0,0,7,8.83c3.88,3,8.68,4.33,13.39,5.41,0,0,24.17,5.84,31.41,5.63,15.08-.45,30.23-.52,45-3.89,4.71-1.08,9.5-2.44,13.38-5.41a25.67,25.67,0,0,0,7-8.82,36.41,36.41,0,0,0,3.14-9l.46-12C250.45,431.5,251.54,273.59,250.44,264.41Z"/><path class="cls-5" d="M202.82,142.75l1.89,71.93a28.72,28.72,0,0,0,5.08,15.85c6.65,9.38,15.67,53.22-6.07,247.58,0,0,24.58.27,35.69-7.57,0,0,7.48-4.89,10.12-17.8,0,0,2.43-187.49.91-188.33,0,0-1.78-16.27-9.26-25.7,0,0-17.16-17.83-17-18.15S218,162.82,218,162.82l-1.2-13.33s.38-1.85-2.82-5.63Z"/><path class="cls-6" d="M175.28,136.46c-2.06-1.26-5.09-2.35-8.09-.57l-6.35,92.27c-11.46,5.72-28.2,23.46-24.47,77a13.33,13.33,0,0,1,.15,1.76c-.67,9.91-11.54,111.14.77,152.2,1.75,5.87,3.85,6,8.11,7.84,3.73,1.6,8.63,2,11.53,2.45,4.58.75,8.75,1.32,10.89-4.13,4.81-12.24-5-47.14-7.28-76.27-3.64-46.13-2.63-88.93-2.63-88.93s-1-33.45,2.11-41.06c3.61-8.83,13.54-22.2,13.75-23a9.49,9.49,0,0,0,.19-.93,5.88,5.88,0,0,0-.07-2.1l3.74-92.18A4.62,4.62,0,0,0,175.28,136.46Z"/><path class="cls-5" d="M196.85,20.42s7.36,20.43-5.1,37.18l13.43.13s3.28-.16,3.3-3.31S209,38,209,38l3.36-15.28L207.9,20Z"/></svg>