<svg id="Layer_1" data-name="Layer 1" xmlns="http://www.w3.org/2000/svg" viewBox="0 0 311.45 308.18"><defs><style>.cls-1{fill:#231f20;}.cls-2{opacity:0.6;}.cls-3{fill:#4f3c18;}.cls-4{fill:#edcc7c;}</style></defs><title>makeyouown</title><path class="cls-1" d="M153.42,117.14l-30.89,0-13.52,0c-3.4,0-7-.19-10.15,1.25-3.36,1.52-5.9,4.65-8.44,7.21l-9.59,9.65q-11,11-21.91,22.06c-1.27,1.28,1.52,1.75,2.42.84l19.18-19.3,8.21-8.27c3.37-3.39,7.77-9.45,12.45-10.88,3.79-1.15,8.52-.46,12.39-.45l12.55,0,27,0c1.65,0,2.23-2.09.26-2.1Z"/><g class="cls-2"><path class="cls-3" d="M55.82,204.69c-1.85,6-4.9,11.62-6.84,17.62s-2.7,12.76,0,18.45c4.77,10.05,17.62,12.62,28.66,14,28.63,3.46,58.25,6.84,85.86-1.49,4.5-1.36,9.08-3.13,12.31-6.54,3.92-4.16,5.25-10.08,6.12-15.73,1.22-7.86.84-17.83-6.32-21.31-6.66-3.24-14.19,1.53-20.65,5.15a73,73,0,0,1-54.09,6.7c-15.93-4.31-30.38-14.05-46.81-15.59"/></g><path class="cls-4" d="M152.81,117.89a161.8,161.8,0,0,0,22.24,43.43"/><path class="cls-1" d="M151.36,118.28a167.88,167.88,0,0,0,22.35,43.64c.66.93,3.45-.11,2.68-1.2a166.17,166.17,0,0,1-22.14-43.21c-.39-1.16-3.28-.35-2.89.77Z"/><path class="cls-1" d="M56.22,159c-3.92,13.13-7.88,26.25-11.78,39.38C41,210,37.66,221.77,37.26,233.91c-.17,5.3-.48,12.43,2.32,17.17,2.22,3.75,6.51,4.93,10.43,6.08A175.68,175.68,0,0,0,86.7,263.6c23.87,1.78,47.85-.41,71.51-3.55,8.19-1.08,17.21-2.14,24.17-7,8.28-5.79,8.09-15.63,8.51-24.8.66-14,.77-28.32-.91-42.25-1.28-10.67-4.36-21.34-12.75-28.58-.62-.54-3.24.57-2.72,1,14.73,12.71,13.76,36.41,13.84,54.11q0,8.25-.35,16.48c-.27,5.64,0,12.27-2.41,17.49-4.52,9.61-16.63,11-26,12.24-22.91,3.05-46.1,5.23-69.23,3.72a179.66,179.66,0,0,1-33.56-5.25C52,256,45.3,255,42.48,250.31c-2.52-4.17-2.4-10.62-2.36-15.3.1-13.32,4-26.25,7.73-38.91s7.49-25,11.24-37.56c.2-.67-2.63-.31-2.87.48Z"/><path class="cls-1" d="M123.21,114.67c-5.66-20.43-11.7-43.45-.94-63.32C134,29.77,159.94,30.78,181.32,32c18.34,1,46.52,5.3,53.47,25.75,7.38,21.74-16.42,38.09-25.43,55-4,7.43-7.13,17.91-1.43,25.31,5.17,6.72,14.94,7.8,22.77,8.44,1.25.11,3-1.69,1.07-1.85-10.7-.88-24.15-3.72-24-17.12.13-11.47,8.26-21.34,15.07-29.8,11.56-14.38,24.29-34.48,8.52-50.84-14.36-14.89-38.59-16.77-58-17-18.09-.22-38.29.11-50.28,15.84-15.58,20.43-9,47.26-2.77,69.8.32,1.16,3.21.38,2.89-.78Z"/><path class="cls-3" d="M225.11,144.87,250,134.19a48.18,48.18,0,0,1,10.6-3.59c12-2.07,23.43,5,33.55,11.71.62.41,1.3.91,1.39,1.65a2.66,2.66,0,0,1-.71,1.75,394.36,394.36,0,0,1-27,32.84,9.81,9.81,0,0,1-3.42,2.74c-2.6,1-5.47-.31-7.94-1.6-5.48-2.86-11-5.78-15.5-10s-7.78-10.14-7.57-16.31c.12-3.42-.37-8.63-3.73-8"/><path class="cls-1" d="M56,193.43a100.57,100.57,0,0,0,46.22,7.4l.81-1.45-1.42.26c-1.29.24-2.45,1.79-.44,1.42l1.42-.26c.8-.15,2.67-1.59.8-1.45a97.89,97.89,0,0,1-45.06-7.23c-.78-.32-3.43.86-2.33,1.31Z"/><path class="cls-1" d="M74.5,202.1a41.09,41.09,0,0,1-7.76,20.83c-.82,1.14,2.11,1,2.73.16a42.39,42.39,0,0,0,7.94-21.31c.11-1.28-2.82-.77-2.91.32Z"/><path class="cls-1" d="M96,208a41.9,41.9,0,0,1-10.44,19.86c-.5.53.44.76.77.78a134.46,134.46,0,0,0,19.46-.12c1.38-.11,2.44-1.66.43-1.5a130.24,130.24,0,0,1-18.74.07l.76.78a42.72,42.72,0,0,0,10.65-20.26c.22-1-2.69-.55-2.89.39Z"/><path class="cls-1" d="M88.69,216.93a98.08,98.08,0,0,1,17.79,1c1.26.19,3-1.56,1.07-1.85a102.53,102.53,0,0,0-18.53-1c-1.53.06-2.33,1.91-.33,1.83Z"/><path class="cls-1" d="M92.29,207.07a65.22,65.22,0,0,0,23.25,4.59c.94,0,3.13-1.36,1.2-1.39a62.32,62.32,0,0,1-22.11-4.46c-.74-.29-3.37.85-2.34,1.26Z"/><path class="cls-1" d="M111,231.62a166,166,0,0,1,18.53-19.34c2.31-2,5.31-5.42,6.53-.49.36,1.42-.61,4.06-.86,5.43a104.33,104.33,0,0,1-4.28,15.62c-.53,1.51,2.35,1.36,2.75.25,1.35-3.8,10.64-27.82,1.43-27-4.06.37-8.5,5.87-11.27,8.45a166.68,166.68,0,0,0-15.22,16.33c-1.14,1.4,1.62,1.68,2.39.74Z"/><path class="cls-1" d="M113,220.16a189.57,189.57,0,0,0,28.29,1.18c1.68-.05,2.19-2.3.22-2.24A185,185,0,0,1,114,218c-1.49-.18-2.92,2-1,2.21Z"/><path class="cls-1" d="M115.73,118.69l-3.6,13.1a.25.25,0,0,0,.25.32,113.62,113.62,0,0,0,20.93,1.09c.47,0,2.09-.31,2.07-1a83.85,83.85,0,0,1,.46-11.75c0-.41-2.8-.12-2.9.78a82.3,82.3,0,0,0-.45,11.75l2.07-1c-4.93.2-11.34.8-16.17-.54-1.51-.42-2.62-.92-2.79-2.33-.13-1,.71-2.6,1-3.64l2-7.27c.18-.64-2.65-.27-2.86.49Z"/><path class="cls-1" d="M65.51,154.28q55.3,1.09,110.33,7.27c.73.08,3.35-1.15,1.84-1.32q-55.29-6.19-111-7.29c-.89,0-3.13,1.3-1.21,1.34Z"/><path class="cls-1" d="M150.77,119.8c-1.39,24.15,12,45.92,12.67,69.88.68,25-9.34,48.81-20.55,70.61-.74,1.45,2.19,1.45,2.77.32,11-21.46,20.85-44.81,20.74-69.36s-14.11-47-12.7-71.68c.09-1.48-2.86-1.07-2.93.23Z"/></svg>