<svg id="Layer_1" data-name="Layer 1" xmlns="http://www.w3.org/2000/svg" viewBox="0 0 311.45 512.17"><defs><style>.cls-1{fill:#231f20;}.cls-2{fill:#df8026;}</style></defs><title>makeyouown</title><path class="cls-1" d="M179.43,137.49c-12.77-1.07-25.56-1.6-38.37-1.51-11.38.08-23,.25-34.19,2.4-8.18,1.57-20.5,4.48-24.58,12.78-4.19,8.53,2.85,13.35,10,15.75,10.29,3.47,21.26,4.37,32,5,10.39.65,20.8,1.21,31.21,1.11,19.68-.2,40.16-2.93,57.21-13.47,3.05-1.89,7.63-4.46,7.84-8.58s-3.78-5.82-7-7.1a95.27,95.27,0,0,0-38.34-6.45c-3.21.11-3.22,5.11,0,5a92.09,92.09,0,0,1,27.45,3.08c2.06.57,4.11,1.2,6.12,1.91,1.15.4,2.31.82,3.44,1.28,1.83.75,2,.38,2,2.39.1,3.14-7.59,6.27-10.26,7.59-14.73,7.21-31.46,9.11-47.66,9.34-16.45.22-33.63-.24-49.89-2.86-6-1-27.8-4.86-17.7-14.36,6.55-6.16,18.32-7.78,26.86-8.71,21-2.31,42.78-1.38,63.84.38,3.2.26,3.18-4.74,0-5Z"/><path class="cls-1" d="M78.38,160.76c3.35,49.36,7.42,98.69,12.84,147.87q2,18.24,4.29,36.43c.45,3.62.47,7.45,2.23,10.73a30.46,30.46,0,0,0,6.93,8.08c5.76,5.07,12.86,9.68,20.39,11.53,9.38,2.31,19.78,3,29.41,3.13,22.19.31,42.27-6.68,60.77-18.67,2.69-1.75.19-6.08-2.52-4.32-15.95,10.34-33.21,17.25-52.37,17.93-17.73.64-37-.57-51.16-12.29-2.54-2.1-5.31-4.58-6.9-7.51-2.28-4.19-2-10.39-2.59-15.08q-2-16.38-3.8-32.79-3.74-34.28-6.66-68.63-3.3-38.17-5.86-76.41c-.21-3.19-5.22-3.22-5,0Z"/><path class="cls-1" d="M216.3,358.35c7.82-32.44,7.07-65.59,6.9-98.74-.17-35.91-.83-71.82-.46-107.74,0-3.22-5-3.22-5,0-.36,35.26.27,70.51.45,105.76.18,33.33,1.16,66.77-6.71,99.39-.76,3.13,4.06,4.46,4.82,1.33Z"/><path class="cls-2" d="M90.93,201.57c5.53,3.55,12.36,4.25,18.9,4.86,28.6,2.64,58.11,5.19,85.47-3.57,5.67-1.81,11.24-4.12,17.14-5,2.34,18.8,2.5,37.79,2.66,56.73l.14,16c.09,10.86-.1,22.47-.8,33.31-.41,6.36-.35,14.33-1.27,20.26-.83,5.36-2.3,14.58-3.16,19.94-2,12.47-16,14.8-27.56,19.89s-24.53,5.88-37.15,5.55c-13.32-.33-28.38-2.83-35.78-13.9-6.7-10-4.57-23.26-6-35.25-1-9-4.23-17.74-5.08-26.8-.67-7.08.1-14.22,0-21.33-.21-23.75-9.67-46.77-9.28-70.53"/></svg>