<svg id="Layer_1" data-name="Layer 1" xmlns="http://www.w3.org/2000/svg" viewBox="0 0 1440 900"><defs><style>.cls-1{fill:#231f20;}.cls-2{fill:#f78f41;}.cls-3{fill:#efd6ac;}.cls-4{fill:#cca26b;}.cls-5{opacity:0.4;}.cls-6{fill:#fff;}.cls-7{fill:#666766;}.cls-8{fill:#e5e5e5;stroke:#231f20;stroke-miterlimit:10;stroke-width:0.4px;}</style></defs><title>makeyouown</title><path class="cls-1" d="M180.56,649.94c-12.33,0-28-.55-37.76,8.71-2.66,2.53-4,7-.49,9.51,2.15,1.49,5.31,1.54,7.8,1.82a99,99,0,0,0,13.45.48,220.49,220.49,0,0,0,24.49-1.87c5-.7,14.77-1.89,18-6.57,2.16-3.13-.17-7-3-9-5.69-4-15.69-3.17-22.14-2.88-1.28.06-1.28,2.06,0,2,5.48-.25,11-.4,16.38.93,2.26.55,6.22,1.64,6.88,4.27.56,2.21-1.66,4.7-3.39,5.81a19.65,19.65,0,0,1-4.67,1.73c-10.2,3.08-22,3.29-32.56,3.56-5.08.12-12.18.8-17-1-10.92-4.05,2.59-10.91,7.05-12.63,8.56-3.29,17.94-2.88,26.95-2.91a1,1,0,0,0,0-2Z"/><path class="cls-1" d="M138.89,665.78a9.11,9.11,0,0,0,10.82,11.34c1.26-.26.72-2.19-.53-1.93a7.09,7.09,0,0,1-8.36-8.88,1,1,0,0,0-1.93-.53Z"/><path class="cls-1" d="M205.18,661.05a5.74,5.74,0,0,1,1.16,6c-.92,2.35-3.17,3.06-5.2,4.19-1.13.62-.12,2.35,1,1.72,2.75-1.53,5.4-2.62,6.28-5.93a7.75,7.75,0,0,0-1.83-7.36c-.88-.94-2.29.48-1.42,1.42Z"/><path class="cls-1" d="M140.5,674.85c0,3.27.6,7.36-3,9-1.18.52-.16,2.24,1,1.72,4.35-1.93,4-6.67,4-10.68a1,1,0,0,0-2,0Z"/><path class="cls-1" d="M205.59,668.48a7.91,7.91,0,0,0,2.82,6.47c1,.82,2.41-.59,1.42-1.41a6,6,0,0,1-2.24-5.06c.06-1.29-1.94-1.29-2,0Z"/><path class="cls-1" d="M210.72,675.51c6.58,1.84,13.74,6.23,16.54,12.8,1.89,4.44,2.42,9.85,3.12,14.59,2.13,14.36,4.49,28.76,6.05,43.2,1.19,11,2,22.13,2.42,33.18.23,5.48.47,11.23-.59,16.65-1,5.05-4.72,7.53-8.74,10.4-9.84,7-23.31,9.63-35.13,11.51-12.3,1.95-26.24,3.23-38.34-.09-4.28-1.16-10.34-2.25-13.22-5.9-3-3.8-4.39-9.17-5.79-13.71A272.11,272.11,0,0,1,130.12,769a464.26,464.26,0,0,1-6.4-48.3c-.61-7.39-1.42-16.26,1.81-23.17,3.73-8,11.56-12.09,19.78-13.92,1.25-.28.72-2.21-.53-1.93-13.32,3-22.39,11.66-23.33,25.54-1,15.24,2.1,31.21,4.14,46.27a318.29,318.29,0,0,0,7.47,38c2.07,7.87,4.17,21.05,12.47,24.86,12.33,5.66,25,5.65,38.28,4.73a124.21,124.21,0,0,0,19.28-2.86c6.87-1.59,14.55-3.07,21-6a46.46,46.46,0,0,0,13.26-9.55c2.63-2.77,3.1-6.56,3.42-10.24,1-11.48-.46-23.32-1.27-34.79-1.3-18.27-4.45-36.38-7.05-54.5-.78-5.42-1.23-12.31-4-17.11-3.68-6.29-10.27-10.45-17.11-12.37a1,1,0,0,0-.53,1.93Z"/><path class="cls-2" d="M176.92,703.2a6,6,0,0,1-1.64.08c-6.22-.52-33.88-2.5-44.52,2.64-1.42.69-5.09,1.58-5.09,4.42,0,4.65,10.31,74.36,17.06,90.16,2.22,5.22,4.86,10.88,10,13.24a21.46,21.46,0,0,0,8.12,1.48,168.93,168.93,0,0,0,63.44-9.65c3.82-1.37,7.78-3,10.37-6.16,3.45-4.2-4.6-76.09-7.16-98.72a6.24,6.24,0,0,0-7.32-5.43Z"/><path class="cls-3" d="M226,709.63c-1.57-3.45-5-5.63-8.42-7.31-26.49-13.14-59.9-7-83.62,10.67-2.4,1.79-4.93,4.13-4.85,7.11.11,4.39,5.41,6.4,9.7,7.3l19.16,4c8.1,1.68,16.44,3.37,24.59,1.93,11.21-2,20.79-9.67,32-11.55,2.77-.46,5.64-.56,8.3-1.49s5.18-2.9,5.75-5.66-1.7-6-4.49-5.67"/><path class="cls-4" d="M128.55,723.38c.54,3.24,3.35,4.52,6.31,5.22,6.57,1.55,13.59,2,20.26,3,12.41,1.83,23.71,3.19,35.62-1.65,5.45-2.22,10.64-5,16.18-7,6.24-2.23,13.11-2.13,19.26-4.43,2.52-.94,4.26-2.6,3.34-5.49-1-3.29-4.74-3.9-7.68-4.28-1.27-.16-1.26,1.84,0,2q5-.37,3.81,5.84-1.77.54-3.57.9c-1.81.39-3.64.65-5.46,1a60.69,60.69,0,0,0-11.79,3.15c-7,2.73-13.61,6.6-20.91,8.63-9.35,2.59-18.87.83-28.27-.55l-13.38-2c-3.41-.5-11-.32-11.79-4.87-.21-1.27-2.13-.73-1.93.53Z"/><g class="cls-5"><path class="cls-4" d="M212.76,710.53a25.6,25.6,0,0,0-14.8,5.92c-1,.82.43,2.23,1.42,1.42a23.18,23.18,0,0,1,13.38-5.34c1.27-.09,1.28-2.09,0-2Z"/></g><g class="cls-5"><path class="cls-4" d="M180.15,720.26c-7.4,3.13-15.3,2.61-23.07,1.48-1.25-.18-1.8,1.75-.53,1.93,8.38,1.22,16.66,1.68,24.61-1.68,1.18-.5.16-2.22-1-1.73Z"/></g><g class="cls-5"><path class="cls-4" d="M142.26,720.78a14.4,14.4,0,0,0-2.7-.94,4.12,4.12,0,0,1-1.8-.75c-1.16-1.38.51-2.83,1.38-3.49a31.78,31.78,0,0,1,7.8-4.05c1.19-.45.67-2.38-.54-1.93a39.48,39.48,0,0,0-6.46,3.09c-1.57.95-3.41,2-4.18,3.79a3.61,3.61,0,0,0,.42,3.79c1.27,1.51,3.43,1.35,5.07,2.22,1.13.6,2.15-1.12,1-1.73Z"/></g><path class="cls-1" d="M162.12,58.62a202.56,202.56,0,0,0-24.35,2c-6.24.83-15.17,1.82-19.7,6.83-10,11,18.58,10.1,22.65,10,12.84-.46,26.79-1.34,37.69-8.93,2.28-1.59,6.26-4.48,3-7.12-2.1-1.69-6.6-2.11-9.18-2.51a36.54,36.54,0,0,0-9.91-.13c-1.27.14-1.28,2.15,0,2A38.24,38.24,0,0,1,177.16,62c1.54.44,2.33.22,2.47,1.88s-1.55,2.38-2.86,3.28a35.44,35.44,0,0,1-5.88,3.17c-8.73,3.8-18.42,4.57-27.82,5a123.38,123.38,0,0,1-14.26.13,44.93,44.93,0,0,1-5.3-.69c-3.12-.61-2.82-.09-2.2-4.15s1.39-4.23,5-5.52c1.1-.39,2.22-.71,3.34-1,10.36-2.66,21.78-3.34,32.44-3.47a1,1,0,0,0,0-2Z"/><path class="cls-1" d="M115.24,74.49q3.87,24.26,8.31,48.42,2.27,12.15,4.73,24.26,1.13,5.51,2.3,11c.57,2.63.8,6.14,2.13,8.52,4.87,8.72,17.33,9.31,25.89,9,11.71-.48,21.66-4.69,30.87-11.83,1-.79-.41-2.2-1.42-1.42a51.07,51.07,0,0,1-32.4,11.3c-5.67,0-10.79-.3-15.76-3.27-2.3-1.37-4.71-3-5.8-5.56-1.25-2.9-1.51-6.89-2.16-10-5.69-26.83-10.44-53.86-14.76-80.95-.2-1.27-2.13-.73-1.93.53Z"/><path class="cls-1" d="M189.68,163.39c.75-5.42.3-11.07.09-16.51-.38-9.32-1-18.63-1.64-27.94-1.29-18.36-2.85-36.7-4.31-55-.1-1.27-2.1-1.28-2,0,1.43,17.93,3,35.86,4.22,53.8.65,9.23,1.26,18.47,1.66,27.72.25,5.71.83,11.75.05,17.44-.17,1.26,1.76,1.81,1.93.54Z"/><path class="cls-2" d="M122.81,93.41c2.81,1.47,6.13,1.51,9.3,1.51,13.86,0,28.17,0,40.93-5.43a51.34,51.34,0,0,1,8-3.13c1.94,8.94,5.37,67.79,5.19,70.4-.42,6.08-7,7.81-12.38,10.76s-11.54,3.89-17.63,4.29c-6.41.41-13.76-.13-17.8-5.13-3.66-4.53-15.6-61.68-16.45-73.11"/><path class="cls-1" d="M1347.09,438.56a202.55,202.55,0,0,0-24.35,2c-6.24.83-15.17,1.83-19.7,6.84-10,11,18.58,10.09,22.65,9.94,12.84-.46,26.79-1.34,37.69-8.92,2.28-1.59,6.26-4.49,3-7.13-2.1-1.69-6.6-2.1-9.18-2.51a37,37,0,0,0-9.91-.12c-1.27.14-1.28,2.14,0,2a37.86,37.86,0,0,1,14.85,1.3c1.54.43,2.33.21,2.47,1.88s-1.55,2.38-2.86,3.27a35.49,35.49,0,0,1-5.88,3.18c-8.73,3.79-18.42,4.56-27.82,5a121.18,121.18,0,0,1-14.26.13,44.91,44.91,0,0,1-5.3-.68c-3.12-.62-2.82-.1-2.2-4.15s1.39-4.23,5-5.53c1.1-.39,2.22-.71,3.34-1,10.36-2.66,21.78-3.33,32.44-3.46a1,1,0,0,0,0-2Z"/><path class="cls-1" d="M1300.21,454.43q3.87,24.26,8.31,48.41,2.26,12.15,4.73,24.27,1.13,5.5,2.3,11c.57,2.64.8,6.14,2.13,8.53,4.87,8.72,17.33,9.3,25.89,9,11.71-.48,21.66-4.69,30.87-11.83,1-.79-.41-2.19-1.42-1.41a51.1,51.1,0,0,1-32.4,11.3c-5.67,0-10.79-.3-15.76-3.27-2.3-1.37-4.71-3-5.8-5.56-1.25-2.91-1.51-6.9-2.16-10-5.69-26.84-10.44-53.87-14.76-81-.2-1.27-2.13-.73-1.93.53Z"/><path class="cls-1" d="M1374.65,543.32c.75-5.42.3-11.07.09-16.51-.38-9.32-1-18.63-1.64-27.93-1.29-18.36-2.85-36.7-4.31-55.05-.1-1.28-2.1-1.29-2,0,1.43,17.93,3,35.85,4.22,53.79.65,9.23,1.26,18.47,1.66,27.72.25,5.71.83,11.76,0,17.45-.17,1.26,1.76,1.8,1.93.53Z"/><path class="cls-2" d="M1307.78,473.35c2.81,1.46,6.13,1.5,9.3,1.51,13.86,0,28.17,0,40.93-5.43a51.34,51.34,0,0,1,8-3.13c1.94,8.93,5.37,67.78,5.19,70.39-.42,6.09-7,7.82-12.38,10.77s-11.54,3.89-17.63,4.28c-6.41.42-13.76-.13-17.8-5.13-3.66-4.53-15.6-61.67-16.45-73.11"/><path class="cls-6" d="M1019.19,520.2c1.44.23,2.06,1.18,1.85,2.85-1.89,2.14-.1,5.91,2.92,5s5.54-2.63,8.41-3.82c3.7-1.55,7.59-2.69,11.39-4,7.36-2.48,14.71-5.3,22.23-7.25,16.11-4.17,33-6.18,49.56-8a3.05,3.05,0,0,0,2.12-5.13l-.56-2.24a3,3,0,0,0-3.69-3.69c-15,3.66-30.26,5.39-45.37,8.35-15.42,3-30.77,7.82-45.86,12.21-3.7,1.07-2.12,6.86,1.6,5.78,15.09-4.38,30.44-9.19,45.86-12.21,15.11-3,30.38-4.69,45.36-8.35l-3.69-3.69c-.73,3.3,0,5.5,2.1,8.09l2.13-5.12c-16.46,1.8-33.17,3.88-49.28,7.74-7.88,1.88-15.51,4.82-23.17,7.4-3.67,1.24-7.37,2.39-11,3.74-3.32,1.24-6.36,3.37-9.73,4.37l2.92,5c3.92-4.44,2.32-10-3.07-12.28-3.52-1.48-6.58,3.69-3,5.19Z"/><path class="cls-6" d="M1014.62,516.51a488.9,488.9,0,0,1,103.05-23.42,25.67,25.67,0,0,1,2.66,13.05c-30.82,1.46-61.59,8.25-88.21,19.49-7.89,3.33-10.59,6.07-17.8,10.71"/><path class="cls-1" d="M1014.88,517.47a478.79,478.79,0,0,1,54-15.18q13.73-3,27.61-5.25,7.77-1.25,15.58-2.26c3.68-.47,4.92-.42,6.47,3.36,1,2.43.89,5.42.81,8l1-1a274.49,274.49,0,0,0-58.3,9.16,241.66,241.66,0,0,0-27,9c-7.79,3.14-14.27,7.58-21.26,12.14-1.07.7-.07,2.43,1,1.72,7.39-4.82,14.12-9.31,22.41-12.58a241.51,241.51,0,0,1,25.33-8.39,272.08,272.08,0,0,1,57.77-9.09,1,1,0,0,0,1-1,29.61,29.61,0,0,0-2.79-13.55,1,1,0,0,0-.87-.5,496.41,496.41,0,0,0-103.32,23.45c-1.21.42-.69,2.35.53,1.93Z"/><path class="cls-6" d="M914.64,530.28c-5.89,5.13,4.57,54.12,6.2,58.82,1.34,3.88,12.07,8.79,12.07,8.79,2,1.78,23.26,2.42,25.91,2.4,24-.2,22.3-.32,44.48-8.2,2.31-.82,5.81-4.31,7.73-5.83,2.76-2.18,8-55.61,5.21-61.56C1007.09,505.45,939.41,508.69,914.64,530.28Z"/><path class="cls-1" d="M913.93,529.57c-2.15,2.16-2,6.15-2.07,9a118.64,118.64,0,0,0,1.47,17.34c1.47,10.61,3,21.72,6.11,32,2.23,7.43,12.35,11.52,19.52,12.33a181.82,181.82,0,0,0,38.39.5c6-.62,11.64-2.47,17.3-4.47s13.85-4.1,17.45-9.73c1.63-2.55,1.79-6.6,2.24-9.49.88-5.62,1.53-11.28,2.09-16.95,1.06-10.69,2.92-22.58,1.31-33.31-1.18-7.87-10.54-11.48-17.26-13.25-14.5-3.81-30.38-3-45-.6s-30.06,6.92-41.51,16.66c-1,.83.44,2.24,1.41,1.41,9.53-8.1,22.06-12.27,34.1-14.89a127,127,0,0,1,39.45-2.57c8.06.8,22.18,2.68,26.22,11.15,1.28,2.69.95,6.24.94,9.14,0,5.22-.33,10.45-.71,15.65-.76,10.54-1.62,21.26-3.73,31.63-.92,4.49-2.78,6.46-6.9,9.09-5.44,3.48-13.54,5.45-19.83,7.13-10.7,2.86-22.54,2.24-33.52,1.76-10.1-.44-19.93-.64-27.75-8-2.71-2.54-3-6.78-3.78-10.26q-2-9-3.44-18A192.55,192.55,0,0,1,914,543.62c-.2-3.23-1.26-10,1.32-12.64A1,1,0,0,0,913.93,529.57Z"/><path class="cls-6" d="M1001.21,506.39a89.4,89.4,0,0,0-72.33,6.91c-8.69,5-17.18,12.63-17.9,22.63a7.45,7.45,0,0,0,1.12,5.1,8.88,8.88,0,0,0,3.35,2.36,104.73,104.73,0,0,0,83.75,2.72c8.43-3.41,17.4-9.42,18-18.48.37-5.3-2.39-10.44-6.28-14s-8.8-5.91-13.73-7.86"/><path class="cls-1" d="M1001.48,505.43a91.2,91.2,0,0,0-56.93-.15c-13.48,4.42-35.35,14.74-34.6,32,.32,7.4,10.47,9.61,16.17,11.57a105.61,105.61,0,0,0,29.23,5.57c17.64.85,39.6-1.94,54.16-12.81,6-4.46,10.24-11.27,8.21-18.94-2.54-9.59-11.74-14.48-20.25-17.91-1.19-.49-1.71,1.45-.53,1.92,8.2,3.32,17.59,8.26,19.08,17.95,1.3,8.46-5.49,14.59-12.27,18.26-13.64,7.37-30.53,10-45.86,9.63a104.83,104.83,0,0,1-24-3.39c-6.84-1.81-21.63-4.61-21.95-13.2-.31-8.27,8-15.67,14.18-19.77a79.82,79.82,0,0,1,21.3-9.7,89.36,89.36,0,0,1,53.48.89c1.23.41,1.75-1.52.54-1.92Z"/><path class="cls-1" d="M988.34,509.56c-19.55-3.75-38-1.16-55.55,8.32-4.19,2.26-9.56,4.7-13,8-1.95,1.89-2.46,5.12-2.78,7.69-.58,4.67.91,5.37,5,6.91a138.16,138.16,0,0,0,38.25,8.87,63.89,63.89,0,0,0,20.9-2.25c8.24-2.11,17.47-3.36,24.21-8.92s6.66-11.32,2.76-18.68c-3.44-6.52-12.34-8.79-19.1-10-1.26-.23-1.8,1.7-.53,1.92,5.63,1,13.63,2.82,17.11,7.69,1.68,2.35,3.66,6.61,3.6,9.6-.07,4.2-4.53,7.8-7.76,9.85-6.27,4-14.85,5.14-22,6.92a58.87,58.87,0,0,1-16.75,2c-11-.43-21.48-3.07-32-6.24-2.2-.67-4.41-1.36-6.58-2.12-1.16-.41-4.48-1.06-5.17-2.19-1.38-2.25,1-8.14,2.51-9.62,2.91-2.9,7.35-5,10.91-7a79.29,79.29,0,0,1,55.41-8.89c1.26.24,1.8-1.69.53-1.93Z"/><path class="cls-2" d="M919.33,536.77c.44-8.78,32.84-15.94,61.29-13.32,7.8.72,27.1,2.49,28,8.76,1,6.54-16,10.21-30.21,14.85-3.77,1.23-25.53,1.23-54.45-5.72C920,540.37,919.27,537.86,919.33,536.77Z"/><path class="cls-1" d="M920.33,536.77c.51-4.21,7.41-6.43,10.65-7.56A94.58,94.58,0,0,1,950.6,525a150.52,150.52,0,0,1,39.89.58c4.81.7,10.79,1.38,14.92,4.15,7.2,4.82-5.54,9.41-9.07,10.66-9.34,3.32-18.28,6.52-28.24,6.29a180.17,180.17,0,0,1-21.62-2c-4.3-.62-8.58-1.38-12.84-2.24-3.37-.68-13.12-1.23-13.31-5.67-.06-1.29-2.06-1.29-2,0,.29,6.64,11.15,6.88,15.68,7.78a223.58,223.58,0,0,0,26.65,3.72c5.33.39,11.06.93,16.38.08,7-1.12,14.5-4.06,21.18-6.55,3.8-1.41,11-3.68,11.45-8.63.36-4.2-4.63-6.15-7.85-7.22-14.83-4.9-32.74-4.85-48-3.33-8.76.87-17.79,2.29-26,5.65-3.77,1.55-8.91,3.91-9.47,8.5C918.17,538,920.17,538,920.33,536.77Z"/><path class="cls-1" d="M1021.44,528.09c29.55-15.59,63.48-21,96.23-25.25,1.26-.16,1.28-2.17,0-2-33.12,4.35-67.35,9.75-97.24,25.53-1.14.6-.13,2.32,1,1.72Z"/><path class="cls-1" d="M945.26,544.22c-2.35-4.79-10.32-2.48-14.24-1.34A39.58,39.58,0,0,0,905.65,565c-.65,1.48-.95,4.06-1.86,5.3-1.45,2-4.25,1.72-5.87,3.83s-2.09,4.71-2.48,7.17a1,1,0,0,0,1,1.27l9.74-.68a1,1,0,0,0,1-.74,23.14,23.14,0,0,0,0-8.66c-.23-1.26-2.15-.72-1.93.54.52,2.89,1.12,5.88-2,7.06-1.84.7-4.86.34-6.82.48l1,1.26a23.71,23.71,0,0,1,.75-3.54c1.07-3.35,1.81-3.24,4.94-4.79,1.11-.55,1.31-.32,2.11-1.31,1.06-1.32,1.23-3.78,1.86-5.36a35.77,35.77,0,0,1,4.65-8.18,38.79,38.79,0,0,1,13-11.08c3.38-1.78,16.39-7.46,18.88-2.38.57,1.15,2.29.14,1.73-1Z"/><path class="cls-1" d="M948.78,546c-2.72-11-21.89.52-26.47,4.55-4.31,3.79-6.27,8.75-6.91,14.38-.28,2.51.11,4.09-1.72,6.11-.66.73-1.39,1-2,1.85-1.44,1.85-1.92,4.31-2.36,6.56a1,1,0,0,0,1,1.26c2.67-.08,9.63.7,11.79-1.39,1.77-1.73.88-6.24.91-8.45a1,1,0,0,0-1-1l-4.46.3c-1.28.09-1.29,2.09,0,2l4.46-.3-1-1c0,3.1.61,6.16-3.15,7.36-2.2.69-5.27.41-7.55.48l1,1.27c.54-2.81,1.23-5.22,3.47-7.21.6-.53,1.39-.67,1.87-1.4,1.83-2.76.76-7.93,1.75-11.07,1.67-5.25,5.3-8.83,10-11.53,3.51-2,16.79-9.34,18.55-2.24a1,1,0,0,0,1.93-.53Z"/><path class="cls-1" d="M951,547.18l.22.12a1,1,0,0,0,1.22-.15c1.84-2.24-1.27-4.69-3.23-5.49-4.69-1.92-10.72,0-14.8,2.54a18,18,0,0,0-8.62,12.27,15.89,15.89,0,0,0,.94,8.73c.27.63,1.46,2.12,1.53,2.72.35,2.88-2.7,3.24-4.69,4.11a1,1,0,0,0-.45,1.13l1.81,5.76a1,1,0,0,0,1.23.7c2.84-.86,9.32-2,9.44-6,.09-3.08-2.93-4.19-5.51-4.06l.27,2,1.11-.44c1.18-.48.66-2.41-.53-1.93l-1.11.44c-1,.38-1,2,.26,2l2.34,3.61a27.37,27.37,0,0,1-3,1.29c-1.25.48-2.52.88-3.8,1.26l1.23.7c-.71-2.24-2-4-.2-5.55,1-.83,2.75-.79,3.54-1.9,2-2.86-1.53-5.45-2.21-8.31a15.23,15.23,0,0,1,6.36-15.94c5.74-4.1,11.56-4.64,17.65-1.24a1,1,0,0,0-1,1.73Z"/><path class="cls-1" d="M955.79,545.86c-3.66-6.54-15.38-5.05-18,1.71-2.06,5.38.13,10.71.24,16.12l-.43,3.48a3.91,3.91,0,0,0-1.12.65c-.37.54-.84.7-1.15,1.32-1,2,.39,4.12-.32,6.2a1,1,0,0,0,1,1.27c3.05-.19,7-.53,8-3.93.84-3-.32-6.29-3.21-7.43-1.2-.47-1.72,1.46-.54,1.93q3.94,3.62.45,5.68a4.25,4.25,0,0,1-4.66,1.75l1,1.26a14.1,14.1,0,0,0,.32-2.65,4,4,0,0,1,1.35-4.32l.84-.54c.76-1.78,1-2.13.7-4.33-.69-4.4-1.78-8.94-1-13.41.7-4,3.1-6.5,7.36-6.73,2.82-.15,5.94.13,7.53,3,.63,1.13,2.36.12,1.73-1Z"/><path class="cls-1" d="M947.59,541.37a22.61,22.61,0,0,0-18.65,13,46.16,46.16,0,0,0-2.06,6.25,12.62,12.62,0,0,1-.93,3c-1.86,2.9-.86.66-2.54,1.57-2.42,1.32-3.95,2.31-3.85,5.42,0,1.29,2,1.29,2,0-.12-3.86,3.81-2.69,5.41-4.38s2-5.9,2.71-8.14c2.75-8.18,9.2-13.82,17.91-14.69,1.27-.13,1.28-2.13,0-2Z"/><path class="cls-1" d="M943.3,541.79c-7.18,1.29-15.42,3.12-21,8.15a53.57,53.57,0,0,0-6.64,7.84c-2.26,3-4.58,9.59-8.55,10.47a1,1,0,0,0-.74,1,9.14,9.14,0,0,0,.42,3.82c.3,1.26,2.22.73,1.93-.53-.7-3,2.39-3.93,3.89-6.24,2.17-3.34,4.1-6.65,6.6-9.81,6.4-8.06,14.72-11,24.63-12.73,1.27-.23.73-2.16-.53-1.93Z"/><path class="cls-6" d="M1181.3,70.75l-.48,10.12a1,1,0,0,0,1.86.5,17.47,17.47,0,0,0,1.18-12.31l-1.83.77c3.15,7.45,4,14.63,4.59,22.61a13.3,13.3,0,0,0,1.75,6,45.7,45.7,0,0,1,4.58,11c1.85,6.6,3.63,13.22,4.83,20,1,5.77.39,12.92,3.66,18a1,1,0,0,0,1.86-.51c.59-4.84-1.1-9-1.93-13.74-.49-2.78-.13-5.48-.44-8.26-.23-2-2.1-5.38-1.64-7.31a1,1,0,0,0-.46-1.13c-5.55-3.06-7,6.84-9.8,9l1.67.44a23.43,23.43,0,0,1-1.41-7.92,1,1,0,0,0-1.86-.51,79.82,79.82,0,0,1-8.33,10.1l1.67.44a16.64,16.64,0,0,1-.42-7.56l-2-.27-2.5,21.74,2-.27c-.81-3.4-.53-7.32-.57-10.79s-.56-7.48.37-10.76a1,1,0,0,0-1.93-.53l-1.09,3.32c-.4,1.23,1.51,1.73,1.93.53,1.89-5.3,8.39-3.4,11.19-7.16a3,3,0,0,0,.41-2.94,7.68,7.68,0,0,0-1.27-2,22.5,22.5,0,0,1-3.36-7.35c-.49-1.93-1.49-4.54-3.51-2.44-1.15,1.18-1.44,3.9-1.85,5.41a42.25,42.25,0,0,1-2.78,8.52l1.83.77c1.47-4.76,1.84-9.51,2.17-14.45.28-4.23,1.32-8.4.17-12.49-1-3.68-1.64-6-.53-9.83.66-2.22,1.67-4.34,2.23-6.58a7.13,7.13,0,0,0-1.58-7.16V67.1c.49-.55,1.72-2.48,2.46-.52.45,1.19,2.38.68,1.93-.53A4.48,4.48,0,0,0,1182,64c-2.2-.9-2.27.14-3.69,1.73a1,1,0,0,0,0,1.42c3.26,3.84-.69,9.52-1.66,13.45a13.34,13.34,0,0,0,.11,7.36,20.85,20.85,0,0,1,1.34,6.56c0,2.39-.51,4.87-.67,7.27a60.09,60.09,0,0,1-2.1,13.92,1,1,0,0,0,1.83.77c1.68-3.24,2.36-6.87,3.35-10.35.25-.89.5-1.78.82-2.66s-.15-1.51.08.11a17.71,17.71,0,0,0,1.87,6.54c1.12,1.85,4.15,3.44,2,5.53-1,1-3.45,1.22-4.71,1.74-2.75,1.15-4.88,2.63-5.91,5.52l1.93.53,1.09-3.32-1.93-.53c-1,3.45-.49,7.75-.44,11.29s-.21,7.74.64,11.33c.28,1.18,1.85.78,2-.27l2.5-21.74c.13-1.11-1.78-1.37-2-.26a18.76,18.76,0,0,0,.42,8.62,1,1,0,0,0,1.67.45,83.74,83.74,0,0,0,8.65-10.51l-1.87-.5a24.69,24.69,0,0,0,1.48,8.45,1,1,0,0,0,1.68.44c2.23-1.73,2.51-4,3.78-6.38a5,5,0,0,1,3-2.82,3.39,3.39,0,0,0,0,1.23c.67.76,1,3,1.25,4,.88,3.58.26,7.2,1,10.81.86,4.47,2.42,8.59,1.86,13.21l1.86-.5c-3.4-5.33-2.73-14.12-4-20.3-1.41-7-3.26-14-5.32-20.81a29.68,29.68,0,0,0-3.3-7.22c-2.27-3.79-1.85-7.45-2.24-11.68a58.71,58.71,0,0,0-4.56-17.57c-.45-1.07-2.1-.29-1.83.77a15.06,15.06,0,0,1-1,10.77l1.87.51.48-10.12c.06-1.29-1.94-1.29-2,0Z"/><path class="cls-6" d="M1206.37,147.2c2.51,2.06,6.1,2.42,8.24,4.9l1-1.67-4.83-1a1,1,0,0,0-.53,1.93c3.3,1.24,6.17,2.82,7.46,6.39l1.67-1a42.62,42.62,0,0,0-3.83-3.29c-.9-.68-2.06.82-1.21,1.57,6.8,6,6.6,14.65,7.36,23h2l-.52-4.85-2,.27c1.85,5.64,2,12.55,2.57,18.55q1,11.32,2,22.65c.7,7.88,1.4,15.75,2.15,23.62.39,4.05.47,8.35,1.38,12.32.28,1.26,2.21.72,1.92-.53-1-4.2-1-8.78-1.42-13.06-.77-8.14-1.49-16.29-2.22-24.43q-.94-10.82-1.92-21.61c-.53-5.91-.71-12.46-2.54-18-.33-1-2.09-.92-2,.26l.52,4.85c.13,1.26,2.12,1.29,2,0-.82-9-.66-18-8-24.42l-1.21,1.57a29.36,29.36,0,0,1,3.42,3c.68.65,2,0,1.68-1-1.51-4.19-4.81-6.26-8.86-7.79l-.53,1.93,4.83,1a1,1,0,0,0,1-1.67c-2.24-2.6-5.64-2.77-8.24-4.9-1-.81-2.41.6-1.41,1.42Z"/><path class="cls-7" d="M1173.58,61.71a10.08,10.08,0,0,0,1.12,4,1,1,0,0,0,1.13.46c3.26-1.24,7.21-1.4,10.67-1.48.94,0,1.44-1.4.51-1.86,0,0,.54-2.09.11-2.63a1.87,1.87,0,0,0-1.79-.44c-.5.11-1.35.48-1.4,1.1s.42.51.61,0-.1-.76-.28-1.08a1.06,1.06,0,0,0-1.13-.46c-1.58.26-2.32,2-2.16,3.41l.73-1-.43.1,1,.26c-.84-.73,0-2.74-2-2.44a1.65,1.65,0,0,0-1.09.67c-.42.57-.14,2-.53,2.34l1-.26c-.26,0,.29-3.11-1.74-2.93a1.76,1.76,0,0,0-1.18.73c-.5.66-.18,2.28-.6,2.66l1.22-.15c-.32-.17-.54-1.65-.62-2l-1,1.27.37,0c1.26-.15,1.28-2.16,0-2l-.37,0a1,1,0,0,0-1,1.26c.29,1.21.35,2.56,1.54,3.18a1,1,0,0,0,1.21-.15,1.76,1.76,0,0,0,.67-1.3c.2-1.3-.74-1.37-.59-.17a1.71,1.71,0,0,0,2.14,1.47,1.8,1.8,0,0,0,.94-.94,1.7,1.7,0,0,0,.16-.74c0-.34-.39-1.41-.73-.49-.45,1.24,1.39,1.73,2.16,1.54a1,1,0,0,0,.73-1l.69-1.48-1.13-.46c.08.14-.3,1.26-.15,1.67a1.79,1.79,0,0,0,1.18,1.11c1.31.34,2.34-1.88,2.51-1.83l-.7-.69c.16.61-.63,1.44-.44,2.21a1.75,1.75,0,0,0,1.07,1.27l.5-1.87c-3.61.08-7.79.25-11.2,1.55l1.13.46a7.19,7.19,0,0,1-.85-3c-.1-1.28-2.1-1.29-2,0Z"/><path class="cls-6" d="M1172,148.28l.76.41-.2-1.57a8.17,8.17,0,0,0-1.32,1.88,1,1,0,0,0,.16,1.21l.65.66v-1.41c-5.55,5.14-9.75,14.35-10,21.91-.19,5.06,1.84,9.84,1.67,14.88-.1,2.88-.73,5.21,1.29,7.51a1,1,0,0,0,1.71-.71l-.4-7c-.07-1.28-2-1.3-2,0,.17,5.78.22,11.59.52,17.38.26,5,3.73,9.09,2.71,14.08l2,.26c-.17-1.92-.25-3.78-.25-5.71a1,1,0,0,0-2,0c-.13,11,1.75,22.16,2.9,33.13.42,4,.53,8.35,1.43,12.31.47,2.11,1.15,3.35,3.41,3.5a1,1,0,0,0,.86-1.51,13.52,13.52,0,0,1-2.29-4.41l-1.67,1q3.24,3.69,6.59,7.28l1-1.67a77.42,77.42,0,0,1-7.71-2.43c-1.06-.4-1.77,1.31-.77,1.83a57.24,57.24,0,0,0,16.33,6.07c6.13,1.08,12.33.44,18.46-.24,10.76-1.19,20.57-4.28,25.87-14.43.59-1.14-1.1-2.14-1.73-1-2,3.56-3.86,9.47-8.82,8.58-1.26-.22-1.8,1.71-.53,1.93,6.87,1.22,8.09-4.14,11.08-9.5l-1.73-1c-5.6,10.73-16.47,12.73-27.53,13.79a51.42,51.42,0,0,1-30.39-5.91l-.77,1.83a80.13,80.13,0,0,0,7.71,2.43,1,1,0,0,0,1-1.67q-3.34-3.6-6.59-7.28a1,1,0,0,0-1.67,1,16.15,16.15,0,0,0,2.49,4.89l.87-1.5c-2.94-.19-3.45-20.27-3.69-22.78-.75-8.08-2.15-16-2-24.16h-2c0,1.93.08,3.79.25,5.71.09,1,1.72,1.45,2,.27,1.09-5.3-1.88-8.08-2.58-13.12-.84-6.11-.4-12.7-.58-18.87h-2l.4,7,1.7-.7c-1.95-2.23-.52-6.95-.84-9.68-.42-3.52-1.54-6.89-1.56-10.46,0-7.15,4.2-16.43,9.49-21.34a1,1,0,0,0,0-1.41l.51-.92a1,1,0,0,0-.2-1.57l-.76-.42c-1.13-.62-2.14,1.11-1,1.73Z"/><path d="M1174.9,66.57c.15-1.8-.67-4.12-1.17-5.82L1173,62a37.62,37.62,0,0,1,14.14-1.57l-1-1c-.14,2,.14,4,.09,6l1-1a45.78,45.78,0,0,0-13.6,1.23c-1.25.31-.72,2.23.53,1.93a43.87,43.87,0,0,1,13.07-1.16,1,1,0,0,0,1-1c0-2-.23-4-.09-6a1,1,0,0,0-1-1,39,39,0,0,0-14.67,1.64,1,1,0,0,0-.7,1.23c.46,1.55,1.23,3.66,1.1,5.29-.1,1.28,1.9,1.27,2,0Z"/><path d="M1172.66,67.31c.94,5-.74,8.93-1,13.78a56.09,56.09,0,0,0,1.34,12.38c.23,1.27,2.15.73,1.93-.53-1-5.61-1.85-11-.56-16.7a21.12,21.12,0,0,0,.17-9.46c-.24-1.26-2.16-.73-1.93.53Z"/><path d="M1187.27,65.57c.55,4.05,1.92,7.33,3.28,11.1,1.64,4.55,1.53,9.88,2,14.69.12,1.27,2.12,1.28,2,0-.38-4.31-.4-8.85-1.34-13.08-1-4.58-3.31-8.48-4-13.24-.17-1.27-2.1-.73-1.93.53Z"/><path d="M1173.53,94.08c-1.57,4.14-1.2,8.57-1.73,12.91-.47,3.74-1.07,7.46-1.52,11.2-1.12,9.38-.34,19.07.32,28.45.09,1.28,2.1,1.29,2,0-.67-9.41-1.46-19.14-.3-28.54.38-3.07.83-6.14,1.24-9.2.63-4.7.24-9.86,1.92-14.29.46-1.2-1.47-1.72-1.93-.53Z"/><path d="M1193.17,93c5.08,6.29,7.36,17.14,9.25,24.85,1,4.19,1.78,8.46,2.64,12.69.8,3.92,3.07,9.34,2.61,13.3-.15,1.27,1.85,1.26,2,0,.42-3.67-1.57-8.38-2.31-12-1.1-5.42-2-10.92-3.46-16.26-2.07-7.7-4.19-17.65-9.31-24-.81-1-2.22.42-1.42,1.41Z"/><path d="M1207.71,144.75c5.11,5.85,11.28,9.05,14,16.91a31.5,31.5,0,0,1,1.3,6c.82,6.19,1.47,12.4,2.15,18.6q2.76,25.22,5.26,50.46c.5,5,1.1,10,1.42,14.95.08,1.27,2.08,1.28,2,0-.82-12.83-2.49-25.66-3.82-38.44-1.59-15.34-3-30.72-5.07-46a31.68,31.68,0,0,0-2.14-8.24c-2.94-7.06-8.84-10.11-13.65-15.62-.85-1-2.26.45-1.41,1.41Z"/><path d="M1170.49,146.38c-3.78,6.35-9,13.08-10.46,20.5s1.22,15.71,1.9,23.11c.79,8.65,1.94,17.22,2.78,25.9,1.43,14.91,1.57,30.39,4.25,45.13.23,1.26,2.16.73,1.93-.53-1.14-6.27-1.29-12.86-1.87-19.2-.75-8.28-1.47-16.56-2.26-24.84-.69-7.19-2.31-14.4-2.64-21.55-.18-4.14-.53-8.22-1-12.36s-1.56-8.23-1.45-12.26c.22-8.28,6.46-16,10.54-22.89a1,1,0,0,0-1.72-1Z"/><path d="M1169.3,261.6c10.39,9.19,24.82,9.43,37.87,7.44,6.48-1,14.21-2.3,19.87-5.82,4.41-2.75,6.16-7.61,6.61-12.59.11-1.28-1.89-1.27-2,0-.64,7.14-4.4,11-11,13.15a85,85,0,0,1-17.28,3.76c-11.39,1.27-23.66.58-32.63-7.36-1-.85-2.38.56-1.41,1.42Z"/><path class="cls-2" d="M1200.42,123.61c-8.43.92-17.8,4.45-26.37,4-1.16-.07-1.51,1-1.55,2.19-.24,7.75,3.08,12.29.27,19-1.89,4.46-7.93,12.66-8.82,16.67-2.31,10.37,6.23,77.42,8.89,87.79a16.89,16.89,0,0,0,5.28,9c3,2.42,8.32,3.85,12.17,3.71,4.75-.17,9.57-.46,14.32-.63,7.51-.27,17.85-3.35,22.13-9.53,2.59-3.74,2.28-6.88,1.92-11.42-1.42-18.15-7.32-71.58-8.31-78.36-.68-4.7-4.38-10.86-8.15-13.75a12.65,12.65,0,0,1-2.1-2.08,19.82,19.82,0,0,1-4.75-9.59,81.77,81.77,0,0,1-2.19-12.38L1203,127l-.34-1.68a.56.56,0,0,0,0-.12C1202.23,124.29,1202.35,123.4,1200.42,123.61Z"/><path class="cls-6" d="M582.46,613.55,582,623.68a1,1,0,0,0,1.86.5A17.5,17.5,0,0,0,585,611.86l-1.83.77c3.15,7.46,4,14.63,4.59,22.62a13.23,13.23,0,0,0,1.75,6,45.77,45.77,0,0,1,4.58,11c1.85,6.59,3.63,13.22,4.83,20,1,5.77.39,12.92,3.66,18a1,1,0,0,0,1.86-.51c.59-4.85-1.1-9-1.93-13.74-.49-2.79-.13-5.49-.44-8.26-.23-2-2.1-5.38-1.64-7.32a1,1,0,0,0-.46-1.13c-5.55-3.06-7,6.85-9.8,9l1.67.44a23.39,23.39,0,0,1-1.41-7.92,1,1,0,0,0-1.86-.5,80.53,80.53,0,0,1-8.33,10.1l1.67.44a16.65,16.65,0,0,1-.42-7.56l-2-.27-2.5,21.74,2-.27c-.81-3.41-.53-7.32-.57-10.79s-.56-7.48.37-10.77a1,1,0,0,0-1.93-.53l-1.08,3.32c-.41,1.24,1.5,1.74,1.92.54,1.89-5.31,8.39-3.4,11.19-7.17a2.94,2.94,0,0,0,.41-2.93,7.68,7.68,0,0,0-1.27-2,22.45,22.45,0,0,1-3.36-7.36c-.49-1.92-1.48-4.53-3.51-2.44-1.15,1.19-1.44,3.91-1.85,5.42a41.34,41.34,0,0,1-2.78,8.51l1.83.77c1.47-4.76,1.84-9.5,2.17-14.44.28-4.23,1.32-8.4.17-12.5-1-3.68-1.64-6-.52-9.83.65-2.21,1.66-4.33,2.22-6.57a7.1,7.1,0,0,0-1.58-7.16v1.41c.49-.54,1.72-2.48,2.46-.51.45,1.19,2.38.67,1.93-.54a4.46,4.46,0,0,0-2.11-2.09c-2.2-.91-2.26.14-3.69,1.73a1,1,0,0,0,0,1.41c3.26,3.84-.69,9.53-1.66,13.46a13.34,13.34,0,0,0,.11,7.36,20.51,20.51,0,0,1,1.34,6.55c0,2.4-.51,4.88-.67,7.28a60,60,0,0,1-2.1,13.91,1,1,0,0,0,1.83.77c1.68-3.23,2.36-6.87,3.35-10.35.25-.89.5-1.78.82-2.65s-.15-1.52.08.11a17.66,17.66,0,0,0,1.87,6.53c1.12,1.86,4.16,3.45,2,5.53-1,1-3.45,1.22-4.71,1.75-2.75,1.15-4.87,2.62-5.9,5.51l1.92.54,1.09-3.33-1.93-.53c-1,3.46-.49,7.76-.44,11.3s-.21,7.74.64,11.32c.28,1.18,1.85.78,2-.26l2.5-21.74c.13-1.11-1.78-1.38-2-.27a18.66,18.66,0,0,0,.41,8.63,1,1,0,0,0,1.67.44,83.64,83.64,0,0,0,8.65-10.5l-1.87-.51a24.71,24.71,0,0,0,1.48,8.46,1,1,0,0,0,1.68.44c2.23-1.73,2.51-4,3.78-6.38a5,5,0,0,1,3-2.82,3.18,3.18,0,0,0,0,1.23c.68.76,1,3,1.25,4,.88,3.58.26,7.2,1,10.81.86,4.47,2.42,8.58,1.86,13.21l1.86-.5c-3.4-5.34-2.73-14.12-4-20.3-1.41-7-3.26-14-5.32-20.82a29.78,29.78,0,0,0-3.3-7.21c-2.27-3.8-1.85-7.46-2.24-11.69a58.86,58.86,0,0,0-4.56-17.57c-.45-1.06-2.1-.29-1.83.77a15.08,15.08,0,0,1-1,10.78l1.86.51.48-10.13c.06-1.28-1.94-1.28-2,0Z"/><path class="cls-6" d="M607.53,690c2.51,2.06,6.1,2.42,8.24,4.9l1-1.67-4.83-1a1,1,0,0,0-.53,1.93c3.3,1.25,6.17,2.83,7.46,6.4l1.67-1a42.62,42.62,0,0,0-3.83-3.29c-.9-.69-2.06.82-1.21,1.57,6.8,6,6.6,14.65,7.36,23h2l-.52-4.85-2,.27c1.85,5.64,2,12.55,2.57,18.54q1,11.32,2,22.66c.7,7.87,1.4,15.75,2.15,23.62.39,4,.47,8.34,1.37,12.32.29,1.25,2.22.72,1.93-.53-1-4.21-1-8.78-1.42-13.06q-1.15-12.21-2.22-24.44c-.64-7.2-1.26-14.4-1.92-21.6-.53-5.91-.71-12.46-2.54-18-.33-1-2.09-.92-2,.26l.52,4.85c.13,1.26,2.12,1.29,2,0-.82-9-.66-18-8-24.43L615.67,698a29.45,29.45,0,0,1,3.42,3c.68.65,2,0,1.68-1-1.51-4.19-4.81-6.27-8.86-7.8l-.53,1.93,4.83,1a1,1,0,0,0,1-1.67c-2.24-2.61-5.64-2.77-8.24-4.9-1-.81-2.41.6-1.41,1.41Z"/><path class="cls-7" d="M574.74,604.52a10.15,10.15,0,0,0,1.12,4A1,1,0,0,0,577,609c3.26-1.24,7.21-1.4,10.68-1.47.93,0,1.43-1.41.5-1.86,0,0,.55-2.1.11-2.63a1.85,1.85,0,0,0-1.79-.44c-.5.11-1.35.48-1.39,1.09s.42.52.6,0a1.29,1.29,0,0,0-.28-1.08,1,1,0,0,0-1.13-.46c-1.58.25-2.32,2-2.16,3.41l.74-1-.44.11,1,.26c-.85-.73,0-2.74-2-2.44a1.61,1.61,0,0,0-1.1.67c-.42.57-.14,2-.53,2.33l1-.25c-.27,0,.28-3.11-1.74-2.94a1.73,1.73,0,0,0-1.19.74c-.5.66-.18,2.28-.59,2.66l1.21-.16c-.32-.16-.54-1.65-.62-2l-1,1.26.36,0c1.26-.15,1.28-2.15,0-2l-.36,0a1,1,0,0,0-1,1.27c.29,1.21.35,2.55,1.54,3.18a1,1,0,0,0,1.21-.16,1.73,1.73,0,0,0,.67-1.3c.21-1.3-.74-1.36-.59-.16a1.7,1.7,0,0,0,2.14,1.46,1.82,1.82,0,0,0,.94-.93,1.86,1.86,0,0,0,.17-.74c0-.35-.4-1.42-.74-.49-.45,1.24,1.39,1.73,2.16,1.54a1,1,0,0,0,.73-1l.69-1.48-1.13-.46c.08.13-.3,1.26-.15,1.67a1.79,1.79,0,0,0,1.19,1.1c1.3.34,2.33-1.88,2.5-1.82l-.7-.7c.16.61-.62,1.44-.44,2.22a1.75,1.75,0,0,0,1.07,1.26l.51-1.86c-3.62.08-7.8.25-11.21,1.55l1.13.46a7.19,7.19,0,0,1-.85-3c-.09-1.28-2.09-1.29-2,0Z"/><path class="cls-6" d="M573.16,691.08l.76.42-.2-1.57a8.12,8.12,0,0,0-1.32,1.87,1,1,0,0,0,.16,1.21l.65.67v-1.41c-5.55,5.14-9.75,14.35-10.05,21.91-.19,5.06,1.84,9.84,1.67,14.87-.1,2.88-.73,5.21,1.29,7.52a1,1,0,0,0,1.7-.71l-.39-7c-.07-1.27-2-1.29-2,0,.17,5.79.22,11.6.52,17.38.26,5,3.73,9.1,2.71,14.08l2,.27c-.17-1.92-.25-3.79-.25-5.71a1,1,0,0,0-2,0c-.13,11,1.75,22.16,2.9,33.12.42,4.05.53,8.35,1.43,12.32.47,2.11,1.14,3.35,3.41,3.49a1,1,0,0,0,.86-1.5,13.62,13.62,0,0,1-2.29-4.41l-1.68,1q3.24,3.69,6.6,7.28l1-1.67a79.25,79.25,0,0,1-7.71-2.43c-1.06-.4-1.77,1.3-.77,1.82A56.65,56.65,0,0,0,588.43,810c6.12,1.08,12.33.45,18.46-.23,10.76-1.19,20.57-4.28,25.86-14.44.6-1.13-1.09-2.14-1.72-1-2,3.57-3.86,9.47-8.82,8.59-1.26-.22-1.8,1.7-.53,1.93,6.87,1.22,8.09-4.15,11.07-9.51l-1.72-1C625.43,805,614.56,807,603.5,808.07a51.4,51.4,0,0,1-30.39-5.9l-.77,1.82a76.6,76.6,0,0,0,7.71,2.43,1,1,0,0,0,1-1.67q-3.36-3.59-6.59-7.28a1,1,0,0,0-1.67,1,15.93,15.93,0,0,0,2.49,4.89l.87-1.51c-2.94-.19-3.45-20.26-3.69-22.77-.75-8.08-2.15-16-2-24.16h-2c0,1.92.08,3.79.25,5.71.09,1,1.72,1.45,2,.27,1.09-5.3-1.88-8.09-2.58-13.12-.84-6.11-.4-12.71-.58-18.88h-2l.39,7,1.71-.71c-1.95-2.23-.52-6.95-.84-9.67-.42-3.52-1.54-6.89-1.56-10.46,0-7.15,4.2-16.43,9.49-21.34a1,1,0,0,0,0-1.41l.51-.93a1,1,0,0,0-.2-1.57l-.76-.41c-1.12-.62-2.14,1.1-1,1.72Z"/><path d="M576.06,609.37c.15-1.8-.67-4.11-1.17-5.82l-.7,1.23a37.82,37.82,0,0,1,14.14-1.57l-1-1c-.14,2,.14,4,.09,6l1-1a45.46,45.46,0,0,0-13.6,1.23c-1.25.3-.72,2.23.53,1.93a43.58,43.58,0,0,1,13.07-1.16,1,1,0,0,0,1-1c.05-2-.23-4-.09-6a1,1,0,0,0-1-1,39,39,0,0,0-14.67,1.65,1,1,0,0,0-.7,1.23c.46,1.55,1.24,3.65,1.1,5.28-.1,1.29,1.9,1.28,2,0Z"/><path d="M573.83,610.12c.93,5-.75,8.93-1,13.77a56.18,56.18,0,0,0,1.34,12.39c.23,1.26,2.16.73,1.93-.53-1-5.62-1.85-11.06-.56-16.7a21.12,21.12,0,0,0,.17-9.46c-.23-1.26-2.16-.73-1.92.53Z"/><path d="M588.43,608.38c.55,4,1.92,7.33,3.28,11.1,1.64,4.55,1.53,9.88,1.95,14.68.12,1.27,2.12,1.29,2,0-.37-4.3-.4-8.84-1.34-13.07-1-4.58-3.31-8.48-4-13.24-.17-1.27-2.1-.73-1.93.53Z"/><path d="M574.69,636.89c-1.57,4.14-1.19,8.57-1.73,12.91-.47,3.74-1.07,7.46-1.51,11.2-1.12,9.38-.35,19.06.31,28.45.09,1.27,2.1,1.28,2,0-.67-9.41-1.45-19.14-.3-28.54.38-3.07.83-6.14,1.24-9.21.63-4.69.24-9.85,1.92-14.28.46-1.2-1.47-1.72-1.93-.53Z"/><path d="M594.33,635.83c5.08,6.28,7.36,17.14,9.25,24.84,1,4.2,1.78,8.47,2.64,12.7.8,3.91,3.07,9.34,2.61,13.29-.15,1.28,1.86,1.27,2,0,.42-3.66-1.57-8.37-2.3-12-1.11-5.42-2-10.92-3.47-16.27-2.07-7.7-4.19-17.64-9.31-24-.81-1-2.22.42-1.42,1.42Z"/><path d="M608.87,687.56c5.11,5.85,11.28,9.05,14,16.9a31.6,31.6,0,0,1,1.3,6c.82,6.18,1.47,12.4,2.15,18.6q2.75,25.22,5.26,50.45c.49,5,1.1,10,1.42,15,.08,1.28,2.08,1.29,2,0-.82-12.83-2.49-25.65-3.82-38.43-1.59-15.34-3-30.72-5.07-46a31.68,31.68,0,0,0-2.14-8.24c-2.94-7.06-8.84-10.11-13.65-15.62-.85-1-2.26.44-1.41,1.41Z"/><path d="M571.65,689.19c-3.78,6.35-9,13.08-10.46,20.49s1.22,15.72,1.9,23.12c.79,8.65,1.94,17.21,2.78,25.9,1.43,14.9,1.57,30.39,4.25,45.13.23,1.26,2.16.73,1.93-.54-1.14-6.27-1.29-12.86-1.87-19.2-.75-8.28-1.47-16.56-2.26-24.83-.69-7.19-2.31-14.4-2.64-21.56-.18-4.14-.53-8.21-1-12.35s-1.56-8.23-1.45-12.26c.22-8.29,6.46-16,10.54-22.89a1,1,0,0,0-1.72-1Z"/><path d="M570.46,804.41c10.38,9.18,24.82,9.43,37.87,7.43,6.48-1,14.21-2.29,19.87-5.82,4.41-2.75,6.16-7.61,6.61-12.58.11-1.28-1.89-1.28-2,0-.64,7.13-4.41,11-11,13.15a86.5,86.5,0,0,1-17.28,3.76c-11.39,1.26-23.66.58-32.63-7.36-1-.85-2.38.56-1.41,1.42Z"/><path class="cls-2" d="M601.59,666.42c-8.44.92-17.81,4.44-26.38,4-1.16-.07-1.51,1-1.55,2.19-.24,7.75,3.08,12.28.27,19C572,696,566,704.17,565.11,708.19c-2.31,10.36,6.23,77.42,8.89,87.78a17,17,0,0,0,5.27,9c3,2.41,8.33,3.85,12.18,3.71,4.75-.17,9.57-.46,14.32-.64,7.51-.27,17.85-3.34,22.13-9.52,2.59-3.74,2.28-6.88,1.92-11.42-1.42-18.16-7.32-71.58-8.31-78.36-.68-4.7-4.38-10.86-8.15-13.75a13.06,13.06,0,0,1-2.1-2.08,19.86,19.86,0,0,1-4.75-9.59,83.26,83.26,0,0,1-2.19-12.38l-.18-1.11-.34-1.69a.36.36,0,0,0,0-.11C603.39,667.09,603.51,666.21,601.59,666.42Z"/><path class="cls-1" d="M1167.42,754c-19,13.68-37.53,28.54-57.63,40.51a1,1,0,0,0,1,1.72c20.1-12,38.67-26.83,57.63-40.51,1-.74,0-2.48-1-1.72Z"/><path class="cls-7" d="M1162.85,755.23c-2.41-3.47-3.94-9.66-2.38-12.79,1.15-2.32,3.42-3.84,5.56-5.29,12.15-8.25,22.94-17.76,33.81-27.64,3.23-2.94,12.29-7.34,13.76-6.28,8.46,6.08,19.41,18.86,18.7,20.77-1.3,3.55-1.28,3.23-4.59,6.1-7.87,6.8-33.53,25.24-39.52,28.69-4.9,2.82-8.79,6.65-14.6,5.11s-14.72-12.62-13.66-18.54"/><path class="cls-1" d="M1163.71,754.73c-2.57-4.15-4.45-10-.7-14,3-3.17,7.5-5.41,11-8,6.36-4.77,12.45-9.9,18.42-15.16,5.44-4.8,10.41-10,17.33-12.6,3.55-1.35,5.63.78,8.23,3.12,2.4,2.16,4.68,4.46,6.86,6.85a48.2,48.2,0,0,1,5.43,6.75c1.45,2.36.62,4.16-1.31,6.07-3.39,3.35-7.5,6.2-11.29,9.06-8.56,6.47-17.25,12.83-26.19,18.75-5.31,3.51-12.48,9.77-19,6.85-5.53-2.47-12.14-10.76-11.51-17,.12-1.28-1.88-1.27-2,0-.61,6.09,4.43,12.42,8.77,16.15,5.88,5.07,11.54,4.08,17.78.14,11.57-7.3,22.72-15.2,33.62-23.47,4.05-3.07,9.83-6.43,12.72-10.66,3-4.47-.14-7.59-3.1-11.16a94.62,94.62,0,0,0-8.33-8.78c-1.81-1.68-4.56-5-7.15-5.49-2-.38-4.6,1.09-6.36,1.92a36.8,36.8,0,0,0-9.11,6c-9.9,8.84-19.82,17.6-30.73,25.21-3.41,2.38-7.47,4.63-8.12,9.12-.56,3.91,1,8.11,3.06,11.37.68,1.09,2.41.09,1.73-1Z"/><path class="cls-8" d="M1221.33,729.23l-39.63,30.11s-.09,0-.5-.45l-13.36-17.59c.35.4.36.35.4.32l39.63-30.11a.09.09,0,0,1,.12,0l13.36,17.59A.08.08,0,0,1,1221.33,729.23Z"/><path class="cls-1" d="M1187.25,742.24a7.59,7.59,0,0,1-2.47,1.61,3.33,3.33,0,0,1-1.36.37c-.45.21-.6.06-.46-.47a.7.7,0,0,1,.23-.9,8.43,8.43,0,0,1,2.07-2.1c.28-.23.93-.87,1.32-.92,1-.11.78.47.79,1,.05,1.71-3.21,6.73-.31,7.53,2,.55,4.85-2.18,5.3-4a2.23,2.23,0,0,0-.71-2.51c-1.17-.69-3.16.36-4.3.67a1,1,0,0,0,.53,1.93l1.74-.48c.72-.21,1.21-.72.66.29a5.76,5.76,0,0,1-2.13,1.85c-.3.19-.47,1.16-.08-.15.13-.44.24-.88.35-1.32.3-1.11.6-2.21.88-3.31s.61-2.47-.6-3.32-2.56-.32-3.64.38c-1.78,1.15-5.78,4.37-4.08,6.87s6.13-.18,7.69-1.64c.94-.89-.48-2.3-1.42-1.42Z"/><path class="cls-1" d="M1194.81,732.6c-2.61.89-5.35,2.83-5.51,5.85-.14,2.6,1.8,5.23,4.56,5s5.94-3.13,6-6.06a3.77,3.77,0,0,0-5.24-3.58c-1.17.54-.15,2.26,1,1.73,1-.46,2,.5,2.21,1.41a3.37,3.37,0,0,1-1.12,2.8c-1,1.09-3,2.4-4.38,1.28-3-2.39.66-5.71,3-6.51,1.21-.42.69-2.35-.53-1.93Z"/><path class="cls-1" d="M1197.68,730.78a.65.65,0,0,1-.75-.44.56.56,0,0,1,.42-.67c.12,0,.41,0,.47.15s0,.4-.18.41c-1.28.06-1.29,2.06,0,2a2.31,2.31,0,0,0,2.19-2.47,2.36,2.36,0,0,0-2.61-2.08,2.55,2.55,0,0,0-2.29,2.63,2.62,2.62,0,0,0,2.75,2.47c1.28-.08,1.29-2.08,0-2Z"/><path class="cls-1" d="M1200.48,727.22a46.71,46.71,0,0,0,4.4,5.32c.76.79,1.81-.06,1.67-1l0-.34c-.19-1.26-2.12-.73-1.93.54l0,.33,1.67-1a43.65,43.65,0,0,1-4.08-4.92c-.74-1-2.47,0-1.73,1Z"/><path class="cls-1" d="M1202,727q2.15-1.51,4.2-3.17c1-.8-.41-2.21-1.41-1.41q-1.86,1.48-3.8,2.85c-1,.74,0,2.47,1,1.73Z"/><path class="cls-1" d="M1204.07,729.6q1.82-1.23,3.51-2.62a1,1,0,0,0,0-1.41,1,1,0,0,0-1.42,0c-1,.81-2,1.58-3.1,2.3s-.06,2.45,1,1.73Z"/><path class="cls-6" d="M821.81,147.78a38.1,38.1,0,0,0,15.61,3.81l-.27-2a40.92,40.92,0,0,1-8.57,2.36,37.45,37.45,0,0,1-4.36.45c-.6,0-1.2,0-1.8,0a1.68,1.68,0,0,1-1.88-.78l-.7-1.71c-2.37,2.29-3.71,1.69-6.2,2.58-1.89.68-3.37,2.26-5.33,3-4.75,1.73-10,1.78-15,1.6-10.2-.37-20.16.9-30.25-1l-.27,2c2.54.1,3.88-.69,6-1.95,2.9-1.73,4.22-.39,7.65.12,7.78,1.15,15.59-.67,23.27,1.57l-.24-1.83c-7.59,4.47-16.24,1.79-24.43,1.15v2c8.35-.39,16.82,1,25.13-.31,8.55-1.32,17-5.12,25.11-7.92,1.21-.41.69-2.34-.54-1.92-7.6,2.61-15.33,6-23.22,7.58-8.7,1.76-17.7.16-26.48.57a1,1,0,0,0,0,2c8.64.68,17.48,3.26,25.44-1.42a1,1,0,0,0-.24-1.83c-9.65-2.82-20.11.71-29.46-3.32a1,1,0,0,0-1.21.15c-1.94,1.92-3.76,3.48-6.78,3.36-1.11,0-1.39,1.75-.26,2a61.3,61.3,0,0,0,16.61,1.05c6.4-.52,12.71.26,19.1,0,4.61-.16,9.87-.81,14-3,3-1.64,6.53-2.36,9-4.77a1,1,0,0,0-.71-1.7c-2.54-.12-5.36,2-2.61,4.19,1.74,1.41,6.12.62,8.1.45a42.23,42.23,0,0,0,11.65-2.77,1,1,0,0,0-.26-2,35.32,35.32,0,0,1-14.6-3.53c-1.15-.56-2.17,1.17-1,1.72Z"/><path class="cls-6" d="M838.93,151.06a30.08,30.08,0,0,1,4.71-.7,1,1,0,0,0,0-2,13.16,13.16,0,0,0-4.81.86c-1,.38-1,2,.26,2a3.23,3.23,0,0,0,2.66-1.49,1,1,0,0,0-.86-1.5l-3.26-.08c-1.29,0-1.29,2,0,2l3.26.08-.87-1.51a1,1,0,0,1-.93.5l.27,2a11.56,11.56,0,0,1,4.28-.79v-2a34.31,34.31,0,0,0-5.24.77c-1.25.29-.72,2.22.53,1.93Z"/><path class="cls-6" d="M760.58,155.21a23.53,23.53,0,0,1-7.15,1.36c-1.09,0-1.42,1.72-.27,2a61,61,0,0,0,8.52,1.15c1.22.08,1.22-1.57.26-2l-3.43-1.43v1.93l3.19-.85a1,1,0,0,0-.53-1.93l-3.19.85a1,1,0,0,0,0,1.93l3.43,1.43.27-2a56.61,56.61,0,0,1-8-1.08l-.26,2a25.21,25.21,0,0,0,7.69-1.43c1.2-.43.68-2.36-.54-1.93Z"/><path class="cls-6" d="M802.48,125.73c4.92-1,13,.71,16.44,4.81,5.48,6.5-9,10-12.29,11.29a1,1,0,0,0,.27,2,14.35,14.35,0,0,0,9.33-2.57,1,1,0,0,0-.77-1.83,147.17,147.17,0,0,1-22.16,3.66,69.32,69.32,0,0,1-9.88,0c-2.11-.17-17.47-1.19-11.36-8.24a1,1,0,0,0-1-1.67,4.85,4.85,0,0,0-3.79,4l1.23-.7c-.33-.08,5.76-4.71,6.4-5.09a35.35,35.35,0,0,1,7.5-3.51,58.5,58.5,0,0,1,12.88-2.09c4.13-.33,8.61-.73,12.6.68a10.46,10.46,0,0,1,4.43,2.73q.13,6.48-4,3-.18,5.92-5.77,5.49l-2.6-.43a12.07,12.07,0,0,1-3.48-1.64q-4.8-3.06,2.57-1.66,1.25,4.54-3.93,6.93a9.09,9.09,0,0,1-5.67-2.44q-3.85-2.51.75-3.45,3.51-3.49,3.23,1.62c-.45,6.33-7.08,5.16-10,2.32q-4-2.92,1.9-3.75c-.48,2.64-1.91,3.85-4.29,3.61-2.6.1-3.94-1-6.29-2q-8.54-2,2,.24.48.63,1,1.26a14.79,14.79,0,0,0,2.55,1.76c5.34,2.54,13.67,1.76,19.32.92,3.43-.5,13-2.16,14.22-6.33,2.48-8.76-33.18-2.78-37.66-2-1.27.22-.73,2.15.53,1.93a159.69,159.69,0,0,1,18.62-2.19q3.8-.21,7.61-.24a20.38,20.38,0,0,1,4.75.05c1.63-.2,2.75.72,3.35,2.73l-1.41.83c-1.37,1.76-6.71,2.62-8.92,3a47.91,47.91,0,0,1-7.93.71c-2.2,0-4.41,0-6.6-.23a11,11,0,0,1-5.47-1.5c-1.62-1-2.27-2.37-3.69-3.44-2.81-2.14-10.27-1-9,3.74s8.48,2.53,9.2-1.47c.61-3.39-4.42-6.85-5.63-2.75-1.61,5.45,7.43,7.35,10.95,6.79,2.22-.35,4.3-1.14,4.83-3.49.45-2-.68-5.2-2.53-6.29-4.76-2.79-6.66,3.81-4.81,7.12,2.56,4.57,8.59,7.43,13,3.58a7.32,7.32,0,0,0-1.82-11.89c-5.68-2.52-7.88,3.46-5.28,7.71s10.25,8.24,14,3c2.54-3.56,1.5-11-3.56-11.71-5.62-.79-5.05,5.24-2,7.82,4.26,3.59,13.2,5.18,15.93-1.16,1.27-3-2.47-10.36-6-6.9s7.19,8.66,10.08,7c1.86-1.06,1.61-3.54,1-5.22-1.33-3.44-5.09-5.31-8.45-6.14-8.44-2.09-20.52-.35-28.42,3.14-1.32.58-17.78,9.38-10.49,11.16a1,1,0,0,0,1.23-.7l2.39-2.56-1-1.67c-6.78,7.83,2.38,10.3,9.23,11.26,12.12,1.69,24.32-.72,36.12-3.35l-.77-1.83a12.71,12.71,0,0,1-8.32,2.3l.27,2c4.43-1.75,18.58-4.78,15-12.33-3-6.36-14.06-8.92-20.23-7.62-1.26.26-.73,2.19.53,1.92Z"/><path class="cls-1" d="M764.06,141.45a8.58,8.58,0,0,0,1.92,8.11c.85,1,2.26-.45,1.41-1.41A6.53,6.53,0,0,1,766,142a1,1,0,0,0-1.92-.54Z"/><path class="cls-1" d="M824.26,137.25a5.11,5.11,0,0,1-.51,7.38c-1,.82.43,2.23,1.41,1.41a7.09,7.09,0,0,0,.51-10.21c-.89-.93-2.3.48-1.41,1.42Z"/><path class="cls-1" d="M837.27,154c3.26,2.34,5.83,4.24,7.44,8.12,1.71,4.13,2.19,9.14,2.82,13.54,1.9,13.3,4.16,26.59,5.55,40,1,9.81,1.73,19.79,2.08,29.66a76.12,76.12,0,0,1-.28,12.45c-.7,5.44-3.41,7.71-7.73,10.84-8.93,6.47-20.87,8.84-31.62,10.64-11,1.85-23.82,3.11-34.7.24-3.78-1-9.19-2-12.09-4.77s-4.08-7.7-5.26-11.32a222.36,222.36,0,0,1-6.12-24.55c-2.9-14.25-4.48-28.74-6.11-43.18-1.34-11.74-3.23-29,10.5-33.86,1.2-.42.68-2.35-.54-1.92-10.34,3.63-12.83,13.5-12.77,23.65.07,13.4,2.36,27.11,4.28,40.35a282.07,282.07,0,0,0,6.71,32.8c1.9,7.09,3.8,18.25,11.31,21.56,11.12,4.89,22.17,5,34.11,4.21s25.44-3.11,36.5-7.87c7.33-3.16,14.54-8.62,15.53-16.82,1.2-10-.2-20.19-.82-30.16-1.08-17.32-4.08-34.43-6.49-51.6-.7-5-1.18-10.67-3.28-15.29-1.84-4-4.57-5.93-8-8.41-1-.75-2,1-1,1.73Z"/><path class="cls-2" d="M835,168.81a8.21,8.21,0,0,1,9.61,6.77c.41,2.56.88,5.1,1.09,7.08.65,6.11,9,75.68,5.39,80.12-2.35,2.87-5.94,4.35-9.42,5.59A153.11,153.11,0,0,1,784,277.13a19.36,19.36,0,0,1-7.37-1.35c-4.63-2.14-7-7.28-9-12C761.51,249.43,755,208.85,754,203.42c-.51-2.69,0-6.31-.64-9a52.89,52.89,0,0,1-1.2-12.51,4.05,4.05,0,0,1,4.6-4c13.52,1.89,26.8-1,40.66-2.07Z"/><path class="cls-3" d="M843.23,181.28c-1.43-3.13-4.56-5.11-7.64-6.64-24.06-11.92-54.38-6.34-75.91,9.7-2.18,1.62-4.48,3.74-4.41,6.45.11,4,4.91,5.81,8.81,6.62L781.47,201c7.36,1.53,14.93,3.07,22.33,1.76C814,201,822.67,194,832.86,192.31c2.52-.42,5.12-.52,7.53-1.36s4.71-2.63,5.22-5.14-1.54-5.46-4.07-5.14"/><path class="cls-4" d="M754.67,193.79c.55,2.9,2.93,4.11,5.64,4.77,5.9,1.43,12.23,1.84,18.23,2.73,11.56,1.7,22,2.94,33.05-1.6,5.45-2.23,10.63-5.1,16.25-6.87,5.17-1.63,11.13-1.42,16.1-3.57,2.18-.95,3.32-2.62,2.46-5-1-2.93-4.22-3.48-7-3.84-1.27-.16-1.26,1.84,0,2q4.44-.34,3.44,5.13l-1.62.44c-1.52.82-4.06.82-5.76,1.11a59.89,59.89,0,0,0-9.79,2.35c-6.64,2.35-12.75,6.06-19.5,8.13-8.39,2.57-16.75,1.33-25.25.09L769.61,198c-3-.44-12.2-.4-13-4.7-.24-1.27-2.17-.73-1.93.53Z"/><g class="cls-5"><path class="cls-4" d="M831.19,182a23.45,23.45,0,0,0-13.49,5.41c-1,.82.43,2.23,1.41,1.42A21.08,21.08,0,0,1,831.19,184c1.28-.08,1.29-2.09,0-2Z"/></g><g class="cls-5"><path class="cls-4" d="M801.55,190.85c-6.7,2.84-13.84,2.36-20.87,1.34-1.26-.18-1.8,1.74-.53,1.93,7.64,1.11,15.16,1.53,22.41-1.54,1.18-.5.16-2.22-1-1.73Z"/></g><g class="cls-5"><path class="cls-4" d="M767.25,191.33a12.81,12.81,0,0,0-2.48-.87c-.46-.14-1.25-.26-1.58-.66-1-1.18.48-2.45,1.23-3a28.63,28.63,0,0,1,7.05-3.66c1.19-.45.68-2.39-.53-1.93a35.69,35.69,0,0,0-5.89,2.8c-1.45.88-3.11,1.87-3.83,3.48a3.36,3.36,0,0,0,.4,3.55c1.16,1.39,3.12,1.24,4.62,2,1.13.61,2.14-1.12,1-1.72Z"/></g><path class="cls-6" d="M825.25,144.94a111.64,111.64,0,0,0,21.82,3.33c-9.78,6.38-21.27,10.27-32.92,9.5-1.58,2.67-6.38,2.53-9.4,3.23-14,3.23-27.32,1.19-41.34-.43-4.69-.55-10.33-.35-12.75-4.4a33.45,33.45,0,0,0,11.34-2c2.06-.75,6.3-3.08,4.72-4.61"/><path class="cls-1" d="M825,145.9a110.68,110.68,0,0,0,22.09,3.37l-.51-1.87c-7.71,4.9-16.28,8.48-25.46,9.29-2.49.22-5.34-.29-7.66.38a4.63,4.63,0,0,1-3.13,2c-.59.15-1.19.27-1.79.36-1.33.28-2.7.41-4,.65a98.93,98.93,0,0,1-27.86,1c-4.42-.42-8.81-1-13.22-1.49-4.14-.44-9.13-.16-11.88-3.91l-.87,1.51c2.84-.08,20.34-1.93,16.93-8.12-.62-1.13-2.35-.12-1.73,1,.85,1.55-6,3.77-6.48,3.9a35.69,35.69,0,0,1-8.72,1.22,1,1,0,0,0-.86,1.5c4,5.48,12.31,4.74,18.36,5.46,10.34,1.22,20.8,2.34,31.17.88,3.83-.54,8.39-1,12.06-2.23,1-.36,1.86-1.15,2.83-1.51,2.11-.79,4.66-.39,6.88-.58,9.54-.82,18.45-4.47,26.47-9.56a1,1,0,0,0-.5-1.86A109.12,109.12,0,0,1,825.51,144a1,1,0,0,0-.53,1.92Z"/><path class="cls-6" d="M765,140.31a6,6,0,0,1-.37-5.64,12.6,12.6,0,0,1,3.61-4.6,36.87,36.87,0,0,1,15.22-7.63,73.22,73.22,0,0,1,17-1.92c5.06-.07,10.23.15,14.94,2s8.94,5.56,10.21,10.45c.28,1.12.75,2.11-.25,3.44"/><path class="cls-1" d="M765.85,139.81c-1.11-2.3.33-6.3,2-8a25.55,25.55,0,0,1,4-3.21,34.21,34.21,0,0,1,7.4-3.78,57.76,57.76,0,0,1,17.43-3.17c5.33-.26,10.93-.39,16.1,1.06a19.42,19.42,0,0,1,7.85,4.13c2,1.83,5.31,6,3.9,9.07-.53,1.16,1.19,2.18,1.73,1,2.22-4.79-2.29-10.27-6-12.94-7-4.95-16.34-4.75-24.48-4.28-8.42.49-17,2.14-24.24,6.73-5,3.16-10.38,8.17-7.34,14.41.56,1.16,2.29.14,1.72-1Z"/><path class="cls-1" d="M765.25,148.51c3.54,4,8,4.93,13.14,5.43a149.88,149.88,0,0,0,18.34.9c11-.29,21.82-2.91,29.91-10.8.93-.9-.49-2.31-1.41-1.41-7.72,7.51-18,9.93-28.5,10.21a128.36,128.36,0,0,1-14-.51c-5.89-.48-11.85-.47-16.07-5.24-.85-1-2.26.45-1.41,1.42Z"/><path class="cls-7" d="M768.75,145l-1.43-1.6-1.42,1.42a26.29,26.29,0,0,0,5,3.82l.77-1.83L769.3,146a1,1,0,0,0-1.21,1.57c2,2,3.83,3.49,6.78,3.22a1,1,0,0,0,.71-1.71l-2.1-2.24-1,1.67a59.35,59.35,0,0,0,9.13,1.95v-2a36.77,36.77,0,0,1-6.38.22c-1.11-.06-1.39,1.8-.27,2a137.09,137.09,0,0,0,33.32.76,1,1,0,0,0,0-2l-3.76-.2v2a31.26,31.26,0,0,0,21.74-10.95c.83-1-.57-2.39-1.41-1.42a29.25,29.25,0,0,1-20.33,10.37,1,1,0,0,0,0,2l3.76.2v-2a135.26,135.26,0,0,1-32.79-.69l-.26,2a36.77,36.77,0,0,0,6.38-.22,1,1,0,0,0,0-2A54.59,54.59,0,0,1,773,146.6a1,1,0,0,0-1,1.67l2.1,2.25.71-1.71a7.3,7.3,0,0,1-5.37-2.63l-1.21,1.57a7.67,7.67,0,0,0,2.82,1,1,1,0,0,0,.77-1.83,23.88,23.88,0,0,1-4.56-3.51,1,1,0,0,0-1.42,1.42l1.44,1.59c.86,1,2.27-.46,1.41-1.41Z"/><path class="cls-6" d="M765,140.18c2.32,3,6.33,4.89,9.82,5.84,15.95,4.35,42.63,4.5,51.15-11.24"/><path class="cls-1" d="M764.31,140.89c7.65,8.66,23.77,9.23,34.49,8.5s22.32-4.19,28.05-14.1a1,1,0,0,0-1.72-1c-5.59,9.65-17.14,12.68-27.6,13.18-9.9.48-24.76,0-31.81-8-.85-1-2.26.46-1.41,1.42Z"/><path class="cls-1" d="M349.75,363.62l0-25.7a1.27,1.27,0,0,0-1.25-1.25,47.31,47.31,0,0,0-9.9,1.44,1.25,1.25,0,0,0,.66,2.41,44.52,44.52,0,0,1,9.24-1.35l-1.25-1.25,0,25.7a1.25,1.25,0,0,0,2.5,0Z"/><path class="cls-1" d="M347.34,404.86a155.72,155.72,0,0,0,2.4-33.53c-.05-1.6-2.55-1.61-2.5,0a152,152,0,0,1-2.31,32.86c-.29,1.57,2.12,2.25,2.41.67Z"/><path class="cls-1" d="M341.93,337.5a210.57,210.57,0,0,1-51.05,10.14c-8.62.69-17.26,1-25.9,1a100.94,100.94,0,0,1-14-.48c-3.38-.45-6.6-1-10-.69a1.26,1.26,0,0,0-.63,2.33c5.86,4.32,5.84-3.26.3-2.29a1.26,1.26,0,0,0-.55,2.09c5.47,4.74,12.82,8.48,16.83,14.68,2.27,3.51,1.83,8.48,2.2,12.58.45,4.84,1,9.68,1.62,14.5A238.08,238.08,0,0,0,265,415.11c1.13,4.73,2.43,9.42,4,14,1,3.08,1.89,8.08,3.95,10.51,3.65,4.32,14.26,2.59,18.86,2.35,8.68-.46,17.34-1.31,26-2.41,4.38-.56,8.74-1.19,13.1-1.85,3.05-.47,5.81-.74,8.11-3s2.85-5.21,3.56-8.21c1.13-4.76,1.81-9.59,3.22-14.28a1.25,1.25,0,0,0-2.41-.66c-1.24,4.1-1.92,8.28-2.82,12.47a35,35,0,0,1-1.34,5.38c-1.56,3.9-3.49,4.7-7.17,5.58-8.14,2-17,2.48-25.28,3.31-8,.79-16.43,2-24.43,1.49-4.85-.28-7.41-1.75-9.08-6.22-1.39-3.69-2.6-7.44-3.69-11.23C265,407,262.83,391,261.42,375.08c-.26-3,0-6.51-.76-9.33-.61-2.16-3.05-4.64-4.57-6.21-4.28-4.43-9.64-7.66-14.27-11.68l-.56,2.09q2.73-1.35.3-2.28l-.63,2.33c4.14-.41,8.1.57,12.19,1a131,131,0,0,0,13.73.2c8.63-.08,17.26-.43,25.85-1.18a211.31,211.31,0,0,0,49.9-10.07c1.51-.52.86-2.93-.67-2.41Z"/><path class="cls-1" d="M348.67,372.31c1.84-.62,16.28-6,17.28-3.82.24.5-1.05,3.13-1.23,3.67-.67,2-1.32,4.08-2,6.11-1.59,4.91-3.18,9.82-4.84,14.7-.76,2.25-1.31,5-2.45,7-2,3.64-6.41,3.69-10.08,4.59-1.56.38-.9,2.79.66,2.41,2.88-.7,7.74-.86,10-2.88,1.88-1.64,2.48-5.38,3.26-7.62,2.36-6.83,4.56-13.71,6.79-20.58.74-2.28,4.18-8.26,1.33-10.18-1.94-1.31-5.31.2-7.3.66-4.12.95-8.15,2.14-12.15,3.48-1.52.5-.87,2.92.67,2.41Z"/><path class="cls-1" d="M344.94,412.16c7.4-.34,15.17.28,18.4-7.57a233.44,233.44,0,0,0,7.7-23.2c1.22-4.17,2.4-8.37,3.39-12.61.62-2.62,2.24-6.67.56-9.17-2.52-3.73-8.6-1.41-12.12-.95a52.48,52.48,0,0,0-15.11,4.08c-1.47.66-.2,2.82,1.26,2.16a49.76,49.76,0,0,1,14.59-3.83c1.58-.2,4.33-1.18,5.8-.73,3.12,1,3.77,2.43,3.23,5-1.33,6.38-3.17,12.66-5.06,18.89-1.76,5.82-3.6,11.63-5.74,17.33a18,18,0,0,1-1.92,4.51c-3.31,4.33-10.18,3.36-15,3.58-1.6.07-1.61,2.57,0,2.5Z"/><path class="cls-6" d="M264.11,367.18c27.41-.82,51.49-5.6,78.84-7.54-1.57,11-4.15,66.87-8.64,70.21-3.46,2.59-40,4.59-51,5.43a9.85,9.85,0,0,1-5.23-.56c-2.65-1.36-3.48-4.68-4-7.61-1.48-7.85-12.27-53-10.18-59.85"/><path class="cls-1" d="M264.11,368.43c26.43-.89,52.5-5.6,78.84-7.54l-1.2-1.58c-1.62,11.75-2,23.7-3,35.51-.62,7.18-1.26,14.36-2.25,21.49-.42,3-.44,10.2-2.88,12.52-.91.86-3.29,1-4.43,1.17-3.68.65-7.41,1-11.13,1.39-7.79.77-15.6,1.32-23.4,1.86-3.1.21-6.19.41-9.28.63-1.77.13-4,.59-5.68.08-3.5-1.08-3.95-5-4.55-7.95-1.05-5.12-2.22-10.22-3.32-15.34-1.8-8.36-3.57-16.75-5-25.18-.92-5.3-3.06-12.51-1.67-17.9a1.25,1.25,0,0,0-2.41-.66c-1.22,4.71.25,10.45,1,15.14,1.33,8.4,3.05,16.75,4.82,25.07,1.32,6.2,2.73,12.39,4,18.6.58,2.82.94,6,2.84,8.27,2.57,3.11,6.37,2.63,10,2.37,15.15-1.09,31-1.07,45.87-4.23,3.77-.81,4.94-2,5.95-5.69,1.64-6,2.15-12.4,2.81-18.56,1.7-15.92,2-32.06,4.18-47.92.1-.74-.31-1.65-1.21-1.59-26.34,1.94-52.41,6.65-78.84,7.54-1.6.06-1.61,2.56,0,2.5Z"/><path class="cls-1" d="M240.7,348.91q27.33-4.5,54.85-7.69,13.11-1.52,26.25-2.71c8.9-.82,18.14-2.28,27.05-1.12,1.59.2,1.58-2.3,0-2.5-8.9-1.16-18.17.31-27.05,1.12q-14.12,1.29-28.2,2.93-26.87,3.15-53.56,7.56c-1.59.26-.91,2.67.66,2.41Z"/><path class="cls-1" d="M261,372l11.19-1.11c1.59-.15,1.6-2.66,0-2.5L261,369.48c-1.59.15-1.6,2.65,0,2.5Z"/><path class="cls-1" d="M261.3,386.1l11.91-1c1.59-.13,1.6-2.63,0-2.5l-11.91,1c-1.59.13-1.61,2.63,0,2.5Z"/><path class="cls-1" d="M263.74,400.18l11.68-.93c1.59-.13,1.61-2.63,0-2.5l-11.68.93c-1.6.13-1.61,2.63,0,2.5Z"/><path class="cls-1" d="M267.51,413.66l12.35-1.29c1.58-.16,1.6-2.67,0-2.5l-12.35,1.29c-1.58.17-1.6,2.67,0,2.5Z"/></svg>