<svg id="Layer_1" data-name="Layer 1" xmlns="http://www.w3.org/2000/svg" viewBox="0 0 311.45 308.18"><defs><style>.cls-1{fill:#efd6ac;}.cls-2{fill:#cca26b;}.cls-3{opacity:0.4;}</style></defs><title>makeyouown</title><path class="cls-1" d="M262.66,188.94c-2.7-15.94-9.87-27.13-17.05-36.13-27-33.84-58.64-32.36-90.55-31.14-34.27,1.31-68.83,4.83-98.35,39.46-5.76,6.76-12,15.89-12.49,29.09-.76,19.36,10.56,30.69,19.92,36.61l41.78,26.46c17.67,11.19,35.86,22.51,54.36,19.93,25.45-3.55,48.61-33,74.07-36.06,6.3-.76,12.71.11,18.85-2.72s12.24-10.41,14.15-22.31-2.37-27.31-8.68-27"/><path class="cls-2" d="M41.91,203.66c-.2,8.29,2.54,16.15,8.83,21.75,7.53,6.71,18.29,10.41,27.19,14.92,11.53,5.84,23,11.76,34.59,17.51,10.16,5.05,20.78,10,32.17,11.34,20.2,2.41,37.21-9.86,53.14-20.5,8.39-5.61,17-11.45,26.53-14.89,11.34-4.09,23.7-3.08,35.09-6.9,9.56-3.22,11.64-11.53,10.49-20.92-1.2-9.87-6.36-16.57-15.34-20.59-2.92-1.3-5.46,3-2.53,4.32,8.33,3.73,12.65,9.82,13.12,19.06.21,4,0,9.38-3.68,11.89-4.57,3.13-12,3.56-17.35,4.23-8.63,1.08-16.95,2.19-25,5.64-7.77,3.32-14.91,7.9-21.93,12.56-13.61,9-28.5,21-45.59,21.45-11,.31-21.66-3.89-31.48-8.52s-19.54-9.78-29.28-14.72c-10.54-5.33-21.29-10.38-31.66-16-8.26-4.51-12.52-12.19-12.3-21.59.08-3.22-4.92-3.22-5,0Z"/><g class="cls-3"><path class="cls-2" d="M232.67,188.66c-14.74-1.25-26.52,8.37-34.88,19.53-1.93,2.58,2.41,5.07,4.32,2.53,7.35-9.82,17.65-18.15,30.56-17.06,3.2.26,3.19-4.74,0-5Z"/></g><g class="cls-3"><path class="cls-2" d="M157.59,216.43c-16.63,10.68-34.83,4.17-51-4.07-2.86-1.46-5.39,2.85-2.52,4.31,17.73,9.06,37.83,15.76,56,4.07,2.7-1.73.19-6.06-2.53-4.31Z"/></g><g class="cls-3"><path class="cls-2" d="M74.18,201.6c-1.79-2.52-4-4-6.38-5.91-4.69-3.61-5.23-9.67-3.66-15.12,2.87-10,14-17.52,22.7-22,2.86-1.47.34-5.78-2.52-4.31-9.89,5.07-21.91,13.7-25,25-1.37,5-1.54,11,1.06,15.66,2.29,4.07,6.86,5.53,9.49,9.23,1.85,2.6,6.19.1,4.31-2.53Z"/></g></svg>