<svg id="Layer_1" data-name="Layer 1" xmlns="http://www.w3.org/2000/svg" viewBox="0 0 1440 900"><defs><style>.cls-1{fill:#231f20;}.cls-2{fill:#f78f41;}.cls-3{fill:#efd6ac;}.cls-4{fill:#cca26b;}.cls-5{opacity:0.4;}.cls-6{fill:#fff;}.cls-7{fill:#666766;}.cls-8{fill:#e5e5e5;}</style></defs><title>makeyouown</title><path class="cls-1" d="M149.68,602.9c-11.88,0-23.73-.08-34.28,6.16-3.27,1.93-9.29,6.92-4.39,10.63,1.95,1.47,5.12,1.46,7.47,1.72a98.26,98.26,0,0,0,13.51.48A219.39,219.39,0,0,0,156.42,620c5.35-.74,12.53-1.77,16.87-5.34,3.55-2.91,1.3-7.12-2.14-9.21-5.71-3.48-14.92-2.65-21.23-2.37-.32,0-1.26.51-.5.47,5.74-.26,11.69-.44,17.28,1.17,2.66.76,4.64,1.62,6.21,4,2.12,3.17,0,5.25-3.21,7.42-5.19,3.55-13.87,3.64-20,4.16-5.69.49-11.4,1-17.11,1.09s-12.08.27-17.71-1.11c-2.89-.7-5-2.4-4.13-5.51s4.08-4.92,6.85-6.41c9.75-5.25,20.55-5,31.3-5,.25,0,1.31-.48.75-.48Z"/><path class="cls-1" d="M108,618.28c-1.71,6.44,4,11.82,10.29,10.49.73-.15.5-1-.23-.83a7.67,7.67,0,0,1-8.88-9.73c.15-.58-1-.46-1.18.07Z"/><path class="cls-1" d="M174.09,612.75a6.61,6.61,0,0,1,1.55,6.26c-.75,2.9-3.23,3.81-5.6,5.13-.67.38.37.41.69.23,2.4-1.33,4.88-2.2,5.89-5a6.88,6.88,0,0,0-1.44-7c-.23-.25-1.32.17-1.09.42Z"/><path class="cls-1" d="M109.66,627.09c0,3.39.59,7.77-3.16,9.44-.73.32-.08.94.51.68,4.2-1.87,3.82-6.31,3.83-10.21,0-.6-1.18-.43-1.18.09Z"/><path class="cls-1" d="M174.75,620.75a7.13,7.13,0,0,0,2.58,5.92c.31.26,1.38-.19,1.07-.45a6.83,6.83,0,0,1-2.49-5.62c0-.47-1.14-.23-1.16.15Z"/><path class="cls-1" d="M179.26,627c6.48,1.82,13.21,5.93,16.55,12,2.3,4.23,2.77,10,3.51,14.68,2.13,13.6,4.2,27.28,5.84,40.94,1.38,11.5,2.14,23.13,2.75,34.7a97,97,0,0,1-.16,16.79c-.61,5-2.2,7.6-6.16,10.73-10.75,8.52-24.72,11.7-38.1,13.85-12.82,2.06-27.1,3.21-39.68-.4-4.12-1.18-9.72-2.29-12.48-5.86-2.91-3.76-4.37-9-5.76-13.47a269.25,269.25,0,0,1-6.93-28.86c-3.06-15.82-5-32-6.48-48.08-.67-7.26-1.33-15.3.85-22.37,2.9-9.42,11.73-14.6,20.84-16.64.69-.15.57-.62-.13-.47-12.64,2.83-22,10.8-23,24.21-1.25,15.14,2,31.09,4,46.05A320.91,320.91,0,0,0,102.05,743c2.09,8.07,4.07,21.37,12.67,25.09,12.28,5.3,24.45,5.35,37.6,4.44s27.5-3.53,39.58-8.57c4.43-1.85,8.65-5.18,12.25-8.29,3.19-2.74,4.24-5.45,4.75-9.66,1.29-10.54-.22-21.3-.83-31.85-1.11-19.25-4.5-38.19-7.1-57.27-.78-5.73-1.22-12.61-3.86-17.82-3.24-6.42-10.23-10.68-16.91-12.55-.31-.09-1.34.39-.94.5Z"/><path class="cls-2" d="M145.66,655.4a6.43,6.43,0,0,1-1.64.08c-6.21-.52-33.87-2.51-44.51,2.64-1.42.68-5.09,1.58-5.09,4.42,0,4.64,10.31,74.36,17,90.16,2.23,5.21,4.86,10.87,10,13.23a21.12,21.12,0,0,0,8.12,1.48A168.86,168.86,0,0,0,193,757.77c3.83-1.37,7.78-3,10.38-6.16,3.44-4.21-4.61-76.09-7.17-98.72a6.23,6.23,0,0,0-7.32-5.43Z"/><path class="cls-2" d="M145.82,654.45c-14.67.73-29.67-2.89-44.08,1.82-3.92,1.28-8.85,2.81-8.72,7.6a104,104,0,0,0,1.49,11.64q3.15,22.15,7.31,44.17c2.28,12,4.16,24.88,9.36,36,1.65,3.55,3.59,7.15,6.76,9.56,4.21,3.2,9.74,3.11,14.77,3.2a171.18,171.18,0,0,0,34.71-2.89c10.55-2,22.71-4.32,32.15-9.66,4.39-2.48,5.84-4.48,6.05-9.18.56-12.39-1-25.06-2.08-37.38-1.39-15.64-3-31.26-4.77-46.86-.61-5.5.16-14.45-6.77-15.92-3.66-.77-8.49.95-12,1.6l-34.53,6.34c-1.82.34-1.31,2.07.46,1.75l25.52-4.69,14.5-2.66a18.44,18.44,0,0,1,3.09-.57c5.59,0,5.71,4.5,6.14,8.34,2.93,26.07,6,52.23,7.34,78.44a96.65,96.65,0,0,1,.14,13.4c-.65,7.13-11.25,9-16.87,10.69a166.8,166.8,0,0,1-33.93,6.69,162.36,162.36,0,0,1-18,.66c-6.52-.12-12.54-.49-16.65-6.22-6.59-9.17-8.46-22-10.68-32.76-2.76-13.37-5-26.84-7.16-40.33-.92-5.89-1.81-11.79-2.59-17.7-.66-5-2.14-8.52,3.81-10.88,14.4-5.7,30.12-1.6,45-2.34C147.05,656.26,147.81,654.35,145.82,654.45Z"/><path class="cls-3" d="M194.76,661.83c-1.58-3.45-5-5.63-8.42-7.32-26.5-13.14-59.91-7-83.62,10.68-2.4,1.79-4.94,4.12-4.86,7.11.12,4.38,5.41,6.4,9.7,7.29l19.17,4c8.1,1.69,16.44,3.38,24.59,1.94,11.2-2,20.79-9.67,32-11.55,2.78-.46,5.64-.56,8.3-1.49s5.19-2.91,5.75-5.66-1.69-6-4.49-5.67"/><path class="cls-2" d="M196.09,661.2c-3.6-6.58-12.17-9.54-19-11.61a74.83,74.83,0,0,0-22.7-3.14,90.77,90.77,0,0,0-46.22,13.75c-4.3,2.65-13.81,7.64-11.46,14.14,2.24,6.2,12.4,6.7,17.62,7.79,9.52,2,19.28,4.73,29.05,4.93,8.58.18,16.09-2.68,23.77-6.21,5.26-2.41,10.49-4.86,16.23-5.87,3.95-.7,8.28-.75,11.7-3.15,4.66-3.27,5.3-11.34-1.72-11.69-1.35-.07-3,1.92-1,2q4.8,1.47,3.19,5.83a8.37,8.37,0,0,1-5.81,4c-2.17.56-4.48.63-6.68,1a48.72,48.72,0,0,0-9.67,2.9c-7.86,3.15-15.29,7.8-23.83,8.86-10.5,1.3-21.39-2-31.59-4.14-6.1-1.27-26.49-4-15.37-14,11.84-10.63,29.77-16.54,45.35-17.9a73.34,73.34,0,0,1,24.52,1.86c7.33,1.88,17.1,4.77,20.94,11.81.58,1.07,3.36,0,2.66-1.25Z"/><path class="cls-4" d="M97.68,675.47c.62,3.72,4.64,4.42,7.82,4.92,6.67,1.06,13.38,2,20.07,3,10.15,1.49,20,2.75,30-.57,4.82-1.61,9.37-3.92,14-6,7.31-3.26,14.65-4.38,22.34-6.15,1.92-.45,5.28-.85,6.09-3.07,1.51-4.14-4.18-5.49-6.9-5.85-.26,0-1.23.4-.95.43,2.54.34,5.57.7,6.61,3.48,1.44,3.84-5.43,4.82-8.24,5.33A93,93,0,0,0,178.39,673c-7.55,2.21-14.34,6.29-21.69,9-11.3,4.12-22.49,2-34,.36l-13.38-2c-3.66-.54-9.71-.59-10.48-5.23,0-.21-1.2,0-1.16.31Z"/><g class="cls-5"><path class="cls-4" d="M181.57,663.38A25.41,25.41,0,0,0,167,669.25c-.52.43.62.48.93.22a23.45,23.45,0,0,1,13.55-5.4c.59,0,.94-.74.14-.69Z"/></g><g class="cls-5"><path class="cls-4" d="M149.06,673.24c-7.41,3.14-15.28,2.57-23,1.44-.28,0-1.27.41-1,.45,8.38,1.22,16.7,1.63,24.64-1.73.7-.29-.39-.28-.67-.16Z"/></g><g class="cls-5"><path class="cls-4" d="M111,673.53a15.06,15.06,0,0,0-2.86-1c-2.41-.74-3-2.83-1.19-4.7,2.18-2.28,5.87-3.68,8.76-4.77.75-.28.08-.83-.49-.62a38.71,38.71,0,0,0-6,2.87c-1.42.83-3.17,1.79-4,3.26a3,3,0,0,0,.17,3.64c1.21,1.25,3.3,1.14,4.78,1.92.4.22,1.44-.35.9-.63Z"/></g><path class="cls-1" d="M1347.33,439.26a198.7,198.7,0,0,0-24.24,2c-6.07.81-13.5,1.75-18.49,5.68-3.42,2.69-4.09,6.57.42,8.34,6.38,2.5,14.59,1.6,21.22,1.36,12.12-.46,25.21-1.36,35.72-8.08,2.5-1.59,7.91-4.83,3.36-7.07-5.25-2.57-12.29-2.73-18-2.1-.54.06-1,.67-.18.58a34.66,34.66,0,0,1,9.38.09c2,.31,6.46.56,7.82,2,3.36,3.45-2,5.61-4.43,7a39.68,39.68,0,0,1-6.76,3.09c-8.71,3.08-18.12,3.58-27.28,3.91-5.36.2-11.15.68-16.43-.48-2.91-.65-7-1.08-6.53-5.14s8.27-6.27,11.49-7.1c10.32-2.68,21.8-3.33,32.41-3.46.4,0,1.24-.61.47-.6Z"/><path class="cls-1" d="M1300.6,454.32q3.87,24.26,8.31,48.41,2.25,12.15,4.72,24.27,1.23,6,2.51,11.91c.54,2.53.7,5.54,2.06,7.79,5.42,8.93,19.11,8.72,28,8,10.57-.89,19.69-5.12,28-11.58.47-.37-.68-.24-.9-.07-10.84,8.42-22.48,11.83-36.15,11.29-5.56-.22-10.39-1.55-14.86-5-4.68-3.65-4.79-9.76-6-15.24-5.6-26.53-10.29-53.25-14.56-80,0-.27-1.21,0-1.16.31Z"/><path class="cls-1" d="M1374.27,543c.78-5.64.25-11.57,0-17.22-.38-9-1-18-1.6-27.07-1.29-18.36-2.85-36.7-4.31-55.05,0-.5-1.2-.23-1.16.31,1.43,17.93,3,35.86,4.22,53.8.67,9.52,1.31,19.05,1.7,28.59.23,5.5.72,11.26,0,16.73-.08.57,1.1.41,1.17-.09Z"/><path class="cls-2" d="M1307.78,473.35c2.81,1.46,6.13,1.5,9.3,1.51,13.86,0,28.17,0,40.93-5.43a51.34,51.34,0,0,1,8-3.13c1.94,8.93,5.37,67.78,5.19,70.39-.42,6.09-7,7.82-12.38,10.77s-11.54,3.89-17.63,4.28c-6.41.42-13.76-.13-17.8-5.13-3.66-4.53-15.6-61.67-16.45-73.11"/><path class="cls-2" d="M1306.61,474c4.05,1.74,8.26,1.59,12.59,1.59,5.76,0,11.52-.09,17.26-.6a85.1,85.1,0,0,0,13.19-2.13c5.74-1.44,10.9-4.34,16.55-6l-1.61-.21c2.19,10.6,2.31,21.89,3.06,32.65.82,11.77,1.67,23.55,2.08,35.33.27,7.64-7,10.3-13.08,13.1-7.84,3.6-26.48,7.08-32.18-2.19-2.08-3.38-2.82-8.16-3.82-11.93-1.77-6.72-3.33-13.5-4.82-20.28-2.89-13.19-6.31-26.76-7.41-40.26-.06-.76-3-.19-2.89.78,1.09,13.5,4.51,27.06,7.41,40.25,1.61,7.36,3.29,14.7,5.26,22,1,3.53,1.68,8,3.87,11,5.22,7.27,18.06,5.79,25.56,4.56a44.67,44.67,0,0,0,13.25-4.55c3.51-1.77,8-3.3,10.3-6.68,2.24-3.21,1.43-7.41,1.24-11.09-.33-6.66-.73-13.32-1.15-20-.91-14.3-.87-29.42-3.78-43.5-.11-.54-1.33-.29-1.61-.21-4.07,1.16-7.78,3.17-11.77,4.54a68.77,68.77,0,0,1-15,3.16c-4.7.51-9.43.66-14.16.72-5.24.07-11.07.7-16-1.41-.75-.32-3.4.82-2.34,1.28Z"/><path class="cls-6" d="M1018.53,473.88c3.12,1.32,4.85,4.11,2.31,7-.36.4.24.69.6.58,2.62-.78,4.84-2.29,7.34-3.4,4-1.77,8.31-3,12.45-4.39,7.37-2.48,14.71-5.3,22.24-7.25,16.32-4.23,33.46-6.24,50.19-8.08.27,0,.87-.33.58-.69a4.4,4.4,0,0,1-1.28-4.95c.09-.37-.48-.42-.69-.36-15,3.66-30.26,5.39-45.37,8.35-15.42,3-30.77,7.82-45.86,12.2-.71.21-.49,1,.22.82,18.31-5.32,36.81-10.86,55.63-13.94,8.45-1.38,16.94-2.58,25.33-4.3,2.19-.44,4.64-1.37,6.86-1.5,2.62-.15,2-.61,2.55,1.64s1,1.55-1.8,2.3a51.89,51.89,0,0,1-6.85.84c-18.61,2.4-36.7,5.59-54.49,11.59-4.67,1.57-9.35,3.13-14,4.72-3.48,1.19-6.88,3.36-10.31,4.4-2.14.64-.94,1.56-1-.14,0-.83.34-1.29.18-2.18-.39-2.16-2.28-3.27-4.12-4.05-.5-.21-1.35.51-.67.8Z"/><path class="cls-6" d="M1012.78,472.38a488.89,488.89,0,0,1,103-23.41,25.64,25.64,0,0,1,2.66,13c-30.82,1.46-61.59,8.26-88.2,19.49-7.9,3.33-10.6,6.08-17.81,10.71"/><path class="cls-1" d="M1013,472.58a487.47,487.47,0,0,1,93.38-22.15c3.84-.52,8.26-2.27,10.19,1.86,1.3,2.77,2.66,8.46-.62,9.58-2.81.95-7.25.49-10.3.79q-6,.57-11.94,1.4a266.58,266.58,0,0,0-42.81,9.61,210.93,210.93,0,0,0-21.64,8c-6.2,2.73-11.49,6.73-17.13,10.42-.65.42.37.49.7.27,6.86-4.48,13.24-8.89,20.89-12a238.76,238.76,0,0,1,26.8-9,271.79,271.79,0,0,1,57.74-9.08c.25,0,.8-.12.81-.45a28.52,28.52,0,0,0-2.66-13.05c-.07-.17-.34-.14-.49-.13a496.73,496.73,0,0,0-103.36,23.5c-.77.27-.06.57.44.4Z"/><path class="cls-6" d="M910.86,491.27c-1.64,5.44,6.52,49,8.14,53.7,1.34,3.88,12.07,8.8,12.07,8.8,2,1.78,23.26,2.41,25.91,2.39,24-.19,22.31-.32,44.48-8.2,2.31-.82,5.81-4.3,7.73-5.82,2.76-2.19,8.24-50.25,5.41-56.19-1.26-2.64-8.38-10.1-6.91-6.67,3.24,7.53-1.68,17.6-9.58,19.43-25.27,5.85-38.84,12.77-60.12,5.59-11.11-3.75-24.72,1.32-21.54-17.14C916.86,484.78,911.5,489.15,910.86,491.27Z"/><path class="cls-1" d="M910.28,491.32c-1.4,5.61.67,13.09,1.49,18.64q2,13.57,4.76,27a50.24,50.24,0,0,0,1.73,7.61c1.2,3.23,4.46,5.15,7.3,6.82,5.62,3.32,10.37,4.09,16.93,4.55a257.12,257.12,0,0,0,26.63.41c9.06-.31,17-2.52,25.5-5.56,5.91-2.11,14.36-4.63,16.28-11.47,2.07-7.37,2.75-15.3,3.56-22.88.94-8.77,2-17.89,1.4-26.72a10.8,10.8,0,0,0-2.87-7.07c-.83-1-3.86-5.43-5.73-4.53-.13.06-.33.2-.33.37,0,2.3,1.31,4.25,1.16,6.76a15.53,15.53,0,0,1-4.29,9.7c-3.06,3.11-7.25,3.68-11.29,4.69-3.87,1-7.71,2-11.56,3-14.23,3.74-27.45,5.86-41.83,1.49-7-2.14-20.46-.5-22.34-9.59-.36-1.71,1.36-8-.56-8.51-2.11-.54-5.25,3.68-5.91,5.13-.26.59.91.56,1.11.11.47-1,2.14-3.62,3.38-3.82,1.9-.3.64,2.19.6,4a11.89,11.89,0,0,0,1.45,6.76c2.23,3.43,6.6,4,10.32,4.55,6.75.94,13.05,3.13,19.74,4.26a60.26,60.26,0,0,0,21.13-.51c8.93-1.65,17.64-4.39,26.46-6.55,6-1.46,10.71-3.36,13.38-9.34a15.34,15.34,0,0,0,1.32-8c-.09-.7-.41-3.66-1.26-3.55.69-.09,2.89,2.8,3.34,3.31,3,3.48,3.47,6.13,3.52,10.65.11,11.1-1.18,22.33-2.71,33.31a91.94,91.94,0,0,1-2.36,13.08c-1.88,6.44-10.38,8.86-16,10.86s-11.28,4-17.26,4.77a155.08,155.08,0,0,1-20.45.67c-8.85-.11-19.36.52-27.34-3.72-5.14-2.74-8.79-5.31-10.08-11-1.22-5.39-2.23-10.84-3.2-16.29-1.2-6.68-2.31-13.37-3.19-20.1-.54-4.13-1.8-9.26-.77-13.39C911.58,490.68,910.4,490.83,910.28,491.32Z"/><path class="cls-6" d="M1009.1,469.45c-3.89-3.61-8.8-5.9-13.73-7.86l4,.67a89.37,89.37,0,0,0-72.32,6.92c-8.7,5-17.18,12.62-17.91,22.62a7.48,7.48,0,0,0,1.12,5.11,9,9,0,0,0,3.35,2.35A104.75,104.75,0,0,0,997.37,502c8.42-3.42,17.39-9.42,18-18.49C1015.75,478.21,1013,473.06,1009.1,469.45ZM994.17,498c-24.06,6.12-25.36,8.43-49.85,4.34-2.07-.34-27.69-7.18-28.2-9.22s.76-9.46,2.54-10.68C941,467.3,959.73,461.1,986.24,466.4l.69-.06c3.9.63,14.16,3.66,17,7.07,1.66,2,4.5,8.57,4.48,11.18C1008.34,490.31,999.72,496.63,994.17,498Z"/><path class="cls-1" d="M1009.64,469.23a39.93,39.93,0,0,0-10.13-6.36c-.88-.4-5.57-1.37-3.32-.77.91.24,1.9.32,2.82.47.25,0,1.32-.42.82-.58a91.19,91.19,0,0,0-50.54-2c-14,3.48-32.28,10.79-38.85,24.83-1.32,2.83-2.48,6.64-1.77,9.81.84,3.74,4.38,4.91,7.55,6.31a102.51,102.51,0,0,0,26,7.55,105.83,105.83,0,0,0,50.61-4.5c7.19-2.5,15-5.85,19.74-12.08,5.72-7.49,3.36-16.41-2.94-22.69-.28-.28-1.37.15-1.08.44,5.8,5.79,8.41,13.87,3.71,21.17-4.32,6.72-12.58,10.16-19.81,12.66a104.16,104.16,0,0,1-72.2-1.78c-3.53-1.42-8.66-3-10.25-6.75-1.51-3.61.83-9.08,2.59-12.15,7.95-13.9,27.54-20.78,42.38-23.45a90.54,90.54,0,0,1,27-.72,85,85,0,0,1,12.22,2.45,15.5,15.5,0,0,0,4.17.87c2.44,0,.27-.15-.27-.28-.79-.19-1.62-.27-2.43-.4-.23,0-1.32.37-.82.58,5,2,9.62,4.27,13.66,7.8C1008.86,469.93,1009.94,469.49,1009.64,469.23Z"/><path class="cls-1" d="M994.1,497.76c-7.33,1.88-14.62,4.25-22.08,5.57-6.78,1.21-13.54.76-20.33-.17a149.87,149.87,0,0,1-29.59-7.59c-1.31-.47-3.64-.92-4.66-1.94-1.7-1.69-.67-5.14-.08-7.33,1.18-4.36,5.92-6.53,9.54-8.71a110,110,0,0,1,12.41-6.48c15.47-6.77,31.18-7.12,47.61-4.38,7,1.17,15.23,3.65,18.49,10.43,1.77,3.69,3.37,7.64,1.13,11.49-2.54,4.37-7.67,7.7-12.44,9.11-.68.2-.55.76.15.56,5.54-1.65,13.11-6.16,14.49-12.28,1.31-5.84-3.39-13.19-8.44-15.76-6.39-3.27-13.44-4.39-20.45-5.31a76.62,76.62,0,0,0-26.2.84,89.23,89.23,0,0,0-26,10.62c-6.37,3.72-13.11,6.8-12.18,15.45.41,3.82,6.68,4.59,9.79,5.58,5.58,1.78,11.25,3.49,17,4.82a84.57,84.57,0,0,0,24.09,2.37c9.51-.63,18.81-4,28-6.33C994.94,498.14,994.8,497.58,994.1,497.76Z"/><path class="cls-2" d="M917.49,492.64c.44-8.78,32.84-15.94,61.29-13.32,7.8.72,27.1,2.5,28.05,8.77,1,6.53-16,10.21-30.21,14.84-3.76,1.23-25.53,1.24-54.45-5.72C918.15,496.25,917.43,493.74,917.49,492.64Z"/><path class="cls-1" d="M918.08,492.6c.55-4.56,7.28-6.79,10.91-8.06a95.59,95.59,0,0,1,19.73-4.24,150.5,150.5,0,0,1,40,.61c4.94.72,11.56,1.34,15.59,4.6,6.66,5.39-5.75,9.88-9.65,11.26-9.38,3.34-18.37,6.54-28.35,6.3a180,180,0,0,1-21.74-2q-6.45-.94-12.84-2.24c-3.89-.78-13.43-1.22-13.65-6.23,0-.63-1.2-.48-1.18.08.27,6.17,11.25,6.42,15.34,7.23a219.88,219.88,0,0,0,27.64,3.77c5,.33,10.32.82,15.27,0,7-1.16,14.42-4.07,21.08-6.54,3.42-1.27,10.26-3.39,11.13-7.73s-5.2-6.41-8.35-7.35c-14.73-4.42-31.89-4.52-47-3-8.43.83-17.07,2.23-25,5.29-3.67,1.42-9.53,3.78-10.09,8.35C916.82,493.3,918,493.17,918.08,492.6Z"/><path class="cls-1" d="M1019.34,483.42c29.63-15.63,63.6-21,96.44-25.3.62-.09.91-.91.11-.8-33,4.33-67.23,9.73-97.05,25.47-.7.37-.06.93.5.63Z"/><path class="cls-1" d="M943.13,500.44c-2.11-4.31-9.53-2.15-13.08-1.19a40.06,40.06,0,0,0-17.29,9.87,38.91,38.91,0,0,0-6.23,7.72c-1.85,3-2.4,6.88-4.19,9.72-1.21,1.89-3.76,1.76-5.32,3.26-2,1.94-2.62,5.11-3,7.74,0,.26.34.25.5.24l9.74-.68c.2,0,.61-.16.66-.39a21.59,21.59,0,0,0,0-8.21c-.07-.38-1.24-.11-1.16.31.27,1.54,1.09,5,.26,6.44-1,1.84-4.61,2-6.46,1.7-2.37-.33-1.91-.45-1.83-2.51.08-2.28,1.67-3.75,3.5-4.72a20,20,0,0,0,3.35-1.61c1.32-1.46,1.5-4,2.22-5.73a38.85,38.85,0,0,1,20.9-21c3.06-1.28,14-5.21,16.26-.6.2.39,1.33,0,1.16-.31Z"/><path class="cls-1" d="M946.56,502c-2.52-10.15-21.08,1-25.32,4.53-4.73,3.94-6.76,9.15-7.35,15.18-.26,2.62.1,3.56-1.85,5.82-.93,1.06-1.13.67-2,1.81-1.36,1.78-1.79,4.18-2.21,6.32-.05.29.34.35.53.34,2.79-.09,9.24.71,11.59-1.34,1.55-1.36.73-6,.76-8,0-.28-.29-.36-.53-.34l-4.46.3c-.63,0-.92.85-.12.79,1.57-.11,3-.75,3.92.93a9,9,0,0,1,0,3.14c-.52,2.55-1.67,2.77-4.28,3.28a12.46,12.46,0,0,1-4.19.31c-5.2-1.12,2.79-6.65,3.78-9.25.8-2.13.27-5.29.73-7.58a18.86,18.86,0,0,1,4.59-9.5c3-3.16,22.93-16,25.3-6.48.12.5,1.28.19,1.16-.31Z"/><path class="cls-1" d="M949.07,502.39l.23.13a1.14,1.14,0,0,0,1.07-.24c2.27-2.77-4.81-4.64-6.45-4.7a21,21,0,0,0-11.23,3.27,17.39,17.39,0,0,0-8.36,11.59,14.79,14.79,0,0,0,.9,8.52c.29.66,2,2.76,2.08,3.45.16,2.66-3.69,3.49-5.46,4.27-.06,0-.27.14-.24.25l1.82,5.76c.06.18.53.07.63,0,2.46-.75,7.31-1.54,8.76-4,1.1-1.88-.75-5.6-3.3-4.59.76-.3.05-.47-.41-.29l-1.11.44c-.31.12-.55.42,0,.4q3.46-.67,3.58,2.24c1,1.44.5,2.35-1.37,2.75-1.4.91-4.24,2.8-6,1.29-.78-.66-.89-3-.56-3.79.64-1.52,1.86-1.3,3.11-2.12,3.18-2.11,1-3.32-.29-6.38a15.29,15.29,0,0,1,1.94-14.94,18.58,18.58,0,0,1,11.29-7.06c2.56-.57,5.55-1,7.9.56,1.15.75,1.46,2.12,2.64,2.77-.3-.16-1.27.31-1.09.41Z"/><path class="cls-1" d="M953.67,502.09c-3.08-5.5-13.7-4.85-16.73.48-2.59,4.55-1.38,11.22-.48,16,.57,3.09.8,2.45-1.47,5.74-.21.29-.78.43-.93.78-.95,2.19.31,4.2-.46,6.47-.06.17.24.19.34.19,2.08-.13,5.9-.31,7.33-2.23,1.76-2.38.49-6.65-2.14-7.69-.29-.11-1.34.34-.94.5a3.71,3.71,0,0,1,2.46,3.6c.75,3.44-1.1,4.93-5.56,4.44a16.33,16.33,0,0,1-.37-3.47c.54-3.53,3.33-2.67,3.44-6,.07-2.17-1-4.81-1.2-7a29.37,29.37,0,0,1-.09-7.61c.68-4.21,2.49-6.72,7.59-7.21,3.12-.3,6.43.47,8,3.36.18.33,1.29-.08,1.16-.31Z"/><path class="cls-1" d="M945.81,497.83A22.34,22.34,0,0,0,928,509.36a32.35,32.35,0,0,0-2.18,5.87c-.43,1.4-.61,3.19-1.33,4.44-2.23,3.92-1,.93-2.84,2-2.23,1.2-3.63,2.07-3.55,4.88,0,.6,1.19.41,1.18-.09-.17-5.24,3.63-3,5.44-4.68,1.29-1.21,1.77-4.94,2.27-6.59,2.7-9,9-15.52,18.68-16.48.64-.07.9-.91.11-.83Z"/><path class="cls-1" d="M941.62,498.24c-7.08,1.28-15.3,3.09-20.85,8A51.81,51.81,0,0,0,914.2,514c-2.25,3-4.91,9.85-8.78,10.7-.18,0-.48.22-.48.44a7.85,7.85,0,0,0,.39,3.66c.12.52,1.28.21,1.16-.31-.86-3.63,1.57-3.57,3.28-5.78,2.35-3,4-6.6,6.38-9.66,3.15-4.07,6.19-7.58,10.94-9.82A59.36,59.36,0,0,1,941.83,499c.73-.13.51-.9-.21-.77Z"/><path class="cls-6" d="M1206.53,146.71a18.26,18.26,0,0,0,4.38,2.34c.72.33,2.83.95,3.1,1.66,0,0-3.1-.61-3.16-.63-.24-.05-1.29.38-.83.55,3.61,1.37,6.67,3.18,8,7l1.12-.37a38.5,38.5,0,0,0-3.62-3.13c-.28-.21-1.37.18-1.09.43,7.09,6.22,6.83,15,7.62,23.66l1.16-.31-.52-4.85-1.16.31c1.83,5.56,2,12.21,2.55,18.11q1,11.16,2,22.31,1.05,11.92,2.16,23.82c.4,4.23.47,8.74,1.42,12.9.08.35,1.24.06,1.16-.31-.92-4-1-8.38-1.38-12.47q-1.15-12.12-2.2-24.25-1-11-2-22c-.55-6-.72-12.81-2.58-18.46-.11-.36-1.2-.06-1.16.31l.52,4.85c0,.33,1.19.08,1.16-.31-.79-8.74-.64-17.59-7.69-23.78l-1.09.43a41.57,41.57,0,0,1,3.63,3.13c.2.2,1.25,0,1.12-.37a10.09,10.09,0,0,0-4.29-5.34,14.65,14.65,0,0,0-2.64-1.36l-.56.39,3.23.68c.18,0,1.18-.18.9-.51-2.22-2.57-5.66-2.78-8.24-4.9-.29-.24-1.36.21-1.09.44Z"/><path class="cls-7" d="M1174,61.87a8.9,8.9,0,0,0,1,3.5c.14.26.6.13.81.06,3.15-1.2,7.14-1.35,10.48-1.42.17,0,1.19-.34.7-.57-1.55-.76,1.41-3.49-1.37-3-.67.13-.69.28-1.2.64-.27.2-.09,1.47-.26.35-.08-.52.1-.82-.17-1.27-.09-.16-.32-.17-.49-.14a2.46,2.46,0,0,0-2.09,2.89l.51-.42s-.21-2.4-1.65-2a1.53,1.53,0,0,0-.82.52c-.26.36-.19,1.48-.24.93-.09-.89,0-1.81-1.25-1.65-1.83.24-.72,2.51-1.62,3.32l.93-.19c-.74-.39-.8-1.76-1-2.47l-.66.46.36,0c.55-.06,1-.69.17-.59l-.36,0c-.16,0-.73.18-.67.45.25,1,.22,2.19,1.2,2.7a1,1,0,0,0,.92-.19c.49-.45.39-.46.54-1.1s0-2,.25-.57c.06.31-.17.62,0,.93a1.12,1.12,0,0,0,1.53.67,1.56,1.56,0,0,0,.69-.55c.1-.16.23-1.43.26-1.41.34.21-.18,1.14.57,1.44a1.7,1.7,0,0,0,1-.11c.18,0,.54-.18.51-.42a1.29,1.29,0,0,1,.33-1.44,1.26,1.26,0,0,0-.17.65c.27.61-.22.61.45,1a1.66,1.66,0,0,0,1.26,0c.45-.19,1-1.13,1.2-1a6.26,6.26,0,0,0-.31,1.32c.14.56.26.55.73.78l.7-.57c-3.74.07-7.88.26-11.4,1.6l.8.06a9,9,0,0,1-1-3.51c0-.33-1.19-.1-1.16.32Z"/><path class="cls-6" d="M1172,147.68a1.83,1.83,0,0,1-.47,1.82c0,.08-.07.15,0,.22.6.62-5.19,8.89-5.72,9.92a27.74,27.74,0,0,0-3.42,11.81c-.17,4.22,1.31,8.11,1.6,12.27.22,3.21-1.23,6.9,1.1,9.55.22.26,1.14,0,1.11-.37l-.39-7c0-.34-1.17-.1-1.16.31.17,5.79.22,11.6.52,17.38.27,5.16,3.77,9,2.68,14.27l1.16-.23c-.17-1.92-.25-3.79-.25-5.72,0-.32-1.16-.11-1.16.31-.12,10.46,1.69,20.95,2.72,31.34.43,4.41.71,9,1.49,13.33.37,2.06.76,3.29,2.88,3.42.2,0,1-.2.77-.52a14,14,0,0,1-2.36-4.59l-1.12.37c1.21,1.38,4.41,3.85,4.92,5.49.36,1.14.15.46-1.21.21a24.32,24.32,0,0,1-3.82-1.33c-.29-.11-1.41.28-.93.53,5.63,2.94,11.55,5.42,17.9,6.26,5.81.78,11.81.05,17.6-.62,10.38-1.22,19.74-4.47,24.83-14.23.16-.3-1-.2-1.11.08-2,3.63-3.69,9.71-9,8.75-.35-.06-1.36.48-.72.59,6.68,1.19,7.91-4.08,10.84-9.34l-1.12.08c-6.58,12.62-21.74,14.14-34.59,14.38a43,43,0,0,1-17.42-3.5c-1.06-.44-2.08-1-3.15-1.42,0,0-2.78-1-2.5-.46.47.89,5.12,1.58,6.3,1.89.19.05,1.2-.2.9-.52q-3.35-3.58-6.59-7.28c-.2-.22-1.23,0-1.12.38s1.23,3.76,1.65,3.66c-.22.05-.68-3.27-.72-3.56q-.89-7.06-1.57-14.15c-.92-9.83-2.66-19.66-2.54-29.55l-1.16.31c0,1.93.08,3.8.25,5.72,0,.36,1.09.06,1.15-.24,1-5-2.1-8.15-2.61-12.92-.65-6.2-.4-12.65-.58-18.88l-1.16.31.4,7,1.12-.38c-2.12-2.41-.83-5.66-.93-8.53-.15-4.14-1.69-8-1.67-12.21a32.74,32.74,0,0,1,9.6-21.85c.08-.07.19-.19.08-.29a1.5,1.5,0,0,1,.51-2.12c.09-.11,0-.21-.07-.27l-.76-.41c-.3-.17-1.37.29-.93.53Z"/><path d="M1173.9,66.57a11.49,11.49,0,0,0-.47-2.82c-.47-1.39-.19-1.35-.66-2.74a31.5,31.5,0,0,1,14.4-1.6c-.24,1.93.23,3.94.09,6a39.74,39.74,0,0,0-13.34,1.2"/><path d="M1173.05,67.2c1,5.13-.71,8.94-.93,13.93a55.93,55.93,0,0,0,1.31,12.23c.11.57,1.27.27,1.16-.31-.91-5.06-1.88-10.29-.92-15.42.72-3.93,1.3-6.72.54-10.74-.11-.56-1.27-.26-1.16.31Z"/><path d="M1187.66,65.46c.62,4.55,2.58,8.12,3.79,12.43s1.08,9.19,1.47,13.62c0,.34,1.2.1,1.16-.31-.39-4.43-.27-9.32-1.47-13.62s-3.18-7.88-3.79-12.43c0-.34-1.22-.09-1.16.31Z"/><path d="M1173.92,94.44c-1.63,4.31-1.23,9-1.82,13.54-.45,3.53-1,7-1.42,10.57-1.06,9.32-.32,18.92.34,28.24,0,.25,1.19,0,1.16-.31-.67-9.47-1.46-19.27-.27-28.74.42-3.32.9-6.63,1.34-9.95.6-4.5.2-9.27,1.82-13.54.1-.24-1-.12-1.15.19Z"/><path d="M1193.3,92.47c5.12,6.34,7.31,16.67,9.29,24.42,1.22,4.77,2.06,9.65,3,14.48.77,3.77,2.9,8.84,2.46,12.64,0,.11,1.12,0,1.16-.31.44-3.8-1.69-8.87-2.46-12.64-1-4.83-1.82-9.71-3-14.48-2-7.75-4.17-18.08-9.29-24.42-.21-.26-1.22.23-1.16.31Z"/><path d="M1207.88,144.28c4.85,5.55,10.78,8.59,13.65,15.82a29.63,29.63,0,0,1,1.77,7.05c.82,5.93,1.43,11.9,2.09,17.86q2.83,25.91,5.41,51.83c.5,5,1.1,10,1.42,14.95,0,.4,1.19.16,1.16-.31-.8-12.48-2.42-25-3.71-37.39-1.61-15.47-3.08-31-5.1-46.39a32.52,32.52,0,0,0-1.62-7.19c-2.76-7.63-8.93-10.89-14-16.7-.28-.32-1.39.11-1.07.47Z"/><path d="M1170.8,146.82c-3.74,6.28-9,13-10.39,20.37s1.26,15.6,1.94,23c.78,8.56,1.92,17,2.75,25.62s1.56,17.12,2.34,25.67c.59,6.43.75,13.11,1.91,19.47.09.52,1.26.22,1.16-.31-2.61-14.36-2.76-29.48-4.14-44-.74-7.78-2.29-15.51-2.6-23.26-.15-3.66-.66-7.31-1.07-10.94-.51-4.48-1.83-9.23-1.36-13.74.83-7.78,6.67-15.17,10.56-21.71.32-.54-.85-.54-1.1-.12Z"/><path d="M1169.47,261.12c10.43,9.22,25.2,9.28,38.25,7.14,11.31-1.85,24.31-4.25,25.51-17.7,0-.47-1.13-.25-1.16.14-.61,6.75-4.09,11.28-10.63,13.53a83.68,83.68,0,0,1-17.13,3.88c-11.77,1.43-24.49.76-33.77-7.45-.3-.27-1.39.18-1.07.46Z"/><path class="cls-2" d="M1200.42,123.61c-8.43.92-17.8,4.45-26.37,4-1.16-.07-1.51,1-1.55,2.19-.24,7.75,3.08,12.29.27,19-1.89,4.46-7.93,12.66-8.82,16.67-2.31,10.37,6.23,77.42,8.89,87.79a16.89,16.89,0,0,0,5.28,9c3,2.42,8.32,3.85,12.17,3.71,4.75-.17,9.57-.46,14.32-.63,7.51-.27,17.85-3.35,22.13-9.53,2.59-3.74,2.28-6.88,1.92-11.42-1.42-18.15-7.32-71.58-8.31-78.36-.68-4.7-4.38-10.86-8.15-13.75a12.65,12.65,0,0,1-2.1-2.08,19.82,19.82,0,0,1-4.75-9.59,81.77,81.77,0,0,1-2.19-12.38L1203,127l-.34-1.68a.56.56,0,0,0,0-.12C1202.23,124.29,1202.35,123.4,1200.42,123.61Z"/><path class="cls-2" d="M1200.54,122.52c-4,.51-7.91,1.37-11.85,2.21-2.64.57-5.29,1.14-8,1.46-2.22.26-4.8-.17-6.94.34-5.86,1.4-1.35,12.67-1.35,16.57,0,7.72-6.63,13.57-9.31,20.41-1.11,2.82-1.06,5.83-1,8.81.22,22.57,3.59,45.46,6.92,67.75,1.3,8.63,1.79,20,10.58,24.51,7.33,3.74,16.14,2.1,24,1.74,6.62-.3,13.43-1.74,19.08-5.37,6.12-3.93,8-9.17,7.5-16.27-.37-5-.87-10.05-1.36-15.07q-2-20.22-4.25-40.42c-1.12-10.11-.62-23.29-6.23-32.17-2.38-3.78-6.19-6.15-8.63-9.84s-3.33-8.39-4.16-12.79c-.73-3.9.35-11.72-5-11.87-1.68,0-2.19,2.13-.24,2.18s2.8,12.65,3.23,14.52a28,28,0,0,0,2.85,8.19c2,3.39,5,5.42,7.51,8.38,5.86,7.05,5.79,16.51,6.77,25.18,2.46,21.63,5.38,43.38,6.65,65.11.6,10.14-6.87,15.08-16,17.14a62.58,62.58,0,0,1-11.1,1.07c-4.47.21-9.25.91-13.67.09-12.19-2.24-13-14.27-14.55-24.22-3.12-20.59-5.78-41.45-6.82-62.26a61.87,61.87,0,0,1,0-11.14c.78-5.68,5.17-10.59,7.81-15.52a17.38,17.38,0,0,0,2.34-9c-.09-2.63-2.84-10.73-1.37-12.58,1.63-2.05,7.77-1.41,10.24-1.85,5.39-1,10.66-2.41,16.09-3.1C1201.93,124.5,1202.51,122.27,1200.54,122.52Z"/><path class="cls-6" d="M606,616.1a15.5,15.5,0,0,0,3.84,2.13,15.35,15.35,0,0,1,2.58,1.17c1.9,1.34-1.7-.06-2.37-.2-.46-.1-1.18.59-.52.84,3.55,1.34,6.56,3.1,7.9,6.85l1-.5a41.68,41.68,0,0,0-3.63-3.14c-.42-.31-1.4.24-.89.69,7,6.16,6.74,14.94,7.52,23.53l1.16-.31-.52-4.85-1.16.31c1.82,5.53,2,12.23,2.55,18.12q1,11.14,2,22.31,1.05,11.91,2.16,23.82c.4,4.23.47,8.74,1.42,12.9.13.55,1.29.25,1.16-.32-.92-4-1-8.37-1.38-12.47q-1.15-12.11-2.2-24.24-1-11-2-22c-.55-6-.71-12.79-2.58-18.47-.18-.56-1.21-.24-1.16.31l.52,4.85c.06.55,1.21.26,1.16-.31-.8-8.84-.65-17.64-7.79-23.91l-.89.69a39.93,39.93,0,0,1,3.63,3.13c.29.28,1.19,0,1-.5a9.89,9.89,0,0,0-3.8-5.05,12.45,12.45,0,0,0-2.61-1.48c-.57-.53-.87-.4-.91.37l3.22.68c.3.06,1.06-.31.73-.69-2.24-2.6-5.74-2.86-8.33-5-.41-.34-1.41.25-.89.69Z"/><path class="cls-7" d="M573.32,531.13a9.11,9.11,0,0,0,1,3.6c.13.26.59.15.78.08,3.2-1.22,7.22-1.36,10.63-1.43.28,0,1-.51.51-.74-1.46-.72,1.41-3.51-1.39-3a7.09,7.09,0,0,0-1.19.68c-.44,0-.11-.35-.45-.94a.52.52,0,0,0-.48-.16,2.54,2.54,0,0,0-2.06,3l.48-.54c.11,0-.34-2.39-1.65-2.06a1.49,1.49,0,0,0-.8.57c-.37.53-.18,2.84-.22,1,0-.88-.07-1.94-1.29-1.79-1.8.21-.75,2.57-1.61,3.35l.93-.17c-.73-.38-.77-1.7-.94-2.4l-.64.57.37,0c.63-.07.9-.92.11-.83l-.37,0c-.26,0-.72.22-.63.57.24,1,.23,2.24,1.21,2.75a.81.81,0,0,0,.93-.16c.57-.53.32-.71.5-1.43.27-1,.11.46.31.82a1.19,1.19,0,0,0,1.5.57,1.63,1.63,0,0,0,.66-.56c.26-.43,0-1.18.24-1.06.07,0,.26.89.61,1.05a1.36,1.36,0,0,0,1-.05.55.55,0,0,0,.47-.54c.39-1.67.44-2,.16-.9,0,.22,0,.45.06.67a1.34,1.34,0,0,0,.48.57,1.52,1.52,0,0,0,1.27,0c.92-.45.66-1.67.84-.48.12.79-.17,1.16.7,1.59l.5-.75c-3.66.08-7.79.28-11.25,1.6l.79.07a8.48,8.48,0,0,1-.94-3.4c0-.51-1.2-.24-1.16.31Z"/><path class="cls-6" d="M571.38,617c.54.29-.47,1.69-.5,1.74a.24.24,0,0,0,0,.28c.53.55-5.23,8.85-5.74,9.85a28,28,0,0,0-3.42,11.83c-.17,4.49,1.42,8.7,1.6,13.14.12,3-1.06,6.26,1.11,8.73.29.33,1.14.06,1.12-.4l-.4-7c0-.43-1.18-.19-1.16.22.17,5.8.22,11.63.52,17.43.26,5.1,3.74,9.07,2.67,14.3l1.17-.22a42.13,42.13,0,0,1-.25-5.62c0-.54-1.16-.33-1.16.12-.12,10.21,1.65,20.39,2.63,30.54.44,4.58.87,9.19,1.53,13.74.31,2.14.57,3.82,2.94,4,.26,0,1-.24.75-.62a15.48,15.48,0,0,1-2.35-4.57l-1.11.4q3.24,3.69,6.59,7.28l.88-.6a77.42,77.42,0,0,1-7.71-2.43c-.33-.12-1.32.39-.8.67a56.8,56.8,0,0,0,16.34,6c6.07,1.07,12.26.4,18.34-.27,10.61-1.18,20.38-4.24,25.61-14.28.28-.54-.88-.46-1.09-.07-1.83,3.28-4,9.64-9.06,8.73-.43-.08-1.37.58-.69.71,3.36.59,5.23.22,7.12-2.7.2-.29,2.92-4.76,2.79-5-.81-1.45-3.7,3.53-3.55,3.35a24.42,24.42,0,0,1-12.84,7.2c-7.6,1.85-16.75,2.86-24.51,1.84a46.35,46.35,0,0,1-12.91-3.87c-.7-.31-3.24-2.29-3.93-1.06,0,0,5.7,1.73,6.2,1.86.23.06,1.25-.2.88-.59q-3.36-3.6-6.59-7.28c-.25-.29-1.27-.07-1.12.39,0,0,1.31,3.83,1.66,3.68-.28.12-.76-4-.81-4.38-.55-4.45-1.07-8.89-1.49-13.35-.91-9.79-2.65-19.6-2.54-29.45l-1.16.12c0,2,.08,3.86.25,5.81,0,.48,1.09.15,1.16-.21,1-5-1.86-7.58-2.53-12.21-.91-6.32-.48-13.13-.67-19.52l-1.16.22.4,7,1.11-.39c-2.1-2.4-.82-5.67-.92-8.52-.16-4.41-1.86-8.5-1.69-13,.26-7.12,4.37-16.13,9.64-21,.09-.09.17-.26.06-.37l.45-2c.11-.14.17-.34,0-.45l-.76-.41c-.38-.21-1.43.33-.9.62Z"/><path d="M573.22,535.83a12,12,0,0,0-.46-2.82c-.48-1.38-.19-1.35-.67-2.73a31.38,31.38,0,0,1,14.4-1.61c-.24,1.93.23,3.94.09,6a39.93,39.93,0,0,0-13.33,1.19"/><path d="M572.37,536.47c.85,4.47-.31,8-.8,12.32-.51,4.63.37,9.29,1.19,13.84,0,.21,1.2,0,1.15-.32-.81-4.53-1.7-9.2-1.18-13.83s1.71-7.53.8-12.32c0-.22-1.21,0-1.16.31Z"/><path d="M587,534.73c.62,4.55,2.59,8.12,3.79,12.42s1.09,9.19,1.48,13.63c0,.46,1.2.19,1.16-.32-.39-4.43-.28-9.32-1.48-13.62s-3.17-7.87-3.79-12.42c-.07-.47-1.23-.2-1.16.31Z"/><path d="M573.24,563.69c-1.63,4.3-1.21,9-1.82,13.54-.47,3.52-1,7-1.43,10.57-1,9.33-.31,18.93.36,28.26,0,.34,1.18.1,1.16-.31-.68-9.47-1.48-19.27-.27-28.73.42-3.32.89-6.63,1.34-9.95.6-4.51.19-9.24,1.82-13.54.13-.34-1-.2-1.16.16Z"/><path d="M592.67,561.83c5.05,6.25,7.27,16.64,9.24,24.32,1.06,4.17,1.81,8.43,2.67,12.65.5,2.46,1,4.91,1.51,7.36.46,2.16,1.57,4.79,1.32,7-.07.58,1.11.42,1.17-.1.43-3.69-1.54-8.2-2.28-11.83-1-5.13-1.93-10.33-3.23-15.4-2-7.8-4.18-18.13-9.34-24.52-.32-.4-1.43.06-1.06.51Z"/><path d="M607.2,613.56c4.8,5.49,10.82,8.66,13.65,15.8a29.87,29.87,0,0,1,1.77,7c.82,5.94,1.43,11.91,2.09,17.87q2.84,25.89,5.41,51.83c.5,5,1.1,10,1.42,14.95,0,.49,1.19.22,1.16-.31-.8-12.49-2.42-25-3.71-37.4-1.6-15.47-3.07-31-5.09-46.39a33.12,33.12,0,0,0-1.63-7.19c-2.79-7.71-8.88-10.85-14-16.71-.33-.38-1.44.08-1.07.5Z"/><path d="M570.13,616.15c-3.71,6.24-9,13-10.39,20.33s1.33,15.53,1.93,22.93c.69,8.58,1.92,17,2.75,25.63s1.57,17.11,2.34,25.67c.59,6.42.75,13.1,1.91,19.46.07.37,1.23.09,1.16-.31-2.61-14.36-2.76-29.48-4.14-44-.74-7.78-2.42-15.54-2.61-23.29-.19-8.08-3.24-16.65-2.42-24.68.79-7.82,6.64-15.15,10.55-21.73.26-.44-.89-.32-1.08,0Z"/><path d="M568.88,730.49c10.43,9.22,25.22,9.24,38.26,7.11,11.35-1.85,24.21-4.32,25.41-17.75.06-.59-1.12-.42-1.17.09-.66,7.37-4.41,11.36-11.28,13.68a82.61,82.61,0,0,1-17.39,3.76c-11.57,1.28-23.85.48-32.94-7.56-.37-.33-1.39.23-.89.67Z"/><path class="cls-2" d="M599.75,592.88c-8.43.92-17.81,4.44-26.38,3.94-1.16-.06-1.51,1-1.55,2.2-.24,7.74,3.08,12.28.27,19-1.89,4.47-7.93,12.66-8.82,16.68-2.31,10.36,6.23,77.41,8.89,87.78a16.89,16.89,0,0,0,5.28,9c3,2.42,8.32,3.85,12.17,3.71,4.75-.17,9.57-.46,14.32-.63,7.51-.27,17.85-3.34,22.13-9.52,2.59-3.75,2.28-6.89,1.92-11.42-1.42-18.16-7.32-71.58-8.31-78.37-.68-4.69-4.38-10.86-8.15-13.75a12.54,12.54,0,0,1-2.1-2.07,19.89,19.89,0,0,1-4.75-9.6,83,83,0,0,1-2.19-12.38l-.18-1.11-.34-1.68a.56.56,0,0,0,0-.12C601.55,593.55,601.67,592.66,599.75,592.88Z"/><path class="cls-2" d="M600,592.3c-4.43.56-8.76,1.61-13.13,2.51a65.17,65.17,0,0,1-8,1.29c-1.85.15-3.82-.17-5.64.23-5.86,1.3-1.8,11-1.52,15,.53,7.82-5.45,13.79-8.65,20.42-1.45,3-1.64,5.82-1.64,9.13,0,22.49,3.49,45.4,6.77,67.6,1.35,9.08,1.74,21.36,11.51,25.5,7.08,3,15.29,1.49,22.71,1.15a41.7,41.7,0,0,0,18.32-4.69c5.55-3.06,9.06-7.6,8.91-14.12-.13-5.45-.88-10.95-1.41-16.37q-1.93-19.89-4.16-39.76c-.67-6-1.34-12.09-2.05-18.13-.59-5-.95-9.66-3.43-14.14-2.25-4.07-5.87-6.53-8.63-10.14s-3.83-8-4.79-12.59c-.7-3.36.18-12.79-4.5-12.92-.66,0-3.31,1.21-1.87,1.25,3.19.08,3.2,11.19,3.73,13.61.7,3.2,1.36,6.44,3,9.3s4.3,4.92,6.62,7.37c6.73,7.11,6.7,16.86,7.74,26,2.48,21.86,5.42,43.83,6.73,65.79.64,10.75-7.63,16.1-17.43,17.8a97.44,97.44,0,0,1-11.84.82c-5.53.26-11.19.83-16.29-1.82C573,728.1,572.51,717,571.3,709c-3.11-20.68-5.8-41.63-6.8-62.53a61,61,0,0,1,0-10.73c.78-5.92,5.47-11,8.14-16.17a16.62,16.62,0,0,0,1.9-9.7c-.29-2.9-2.81-10.58-.48-12.37.85-.65,4.07-.19,5.25-.33,1.8-.21,3.59-.52,5.37-.86,4.94-1,9.81-2.21,14.81-2.85C600.7,593.3,602.05,592,600,592.3Z"/><path class="cls-1" d="M1167.54,754.53C1148.62,768.18,1130.09,783,1110,795c-.67.4-.06,1.09.53.74,20.15-12,38.75-26.88,57.76-40.59.63-.46-.3-.93-.78-.58Z"/><path class="cls-7" d="M1162.85,755.23c-2.41-3.47-3.94-9.66-2.38-12.79,1.15-2.32,3.42-3.84,5.56-5.29,12.15-8.25,22.94-17.76,33.81-27.64,3.23-2.94,12.29-7.34,13.76-6.28,8.46,6.08,19.41,18.86,18.7,20.77-1.3,3.55-1.28,3.23-4.59,6.1-7.87,6.8-33.53,25.24-39.52,28.69-4.9,2.82-8.79,6.65-14.6,5.11s-14.72-12.62-13.66-18.54"/><path class="cls-1" d="M1163.39,755c-2-3.15-3.77-7.84-2.72-11.62,1.31-4.69,8-7.57,11.69-10.3,6.37-4.69,12.47-9.75,18.42-15s11.08-10.75,18.39-13.71c6-2.43,12.57,6.39,16.24,10.5,2.89,3.22,8.15,7.61,5,12.09-2.43,3.46-7.16,6.29-10.5,8.85-9,6.9-18.19,13.6-27.62,19.9-5.68,3.8-13.41,10.19-20.33,7-5.58-2.6-12.09-11.11-11.46-17.45,0-.46-1.12-.24-1.15.15-.62,6.19,4.84,12.8,9.41,16.34,5,3.9,10.13,3.13,15.33,0,11.48-7,22.38-14.88,33.11-22.94,4.45-3.34,10.34-6.83,13.86-11.22,3.66-4.58-.12-8-3.3-11.68a94.63,94.63,0,0,0-8.56-8.78c-1.76-1.58-3.8-4.11-6.25-4.39-4.27-.47-10.51,4.17-13.58,6.68-10.32,8.45-19.75,17.72-30.69,25.47-3.19,2.26-8,4.56-9.17,8.65s.75,8.62,2.8,11.92c.2.32,1.33-.05,1.08-.45Z"/><path class="cls-8" d="M1221.33,729.23l-39.63,30.11s-.09,0-.5-.45l-13.36-17.59c.35.4.36.35.4.32l39.63-30.11a.09.09,0,0,1,.12,0l13.36,17.59A.08.08,0,0,1,1221.33,729.23Z"/><path class="cls-1" d="M1220.16,729l-39.63,30.11,2.31-.46c-.7-.25-1.55-2-2-2.5l-4.72-6.21-7-9.18-2.69,1.15c2.22,2.26,8.39-4.16,9.86-5.28l21.69-16.48,8.68-6.59c.47-.36,1.75-1,2-1.51.5-1.14-2.25.66-2,.13,0,.08.46.56.47.63.29,1.32,2.5,3.29,3.31,4.35l4,5.31c1,1.29,5.46,6.36,5.38,7-.16,1.18,2.76.68,2.9-.34.2-1.47-3.09-4.47-3.91-5.54l-8.08-10.64c-2.86-3.77-4.82-1.07-8,1.32l-21.43,16.27-10,7.56a38.46,38.46,0,0,0-3.13,2.38c-2.16,2.05-.25-.82.87.32-.69-.69-3.44.16-2.69,1.15,4.23,5.57,8.13,11.76,12.85,16.91,2.65,2.9,5.42-.63,7.9-2.52l35.25-26.78C1223.81,728.49,1220.93,728.38,1220.16,729Z"/><path class="cls-1" d="M1187.44,743c-.28.26-.55.51-.85.74l-.85.56-3.46.15c-.51-.88.5-2.12,1-2.73a9.64,9.64,0,0,1,2-1.92c.68-.43,2.36-1.34,2.71-.11a3.67,3.67,0,0,1-.26,1.52c-.4,1.7-1.43,3.75-1.44,5.48,0,.73.22,1,1,1,1.63,0,3.85-1.75,4.48-3.17,1.45-3.29-3-1.47-4.24-1.11-.66.18-.59.51.09.32s2.92-1.16,3.23-.12-1,2.23-1.66,2.77c-.45.36-1.4.82-1.73-.05a6.73,6.73,0,0,1,.44-1.66l.88-3.3c.29-1.1.84-2.47-.67-2.89a3.71,3.71,0,0,0-2.51.53c-1.17.63-6.91,5.24-3.73,6.45,2.07.78,5.19-1.22,6.57-2.52.22-.21-.84-.08-1,.1Z"/><path class="cls-1" d="M1195,733.2c-2.39.82-5.06,2.53-5.27,5.3a3.88,3.88,0,0,0,4.21,4.33c2.53-.33,5.45-2.81,5.52-5.48a3.21,3.21,0,0,0-4.57-3c-.73.33-.08.87.49.61,2.5-1.15,3.26,2.59,2.47,4.13-1,1.9-4,4.08-5.89,2.21-2.91-2.85.38-6.43,3.23-7.41.68-.23.51-1-.19-.72Z"/><path class="cls-1" d="M1197.91,731.47a1.32,1.32,0,0,1-1.33-.92c-.15-.45,0-1.33.47-1.55s.94.24,1.11.58a1.08,1.08,0,0,1,.06.73c0,.13-.2.6-.35.61s-.65.07-.77.31.1.32.31.31a2,2,0,0,0,2-1.7c0-1.05-1.06-1.54-2-1.47a2.15,2.15,0,0,0-2.1,1.86,1.86,1.86,0,0,0,2.1,1.86c.23,0,.65-.08.77-.31s-.1-.32-.31-.31Z"/><path class="cls-1" d="M1200.82,727a45,45,0,0,0,4.24,5.12c.33.34,1.19.15,1.11-.42l-.05-.34c-.09-.56-1.25-.26-1.16.32l0,.33,1.11-.42a44,44,0,0,1-4.24-5.11c-.32-.45-1.42,0-1.06.52Z"/><path class="cls-1" d="M1201.83,726.35q2.1-1.49,4.11-3.09c.22-.18.07-.36-.12-.44a.92.92,0,0,0-.82.22q-1.9,1.51-3.9,2.93c-.64.45.34.65.73.38Z"/><path class="cls-1" d="M1204,729c1.14-.77,2.24-1.59,3.31-2.46.61-.49-.32-.93-.78-.55q-1.59,1.31-3.3,2.46a.38.38,0,0,0-.06.62.74.74,0,0,0,.83-.07Z"/><path class="cls-6" d="M770.38,134.33a36.31,36.31,0,0,0,10.86,3.39c1.65.23,3.79-.8,1.21.92-2.15,1.43-6.09,1.36-8.65,1.52-3.91.24-8-1-11.73.31-.9.33-8.79,4.73-3.55,2.33-3.48,1.59-7.75,2-11.54,2.19-4.6.17-9.18-.42-13.78-.36-4.09.05-8.14.8-12.23.63a32.15,32.15,0,0,1-7.43-1c-.66-.21-2.07,1.15.61,0,2-.83,3.6-2.63,5.71-2.75,2.43-.14,5.7,1.39,8.31,1.52,4,.21,7.91-.18,11.87,0,2.05.09,10.15,0,4.07,2.63-2.23,1-5.31.77-7.64.69-3.65-.13-7.93-1.23-11.23-.82,8.3-1,16.64,1.15,25-.52,8-1.61,15.85-5,23.54-7.67.76-.26.07-.66-.46-.48-8.08,2.77-16.33,6.52-24.8,7.83-8.15,1.27-16.51-.12-24.72.27-.4,0-1.26.6-.45.66,8.68.68,17.53,3.27,25.53-1.44.25-.15.31-.4,0-.49-9.71-2.83-20.16.67-29.59-3.39a1,1,0,0,0-.93.18,10.24,10.24,0,0,1-6.79,3.42c-.3,0-1.24.52-.58.64a61.89,61.89,0,0,0,16.63,1c7-.56,13.89.46,20.84-.06a32.41,32.41,0,0,0,13.67-3.92c2.64-1.46,5.13-1.5,7.43-3.73.25-.24,0-.41-.24-.43-1.89-.08-5,1-2.65,3.05,1.65,1.42,6.68.4,8.73.18A43.19,43.19,0,0,0,786.16,138c.37-.14.5-.56,0-.57a36.13,36.13,0,0,1-14.86-3.62c-.34-.17-1.4.33-.92.56Z"/><path class="cls-6" d="M787.24,137.44a29.56,29.56,0,0,1,4.67-.69c.33,0,1.27-.52.49-.52a13.71,13.71,0,0,0-5,.92c-.32.13-.55.45,0,.42a3.13,3.13,0,0,0,2.56-1.27c.1-.14,0-.22-.15-.23l-3.26-.08c-.27,0-1.32.5-.74.51l3.25.09-.15-.23a1.34,1.34,0,0,1-1,.7l0,.42a11,11,0,0,1,4.09-.73l.49-.52a33.52,33.52,0,0,0-5.27.79c-.69.15-.58.57.11.42Z"/><path class="cls-6" d="M709.17,143.17a22.73,22.73,0,0,1-7,1.29c-.13,0-1.12.38-.73.46a58.79,58.79,0,0,0,8.35,1.13c.15,0,1.15-.35.92-.44l-3.43-1.44-.5.39,3.2-.85c.67-.18.58-.55-.1-.37l-3.2.85s-.72.29-.49.38l3.43,1.44.92-.44a59.1,59.1,0,0,1-8.15-1.1l-.72.47a26.13,26.13,0,0,0,7.87-1.5c.78-.27,0-.43-.4-.27Z"/><path class="cls-6" d="M750.83,112.25c4.18-.88,8.18.11,11.93,2,2,1,5.61,2.64,6.29,4.87q1.68,2-1.38,3.66a3.86,3.86,0,0,1-2.56,2.93,19,19,0,0,1-3,1.2l-7,2.76c-.38.15-.46.65,0,.68a14.47,14.47,0,0,0,9.41-2.59c.54-.37-.07-.67-.47-.58a147.35,147.35,0,0,1-22.27,3.67,65.07,65.07,0,0,1-11.51-.16c-3.72-.41-16.81-1.42-10-9.26.34-.4-.25-.58-.57-.49a8.16,8.16,0,0,0-2.58,1.39s-.7,1-.69,1.06.91-1.58,1-1.7c1.38-1.51,4.05-2.79,5.78-3.83,7.62-4.55,16.52-5.72,25.28-5.84,4.6-.06,10.51.58,13.15,4.92.37.61,1.45,2.44,1,3.27-.63,1.27-3.8.56-4.63.28-.35-.11-3.94-2.12-3.74-2.51l2.38-.22.87,3.24c-.45,6.41-11.06,4.67-13.73,1.44l-1-.85,3.82-3.07c.74.13,1.23,3.15,1.3,3.71a5.64,5.64,0,0,1,0,2.45l-3.31,1.76q-2.27,2.94-4.57,1.11c-1.26-.47-6.16-4.41-5.36-6.36l3-.85q2.82-2.37,3.6.16a4.55,4.55,0,0,1,.86,2.19c.54,3.23-1.06,2.65-4.44,3.83-4.1,1.44-3.83,2.4-6.09,0a7.49,7.49,0,0,1-1.64-2.18l-.69-1.14,3.79-3.25c1.9.44.09,3.88-.11,4.25-1.42,2.53-3,2.58-5.81,2.1-1.37-.23-3.49-.66-4.19-2l-.87-.81,2.55-.62c.91.37,1.79,2.37,2.69,3a11.09,11.09,0,0,0,4.9,1.69,52.6,52.6,0,0,0,17.21-.32c2.92-.54,11.08-2.12,12.33-5.53,1.78-4.85-8.47-3.81-10.25-3.8A159.61,159.61,0,0,0,725,120.32c-.6.1-.92.9-.13.76a161.86,161.86,0,0,1,17-2.11q3.79-.27,7.6-.33c.17,0,4.47-.35,5.56,0,2.52-.46,4.06.88,4.64,4l-2.72,1.48c-5.84,2.73-12.42,3.22-18.77,3-2.37-.07-5.08,0-7.35-.81-3.87-1.32-3.15-3.32-6.06-5-2.41-1.38-9.78.31-7.66,4.23,1.81,3.36,7.63,1,8.25-2.11.51-2.59-3.2-5.58-4.75-2.71-2.66,4.93,7.57,6.76,10.3,6.33,4.29-.68,7.13-5.8,2.31-8.66-4.1-2.44-6,3.39-4.32,6.35,2.52,4.31,8.1,6.94,12.35,3.35,3.74-3.15,2.51-10-2.48-11.16s-6.23,3.61-4,7.21c2.39,3.8,8.75,7.33,12.68,3.61,3.37-3.18,2-12.49-3.8-11.4-5,.92-2.46,5.59.34,7.46,3.91,2.64,10.66,3.7,13.8-.71a4.69,4.69,0,0,0-.43-6.34c-.85-.76-3.07-1.82-4.19-.79-2.8,2.6,6.79,7.26,9.31,6,6.06-3-4.3-9.59-7-10.25-8.26-2-19.65-.41-27.43,2.78-1.67.68-17.12,9-11.63,10.31.32.08.84,0,.93-.41-.49,2,1.87-4.35.47-1.36a6.22,6.22,0,0,0-.93,2.2,3.41,3.41,0,0,0,.92,2.66c2.36,2.81,8.79,3.08,12.12,3.45a73,73,0,0,0,16.32-.25c1.36-.16,16.3-2.93,16.3-2.92.16.42-5.36,1.51-5.35,1.37a49,49,0,0,1,4.65-1.84,34.77,34.77,0,0,0,5.74-2.48c2.23-1.41,3.85-3.34,2.93-6.08-1.07-3.18-5.68-5.18-8.42-6.34a18.47,18.47,0,0,0-11.48-1.32c-.72.15-.52.85.19.7Z"/><path class="cls-1" d="M713,128.92a7.73,7.73,0,0,0,1.71,7.3c.29.33,1.4-.1,1.07-.47a7.35,7.35,0,0,1-1.62-7c.13-.46-1-.3-1.16.13Z"/><path class="cls-1" d="M772.94,123.89a5.9,5.9,0,0,1-.43,8.49c-.5.42.65.4.92.17a6.28,6.28,0,0,0,.59-9.1c-.27-.28-1.37.14-1.08.44Z"/><path class="cls-1" d="M785.85,140.54c3.17,2.28,5.73,4.08,7.47,7.77,1.9,4.05,2.35,9.22,3,13.61,1.88,12.58,3.9,25.19,5.35,37.82,1.19,10.43,1.92,21,2.37,31.52a80.45,80.45,0,0,1-.24,13.62c-.65,5.25-2.88,7.59-7,10.71-9.45,7.06-22.11,9.71-33.63,11.49-10.82,1.68-23,2.88-33.7.06-3.84-1-9.42-2-12.34-4.9s-4.25-7.9-5.48-11.67A222.53,222.53,0,0,1,705.49,226c-2.84-14-4.34-28.16-6-42.32-1.43-12.07-3.67-30.42,10.61-35.43.68-.24.51-1-.19-.72-10.14,3.56-12.58,13.1-12.53,23.11.07,13.11,2.31,26.51,4.15,39.48a283.21,283.21,0,0,0,6.81,33.5c1.8,6.71,3.62,17.72,10.66,21,10.81,5,22,5.05,33.63,4.33,12.16-.74,25.42-3.18,36.73-7.77,6.88-2.79,14.5-8.22,15.57-15.92,1.22-8.89,0-18-.55-26.92-1.15-17.71-3.93-35-6.32-52.6-.77-5.65-1.19-12-3.43-17.33-1.72-4.09-4.44-6-7.87-8.49-.37-.26-1.41.27-.9.63Z"/><path class="cls-2" d="M783.47,155.94a8.21,8.21,0,0,1,9.61,6.77c.41,2.56.88,5.1,1.09,7.08.65,6.11,9,75.68,5.39,80.12-2.35,2.87-5.94,4.35-9.42,5.59a153.11,153.11,0,0,1-57.58,8.76,19.36,19.36,0,0,1-7.37-1.35c-4.63-2.14-7-7.28-9-12C710,236.56,703.51,196,702.5,190.55c-.51-2.69,0-6.31-.64-9a52.89,52.89,0,0,1-1.2-12.51,4.05,4.05,0,0,1,4.6-4c13.52,1.89,26.8-1,40.66-2.07Z"/><path class="cls-2" d="M783.27,156.74c10.56-1.1,9.83,16.7,10.68,24.29,1.09,9.76,2.12,19.53,3,29.3s1.78,19.45,2,29.19c.06,2.8.48,6.31-.34,9-1.91,6.37-15.33,8.53-20.94,10a151.81,151.81,0,0,1-28.48,4.67c-9.09.61-22.4,2.64-28.19-5.94-6.63-9.84-8.65-23.41-11-34.77-2.12-10.09-4-20.24-5.69-30.41a38.54,38.54,0,0,1-.61-5.68c-.12-4.49-1.22-8.79-1.47-13.27-.05-.9-.1-1.8-.09-2.7,0-3,1-4,4.08-4.43,1.64-.25,4.14.35,5.84.4a110,110,0,0,0,13.21-.54c19.62-1.78,38.67-5.56,58-9.17,1.35-.26,2.4-2,.4-1.59-20.23,3.79-40.2,7.91-60.76,9.4-5.82.43-11.31-.24-17.09-.32A6.76,6.76,0,0,0,700.7,166c-2.24,2.24-1.53,6-1.33,8.88.37,5.08,1,10.31,1.59,15.37,1.24,10.65,3.7,21.36,5.88,31.85,2.5,12,4.52,27.5,12.33,37.49,5.22,6.68,14.36,5.75,22,5.6A158.13,158.13,0,0,0,771,261.71c8.46-1.81,18.42-3.79,25.9-8.36,3.41-2.09,4.67-3.72,4.95-7.45.72-9.39-.46-19.1-1.24-28.45-1.06-12.67-2.39-25.31-3.81-37.95-1-9.21,0-25.7-13.09-24.35C782.27,155.3,781.26,156.94,783.27,156.74Z"/><path class="cls-3" d="M791.75,168.41c-1.43-3.13-4.56-5.11-7.64-6.64-24.06-11.92-54.38-6.34-75.91,9.7-2.18,1.62-4.48,3.74-4.41,6.45.11,4,4.91,5.81,8.81,6.62L730,188.16c7.36,1.53,14.93,3.07,22.33,1.76,10.17-1.8,18.87-8.78,29.06-10.48,2.52-.42,5.12-.52,7.53-1.36s4.71-2.63,5.22-5.14-1.54-5.46-4.07-5.14"/><path class="cls-2" d="M793.2,168c-3.34-6-11-8.65-17.2-10.53a68.24,68.24,0,0,0-21-2.79,83.7,83.7,0,0,0-41.25,12.15c-3.75,2.26-12.25,6.48-11.35,12,1,6.4,12,6.91,16.72,7.89,8.55,1.78,17.28,4.2,26.05,4.31,7.25.08,13.75-2.16,20.26-5.12,5.34-2.43,10.58-5,16.43-6,3.06-.49,6.25-.66,9.07-2.1,4.65-2.37,7.06-10.17,0-10.73-.73,0-3.35,1.21-1.85,1.33q3.32.76,3.61,3.6.22,3.45-3.5,4.21c-3,1.9-4.33,2-7.62,2.54a42,42,0,0,0-7,1.88c-7.4,2.64-14.2,7.21-22,8.6-9.62,1.71-19.75-1.4-29.12-3.35-4.69-1-21.34-2.2-17.51-10.63,1.46-3.22,5.59-5.4,8.51-7.24A79.74,79.74,0,0,1,725,162.48a77,77,0,0,1,22.83-6.06,66.81,66.81,0,0,1,22.85,1.49c6.83,1.7,15.95,4.35,19.6,10.89.45.81,3.21-.21,2.9-.77Z"/><path class="cls-4" d="M703.58,180.81c.59,3.13,3.56,3.89,6.35,4.43,6.24,1.22,12.64,1.87,18.93,2.79,9.85,1.45,19.18,2.52,28.74-1,5-1.85,9.76-4.44,14.75-6.41,5.8-2.28,11.81-2.76,17.77-4.31,1.79-.46,4.13-.89,4.66-3,1-3.72-4-4.79-6.46-5.12-.35,0-1.36.52-.72.6a14.09,14.09,0,0,1,3.69.82q4.46,2.48.51,4.45c-2.29,2.13-4.45,2.27-7.43,2.78a61.23,61.23,0,0,0-9.15,2.1c-6.46,2.14-12.37,5.64-18.79,7.87-9.53,3.32-19,1.74-28.75.31l-11.35-1.67c-3.65-.54-10.73-.39-11.6-5-.06-.37-1.23-.09-1.15.31Z"/><g class="cls-5"><path class="cls-4" d="M779.76,169.7A23,23,0,0,0,766.54,175c-.6.5.32.94.78.56a21.33,21.33,0,0,1,12.35-5c.66,0,.88-.93.09-.87Z"/></g><g class="cls-5"><path class="cls-4" d="M750.34,178.6c-6.79,2.87-13.93,2.4-21.05,1.36-.38-.05-1.36.55-.71.64,7.54,1.1,15.07,1.52,22.22-1.51.74-.31.07-.71-.46-.49Z"/></g><g class="cls-5"><path class="cls-4" d="M715.81,179.13c-1.92-1-6.1-1.06-4.51-4.38.65-1.35,2.28-2.21,3.51-2.93a31.8,31.8,0,0,1,5.11-2.42c.77-.3,0-.4-.39-.23-2.92,1.1-6.86,2.57-8.89,5.07a2.67,2.67,0,0,0-.21,3.57c1.06,1.09,3,1,4.28,1.7.29.16,1.21-.32,1.1-.38Z"/></g><path class="cls-6" d="M773.77,132.07a111.64,111.64,0,0,0,21.82,3.33c-9.78,6.38-21.27,10.27-32.93,9.5-1.57,2.67-6.37,2.53-9.39,3.23-14,3.23-27.32,1.19-41.34-.43-4.69-.55-10.33-.35-12.75-4.4a33.45,33.45,0,0,0,11.34-2c2.06-.75,6.3-3.08,4.72-4.61"/><path class="cls-1" d="M773.41,132.39a110.82,110.82,0,0,0,16.67,2.94c.68.07,3.89.16,3.76.58-.24.76-2.33,1.57-3.13,2a57.62,57.62,0,0,1-12.63,5.1,51.22,51.22,0,0,1-13.44,1.64,6.56,6.56,0,0,0-2.39.11c-1.09.39-2.13,1.66-3.24,2.06a26.83,26.83,0,0,1-4.59.77c-3.52.59-7,1.37-10.52,1.66a116.89,116.89,0,0,1-22.28-.78c-2.13-.24-21.36-1.11-21.16-4.4,0-.95,18.3-2.21,15.36-7.55-.22-.39-1.34,0-1.16.32,2.44,4.43-14,6.09-15.25,6.12-.22,0-1,.2-.76.57,1.91,2.6,4.51,3.48,7.64,3.95,4.61.69,9.3,1,13.94,1.55,10.41,1.17,20.87,1.82,31.22-.19,3.32-.65,6.87-.88,10-2.29,2.69-1.22,5.1-1.13,8.13-1.4,9.51-.85,18.39-4.5,26.4-9.57.33-.21.24-.5-.14-.52a109,109,0,0,1-21.69-3.31c-.38-.1-1.36.47-.71.64Z"/><path class="cls-6" d="M713.51,127.44a6,6,0,0,1-.37-5.64,12.6,12.6,0,0,1,3.61-4.6A36.87,36.87,0,0,1,732,109.57a73.22,73.22,0,0,1,17-1.92c5.06-.07,10.23.15,14.94,2s8.94,5.56,10.21,10.45c.28,1.12.75,2.11-.25,3.44"/><path class="cls-1" d="M714.09,127.29c-3.35-6.88,5.52-12.35,10.76-14.79,6-2.82,12.72-3.9,19.32-4.28,6.11-.35,12.8-.62,18.64,1.52,4.46,1.64,13.35,7.65,10.54,13.73-.28.58.89.56,1.1.11,2.33-5-3.55-10.82-7.55-13.08-6.72-3.79-15.17-3.53-22.62-3.1-7.87.46-15.86,1.94-22.77,5.91-4.9,2.82-11.68,7.92-8.58,14.29.24.49,1.38.14,1.16-.31Z"/><path class="cls-1" d="M713.94,135.19c3.49,3.94,7.72,4.82,12.77,5.3a148.46,148.46,0,0,0,18.5.91c11-.29,21.68-2.91,29.73-10.76.52-.5-.59-.72-1-.35-7.76,7.55-18.13,10-28.67,10.25a129.14,129.14,0,0,1-14.58-.57c-5.77-.49-11.58-.62-15.72-5.3-.35-.4-1.45.07-1.06.52Z"/><path class="cls-7" d="M717.11,132.64c-.82-.91-1.61-.85-.86.33.41.67,2.46,1.26,1.61.85-.2-.1-1.32.16-1.09.39,2,2,3.58,3.23,6.37,3,.13,0,1-.21.8-.44s-1.39-1.23-1.39-1.29c0,.29,4.12.92,4.43,1-1.21-.26,1.8.28,1.41.15.93-.05.56,0-1.11,0a16.47,16.47,0,0,1-3.14,0c-.21,0-1.2.42-.85.47a136.78,136.78,0,0,0,33.28.74c.18,0,1.22-.46.62-.49-4.24-.22-2.29.23.43-.36a29.78,29.78,0,0,0,6-1.95,31.06,31.06,0,0,0,11-8.34c.24-.28-.87-.14-1,.08a29.22,29.22,0,0,1-20.26,10.38c-.19,0-1.22.45-.62.48.19,0,4-.27,1.47,0-1.62.17-3.25.25-4.87.32q-5.77.27-11.57,0c-2.93-.13-5.83-.5-8.75-.69-1.67-.11-5.91.28-2.38-.07,1.12-.12,2.19-.16,3.31-.3.17,0,1.24-.4.63-.48a56.85,56.85,0,0,1-8.77-1.9c-.17-.06-1.25.18-1,.42,2.53,2.7-1.15.31-1.84,0-.14-.07-2.88-.44.52.28.18,0,1.25-.28,1-.42a25.7,25.7,0,0,1-4.76-3.67c-.21-.2-1.29.19-1.09.4L716,133c.2.22,1.28-.18,1.09-.39Z"/><path class="cls-6" d="M713.54,127.31c2.32,3,6.33,4.89,9.82,5.84,15.95,4.35,42.63,4.5,51.15-11.24"/><path class="cls-1" d="M713,127.54c7.59,8.59,23.66,9,34.25,8.32s22.15-4.14,27.8-13.92c.28-.49-.88-.4-1.08,0-5.85,10.12-18,13.07-29,13.41-9.8.29-24-.37-30.93-8.22-.28-.32-1.39.1-1.07.46Z"/><path class="cls-1" d="M349.23,363.43l0-25.7c0-.16-.34-.17-.43-.17a47.7,47.7,0,0,0-9.95,1.45c-.86.21-.71.83.16.61,2.57-.65,7.54-2.92,8.77.47.72,2,0,5.77,0,7.91l0,15.82c0,.36,1.44.11,1.45-.39Z"/><path class="cls-1" d="M346.86,404.42a154,154,0,0,0,2.36-33.28c0-.41-1.47-.14-1.45.39a154.18,154.18,0,0,1-2.35,33.09c-.1.51,1.36.26,1.44-.2Z"/><path class="cls-1" d="M342,338.51a211.28,211.28,0,0,1-52.66,10.2c-8,.59-16,.85-24.06.9a100.43,100.43,0,0,1-14.2-.54,41.73,41.73,0,0,0-9.85-.64c-.13,0-1.32.33-1,.57.5.37,3.34,2.6,4.23,1.07s-2.65-1.75-3.42-1.62c-.11,0-1.1.3-.81.55,5.33,4.62,11.73,8.23,16.17,13.8,3.29,4.13,2.72,9.21,3.19,14.28.39,4.24.84,8.47,1.38,12.69a235.09,235.09,0,0,0,4.9,27c1,4.12,2.2,8.22,3.54,12.25,1,3,2,8.72,4.54,10.61,4.63,3.47,14.16,1.66,19.35,1.35,8.73-.51,17.43-1.42,26.09-2.56,5.3-.7,13.54-.41,18.11-3.59,3-2.08,3.67-5.34,4.47-8.72,1.13-4.75,1.81-9.58,3.22-14.27.1-.34-1.32-.16-1.43.24-1.24,4.1-1.93,8.29-2.83,12.47-1.26,5.87-1.91,9.72-8.53,11.42-8.08,2.08-17.16,2.51-25.44,3.33s-17.25,2.14-25.57,1.34c-2.86-.28-5.62-.72-7.41-3.47a28,28,0,0,1-1.94-5.1c-1.33-3.71-2.51-7.48-3.56-11.28-4.13-15-6.24-30.43-7.6-45.89-.3-3.33,0-7.25-1.43-10.22-1.22-2.47-3.67-4.69-5.67-6.48-3.81-3.42-8.7-7.12-12.19-9.69l-1,.58c4.89-.49,9.65.9,14.52,1.12,3.78.18,7.61.08,11.39,0,9.24-.09,18.48-.48,27.68-1.34a210.6,210.6,0,0,0,48.3-10c1-.33.07-.59-.51-.39Z"/><path class="cls-1" d="M348.46,371.58c2.27-.76,17-6.47,18-2.84.22.8-1.14,3.39-1.4,4.17-.68,2.08-1.35,4.17-2,6.25-1.68,5.18-3.36,10.37-5.12,15.52-.71,2.07-1.21,5.13-2.44,6.94-1.88,2.75-6.93,3-9.92,3.72-.89.22-.64,1.17.26,1,2.68-.65,6.92-.86,9.23-2.38s2.87-5.09,3.75-7.65c2.36-6.83,4.57-13.71,6.79-20.58.69-2.13,3.92-7.66,1.53-9.44-1.48-1.11-5.39.59-6.78.91-4.11,1-8.14,2.14-12.14,3.48-.87.28-.63,1.24.25.95Z"/><path class="cls-1" d="M344.87,411.42c7-.31,14.85.41,18-7.09a223.1,223.1,0,0,0,7.39-22.16c1.26-4.24,2.46-8.5,3.5-12.79.61-2.48,2.52-7.12.85-9.46-2.3-3.23-8.55-.93-11.63-.52a51.44,51.44,0,0,0-14.87,4c-.9.41-.1,1.17.63.83a50.83,50.83,0,0,1,14.84-3.89c3.21-.4,4.94-1,7.81.79s2.34,1.84,1.77,4.61c-1.29,6.18-3.07,12.27-4.89,18.3s-3.68,11.94-5.87,17.78a20.1,20.1,0,0,1-1.91,4.56c-3.42,4.72-10.3,3.77-15.44,4-.82,0-1.13,1.08-.14,1Z"/><path class="cls-6" d="M264.11,367.18c27.41-.82,51.49-5.6,78.84-7.54-1.57,11-4.15,66.87-8.64,70.21-3.46,2.59-40,4.59-51,5.43a9.85,9.85,0,0,1-5.23-.56c-2.65-1.36-3.48-4.68-4-7.61-1.48-7.85-12.27-53-10.18-59.85"/><path class="cls-1" d="M264,367.68c15.68-.53,31.24-2.36,46.8-4.24,6.83-.83,13.65-1.64,20.5-2.31,1.33-.13,10.16-1.81,10.82-1,.33.39-.36,3.27-.41,3.81-1.57,16.35-2.33,32.76-4.32,49.07-.39,3.14-.8,6.28-1.38,9.39-.35,1.89-.57,5.38-2,6.86-1.57,1.69-5.71,1.67-7.81,2-4.25.59-8.52,1-12.79,1.37-9.09.8-18.2,1.37-27.31,2-3.14.22-6.84,1.13-9.28-1.76-1.41-1.68-1.74-4.22-2.18-6.27-.59-2.74-1.16-5.48-1.76-8.21-2.07-9.45-4.13-18.9-5.9-28.41-1.24-6.66-4.2-15.95-2.45-22.73.17-.66-1.3-.48-1.46.13-1.24,4.79.39,10.86,1.16,15.59,1.37,8.43,3.11,16.8,4.89,25.15,1.28,6,2.66,12,3.9,18,.59,2.87,1,6.34,3.41,8.33,2.63,2.17,6.41,1.38,9.53,1.16,15-1.06,30.91-.86,45.59-4.31,3.32-.78,4.18-2,5.06-5.21,1.69-6.23,2.21-12.87,2.88-19.27,1.64-15.68,2-31.59,4.11-47.21.05-.35-.39-.45-.66-.44-26.34,1.94-52.41,6.65-78.83,7.54-.8,0-1.14,1-.15,1Z"/><path class="cls-1" d="M240.31,348.25q26.52-4.37,53.23-7.51,13.11-1.53,26.25-2.76c9.43-.88,19.37-2.53,28.81-1.3.73.09,1.47-1,.5-1.08-8.36-1.09-17,.19-25.29.94q-14.13,1.26-28.2,2.88-27.69,3.19-55.18,7.74c-.8.13-1.1,1.25-.12,1.09Z"/><path class="cls-1" d="M260.88,371.11l11.19-1.1c.69-.07,1.21-.87.2-.77l-11.19,1.1c-.69.07-1.21.87-.2.77Z"/><path class="cls-1" d="M261.23,385.38l11.91-1c.81-.06,1.12-1.13.13-1.05l-11.91.95c-.81.07-1.12,1.13-.13,1.06Z"/><path class="cls-1" d="M263.63,399.31l11.69-.94c.69-.05,1.22-.83.21-.75l-11.69.93c-.69.06-1.22.84-.21.76Z"/><path class="cls-1" d="M267.43,412.85l12.34-1.29c.74-.07,1.18-1,.18-.88L267.6,412c-.74.08-1.17,1-.17.88Z"/><path class="cls-3" d="M249.94,133.55a37.5,37.5,0,0,0-9.84-16.88c-14.59-15.32-29.94-13.26-45.43-11.3-16.63,2.1-33.32,5.29-46.22,23.41-2.52,3.53-5.15,8.24-4.84,14.69.45,9.47,6.45,14.5,11.26,17l21.48,11.11c9.08,4.69,18.42,9.43,27.32,7.39,12.24-2.81,22.27-18.15,34.54-20.72,3-.64,6.19-.49,9.07-2.13s5.51-5.59,5.94-11.47-2.32-13.2-5.39-12.8"/><path class="cls-4" d="M143,150c.44,4.8,2.46,8.86,6.72,11.33,6.74,3.9,14.91,6.13,22.13,9,7.57,3,15.45,6.94,23.73,7.31,6.32.28,11.92-2.32,17-5.84,5.68-3.93,10.67-8.81,16.51-12.51,6.42-4.06,13.58-4.13,20.39-7,4.63-1.91,5.72-5.57,4.83-10.41-1-5.14-3.84-8.2-8.67-9.92-1.52-.54-2.17,1.88-.66,2.42,7,2.49,10.76,13.29,2,16.18-4.64,1.53-9.56,1.87-14.08,3.8-8.6,3.69-15,11-22.76,16-5,3.27-10.13,5.17-16.16,4.51-6.21-.68-12.05-3.27-17.79-5.57l-18.29-7.34c-6.25-2.51-11.69-4.43-12.39-12.08-.14-1.59-2.64-1.6-2.5,0Z"/><g class="cls-5"><path class="cls-4" d="M235.43,134.65c-7.25.07-12.58,5.09-16.23,10.93-.86,1.37,1.3,2.62,2.15,1.26,3.17-5.07,7.73-9.63,14.08-9.69a1.25,1.25,0,0,0,0-2.5Z"/></g><g class="cls-5"><path class="cls-4" d="M200,151.33c-8,5.9-16.81,3.56-25.27.17-1.49-.6-2.14,1.82-.66,2.41,9.09,3.64,18.75,5.83,27.19-.42,1.28-1,0-3.12-1.26-2.16Z"/></g><g class="cls-5"><path class="cls-4" d="M158.57,147.57c-2.93-3.16-6.7-4.1-5.61-9.57,1-5,5.93-9.05,10-11.68,1.35-.87.09-3-1.26-2.15-4.71,3-10.19,7.61-11.23,13.44a10.61,10.61,0,0,0,.94,7.07c1.31,2.18,3.74,2.85,5.41,4.65,1.1,1.19,2.87-.59,1.77-1.76Z"/></g></svg>