<?xml version="1.0" encoding="utf-8"?>
<!-- Generator: Adobe Illustrator 22.1.0, SVG Export Plug-In . SVG Version: 6.00 Build 0)  -->
<svg version="1.1" id="Layer_1" xmlns="http://www.w3.org/2000/svg" xmlns:xlink="http://www.w3.org/1999/xlink" x="0px" y="0px"
	 viewBox="0 0 311.5 512.2" style="enable-background:new 0 0 311.5 512.2;" xml:space="preserve">
<style type="text/css">
	.st0{fill:#FFFFFF;}
	.st1{opacity:0.3;}
	.st2{fill:#4F3C18;}
	.st3{fill:#EFD6AC;}
	.st4{fill:#CCA26B;}
	.st5{opacity:0.4;}
	.st6{fill:#DF8026;}
	.st7{fill:#EDCC7C;}
	.st8{fill:#666766;}
	.st9{fill:#E5E5E5;stroke:#000000;stroke-width:3;stroke-miterlimit:10;}
	.st10{fill:#E8E8E8;}
	.st11{opacity:5.000000e-02;}
	.st12{opacity:0.2;fill:#FFFFFF;}
	.st13{fill:#F49C53;}
	.st14{opacity:0.4;fill:#FFFFFF;}
	.st15{fill:#EDEDED;}
	.st16{fill:#C2C1C0;}
	.st17{opacity:3.000000e-02;}
	.st18{fill:#E8C55C;}
	.st19{fill:#E2C599;}
	.st20{fill:none;stroke:#000000;stroke-width:3;stroke-miterlimit:10;}
	.st21{fill:#ADDEF8;}
	.st22{fill:#D9F1FB;}
	.st23{opacity:0.25;fill:#FFFFFF;}
	.st24{fill:#D6B429;}
	.st25{fill:#3F3017;}
	.st26{opacity:0.1;}
	.st27{opacity:0.75;fill:#FFFFFF;}
	.st28{fill:#C0A32F;}
	.st29{fill:#787878;}
	.st30{fill:#707071;}
	.st31{fill:#ED2024;}
</style>
<g>
	<path class="st0" d="M259.6,261.6c-1.3-10.2-4.4-20.3-10.7-28.5c-5.4-7.1-13-12.5-17.7-20.1l-0.6,0l-8.5-78.8
		c0-2.3-1.5-4.4-3.3-6.2c-1.3-1.4-1.3-3.6-0.1-5.1c0.3-0.4,0.5-7.7,0.6-10.4c0-0.6,0-1.2,0-1.8l-1.4-23.4c-0.1-0.9-0.2-1.7-0.3-2.6
		l-4.7-25.1l-0.6-4c-0.7-4-4.1-7-8.3-7h-31.4c-4.2,0-7.7,3.2-8.3,7.2l-0.6,3.6l-5.1,26.5c-0.2,1-0.3,2-0.4,3l-1.1,22.5
		c0,0.2,0.1,10.5,0.3,10.7c1.1,1.5,1,3.6-0.4,4.9c-2,2-3.8,4.4-3.8,7l-8.3,76.9l-0.8,0c-4.8,7.6-12.3,13-17.7,20.1
		c-6.2,8.2-9.4,18.3-10.7,28.5s0,185.2,0.5,195.4l0.5,0c0.8,3.5,2,6.8,3.6,9.9c2,3.8,4.6,7.2,8,9.8c4.5,3.3,10,4.8,15.4,6
		c0,0,27.8,6.5,36.1,6.2c17.3-0.5,34.8-0.6,51.7-4.3c5.4-1.2,10.9-2.7,15.4-6c3.4-2.5,6.1-6,8-9.8c1.6-3.1,2.9-6.5,3.6-9.9l0.5,0
		C259.6,446.8,260.9,271.8,259.6,261.6z"/>
	<g>
		<path d="M262,261c-1.5-11.2-5.1-22-12.3-30.8c-3.3-4.1-7.3-7.6-10.9-11.5c-2.3-2.5-4.5-8-8.3-8.1c0.8,0.8,1.7,1.7,2.5,2.5
			c-2.7-25-5.4-49.9-8.1-74.9c-0.1-1.2-0.3-2.5-0.4-3.7c-0.5-4.2-3.6-6.9-3.4-11c0.3-6.6,0.5-12.9,0.1-19.5
			c-0.4-6.3-0.4-12.8-1.3-19c-1-6.3-2.3-12.5-3.5-18.8c-0.9-5-1-12.3-4.5-16.2c-4.3-4.8-11.3-3.7-17.1-3.7c-7.1,0-14.3-0.2-21.4,0
			c-8.2,0.2-11,5.5-12.2,12.7c-1.9,11.2-5.2,22.3-5.7,33.7c-0.3,6.3-0.8,12.7-0.9,19c-0.1,3.2-0.1,6.5,0.2,9.7
			c0.2,2,0.5,3.4-0.7,5.4c-1.6,2.7-3,4.3-3.4,7.5c-3,24.7-5.4,49.5-8,74.2c-0.1,0.9-0.2,1.8-0.3,2.7c0.8-0.8,1.7-1.7,2.5-2.5
			c-2.1,0-2.7,0.9-3.9,2.5c-2.7,3.7-5.9,6.9-9.1,10.1c-5.6,5.7-10.5,11.6-13.8,19c-3.2,7.4-5,15.4-5.3,23.4
			c-0.4,12.9-0.3,25.8-0.3,38.7c0,39.3,0.2,78.6,0.6,117.9c0.1,11.6-0.1,23.3,0.5,34.9c0.1,1.4,1.1,2.5,2.5,2.5c0.2,0,0.4,0,0.5,0
			c-0.8-0.6-1.6-1.2-2.4-1.8c1.9,7.9,5.7,15.8,12.3,20.8c5,3.8,11.1,5.4,17.2,6.8c9.8,2.2,19.7,4.4,29.7,5.7
			c7.2,0.9,14.5,0.3,21.8,0c9.8-0.3,19.7-1,29.4-2.5c8.2-1.3,17.3-2.9,24.1-8.1c6.6-5.1,10.4-12.9,12.3-20.8
			c-0.8,0.6-1.6,1.2-2.4,1.8c0.2,0,0.4,0,0.5,0c1.4,0,2.4-1.2,2.5-2.5c1.1-22.4,0.6-45.1,0.8-67.5c0.2-33.5,0.4-67.1,0.3-100.6
			c0-9,0.5-18.3-0.5-27.2c-0.4-3.2-5.4-3.2-5,0c0.9,7.4,0.4,15.1,0.5,22.5c0.1,15,0.1,30,0,45c-0.1,33.5-0.3,67.1-0.6,100.6
			c-0.1,9.1,0,18.2-0.4,27.3c0.8-0.8,1.7-1.7,2.5-2.5c-0.2,0-0.4,0-0.5,0c-1.1,0-2.2,0.8-2.4,1.8c-2.1,8.6-6.4,16.8-14.8,20.8
			c-7.6,3.6-16.8,4.7-25,5.6c-8.6,1-17.3,1.3-25.9,1.6c-5.7,0.2-11.3,0.5-17-0.2c-9.1-1.2-18.1-3.2-27.1-5.2
			c-4.2-1-8.6-1.8-12.5-3.7c-8.3-3.9-12.7-12.2-14.8-20.7c-0.3-1.1-1.3-1.8-2.4-1.8c-0.2,0-0.4,0-0.5,0c0.8,0.8,1.7,1.7,2.5,2.5
			c-1.3-26.9-0.7-54-0.8-80.9c-0.2-34.7-0.6-69.4,0-104.1c0.1-3.8,0-7.7,0.5-11.5c1.3-9.9,4.8-19.8,11.3-27.5
			c5.4-6.5,12-11.7,16.7-18.8c-0.7,0.4-1.4,0.8-2.2,1.2c0.3,0,0.6,0,0.8,0c1.5,0,2.4-1.2,2.5-2.5c2.6-24.1,5.2-48.3,7.8-72.4
			c0.1-1.3,0.2-2.6,0.4-3.9c0.7-3.8,4.8-6.1,5-9.9c0.1-1.5-0.6-2.8-0.8-4.3c-0.3-1.8-0.1-3.7-0.1-5.5c0-2,0-3.9,0.1-5.9
			c0.3-6.5,0.4-13.1,0.9-19.6c0.4-5.6,1.9-11.1,2.9-16.6c1-5.2,2-10.3,2.9-15.5c1.4-8.3,10.5-6.3,16.9-6.3c6.5,0,13.1-0.4,19.6,0
			c7.3,0.5,7,7,8.1,12.6c2.2,11.9,4.3,23.2,5,35.3c0.4,6.2,0.8,12.2,0.6,18.4c-0.1,2-0.3,3.6-0.7,5.4c-0.5,1.8-0.8,3.4,0.1,5.2
			c1.2,2.6,3.3,4.4,3.8,7.4c2.2,14,3.1,28.4,4.6,42.6c1.3,11.6,2.5,23.3,3.8,34.9c0.1,1.4,1,2.5,2.5,2.5c0.2,0,0.4,0,0.6,0
			c-0.7-0.4-1.4-0.8-2.2-1.2c4.8,7.3,11.7,12.6,17.2,19.4c6.6,8.2,9.6,18.4,11,28.6C257.6,265.5,262.5,264.1,262,261z"/>
	</g>
</g>
<path class="st31" d="M211.2,47.5h-45.3c-1.8,0-3.3-1.5-3.3-3.3v0c0-1.8,1.5-3.3,3.3-3.3h45.3c1.8,0,3.3,1.5,3.3,3.3v0
	C214.5,46,213,47.5,211.2,47.5z"/>
<path class="st31" d="M205.2,57.7h-33.5c-1.8,0-3.3-1.5-3.3-3.3v0c0-1.8,1.5-3.3,3.3-3.3h33.5c1.8,0,3.3,1.5,3.3,3.3v0
	C208.5,56.2,207,57.7,205.2,57.7z"/>
<g>
	<path class="st0" d="M207.9,20h-38.1c-2.4,0-4.4,1.2-4.4,2.7l3.4,15.3c0,1.5,2,2.7,4.4,2.7h31.4c2.4,0,4.4-1.2,4.4-2.7l3.4-15.3
		C212.3,21.2,210.3,20,207.9,20z"/>
	<g>
		<path d="M208.4,19.1c-9.5,0-19,0-28.5,0c-3.2,0-6.4-0.2-9.6,0c-4.5,0.2-6.9,2.1-5.9,6.4c0.6,2.8,1.2,5.7,1.9,8.5
			c0.3,1.5,0.4,4,1.3,5.4c1.8,3.1,7,2.3,10,2.3c5.8,0,11.6,0,17.5,0c3.5,0,7.3,0.5,10.8-0.1c5.5-1,5.4-6.7,6.3-11.3
			C213.3,24.9,215.9,19.8,208.4,19.1c-1.3-0.1-3,1.7-1.1,1.8c1.6,0.2,3.1,1.6,3.3,2.8c0.1,0.6-0.4,1.6-0.5,2.2
			c-0.5,2.4-1.1,4.9-1.6,7.3c-0.8,3.5-0.7,6-4.9,6.5c-8.1,1-17,0-25.1,0c-3,0-6.6,0.6-8.5-2.5c-0.7-1.1-0.7-3.3-1-4.5
			c-0.5-2.4-1.1-4.9-1.6-7.3c-0.5-2.3-1.4-3.7,1.8-4.5c0.7-0.2,1.7,0,2.4,0c3.9,0,7.8,0,11.7,0c8,0,16,0,23.9,0
			C208.6,20.9,210.4,19.1,208.4,19.1z"/>
	</g>
</g>
<g>
	<path class="st6" d="M250.4,264.4c-1.1-9.2-3.9-18.3-9.3-25.7c-4.7-6.4-12.3-11.3-16.4-18.1l-0.6,0l-7.4-71.1c0-2.1-1.3-4-2.8-5.6
		c-1.1-1.3-50.6-1.9-51.7-0.7c-1.8,1.8-3.3,4-3.3,6.3l-7.2,69.4l-0.7,0c-4.2,6.8-11.7,11.7-16.4,18.1c-5.4,7.4-8.2,16.5-9.3,25.7
		s0.9,176.3,0.9,176.3c0.7,3.1,1.7,18.1,3.1,21c1.7,3.4,4,6.5,7,8.8c3.9,3,8.7,4.3,13.4,5.4c0,0,24.2,5.8,31.4,5.6
		c15.1-0.4,30.2-0.5,45-3.9c4.7-1.1,9.5-2.4,13.4-5.4c3-2.3,5.3-5.4,7-8.8c1.4-2.8,2.5-5.9,3.1-9l0.5-12
		C250.4,431.5,251.5,273.6,250.4,264.4z"/>
</g>
<path class="st11" d="M202.8,142.7l1.9,71.9c0.1,5.7,1.8,11.2,5.1,15.8c6.6,9.4,15.7,53.2-6.1,247.6c0,0,24.6,0.3,35.7-7.6
	c0,0,7.5-4.9,10.1-17.8c0,0,2.4-187.5,0.9-188.3c0,0-1.8-16.3-9.3-25.7c0,0-17.2-17.8-17-18.2s-6.2-57.7-6.2-57.7l-1.2-13.3
	c0,0,0.4-1.9-2.8-5.6L202.8,142.7z"/>
<path class="st14" d="M175.3,136.5c-2.1-1.3-5.1-2.3-8.1-0.6l-6.4,92.3c-11.5,5.7-28.2,23.5-24.5,77c0,0.7,0.2,1.2,0.1,1.8
	c-0.7,9.9-11.5,111.1,0.8,152.2c1.8,5.9,3.9,6,8.1,7.8c3.7,1.6,8.6,2,11.5,2.4c4.6,0.8,8.8,1.3,10.9-4.1c4.8-12.2-5-47.1-7.3-76.3
	c-3.6-46.1-2.6-88.9-2.6-88.9s-1-33.5,2.1-41.1c3.6-8.8,13.5-22.2,13.7-23c0.1-0.3,0.1-0.6,0.2-0.9c0.1-0.7,0.1-1.4-0.1-2.1
	l3.7-92.2C177.8,139.1,176.9,137.5,175.3,136.5z"/>
<path class="st11" d="M196.9,20.4c0,0,7.4,20.4-5.1,37.2l13.4,0.1c0,0,3.3-0.2,3.3-3.3c0-3.2,0.5-16.4,0.5-16.4l3.4-15.3l-4.4-2.7
	L196.9,20.4z"/>
</svg>
