<svg id="Layer_1" data-name="Layer 1" xmlns="http://www.w3.org/2000/svg" viewBox="0 0 311.45 512.17"><defs><style>.cls-1,.cls-5{fill:#fff;}.cls-2{fill:#231f20;}.cls-3{fill:#df8026;}.cls-4{opacity:0.05;}.cls-5{opacity:0.2;}</style></defs><title>makeyouown</title><path class="cls-1" d="M252.77,148.33H53.92L73.06,383.09a25.45,25.45,0,0,0,11.15,19.09c11.91,8,34.42,18.69,69,18.69S210.5,410,222.45,402.05a25.49,25.49,0,0,0,11.2-19.12Z"/><path class="cls-2" d="M252.77,145.83H53.92a2.52,2.52,0,0,0-2.5,2.5L60.3,257.26c3.38,41.42,6.58,82.85,10.13,124.26,1,11.23,6.44,19.26,16,25.05,14.86,9,31.93,13.87,49.1,15.82,21.91,2.49,44.92.62,65.71-7,14-5.11,31.18-12.75,34.39-28.94,2.23-11.25,2.1-23.36,3-34.76l6.05-74.16,10.33-126.83.2-2.38c.26-3.21-4.74-3.19-5,0l-8.51,104.4L231.46,379c-.73,8.94-3.65,16.51-11.62,21.73-14.48,9.49-31.8,14.61-48.88,16.61-21.87,2.56-44.79.63-65.47-7.15-12.95-4.87-28.32-12-29.95-27.41-3.86-36.6-6-73.47-9-110.15l-10-122.18-.18-2.16-2.5,2.5H252.77C256,150.83,256,145.83,252.77,145.83Z"/><path class="cls-3" d="M69.36,198.74,85,378.34a19.94,19.94,0,0,0,9.43,15.11c10.07,6.32,29.12,14.8,58.4,14.8s48.44-8.58,58.55-14.9a20,20,0,0,0,9.47-15.14l15.64-179.65C226.38,198.56,69.1,195.82,69.36,198.74Z"/><path class="cls-4" d="M166.08,407.26s39.71-63.78,37-209.07l33.31.41-15.5,179.61S222.73,400.32,166.08,407.26Z"/><path class="cls-5" d="M73.88,159l21,223.34s9,12.61,29.42,14.41c0,0-27.62-232.95-24.62-237.75C99.69,159,80.48,154.76,73.88,159Z"/></svg>