<svg id="Layer_1" data-name="Layer 1" xmlns="http://www.w3.org/2000/svg" viewBox="0 0 311.45 308.18"><defs><style>.cls-1{fill:#fff;}.cls-2{fill:#231f20;}.cls-3{fill:#e8e8e8;}</style></defs><title>makeyouown</title><path class="cls-1" d="M240.31,107.34l4.84-36.86a3,3,0,0,0,.09-.72c0-9.32-44-16.88-98.27-16.88s-117,7.9-118.9,15.64a1.56,1.56,0,0,0,.53,1.4c1.77,4.52,14.63,27.66,28.53,40.85L70.35,246.23s63.28,40.94,151.73,0l4.17-31.73c48.62,8.74,57.16-107.16,57.16-107.16ZM230,185.93l7.87-60h22.76S256,188.58,230,185.93Z"/><path class="cls-2" d="M242.81,107.34l3.25-24.73c.66-5.1,3.65-13.35-.56-17.58-6.51-6.54-19.21-8-27.74-9.5-17.95-3.15-36.27-4.39-54.47-4.92-37-1.06-74.83.64-111.3,7.07a121.08,121.08,0,0,0-17.07,4c-2.73.9-6.24,2-8.16,4.26-2.51,3,.36,6.94,1.91,9.85a178.62,178.62,0,0,0,11.1,18q3.19,4.61,6.7,9c1.25,1.56,2.54,3.1,3.87,4.6.66.73,1.32,1.46,2,2.17.11.12,3.23,2.88,2.31,1.29.37.65.21,2.22.28,2.94l1.87,19.16L63,196.64l4.63,47.52c.27,2.76,1,4,3.38,5.38a117,117,0,0,0,18,8.06c25.48,9.25,53.24,11.32,80,7.41a185.5,185.5,0,0,0,28.4-6.53q7.44-2.33,14.69-5.22c3.16-1.26,10.39-2.9,12.2-5.76,1.26-2,1-6.13,1.27-8.37l2.08-15.82,1.16-8.81-3.17,2.41c21.21,3.54,34.78-14.41,42.51-31.72,8.8-19.72,13.23-41.34,16.12-62.65.68-5.05,1.32-10.11,1.7-15.2a2.53,2.53,0,0,0-2.5-2.5h-43.1c-3.22,0-3.22,5,0,5h43.1l-2.5-2.5a284.2,284.2,0,0,1-5.37,36.5c-4.09,19.69-9.64,42.25-23.22,57.77-6.55,7.48-15.28,12.17-25.41,10.48a2.55,2.55,0,0,0-3.16,2.41l-4.17,31.73,1.24-2.16c-43.8,20-96.3,25.36-140.87,4.44a72.34,72.34,0,0,1-8.34-4.44l1.24,2.16L60,114.74c-.15-1.52,0-3.83-.73-5.23-1-1.88-3.48-3.58-4.91-5.18-1.85-2-3.62-4.17-5.32-6.34A172.5,172.5,0,0,1,38.65,83c-2.14-3.43-4.2-6.92-6.07-10.5-.43-.83-1.44-2.16-1.53-3.11-.05-.47-.87.17.4-.87,4.38-3.59,13.05-4.31,18.37-5.33,23.35-4.5,47.36-6.22,71.08-7.21,26.92-1.12,54-.8,80.83,2.3,10.37,1.2,21,2.7,30.93,5.87,3.4,1.08,10,2.61,9.92,6.9-.18,6.56-1.76,13.37-2.61,19.87l-2.16,16.46C237.39,110.53,242.4,110.49,242.81,107.34Z"/><path class="cls-2" d="M232.5,185.93l7.87-60-2.5,2.5h22.76l-2.5-2.5a153.5,153.5,0,0,1-5,28.54c-2.93,10.81-8.83,30.1-23.16,29-3.21-.25-3.2,4.75,0,5,15.67,1.22,23.19-16.74,26.95-29.05a154.65,154.65,0,0,0,6.18-33.47,2.53,2.53,0,0,0-2.5-2.5H237.87a2.58,2.58,0,0,0-2.5,2.5l-7.87,60C227.08,189.11,232.08,189.08,232.5,185.93Z"/><path class="cls-3" d="M245.09,70.31a3,3,0,0,0,.09-.72c0-9.32-44-16.88-98.27-16.88S29.87,60.61,28,68.35c-.11.45,30.12,1.93,30.18,1.94,24.23,4.47,59.41,8.46,90.75,8.22A617.92,617.92,0,0,0,245.09,70.31Z"/><path class="cls-2" d="M247.59,70.31c1.06-8.07-13-11.16-18.4-12.53-17-4.35-34.83-5.81-52.28-6.77-40.63-2.23-82.35-.62-122.53,6.08-6.9,1.15-14,2.37-20.58,4.72-3,1.08-7.1,2.48-8.19,5.87a2.43,2.43,0,0,0,.64,2.43c2.05,1.79,6.75,1.26,9.24,1.42,5.73.37,11.46.68,17.18,1,14.1.74,28.11,4,42.17,5.55C136,82.49,177.4,81.43,218.49,76.6c9.11-1.07,18.24-2.23,27.26-3.88,3.16-.58,1.83-5.4-1.33-4.82-24.49,4.48-49.63,6.52-74.48,7.58a493.38,493.38,0,0,1-63.76-1.32q-14.9-1.3-29.7-3.41c-6.35-.91-12.74-2.46-19.12-3-5.08-.44-10.21-.53-15.3-.82-3-.18-6-.35-9-.57a26.08,26.08,0,0,0-2.92-.22c-1.27.07-1.61-.66-.35.44L30.43,69c.43-1.35,5.71-2.73,7.27-3.2a141.27,141.27,0,0,1,16.77-3.69,481.17,481.17,0,0,1,50-5.47c37-2.43,75.27-2.9,112,3.53a108.64,108.64,0,0,1,18.72,4.6c2.12.78,7.89,2.51,7.49,5.53C242.17,73.49,247.18,73.46,247.59,70.31Z"/></svg>