<svg id="Layer_1" data-name="Layer 1" xmlns="http://www.w3.org/2000/svg" viewBox="0 0 311.45 308.18"><defs><style>.cls-1{fill:#231f20;}.cls-2{fill:#addef8;}</style></defs><title>makeyouown</title><path class="cls-1" d="M218.26,118.85l5.16-41.61c.06-.52-.5-.65-.9-.69a72.7,72.7,0,0,0-16.15.36c-1.43.19-2.37,2-.37,1.69a69.07,69.07,0,0,1,15.41-.33l-.89-.69-5.17,41.61c-.15,1.2,2.78.69,2.91-.34Z"/><path class="cls-1" d="M206.3,184.61a246,246,0,0,0,10.41-53.27c.11-1.25-2.82-.73-2.91.33a245.37,245.37,0,0,1-10.41,53.27c-.34,1.09,2.58.71,2.91-.33Z"/><path class="cls-1" d="M212,77C184,82.84,155.48,84.36,127,83.14c-14.41-.61-28.78-1.91-43.1-3.62-6.84-.82-13.76-1.47-20.43-3.22-5.63-1.48-11.08-3.27-17-3.3-.28,0-2.8.55-2.32,1,1,1,5.35,5,7.13,2.13,1.59-2.51-3.64-3.27-5.11-3.13-.16,0-2.38.6-2.1.91,5.95,6.65,12.93,12.32,18.7,19.13,2.78,3.29,5.83,7.13,7.28,11.24,1.58,4.45.11,11.25-.06,16-.75,22.19-.59,44.48,2,66.56a262.7,262.7,0,0,0,5.79,32.7c.44,1.8.8,5.59,1.92,7.16s4.16,2.43,5.79,3a50.91,50.91,0,0,0,13.34,2.63,593.46,593.46,0,0,0,67.87,1.79c7.65-.19,16.08.89,22-5,4-3.95,5.54-10.84,7.25-16a173.44,173.44,0,0,1,6.17-17c.15-.33-2.53-.16-2.85.55-3.79,8.44-5.9,17.48-9.41,26a23.76,23.76,0,0,1-3,5.92c-2.88,3.59-8.18,4.13-12.51,4.26q-7.64.23-15.29.34c-10.25.13-20.51.07-30.76-.28-11-.38-22.82-.26-33.66-2.4-4.27-.85-10.6-2.1-12.56-6.47-2-4.53-2.62-10.4-3.6-15.24a282.65,282.65,0,0,1-4.25-29.25,465.83,465.83,0,0,1-1.31-59.19c.16-4.89,1.64-11.55.37-16.24-1.09-4.07-4.45-8.17-7.08-11.34C60.34,85.8,53.15,80,47,73.16l-2.09.91c2.58-.24,2,1.37,3.69,1.91,2.8.91-1.23-2.48-1.68-2.91l-2.32,1c7.18,0,13.78,2.89,20.73,4.28,7.21,1.43,14.67,2.06,22,2.87,13.82,1.54,27.7,2.66,41.61,3.13,27.64.95,55.34-.77,82.43-6.48,1.09-.22,2.62-1.36.58-.93Z"/><path class="cls-1" d="M215.32,132.11c3.1-.63,29-6.65,29.41-1.44.12,1.34-2.23,4.63-2.81,5.87q-2.25,4.82-4.48,9.64c-3.58,7.7-7.16,15.39-10.85,23-1.82,3.79-3.41,8-5.67,11.51-3.22,5.08-11.41,4.33-16.92,5-1.62.19-2.21,2.41-.24,2.17q5.64-.65,11.28-1.31c1.93-.24,4.14-.27,5.81-1.42,3.11-2.12,4.57-7.46,6.16-10.71,5.1-10.39,10-20.9,14.84-31.4,1.6-3.46,3.19-6.93,4.86-10.36,1-2,2.28-4.17,0-5.89-1.37-1-3.18-.7-4.75-.58-3.21.23-6.42.57-9.62,1-5.9.7-11.75,1.74-17.58,2.93-1.83.38-1.26,2.41.55,2Z"/><path class="cls-1" d="M201.08,195.71c9.16.66,22.27,3.86,29-4.72,4.27-5.45,7-12.79,9.91-19q7-14.81,13.26-30c1.88-4.6,3.7-9.22,5.34-13.91,1.23-3.55,3.56-8.13.45-11.34-1.83-1.88-4.06-1.82-6.5-1.81-4.41,0-8.83,0-13.23.07a78.08,78.08,0,0,0-22.92,3.51c-1.7.54-1.34,2,.4,1.5,8.62-2.77,17.13-3.35,26.12-3.35,3.35,0,9.25-1.17,12.2.29,3.65,1.81,2.52,5.59,1.56,8.57a317.13,317.13,0,0,1-11.79,29.69c-4.33,9.87-8.81,19.71-13.82,29.26-1.15,2.19-2.23,4.74-3.87,6.63-5.77,6.64-17.46,3.42-25,2.88-1.13-.08-3.06,1.54-1.11,1.68Z"/><path class="cls-2" d="M79.45,108c40.72,3.76,77.59,1.62,117.74,3a9.44,9.44,0,0,1,8.93,11.37c-6.29,29.68-18.62,97.19-25.45,101.09-6.13,3.5-65.7-.53-83.64-1.35-2.89-.13-6-.33-8.35-2-4-2.73-4.72-8.27-5-13.13-.84-13-9.34-88.22-4.59-98.92"/><path class="cls-1" d="M44.32,72.58q44.47-1.85,89-1.57,21.77.13,43.52.8c14.81.45,30.72-.33,45.11,3.57.94.25,3.4-1.16,1.77-1.6-13.43-3.64-28-3.07-41.81-3.52q-22.74-.74-45.49-.91-45.49-.34-91,1.56c-1.09,0-3.06,1.75-1.12,1.67Z"/><path class="cls-1" d="M73.55,114.19l18.34.44c1.67,0,2.21-2.1.25-2.15L73.8,112c-1.67,0-2.21,2.11-.25,2.15Z"/><path class="cls-1" d="M70.8,136.79l19.47.83c1,0,3.11-1.4,1.17-1.48L72,135.31c-1,0-3.11,1.4-1.17,1.48Z"/><path class="cls-1" d="M72,160.19l19.11.82c1.15.05,3.07-1.63,1.11-1.71l-19.11-.82c-1.14,0-3.06,1.63-1.11,1.71Z"/><path class="cls-1" d="M75.41,182.77l20.25.36c1.13,0,3.06-1.66,1.11-1.7l-20.25-.36c-1.13,0-3.06,1.66-1.11,1.7Z"/><path class="cls-1" d="M107.4,151.11l.17-.38-2.82.28q.69,9.42,1,18.88c0,1.41,3,.88,2.92-.27q-.28-9.7-1-19.39c-.08-1.17-2.51-.41-2.82.27l-.17.39c-.63,1.42,2.28,1.28,2.75.22Z"/><path class="cls-1" d="M140.77,153.14c-.49-3-3.94-3.46-6.37-2.58-3.66,1.32-5.37,5.84-6,9.36-.72,3.79.4,8.48,4.68,9.47a7.21,7.21,0,0,0,7.47-3.13c.69-1-2.19-.73-2.68,0-2.32,3.48-5.2.81-6.21-1.44a9,9,0,0,1-.37-5.31,18.69,18.69,0,0,1,1.5-4.57c1-2.14,4.48-4.85,5.11-1,.15.89,3.06.22,2.9-.78Z"/><path class="cls-1" d="M143.17,155.1l.94,7.14c.25,1.88.18,4.39,1.25,6.06,1.3,2,3.94,2.21,6.08,1.7a7.31,7.31,0,0,0,5.52-5,13.12,13.12,0,0,0,.4-4.75c-.06-.87-.73-4.59.44-4.91,1.7-.47,1.42-1.62-.31-1.15-5,1.37-2.41,6.81-3.22,10.52a7.77,7.77,0,0,1-.6,1.78,4,4,0,0,1-3.74,2.25c-1.56-.17-2.17-2.18-2.41-3.42-.69-3.61-1-7.34-1.45-11-.1-.75-3-.14-2.9.77Z"/><path class="cls-1" d="M165.13,155.72a61.46,61.46,0,0,1-1.46,17.42l2.9-.55a71.68,71.68,0,0,1-.84-7.87,56.45,56.45,0,0,1,.05-6.1c.14-2.37,0-2.73,2.18-4.3a6.78,6.78,0,0,1,8.27.26c1.07.85,2.19,2.46,1.55,3.95l-5.85,3.22a32.22,32.22,0,0,1-3.65-.58c-1-.2-3.42,1.33-1.75,1.66,4.38.87,9.82,1.51,13-2.44s.11-7.51-3.95-8.59c-3.3-.88-8.53-1.48-11.12,1.38-2,2.23-1.65,6.18-1.67,8.93a68.37,68.37,0,0,0,.9,11.25c.18,1.12,2.72.28,2.91-.55A63.5,63.5,0,0,0,168,154.94c-.06-1-3-.4-2.9.78Z"/><path class="cls-1" d="M112.44,154.61c.07-.62,1.6-1.08,2.1-1.2,3.16-.79,4.47.93,4,3.06-.39,1.63-1.85,2.94-2.81,4.27-1.37,1.89-3.59,4.42-4,6.74a.55.55,0,0,0,.31.57c1.88.83,4.38.54,6.41.66,1.18.08,3-1.64,1.09-1.76a18.15,18.15,0,0,1-3.22-.19c-1.1-.29-1.2.11-.94-1.15.33-1.52,2.19-3.49,3.09-4.74,1.46-2,4.45-4.45,2.93-7.17-1.22-2.19-4-2.44-6.24-2.08-1.92.31-5.27,1-5.57,3.32-.16,1.23,2.77.73,2.91-.33Z"/><path class="cls-1" d="M194.8,156.12c-2.92-2.51-9.73-2.22-12.58.37-1.37,1.25-2.2,3.35-1,5,1.07,1.46,3,1.93,4.12,3.46.55.78,1.33,2.09.69,3.11s-4.77,2.67-5.12.43l-1.3,1,.19-.05-1.6-.18.08.15c.48.82,3.23-.21,2.9-.78l-.08-.14c-.29-.49-1.18-.28-1.6-.18l-.19.05c-.36.09-1.38.42-1.3.95.57,3.65,8.74,1.14,10.24-.62,1.88-2.2.23-4.8-1.72-6.26-1.53-1.14-3.6-2-2.82-4.35.92-2.69,6.44-2.52,8.37-.87.65.57,3.3-.53,2.71-1Z"/></svg>