<svg id="Layer_1" data-name="Layer 1" xmlns="http://www.w3.org/2000/svg" viewBox="0 0 311.45 512.17"><defs><style>.cls-1{fill:#231f20;}.cls-2{opacity:0.4;}</style></defs><title>makeyouown</title><path class="cls-1" d="M173.16,86.74c-22-2.22-44.35-5.3-65.88,1.35C98.87,90.68,86.92,94.46,82,102.43c-2,3.34-2.78,7.85-.53,11.29,2.51,3.83,7.41,5,11.56,6.11,25.45,6.78,52.33,7.06,78.49,7.46,11.54.18,23.18,0,34.52-2.33,6.58-1.35,20.55-3.71,22.62-11.78,1-3.81-1.74-8.22-3.8-11.23-3.16-4.64-7.79-6.39-13-8.3-12.17-4.5-25.14-5.6-38-6.34-1.1-.06-3.08,1.53-1.13,1.64,10,.58,20.12,1.34,29.87,3.91a65.57,65.57,0,0,1,14.1,5.26c3.82,2,6.12,5.41,7.87,9.34,2.12,4.75,1.2,8.43-3.59,11.13-5.21,2.93-11.73,4.31-17.58,5.33-10.15,1.78-20.51,1.9-30.79,1.74-21.36-.34-43-.66-64.08-4.39-7.75-1.38-26.6-2.72-25.52-14,1-10.87,17.44-15.69,26.14-18.2,20.53-5.93,42-2.8,62.82-.69,1.11.11,3.07-1.44,1.13-1.64Z"/><path class="cls-1" d="M79.45,113.31c-5.26,13.91,5.64,27.33,20.22,25.88,1.56-.15,2.29-2.15.3-1.95-13.16,1.3-22.36-11.54-17.77-23.69.56-1.49-2.33-1.34-2.75-.24Z"/><path class="cls-1" d="M228,116.75a14.46,14.46,0,0,1,2.18,13.49c-2.23,6.55-7.86,8-13.62,10.47-1.86.79-.17,1.75,1.14,1.2,5.7-2.44,11.44-3.84,14.44-9.78a15.55,15.55,0,0,0-1.45-16.52c-.59-.78-3.39.21-2.69,1.14Z"/><path class="cls-1" d="M81,133.58c-.77,7.21-.42,17.36-8.87,20.07-1.72.55-1.29,2.29.47,1.72,10.06-3.23,10.36-13.1,11.31-22.08.15-1.33-2.79-.86-2.91.29Z"/><path class="cls-1" d="M227.58,134.72a15.87,15.87,0,0,0,4.36,13.72c.54.56,3.23-.49,2.72-1a15.38,15.38,0,0,1-4.22-13.18c.12-.78-2.75-.27-2.86.48Z"/><path class="cls-1" d="M236.54,150c14,5.39,27.8,16.35,33.75,30.6,2,4.76,2.35,10.46,2.91,15.52.71,6.37,1.17,12.77,1.47,19.17,1.53,32.87,3.29,65.93,3.43,98.84.11,25.79-.75,51.93-2.53,77.68-.82,11.72-1.75,23.88-5.2,35.18-1.28,4.2-2.91,8.17-6.33,11.06-4.47,3.76-9.71,6.79-14.76,9.69a116.45,116.45,0,0,1-15.4,7.8c-7.13,2.8-15.46,3.42-23,4.75-15.52,2.74-31.15,5-46.92,5.66-16.17.66-32.34-.39-48.44-1.89-7.1-.67-14.32-1-21.19-3A172.16,172.16,0,0,1,77,454.76c-8.67-3.6-20.07-7.22-24.8-16-5.23-9.71-7.37-21.38-9.44-32.1-4.47-23.06-7-46.62-8.81-70C31.37,304,31.18,271,31.21,238.26c0-14.9.55-30.22,4.18-44.73a51.49,51.49,0,0,1,28.88-34.75,76.32,76.32,0,0,1,24.09-6.17c1.58-.17,2.26-2.25.28-2-15,1.6-29.78,6.37-41,16.86-10.94,10.21-15.29,23.28-17.34,37.76-2.22,15.63-2.11,31.44-1.82,47.18.32,17.87.3,35.74.85,53.6a726,726,0,0,0,7.27,82.09c1.87,12.88,4,25.84,7.7,38.35,2.4,8.23,5.15,16.79,12.79,21.46,10.69,6.53,23.13,11.35,35.1,14.93,6.71,2,13.61,2.42,20.57,3.09,9,.86,17.92,1.58,26.91,2a278.73,278.73,0,0,0,45.21-1.65c8.33-1,16.63-2.32,24.89-3.77,7.85-1.37,16.43-2.09,24-4.77,10.91-3.88,22.17-10.54,31.28-17.66,7.21-5.62,9.1-14.78,10.65-23.4,4.29-23.95,4-48.78,4.88-73,1.41-37.13-1.08-74.11-2.36-111.2-.47-13.56-.72-27.11-2.49-40.58-.67-5.12-1.31-10.35-4-14.85a72.66,72.66,0,0,0-14-17.52,62.92,62.92,0,0,0-19.43-11.34c-1.17-.45-3.38,1.24-1.69,1.89Z"/><g class="cls-2"><path class="cls-1" d="M54.86,425.9c64.48-26.62,137.31-30.25,204.23-10.69.64.18,3.17-.86,2.39-1.09-68.31-20-142.53-15.69-208.27,11.46-1.75.72,1,.6,1.65.32Z"/></g></svg>