<svg id="Layer_1" data-name="Layer 1" xmlns="http://www.w3.org/2000/svg" viewBox="0 0 820.75 406.82"><defs><style>.cls-1{fill:#231f20;}</style></defs><title>makeyouown</title><path class="cls-1" d="M340.18,120.42c-4.86-8.5-15.85-10.37-24-5.54-7.34,4.34-15.77,16-9.05,24.13,6,7.22,17.47,4.36,24.26,0A32.5,32.5,0,0,0,346.09,115h-10c.3,7.23-1.86,19.71,5.92,23.61,6.94,3.49,15.66.51,21-4.46,4.71-4.41-2.38-11.47-7.07-7.07-1.91,1.79-7.34,4.64-9.22,2.16-.8-1.06-.24-5.73-.3-7.12l-.29-7.12c-.28-6.57-9.27-6.27-10,0-1,8.56-8.83,18.32-18.07,18.44-2.13,0-3.48-.12-3.13-2.41s3.2-5.18,4.85-6.47c3.63-2.85,9.23-3.55,11.81,1,3.19,5.59,11.83.56,8.63-5Z"/><path class="cls-1" d="M355.19,98.94a339.7,339.7,0,0,1,.95,41.23c-.18,4.79,5.39,6,8.54,3.54l2.19-1.71c5.07-3.95-2.06-11-7.08-7.07l-2.19,1.71,8.54,3.53a339.7,339.7,0,0,0-.95-41.23c-.53-6.37-10.53-6.42-10,0Z"/><path class="cls-1" d="M389.83,104.94l-31.29,15.85c-5.32,2.7-1.43,10.18,3.85,9.14,9-1.76,16.51,4,23.51,8.74a24,24,0,0,0,22.14,3c6.52-2.15,12.61-6.17,15-12.86,2.36-6.47.38-14-5.81-17.42a12,12,0,0,0-16.53,4.68c-2.82,5-4.25,13-.14,17.69,4.75,5.4,15.53,6.52,22.24,7a59.79,59.79,0,0,0,25-3.68c6-2.21,3.4-11.88-2.66-9.64a51.09,51.09,0,0,1-30.39,2c-1.77-.45-6.07-1-6.75-3-.37-1.11.67-4.37,1.3-5.31,1.19-1.77,3.08-1.67,4.22.23s.2,4.49-1,6.12c-2.68,3.69-8.64,5.59-13,5.75-5,.18-8.76-3.42-12.7-6-8.17-5.47-17.32-8.85-27.18-6.91l3.85,9.14,31.3-15.85c5.74-2.91.69-11.54-5.05-8.64Z"/><path class="cls-1" d="M199.74,161.58c3.37,4.82,2.18,11.18,4,16.58a14.27,14.27,0,0,0,13.52,10.07c7.41.06,13.62-4.95,18.7-9.82s8.6-10.33,9.55-17.45c.72-5.46-6.82-6-9.32-2.52-7.31,10.2-5.18,22.71-7.09,34.37-1,5.87-3.36,11.51-9.27,13.82s-15.22.09-15-7.59c.2-6.44-9.8-6.43-10,0-.62,20,26.77,23.45,37.73,10.47,11.25-13.34,2.55-32.49,12.25-46L235.51,161c-.79,5.93-14.53,22.07-21.07,16.22-2.29-2-2.07-6.73-2.43-9.51-.52-4-1.29-7.79-3.63-11.14-3.66-5.24-12.33-.25-8.64,5.05Z"/><path class="cls-1" d="M264.1,175.34c4.58-2.39,5.56,4.41,3.95,7.15-2.28,3.89-7.76,5.48-12,5.1-3.09-.27-7.88-1.81-7.88-5.55,0-5.21,7.56-7.36,11.39-8.64,6.07-2,3.47-11.71-2.65-9.65-9.21,3.1-20.82,9.28-18.5,21,1.91,9.64,12.92,13.72,21.74,12.64,9.71-1.19,19.27-8.2,18.92-18.87a13.67,13.67,0,0,0-20-11.82c-5.71,3-.66,11.62,5,8.64Z"/><path class="cls-1" d="M277.39,166.65c1.35,13.36,7.16,29.64,23.29,29.37,15.77-.25,24.57-18,16-31-3.52-5.36-12.18-.35-8.64,5.05,4.91,7.46-.53,17.91-10,15.74-8-1.84-10-12.26-10.7-19.15-.64-6.34-10.65-6.4-10,0Z"/><path class="cls-1" d="M324.83,167.8a190.44,190.44,0,0,1,2.27,24.89l9.82-1.33c-2.12-5.64,1.24-11.23,6.32-14,6.56-3.57,14.69-3,21.88-2.67,6.44.27,6.43-9.73,0-10-10.33-.42-21.77-.48-30.27,6.33-6.75,5.41-10.75,14.58-7.57,23,1.88,5,10,4.69,9.82-1.33a212.09,212.09,0,0,0-2.63-27.55c-1-6.34-10.65-3.65-9.64,2.66Z"/><path class="cls-1" d="M418,155.57c-6.36,5.08-16.59,12.8-15.54,22.1s12.89,11.27,20.39,9.67C430.73,185.67,437,179,437,170.76a15.39,15.39,0,0,0-3.48-10.07c-3.26-3.79-8.06-4.41-12.16-6.87-5.53-3.32-10.57,5.33-5.05,8.64,3.05,1.82,9.1,2.52,10.4,6.16,1.42,4-1.59,7.58-5.22,8.75-3.05,1-11.12,1.28-8-3.59,2.78-4.35,7.58-8,11.57-11.14,5-4-2.09-11-7.08-7.07Z"/><path class="cls-1" d="M441.74,159.21c2,4.85-.06,10.3,2,15.25A12.38,12.38,0,0,0,453.86,182c10.88,1.41,17.14-7.85,21-16.57l-9.32-2.53c-.46,12.18,7.69,27,22,23.54s14.29-22.89,7-32.64c-3.81-5.1-12.49-.12-8.64,5,3,4,7,16.54-1,18-7.64,1.35-9.55-8.53-9.35-13.9.18-4.72-7.26-7.13-9.32-2.52-1.86,4.16-5.15,13-11.18,11.77-3.25-.65-2.49-4.46-2.46-7a21.43,21.43,0,0,0-1.24-8.63c-2.41-5.87-12.09-3.3-9.64,2.66Z"/><path class="cls-1" d="M505.78,155.88l2.67,32.92,9.82-1.33c-3.21-13,12.17-19.23,22.08-21.34a46.73,46.73,0,0,1,7.93-1.4c1,0,.71-.12-.75-.46v2c-.38,1.64,0,4.3,0,6v21.93c0,6.44,10,6.45,10,0V177.23c0-5,.73-10.57-.2-15.45-1.8-9.37-12.08-6.85-18.81-5.47-16,3.3-34.62,14.66-29.88,33.82,1.33,5.36,10.29,4.39,9.82-1.33l-2.67-32.92c-.51-6.37-10.52-6.43-10,0Z"/><path class="cls-1" d="M132.53,228.21l4.15,35.87,2,17.45c.58,5,0,11.94,4.09,15.53a7.77,7.77,0,0,0,9.09,1.18c2.94-1.63,3.81-4.11,4.22-7.26a7.18,7.18,0,0,0-3.71-6.47l-.35-.16c-3.72-1.68-8-1-10.26,2.69-1.91,3.2-1,8.6,2.69,10.26l.35.16L141.1,291l-.07.54,3.72-6.48-.44.24,9.08,1.18c1.15,2.51,1.43,2.48.87-.09l-.45-3.87-.89-7.76-1.8-15.51-3.59-31c-.47-4-3.12-7.5-7.5-7.5-3.7,0-8,3.45-7.5,7.5Z"/><path class="cls-1" d="M173.68,221.56a244.66,244.66,0,0,1-35.13,27.38c-6.1,3.92-3.91,14,3.78,14,17.68-.14,34.91,8.92,51,15.2,3.8,1.48,8.19-1.63,9.23-5.23,1.21-4.23-1.48-7.77-5.24-9.23-17.6-6.85-35.75-15.89-55-15.74l3.79,14a264.93,264.93,0,0,0,38.16-29.73c7.06-6.61-3.56-17.21-10.6-10.6Z"/><path class="cls-1" d="M246.05,235.86c-8.44-11.07-22.67-12.24-34.55-5.64-12.55,7-14.17,23.33-6,34.39,7.4,10,25.84,17.35,37.65,11.89a19.74,19.74,0,0,0,11.27-15.93c.78-7.61-2.67-14.43-6.83-20.56-5.38-7.94-18.39-.44-13,7.58,2.45,3.6,9,13.26,1.53,15.59-3.22,1-8-1.1-10.92-2.22a17.12,17.12,0,0,1-7.2-4.56c-3.43-4.06-4.09-10.42,1-13.23,3.78-2.07,10.88-3.85,14,.26,2.47,3.25,6.43,4.87,10.26,2.69,3.19-1.81,5.14-7,2.69-10.26Z"/><path class="cls-1" d="M278.05,267.91c1.27-6.78.26-13,0-19.81-.17-4.83-.08-9.5,5.39-10.43,2.41-.41,6.78.48,8.85-.49-1.24.58-.49-2.55-.88.1a22.71,22.71,0,0,0,.18,4.11q.38,10.7.3,21.39h15c-1.07-8-.46-21.17,9.52-23.35,1-.23,3.35-.54,4.09.43-.07-.09,0,2.81,0,3.16.15,1.58.28,3.18.38,4.77A172.48,172.48,0,0,1,321,267c-.48,9.65,14.53,9.62,15,0,.49-10,.74-20.66-1.23-30.5-1.79-8.94-10.88-13-19.29-12-18.35,2.17-25.71,22.11-23.53,38.32.54,4,3.06,7.5,7.5,7.5a7.59,7.59,0,0,0,7.5-7.5c.05-9.5,1-20.16-1-29.49-2.34-10.66-11.82-11.78-21.14-10.8s-17,4.37-20.24,14c-3.09,9.15.78,18.32-.94,27.47-1.78,9.43,12.67,13.48,14.46,4Z"/><path class="cls-1" d="M346.94,230.65v23.16c0,6.33-1.47,14.86,1.34,20.75,5.53,11.59,23.86,9.54,33.64,5.7,10.87-4.27,25.36-16,17.42-29-3.48-5.72-10.37-8.73-16.31-11.12a69,69,0,0,0-20.26-4.53l2,14.73c8.81-3.18,18.55-4.49,24-13.12,5.2-8.28,2-18.31-6.14-23.15-13.28-7.85-44.68-7.34-46.34,12.66-.35,4.16,3.72,7.34,7.5,7.5l2.84.11c9.66.41,9.64-14.59,0-15l-2.84-.11,7.5,7.5c-.08.95-.87.73,0,.39s1.6-.89,2.5-1.22a23.7,23.7,0,0,1,6.37-1.09c4.46-.29,9.93-.28,14.05,1.74,7.83,3.83-11,8.46-13.39,9.33a7.54,7.54,0,0,0,2,14.73c6.81.57,17.71,2.51,22.85,7.56,1.53,1.49,1.14.11.4,1.7s-2.94,2.91-4.31,3.82a27,27,0,0,1-9.79,4c-3.37.66-6.52-.29-9.76,0q-2.44-1.12-.2,1.12c0-1.14,0-2.28,0-3.43,0-1.93,0-3.86,0-5.79l0-28.94c0-9.65-15-9.67-15,0Z"/><path class="cls-1" d="M396.93,225.85,396.82,244c0,5.3-.25,10.87,1.21,16,2.94,10.35,13.52,16.89,24,17.18,10,.28,17.95-7,21.93-15.67,4.87-10.62,4.71-22.41,2.5-33.67-1.86-9.46-16.32-5.46-14.47,4,1.35,6.86,1.68,14.26-.62,21-1.67,4.87-4.95,10.3-10.77,9.14-6.74-1.35-8.63-5.38-8.8-11.85-.22-8.07.06-16.19.11-24.26.06-9.66-14.94-9.67-15,0Z"/><path class="cls-1" d="M490.62,217.55c-21.59-6.29-46.13,11.77-38.95,35.24,3.19,10.42,11.84,18.14,22.88,18.87,12,.79,22.85-7.09,29.11-16.77,5.25-8.14-7.73-15.66-13-7.58-5.89,9.12-21.69,14.59-24.89.31-2.71-12.11,10.65-18.57,20.82-15.61,9.29,2.71,13.25-11.76,4-14.46Z"/><path class="cls-1" d="M505.62,220a192,192,0,0,0-.42,63.54c.59,3.67,4.9,5.82,8.23,5.37,3.93-.53,6.1-3.59,6.5-7.36l.71-6.72c.43-4-3.75-7.5-7.5-7.5-4.41,0-7.07,3.46-7.5,7.5l-.71,6.72,14.74-2a169.35,169.35,0,0,1,.42-55.57c1.64-9.44-12.81-13.49-14.47-4Z"/><path class="cls-1" d="M501.14,257.22q13.08-2.12,26.25-3.56c6.85-.74,18.33-.66,17.73-10.6-.57-9.6-15.57-9.66-15,0l.06.87,2.19-5.3c1.14-1.31-1-.38-2.15-.27-1.57.16-3.15.33-4.72.51q-4.72.52-9.43,1.14-9.48,1.23-18.92,2.75c-4,.65-6.24,5.63-5.24,9.23,1.19,4.25,5.2,5.89,9.23,5.23Z"/><path class="cls-1" d="M536.79,219.9A196.93,196.93,0,0,0,534.26,260c.24,5.44-.27,13.29,2.45,18.18,3.15,5.69,9.6,7.06,14.52,2.79,7.29-6.34-3.35-16.91-10.61-10.6l-.6.52,7.3-1.93q3.73,5,2.62.58c-.09-.95-.18-1.91-.25-2.86q-.24-2.87-.38-5.73-.33-6.21-.21-12.43a174.17,174.17,0,0,1,2.15-24.67c.65-4-1-8-5.23-9.23-3.57-1-8.59,1.25-9.23,5.24Z"/><path class="cls-1" d="M624.44,221.46a54.61,54.61,0,0,0-50.9-1.59c-14.93,7.26-25.89,26.74-14,41.59,10.32,12.86,29.76,10.06,42.56,3a54,54,0,0,0,26.73-37.29c1.62-9.36-11.72-13.43-14.47-4-3.13,10.74-8.24,22.53-8.12,33.85a26.34,26.34,0,0,0,14.28,23.2c17.75,9.18,37.76-2.72,42.49-21.12,2.41-9.36-12-13.35-14.46-4-2.51,9.76-13.41,17.84-22.81,10.76-5-3.77-5-9.39-3.69-15.07,1.83-8,4.49-15.8,6.78-23.64l-14.47-4a39.72,39.72,0,0,1-15.59,25.65c-6.39,4.65-19.08,10.41-26.45,4.45-8.92-7.21,3-18,9.68-20.85a39.32,39.32,0,0,1,34.83,2c8.37,4.85,15.93-8.11,7.57-12.95Z"/><path class="cls-1" d="M232.77,111.41l5.1,25.84c1.2,6.05,9.15,3.74,9.82-1.33.7-5.24-.4-10.36-.36-15.6,0-6.26,3.41-9.42,9.46-10.63,5.63-1.13,11.52,1.53,13.32,7.3s0,12.86,1.05,19c.93,5.58,10,4.24,9.82-1.33-.22-6.65-1-22.76,9.62-21.8,3.4.31,4.39,2.66,4.25,5.44a68.71,68.71,0,0,1-2.69,16.43c-1.85,6.17,7.8,8.81,9.65,2.66,3.42-11.4,7.6-32.59-9.85-34.44a18.47,18.47,0,0,0-17.4,8.81c-3.85,6.63-3.83,15.48-3.58,22.9l9.82-1.33c-1.45-8.72,1.56-17.18-4-25a21.16,21.16,0,0,0-21.08-8.6C248.15,101,241,105,238.42,112.67s.3,15.53-.73,23.25l9.82-1.33-5.09-25.84c-1.25-6.31-10.89-3.64-9.65,2.66Z"/><path class="cls-1" d="M190.88,90.62l-7.94-12.43c-1.73-2.71-6.06-.2-4.32,2.52l7.94,12.43c1.73,2.7,6.06.2,4.32-2.52Z"/><path class="cls-1" d="M173,102A44.08,44.08,0,0,0,156.09,93c-3.11-.85-4.43,4-1.33,4.82a38.14,38.14,0,0,1,14.7,7.65c2.45,2.06,6-1.46,3.54-3.53Z"/><path class="cls-1" d="M164.85,113.88h-25c-3.22,0-3.22,5,0,5h25c3.21,0,3.22-5,0-5Z"/><path class="cls-1" d="M515.25,116.37l0-9.34c0-1.65-.79-6.71.1-8.06l-2.16,1.23-.92-.43-.64-2.43-.08.4c-.6,3.14,4.22,4.49,4.82,1.33a3.05,3.05,0,0,0-5.75-2c-1,2.08-.39,5.55-.38,7.81l.06,11.49c0,3.22,5,3.23,5,0Z"/><path class="cls-1" d="M535.62,121.62c5.6-5.89,10.91-12.05,16.51-18,2.21-2.33-1.32-5.87-3.54-3.53-5.6,5.89-10.91,12-16.5,18-2.22,2.33,1.31,5.87,3.53,3.53Z"/><path class="cls-1" d="M554,125q13.13-3.6,25.87-8.39c3-1.12,1.69-6-1.33-4.82q-12.75,4.78-25.87,8.39c-3.1.85-1.79,5.67,1.33,4.82Z"/><path class="cls-1" d="M422.82,322a66.29,66.29,0,0,0,16.54,12.73l2.52-4.32-3.47-1.57c-2.91-1.31-5.45,3-2.52,4.32l3.47,1.57c2.87,1.3,5.41-2.75,2.52-4.32a62.18,62.18,0,0,1-15.53-11.94c-2.21-2.35-5.74,1.19-3.53,3.53Z"/><path class="cls-1" d="M389.34,320.27l2.1,7.58c.56,2,.88,4.83,2,6.67,1.77,2.94,5.62,1.85,6-1.39s-4.65-3.16-5,0l0,.39,1.24-2.16.45-.12,1.77.73a7.88,7.88,0,0,1-.65-2.21L396.11,326l-1.94-7c-.86-3.1-5.69-1.78-4.83,1.33Z"/><path class="cls-1" d="M367.85,319.69l-18.87,11c-2.78,1.62-.27,5.94,2.52,4.32l18.87-11c2.78-1.62.27-5.94-2.52-4.32Z"/></svg>