<svg id="Layer_1" data-name="Layer 1" xmlns="http://www.w3.org/2000/svg" viewBox="0 0 820.75 406.82"><defs><style>.cls-1{fill:#231f20;}</style></defs><title>makeyouown</title><path class="cls-1" d="M193.76,111.23a213.85,213.85,0,0,1,.34,26.43c-.37,7.21-3.23,16.76,1.32,23.15,8.17,11.46,29.51,9.42,35.22-3.29,2.62-5.82-6-10.91-8.63-5-2.32,5.16-7.49,6.54-12.78,5.33-2.38-.54-5.4-1.41-6.21-4-.66-2.11.27-5.57.46-7.66a210.85,210.85,0,0,0,.28-34.91c-.46-6.38-10.46-6.43-10,0Z"/><path class="cls-1" d="M169.77,138.17c11.66.08,23.32-.18,35-.85,10.26-.59,22.66.06,32.12-4.34,5.83-2.71.75-11.33-5.05-8.63-4.53,2.1-10.54,1.79-15.44,2.18q-7.76.61-15.51,1-15.54.76-31.09.64c-6.44,0-6.44,10,0,10Z"/><path class="cls-1" d="M233.23,131.8A113.34,113.34,0,0,0,234.28,151c.58,4.14.67,11.75,4.16,14.68a5.18,5.18,0,0,0,6.06.79l.43-.25a5.09,5.09,0,0,0,2.29-5.64l-.11-.39c-1.8-6.16-11.46-3.54-9.64,2.66l.11.38,2.3-5.64-.43.24,6.06.78c.87,1.94,1,1.78.24-.46-.28-1.21-.55-2.42-.79-3.64q-.79-3.9-1.23-7.86a107.08,107.08,0,0,1-.5-14.87c.2-6.44-9.8-6.43-10,0Z"/><path class="cls-1" d="M248.18,116.71v-.08l-.69,2.53,0-.06-.78,1,0,0-1,.78.07,0-1.2.5h.08l-1.33.18a.38.38,0,0,1,.15,0l-1.33-.18.08,0-1.2-.51.06,0-1-.78,0,0-1.28-2.21,0,.06-.18-1.33v.08a5,5,0,0,0,1.46,3.54,5,5,0,0,0,7.07,0,5.58,5.58,0,0,0,1.47-3.54,5.19,5.19,0,0,0-1.53-3.72,5.4,5.4,0,0,0-3.75-1.54,5.33,5.33,0,0,0-3.74,1.52,5.14,5.14,0,0,0-.08,7.26,5,5,0,0,0,7.07,0,5.24,5.24,0,0,0,1.47-3.54Z"/><path class="cls-1" d="M253,135.25l5.89,25.4c1.46,6.29,10.95,3.61,9.65-2.66-1-5-4.67-9.21-1.85-14.23,2.73-4.87,8.35-6.82,13.44-8.17,1.94-.51,5.27-2,7.22-1.5,1.64.44,1.48,2,1.68,3.67.77,6.51,1,13.14,1.47,19.67l9.31-2.52c-5.4-9.71,4-19.67,13.67-20.6s5.76,15.25,6.64,21.05c3.12,20.72,29,15.79,40.62,5.75,6.24-5.39,11-13.58,11.53-21.93.47-8-5-16-13.85-13.6-7.94,2.18-12,10.93-11.44,18.62.64,8.91,6.62,16,14.65,19.5,19.29,8.39,42.36-2.49,51.75-20.38,3-5.69-5.64-10.75-8.64-5-6.74,12.86-22.48,21.8-37,17.1-6.42-2.08-12.3-7.81-10.55-15.11.48-2,3.59-7.27,5.05-3.67,1.11,2.76-1.1,7.49-2.37,9.84a26.14,26.14,0,0,1-15.49,12.63c-3,.88-7.12,1.52-10.19.43-4-1.41-4.39-5.21-4.42-9-.06-6.34.92-12.92-2.22-18.78-3.24-6-9.49-8.23-16.05-7.25-16.47,2.46-29.11,19.63-20.3,35.45,2.32,4.16,9.69,2.51,9.32-2.53l-1.18-15.73c-.29-3.81-.21-8.1-2-11.6-3.89-7.75-12.06-6.12-19-4.36-7.74,2-15.51,5.3-19.89,12.34a18.89,18.89,0,0,0-2.95,10.58c.16,4.27,2.57,7.89,3.42,12l9.65-2.66-5.9-25.4c-1.45-6.27-11.1-3.62-9.64,2.66Z"/><path class="cls-1" d="M464.29,115.37c-.33,10.48-.74,21-1,31.45-.19,7.72.71,15.28,7.19,20.37C483,177,499.05,168.57,504,155c2.19-6.07-7.47-8.68-9.64-2.66-1.56,4.3-5.16,8.3-9.88,9A9.52,9.52,0,0,1,473.52,154c-1.16-5.66-.06-12.24.12-18l.65-20.64c.21-6.44-9.79-6.43-10,0Z"/><path class="cls-1" d="M435.52,139.59a287.27,287.27,0,0,0,56.78-5.86c6.3-1.28,3.63-10.93-2.66-9.64a274,274,0,0,1-54.12,5.5c-6.43,0-6.44,10,0,10Z"/><path class="cls-1" d="M524.64,124.14c-11.77,1.89-18.2,15-18.45,26-.27,11.87,14.92,18.11,24.9,16.82,10.6-1.38,19.32-10.77,19.23-21.62a20,20,0,0,0-20.89-19.48c-6.4.38-6.44,10.38,0,10,5.79-.35,11.21,4.06,10.89,10.17-.29,5.66-5.08,10.35-10.57,11.05s-14.47-2.33-13.22-9.05c1.18-6.37,3.63-13.07,10.77-14.22,6.33-1,3.64-10.65-2.66-9.64Z"/><path class="cls-1" d="M230.56,181.41c-6.92,1.59-15.24,2.33-21.43,6.08-5.59,3.38-7,9.06-7.58,15.16-.79,8.5-1.05,17.08-1.06,25.62,0,4.6,0,9.22.29,13.81.15,3.12.29,5.91,2.71,8.19a5.06,5.06,0,0,0,7.85-1l2-3.32c3.37-5.5-5.27-10.53-8.63-5l-2,3.31,7.86-1c.33,1.18.42,1.14.26-.13,0-.66-.06-1.32-.08-2-.07-1.65-.12-3.29-.16-4.93q-.12-4.93-.08-9.87.06-9.37.69-18.73c.34-5.21-.18-10.51,5.46-12.57,5.26-1.91,11.13-2.7,16.57-3.95,6.27-1.44,3.62-11.09-2.66-9.64Z"/><path class="cls-1" d="M224.19,210.54a386.48,386.48,0,0,1-50.72,4.65c-6.42.18-6.45,10.18,0,10a404.7,404.7,0,0,0,53.38-5c6.34-1,3.65-10.65-2.66-9.64Z"/><path class="cls-1" d="M246.71,225.59c5.93-1.35,14.18-3.71,16.72-9.91,2.34-5.73-1.53-11.18-6.75-13.44-12.58-5.45-26.47,5.32-26.85,18.32-.38,13.56,12.45,22.65,24.86,23.43,12.87.8,27.92-5.29,33.82-17.3,2.83-5.75-5.8-10.83-8.64-5.05-5.77,11.77-26.35,17.39-36.22,7.64-4.81-4.76-5.43-12.94.93-16.85.61-.38,9.69-3.1,9.44-.23-.15,1.7-8.82,3.49-10,3.75-6.27,1.43-3.61,11.07,2.66,9.64Z"/><path class="cls-1" d="M275.22,204.39a165,165,0,0,0-.76,35,5,5,0,0,0,9.82,1.32c1.44-4,.89-7.83,1-12,.08-5.29,3.29-7.38,7.56-9.87A58.23,58.23,0,0,1,320,211.07l-2.52-9.32-.85.56c-6.09,2-3.48,11.66,2.66,9.65a10.1,10.1,0,0,0,3.23-1.57c3.62-2.72,2.93-9.53-2.52-9.32a68.51,68.51,0,0,0-33.76,10c-4.09,2.54-8.18,5.62-9.93,10.28-2,5.45.22,11.29-1.7,16.66l9.82,1.33a165,165,0,0,1,.76-35c.81-6.37-9.19-6.31-10,0Z"/><path class="cls-1" d="M322.73,209.88l.15,24.3,9.82-1.33a19.23,19.23,0,0,1,9.75-21.06c3.42-1.72,9.22-2.89,11.16,1.41,2.34,5.18,1.57,13.14.77,18.56l8.36-2.21c-6.71-7.8,5.58-15.27,11.72-16.93,1.12-.3,4.07-1.46,5.08-.75,1.21.84,1.35,5.27,1.45,6.43.35,4,.28,8.12,1.18,12.07,4.06,17.75,25.62,17.6,37.54,8,5.87-4.7,10.63-12,10.72-19.78.08-6.62-3.43-13.93-10.53-15-8.35-1.31-14.84,6.55-15.35,14.28-.5,7.45,3.48,14.77,9.41,19.14,8.1,6,18.81,5.82,28.26,4,7.62-1.5,18.55-5.64,17.39-15.31-.75-6.31-10.76-6.38-10,0,.64,5.33-12.7,6.27-16.14,6.44-6.43.31-13.47-1.07-17.09-6.93-1.4-2.27-2.38-5.15-1.7-7.83.62-2.48,3.11-5.35,5-2.57,3.24,4.81-2,12.14-5.39,15.19-4.29,3.83-10.78,6.35-16.52,4.64-6.9-2.07-6.28-9.76-6.71-15.58-.4-5.52-1.26-13.18-6.61-16.28-5-2.9-12.75-.06-17.61,1.93-12.52,5.14-21.29,20.17-11.16,31.94,2.29,2.66,7.82,1.46,8.36-2.21,1.22-8.34,2.23-19.45-2.18-27.09-3.91-6.78-12.58-8.22-19.61-6.16-14.37,4.19-22.5,20.17-19.18,34.35,1.29,5.53,9.85,4.28,9.82-1.33l-.15-24.3c0-6.43-10-6.44-10,0Z"/><path class="cls-1" d="M449.58,209.89l2.85,29.61c.5,5.21,8.54,7.25,9.82,1.32.94-4.33-.41-7.3-1.45-11.42s.37-7.78,3.55-10.62c3.45-3.09,8.17-4.3,12.61-5.09,1.37-.24,5.33-1.43,6.64-.68,1.91,1.08,1.14,5,.95,6.74-.74,6.95-5.82,18.45-1.35,24.91,4.78,6.91,14.87-.2,10.42-7.31-3.41-5.44-12.07-.42-8.64,5.05l.62,1-.5-3.85-.27,1.13,2.3-3-1,.52,3.85-.5-1.1-.38,3,2.3c-.76-1.34.19-5.12.42-6.54.37-2.3.91-4.56,1.33-6.85.85-4.5,1.59-9.18.79-13.75-1.7-9.69-10.41-9.92-18.39-8.69-8.17,1.26-16.33,4.23-21.45,11.06a20.3,20.3,0,0,0-4.17,10.91,18.29,18.29,0,0,0,.59,5.56c.54,2.12,2.14,4.62,1.66,6.86l9.82,1.33-2.85-29.61c-.61-6.35-10.62-6.41-10,0Z"/><path class="cls-1" d="M513.45,196.16c3.91,17-9.83,38.34,2.28,53.83,5.08,6.49,15.21,4.35,21.91,1.85,8.21-3.05,15.19-8.32,22-13.72,5-4-2.08-11-7.07-7.07-5.38,4.27-11.11,8.65-17.58,11.15-2.82,1.09-6.79,2.56-9.85,2-3.22-.59-3.75-5.46-4.07-8.42-1.55-14.32,5.34-27.86,2-42.28-1.44-6.27-11.08-3.62-9.64,2.66Z"/><path class="cls-1" d="M489,223.45q32.61-1.86,65.1-5.5l-1.33-9.82-1.42.35c-6.24,1.58-3.6,11.22,2.66,9.65l1.42-.36c5.31-1.34,4.38-10.46-1.33-9.82q-32.48,3.65-65.1,5.5c-6.4.36-6.44,10.37,0,10Z"/><path class="cls-1" d="M579.12,109.18l-.06-9.34c0-1.65-.79-6.71.1-8.06L577,93l-.92-.43-.64-2.43-.07.4c-.6,3.14,4.21,4.49,4.82,1.33a3.05,3.05,0,0,0-5.75-2c-1,2.08-.4,5.55-.39,7.81l.07,11.49c0,3.22,5,3.23,5,0Z"/><path class="cls-1" d="M599.49,114.43c5.59-5.89,10.9-12.05,16.5-18,2.21-2.33-1.31-5.87-3.54-3.53-5.59,5.89-10.9,12-16.5,18-2.21,2.33,1.32,5.87,3.54,3.53Z"/><path class="cls-1" d="M617.89,117.82q13.14-3.6,25.87-8.39c3-1.12,1.69-6-1.33-4.82Q629.7,109.4,616.56,113c-3.1.85-1.78,5.67,1.33,4.82Z"/><path class="cls-1" d="M188.33,69.2a177.3,177.3,0,0,1,13.67,21c1.56,2.81,5.88.29,4.32-2.53a179.27,179.27,0,0,0-13.67-21c-1.92-2.54-6.26-.05-4.32,2.52Z"/><path class="cls-1" d="M139.15,84.17,164,99.46c2.75,1.69,5.26-2.63,2.52-4.31l-24.84-15.3c-2.75-1.69-5.26,2.63-2.52,4.32Z"/><path class="cls-1" d="M114.24,100.77l34.65,14.4c3,1.23,4.26-3.6,1.33-4.82L115.57,96c-3-1.23-4.27,3.6-1.33,4.82Z"/><path class="cls-1" d="M383.22,270.21a83.18,83.18,0,0,1-10.11,16.87c-2,2.55,2.38,5,4.32,2.52a83.37,83.37,0,0,0,10.11-16.87c1.31-2.91-3-5.46-4.32-2.52Z"/><path class="cls-1" d="M425.07,275.18l-.22,13.29c-.06,3.21,4.94,3.21,5,0l.22-13.29c.05-3.22-4.95-3.22-5,0Z"/><path class="cls-1" d="M461.35,277l14.45,16.1c2.16,2.4,5.69-1.15,3.54-3.54l-14.46-16.1c-2.15-2.39-5.68,1.15-3.53,3.54Z"/></svg>