<svg id="Layer_1" data-name="Layer 1" xmlns="http://www.w3.org/2000/svg" viewBox="0 0 302.47 255.79"><defs><style>.cls-1{fill:#231f20;}.cls-2{fill:#666766;}.cls-3{fill:#e5e5e5;}</style></defs><title>makeyouown</title><path class="cls-1" d="M142.68,142.19,75,198.6c-21.78,18.15-43.32,36.7-66.69,52.81-.51.35,2,.09,2.6-.29C34.28,235,55.83,216.46,77.6,198.31l67.69-56.41c.52-.44-2.09-.14-2.61.29Z"/><path class="cls-2" d="M131.6,143.93c-6.49-8.12-11.3-23-8-31,2.43-5.88,7.74-10,12.74-13.93,28.37-22.3,53.21-47.48,78.15-73.55,7.44-7.77,28.89-20.12,32.68-17.78C268.92,21.16,298,50.62,296.56,55.44,294,64.36,294,63.56,286.33,71.17c-18.13,18-77.87,67.64-92,77.13-11.55,7.77-20.41,17.81-34.94,15s-38.26-28.41-36.68-43.12"/><path class="cls-1" d="M132.94,143.33c-5.43-7.09-9.67-17.12-8.89-26.23.93-10.77,13.16-17.41,20.7-23.6A659.12,659.12,0,0,0,195,47.11c13.46-13.61,25.32-28,43-36.29,2.19-1,5.56-3,8.06-2.37,3.33.84,7.5,5,10.22,7a228.55,228.55,0,0,1,20.6,17.6A139.89,139.89,0,0,1,291.55,49c1.14,1.49,2.9,3.41,3.34,5.29.58,2.5-1,6-2.14,8.19-2.7,5.09-8.29,9.2-12.48,13.13-4.48,4.19-9.06,8.27-13.67,12.33C245,106.89,223,125.63,200,143c-5.17,3.92-10.51,7.61-15.75,11.45-9.17,6.73-19.37,11.33-30.32,5.66-7.85-4.06-14.59-10.56-20-17.44-4.92-6.21-10.32-14.32-9.7-22.63.09-1.29-2.83-.77-2.91.32-.54,7.23,3.28,14.18,7.28,19.94a73.69,73.69,0,0,0,17.87,18.1c6.09,4.28,12.78,7,20.35,6.13,9.37-1,16.8-7.25,24.12-12.63C215.28,134,238.61,114.8,261.5,95c10.69-9.24,22-18.45,31.48-29,2.84-3.17,6.28-9.19,4.42-13.41-2.38-5.4-7.5-10.14-11.51-14.32A232,232,0,0,0,264.76,18.9c-3.45-2.81-7-5.53-10.63-8.08-2.31-1.61-4.91-4.13-7.84-4.3-5.74-.35-12.5,4.24-17.19,7a89.92,89.92,0,0,0-19.69,15.69C188.92,50.55,168,71.58,145.26,90.53c-8,6.69-22.17,14.26-24,25.73-1.53,9.69,3.2,20.71,9,28.26.67.87,3.46-.17,2.68-1.19Z"/><path class="cls-3" d="M270.55,70.14l-92,80.63c-.08.07-.21.07-1.28-1l-35.78-40.83c.93.91.94.79,1,.71l92-80.63a.2.2,0,0,1,.28,0l35.78,40.84A.2.2,0,0,1,270.55,70.14Z"/><path class="cls-1" d="M269.41,70l-55,48.16-31.31,27.44c-.33.29-5.86,4.71-5.72,5h0c-.54.47.13.26,2-.62l-.79-.77c0-.08-.15-.13-.19-.21a7.91,7.91,0,0,0-1.27-1.45l-5.4-6.16-28.92-33-2.7,1.08c2.14,2,3.8.09,5.48-1.38l10.76-9.43L193,66.53l34.6-30.32,5-4.39c.55-.48,2.47-1.63,2.68-2.35,0-.06.24-.15.24-.21s.07-.05.07-.06h0c.57-.5-.15-.37-2.18.39,0,.14.88,1,.94,1.07,1.07,2,3.39,3.87,4.89,5.57l18.77,21.43,7.81,8.92c.58.66,3.29,3.12,3.25,3.78-.07,1,2.83.43,2.88-.42s-1.09-1.78-1.68-2.45l-5.79-6.61-16.9-19.29L240.12,33c-1.06-1.2-2.38-3.52-3.78-4.32-1.88-1.06-3.22.36-4.6,1.56L165,88.76l-16.69,14.61c-1.88,1.65-5.17,5.12-6.78,6l2.23-.2a2.83,2.83,0,0,1-.93-.76c-.61-.58-3.36.32-2.7,1.08l26.11,29.8c3.16,3.6,6.14,7.76,9.65,11,2.26,2.1,3.64.81,5.53-.85L248.06,91l23.63-20.71C272.9,69.25,270,69.42,269.41,70Z"/><path class="cls-1" d="M189.9,109.23c-1.8,2-4,4.06-6.57,4.88a3.21,3.21,0,0,1-3.39-.17c-2.18.59-3.09.13-2.71-1.36a5.89,5.89,0,0,1,1-3.25,26.91,26.91,0,0,1,5.12-6.1c.87-.81,2.2-2.35,3.3-2.69,4.87-1.5,4,1.46,3.7,3.71-.67,4.66-2.42,9.35-2.69,14-.12,2.07.49,3.14,2.67,3.13,4.1,0,9.72-5.39,10.68-9.18,2-8.17-8.12-3-11.31-1.9-1.9.68-.18,1.76,1.16,1.28,2.09-.75,8.5-3.84,7.24,1-.48,1.84-3.53,6.06-5.58,6.3-3.2.38-1.23-4.73-.85-6.71.48-2.48,1-5,1.43-7.43.53-2.85.85-5.76-2.62-6.53-2.56-.56-5.06.92-7,2.37-2.85,2.14-13.33,11.46-8,15.58,4.79,3.69,13.68-3.11,16.72-6.39,1.17-1.26-1.64-1.29-2.34-.54Z"/><path class="cls-1" d="M206.27,84.44c-5.88,2.5-12.26,7.61-11.64,14.73.54,6.15,5.92,10.56,12,8.87,5.88-1.62,12.39-8.31,11.61-14.78a8,8,0,0,0-11.69-6.08c-1.73.95-.17,2.43,1.27,1.65,3.16-1.74,6.42,1.13,7.28,3.86A8.79,8.79,0,0,1,214,99.46c-2.28,4-8.38,9.18-13,5.71a9.41,9.41,0,0,1-3.24-9.3c1.1-4.88,5.5-7.94,9.81-9.78,1.83-.78.2-2.28-1.27-1.65Z"/><path class="cls-1" d="M213.12,79.83a3.28,3.28,0,0,1-3.53-2.34c-.4-1.33,0-3.3,1.45-3.89a2.72,2.72,0,0,1,3.27,1.45c.47,1.09,0,3.28-1.38,3.44-1,.12-1.66,1.38-.26,1.22a4.17,4.17,0,0,0,3.86-4.43c-.3-2.43-3-3.34-5.15-2.94a4.67,4.67,0,0,0-4,4.8c.17,2.77,2.92,4.25,5.45,3.91,1-.14,1.66-1.4.26-1.22Z"/><path class="cls-1" d="M219.79,68a109.45,109.45,0,0,0,11.27,11.82c.74.67,3.08.35,2.78-1l-.18-.81c-.29-1.27-3.19-.52-2.9.78l.18.81,2.78-1a109.45,109.45,0,0,1-11.27-11.82c-.8-1-3.56.15-2.66,1.25Z"/><path class="cls-1" d="M222.43,66.13c3.26-2.65,6.42-5.4,9.51-8.24.51-.48-.45-.62-.73-.63a3,3,0,0,0-1.93.73q-4.42,4.09-9.11,7.89c-1.2,1,1.67.73,2.26.25Z"/><path class="cls-1" d="M227.86,72.63q4.13-3.24,7.94-6.84a.84.84,0,0,0-.38-1.39,2,2,0,0,0-2,.55c-2.37,2.24-4.86,4.35-7.43,6.37-1.54,1.21.79,2.19,1.92,1.31Z"/></svg>