<svg id="Layer_1" data-name="Layer 1" xmlns="http://www.w3.org/2000/svg" viewBox="0 0 427.67 494.64"><defs><style>.cls-1,.cls-3{fill:#666766;}.cls-1{opacity:0.6;}.cls-2{fill:#fff;}.cls-4{fill:#f78f41;}.cls-5{fill:#231f20;}</style></defs><title>makeyouown</title><ellipse class="cls-1" cx="345.12" cy="459.7" rx="78.46" ry="22.3"/><ellipse class="cls-1" cx="66.75" cy="467.13" rx="49.05" ry="19.68"/><ellipse class="cls-1" cx="245.83" cy="468.86" rx="78.46" ry="22.3"/><path class="cls-2" d="M329.43,27.79l-3.52,22.28c-1,6.15,1,12.26,7.24,14.75a12.63,12.63,0,0,0,15.61-5.11c6.86-10.54,8.57-22.7,6.44-34.93l-24.11,6.65a115.93,115.93,0,0,1,4.74,44.31c-.72,8.79,0,16.46,4.09,24.39,3,5.79,4.09,11.27,5.18,17.78,2.54,15.09,5,30.2,6.07,45.47.56,7.76.69,15.51.56,23.29-.14,8.48.57,16.57,4.76,24.13,5.24,9.45,20.07,7.25,22.85-3,3-10.9.8-21.14-.35-32.08a54.07,54.07,0,0,1,.4-13.89,55.31,55.31,0,0,0-1-18.58,27.07,27.07,0,0,0-.78-3.43c-.5,0-2.46,11.06.07,1.83a13.26,13.26,0,0,0-1.47-10.36c-3.81-6.23-12.46-8.09-19.15-6.17-6.08,1.73-10.78,6.43-14,11.67-1.11,1.79-1.93,3.74-2.94,5.58a17.91,17.91,0,0,1-1.42,2.39c.51-.65,1.7-1.18-.43-.08l18.36,7.47a39.17,39.17,0,0,1-.76-15.14c1.32-10.67-14.64-16.62-21.34-8.84a170.13,170.13,0,0,1-21.28,20.73l20.89,5.52a22.72,22.72,0,0,1,1-11.37L311,136.42l-10.81,47.49h24.11c.9,5.64.3,1.15.32-.46,0-1.95.14-3.91.26-5.86.28-4.82.68-9.63,1.14-14.43q.36-3.79.78-7.59c.15-1.37.32-2.73.48-4.1.1-.77.54-3.82.05-.45.26-1.82.51-3.64.85-5.45s2-5.89-.24-.95L306.37,132l-3.2,7.08,21.59,12.62c.35-.8.82-1.52,1.19-2.31-1.63,3.4.91-.81-.44.51s.61-.3,1.1-.62c2.35-1.54-1.85.43.82-.43,3.51-1.14,7.1-1.83,10.68-2.73,10.49-2.63,19.36-10.8,15.84-22.6a26.74,26.74,0,0,0-3.18-6.73c-.88-1.35-2.67-3.56-3.1-4.17a4.79,4.79,0,0,1-.83-2.11c.26,1.23-.12-2.54-.16-3.05-.09-1.11-.2-2.21-.34-3.32a30.78,30.78,0,0,0-1.92-8.61c-3.12-7.46-11.81-11.29-19.18-7.08-3.65,2.09-5.95,5.7-7.64,9.42-2.24,4.94-4.08,10-6.06,15.08q-.65,1.65-1.32,3.27c1.13-2.74-.35.75-.67,1.43a39.81,39.81,0,0,1-3.18,5.66L328,135.92c4.58-10.09,7.09-20.34,9-31.22.91-5.32,1.79-10.64,3-15.89,1.42-6,2.86-11.71,1.48-17.9-.87-3.89-2.95-7-2.18-11,.9-4.71,3.66-9.2,5.7-13.47,5-10.44,8.73-21.81,1-32.09l-4.48,17.1A34,34,0,0,0,346,27.71c.61-.65,4.53-5.21,1.35-1.88l-5.52,3.22.54-.13h-6.65l-1-.34L329,14.46c-.83,4.3-.38,8.35,2.39,11.82a12.89,12.89,0,0,0,4,3.61c2.59,1.57.41,1.16-1.75-2.57l-1.26-9.63-.1.49C331,24.8,334.15,31.67,341,33.55c6.13,1.69,14.08-2.07,15.38-8.73.83-4.29.38-8.35-2.39-11.82a13,13,0,0,0-4-3.61c-2.59-1.56-.41-1.16,1.75,2.58L353,21.6l.1-.49c1-5.45-.69-11.24-5.75-14.12-3.79-2.16-7.81-3.21-12.14-2a13.3,13.3,0,0,0-5.92,3.64c-1.3,1.35-4.84,4.63-.42,1.29C324,13.57,320,21.08,324.39,27a13.54,13.54,0,0,1,1.79,2.69,1.35,1.35,0,0,1-.58-1c.84-2.16-1,2.72-.8,2.09-1.7,4.37-4.15,8.47-6,12.77-4.5,10.28-6.16,19.86-2.4,30.69,1.13,3.28.18,4.82-.73,8.79-1.07,4.68-1.87,9.41-2.68,14.13-1.51,8.77-2.88,18-6.59,26.13-2.79,6.14-1.76,13.45,4.49,17.1s13.23,1.07,17.1-4.49c5.48-7.87,8.1-17.75,11.7-26.57-1.38,3.37.92-1.08,1.14-2.07.35-1.55-1.69,1.91-.9,1.14q-15.47,6-18.78-4.27a12.32,12.32,0,0,1,.32,1.23c.53,2.34-.13-2.5.08.29.14,1.76.23,3.54.37,5.3.39,4.68,1.25,9.07,3.61,13.21.52.92,3.79,5.33,3.31,4.65a18.15,18.15,0,0,0,1.36,2.21c.87,1-.25-.79-.3-1.35a8.9,8.9,0,0,1,2.58-7.35c-1.21,1.25,3.08-1.84.43-.49,1.13-.58,2.76-.91.64-.39-1.7.42-3.38.86-5.08,1.24-10,2.26-20.85,6.26-25.27,16.38-2.7,6.19-1.82,13.42,4.48,17.11,5.36,3.13,14.31,1.69,17.11-4.49l3.2-7.08c2.78-6.15,1.76-13.45-4.49-17.11-5.37-3.14-14.29-1.68-17.1,4.49-4.16,9.12-4.27,20.22-5.22,30.06-.91,9.31-2.43,19.18-.94,28.5,2,12.34,21.49,11.48,24.11,0l10.8-47.5c3.57-15.69-19.27-22-24.1-6.64a49.54,49.54,0,0,0-1,24.66c1.93,10.11,14.29,10.91,20.89,5.51a170.13,170.13,0,0,0,21.28-20.73L330.81,137a57.8,57.8,0,0,0,1.66,21.78c2.12,8.15,11.34,11.11,18.36,7.47,4.75-2.45,8.27-6.64,10.81-11.27.9-1.64,1.62-3.37,2.57-5,.43-.72,1-1.18,1.05-1.48.81-.72.63-.69-.55.09q-2.47,1.85-5.63-.24l-4.49-4.48.28.45-1.26-9.63c1.17-4.58-.43,1.23-.67,2.19a15.75,15.75,0,0,0-.34,4.54c.14,3.49,1.51,6.8,2,10.24.83,5.86-.86,10.61-1,16.57-.27,10.84,4.45,22.5,1.63,32.89l22.85-3c-2.62-4.73-1.28-11.7-1.26-17.13,0-7.86-.41-15.72-1.13-23.55-1.49-16.15-4.11-32.19-6.8-48.18a64,64,0,0,0-6.64-20.45c-2.89-5.39-1.41-11.45-1.08-17.83a135,135,0,0,0-6-46.26,12.75,12.75,0,0,0-15.38-8.73c-7,1.93-9.89,8.7-8.73,15.38,1,5.52-.82,10.89-3.92,15.66L350,56.72l3.52-22.28c1-6.66-1.71-13.45-8.73-15.38-5.94-1.63-14.32,2-15.38,8.73Z"/><path class="cls-2" d="M374.42,208.26c4.4,5,12.92,6.18,16.27,11.83l5.64-7.34-10.44-3.43c-5.32-1.74-9,6.64-3.86,9.14,6.42,3.13,12.64,7.21,14,14.69l8.36-4.87a74.51,74.51,0,0,0-7.26-7.81c-4.77-4.29-11.55,2.39-7.07,7.07,13.21,13.84,10,33.26,9.72,50.81h10l0-10.85L400,268.83c1.5,5.91.17,12.28.77,18.33.22,2.19.47,4.36.5,6.56,0,3-.06,5.93-.11,8.9-.18,10.94-.42,21.88-.65,32.82-.58,27.33-1.21,54.65-1.54,82-.09,7.42-.87,15.35.1,22.74.82,6.29,10.83,6.38,10,0-.81-6.16-.2-12.73-.14-18.92.13-12.76.36-25.51.61-38.27.5-26.18,1.13-52.37,1.59-78.56.06-3.47.17-7,.13-10.43,0-2.29-.26-4.53-.49-6.82-.71-7,.63-14.06-1.13-21-1.39-5.5-9.8-4.3-9.82,1.33l0,10.85c0,6.44,9.88,6.43,10,0,.2-10.93,1.28-22.26-.3-33.11a45.18,45.18,0,0,0-12.35-24.77l-7.07,7.07a74.51,74.51,0,0,1,7.26,7.81c3.49,4.21,9.18-.46,8.36-4.86-1.85-9.89-10-16.47-18.63-20.66L383.23,219l10.44,3.42c4.21,1.38,7.8-3.71,5.65-7.34-4.25-7.18-12.67-8-17.83-13.86-4.25-4.85-11.3,2.25-7.07,7.07Z"/><path class="cls-3" d="M324.09,9.25a21.34,21.34,0,0,0,1.42,8.65,2.55,2.55,0,0,0,3.07,1.75c7.44-1.94,16.31-1.27,23.91-.6,2.62.23,3.21-3.43,1.27-4.66.63.4,1.82-4,1.47-4.93-.64-1.64-2.36-2.23-4-2.2-1.16,0-4.17.89-4.05,2.55s1.64,1.48,2-.09a3.94,3.94,0,0,0-.59-2.66,2.42,2.42,0,0,0-2.15-1.24c-4,.21-6.26,3.84-6.24,7.56l2.5-2.5c.53.93.78,1,.74.14a3.8,3.8,0,0,0,0-1.71,4.2,4.2,0,0,0-.54-1.52A3.48,3.48,0,0,0,339.36,6a4.25,4.25,0,0,0-2.91,1.79,4.14,4.14,0,0,0-.8,2.11c0,1.75,1.32,2.78,2.35.92,1.34-2.44-1.28-6-3.88-5.81a4.32,4.32,0,0,0-2.94,1.7c-.88,1-.93,4.87-1.45,5.26h2.52c-.32-.22-.48-3.52-.52-3.82l-2.5,2.5h.82c3.22,0,3.23-5,0-5h-.82a2.51,2.51,0,0,0-2.5,2.5c.41,3.17.18,6.23,3,8.13a2.41,2.41,0,0,0,2.52,0,4.55,4.55,0,0,0,2.28-3.31c.68-3-1.92-3.7-1.9-.69,0,2.35,1.81,4.8,4.38,4.46a4.18,4.18,0,0,0,2.68-1.75,4.92,4.92,0,0,0,.7-1.94c.05-.62-.3-3.53-1.89-2.55-.91.57.17,3.34.67,4a3.28,3.28,0,0,0,3.52,1.42,2.57,2.57,0,0,0,2.5-2.5l1.24-2.56-2.16-1.23c-.25-.56-1,2.06-1,2.32a4.3,4.3,0,0,0,.9,2.67,3.91,3.91,0,0,0,5.22.88c.75-.42,1.91-1.32,2-2.27.15-2.3-1.58-1.81-2.33-.09-1,2.27.33,4.44,2.17,5.61l1.26-4.66c-8.11-.72-17.29-1.29-25.24.78l3.08,1.74a17.91,17.91,0,0,1-1.24-7.32c.11-3.22-4.89-3.22-5,0Z"/><path class="cls-2" d="M299.91,203.22l-.64-.19V196a21.44,21.44,0,0,0-3.74,4.43c-1.34,2-.55,4.35.78,6.06l1.27,1.63,1-7.85c-7.42,4.82-12.8,13.29-17.71,20.51-5.54,8.13-9.78,17.1-11.31,26.89-1.59,10.23,1,20.05.43,30.22-.51,8.4-4.72,16.1,1.5,23.42,3,3.52,8.32.45,8.53-3.54l.82-15.53c.33-6.47-9.5-6.36-10,0q-1.5,18.81-3,37.62c-.43,5.47-.37,10.29,1.61,15.47,2.22,5.83,3.14,10.51.94,16.56l9.83,1.33a114.76,114.76,0,0,1,.83-12.71c.78-6.39-9.2-6.29-10,0a213.89,213.89,0,0,0-1.36,33.85c.36,11.5,0,23-.21,34.5-.14,10.16.07,20.32.07,30.48,0,6.73,1.93,13.56,9.79,13.89,3.77.15,6.27-4.38,4.32-7.53A26.86,26.86,0,0,1,280,436l-9.13,3.85q6.25,9,12.82,17.71l5.64-7.35a145.22,145.22,0,0,1-15.28-6.74c-5.76-2.94-10.37,5-5,8.64,10.69,7.25,22.13,13.6,34.55,17.37,13.06,4,26.76,4.14,40.3,4.22,13,.08,26.41-.35,38.64-5.18a55.74,55.74,0,0,0,26.54-22.08c3.52-5.49-5-10.21-8.63-5.05l-8.2,11.55c-1,1.44-2.27,4.06-4,4.75s-4.54-.43-6.33-1c-6.16-1.9-8.8,7.75-2.66,9.64,5.92,1.82,12.14,2.46,16.93-2.21,5.08-4.94,8.84-11.95,12.92-17.7l-8.63-5.05c-13.44,21-37.34,22.52-60,22.28-11.85-.13-23.59-.5-35-4.09s-21.59-9.5-31.35-16.11l-5,8.64a167.11,167.11,0,0,0,17.67,7.75c3.89,1.45,8.23-3.91,5.64-7.35q-6.56-8.75-12.82-17.7a5,5,0,0,0-9.14,3.85A34.28,34.28,0,0,0,275,450.71l4.32-7.52c.66.78.82.83.5.15a5.54,5.54,0,0,1-.25-1.57,33,33,0,0,1,0-3.85c0-3.84-.09-7.67-.11-11.5-.07-9.71,0-19.4.23-29.1.36-19-1-37.93,1.36-56.85h-10a114.76,114.76,0,0,0-.83,12.71c-.07,5.89,8,6.45,9.82,1.33A28.69,28.69,0,0,0,281.28,339c-.57-2.83-1.9-5.3-2.81-8-1.06-3.13-1-6.14-.75-9.4.92-13.14,2.08-26.28,3.13-39.41h-10L270,297.73l8.54-3.53c-1.88-2.22-.06-6.59.45-9.11a47.54,47.54,0,0,0,1-11.84c-.37-8.31-2-16.35-.48-24.66,1.41-7.8,4.74-14.81,9.07-21.4,4-6.15,8.81-14.26,15.07-18.33,2.95-1.92,3-5.25,1-7.85l-1.27-1.63.78,6.06a8.23,8.23,0,0,1,2.18-2.41c2.13-1.89,1.68-5.12,0-7.07a8.12,8.12,0,0,0-3.77-2.38c-6-2.29-8.63,7.38-2.66,9.64Z"/><path d="M325.6,20.3c1-3.82-.46-9.73-1.17-13.5L323.21,9a82.35,82.35,0,0,1,31.33-.06l-1.22-2.15c-.85,4.4-.62,8.87-1.25,13.29l2.15-1.22A99.44,99.44,0,0,0,324,18.16c-2.2.28-2.23,3.79,0,3.5a96.23,96.23,0,0,1,29.34.52c.84.15,2-.21,2.15-1.22.63-4.42.41-8.91,1.26-13.29a1.78,1.78,0,0,0-1.23-2.15,87.4,87.4,0,0,0-33.19.06,1.78,1.78,0,0,0-1.22,2.15c.58,3.1,2,8.53,1.16,11.64-.56,2.18,2.81,3.11,3.38.93Z"/><path d="M320.69,20.83c.45,5.37.76,10.61-1.11,15.77-1.72,4.76-3.43,9.19-4.2,14.24-1.42,9.28-.84,18.65-.18,28,.23,3.19,5.23,3.21,5,0-.71-10-1.49-20.22.62-30.07,1-4.65,3.22-8.82,4.4-13.38,1.23-4.76.88-9.69.47-14.53-.27-3.18-5.27-3.21-5,0Z"/><path d="M353.44,20.52a85.43,85.43,0,0,0,1,12.68c.8,4.76,2.85,9,3.94,13.68,2.41,10.26.64,22.1.42,32.56-.07,3.21,4.93,3.21,5,0,.22-10.11,1.45-20.81,0-30.84-.64-4.37-2.53-8.29-3.64-12.53a66.05,66.05,0,0,1-1.69-15.55c-.06-3.21-5.06-3.22-5,0Z"/><path d="M316.34,80.19c-4.94,8.7-4.88,19.24-7.23,28.79-1.94,7.85-3.85,15.71-5.84,23.55-5.22,20.56-5.58,42.87-6.35,63.93-.11,3.22,4.89,3.22,5,0,.75-20.63,1.06-42.47,6.17-62.61,1.87-7.36,3.67-14.75,5.49-22.13,2.33-9.46,2.22-20.46,7.08-29,1.59-2.8-2.73-5.32-4.32-2.52Z"/><path d="M359.72,82.9c2.52,3.48,3.54,7.94,5,11.95A96.83,96.83,0,0,1,368.4,109c2,9.66,4.19,19.29,5.62,29.05,1.5,10.27,2.12,20.69,3.07,31,.47,5.1.92,10.21,1.44,15.31.42,4.13,2.42,10.24,1.18,14.25-.95,3.08,3.87,4.4,4.82,1.33,1.22-3.94-.26-8.71-.7-12.73-.58-5.4-1.06-10.82-1.56-16.23-1-10.79-1.68-21.67-3.16-32.41s-3.91-21.27-6.07-31.86a96.22,96.22,0,0,0-4.17-14.89c-1.48-3.93-2.33-8-4.83-11.45-1.87-2.58-6.21-.09-4.32,2.52Z"/><path d="M379.35,200.91c4.09,6.16,9.58,11,14.56,16.39A51.4,51.4,0,0,1,406,240.46a68,68,0,0,1,1.73,14.85c.3,13.66.25,27.32.25,41q0,57.27-.58,114.54c-.11,10.92.05,21.89-.48,32.81-.15,3.21,4.85,3.2,5,0,1.33-27.41.69-55,.85-82.47.2-34.66.62-69.35,0-104a84.93,84.93,0,0,0-1.22-14.67,58.32,58.32,0,0,0-10.11-24c-5.38-7.18-12.76-12.59-17.74-20.1-1.78-2.67-6.11-.17-4.32,2.53Z"/><path d="M296.64,195.68c-8.62,11.44-18.8,22.73-25.13,35.66-6.47,13.22-4.27,26.79-4.28,41,0,7.36.3,14.79,0,22.13-.24,5.68-1.07,10.56-.5,16.23a38.49,38.49,0,0,1,.05,5.37c-.1,2.75.41,5.19.55,7.9.13,2.47-.49,4.88-.39,7.37.12,2.72.15,5.42.17,8.15.22,25.2-.77,50.44-1.21,75.64-.19,11-1.25,22.46-.32,33.46.27,3.18,5.27,3.21,5,0-.77-9.12.08-18.62.23-27.76q.39-23.7.87-47.4c.19-10.37.55-20.75.48-31.12,0-2.56,0-5.13,0-7.7-.1-4.49.4-8.94-.18-13.39s-.09-9.08-.57-13.63c-.66-6.18.85-12.63.86-18.89,0-8.35.2-16.72-.15-25.06s-1.1-16.85,1.73-25c2.54-7.28,7.1-13.71,11.65-19.86,5.12-6.91,10.34-13.73,15.51-20.6,1.93-2.57-2.41-5.06-4.32-2.52Z"/><path d="M266.43,450.67c19.34,22,50.37,26.34,78.13,25.68,14.87-.35,31-1.73,45.19-6.54,12.55-4.25,19.68-15.06,22-27.77.56-3.15-4.25-4.5-4.82-1.33-1.15,6.39-3.51,12.78-7.92,17.66s-10.15,6.76-16.19,8.2a186.17,186.17,0,0,1-42.07,4.84c-25.4.09-53.11-4.22-70.74-24.28-2.13-2.42-5.66,1.13-3.54,3.54Z"/><path class="cls-4" d="M368.78,152.49c-18.88,0-40.48,5.52-59.32,2.34-2.55-.43-3.6,1.91-4,4.48-2.41,17.09,3.84,27.93-4,42-5.25,9.43-20.6,26.1-23.55,34.76-7.62,22.38-5,172.83-1.6,196.41,1.09,7.63,4.07,15.63,9.51,21.09,6,6.08,17.49,10.54,26,11.16,10.54.77,21.28,1.3,31.83,2.07,16.69,1.22,40.32-3.07,51.27-15.71,6.64-7.66,6.72-14.68,7-24.81,1.24-40.52,1.15-160.16.6-175.42-.38-10.56-7.07-25.09-14.7-32.4a27.52,27.52,0,0,1-4.15-5.11c-5-7.61-7.07-12.76-8.18-22.38-1.58-13.58-1.71-14.42-1.85-27.92l-.13-2.49-.35-3.81a1.4,1.4,0,0,0-.06-.28C372.61,154.42,373.09,152.49,368.78,152.49Z"/><path class="cls-5" d="M74.21,310.32a250.31,250.31,0,0,0-26.7-.55c-8.1.21-16.35.3-24.29,2.07-5.55,1.24-13.33,3.47-15.87,9.18-2.21,5,.69,8.88,5.2,10.77,7.3,3.07,15.55,3.74,23.37,4.26s15.57.93,23.36.82c13.93-.21,29.8-2.18,41.26-10.87,4.46-3.38,4.39-7.82-.75-10.22a56.24,56.24,0,0,0-25.33-5.29c-3.21.09-3.22,5.09,0,5A52.72,52.72,0,0,1,96,319.58c2.8,1.13,3.74,1,.71,3A44.26,44.26,0,0,1,92.51,325a53,53,0,0,1-9.75,3.82c-13.21,3.8-27.25,3.3-40.82,2.56-7.7-.42-15.53-.71-23-2.75-1.39-.38-4.79-.9-5.61-1.93l-.58-5a10.69,10.69,0,0,1,2.79-2,34.55,34.55,0,0,1,10.75-3.47c7.58-1.44,15.46-1.42,23.14-1.59a241.16,241.16,0,0,1,24.79.6c3.21.26,3.19-4.74,0-5Z"/><path class="cls-5" d="M4.71,327.65c2.34,34.53,5.19,69,9,103.43q1.39,12.5,3,25c.69,5.41,2.67,8.69,6.87,12.26,9.81,8.32,22,9.7,34.52,9.84,15.3.17,29.12-4.71,41.9-13,2.69-1.73.19-6.06-2.53-4.31-14,9-28.69,13.23-45.38,12-8.33-.62-15.92-1.54-22.85-6.48-2.64-1.87-5.95-4.42-7.11-7.57-1.49-4-1.27-9.55-1.78-13.82-4.67-39-8-78.19-10.62-117.38-.22-3.2-5.22-3.22-5,0Z"/><path class="cls-5" d="M101.06,463.71c1.27-5.4,1.5-11.12,1.85-16.64.61-9.41.93-18.85,1.2-28.28.66-22.55.93-45.11,1.14-67.67.1-9.86.17-19.72.27-29.58,0-3.22-5-3.22-5,0-.42,40.2-.17,80.48-2.32,120.64-.36,6.66-.42,13.67-2,20.2-.73,3.13,4.09,4.47,4.82,1.33Z"/><path class="cls-4" d="M14.11,355.71c3.8,2.44,8.5,2.92,13,3.34,19.66,1.81,40,3.57,58.76-2.45,3.9-1.25,7.73-2.84,11.79-3.41C99.27,366.11,96.58,450,96,453.71c-1.38,8.57-11,10.18-18.95,13.68s-16.87,4-25.55,3.82c-9.15-.24-19.5-1.95-24.59-9.56-4.61-6.9-14.22-89.49-13.95-105.82"/><path class="cls-2" d="M232.63,40.73,229.11,63c-1,6.14,1,12.25,7.23,14.74A12.62,12.62,0,0,0,252,72.64c6.86-10.54,8.58-22.7,6.45-34.92l-24.11,6.64A116,116,0,0,1,239,88.68c-.72,8.79,0,16.45,4.09,24.38,3,5.8,4.09,11.28,5.18,17.78,2.53,15.09,5,30.2,6.07,45.47.55,7.76.69,15.51.56,23.29-.14,8.48.57,16.58,4.76,24.13,5.24,9.45,20.07,7.25,22.85-3,2.95-10.9.8-21.13-.36-32.08a53.62,53.62,0,0,1,.41-13.89,55.07,55.07,0,0,0-1-18.58,27.16,27.16,0,0,0-.77-3.43c-.5,0-2.46,11.06.06,1.83a13.25,13.25,0,0,0-1.46-10.36c-3.81-6.22-12.46-8.08-19.15-6.17-6.08,1.73-10.79,6.43-14,11.67-1.11,1.79-1.93,3.74-2.95,5.58a16,16,0,0,1-1.42,2.39c.52-.65,1.71-1.18-.42-.08l18.36,7.47A39.37,39.37,0,0,1,259,150c1.33-10.67-14.63-16.62-21.33-8.84a170.91,170.91,0,0,1-21.28,20.74l20.89,5.51a22.56,22.56,0,0,1,1-11.36l-24.11-6.65-10.8,47.49h24.1c.9,5.64.3,1.15.33-.46,0-1.95.14-3.9.26-5.86.28-4.81.68-9.62,1.14-14.43q.36-3.79.78-7.59c.15-1.36.32-2.73.48-4.09.09-.78.53-3.82,0-.45.27-1.82.52-3.65.86-5.45s2-5.9-.25-1l-21.58-12.62-3.2,7.09L228,164.63c.35-.8.83-1.52,1.2-2.31-1.63,3.41.91-.8-.44.51s.61-.3,1.09-.62c2.36-1.53-1.84.44.83-.43,3.51-1.13,7.1-1.83,10.67-2.73,10.5-2.63,19.37-10.8,15.85-22.6a26.89,26.89,0,0,0-3.19-6.72c-.88-1.35-2.66-3.57-3.09-4.18a4.79,4.79,0,0,1-.83-2.1c.25,1.22-.12-2.54-.16-3-.09-1.11-.21-2.22-.34-3.33a30.86,30.86,0,0,0-1.92-8.61c-3.13-7.46-11.82-11.29-19.18-7.07-3.66,2.08-5.95,5.69-7.64,9.42-2.24,4.93-4.08,10-6.07,15.07-.43,1.1-.86,2.19-1.31,3.28,1.13-2.75-.36.75-.68,1.42a38.28,38.28,0,0,1-3.17,5.66l21.58,12.62c4.59-10.1,7.09-20.35,9-31.23.91-5.31,1.79-10.64,3-15.89,1.42-6,2.85-11.71,1.48-17.89-.87-3.89-2.95-7-2.19-11,.91-4.72,3.66-9.2,5.7-13.48,5-10.44,8.74-21.81,1-32.09l-4.48,17.1a34.69,34.69,0,0,0,4.53-3.75c.61-.64,4.53-5.21,1.35-1.87L245.05,42l.53-.12h-6.64l-1-.35-5.74-14.12c-.84,4.3-.38,8.35,2.39,11.82a13,13,0,0,0,4,3.61c2.59,1.57.42,1.16-1.75-2.57l-1.26-9.63-.09.49c-1.29,6.62,1.87,13.49,8.73,15.38,6.13,1.68,14.08-2.08,15.38-8.73.83-4.3.38-8.35-2.4-11.82a12.85,12.85,0,0,0-4-3.61c-2.59-1.57-.42-1.16,1.75,2.57l1.26,9.63.09-.49c1.06-5.45-.68-11.23-5.74-14.12-3.79-2.16-7.81-3.21-12.14-2.05a13.25,13.25,0,0,0-5.92,3.64c-1.3,1.36-4.84,4.63-.42,1.3-4.9,3.69-8.91,11.2-4.49,17.1a13.44,13.44,0,0,1,1.8,2.69,1.35,1.35,0,0,1-.58-1c.84-2.15-1,2.73-.8,2.09-1.7,4.37-4.15,8.47-6,12.77-4.5,10.29-6.16,19.86-2.41,30.69,1.14,3.28.19,4.83-.72,8.8-1.08,4.67-1.87,9.4-2.68,14.12-1.51,8.77-2.88,18-6.59,26.13-2.79,6.14-1.76,13.45,4.48,17.1s13.24,1.07,17.1-4.48c5.49-7.87,8.11-17.76,11.71-26.57-1.38,3.36.92-1.09,1.14-2.08.35-1.55-1.7,1.91-.9,1.14q-15.48,6-18.78-4.27c.12.41.23.82.32,1.23.52,2.35-.13-2.5.08.29.13,1.77.23,3.54.37,5.3.39,4.68,1.25,9.07,3.61,13.22.52.91,3.78,5.33,3.31,4.64a17,17,0,0,0,1.36,2.22c.87,1-.26-.8-.3-1.36a8.9,8.9,0,0,1,2.58-7.35c-1.21,1.25,3.08-1.84.43-.49,1.13-.57,2.76-.91.63-.39-1.69.42-3.37.86-5.07,1.25-10,2.25-20.85,6.25-25.27,16.38-2.7,6.18-1.82,13.41,4.48,17.1,5.36,3.13,14.31,1.7,17.1-4.49l3.2-7.08c2.78-6.15,1.77-13.45-4.48-17.1-5.37-3.14-14.29-1.69-17.1,4.48-4.16,9.12-4.27,20.22-5.23,30.06-.9,9.32-2.42,19.18-.93,28.5,2,12.34,21.49,11.49,24.1,0L238.32,156c3.57-15.69-19.27-22-24.11-6.65a49.66,49.66,0,0,0-1,24.66c1.94,10.11,14.3,10.91,20.9,5.51a170.73,170.73,0,0,0,21.27-20.73L234,150a58.08,58.08,0,0,0,1.66,21.79c2.13,8.14,11.34,11.1,18.37,7.47,4.75-2.46,8.27-6.65,10.81-11.28.9-1.63,1.62-3.37,2.57-5,.42-.72,1-1.18,1-1.47q1.23-1.1-.54.09c-1.66,1.23-3.53,1.15-5.64-.24l-4.48-4.49.28.45-1.26-9.63c1.17-4.58-.43,1.24-.67,2.19a15.78,15.78,0,0,0-.34,4.54c.14,3.5,1.51,6.81,2,10.24.84,5.86-.86,10.62-1,16.57-.28,10.85,4.44,22.5,1.63,32.89l22.84-3c-2.61-4.72-1.27-11.7-1.26-17.12,0-7.87-.41-15.73-1.13-23.55-1.48-16.16-4.1-32.2-6.8-48.18a63.78,63.78,0,0,0-6.63-20.46C262.56,96.41,264,90.35,264.36,84a134.62,134.62,0,0,0-6-46.25A12.75,12.75,0,0,0,243,29c-7,1.93-9.89,8.7-8.73,15.37,1,5.52-.82,10.89-3.92,15.66l22.84,9.63,3.53-22.28C257.79,40.71,255,33.92,248,32c-5.95-1.63-14.32,2-15.38,8.74Z"/><path class="cls-2" d="M277.61,221.19c4.41,5,12.93,6.18,16.27,11.84l5.65-7.35-10.45-3.42c-5.31-1.75-9,6.64-3.85,9.13,6.42,3.13,12.64,7.21,14,14.69l8.36-4.86a72.7,72.7,0,0,0-7.27-7.82c-4.77-4.29-11.54,2.39-7.07,7.07,13.22,13.84,10.05,33.26,9.73,50.81h10l0-10.85-9.82,1.33c1.5,5.91.17,12.29.77,18.33.21,2.2.47,4.36.49,6.56,0,3-.06,5.94-.11,8.9-.18,10.94-.42,21.89-.65,32.83-.57,27.32-1.21,54.65-1.53,82-.09,7.42-.87,15.35.09,22.74.83,6.29,10.84,6.37,10,0-.8-6.16-.2-12.74-.13-18.93.12-12.75.36-25.51.6-38.26.5-26.19,1.14-52.38,1.59-78.56.06-3.48.17-7,.14-10.44,0-2.29-.26-4.53-.49-6.82-.71-7,.63-14.06-1.13-21-1.39-5.5-9.8-4.3-9.82,1.33l0,10.85c0,6.44,9.88,6.44,10,0,.2-10.92,1.28-22.26-.3-33.11a45.19,45.19,0,0,0-12.36-24.77l-7.07,7.07a72.7,72.7,0,0,1,7.27,7.82c3.49,4.2,9.17-.47,8.35-4.87-1.84-9.89-10-16.47-18.62-20.66l-3.85,9.14,10.44,3.42c4.2,1.38,7.8-3.7,5.65-7.34-4.25-7.17-12.67-8-17.84-13.86-4.25-4.85-11.29,2.25-7.07,7.07Z"/><path class="cls-3" d="M227.29,22.18a21.38,21.38,0,0,0,1.41,8.66,2.57,2.57,0,0,0,3.08,1.74c7.44-1.94,16.3-1.27,23.91-.6,2.62.23,3.2-3.43,1.26-4.66.64.4,1.82-4,1.48-4.92-.64-1.65-2.36-2.24-4-2.21-1.17,0-4.17.89-4.05,2.55s1.64,1.49,2-.09a3.84,3.84,0,0,0-.58-2.65,2.42,2.42,0,0,0-2.16-1.24c-4,.2-6.25,3.83-6.24,7.56l2.5-2.5c.54.92.78,1,.75.13a4.11,4.11,0,0,0,0-1.71,4.2,4.2,0,0,0-.54-1.52,3.46,3.46,0,0,0-3.5-1.83,4.36,4.36,0,0,0-3.71,3.89c0,1.75,1.32,2.78,2.35.92,1.34-2.43-1.29-5.95-3.88-5.8a4.24,4.24,0,0,0-2.94,1.7c-.89,1-.93,4.87-1.45,5.25h2.52c-.32-.22-.48-3.52-.52-3.82l-2.5,2.5h.82c3.22,0,3.22-5,0-5h-.82a2.52,2.52,0,0,0-2.5,2.5c.41,3.17.18,6.23,3,8.14a2.43,2.43,0,0,0,2.52,0,4.62,4.62,0,0,0,2.28-3.32c.68-3-1.93-3.7-1.91-.69,0,2.35,1.82,4.8,4.39,4.46a4.19,4.19,0,0,0,2.67-1.74,5.05,5.05,0,0,0,.71-1.94c0-.63-.3-3.54-1.89-2.55-.91.56.17,3.34.66,4a3.32,3.32,0,0,0,3.52,1.42,2.57,2.57,0,0,0,2.5-2.5l1.24-2.56-2.16-1.24c-.25-.56-1,2.06-1,2.33a4.34,4.34,0,0,0,.9,2.67,3.93,3.93,0,0,0,5.22.88c.75-.43,1.91-1.33,2-2.28.16-2.3-1.57-1.81-2.32-.09-1,2.27.33,4.44,2.17,5.61L255.69,27c-8.11-.72-17.3-1.29-25.24.78l3.08,1.75a18,18,0,0,1-1.24-7.33c.11-3.22-4.89-3.21-5,0Z"/><path class="cls-2" d="M203.11,216.15l-.64-.19v-7.07a22.13,22.13,0,0,0-3.75,4.44c-1.33,2-.54,4.35.79,6.06l1.26,1.62,1-7.85c-7.42,4.82-12.8,13.29-17.71,20.51-5.54,8.14-9.79,17.11-11.31,26.9-1.59,10.22,1,20,.42,30.22-.5,8.39-4.71,16.09,1.5,23.41,3,3.52,8.33.45,8.54-3.54l.81-15.53c.34-6.47-9.49-6.35-10,0q-1.48,18.81-3,37.62c-.43,5.47-.37,10.3,1.6,15.47,2.23,5.83,3.15,10.51,1,16.56l9.82,1.33a115.09,115.09,0,0,1,.84-12.71c.77-6.38-9.2-6.29-10,0a213.9,213.9,0,0,0-1.37,33.85c.37,11.5,0,23-.2,34.51-.14,10.16.07,20.31.07,30.47,0,6.73,1.93,13.56,9.79,13.89,3.77.16,6.26-4.37,4.32-7.52a26.8,26.8,0,0,1-3.67-9.69l-9.14,3.86q6.27,9,12.83,17.7l5.64-7.35a142.23,142.23,0,0,1-15.28-6.73c-5.76-2.95-10.37,5-5,8.63,10.7,7.25,22.14,13.6,34.55,17.37,13.07,4,26.76,4.15,40.3,4.22,13,.08,26.42-.35,38.64-5.18a55.71,55.71,0,0,0,26.55-22.08c3.52-5.49-5-10.21-8.63-5l-8.2,11.54c-1,1.45-2.27,4.06-4,4.75s-4.54-.43-6.33-1c-6.16-1.9-8.8,7.75-2.66,9.64,5.91,1.82,12.13,2.46,16.93-2.21,5.07-4.94,8.84-11.94,12.92-17.7l-8.63-5c-13.44,21-37.34,22.51-60,22.27-11.86-.12-23.6-.5-35-4.09S187,463,177.26,456.39l-5,8.63a167.11,167.11,0,0,0,17.67,7.75c3.9,1.45,8.24-3.9,5.65-7.35q-6.57-8.75-12.82-17.7a5,5,0,0,0-9.14,3.85,34.09,34.09,0,0,0,4.67,12.07l4.32-7.52c.65.78.82.84.5.16a5.31,5.31,0,0,1-.25-1.57,31.07,31.07,0,0,1,0-3.86c0-3.83-.09-7.67-.12-11.5-.06-9.7.06-19.4.24-29.1.35-19-1-37.93,1.36-56.85h-10a115.09,115.09,0,0,0-.84,12.71c-.06,5.9,8,6.45,9.82,1.33A28.58,28.58,0,0,0,184.48,352c-.58-2.83-1.91-5.3-2.82-8a23.34,23.34,0,0,1-.74-9.41c.92-13.14,2.08-26.27,3.12-39.41H174l-.81,15.53,8.54-3.53c-1.88-2.21-.07-6.59.45-9.11a48,48,0,0,0,1-11.84c-.37-8.3-2-16.35-.48-24.65,1.4-7.81,4.74-14.82,9.07-21.41,4-6.14,8.81-14.26,15.06-18.33,2.95-1.91,3-5.25,1-7.85l-1.26-1.63.78,6.06a8.1,8.1,0,0,1,2.18-2.41c2.12-1.89,1.67-5.12,0-7.07a8.23,8.23,0,0,0-3.78-2.38c-6-2.28-8.63,7.38-2.65,9.64Z"/><path d="M228.79,33.23c1-3.82-.45-9.73-1.16-13.5l-1.22,2.16a82.35,82.35,0,0,1,31.33-.07l-1.22-2.15c-.85,4.4-.62,8.87-1.26,13.29l2.16-1.22a99.44,99.44,0,0,0-30.27-.65c-2.2.29-2.23,3.79,0,3.5a96.23,96.23,0,0,1,29.34.53c.83.14,2-.22,2.15-1.23.63-4.41.41-8.9,1.25-13.29a1.77,1.77,0,0,0-1.22-2.15,87.6,87.6,0,0,0-33.19.06,1.79,1.79,0,0,0-1.22,2.16c.58,3.1,2,8.52,1.16,11.63-.57,2.18,2.81,3.11,3.37.93Z"/><path d="M223.89,33.76c.45,5.38.76,10.61-1.11,15.77-1.73,4.76-3.43,9.19-4.2,14.24-1.42,9.28-.84,18.65-.18,28,.23,3.19,5.23,3.22,5,0-.71-10-1.5-20.21.62-30.07,1-4.65,3.22-8.82,4.4-13.38,1.23-4.76.88-9.68.47-14.53-.27-3.18-5.27-3.21-5,0Z"/><path d="M256.64,33.45a85.56,85.56,0,0,0,1,12.69c.8,4.75,2.85,9,3.94,13.68,2.41,10.25.64,22.09.42,32.55-.07,3.22,4.93,3.22,5,0,.21-10.1,1.45-20.81,0-30.84-.63-4.36-2.52-8.29-3.63-12.53a65.53,65.53,0,0,1-1.69-15.55c-.06-3.21-5.06-3.22-5,0Z"/><path d="M219.54,93.12c-4.94,8.7-4.88,19.24-7.24,28.79-1.93,7.85-3.84,15.71-5.83,23.55-5.23,20.56-5.59,42.87-6.35,63.94-.12,3.21,4.88,3.21,5,0,.75-20.63,1-42.48,6.17-62.61,1.87-7.37,3.67-14.76,5.49-22.14,2.33-9.46,2.22-20.46,7.08-29,1.59-2.81-2.73-5.33-4.32-2.53Z"/><path d="M262.92,95.84c2.52,3.47,3.53,7.94,5,11.94a96.83,96.83,0,0,1,3.68,14.13c2,9.66,4.18,19.29,5.61,29.05,1.51,10.27,2.13,20.7,3.08,31,.47,5.1.92,10.21,1.44,15.31.42,4.13,2.42,10.24,1.18,14.25-1,3.08,3.87,4.4,4.82,1.33,1.22-3.94-.27-8.7-.7-12.73-.58-5.4-1.06-10.81-1.56-16.23-1-10.79-1.69-21.66-3.17-32.41s-3.91-21.26-6.07-31.85a97.11,97.11,0,0,0-4.16-14.9c-1.48-3.93-2.33-8-4.83-11.45-1.87-2.58-6.21-.08-4.32,2.53Z"/><path d="M282.55,213.84c4.09,6.16,9.58,11,14.56,16.39a51.45,51.45,0,0,1,12.06,23.16,68.05,68.05,0,0,1,1.73,14.86c.29,13.65.25,27.31.25,41q0,57.27-.59,114.54c-.1,10.92.06,21.9-.47,32.81-.16,3.21,4.85,3.21,5,0,1.33-27.41.69-55,.85-82.47.2-34.66.61-69.35,0-104a84,84,0,0,0-1.22-14.68,58.17,58.17,0,0,0-10.1-24c-5.38-7.18-12.76-12.59-17.75-20.1-1.77-2.66-6.1-.16-4.31,2.53Z"/><path d="M199.84,208.61c-8.62,11.44-18.8,22.73-25.13,35.66-6.47,13.22-4.28,26.79-4.29,41,0,7.36.31,14.79,0,22.13-.24,5.68-1.07,10.56-.51,16.23A40.23,40.23,0,0,1,170,329c-.1,2.75.41,5.18.55,7.89.13,2.47-.49,4.88-.39,7.37.12,2.72.15,5.42.17,8.16.21,25.2-.77,50.43-1.21,75.63-.19,11-1.26,22.47-.32,33.46.27,3.18,5.27,3.21,5,0-.78-9.12.07-18.62.22-27.75q.41-23.72.87-47.41c.2-10.36.55-20.75.49-31.11,0-2.57,0-5.14,0-7.7-.1-4.5.4-8.94-.19-13.4s-.09-9.08-.57-13.63c-.65-6.18.86-12.62.87-18.89,0-8.34.2-16.72-.15-25.06s-1.1-16.85,1.73-25c2.54-7.28,7.1-13.71,11.65-19.86,5.11-6.9,10.34-13.73,15.51-20.59,1.93-2.57-2.41-5.07-4.32-2.53Z"/><path d="M169.63,463.6c19.34,22,50.37,26.34,78.13,25.69,14.87-.36,31-1.74,45.19-6.54,12.55-4.26,19.67-15.07,22-27.78.56-3.14-4.26-4.49-4.82-1.33-1.15,6.39-3.51,12.78-7.92,17.66C297.9,476,292,478.07,286,479.5a186.19,186.19,0,0,1-42.08,4.84c-25.39.1-53.11-4.22-70.73-24.28-2.13-2.42-5.66,1.13-3.54,3.54Z"/><path class="cls-4" d="M272,165.42c-18.88,0-40.48,5.52-59.32,2.35-2.55-.43-3.6,1.91-4,4.47-2.41,17.09,3.84,27.93-4,42-5.25,9.42-20.6,26.09-23.56,34.76-7.62,22.37-5,172.82-1.6,196.41,1.09,7.63,4.07,15.62,9.51,21.08,6.06,6.08,17.5,10.54,26.05,11.17,10.55.77,21.29,1.29,31.84,2.06,16.68,1.22,40.31-3.07,51.27-15.71,6.64-7.66,6.72-14.68,7-24.81,1.24-40.52,1.15-160.16.6-175.41-.38-10.56-7.07-25.1-14.7-32.41a27,27,0,0,1-4.15-5.1c-5-7.61-7.07-12.77-8.19-22.38-1.57-13.59-1.71-14.43-1.84-27.93l-.13-2.49-.36-3.81a1.28,1.28,0,0,0,0-.27C275.81,167.35,276.29,165.42,272,165.42Z"/></svg>