<svg id="Layer_1" data-name="Layer 1" xmlns="http://www.w3.org/2000/svg" viewBox="0 0 311.45 512.17"><defs><style>.cls-1,.cls-9{fill:#fff;}.cls-2{fill:#231f20;}.cls-3{fill:#e8c55c;}.cls-4{fill:#df8026;}.cls-5{fill:#f49c53;}.cls-6{fill:#efd6ac;}.cls-7{fill:#e2c599;}.cls-8{opacity:0.05;}.cls-9{opacity:0.4;}.cls-10{fill:#707071;}</style></defs><title>makeyouown</title><path class="cls-1" d="M277.79,190.46c0-17.13-26.81-46.52-38.8-58.81a20,20,0,0,1-5.67-14V99.22H96.43v18.33a20,20,0,0,1-5.86,14.14c-12.44,12.41-40.36,42.12-40.36,58.77,0,0,5.24,229.54,5.24,230,0,13.7,46,39.18,108.79,39.18S273,434.13,273,420.43C273,419.89,277.79,190.46,277.79,190.46Z"/><path class="cls-2" d="M280.25,190.28c-.23-8.65-4.85-16.77-9.4-23.87a203.37,203.37,0,0,0-20.23-25.82c-6.43-7.17-14.59-13.23-14.84-23.66-.15-6,0-11.93,0-17.89,0-1.3-1.21-1.77-2.33-1.77H96.56c-1.07,0-2.59,1-2.59,2.13,0,5.91.09,11.83,0,17.74-.16,10.82-9,17.13-15.77,24.45a215.07,215.07,0,0,0-20,24.62c-4.67,6.86-9.94,15.07-10.39,23.61-.23,4.27.15,8.64.25,12.91q.36,16.08.73,32.15,2,85.74,3.92,171.49c.1,4.71,0,9.48.32,14.18.72,10.62,14.28,17.73,22.47,22,20.42,10.61,43.81,15.88,66.59,18a225.27,225.27,0,0,0,80.26-6.6c16.31-4.47,35-10.92,47.3-23.15,4.48-4.46,5.83-8.58,5.95-14.52q.66-32.47,1.34-65l3.27-157.86.07-3.18c.05-2.71-4.87-2.08-4.92.36q-1.4,67.1-2.78,134.18-.81,39.42-1.63,78.85c-.11,5.46,0,11-.34,16.44-.59,9.45-13.82,15.9-21,19.55-21.18,10.73-45.43,15.77-69,17.42-26.84,1.89-54.39-.75-80.07-9A131,131,0,0,1,74,436.68c-5.27-3.1-11.17-6.86-14.52-12.14-2.27-3.58-1.66-8.09-1.76-12.16Q55.9,331.1,54,249.81l-1.32-57.52c-.27-12,8.07-22.9,15.09-32A274.09,274.09,0,0,1,88.23,137c6.09-6.27,10.57-11.72,10.66-20.9,0-5.68,0-11.37,0-17l-2.59,2.14H233.19l-2.33-1.78c0,5.89-.07,11.78,0,17.67.12,10,5.88,15.48,12.21,22.32a239.41,239.41,0,0,1,20.05,24.33c5.45,7.71,12,17.11,12.21,26.92C275.4,193.36,280.31,192.71,280.25,190.28Z"/><path class="cls-3" d="M233.69,90.15c0,20.09-137.57,20.09-137.57,0,0-12.35,2.88-33.09,20.67-39.67,11.15-4.12,34.06-8.16,48.69-8.16,15.12,0,33.55,4.67,44.9,9C227.56,58,233.69,78.05,233.69,90.15Z"/><path class="cls-4" d="M266.66,200.93c0-15.51-206-15.07-206,0,0,0,4.75,207.81,4.75,208.2,0,12.41,41.59,35.48,98.49,35.48s98.49-23.07,98.49-35.48C262.35,408.65,266.66,200.93,266.66,200.93Z"/><ellipse class="cls-5" cx="163.34" cy="200.81" rx="102.5" ry="22.89"/><path class="cls-6" d="M268.69,206.62c0,7.26-19.32,10.52-48.46,14.16-16.31,2-35.7,6.34-56.49,6.34-23.91,0-45.95-6.24-63.59-8.87-25.14-3.74-41.37-5-41.37-11.63,0-11.31,47-20.49,105-20.49S268.69,195.31,268.69,206.62Z"/><rect class="cls-6" x="58.46" y="185.8" width="211.24" height="27.18" rx="10.43" ry="10.43"/><path class="cls-7" d="M269.47,193.77c0,8.55-19.86,12.93-49.69,17.13-16.05,2.26-35,6.68-55.26,6.68-23.39,0-45-6.41-62.45-9.35-25.79-4.34-42.51-6.61-42.51-14.46,0-13.15,47-23.81,105-23.81S269.47,180.62,269.47,193.77Z"/><path class="cls-8" d="M223.43,220.88s32.73,90.27-36.83,221.65c0,0,66.25-7,75.75-33.4l4.09-201.58c.8,2.62-4.12,5.59-11.31,7.82C245.56,218.33,232.05,220.24,223.43,220.88Z"/><path class="cls-9" d="M68.6,169l7.19,234a12.47,12.47,0,0,0,5.13,9.31c5,3.89,13.36,9.52,23.11,12.51,2.84.87,5.53-1.23,4.47-3.53C91.59,384.72,90.31,175.64,102.79,172,102.79,172,77.74,165.29,68.6,169Z"/><path class="cls-3" d="M234,99.55s6.32,9.64,21.89,11.52-18.44,25-32.83,22.43c-8-1.44-42.15-4.82-70.48,3.64-24,7.16-49.3-12.51-63.15-8.43,0,0-14.4-3.33-11.44-13.29,0,0,15.69-1,21-23.57S234,99.55,234,99.55Z"/><path class="cls-10" d="M164.08,107.74c-34.54,0-63.3-6.21-69.61-14.43a5.58,5.58,0,0,0-1.29,3.39c0,9.84,31.74,17.82,70.9,17.82S235,106.54,235,96.7a5.59,5.59,0,0,0-1.3-3.39C227.38,101.53,198.62,107.74,164.08,107.74Z"/><path class="cls-2" d="M164.79,106.13c-14.77,0-29.66-1-44.15-4-7.73-1.59-18.73-3.6-24.08-10.11-.89-1.09-3.52.09-4.1,1-10.45,16.31,36.79,21.06,44,21.79a269.2,269.2,0,0,0,49.82.33c12.59-1.08,25.61-2.82,37.48-7.34,5.78-2.2,17.27-7.59,12.22-15.46-.93-1.47-3.47-.35-4.33.68-5.19,6.33-16.7,8-24.18,9.46-14,2.73-28.42,3.58-42.7,3.62-2.06,0-4.69,3.22-1.42,3.21,16.06,0,32.32-1.11,48-4.66,8.15-1.85,18.73-4.31,24.32-11.11l-4.33.68c5.67,8.84-13.88,12.82-19,14C196.56,112,180,113,163.83,112.91c-15.93,0-32.22-1.18-47.74-5-4.54-1.11-25-6-19.6-14.35l-4.11,1c5.48,6.66,16.45,8.78,24.37,10.48,15.28,3.29,31,4.24,46.62,4.29C165.43,109.35,168.06,106.14,164.79,106.13Z"/><path class="cls-8" d="M187.33,45s32.72,72.27.93,86.72c0,0,33.26.39,34.75,1.76.49.46,8.21.23,16.93-3.46,13.14-5.54,27.26-15.75,15.9-19,0,0-15-.73-22.52-11.85,0,0,6.38-34.78-22.94-47.86C210.38,51.36,193.11,44.54,187.33,45Z"/></svg>