<svg id="Layer_1" data-name="Layer 1" xmlns="http://www.w3.org/2000/svg" viewBox="0 0 558.85 258.78"><defs><style>.cls-1{fill:#fff;}.cls-2{fill:#231f20;}.cls-3{fill:#f78f41;}</style></defs><title>makeyouown</title><path class="cls-1" d="M298.9,62.24c7.13,2.63,11.47,9.82,5.29,16-1,1,.68,1.52,1.45,1.33,7.33-1.86,13.68-6.68,20.72-9.4,8.75-3.38,17.76-6.13,26.64-9.12,17.52-5.91,35-12.68,53-17,36.34-8.65,74-13.48,111.07-17.52.55-.06,2.24-.81,1.47-1.63-3.15-3.35-4.31-6.87-2.92-11.34.29-.9-1.28-.92-1.71-.81C479,21.4,443.37,25.27,408.19,32.28c-17.11,3.41-33.57,8.67-50.36,13.31-17.67,4.89-35.47,9.23-53.08,14.35-1.76.52-1.28,2.39.5,1.88,17.31-5,34.78-9.35,52.17-14.11,17.1-4.68,33.85-10.08,51.28-13.55,35.18-7,70.81-10.89,105.7-19.48l-1.71-.81c-1.48,4.75-.17,8.78,3.18,12.34l1.47-1.63c-36.77,4-73.92,8.94-110,17.22C389,46,371.25,52.88,353.44,58.88c-8.34,2.81-16.74,5.5-25,8.49A96.19,96.19,0,0,0,317.22,72c-4,2-7.64,4.55-12.08,5.68L306.59,79c7.09-7.12,2.35-15.59-6-18.67-1.17-.43-3.4,1.25-1.7,1.87Z"/><path class="cls-1" d="M285.79,58.79c74.43-25.88,154.6-44.1,236.29-53.69A58.87,58.87,0,0,1,528.17,35C457.5,38.36,387,54,325.94,79.7c-18.1,7.64-24.3,13.93-40.83,24.56"/><path class="cls-2" d="M286.36,59.39C362.6,33,441.78,15.38,521.88,5.91l-1.25-.42a61.52,61.52,0,0,1,6.09,29.71l2-1C459.29,37.58,389.47,51.82,325.36,79.1c-15,6.37-27.59,15.94-41.15,24.73-1.64,1.06.86,1.47,1.8.87,11.57-7.49,22.44-16,35-21.93,15.11-7.11,31.09-12.74,46.95-17.92A600.36,600.36,0,0,1,468.18,41.56q29.57-4.28,59.43-5.71c.49,0,2-.26,2-1a62.49,62.49,0,0,0-6.09-30.13c-.22-.45-.82-.47-1.26-.41a1142.11,1142.11,0,0,0-187.44,38q-25,7.34-49.61,15.89c-1.91.66-.18,1.66,1.14,1.2Z"/><path class="cls-1" d="M52.13,102.09c-3.76,12.47,14.93,112.37,18.65,123.13,3.07,8.9,27.68,20.17,27.68,20.17,4.49,4.08,53.33,5.54,59.4,5.49,55-.44,51.14-.73,102-18.8,5.29-1.88,13.31-9.87,17.71-13.36,6.33-5,18.88-115.19,12.39-128.83-2.87-6-19.2-23.14-15.83-15.29,7.43,17.28-3.84,40.36-22,44.56-57.93,13.42-89,29.27-137.82,12.81-25.47-8.6-56.68,3-49.4-39.29C65.87,87.23,53.59,97.23,52.13,102.09Z"/><path class="cls-2" d="M50.68,102.28c-2.08,7.53.1,17.21,1,24.75,1.68,14.25,4,28.43,6.37,42.57,2.29,13.35,4.74,26.69,7.5,40,1.64,7.88,2.29,16.59,8.55,22.27,5.06,4.6,11.25,8.1,17.27,11.27,2.73,1.44,5.64,3.22,8.6,4.13,11.64,3.56,25.27,3.22,37.32,3.79,13.94.67,27.82.66,41.77.37,13.07-.27,26.09-.95,38.78-4.3,7-1.84,13.79-4.22,20.58-6.62,8.6-3,18.79-5.2,26.45-10.22A97.71,97.71,0,0,0,275.1,222c1.52-1.32,3.41-2.49,4.52-4.2,1.45-2.24,2-5.37,2.57-7.91,6-25.15,8.23-51.71,10-77.45.78-11.34,1.55-22.86.77-34.22-.2-2.87-.37-6-1.56-8.71C289,84.14,284,79.17,279.75,75.2c-1.16-1.09-5.5-5.49-7.31-2.52-.89,1.45,1.12,4.54,1.48,5.83a31.1,31.1,0,0,1,.51,14c-1.68,9.19-7.11,18.21-15.24,23.06-5,3-10.95,3.81-16.53,5.18-5.8,1.43-11.57,2.93-17.35,4.45-20.4,5.39-41,11.62-62.18,12.85a120.52,120.52,0,0,1-30.91-2.18c-8.77-1.78-17.07-5.21-25.85-6.88-11.12-2.11-27.28-.66-35.84-9.39-5.19-5.29-5.61-13.42-5-20.37.34-4.15,2.85-11-3.71-8.12-4.39,1.93-9.41,6.69-11.11,11.2-.32.87,2.55.53,2.89-.39,1.19-3.16,4-5.8,6.62-7.86.48-.38,1.74-1.77,2.37-1.67,1.64.25.58,1.15.66,2.1.23,2.61-.73,5.78-.8,8.44-.13,5.54.55,11.46,3.94,16,6.43,8.71,19.58,8.94,29.29,10.17,16.77,2.13,32.32,8.91,49.28,10.27,17.35,1.39,34.54-1.34,51.38-5.3,9.84-2.32,19.59-5,29.36-7.57,5.47-1.44,11-2.87,16.44-4.23,5.07-1.25,10.45-2,15.27-4.13,13.22-5.73,21.59-20.7,20.4-34.93-.17-2.09-.71-8.67-2.59-10.09.09.06-2-.62-1.91.21,0,.17,1,.52,1.22.76a37.86,37.86,0,0,0,3.19,2.83c3.92,3.81,8.88,8.59,11,13.74,2.87,7,1.75,16.61,1.55,23.94a602.21,602.21,0,0,1-7.7,78.71c-.8,5-1.66,9.93-2.74,14.85-.64,2.9-1.14,6.41-2.59,9.05a8.69,8.69,0,0,1-2.47,2.71c-3.58,3-7,6.27-10.81,9-4.68,3.3-10.54,4.74-15.89,6.65-4.37,1.57-8.74,3.14-13.13,4.67-12.2,4.26-24.33,7.78-37.26,8.85a416.48,416.48,0,0,1-44.13.95c-13.08-.31-26.22-.87-39.24-2.26-4.52-.48-9.68-.71-13.89-2.57-3.14-1.38-6.25-3.16-9.26-4.82-6.09-3.36-13.38-7.26-17.52-13-1.78-2.49-2.3-5.67-3-8.6-2.48-10.54-4.49-21.21-6.46-31.86-4.64-25-9.86-50.69-11-76.19-.13-2.87-.37-6,.4-8.79C53.84,100.94,50.94,101.35,50.68,102.28Z"/><path class="cls-1" d="M277.36,52.07c-8.91-8.28-20.18-13.53-31.49-18l9.18,1.53C200.9,17.08,138.9,23,89.23,51.45c-19.94,11.42-39.39,29-41.05,51.87-.29,4.07.09,8.45,2.57,11.7,1.92,2.51,4.84,4,7.68,5.4,59.38,28.68,130.91,31,192,6.25,19.31-7.82,39.88-21.6,41.31-42.39C292.6,72.15,286.27,60.35,277.36,52.07Zm-34.22,65.55C188,131.65,185,137,128.83,127.57c-4.75-.79-63.47-16.46-64.66-21.13S65.91,84.74,70,82c51.27-34.82,94.17-49,154.94-36.88l1.59-.12c8.92,1.44,32.46,8.37,38.91,16.2,3.8,4.62,10.31,19.65,10.27,25.63C275.63,99.91,255.86,114.38,243.14,117.62Z"/><path class="cls-2" d="M278.72,51.55c-9.18-8.29-20.28-13.54-31.67-18.09L245,34.7l9.18,1.54c.52.09,3.13-.9,2.1-1.25a207.88,207.88,0,0,0-113-5.19A202.8,202.8,0,0,0,89.83,50.37C75.28,58.54,61,69.29,52.72,84.14c-3.95,7.13-6.85,16-6,24.2,1.05,9.74,10.39,12.81,18.23,16.24a236.35,236.35,0,0,0,57.35,16.73,243.93,243.93,0,0,0,115.85-9.5c17.28-5.82,36.29-13.66,47.57-28.74,12.66-16.92,7.48-37.6-7-51.52-.59-.56-3.26.51-2.72,1,12.41,11.89,18.92,29.6,10.31,45.63-8,14.85-24.45,23.47-39.55,29.31A236,236,0,0,1,136,141.61,237.73,237.73,0,0,1,82.4,129.34c-8.55-3-17.57-6.32-25.44-10.89-8.89-5.16-8.28-15.26-5.83-24.06C55.63,78.26,68.49,65.86,82,56.75,97.22,46.46,114.6,39,132.2,33.81a203.66,203.66,0,0,1,121.67,2.38L256,35l-9.18-1.54c-.5-.08-3.15.83-2.11,1.25C256,39.16,266.92,44.38,276,52.58,276.62,53.14,279.27,52.05,278.72,51.55Z"/><path class="cls-2" d="M243,117.09c-17.2,4.39-34.32,10-51.84,13-16,2.71-32,1.25-48-1.05-23.25-3.35-46.67-10-68.61-18.31-2.38-.9-7.49-2.09-8.87-4.52-1.06-1.85-.24-6,0-7.86a50.82,50.82,0,0,1,2.51-11.11c1.49-4.08,3.73-5.73,7.29-8.09,4.67-3.09,9.39-6.09,14.2-9A244.65,244.65,0,0,1,118.15,55.4,165,165,0,0,1,175,41.68a181,181,0,0,1,30.7,1.1c8.23,1,16.87,1.92,24.9,3.84,8.88,2.13,18,5,26,9.41,7.62,4.19,11.1,10.53,14.28,18.42,3.53,8.74,4.88,16-1,24.14a51.57,51.57,0,0,1-26.8,18.5c-1.69.46-1.44,1.52.28,1A57.34,57.34,0,0,0,265,106.29c5.69-4.84,12.24-11.88,12.21-19.9,0-7.79-4.68-17.14-8.8-23.55C264.63,57,258,54,251.76,51.48c-16.49-6.79-34.59-9.41-52.28-10.78a170,170,0,0,0-59.89,5.81c-20,5.73-38.74,15.12-56.39,26C76.09,77,67.71,80.33,65,88.7A54.21,54.21,0,0,0,62.67,100c-.2,2-.88,5.49.3,7.3,1.6,2.45,6.71,3.7,9.22,4.65,6.33,2.41,12.81,4.42,19.29,6.39,11.46,3.47,23,7,34.76,9.57,18.08,3.94,38,6.36,56.46,4.49,20.57-2.07,40.64-9.14,60.58-14.23C245,117.71,244.72,116.65,243,117.09Z"/><path class="cls-3" d="M67.32,105.24c1-20.12,75.29-36.54,140.53-30.54,17.88,1.65,62.12,5.72,64.31,20.1,2.27,15-36.78,23.41-69.27,34-8.63,2.83-58.53,2.84-124.83-13.1C68.84,113.51,67.19,107.75,67.32,105.24Z"/><path class="cls-2" d="M68.79,105.15C69.54,96,82.5,91,89.67,88.24c14.9-5.81,31-8.84,46.77-10.89a340.9,340.9,0,0,1,98.25,1.71,136.44,136.44,0,0,1,19.79,4.45c4.87,1.55,10.55,3.49,14.06,7.41,9.57,10.67-12.37,19.18-19.29,21.86-8.55,3.31-17.35,5.94-26.12,8.61-7.13,2.17-14.29,5-21.55,6.65-7.57,1.76-16,1.2-23.74,1a425.92,425.92,0,0,1-52.62-5.18q-16.78-2.59-33.39-6.2c-6.92-1.5-23.1-2.44-23-12.49,0-1.59-2.94-1.23-3,.18,0,5.38,4.44,9.08,9.15,10.75,10.44,3.71,22.2,5.24,33.08,7.25a490.1,490.1,0,0,0,57.9,7.41c10.77.68,21.91,1.35,32.67,0,5.35-.66,10.41-2.75,15.54-4.33,10-3.07,20-6,29.91-9.42,7.25-2.54,14.68-5.25,21.14-9.48,3.75-2.44,7.95-5.94,8.45-10.72,1.11-10.59-14.91-14.79-22.41-16.76-13.62-3.58-27.75-5.07-41.75-6.35a330.69,330.69,0,0,0-62.45.2c-19.4,1.88-39.2,5.08-57.49,12-8.29,3.14-22.87,8.8-23.74,19.42C65.71,106.9,68.67,106.56,68.79,105.15Z"/><path class="cls-2" d="M300.93,84.26C353.22,56.44,412.2,43.2,470.25,33.75c17.19-2.8,34.44-5.23,51.71-7.49,1.63-.21,2.21-2.45.24-2.19C461.88,32,400.86,41.59,343.6,62.87a362.31,362.31,0,0,0-44,19.62c-1.74.92-.18,2.56,1.3,1.77Z"/><path class="cls-2" d="M126.24,123.09c-1.77-5.21-7.51-6-12.39-5.93A78.16,78.16,0,0,0,92.53,121a92.75,92.75,0,0,0-36.84,22.35,87,87,0,0,0-22.41,36.55c-.8,2.66-.75,5-3.84,6.32-1.16.48-2.89.29-4.14.72a13.22,13.22,0,0,0-5.63,3.89c-4.11,4.69-5.51,11.33-6.38,17.33-.11.73.78,1.06,1.36,1L37,207.61a1.64,1.64,0,0,0,1.58-1.21,45.4,45.4,0,0,0,.06-18.93c-.28-1.42-3.19-.66-2.89.78a44.45,44.45,0,0,1-.11,18.34l1.58-1.22-22.33,1.56,1.35,1c.87-5.92,2.26-13.65,7.32-17.57s9.56-.45,11.75-7.36c3.89-12.33,9.2-23.43,17.73-33.3a90.05,90.05,0,0,1,31.15-23.22,83.27,83.27,0,0,1,18.54-5.85c5.49-1,18.2-4,20.62,3.21.47,1.39,3.36.59,2.9-.78Z"/><path class="cls-2" d="M134.09,126.58c-1.22-12.17-18.51-9-26-6.29-11.7,4.19-23.94,9.73-33.38,18-10.35,9-14.64,21.08-15.78,34.51-.23,2.7.34,7.07-.73,9.61s-5.22,3.95-7.07,6c-3.82,4.21-5,10.14-6,15.54-.08.44.55.45.84.44,5.46-.14,10.91-.46,16.35-1,3.11-.31,7-.13,9.85-1.52a4,4,0,0,0,2.44-3.33c1-4.77.17-10.59.24-15.47,0-.3-.69-.3-.85-.29l-10.23.7c-.88.06-3.12,1.48-1.21,1.35s4.83-.84,6.83-.47c2.38.44,2.26.2,2.51,3.09.29,3.2.81,8.85-.26,11.76-1.32,3.59-9.43,3-12.91,3.27q-2.88.22-5.78.37c-2.82.14-4.4.95-4.41-2.1,0-2.55,1.4-5.78,2.46-8.08a15.28,15.28,0,0,1,3.68-5.16c1.35-1.21,3.22-1.75,4.5-3a6.13,6.13,0,0,0,2.18-4.11c.77-4.26.4-8.83,1-13.15,2.24-15.81,10.52-27.45,24.17-35.57a139.38,139.38,0,0,1,19.26-9.2c7.09-2.83,24.21-7.38,25.44,4.91.07.71,3,.13,2.9-.77Z"/><path class="cls-2" d="M139.63,127.72l.36.35a2,2,0,0,0,2.26-.08c3.2-2.21,0-6.08-2.17-7.84-3.34-2.74-7.88-3.72-12.1-3.9-10.91-.47-22.55,4.24-30.94,11-8.86,7.16-14.59,17.64-14.73,29.16A33,33,0,0,0,86,172.38c1.61,3,6,6.5,2.77,9.88-2.26,2.38-8.34,3.83-11.27,5.13-.35.16-1,.59-.85,1.08l4.17,13.21c.19.62,1.19.57,1.67.43a106.76,106.76,0,0,0,14.2-5.1c2.53-1.15,5.47-2.6,6.6-5.33,3-7.2-5.72-10.53-11.23-9.91l.43,1.58,2.54-1c1.86-.75.18-1.93-1.2-1.38l-2.54,1c-1.28.51-.9,1.73.43,1.58,8.29-.93,12.6,7.67,4.35,11.81a83.91,83.91,0,0,1-14,5.1l1.66.43-4.16-13.21-.85,1.08c5.07-2.25,17.85-5,13.1-12.78-2.84-4.64-5.3-8.76-6.17-14.25a35.28,35.28,0,0,1,1.18-15.81c3.43-11.12,12.34-19.6,22.85-24.15,5.32-2.3,11.39-4,17.23-3.73A20.34,20.34,0,0,1,135,119.9c.85.43,7.94,5.29,5.38,7.06l2.26-.08-.37-.35c-.8-.77-3.54.35-2.67,1.19Z"/><path class="cls-2" d="M150.38,126.87c-3.63-7.78-12.81-9.11-20.58-8.72-9.73.49-17.14,4.61-19.93,14.35-3.11,10.9-1,23.7,1.25,34.56.55,2.67.88,3.53-.25,6.31-1.28,3.15-1.06,2.33-3.34,3.86a7.69,7.69,0,0,0-3,3.06c-2.12,4.45,1.74,9.33-.4,13.8-.42.88.59,1.36,1.29,1.34,5.61-.13,15.94-1,17.52-7.78,1.34-5.74.23-14.16-6.31-15.92-1.34-.36-3.41,1.58-1.64,2.06,5.4,1.46,5.74,7.94,5.2,12.58-.72,6.25-9.6,6.68-14.55,6.79L107,194.5c1.41-2.94.69-5.63.26-8.71-.51-3.63.12-5.69,3.36-7.66a14.35,14.35,0,0,0,3-2c2.75-2.79,1.1-6.54.41-9.89a129.17,129.17,0,0,1-2.43-18.38c-.49-8.37-.25-19.45,7.41-24.74,7.26-5,24.31-4.47,28.49,4.49.62,1.34,3.5.52,2.89-.78Z"/><path class="cls-2" d="M132.3,117.22c-16.58,1.31-32.23,10.84-40.39,25.47a62,62,0,0,0-5,12.66c-1.35,4.54-2.4,14.68-7.35,16.22-2.7.84-4.89.53-7.29,2.55a9.87,9.87,0,0,0-3.54,9c.13,1.05,3,.39,2.9-.78-.58-4.73,2-8.45,7.51-9,1.42-.15,2,.42,3.39-.17a4.86,4.86,0,0,0,2.4-2.6c4.35-7.87,4.7-17.72,8.72-25.84A47.19,47.19,0,0,1,131.94,119c1.48-.12,2.37-1.88.36-1.73Z"/><path class="cls-2" d="M123.08,118.15c-16,2.78-34.95,6.9-47.6,17.84-6.57,5.69-11.91,13.07-17.07,20a110,110,0,0,0-7.73,12c-2.4,4.29-5.08,10-10.61,10.84-.47.07-1.58.36-1.64,1a20.63,20.63,0,0,0,.88,8.36c.33,1,3.22.23,2.9-.77a19,19,0,0,1-.88-7.94l-1.64,1c5.93-.87,9.39-5,12.31-9.94A192.9,192.9,0,0,1,67.32,148.1c6.87-8.66,13.91-15.44,24.28-19.69a148.49,148.49,0,0,1,31.09-8.62c1.39-.24,2.39-2,.39-1.64Z"/></svg>