<svg id="Layer_1" data-name="Layer 1" xmlns="http://www.w3.org/2000/svg" viewBox="0 0 311.45 208.27"><defs><style>.cls-1{fill:#666766;}.cls-2{fill:#efd6ac;}.cls-3{fill:#e2c599;}</style></defs><title>makeyouown</title><path class="cls-1" d="M279.81,147.13c0,21.74-20.59,32.87-51.5,43.54-16.64,5.75-36.26,17-57.28,17-24.24,0-46.63-16.32-64.72-23.78-26.73-11-44.05-16.82-44.05-36.76C62.26,113.7,111,86.6,171,86.6S279.81,113.7,279.81,147.13Z"/><path class="cls-2" d="M272.39,147.68c0,17.8-19.32,25.79-48.47,34.72-16.31,5-35.69,15.55-56.49,15.55-23.9,0-45.94-15.31-63.59-21.76C78.7,167,62.48,164,62.48,147.68c0-27.77,47-50.27,105-50.27S272.39,119.91,272.39,147.68Z"/><rect class="cls-2" x="62.15" y="118.28" width="211.24" height="40.99" rx="10.43" ry="10.43"/><path class="cls-3" d="M273.17,122.15c0,21-19.87,31.71-49.7,42-16.05,5.55-35,16.4-55.26,16.4-23.39,0-45-15.74-62.44-22.94C80,147,63.26,141.39,63.26,122.15c0-32.25,47-58.4,105-58.4S273.17,89.9,273.17,122.15Z"/></svg>