<svg id="Layer_1" data-name="Layer 1" xmlns="http://www.w3.org/2000/svg" viewBox="0 0 558.85 512.17"><defs><style>.cls-1{fill:#fff;}.cls-2{fill:#231f20;}.cls-3{fill:#f78f41;}</style></defs><title>makeyouown</title><path class="cls-1" d="M388.25,217.92c2.3,1.68,1.26,4.88-.06,6.68-3.93,5.37,2.57,12.83,8.47,11,5-1.53,8.57-5,13.15-7.33C414.7,225.8,420,224,425.13,222c10.87-4.27,21.75-9.39,33.06-12.38,22.09-5.85,45.92-7.53,68.67-8.63a7.61,7.61,0,0,0,6.48-11.29,7.54,7.54,0,0,1-.55-5.73,7.59,7.59,0,0,0-9.23-9.23c-21.6,5.53-43.74,6.65-65.58,10.72-10.66,2-20.62,5.61-31,8.78-11.22,3.44-22.58,6.3-33.75,9.92-9.15,3-5.24,17.45,4,14.46,10.87-3.52,21.89-6.35,32.83-9.64,10.65-3.19,20.9-7,31.88-9.06,21.84-4.06,44-5.18,65.58-10.71L518.32,180a23.88,23.88,0,0,0,2.06,17.29L526.86,186c-23.54,1.14-47.92,3.13-70.88,8.71-11.33,2.76-22.16,7.85-33,12.11-5.59,2.2-11.23,4.31-16.76,6.68a50.28,50.28,0,0,0-7,3.47c-2.17,1.36-4.11,3.41-6.59,4.16l8.47,11c6.58-9,3.16-21-5.32-27.2-3.29-2.41-8.33-.54-10.26,2.69-2.26,3.77-.56,7.88,2.69,10.26Z"/><path class="cls-1" d="M383.61,208a464.47,464.47,0,0,1,147.21-33.64,85.87,85.87,0,0,1,2.31,29,249.46,249.46,0,0,0-125.94,27.59c-11.44,5.94-15.53,11.47-26.16,20.38"/><path class="cls-2" d="M384.28,210.41a467.5,467.5,0,0,1,146.54-33.55L528.41,175a88.37,88.37,0,0,1,2.22,28.3l2.5-2.5a251.8,251.8,0,0,0-124,26.31c-11.53,5.77-20.11,14.14-29.85,22.39-2.46,2.08,1.1,5.6,3.54,3.54,9.4-8,17.69-16,28.84-21.61a244.46,244.46,0,0,1,39.21-15.51,249.14,249.14,0,0,1,82.28-10.12,2.56,2.56,0,0,0,2.5-2.5,92.94,92.94,0,0,0-2.4-29.63,2.53,2.53,0,0,0-2.41-1.83A471.41,471.41,0,0,0,383,205.59c-2.94,1.2-1.66,6,1.33,4.82Z"/><path class="cls-1" d="M170.16,226.9c-13.75,10.21-18,29-15.62,55.13,2.69,29.12,4.08,58.11,6.83,68.64,2.27,8.71,24.88,21.27,24.88,21.27,4,4.22,50.42,9.23,56.2,9.64,52.41,3.65,55.24,3.09,105-10.36,5.19-1.4,13.42-8.42,17.88-11.42,6.4-4.3,10.14-21.69,12.17-29.13a185.12,185.12,0,0,0,4.86-23.16c3-21.54,6.86-50.1,1.69-63.58C367.35,200.32,228,184,170.16,226.9Z"/><path class="cls-2" d="M168.89,224.74c-24.8,19.07-16.83,55.9-14.74,82.59,1.11,14.12.95,29.49,4.62,43.26,2.48,9.29,13.44,15.65,21,20.42,5.28,3.31,9,5.2,15.63,6.62,10.35,2.2,20.91,3.52,31.41,4.79,22,2.66,44.94,5,67.11,3.08,11.42-1,22.59-3.57,33.66-6.41,7.45-1.91,15.7-3.26,22.77-6.3,5.87-2.52,11.16-7,16.23-10.83,8.76-6.62,10.69-20.67,13.32-30.62a282.67,282.67,0,0,0,6.8-37.74c2.69-21.67,7.51-48.34-10.48-64.69-14.34-13-34.44-19.48-53-23.65a256.23,256.23,0,0,0-73.07-5.42c-23.25,1.56-47.07,6-68,16.69a97.4,97.4,0,0,0-13.37,8.21c-2.56,1.88-.07,6.22,2.53,4.32,17.14-12.58,38.21-18.76,59-22a250.58,250.58,0,0,1,69.89-.72c20.3,2.54,41.33,7.27,59.41,17.14,6.61,3.61,13.09,8,17.79,14,6.22,7.9,6.76,17.85,6.61,27.58a283.86,283.86,0,0,1-12,76.32c-1.62,5.45-3.4,12.5-8,16.29s-9.68,7.7-14.88,10.2c-6.7,3.21-15,4.39-22.23,6.24-5.63,1.45-11.28,2.85-17,4-22.54,4.6-45.75,2.82-68.51.9-8-.67-16-1.68-23.91-2.77-8.87-1.21-18.12-2.22-26.7-4.88-5.35-1.66-10.78-5.92-15.42-9.26-3.87-2.79-8.84-6.24-11.08-10.61s-2.24-10.46-2.75-15.19c-1.8-16.73-2.75-33.54-4.24-50.29-1.28-14.46-2.4-30.13,3.72-43.74a34.17,34.17,0,0,1,10.3-13.2C173.93,227.12,171.45,222.78,168.89,224.74Z"/><path class="cls-1" d="M357.48,183.63C307.24,162,247.72,163,198.28,186.44c-19.85,9.41-39.68,24.67-43,46.39-.58,3.86-.54,8.07,1.59,11.34,1.64,2.54,4.3,4.2,6.91,5.72,54.46,31.73,122.45,39.25,182.53,20.18,19-6,39.6-17.62,42.51-37.32,1.69-11.51-3.47-23.22-11.34-31.77s-18.23-14.39-28.68-19.5"/><path class="cls-2" d="M358.74,181.47A199.83,199.83,0,0,0,238,170.29c-19.2,4.23-38.7,11.15-55.24,22-13.93,9.1-26.78,22.19-29.68,39.21-1.46,8.58.76,15.15,8.23,19.82a188,188,0,0,0,27,13.57,231.61,231.61,0,0,0,58.22,15.89,232.73,232.73,0,0,0,60.7.42c18.64-2.35,38-6.39,55-14.68,16.14-7.87,31.27-22.07,29.33-41.56-2.27-22.77-22.65-36.35-41.39-45.59-2.88-1.42-5.42,2.9-2.53,4.32,16.1,7.93,33.67,18.55,38.19,37.3,4.32,17.88-8.24,31.64-22.92,39.57-14.89,8-32.28,12-48.87,14.66a227.51,227.51,0,0,1-55.18,1.93A228.6,228.6,0,0,1,205.55,266a217,217,0,0,1-25.71-10.46q-6-2.91-11.85-6.19c-4.21-2.36-9.2-4.7-10.26-9.89-1.63-8,2.78-17.42,7.12-23.82a69,69,0,0,1,17.89-17.45c14.65-10.19,31.9-16.81,49.07-21.32a194.25,194.25,0,0,1,124.41,8.87c2.92,1.25,5.47-3.06,2.52-4.31Z"/><path class="cls-1" d="M328.08,190.43c-57-16.09-98.94-5.73-150.37,23.66-4.11,2.35-8.18,18.23-7.38,22.9s55.58,23.82,60,24.93c52.81,13.1,56.05,8.27,109.66-1,12.37-2.15,32.27-14.47,33.33-27,.49-5.7-4.6-20.5-7.88-25.19-5.57-7.93-27.48-16.28-35.88-18.31"/><path class="cls-2" d="M328.55,188.74c-20.9-5.82-42.57-8.94-64.27-7.06-20.2,1.75-39.67,7.65-58.14,15.88-4.88,2.17-9.7,4.5-14.45,6.94-5,2.55-11,4.93-15.36,8.42-4.69,3.76-6.37,12-7.32,17.59-.64,3.77-1.36,7.13,1.91,9.57,3.63,2.69,8.21,4.4,12.32,6.17,25,10.77,50.62,19.83,77.61,23.89A132.72,132.72,0,0,0,303,269.4c9.46-1.57,18.87-3.47,28.3-5.18s17.67-3.4,25.88-8.33c7.22-4.34,15.37-10.81,17.5-19.41,1.81-7.34-2-16.35-4.8-23-3.23-7.5-8.57-11.57-15.7-15.34a110.92,110.92,0,0,0-24.14-9.44c-2.19-.55-3.12,2.82-.93,3.37a107.33,107.33,0,0,1,19.78,7.34c6,2.87,13.06,6.23,16.35,12.37,3.17,5.94,6.31,14.11,6.36,20.93.07,8.25-8.16,14.95-14.42,19-7.32,4.74-14.78,6.93-23.26,8.45-9,1.61-18,3.37-27,5-13,2.32-25.85,3.75-39,2.37-24.91-2.62-48.24-10.58-71.4-19.64-5.33-2.09-10.65-4.22-15.85-6.62-2-.94-7.57-2.64-8.66-4.84-.8-1.62.47-5.66.82-7.25a40.66,40.66,0,0,1,3.51-10.55c2-3.7,5.79-5.08,9.36-7,4.83-2.63,9.7-5.15,14.65-7.54,19.43-9.38,40.13-16.51,61.68-18.7,22.15-2.25,44.23.78,65.6,6.72a1.75,1.75,0,0,0,.93-3.37Z"/><path class="cls-2" d="M392.57,234.67c40.4-27.33,89.7-34.79,137.3-38.69,3.18-.26,3.21-5.27,0-5-48.46,4-98.7,11.55-139.82,39.37-2.65,1.79-.15,6.13,2.52,4.32Z"/><path class="cls-3" d="M192.24,244.31c29.3-3.61,57.36-12.88,87.13-12.78a188,188,0,0,1,43.12,5,57.78,57.78,0,0,1,17.7,7.24c5.84,3.64,11.4,6.58,18.39,7l-2-14.74a162.56,162.56,0,0,0-16.61,6.1c-7.52,3.18-2.75,13.48,3.78,14,5.38.41,9.7-1.55,13.84-4.78,2.94-2.29,2.63-7.2.59-9.84-2.45-3.17-6.19-3.47-9.68-1.94a70.35,70.35,0,0,1-13.72,4.77h4c2.47,2.39,3.27,2.67,2.42.85l-1-2.77a7.54,7.54,0,0,0-14.74,2l-.06.92,1-3.78q8.15,1.88,6-1.39a15.39,15.39,0,0,1-.82-1.62c-3.11-6.45-14.92-3.6-14,3.78a43.36,43.36,0,0,0,2.31,10.2l12.54-7.29-7.78-9.51c-5.6-6.84-15.58,1.88-11.78,9.09l5.3,10.06L330,245.81a50.51,50.51,0,0,1-6-7.75l-12.95,7.57a24.48,24.48,0,0,1,3.81,7.69l12.53-7.3c-4.19-3.5-5.08-7-7.27-11.67-2.72-5.82-8.23-5.73-13.88-5.73-12.33,0-24.67,0-37,.24-24.51.51-48.95,2.39-73.38,4.35-8.71.7-9.83,11.57-2,14.73,11.6,4.67,24.3,7.29,36.44,10.25a324.16,324.16,0,0,0,38.35,7.2c25.56,3.07,51.36.53,75.5-8.59,7.67-2.89,6.89-14.51-2-14.73l-68.37-1.7c-11.13-.28-22.27-.5-33.39-.84-5.28-.17-10.58-.36-15.82-1.05-2.39-.32-4.78-.76-7.13-1.3-1.47-.34-3-.94-4.47-1.2-2.3-.41-1.43-1.37-.53.53l.76,5.78q-3,3.15.28.83l2.51-1.46,5.84-3.43c5.58-3.27,4.41-12-1.79-13.71l-2.54-.71v14.46l14.54-2.63c2.76-.5,6.94-2.18,9.64-1.48,2.18.57,4.2,3.58,5.7,5.11a28.7,28.7,0,0,0,8.23,6.3c8.7,4.05,16.33-8.88,7.57-12.95-6.86-3.18-10-11-17.86-13-4.79-1.23-9.8.17-14.54,1l-17.27,3.13c-7.56,1.37-6.71,12.58,0,14.46l2.54.72-1.79-13.71c-5.17,3-13.73,6.08-15.41,12.48-2,7.68,4.93,11.18,11,13,13.59,3.95,28.09,3.77,42.11,4.11l90.17,2.25-2-14.73c-23.06,8.71-47.1,11-71.52,8a298.42,298.42,0,0,1-35.29-6.89c-11.83-2.91-24.19-5.47-35.51-10l-2,14.73c23.14-1.86,46.28-3.67,69.49-4.26,11.36-.29,22.71-.34,34.07-.34,2,0,7.14.91,8.76,0q2.37.38-.42-1.65c-1.29-2-1.69-2.3-1.17-.9a10.41,10.41,0,0,0,1.14,3.14,31.63,31.63,0,0,0,9.06,12.42c5.43,4.54,14.75.4,12.53-7.3a36.78,36.78,0,0,0-5.32-11.27c-5.49-7.73-18.17-.73-12.95,7.57a72.47,72.47,0,0,0,8.3,10.79c6,6.42,15.65-1.75,11.78-9.09l-5.3-10.06-11.78,9.09,7.78,9.5c4.67,5.7,15.14-.42,12.54-7.29a27.62,27.62,0,0,1-1.78-6.22l-14,3.79c2.25,4.65,6.09,8.55,11.59,8.47,5.89-.1,9.82-4.57,10.23-10.17l-14.73,2c2.15,6.15,4,13.23,12,12.53,6.17-.53,12.72-4,18.3-6.41L347,240.78c-.87.67-2.29.45-3.24.38l3.79,14a127.32,127.32,0,0,1,13-4.58c8.3-2.49,6.36-14.19-2-14.73-6.07-.4-11.26-5.69-16.53-8.3a78.33,78.33,0,0,0-18.09-6,209.62,209.62,0,0,0-44.59-5A225.62,225.62,0,0,0,235.78,221c-14.5,2.8-28.86,6.55-43.54,8.36-4,.5-7.5,3.09-7.5,7.5,0,3.67,3.45,8,7.5,7.5Z"/><path class="cls-2" d="M229.24,257.06c-3-11.8-23.5-7.6-31.73-5.87a89.05,89.05,0,0,0-37.6,18.26,84.82,84.82,0,0,0-24.85,33.1c-.53,1.3-.89,3.17-1.65,4.33-1.84,2.8-3,1.84-5.5,2.32a13.31,13.31,0,0,0-6.73,3.55c-4.53,4.33-6.53,10.8-7.88,16.75a2.53,2.53,0,0,0,2.41,3.16l21.41.17a2.56,2.56,0,0,0,2.41-1.84,44.76,44.76,0,0,0,1.55-18.41c-.39-3.15-5.4-3.19-5,0a41.42,41.42,0,0,1-1.37,17.08l2.41-1.83-21.41-.17,2.41,3.17c1.23-5.4,3.06-13.06,8.41-15.91,4.5-2.39,8.69.23,11.21-5.39s4.62-11.43,8-16.81a81.19,81.19,0,0,1,11.78-14.48,84.85,84.85,0,0,1,31.63-19.56,79.26,79.26,0,0,1,17.47-3.89c4.43-.46,16.27-2.28,17.77,3.59.79,3.12,5.61,1.8,4.82-1.32Z"/><path class="cls-2" d="M236.55,261.62c-.43-13.08-17.1-12.52-26.08-10-11.61,3.25-23.83,7.71-33.48,15.11-9.86,7.55-15,18.16-17.27,30.22-.55,2.91-.32,7.16-1.42,9.88s-5.18,3.72-7.21,5.73c-4,4-5.77,9.75-7.2,15.11a2.54,2.54,0,0,0,2.41,3.17c4.3.21,8.6.33,12.9.29,3.59,0,8.24.51,11.66-.69,2.59-.92,3.33-2.85,3.72-5.39.71-4.62.87-9.39,1.29-14a2.51,2.51,0,0,0-2.5-2.5l-9.8-.1c-3.22,0-3.22,5,0,5l9.8.1-2.5-2.5-.8,8.81c-.14,1.53-.19,5-1.66,6-.85.59-3.62.16-4.6.2-5.84.18-11.67.09-17.51-.2l2.41,3.16c1.29-4.82,2.69-10.28,6.73-13.56,3.2-2.59,6.61-2.75,7.68-7.28,1.23-5.18,1.33-10.57,2.74-15.76a40.21,40.21,0,0,1,7.78-15.7c6.35-7.5,15.4-12.13,24.43-15.61a140.29,140.29,0,0,1,14.63-4.9c5.29-1.4,18.57-3.23,18.85,5.44.11,3.21,5.11,3.23,5,0Z"/><path class="cls-2" d="M240.71,264.55l.48.32a2.51,2.51,0,0,0,3-.39c6.66-6.94-7.53-14-12.76-14.88-10.36-1.71-22,1.73-30.71,7.37-9.13,5.93-15.8,15.13-17.56,26a35.26,35.26,0,0,0,.82,15.56c.64,2.14,3.18,5.45,3.34,7.45.26,3.13-1.43,4.26-3.91,5.14l-6.56,2.31a2.56,2.56,0,0,0-1.74,3.07l3,12.9a2.56,2.56,0,0,0,3.08,1.75c6.34-1.34,18.81-2.76,21.37-10,2.62-7.41-5.17-12.07-11.49-11.93l.67,4.91,2.49-.78c3.06-.95,1.76-5.78-1.33-4.82l-2.49.78c-2.62.82-2.24,5,.66,4.91s6.36.93,6.94,4.37c.5,3-5.24,4.28-7.11,4.88a110.46,110.46,0,0,1-11,2.87l3.07,1.75-3-12.89-1.75,3.07c6.77-2.38,19.09-4.41,13.9-14.07s-6-20.13-.75-30.1c4.69-8.91,13.54-15.05,23-17.92a38.58,38.58,0,0,1,14.42-1.86,19.71,19.71,0,0,1,6.95,1.78c.72.36,5.84,3.93,4.93,4.88l3-.39-.48-.31c-2.69-1.79-5.2,2.54-2.53,4.31Z"/><path class="cls-2" d="M252,262.45c-3.07-8.09-11.55-10.48-19.52-10.84-9.85-.43-17.7,3.14-21.38,12.64-4,10.28-2.93,22.76-1.62,33.43.25,2,1.06,5.85-.49,7.28a12,12,0,0,1-2.58,1.16,8.67,8.67,0,0,0-3.91,3.35c-2.32,4.14.88,9.09-1.35,13a2.52,2.52,0,0,0,2.15,3.76c6,.33,16,0,18.14-7,2-6.56.92-15-6.07-17.63-3-1.15-4.32,3.68-1.33,4.82,4.81,1.84,4.1,11.48.16,13.59-3,1.63-7.53,1.44-10.9,1.26l2.16,3.76c1.68-3,1.31-5.75,1.14-9-.14-2.62-.09-4,2.33-5.58,1.28-.81,2.83-1.08,4-2.11,2.8-2.45,2.23-5.69,1.78-9a125,125,0,0,1-1.17-17.18c0-7.66.35-18.55,7.49-23.28,6.39-4.24,22.95-3.49,26.15,5,1.13,3,6,1.68,4.82-1.33Z"/><path class="cls-2" d="M234.22,250.63a49.57,49.57,0,0,0-41.68,22.88A66.65,66.65,0,0,0,187,285.38c-1.27,3.36-3.07,12.46-6.51,13.23-1.53.34-3.16-.24-4.79.27a11.42,11.42,0,0,0-7.86,11.29c.14,3.21,5.14,3.23,5,0a6.21,6.21,0,0,1,4.19-6.47c1.8-.6,3.28.29,5,.05,2.69-.36,3.63-2,4.76-4.34,3.45-7.22,5.24-15.16,9.26-22.11,7.77-13.45,22.7-21.64,38.12-21.67,3.22,0,3.22-5,0-5Z"/><path class="cls-2" d="M225.35,250.78c-16.59,1.57-35.84,4.35-49.11,15.32-6.55,5.43-12.44,12.2-17.84,18.75-2.57,3.13-4.84,6.43-7.1,9.78s-5,7.51-9.54,7.81a2.55,2.55,0,0,0-2.41,1.84,22.27,22.27,0,0,0,.23,9.16c.73,3.13,5.55,1.8,4.82-1.33a14.86,14.86,0,0,1-.23-6.5l-2.41,1.83c6.56-.44,10.4-5.16,13.85-10.28a160.23,160.23,0,0,1,16.85-20.47c6.57-6.95,13.38-12,22.54-14.95a142.67,142.67,0,0,1,30.35-6c3.18-.3,3.21-5.3,0-5Z"/><path class="cls-2" d="M173.06,238.24c31.88-13.56,66.72-22.61,101.54-22.22a165.46,165.46,0,0,1,47.59,7.89c15.37,4.76,30.83,10.68,44.32,19.56,2.7,1.78,5.21-2.55,2.53-4.32-10.53-6.92-22.28-11.94-34.09-16.23-12.13-4.39-24.66-8.15-37.44-10.08-27.56-4.17-55.92-.89-82.78,6a309,309,0,0,0-44.19,15.11c-2.95,1.26-.41,5.57,2.52,4.32Z"/></svg>