<svg id="Layer_1" data-name="Layer 1" xmlns="http://www.w3.org/2000/svg" viewBox="0 0 558.85 512.17"><defs><style>.cls-1{fill:none;stroke:#000;stroke-miterlimit:10;stroke-width:3px;}.cls-2{fill:#787878;}.cls-3{fill:#231f20;}.cls-4{fill:#fff;}</style></defs><title>makeyouown</title><line class="cls-1" x1="249.41" y1="271.52" x2="112.14" y2="408.79"/><rect class="cls-2" x="216.04" y="167.75" width="192.17" height="81.04" rx="18.41" ry="18.41" transform="translate(-55.85 281.71) rotate(-45)"/><path class="cls-3" d="M393.94,180.23l-63.35,63.35-38,38c-2.71,2.71-5.35,5.53-8.15,8.16-7.8,7.33-17.47,5.77-24.59-1.34l-19.74-19.74c-5.59-5.6-14.15-11.81-14.44-20.39-.23-6.74,3.67-11,8-15.28l12.76-12.76,81.76-81.77,10.5-10.5c6.8-6.8,16.48-8.37,24-1.42,10.71,9.87,21.34,20.48,31.2,31.2a16.24,16.24,0,0,1,0,22.52c-2.18,2.36,1.34,5.9,3.53,3.53,8.64-9.33,7.44-22-1.23-30.8-6.82-6.88-13.7-13.7-20.55-20.55-5.85-5.85-11.69-13.54-20.25-15.19-8.19-1.58-15.06,2-20.65,7.56L255.26,204.3c-9.35,9.35-18.83,18.58-28,28.06-7.73,7.94-8.83,20.33-1.4,28.94,5.19,6,11.33,11.41,17,17s10.8,11.79,16.89,16.7c8.68,7,20.65,5.69,28.43-1.89,9.46-9.2,18.68-18.67,28-28l79.72-79.72,1.65-1.66C399.75,181.48,396.22,178,393.94,180.23Z"/><rect class="cls-4" x="242.43" y="183.26" width="139.4" height="50.02" transform="translate(-55.85 281.71) rotate(-45)"/><path d="M377.89,176.26l-86.45,86.46-12.12,12.11,2.54-.22-29-29c-1.56-1.56-3.61-4.61-5.6-5.59-1.15-.57-.13-1.08-.85.29a2.05,2.05,0,0,1,.47-.46c2.62-2,4.89-4.89,7.22-7.23l69.88-69.87,21-21-2.53.22,35.37,35.37c.9.91,3.65-.27,2.65-1.26l-35.37-35.37a1.85,1.85,0,0,0-2.53.22l-86.45,86.46L244,239.46a.8.8,0,0,0-.12,1l35.37,35.37a1.85,1.85,0,0,0,2.54-.22l86.45-86.45,12.11-12.12C381.58,175.81,378.78,175.37,377.89,176.26Z"/><path class="cls-3" d="M285,243.86a7.67,7.67,0,0,1,.19-4.82,7.38,7.38,0,0,1-4.48-.23,9.21,9.21,0,0,1-2.86-1.87,7.81,7.81,0,0,1-2.34-6c.09-2.39,1.25-4.72,3.51-7s4.57-3.42,7-3.5a7.81,7.81,0,0,1,6,2.34,9.36,9.36,0,0,1,1.88,2.85,6.42,6.42,0,0,1,.08,4.32,8.89,8.89,0,0,1,5,0,10,10,0,0,1,4.28,2.59,9.12,9.12,0,0,1,2.73,6.95q-.1,4.09-3.89,7.88t-7.72,3.73a9.43,9.43,0,0,1-6.78-2.9A9.68,9.68,0,0,1,285,243.86ZM295.28,245a5,5,0,0,0,4.77-4.77,6.11,6.11,0,0,0-5.21-5.19,5.09,5.09,0,0,0-4.74,4.74,5.08,5.08,0,0,0,1.74,3.5A5.14,5.14,0,0,0,295.28,245Zm-10-10.54a4.55,4.55,0,0,0,4.19-4.19,4,4,0,0,0-1.27-2.75,4,4,0,0,0-2.82-1.35,4,4,0,0,0-2.85,1.35,3.68,3.68,0,0,0,0,5.69A3.88,3.88,0,0,0,285.31,234.44Z"/><path class="cls-3" d="M305.78,203.09q4.77,1.29,10.34,6.87T323,220.29q1.29,4.74-3,9.05t-9,3q-4.74-1.29-10.32-6.86t-6.88-10.34q-1.29-4.77,3-9.07T305.78,203.09Zm5.91,23.19a3.62,3.62,0,0,0,4.67-.55,3.58,3.58,0,0,0,.53-4.64,31.36,31.36,0,0,0-5.33-6.56,30.64,30.64,0,0,0-6.65-5.41,3.53,3.53,0,0,0-4.54.63,3.58,3.58,0,0,0-.65,4.56,40,40,0,0,0,12,12Z"/><path class="cls-3" d="M312.13,190.68a7.17,7.17,0,1,1-2.05,5A6.82,6.82,0,0,1,312.13,190.68Zm2.5,7.54a3.57,3.57,0,0,0,5,0,3.57,3.57,0,0,0,0-5,3.57,3.57,0,0,0-5,0,3.57,3.57,0,0,0,0,5Z"/><path class="cls-3" d="M320.62,181.82l16.32-16.33,4,4-11.58,11.57,5.27,5.27,10.15-10.14,4,4-10.14,10.15,9.6,9.6-4.75,4.75Z"/></svg>