<svg id="Layer_1" data-name="Layer 1" xmlns="http://www.w3.org/2000/svg" viewBox="0 0 510.2 276.51"><defs><style>.cls-1{fill:#231f20;}.cls-2{opacity:0.3;}.cls-3{fill:#4f3c18;}</style></defs><title>makeyouown</title><path class="cls-1" d="M160,173.53c20.19.8,34.7-15.61,39.9-33.74,1.28-4.49,1.67-9.11,2.78-13.62,1.91-7.75,9.13-7,15.62-6.84a241.58,241.58,0,0,1,36.5,3.69q8.75,1.56,17.36,3.76c2.41.62,4.82,1.27,7.21,2,1.5.43,3,.88,4.48,1.34,3,.92,4.66,1,6.1,4,1.3,2.68.95,3.47-.56,6a28.31,28.31,0,0,1-2.45,3.26c-1.64,2-3.43,3.89-5.23,5.74a111,111,0,0,1-12.28,10.86,129.6,129.6,0,0,1-54.64,23.74c-18.66,3.49-49.32,6.75-61.24-12.1l-3.42,3.42a155.26,155.26,0,0,0,96,18.89c13.92-1.81,29.86-4.76,40.82-14.25a26.15,26.15,0,0,0,9-16.94c1.05-8.93-1.67-17.9.81-26.69.87-3.11-3.95-4.43-4.82-1.33-4.06,14.4,4.4,30.85-9.08,41.88-11,9-27.62,11.48-41.28,12.85a150.64,150.64,0,0,1-89-18.72c-2.12-1.2-4.8,1.25-3.43,3.42,11.39,18,36.58,18.1,55.39,16.07,22.12-2.38,43.84-9.77,62.3-22.31a112.75,112.75,0,0,0,24.55-22.2c2.67-3.3,5.43-7.68,4.57-12.16-1-5.3-6.35-6.79-10.86-8.18a246,246,0,0,0-39.87-8.76q-9.27-1.25-18.6-1.81c-6.23-.38-13.58-1.4-19.73.15-4.76,1.21-7.64,4.72-9,9.32-1.89,6.59-2.22,13.29-4.78,19.76-5.47,13.85-17.63,25.23-33.24,24.61-3.22-.13-3.21,4.87,0,5Z"/><path class="cls-1" d="M150.54,173.36a196,196,0,0,0-45-11.87,182.6,182.6,0,0,0-22-1.81c-5.18-.08-9.6,1.49-10.4,7.22-1.61,11.71,12.15,16.18,20,20.86,5.75,3.42,12.94,11.38,4.37,16.51-6.36,3.82-15.19,1.18-22.17,1.24C57,205.67,38.32,209,20.1,211a2.54,2.54,0,0,0-1.77,4.27,125.28,125.28,0,0,0,23.78,21.39A121.13,121.13,0,0,0,56.33,245c4.36,2.19,9.34,5,14.23,5.68,8.65,1.29,16.39-9.58,21-15.52,6-7.65,9.82-16.2,8.28-26a2.43,2.43,0,0,0-1.75-1.74l-8.34-2.25c-3.11-.83-4.43,4-1.33,4.83l8.34,2.24-1.74-1.75c1.46,9.33-3.72,17.59-9.6,24.34A68.58,68.58,0,0,1,76.37,244c-4.62,3.56-10,.29-14.54-1.86a120.15,120.15,0,0,1-40-30.47L20.1,216l31.75-3.43c9.88-1.06,19.78-2.48,29.74-1.8,7.28.49,15.34,1.32,21.12-4.14a11.84,11.84,0,0,0,1.81-15.12c-3.54-5.75-9.83-8.47-15.58-11.41-3.48-1.78-7.45-4-9.59-7.4s-2.25-6.61,3.23-8c2.09-.53,5.29.16,7.45.29a192.29,192.29,0,0,1,59.18,13.23c3,1.18,4.3-3.65,1.33-4.82Z"/><path class="cls-1" d="M44,215.4a29.19,29.19,0,0,0,6.72,3.77c1.79.72,2.57-2.18.8-2.9a26,26,0,0,1-6-3.46c-1.54-1.17-3,1.43-1.52,2.59Z"/><path class="cls-1" d="M45.81,216.51a20.9,20.9,0,0,1-9.59,4.17c-1.89.33-1.09,3.22.8,2.89a23.91,23.91,0,0,0,10.91-4.94c1.52-1.2-.62-3.31-2.12-2.12Z"/><path class="cls-1" d="M59,218.77a57.51,57.51,0,0,0-15,6.09,1.52,1.52,0,0,0-.31,2.36,10.15,10.15,0,0,0,7,2.72,1.5,1.5,0,0,0,0-3,7,7,0,0,1-4.91-1.84l-.31,2.35a54.76,54.76,0,0,1,14.31-5.79c1.87-.47,1.08-3.36-.8-2.89Z"/><path class="cls-1" d="M53.06,224.56,58.2,228c1.62,1.06,3.12-1.53,1.52-2.59L54.57,222c-1.61-1.06-3.12,1.53-1.51,2.59Z"/><path class="cls-1" d="M60.24,218.06c-2.22.34-1.62,3.08-.62,4.27a21.25,21.25,0,0,0,5.19,4.4c1.65,1,3.16-1.58,1.52-2.59A19.39,19.39,0,0,1,63.5,222c-.38-.35-.75-.72-1.11-1.1a6.62,6.62,0,0,0-.6-.68.28.28,0,0,1-.1-.14c-.12-.4-.34-.12-.65.84a1.51,1.51,0,0,0,1.05-1.85,1.55,1.55,0,0,0-1.85-1.05Z"/><path class="cls-1" d="M55.33,235.83C63.11,237,69.6,232.56,77,230.9l-1.69-2.2c-1.09,1.88-2.23,3.73-3.5,5.5s-3.12,5-5.08,5.93l2,.54-.15-.26-.24,1.81.18-.16c1.42-1.32-.71-3.44-2.12-2.12l-.18.16a1.53,1.53,0,0,0-.23,1.82l.15.26a1.53,1.53,0,0,0,2,.54c4-2,7.49-8.76,9.66-12.51a1.52,1.52,0,0,0-1.7-2.2c-6.62,1.49-13,6-20,4.93-1.89-.29-2.7,2.6-.79,2.89Z"/><path class="cls-1" d="M64.56,236.07a8.33,8.33,0,0,0,5.66,2.68c1.92.14,1.91-2.86,0-3a5.22,5.22,0,0,1-3.54-1.8c-1.31-1.43-3.42.7-2.12,2.12Z"/><g class="cls-2"><path class="cls-3" d="M274.39,178.32c2.43-4.33,5.45-8.14,7.93-12.44s4.44-9.39,4.17-14.24c-.49-8.56-7.33-12.71-13.4-15.61-15.75-7.5-32.08-15.12-49.91-13.35a15.6,15.6,0,0,0-8.58,3c-3.21,2.54-5.31,6.89-7.09,11.1-2.48,5.86-4.51,13.62-1.16,17.51,3.11,3.63,8.54,1.22,13.09-.48,11.43-4.28,23.45-2.82,32.74,4,8.22,6,14.36,16,23.5,19.94"/></g></svg>