<svg id="Layer_1" data-name="Layer 1" xmlns="http://www.w3.org/2000/svg" viewBox="0 0 820.75 406.82"><defs><style>.cls-1{fill:#231f20;}</style></defs><title>makeyouown</title><path class="cls-1" d="M198.13,75.82a170.93,170.93,0,0,0-3.83,70.81c.86,5.59,10,4.24,9.82-1.33-.41-10.73.95-22.66,9.07-30.53,6.8-6.6,18.39-9.16,24.89-.74,7.35,9.5-2.3,17.49-10.62,21.43-5.09,2.4-11.31,4.3-17,4.14-2.05,0-4.58-.25-5.06-2.5-.59-2.74,2.91-6.08,4.58-7.78,4.52-4.59-2.55-11.67-7.07-7.07-4.31,4.39-8.65,10.3-7.46,16.82,1.06,5.82,6,9.35,11.58,10.22,12.59,2,29.35-4.52,37.85-13.88,8.19-9,7.37-22-1.53-30.35-9.16-8.55-22.82-8-32.75-1-13.35,9.4-17.09,25.78-16.49,41.28l9.82-1.33a158.74,158.74,0,0,1,3.83-65.49c1.69-6.22-8-8.87-9.64-2.66Z"/><path class="cls-1" d="M264.32,107.21c6.72-2.77,14.41-2.14,19.51,3.49a16.52,16.52,0,0,1,4.32,9.71c.25,4.09-1.91,6.28-5.31,8.3-4.91,2.93-16.72,7.27-18.27-1.15A22.77,22.77,0,0,1,271,107.74c4.49-4.62-2.58-11.7-7.07-7.07-8.1,8.36-12.65,22.14-7.79,33.34,5.36,12.35,22.63,8.8,31.8,3.34,5.05-3,9.27-7.17,10.09-13.21a25,25,0,0,0-4-16.6,26.53,26.53,0,0,0-32.28-10c-5.87,2.41-3.3,12.09,2.65,9.64Z"/><path class="cls-1" d="M317.27,88.58c-6.22,15.41-11.83,40-.44,54.41,4.86,6.15,12.41,9.2,20.11,7.27,8.72-2.17,14.33-9.47,19.32-16.39,3.78-5.23-4.9-10.22-8.63-5.05-3.47,4.8-7.73,11-14.08,12-6.19,1-10.33-4.75-11.79-10-3.52-12.6.41-27.81,5.15-39.56,2.41-6-7.26-8.57-9.64-2.66Z"/><path class="cls-1" d="M287.21,113.67A202,202,0,0,0,337,110.33c6.31-1.2,3.64-10.84-2.66-9.64a191.6,191.6,0,0,1-47.15,3c-6.43-.38-6.41,9.62,0,10Z"/><path class="cls-1" d="M352.18,93.9c-5.69,15.3-6.41,37.39,4.47,50.8,11,13.57,30.51,6.75,37.15-7.35,2.73-5.79-5.89-10.88-8.63-5-5.22,11.07-18.45,13.64-23.61,1-4.81-11.73-4.09-25.09.26-36.8,2.25-6-7.41-8.64-9.64-2.65Z"/><path class="cls-1" d="M339.21,117.48q18.9-.56,37.7-2.48c6.34-.65,6.4-10.66,0-10q-18.81,1.92-37.7,2.48c-6.42.18-6.44,10.18,0,10Z"/><path class="cls-1" d="M395.77,91.8c-5.75,7.47-5.4,20.16-5.44,29.12A129.58,129.58,0,0,0,394.6,154a5,5,0,0,0,8.36,2.21l4.33-4.46c4.49-4.62-2.57-11.7-7.07-7.07l-4.33,4.46,8.36,2.2a117.88,117.88,0,0,1-3.91-28.58c-.09-7.75-.9-19.46,4.07-25.92,3.92-5.09-4.76-10.07-8.64-5Z"/><path class="cls-1" d="M418.11,126.2a170.94,170.94,0,0,0,24.1-2.51c6.78-1.21,15.05-2.27,21.12-5.7,5.17-2.93,7.54-10.1,2.75-14.5-4.6-4.22-13.34-4.44-19.17-3.81-12.39,1.34-26.07,9.29-28.35,22.51-2.36,13.71,8.73,22.29,21.11,24,15.59,2.1,31.11-3.14,43.13-13,5-4.09-2.14-11.13-7.08-7.07A46.5,46.5,0,0,1,445,136.6c-4.77-.14-10.48-.93-14.09-4.37-4.32-4.1-2.81-10.62.69-14.7s8.95-6.69,14.26-7.66a27.52,27.52,0,0,1,8.35-.24c1.17.15,2.29.55,3.45.71,3.65.5,0-.43-.71-.46-2.64-.08-6.34,1.8-9,2.42q-4.63,1.1-9.35,1.91a151.36,151.36,0,0,1-20.5,2c-6.42.21-6.45,10.21,0,10Z"/><path class="cls-1" d="M533.64,106.12l-2.19,17.34c-.58,4.57-1.77,9.59-.33,14.12,2.77,8.7,13.92,10.25,21.68,9.2,18.7-2.52,30.29-20.94,25.6-39-.87-3.37-5.94-5.2-8.36-2.21-9,11.15-11.62,24.63-13,38.56-.34,3.46-.6,6.92-.91,10.37-.25,2.75-.08,6.73-1.7,9.15-1.9,2.86-7.1,1-9.84.26-3-.79-7.29-2.23-7.68-5.87-.67-6.33-10.68-6.4-10,0,1,9.13,8.06,14,16.52,15.86s17.12,1.8,20.7-7.57c3-8,2.33-17.75,3.34-26.18,1.17-9.69,3.38-19.75,9.65-27.51l-8.36-2.2c3.18,12.24-4.52,24.72-17.3,26.44a17.56,17.56,0,0,1-8.15-.55c-3.46-1.3-2.95-4-2.59-7.13.87-7.72,1.95-15.41,2.92-23.12.81-6.36-9.2-6.31-10,0Z"/><path class="cls-1" d="M597.78,119c5.53-4.72,13,.49,11.94,7.16-1.21,7.55-8.65,11.11-15.43,12.38a21.78,21.78,0,0,1-5.51.58c-2.1-.17-2.15.12-2.42-2.08-.39-3.07.83-6.68,2.19-9.39,3.09-6.2,9.19-11.23,16.18-12.15,6.28-.83,6.37-10.84,0-10a32.49,32.49,0,0,0-27.32,23.41c-1.48,5.41-2.27,13.36,2.37,17.49,4.83,4.3,13,2.79,18.69,1.46,12.55-3,24.56-14.28,20.72-28.27-3.46-12.59-19.16-15.63-28.48-7.66-4.9,4.19,2.21,11.24,7.07,7.07Z"/><path class="cls-1" d="M617.89,109.2c1.27,9.32,0,18.9,4.64,27.47,3.71,6.83,10.78,11.4,18.7,10.21,7.54-1.14,13.88-6.92,16.76-13.82,3.66-8.8,2.13-18.51.21-27.53-1.35-6.29-11-3.63-9.65,2.66s2.7,13,.85,19.29c-1.37,4.66-5.55,9.71-10.85,9.62-12.37-.2-10-22.93-11-30.56-.87-6.34-10.5-3.64-9.64,2.66Z"/><path class="cls-1" d="M667.21,106l-4.07,43.71,9.82-1.33c-.81-5.24-1.76-11.19,0-16.35s6.21-8.29,11-10.49c11.3-5.17,24.2-7.09,36.54-7l-4.83-6.32-.27.78,3.5-3.49-.8.23c-6.19,1.74-3.56,11.39,2.65,9.64a6.1,6.1,0,0,0,4.57-4.51c1.07-3.12-1.75-6.31-4.82-6.33-15.09-.09-32.52,2.39-45.58,10.5-13.32,8.26-13.77,21.93-11.59,36,.92,6,9.34,3.85,9.82-1.33L677.21,106c.59-6.41-9.41-6.36-10,0Z"/><path class="cls-1" d="M268.86,162.49a369.49,369.49,0,0,0-1.73,58.09c.31,6.39,10.21,6.46,10,0l-.17-5.1c-.21-6.42-10.21-6.45-10,0l.17,5.1h10a369.49,369.49,0,0,1,1.73-58.09c.69-6.39-9.31-6.34-10,0Z"/><path class="cls-1" d="M302.63,171.75q-21.78,10-42.54,22c-4.49,2.59-2.26,9,2.52,9.32a76.89,76.89,0,0,1,32.77,9.54c8.3,4.65,17.15,13.85,27.12,7.66,5.45-3.4.44-12.05-5.05-8.64-4.08,2.54-9.3-2.84-12.6-5a85.41,85.41,0,0,0-13.54-7.07,88.57,88.57,0,0,0-28.7-6.51l2.53,9.31q20.75-12,42.54-22c5.84-2.68.77-11.3-5.05-8.64Z"/><path class="cls-1" d="M330.56,180.75a71.21,71.21,0,0,0-7.82,19.33c-1.31,5.63-2.59,12.26,0,17.73,5.07,10.87,19.52,8.91,28.48,4.75,10.71-5,16.84-16.86,12.79-28.36-3.89-11.07-15.81-16.55-26.91-13.84-6.25,1.52-3.61,11.16,2.66,9.64s13.27,1.71,15.06,8.29c2.12,7.77-3.29,13.86-10.29,16.23-2.76.94-6.21,1.84-9.17,1.32-3.73-.65-4.25-3.55-4-7,.62-8.1,3.84-16.1,7.86-23.06,3.22-5.58-5.41-10.63-8.63-5.05Z"/><path class="cls-1" d="M374.56,185a176.56,176.56,0,0,0,2.8,36.8c.84,4.68,9,4.88,9.64,0,1.37-10.11-4.34-26,7.67-31,5.38-2.23,9.79-2,12.51,3.51a36.74,36.74,0,0,1,3.23,19.09h10c-.2-11.37.73-22.79,13.81-25.52a14,14,0,0,1,4.1-.56c2.09.23,2.17.79,2.87,2.37,1.09,2.46,1,6.32,1.35,9l3,20.66c.71,4.82,8.83,4.72,9.64,0l.89-5.17c1.08-6.29-8.55-9-9.64-2.66l-.89,5.17h9.64c-1.44-9.78-2.17-20-4.4-29.63-2.11-9.16-9.45-10.53-17.72-9.09-7.86,1.36-15.15,5.28-19,12.52-3.69,7-3.86,15.21-3.72,22.93.11,6.5,9.53,6.36,10,0,1.08-14.72-4.88-37.41-23.91-33.58-7,1.42-13.94,5.28-17.11,11.91-4.24,8.87-.79,18.21-2,27.45H387A164.2,164.2,0,0,1,384.56,185c.19-6.43-9.81-6.43-10,0Z"/><path class="cls-1" d="M459.93,172q3.72,25.14,8.53,50.1c.94,4.82,8.64,4.72,9.65,0,1.94-9.12-4.71-18.85,3.82-25.91,3.41-2.81,9.39-5.47,13.88-5.27,5.13.23,4.77,6.75,3.75,10.4-2.51,9-11.27,14.91-20.26,15.91a36.73,36.73,0,0,1-14.58-1.53,29.13,29.13,0,0,1-7-2.85c-.63-.39-4.12-3.1-2.36-3.48,6.28-1.36,3.62-11-2.66-9.64-6.57,1.42-9.52,9.17-6.68,15,3.45,7.1,12.95,10.19,20.13,11.64,15.67,3.16,33.52-2,41-17.21,3.07-6.27,4.39-14.11,1.16-20.6-3.84-7.73-11.7-8.55-19.32-6.58s-15.19,6.15-19.18,13.24a20.78,20.78,0,0,0-2.68,11c.17,4.41,2.26,8.83,1.32,13.22h9.65q-4.83-25-8.54-50.1c-.93-6.35-10.57-3.65-9.64,2.66Z"/><path class="cls-1" d="M508.05,186.79c.34,17.3,8.62,45.67,31.63,37.73,18.85-6.51,24-29.27,11.8-44.24-4.06-5-11.09,2.12-7.07,7.07,7.83,9.65,3.29,24.6-8.78,28-14.32,4-17.39-18.95-17.58-28.52-.13-6.43-10.13-6.45-10,0Z"/><path class="cls-1" d="M584.93,178.44c-7.93,1-15.38,5.14-18.86,12.62a17.54,17.54,0,0,0,4.15,20.57c14,12.75,32.3,2,40.63-11.49,3.39-5.49-5.26-10.52-8.63-5-4.62,7.49-13.51,15.62-22.82,10.83-9.69-5-3.35-16.41,5.53-17.48,6.31-.75,6.39-10.76,0-10Z"/><path class="cls-1" d="M597.66,171.55c.76,16.88,2.41,34,11,48.92,2.81,4.87,10.74,1.65,9.14-3.85-3.41-11.75,3.33-24.17,15.69-26.44,3.84-.7,4.9.48,5.74,4.21a42.06,42.06,0,0,1,.6,9.38c0,6.23,0,12.45,2.43,18.28,1.55,3.68,5.18,4.69,8.36,2.21l3.26-2.55c5.07-4-2.06-11-7.07-7.07l-3.26,2.55,8.35,2.21c-3.7-8.81-1-18.51-3-27.67-.86-3.89-2.62-8-6.12-10.19s-8-1.79-11.91-1c-17.58,3.52-27.57,21.92-22.68,38.74l9.14-3.86c-7.71-13.35-9-28.77-9.66-43.87-.3-6.41-10.3-6.44-10,0Z"/><path class="cls-1" d="M695.59,191.11a11.06,11.06,0,0,0-8.72-10.23c-5.7-1.39-10.91,1.89-14.94,5.56-8.4,7.66-16.36,18.95-11.58,30.68,4.57,11.21,17.41,13.14,26.17,5.28,9.13-8.19,10.4-21.25,11-32.73h-10c.37,7.51-3.08,14.9-1.47,22.41,1.43,6.72,6.32,11.38,12.54,13.87,13.35,5.36,29.09.28,39.11-9.29,4.67-4.46-2.41-11.52-7.07-7.07-7.14,6.82-18.46,10.81-28.12,7.2-11.75-4.39-4.54-18-5-27.12-.32-6.44-9.67-6.44-10,0-.32,6.05-.66,12.34-2.9,18.05-1.7,4.32-7.79,13.18-13.17,8.49-4.67-4.09-2.19-11,.74-15.22a45.85,45.85,0,0,1,6.26-7c.2-.19,6.9-5.64,7.14-2.93.54,6.37,10.54,6.43,10,0Z"/><path class="cls-1" d="M117.58,44.87A55.1,55.1,0,0,0,139.42,65c2.86,1.46,5.39-2.85,2.52-4.32a50.28,50.28,0,0,1-20-18.32c-1.7-2.72-6-.22-4.31,2.52Z"/><path class="cls-1" d="M139.43,39.66a92.5,92.5,0,0,1,12.91,17.5c1.6,2.8,5.92.28,4.32-2.52A97.75,97.75,0,0,0,143,36.12c-2.21-2.35-5.74,1.19-3.53,3.54Z"/><path class="cls-1" d="M161.27,29.12a40.43,40.43,0,0,1,6.58,23.2c-.06,3.22,4.94,3.22,5,0a45.32,45.32,0,0,0-7.26-25.72c-1.74-2.7-6.07-.19-4.32,2.52Z"/><path class="cls-1" d="M616.43,36.26a48.64,48.64,0,0,0,13.46,14.53c2.62,1.88,5.12-2.46,2.53-4.32a42.65,42.65,0,0,1-11.68-12.73c-1.65-2.76-6-.25-4.31,2.52Z"/><path class="cls-1" d="M655.65,24.84a33.06,33.06,0,0,1-.08,16.09c-.79,3.12,4,4.45,4.82,1.33a38.63,38.63,0,0,0,.08-18.75c-.76-3.13-5.58-1.8-4.82,1.33Z"/><path class="cls-1" d="M689.39,28.94a32,32,0,0,1-7.34,16.78c-2.07,2.44,1.45,6,3.54,3.54a36.75,36.75,0,0,0,8.62-19c.42-3.15-4.39-4.51-4.82-1.33Z"/><path class="cls-1" d="M549.74,259.83,573.86,271c2.9,1.34,5.44-3,2.52-4.32l-24.12-11.14c-2.9-1.34-5.44,3-2.52,4.31Z"/><path class="cls-1" d="M513.37,261.39A38.22,38.22,0,0,1,517,275.66c.2,3.2,5.2,3.22,5,0a44.61,44.61,0,0,0-4.36-16.8c-1.38-2.9-5.69-.36-4.31,2.53Z"/><path class="cls-1" d="M483.12,261.2a48.44,48.44,0,0,0-18.44,22.57c-1.21,3,3.63,4.27,4.82,1.33a42.64,42.64,0,0,1,16.14-19.58c2.68-1.77.18-6.1-2.52-4.32Z"/></svg>