<svg id="Layer_1" data-name="Layer 1" xmlns="http://www.w3.org/2000/svg" viewBox="0 0 820.75 406.82"><defs><style>.cls-1{fill:#231f20;}</style></defs><title>makeyouown</title><path class="cls-1" d="M191.4,81.07c-.09,11.38,3.41,28.06,13.8,34.65,13,8.26,29.19-5.8,34.29-17.29l-9.14-3.86c-4.17,13.17,8.39,25.31,21.42,22,14.67-3.76,18.55-20.74,11.6-32.8-3.21-5.58-11.85-.55-8.63,5,3.49,6.07,3.07,14.69-4.26,17.66-6.17,2.49-12.56-2.68-10.49-9.23,1.68-5.29-6.81-9.09-9.14-3.85C228,99.79,216.62,113.64,209,105.93c-5.8-5.87-7.67-17-7.61-24.86,0-6.43-10-6.44-10,0Z"/><path class="cls-1" d="M271,66.63a338.58,338.58,0,0,0,5.47,44c1.23,6.38,10.64,3.59,9.65-2.66-1.22-7.62,4.19-15.43,11.2-18.12,1.51-.58,3.74-1.32,5.38-.95,2.82.64,2.32,3.53,2.45,5.93l.9,16.59a5.06,5.06,0,0,0,7.52,4.32l4.76-2.65c5.62-3.13.58-11.77-5.05-8.63l-4.76,2.64,7.53,4.32-.85-15.62c-.19-3.53,0-7.44-1.57-10.71C310.46,78.39,302.31,78,296,79.75c-13.37,3.75-21.65,17.37-19.51,30.85l9.65-2.66A316.9,316.9,0,0,1,281,66.63c-.37-6.4-10.37-6.44-10,0Z"/><path class="cls-1" d="M348.4,75.81c-8.74.6-16.82,4.36-22.31,11.3-5.69,7.2-5.81,16.35,2.83,21.3,16.12,9.25,34.67-7.89,28.25-24.75A5,5,0,0,0,347.35,85c-1,12.57-.35,28.54,13,34.66,10,4.59,22.95-2,22.8-13.61-.08-6.43-10.08-6.45-10,0,.1,7.32-9.22,5.4-12.35,1.54-5.06-6.21-4-15.18-3.41-22.59l-9.82,1.33c3,7.89-3.2,17.25-12.23,14-5.74-2-2.37-6.56.85-9.44a20.32,20.32,0,0,1,12.25-5.11c6.38-.44,6.43-10.44,0-10Z"/><path class="cls-1" d="M380,72.09c1.82,13.65-3.87,29.85,7.31,40.88,11.45,11.28,26.65,2,36.49-6.36,4.91-4.17-2.19-11.22-7.07-7.07-6.51,5.53-19,14.4-24.67,3.08C387.41,93.38,391.3,82,390,72.09c-.84-6.29-10.85-6.37-10,0Z"/><path class="cls-1" d="M359.31,87.69a271.5,271.5,0,0,0,57.07.38c6.35-.62,6.41-10.63,0-10a271.5,271.5,0,0,1-57.07-.38c-6.38-.71-6.33,9.29,0,10Z"/><path class="cls-1" d="M461.35,77.85c-4.76,15.38,3.87,32.73,20.55,35,15.78,2.14,29.23-12.52,24.81-28.1-1.55-5.46-9.7-4.33-9.82,1.33-.27,12.41,4.42,25.18,2.2,37.53a17.69,17.69,0,0,1-8.21,12.4c-2.39,1.5-3.83,1.61-6.55,1.08s-7.52-1.67-6.43-5.36c1.85-6.18-7.8-8.82-9.64-2.66-2.74,9.21,5.06,16.05,13.41,17.67s15.16-1.23,20.88-7.57c13.06-14.49,4-36,4.34-53.09l-9.83,1.33c2.7,9.47-6,17.52-15.31,15.31-10-2.39-13.56-13.14-10.75-22.2,1.91-6.16-7.74-8.8-9.65-2.66Z"/><path class="cls-1" d="M543.05,93.2c5.67,1,9.67,7.15,6.41,12.5s-13.33,9.83-19.29,7.21c-5.47-2.41-5.41-9.92-3-14.51,3.3-6.24,10.58-9.57,16.87-11.94,6-2.24,3.38-11.91-2.66-9.64-10.5,4-22,10.17-25,21.93-2.75,10.72,2.51,22.77,14.19,24.6,10.82,1.69,25.07-5.07,29-15.69,3.77-10.23-3.16-22.14-13.85-24.1-6.29-1.16-9,8.48-2.66,9.64Z"/><path class="cls-1" d="M572.09,81.11c-3.5,7.22-7,14.89-5.57,23.1,1.23,7.16,6,13.22,13.29,14.76,16.61,3.53,25.15-13.71,28-26.92.93-4.38-5-9.13-8.36-4.87-9.07,11.51-11.93,28.75.36,39.34,10.61,9.14,27.52,5.34,32-8.3,2-6.14-7.65-8.76-9.64-2.66-2.54,7.8-12.55,7.47-17.21,2-5.85-6.9-3.59-16.71,1.59-23.29l-8.36-4.86c-1.62,7.65-4.62,19.53-14.38,19.92-12.7.52-5.74-17.53-3-23.15s-5.82-10.84-8.64-5Z"/><path class="cls-1" d="M270.92,145.35A150.53,150.53,0,0,0,287.64,191c2.7,4.82,11.13,1.58,9.13-3.85-3.64-9.93-5.76-21.55-.49-31.33,3.56-6.6,14.7-16,22.08-9,5.79,5.52,4.12,15.93,3.83,23-.37,9,.56,18.21,7.23,24.87,4.57,4.56,11.64-2.51,7.08-7.07-7.93-7.91-3.08-22-4.3-32-1.3-10.52-7.13-20.43-18.75-21-11.34-.59-21.65,7.58-26.45,17.37-5.85,11.93-4.32,25.67.13,37.78l9.14-3.85a142.14,142.14,0,0,1-15.71-43.31c-1.2-6.32-10.84-3.64-9.64,2.66Z"/><path class="cls-1" d="M342.87,170.88l29.2-.12c6.77,0,15.85,1.24,21.3-3.87s2.58-12.32-3.18-15.46c-6.85-3.74-15.85-5-23.52-4.09-13.83,1.62-27,12.27-27.46,26.95a24.61,24.61,0,0,0,7,17.91c5.57,5.52,13.51,6.81,21.06,6.61a60.73,60.73,0,0,0,45-22.16c4-5-3-12.06-7.08-7.07a51.48,51.48,0,0,1-33.33,18.9c-6.38.81-15,1.18-19.5-4.3a14.83,14.83,0,0,1-1.57-15.81c6.73-13.49,23.12-12.53,35-7.9.79.75,1,.48.61-.8a5.35,5.35,0,0,1-1.62.63c-1.49-.06-3.38.4-4.93.42-3.89.05-7.79,0-11.68.05l-25.31.11c-6.43,0-6.44,10,0,10Z"/><path class="cls-1" d="M408.2,171.76a52.73,52.73,0,0,0,24.59,1.05c5.92-1.17,13.59-3.75,15.13-10.46,1.84-8-6.35-10.15-12.36-11.1-6.83-1.07-14.08-1.8-20.8.3-13.17,4.1-19.4,18.21-15.26,31.1,4.23,13.15,17.7,20.21,31,20.16,15.65-.06,30.59-9.72,35.5-24.79,2-6.14-7.66-8.77-9.65-2.66-3.42,10.52-14.32,17.19-25.13,17.45-10.65.25-22.18-5.63-22.91-17.35-.82-13.1,11.42-16.13,22.09-14.91.81.09,8.1,1.86,8.45,1.46l-.62-2a6.12,6.12,0,0,1-2.1,1.53,18.57,18.57,0,0,1-4.22,1.22,41.35,41.35,0,0,1-21-.67c-6.21-1.74-8.86,7.91-2.66,9.65Z"/><path class="cls-1" d="M508.64,159.83c-13-2.22-29.59-2.8-36.9,10.59-2.76,5.06-3.67,11.31-1.33,16.69,2.77,6.33,9.22,9.25,15.75,10.13,13.25,1.8,26.42-5,34.24-15.49,9.09-12.23,10.24-28.36,7.09-42.82-.6-2.76-3.62-4-6.15-3.5-11.74,2.42-18.37,17.25-20.81,27.73-2.85,12.23-1.37,25.88,6.18,36.2a39.76,39.76,0,0,0,29.14,16.37c11.38.76,24.87-5.16,27.28-17.32,1.24-6.29-8.39-9-9.65-2.66-1.7,8.61-12.18,11-19.71,9.74a29.85,29.85,0,0,1-20-13.49c-4.64-7.51-5.59-16.89-3.75-25.42,1.53-7.1,5.8-19.82,14-21.5l-6.15-3.49c4,18.31-2.21,41.65-23.23,45.6-7.58,1.42-19.05-1.36-14.51-11.18,4.4-9.5,17.44-8,25.87-6.54,6.29,1.07,9-8.56,2.66-9.64Z"/><path class="cls-1" d="M636.1,64.47l-.05-9.34c0-1.66-.79-6.71.1-8.07L634,48.3l-.92-.43-.64-2.44-.08.4c-.6,3.14,4.22,4.49,4.82,1.33a3.05,3.05,0,0,0-5.75-2c-1,2.09-.4,5.55-.38,7.81l.06,11.5c0,3.21,5,3.22,5,0Z"/><path class="cls-1" d="M656.47,69.72c5.6-5.9,10.91-12.06,16.5-17.95,2.22-2.34-1.31-5.88-3.53-3.54-5.6,5.9-10.91,12.05-16.5,18-2.22,2.33,1.31,5.88,3.53,3.54Z"/><path class="cls-1" d="M674.87,73.1q13.14-3.6,25.88-8.39c3-1.12,1.69-6-1.33-4.82q-12.75,4.8-25.87,8.39c-3.1.85-1.79,5.67,1.32,4.82Z"/><path class="cls-1" d="M149.12,37.77l23.64,10.49c2.92,1.29,5.46-3,2.52-4.32L151.64,33.45c-2.92-1.3-5.46,3-2.52,4.32Z"/><path class="cls-1" d="M163.47,22.21l15.44,21.13c1.88,2.57,6.22.08,4.32-2.52L167.79,19.69c-1.88-2.57-6.22-.08-4.32,2.52Z"/><path class="cls-1" d="M198.41,20.93l1.67,22.69c.23,3.19,5.23,3.22,5,0l-1.67-22.69c-.23-3.19-5.23-3.21-5,0Z"/><path class="cls-1" d="M481,238.37q11.12,8.55,21.47,18c2.37,2.16,5.92-1.36,3.53-3.54q-10.83-9.89-22.47-18.8c-2.55-2-5.05,2.38-2.53,4.32Z"/><path class="cls-1" d="M438.63,240.84a51.37,51.37,0,0,1-.86,18.66c-.73,3.13,4.09,4.47,4.82,1.33a55.12,55.12,0,0,0,1-20c-.42-3.14-5.43-3.18-5,0Z"/><path class="cls-1" d="M393.85,233.5l-18.2,18.43c-2.27,2.29,1.27,5.83,3.53,3.53L397.39,237c2.26-2.29-1.27-5.83-3.54-3.54Z"/></svg>