<svg id="Layer_1" data-name="Layer 1" xmlns="http://www.w3.org/2000/svg" viewBox="0 0 311.45 308.18"><defs><style>.cls-1{fill:#231f20;}.cls-2{fill:#fff;}</style></defs><title>makeyouown</title><path class="cls-1" d="M219.38,116.22l5.16-41.61c0-.17-.46-.2-.51-.21a73.59,73.59,0,0,0-16.45.41c-1.17.15-2.58,1.35-.53,1.07,2.82-.38,13.48-2.58,14.35,1.49.29,1.37-.56,4.54-.74,5.94l-.86,6.94L216.48,117c0,.36,2.79.11,2.9-.77Z"/><path class="cls-1" d="M207.42,182.15a246,246,0,0,0,10.4-53.27c.09-1-2.8-.42-2.88.42a245.46,245.46,0,0,1-10.41,53.28c-.26.82,2.61.44,2.89-.43Z"/><path class="cls-1" d="M212.62,74.39c-27.87,5.88-56.42,7.36-84.84,6.15-14.38-.62-28.73-1.91-43-3.62-7.36-.88-14.7-1.69-21.87-3.62-5.17-1.4-10.19-2.88-15.58-2.9-.38,0-2.64.59-1.94,1.27.94.92,5.8,5.37,7.24,2,1.22-2.83-4.08-3.42-5.67-3.27-.36,0-2.16.59-1.57,1.24,6,6.65,12.93,12.31,18.69,19.13,3.3,3.91,7.34,8.8,7.67,14.11.3,4.83-.44,10-.6,14.82-.7,22.2-.44,44.49,2.24,66.56a256.35,256.35,0,0,0,6,32.64c.42,1.65.57,4.09,1.53,5.49.77,1.12,3.3,2,4.45,2.52a44.75,44.75,0,0,0,13.93,3.13,586.34,586.34,0,0,0,68,1.91c8.31-.19,18.38,1.15,23.91-6.56,2.93-4.1,4.37-9.84,5.93-14.58a174.45,174.45,0,0,1,6.18-17c.33-.73-2.5-.44-2.89.42-3.79,8.44-5.9,17.49-9.41,26-1.1,2.67-2.33,6-4.86,7.65-3.63,2.37-8.71,2.34-12.92,2.46q-7.63.23-15.29.31c-10.26.11-20.52,0-30.78-.38-10.55-.4-22-.24-32.34-2.49-5.5-1.2-10.72-2.74-12.29-8.79q-2-7.57-3.42-15.28a288.79,288.79,0,0,1-4-29.3,480.91,480.91,0,0,1-1-59.18c.18-5,1.61-10.9-.64-15.52a48.09,48.09,0,0,0-6.27-9.46c-5.86-7.07-13.06-12.87-19.18-19.71l-1.57,1.25c2.14-.2,2,1.5,3.26,1.73,1.91.35-1.57-2.86-1.69-3l-1.94,1.28c7.14,0,13.74,2.89,20.66,4.27,7.21,1.44,14.67,2.07,22,2.88,13.85,1.54,27.75,2.66,41.68,3.13,27.68.95,55.39-.8,82.53-6.51,1.75-.37,1.4-1.61-.34-1.25Z"/><path class="cls-1" d="M216.45,129.71c3.09-.63,28.94-6.65,29.41-1.46.12,1.34-2.23,4.63-2.81,5.87q-2.27,4.81-4.49,9.65c-3.57,7.69-7.16,15.38-10.84,23-1.83,3.79-3.41,8-5.67,11.52-3.22,5.07-11.42,4.32-16.92,5-1.64.19-2.21,2.42-.24,2.19,3.76-.44,7.52-.87,11.28-1.32,1.93-.23,4.14-.26,5.81-1.41,3.11-2.12,4.57-7.47,6.16-10.71,5.1-10.4,10-20.91,14.84-31.41,1.6-3.46,3.19-6.93,4.86-10.35,1-2,2.28-4.19,0-5.91-1.36-1-3.17-.7-4.74-.58-3.21.23-6.42.57-9.62,1-5.91.7-11.76,1.74-17.58,2.93-1.83.38-1.26,2.43.55,2.06Z"/><path class="cls-1" d="M201.83,193.06c9.1.65,22.19,3.79,29.15-4.39,4.3-5.06,6.91-12.46,9.73-18.37,4.82-10.12,9.39-20.38,13.63-30.75,1.94-4.74,3.82-9.51,5.49-14.35,1.22-3.52,3.53-8.26-.07-11.17-2.48-2-6.39-1.2-9.26-1.18-3.79,0-7.59,0-11.39.06a77.29,77.29,0,0,0-21.91,3.65c-2,.62-.11,1,1,.68,8.94-2.87,17.77-3.18,27.06-3.18,3.71,0,11.23-1.34,13.13,2.72,1.1,2.33-.11,5-.86,7.25-3.31,10-7.52,19.8-11.78,29.46-4.12,9.38-8.39,18.73-13.1,27.83a43.74,43.74,0,0,1-4.15,7.33c-5.52,6.88-17.24,3.75-24.81,3.21-.64-.05-3.31,1.1-1.87,1.2Z"/><path class="cls-2" d="M80.58,105.59c40.3,3.72,76.83,1.66,116.51,2.94A10.46,10.46,0,0,1,207,121.12c-6.36,30.24-18.46,96-25.21,99.9-6.13,3.5-65.69-.53-83.63-1.34-2.89-.13-6-.33-8.35-2-4-2.73-4.72-8.28-5-13.13-.84-13-9.35-88.22-4.59-98.93"/><path class="cls-1" d="M45.86,70.33q44.79-1.86,89.62-1.57,21.77.15,43.52.82c14.48.45,30-.3,44.11,3.51,1.16.32,3.43-1.38,1.7-1.85-13.44-3.64-28-3.1-41.81-3.55q-23.24-.75-46.48-.91-45.2-.33-90.37,1.57c-1.59.06-2.27,2.06-.29,2Z"/><path class="cls-1" d="M74.25,111.55l18.33.44c1.13,0,3.07-1.64,1.12-1.69l-18.34-.44c-1.12,0-3.07,1.64-1.11,1.69Z"/><path class="cls-1" d="M71.93,134.4l19.47.83c1,0,3.11-1.44,1.16-1.53l-19.47-.83c-1,0-3.1,1.45-1.16,1.53Z"/><path class="cls-1" d="M72.7,157.47l19.11.81c.57,0,3.27-1,1.91-1.08l-19.11-.82c-.57,0-3.27,1-1.91,1.09Z"/><path class="cls-1" d="M77,180.64l20.24.36c1.71,0,2.18-2.23.22-2.26l-20.25-.37c-1.7,0-2.17,2.23-.21,2.27Z"/></svg>