<svg id="Layer_1" data-name="Layer 1" xmlns="http://www.w3.org/2000/svg" viewBox="0 0 311.45 411.82"><defs><style>.cls-1{fill:#666766;}.cls-2,.cls-6{fill:#fff;}.cls-3{fill:#231f20;}.cls-4{fill:#c2c1c0;}.cls-5{opacity:0.03;}.cls-6{opacity:0.4;}.cls-7{fill:none;stroke:#000;stroke-miterlimit:10;stroke-width:3px;}</style></defs><title>makeyouown</title><ellipse class="cls-1" cx="173.58" cy="363.61" rx="120.56" ry="45.54"/><path class="cls-2" d="M277.79,133.09C277.79,116,251,86.56,239,74.28a20,20,0,0,1-5.67-14V41.85H96.43V60.17a20,20,0,0,1-5.86,14.15c-12.44,12.41-40.36,42.12-40.36,58.77,0,0,5.24,229.53,5.24,230,0,13.69,46,39.17,108.79,39.17S273,376.75,273,363.06C273,362.52,277.79,133.09,277.79,133.09Z"/><path class="cls-3" d="M280.25,132.91c-.23-8.66-4.85-16.77-9.4-23.88a204,204,0,0,0-20.23-25.81C244.19,76.05,236,70,235.78,59.55c-.15-5.95,0-11.92,0-17.88,0-1.3-1.21-1.78-2.33-1.78H96.56c-1.07,0-2.59,1-2.59,2.14,0,5.91.09,11.83,0,17.74-.16,10.81-9,17.12-15.77,24.44a215.94,215.94,0,0,0-20,24.62c-4.67,6.87-9.94,15.07-10.39,23.62-.23,4.27.15,8.64.25,12.91q.36,16.08.73,32.15,2,85.74,3.92,171.49c.1,4.7,0,9.47.32,14.17.72,10.63,14.28,17.73,22.47,22,20.42,10.6,43.81,15.88,66.59,18a225.27,225.27,0,0,0,80.26-6.59c16.31-4.47,35-10.92,47.3-23.15,4.48-4.46,5.83-8.58,5.95-14.52q.66-32.49,1.34-65l3.27-157.87.07-3.17c.05-2.71-4.87-2.08-4.92.36q-1.4,67.08-2.78,134.17-.81,39.44-1.63,78.85c-.11,5.47,0,11-.34,16.44-.59,9.45-13.82,15.9-21,19.55-21.18,10.74-45.43,15.78-69,17.43-26.84,1.88-54.39-.76-80.07-9A131,131,0,0,1,74,379.31c-5.27-3.1-11.17-6.86-14.52-12.15-2.27-3.58-1.66-8.08-1.76-12.15Q55.9,273.73,54,192.43l-1.32-57.51c-.27-12,8.07-22.91,15.09-32A275.65,275.65,0,0,1,88.23,79.61c6.09-6.26,10.57-11.72,10.66-20.9,0-5.68,0-11.36,0-17L96.3,43.8H233.19L230.86,42c0,5.89-.07,11.78,0,17.67.12,10,5.88,15.47,12.21,22.32a240.4,240.4,0,0,1,20.05,24.32c5.45,7.72,12,17.12,12.21,26.93C275.4,136,280.31,135.34,280.25,132.91Z"/><path class="cls-4" d="M233.43,18.14H97.17v18.2a2.11,2.11,0,0,0,0,.35,2,2,0,0,0,0,.34v.3h0C99,44,128.72,49.27,165.08,49.27S231.14,44,233,37.33h.47Z"/><path class="cls-3" d="M232.82,15.91H96.56a1.33,1.33,0,0,0-1.39,1.51V36.61c0,1.21,1.3,3,2.61,3h0l-2.51-2.39C97.8,44.33,108.76,46,115,47.31c15.93,3.31,32.48,4.11,48.71,4.19,16.44.09,33.1-.64,49.31-3.5,5.85-1,19.42-2.45,21.86-9.43l-1.35,1H234a1.34,1.34,0,0,0,1.39-1.52V18.86c0-2.14-4-4.48-4-1.44V36.61l1.38-1.51h-.47a1.27,1.27,0,0,0-1.35,1c-.83,2.38-4.95,3.59-7,4.31a85.35,85.35,0,0,1-13.76,3.3C195.8,46.2,181,47,166.41,47a296.46,296.46,0,0,1-43.35-2.6,106.05,106.05,0,0,1-16.27-3.36c-1.76-.54-7.09-1.9-7.67-3.58-.36-1-1.28-2.39-2.52-2.39h0l2.61,2.95V18.86l-1.39,1.51H234C236.77,20.37,234.91,15.91,232.82,15.91Z"/><ellipse class="cls-4" cx="165.08" cy="17.55" rx="67.96" ry="12.58"/><path class="cls-3" d="M230.69,17.2c-.27,3.64-11,5.53-13.44,6.11-10,2.35-20.44,3.34-30.7,4-23.05,1.47-46.87,1.24-69.64-3a78.45,78.45,0,0,1-11.21-2.78c-1.34-.47-5.66-1.57-6.09-3.23-.82-3.14,8.72-5.34,10.63-5.86C131,6.82,154,6.66,175.33,7.22a243.58,243.58,0,0,1,37.93,3.55c2.66.49,17.13,2.41,17.43,6.43.19,2.49,4.93,3.64,4.71.69-.4-5.31-7.6-7.57-11.77-8.85-10.65-3.25-22-4.44-33.06-5.27-26.46-2-54.78-2.18-80.73,4.11-4.28,1-13.51,2.81-14.92,8.08-1.32,5,5.41,7.89,9,9.21,9.71,3.61,20.49,4.78,30.73,5.74A343,343,0,0,0,179,32c13.8-.5,27.83-1.56,41.29-4.82,4.72-1.14,14.6-3.07,15.07-9.32C235.59,15.4,230.92,14.24,230.69,17.2Z"/><path class="cls-2" d="M164.68,48.36c-34.84,0-63.84-6.21-70.19-14.43a5.57,5.57,0,0,0-1.31,3.4c0,9.84,32,17.82,71.5,17.82s71.5-8,71.5-17.82a5.52,5.52,0,0,0-1.31-3.39C228.52,42.15,199.52,48.36,164.68,48.36Z"/><path class="cls-3" d="M165.39,46.76c-14.89,0-29.91-1-44.53-4-7.78-1.58-18.88-3.57-24.28-10.1-.91-1.09-3.52.09-4.11,1C81.89,50.05,130.08,54.8,137.26,55.51a274.42,274.42,0,0,0,49.48.32c12.76-1.07,25.95-2.8,38-7.33,5.8-2.17,17.56-7.58,12.44-15.51-.95-1.46-3.47-.35-4.33.69-5.26,6.35-16.87,8-24.4,9.46-14.17,2.73-28.67,3.57-43.07,3.62-2.06,0-4.69,3.22-1.42,3.21,16.19-.06,32.58-1.11,48.41-4.67,8.2-1.84,18.85-4.28,24.51-11.11l-4.33.69c5.8,9-14.61,13-19.78,14.15-15.78,3.57-32.21,4.56-48.34,4.51-15.95,0-32.24-1.18-47.79-4.9-4.58-1.09-25.63-6-20.15-14.45l-4.11,1C97.93,41.88,109,44,117,45.68,132.37,49,148.25,49.92,164,50,166,50,168.66,46.77,165.39,46.76Z"/><path class="cls-5" d="M223.43,147.8s32.73,96.66-36.83,237.35c0,0,66.25-7.5,75.75-35.76l4.09-215.87c.8,2.81-4.12,6-11.31,8.38C245.56,145.07,232.05,147.12,223.43,147.8Z"/><path class="cls-6" d="M91.75,107.16,78.49,126.71A27.65,27.65,0,0,1,76,129.93c-5.7,6.2-7.38,11.2-7,19.65l6.82,196.06a12.45,12.45,0,0,0,5.13,9.3c5,3.9,13.36,9.52,23.11,12.51,2.84.87,5.81-1.38,4.47-3.52-18.67-29.76-17.85-169.37-15.24-210.4a32.43,32.43,0,0,1,5.48-16.11c4.67-6.93,12-16.87,17.84-20.95,6.63-4.59-2.54-11.14-10.07-14A12.5,12.5,0,0,0,91.75,107.16Z"/><ellipse class="cls-7" cx="163.27" cy="359.26" rx="108.49" ry="40.22"/></svg>