<svg id="Layer_1" data-name="Layer 1" xmlns="http://www.w3.org/2000/svg" viewBox="0 0 311.45 270.39"><defs><style>.cls-1{fill:#666766;}.cls-2,.cls-6{fill:#fff;}.cls-3{fill:#231f20;}.cls-4{fill:#e8e8e8;}.cls-5{opacity:0.03;}.cls-6{opacity:0.25;}</style></defs><title>makeyouown</title><ellipse class="cls-1" cx="121.83" cy="247.14" rx="76.3" ry="21.52"/><path class="cls-2" d="M180.64,149.29H24.52l22.29,96.62H47c.12,3.93,24.93,15.48,55.51,15.48s55.4-11.55,55.52-15.48h.29Z"/><path class="cls-3" d="M181.17,148H25.05c-.63,0-3.3.31-3,1.57l19.49,84.5,2.8,12.12c.18.79,1.26,1,2,1h.22l-2-1c.32,2.09,2.88,3.51,4.5,4.49a64.26,64.26,0,0,0,12.66,5.55,126.9,126.9,0,0,0,41.23,6.47,128.47,128.47,0,0,0,40.17-6.6,64.62,64.62,0,0,0,12.72-5.58c1.57-.95,4.37-2.48,4.67-4.52l-3,1.23h.3c.79,0,2.72-.2,3-1.23l19.49-84.5,2.79-12.12c.45-2-4.49-1.79-4.86-.16l-19.49,84.5-2.8,12.12,3-1.23h-.29c-.73,0-2.81.2-3,1.23-.26,1.7-2.88,2.89-4.19,3.64a64.72,64.72,0,0,1-11.73,4.89,121.43,121.43,0,0,1-74.08-.13,67.54,67.54,0,0,1-11.39-4.73c-1.34-.73-4.46-2.12-4.73-3.86-.12-.79-1.31-1-1.95-1h-.22l2,1-19.49-84.5L27,149l-3,1.58H180.11C182.48,150.6,184.54,148,181.17,148Z"/><ellipse class="cls-4" cx="102.6" cy="149.83" rx="77.44" ry="9.96"/><path class="cls-3" d="M177.74,150.56c-.35,3.61-15.36,4.6-17.7,4.92A359.31,359.31,0,0,1,124,158.23c-26.44.9-53.62.81-79.82-3.37a78.59,78.59,0,0,1-11-2.35c-1.42-.44-5-1.27-5.52-2.9-1.11-3.31,11.91-4.6,13.77-4.9,26.32-4.17,53.65-4.21,80.21-3.26A326.32,326.32,0,0,1,161,144.79c3,.48,16.27,1.51,16.7,6,.08.77,4.75-.49,4.61-2-.42-4.33-12-5.51-14.89-6-13.27-2.39-26.88-3.21-40.34-3.74-29.2-1.14-59.93-1.55-88.73,4.21-3.62.73-13.78,2.11-15.32,6.52-1.46,4.19,8.25,5.68,10.68,6.22,12.19,2.72,24.87,3.54,37.31,4.21,16.68.9,33.42,1,50.12.42,14.88-.5,30-1.33,44.62-4.1,3.48-.66,16-2.35,16.55-7.47C182.46,148,177.86,149.29,177.74,150.56Z"/><polygon class="cls-4" points="280.63 148.85 182.45 148.85 167.59 144.49 265.77 144.49 280.63 148.85"/><path class="cls-3" d="M282.18,147.89H186.82c-.8,0-1.63.06-2.42,0-.13,0-.26,0-.39,0,1.52.18-.68-.31-1-.41-4.34-1.44-8.8-2.59-13.19-3.88l-3.8,1.85H261.4c.8,0,1.63-.06,2.42,0,.13,0,.26,0,.39,0-1.52-.18.68.31,1,.41,4.34,1.44,8.8,2.59,13.19,3.88,1.34.39,4.7-1.71,4.5-1.77-5.26-1.55-10.91-4.11-16.39-4.45-6.08-.37-12.31,0-18.4,0h-79c-.68,0-4.39,1.68-3.8,1.85,5.26,1.55,10.91,4.12,16.39,4.45,6.08.38,12.31,0,18.4,0h78.95C280,149.82,284.45,147.89,282.18,147.89Z"/><rect class="cls-2" x="179.44" y="149.11" width="101.03" height="7.86"/><path class="cls-3" d="M177.65,158.24h101c.86,0,4.05-.92,4.05-2.12v-7.85c0-.31-.14-.43-.48-.43h-101c-.87,0-4.06.91-4.06,2.12v7.85c0,1.11,4.54-.49,4.54-1.69v-7.85l-4.06,2.11h93.73c1.87,0,4.87-.58,6.68,0,1.08.35,0-.83.14.48a59.68,59.68,0,0,1,0,6.95l4.05-2.12h-101C180.07,155.69,176.33,158.24,177.65,158.24Z"/><path d="M169.66,170.44H39.55c-.36,0-2.56.32-2.4.94L55.73,243c0,.16.4.17.5.17-.69,0,3.47,3,4,3.21a60.42,60.42,0,0,0,10.18,3.78,115.51,115.51,0,0,0,36.89,4.39A117.09,117.09,0,0,0,138,249.4c2.81-.9,12.61-3.22,13.35-7l-2.37.83h.24c.49,0,2.22-.21,2.38-.83l18.57-71.65c.14-.52-2.67-.16-2.85.53l-18.57,71.66,2.37-.83h-.24c-.46,0-2.26.22-2.38.83-.76,3.86-12,6.11-14.83,6.88a114.9,114.9,0,0,1-62.07-1c-2.57-.79-12.07-3-12.76-6.5,0-.16-.41-.17-.5-.17.56,0-.27-2.11-.47-2.91l-2.11-8.12-6.38-24.63-9.29-35.82-2.4.94H167.76C168.34,171.55,171,170.44,169.66,170.44Z"/><rect x="89.22" y="178.19" width="28.03" height="2.92"/><rect x="95.12" y="193.75" width="16.24" height="2.92"/><rect x="95.12" y="224.85" width="16.24" height="2.92"/><rect x="89.22" y="209.3" width="28.03" height="2.92"/><rect x="89.22" y="240.4" width="28.03" height="2.92"/><ellipse class="cls-2" cx="103.8" cy="170.24" rx="65.04" ry="8.33"/><path d="M167.39,170.62c-.44,3.79-13.72,4.55-16.32,4.89a309.86,309.86,0,0,1-32.06,2.3c-21.5.62-43.56.52-64.84-2.91-2.5-.4-12.8-1.17-13.78-4.43-1.08-3.64,10.78-4.72,12.86-5,21.87-3.4,44.52-3.45,66.59-2.69a274.46,274.46,0,0,1,33,2.74c2.7.42,14.08,1.26,14.53,5.14.05.46,3-.08,2.9-.77-.43-3.67-10.3-4.63-12.8-5.06-11.18-2-22.63-2.64-34-3.08-24.34-.94-50-1.25-74,3.51-2.45.49-11.15,1.52-12.07,4.79-1,3.45,7.72,4.69,9.62,5.09,24.07,5.09,50.13,4.6,74.56,3.66,12.15-.47,24.49-1.14,36.44-3.51,2.63-.52,11.79-1.66,12.22-5.4C170.32,169.59,167.48,169.81,167.39,170.62Z"/><path class="cls-5" d="M147.4,176.46s19.22-1,21.44-6.22l-18.71,72.41s-1.36,2.37-9.41,5.28c-2.16.78-5.42,1.88-8.9,2.75-2.72.69-5.58,1.15-8.09,1.69C123.73,252.37,150,202.37,147.4,176.46Z"/><path class="cls-6" d="M50.82,162.4a8.38,8.38,0,0,0-4.15-.77c-2.33.22-3.69,3.67-2.86,7.1l14.12,58.12c1.76,7.22,5.5,13.38,10.27,16.35.23.15.47.29.71.42a36.38,36.38,0,0,0,5.25,2.4l0,0c1.9.66,3.21-2.22,2.21-4.81-5.37-13.91-18.17-48.65-21.35-71.89C54.62,166.11,53,163.34,50.82,162.4Z"/></svg>