<svg id="Layer_1" data-name="Layer 1" xmlns="http://www.w3.org/2000/svg" viewBox="0 0 454.22 510.75"><defs><style>.cls-1{fill:#666766;}.cls-2{fill:#231f20;}.cls-3,.cls-8{fill:#fff;}.cls-4{fill:#f9a24c;}.cls-5{fill:#e8e8e8;}.cls-6{opacity:0.05;}.cls-7{fill:#f3ad67;}.cls-8{opacity:0.4;}.cls-9{fill:#ed2024;}</style></defs><title>makeyouown</title><ellipse class="cls-1" cx="400.84" cy="484.87" rx="50.28" ry="18.39"/><path class="cls-2" d="M339.05,347.49c3.22,0,3.23-5,0-5s-3.22,5,0,5Z"/><path class="cls-3" d="M339.05,345,349.7,475.64a14.19,14.19,0,0,0,6.21,10.62c6.62,4.44,19.16,10.4,38.42,10.4s31.86-6,38.51-10.47a14.15,14.15,0,0,0,6.23-10.64L449.71,345"/><path class="cls-2" d="M337.18,345c3.53,43.37,6.23,86.88,10.61,130.16,1.62,16,22.9,21.19,36.1,22.77,12.22,1.47,25.1.51,36.74-3.63,7.27-2.59,16.31-6.38,19.28-14.1,2.35-6.12,1.81-14.18,2.34-20.59l3.33-40.9,6-73.71c.19-2.4-3.56-2.39-3.75,0L437.41,473c-.4,4.94-1.72,9-6.18,12.05-7.89,5.42-17.88,8.19-27.27,9.26-12,1.37-24.65.32-36-4-7.2-2.71-15.32-6.52-16.37-15-2.56-20.68-3.4-41.72-5.09-62.48L340.93,345c-.2-2.39-3.95-2.41-3.75,0Z"/><path class="cls-4" d="M347.64,384l8.71,90.55a10,10,0,0,0,5.25,7.62c5.6,3.18,16.2,7.46,32.5,7.46s26.95-4.33,32.58-7.51a10,10,0,0,0,5.27-7.64l8.71-90.57C435,383.92,347.5,382.54,347.64,384Z"/><ellipse class="cls-5" cx="394.33" cy="345.33" rx="55.3" ry="14.68"/><path class="cls-2" d="M447.76,345.33c-.29,4.42-8.63,6.71-11.83,7.71a116.64,116.64,0,0,1-25.16,4.44c-18.32,1.52-37.84,1.16-55.66-3.74-3.74-1-12.42-3-14-7.36-1.45-4.14,6.13-6.83,8.83-7.83,16.71-6.2,36.11-6.6,53.68-5.81a138.11,138.11,0,0,1,29.27,4c3.71,1,14.5,3.38,14.83,8.57.15,2.4,3.9,2.42,3.75,0-.32-5-5.33-7.67-9.41-9.43-8.23-3.55-17.4-5-26.25-6-21.44-2.41-46.3-2.58-66.86,5-4.17,1.54-10.42,4-11.65,8.9-1.13,4.54,3.08,7.81,6.59,9.7,7.66,4.12,16.86,5.64,25.37,6.77a193.8,193.8,0,0,0,37.07,1.24c11.13-.66,22.77-1.92,33.3-5.8,4.72-1.75,11.46-4.55,11.84-10.41C451.66,342.92,447.91,342.93,447.76,345.33Z"/><path class="cls-6" d="M401.47,489.14S423.57,457,422,383.74l18.54.2L432,474.49S433,485.64,401.47,489.14Z"/><ellipse class="cls-7" cx="393.99" cy="383.26" rx="46.32" ry="12.66"/><path class="cls-8" d="M352.31,366.28l10.2,108.51a6.05,6.05,0,0,0,2.21,4.12,25.56,25.56,0,0,0,9,4.88,1.31,1.31,0,0,0,1.55-1.81c-7.47-16.33-14.67-113.48-10.15-115.7C365.12,366.28,355.58,364.2,352.31,366.28Z"/><ellipse class="cls-1" cx="189.93" cy="455.67" rx="75.87" ry="21.13"/><path class="cls-3" d="M251.75,244.11c-1.27-10.17-4.44-20.32-10.65-28.48-5.42-7.13-13-12.53-17.74-20.1h-.64l-8.53-78.75c0-2.29-1.54-4.42-3.26-6.24a3.87,3.87,0,0,1-.13-5.06c.28-.35.49-7.73.55-10.38a17.67,17.67,0,0,0,0-1.78L209.88,70a20.43,20.43,0,0,0-.32-2.58l-4.68-25.06-.61-4a8.42,8.42,0,0,0-8.28-7H164.6a8.42,8.42,0,0,0-8.31,7.23l-.56,3.64-5.1,26.51a21.55,21.55,0,0,0-.36,3l-1.06,22.55c0,.24.11,10.48.27,10.72a3.74,3.74,0,0,1-.36,4.87c-2,2-3.82,4.39-3.82,7L137,193.62l-.85,0c-4.78,7.57-12.32,13-17.74,20.1-6.21,8.17-9.38,18.31-10.65,28.49s0,185.16.51,195.4h.53a39.38,39.38,0,0,0,3.61,9.93,28.45,28.45,0,0,0,8,9.78c4.46,3.3,10,4.8,15.4,6,0,0,27.8,6.47,36.14,6.24,17.34-.5,34.77-.57,51.71-4.32,5.42-1.19,10.93-2.69,15.4-6a28.45,28.45,0,0,0,8-9.78,39.59,39.59,0,0,0,3.61-9.94h.53C251.76,429.28,253,254.29,251.75,244.11Z"/><path d="M254.16,243.45c-1.51-11.16-5.07-22-12.27-30.83-3.34-4.09-7.29-7.62-10.89-11.48-2.33-2.5-4.53-8-8.28-8.12l2.5,2.5-8.11-74.87c-.14-1.24-.26-2.49-.41-3.74-.49-4.15-3.63-6.91-3.42-11a172.15,172.15,0,0,0,.11-19.54c-.39-6.3-.37-12.77-1.32-19s-2.32-12.53-3.48-18.77c-.94-5-1-12.29-4.49-16.16-4.32-4.83-11.31-3.68-17.13-3.68-7.14,0-14.29-.17-21.42,0-8.16.19-11,5.52-12.23,12.73-1.95,11.18-5.18,22.31-5.71,33.68-.3,6.33-.78,12.68-.9,19a88.89,88.89,0,0,0,.19,9.66c.19,2,.46,3.39-.72,5.4-1.57,2.67-3,4.34-3.38,7.54-3,24.68-5.36,49.45-8,74.17l-.29,2.68,2.5-2.5c-2.15-.05-2.68.88-3.88,2.53a85.68,85.68,0,0,1-9,10.09c-5.64,5.7-10.53,11.58-13.75,19A64.33,64.33,0,0,0,105,246.14c-.43,12.87-.32,25.77-.33,38.65q-.06,59,.56,117.93c.11,11.61-.06,23.28.5,34.87a2.53,2.53,0,0,0,2.5,2.5h.53l-2.41-1.83c1.92,7.91,5.68,15.75,12.28,20.81,5,3.83,11.14,5.42,17.19,6.79,9.83,2.23,19.74,4.44,29.75,5.7,7.21.9,14.54.3,21.79,0a237,237,0,0,0,29.39-2.53c8.21-1.32,17.3-2.9,24.07-8.08,6.6-5.05,10.37-12.9,12.28-20.82L250.71,442h.53a2.54,2.54,0,0,0,2.5-2.5c1.09-22.45.6-45.07.75-67.54.23-33.54.43-67.08.27-100.62,0-9,.53-18.31-.51-27.25-.37-3.15-5.37-3.19-5,0,.86,7.38.43,15.06.48,22.47.1,15,.08,30,.05,45q-.12,50.31-.62,100.63c-.09,9.08,0,18.21-.42,27.28l2.5-2.5h-.53a2.54,2.54,0,0,0-2.41,1.83c-2.08,8.6-6.44,16.84-14.76,20.75-7.6,3.57-16.81,4.66-25,5.6-8.61,1-17.28,1.31-25.94,1.56-5.69.16-11.32.54-17-.19-9.11-1.19-18.15-3.19-27.1-5.22-4.24-1-8.58-1.82-12.54-3.68-8.32-3.89-12.68-12.15-14.76-20.73a2.55,2.55,0,0,0-2.41-1.84h-.53l2.5,2.5c-1.3-26.88-.68-54-.84-80.9-.21-34.68-.57-69.38,0-104.06a97.44,97.44,0,0,1,.5-11.47c1.31-9.9,4.83-19.8,11.26-27.54,5.37-6.46,12-11.7,16.65-18.76l-2.16,1.24.85,0a2.57,2.57,0,0,0,2.5-2.5l7.84-72.39c.14-1.27.18-2.61.42-3.87.73-3.8,4.83-6.09,5-10,.06-1.5-.62-2.83-.83-4.26a42.78,42.78,0,0,1-.11-5.55c0-2,0-3.93.07-5.91.31-6.52.44-13.07.92-19.57.41-5.57,1.88-11.11,2.94-16.58,1-5.15,2-10.3,2.86-15.46,1.45-8.31,10.55-6.34,16.91-6.34s13.11-.43,19.58,0c7.25.48,7,7,8.06,12.62,2.22,11.86,4.26,23.24,5,35.27a182,182,0,0,1,.61,18.39,25,25,0,0,1-.74,5.41c-.47,1.84-.79,3.37.06,5.19,1.23,2.64,3.32,4.45,3.79,7.43,2.23,14,3.08,28.43,4.61,42.55l3.79,34.92a2.57,2.57,0,0,0,2.5,2.5h.64l-2.16-1.24c4.83,7.28,11.72,12.62,17.16,19.37,6.58,8.17,9.59,18.38,11,28.62C249.77,248,254.59,246.6,254.16,243.45Z"/><rect class="cls-9" x="154.75" y="23.32" width="51.86" height="6.61" rx="3.3" ry="3.3"/><rect class="cls-9" x="160.47" y="33.58" width="40.14" height="6.61" rx="3.3" ry="3.3"/><path class="cls-3" d="M200,2.46H161.9c-2.44,0-4.44,1.22-4.44,2.71l3.36,15.27c0,1.49,2,2.71,4.44,2.71h31.41c2.45,0,4.45-1.22,4.45-2.71l3.36-15.27C204.48,3.68,202.48,2.46,200,2.46Z"/><path d="M201,1.83H172.43c-4.58,0-17.16-1.92-16,5.44.42,2.77,1.21,5.54,1.82,8.27.37,1.71.48,4.12,1.27,5.72,1.67,3.33,6.61,2.52,9.76,2.52h17.47c3.49,0,7.28.42,10.75-.14,5.64-.92,5.51-5.37,6.56-10.12,1.13-5.12,4.33-11-3.06-11.69-.68-.06-3.33,1.11-1.86,1.26,6.4.63,2.74,7.79,1.85,11.85-.74,3.36-.61,6.85-4.5,7.58-3.44.65-7.65,0-11.14,0H171.1c-3.14,0-7.22.68-8.85-2.54s-1.73-7.87-2.47-11.24c-.44-2-1.32-3.35.18-4.77,1.18-1.11,1.71-.88,3.23-.88H199.1C199.77,3.09,202.4,1.83,201,1.83Z"/><path class="cls-4" d="M242.57,247.88c-1.1-9.18-3.86-18.34-9.26-25.71-4.71-6.43-12.27-11.3-16.42-18.13l-.56,0L208.91,133c0-2.06-1.33-4-2.82-5.63-1.14-1.26-50.57-1.87-51.73-.69-1.76,1.78-3.32,4-3.32,6.32l-7.24,69.35h-.73c-4.16,6.83-11.72,11.7-16.43,18.13-5.4,7.37-8.15,16.53-9.26,25.71s.91,176.34.91,176.34c.65,3.12,1.71,18.14,3.14,21a25.49,25.49,0,0,0,7,8.82c3.88,3,8.67,4.33,13.38,5.42,0,0,24.17,5.84,31.42,5.63,15.07-.45,30.22-.52,44.95-3.89,4.71-1.09,9.5-2.44,13.38-5.42a25.37,25.37,0,0,0,7-8.82,36.63,36.63,0,0,0,3.15-9l.46-12C242.58,415,243.68,257.06,242.57,247.88Z"/><path class="cls-6" d="M195,125.21l1.88,71.94A28.6,28.6,0,0,0,201.93,213c6.64,9.39,15.66,53.23-6.08,247.59,0,0,24.58.27,35.69-7.58,0,0,7.48-4.89,10.13-17.79,0,0,2.42-187.49.9-188.33,0,0-1.78-16.27-9.26-25.71,0,0-17.16-17.83-17-18.15s-6.21-57.73-6.21-57.73L208.91,132s.38-1.85-2.82-5.63Z"/><path class="cls-8" d="M167.41,118.93c-2-1.27-5.08-2.35-8.09-.57L153,210.62c-11.46,5.73-28.2,23.47-24.47,77a13.2,13.2,0,0,1,.15,1.76c-.67,9.91-11.54,111.13.77,152.2,1.76,5.87,3.85,6,8.11,7.84,3.74,1.6,8.63,2,11.53,2.44,4.58.76,8.76,1.32,10.9-4.12,4.8-12.24-5-47.14-7.29-76.28C149,325.33,150,282.53,150,282.53s-1-33.45,2.11-41.06c3.61-8.83,13.54-22.21,13.75-23a9.49,9.49,0,0,0,.19-.93,5.94,5.94,0,0,0-.07-2.11l3.74-92.17A4.61,4.61,0,0,0,167.41,118.93Z"/><path class="cls-6" d="M189,2.89s7.35,20.43-5.11,37.18l13.43.12s3.28-.15,3.3-3.3.51-16.45.51-16.45l3.36-15.27L200,2.46Z"/><ellipse class="cls-1" cx="89.65" cy="489.19" rx="75.87" ry="21.13"/><path class="cls-3" d="M151.48,277.63c-1.27-10.17-4.45-20.32-10.65-28.48-5.42-7.13-13-12.53-17.75-20.1l-.64,0-8.53-78.75c0-2.28-1.54-4.41-3.25-6.23a3.86,3.86,0,0,1-.14-5.06c.29-.36.5-7.73.56-10.38,0-.6,0-1.19,0-1.78l-1.44-23.36a22.61,22.61,0,0,0-.32-2.59l-4.68-25-.62-4a8.42,8.42,0,0,0-8.28-7H64.33A8.43,8.43,0,0,0,56,72l-.55,3.64-5.1,26.5a21.69,21.69,0,0,0-.36,3l-1.06,22.54c0,.25.1,10.49.27,10.73a3.75,3.75,0,0,1-.36,4.87c-2,2-3.82,4.39-3.82,7L36.7,227.14l-.84,0c-4.78,7.57-12.33,13-17.75,20.1-6.21,8.16-9.38,18.31-10.65,28.48s0,185.17.51,195.41H8.5a39.55,39.55,0,0,0,3.62,9.93,28.31,28.31,0,0,0,8,9.77c4.46,3.31,10,4.8,15.39,6,0,0,27.8,6.48,36.14,6.24,17.34-.49,34.77-.57,51.71-4.31,5.42-1.2,10.94-2.7,15.4-6a28.51,28.51,0,0,0,8-9.77,39.55,39.55,0,0,0,3.62-10H151C151.49,462.8,152.75,287.81,151.48,277.63Z"/><path d="M153.89,277c-1.51-11.16-5.08-22-12.27-30.83-3.34-4.1-7.29-7.63-10.89-11.48-2.33-2.51-4.53-8-8.29-8.13l2.5,2.5-8.11-74.86c-.13-1.25-.26-2.49-.4-3.74-.5-4.16-3.63-6.91-3.43-11a172,172,0,0,0,.12-19.53c-.39-6.3-.38-12.78-1.32-19s-2.32-12.52-3.49-18.76c-.93-5-1-12.29-4.48-16.16-4.32-4.83-11.31-3.69-17.14-3.69-7.13,0-14.28-.17-21.41,0-8.16.2-11,5.53-12.24,12.74-1.94,11.18-5.17,22.31-5.71,33.68-.29,6.33-.78,12.68-.89,19a86.61,86.61,0,0,0,.18,9.67c.19,2,.47,3.39-.71,5.39-1.58,2.68-3,4.35-3.38,7.54-3,24.69-5.36,49.46-8,74.18l-.29,2.68,2.5-2.5c-2.14,0-2.68.88-3.87,2.53a87.4,87.4,0,0,1-9,10.08c-5.65,5.71-10.53,11.58-13.76,19a64.31,64.31,0,0,0-5.27,23.38c-.43,12.88-.32,25.78-.34,38.66q0,59,.57,117.93c.11,11.61-.07,23.27.49,34.87a2.55,2.55,0,0,0,2.5,2.5H8.5l-2.41-1.84c1.92,7.92,5.69,15.76,12.29,20.81,5,3.84,11.14,5.43,17.18,6.8,9.83,2.23,19.74,4.44,29.75,5.69,7.22.91,14.55.3,21.79.05a239,239,0,0,0,29.4-2.53c8.2-1.33,17.29-2.9,24.06-8.08,6.6-5,10.37-12.9,12.29-20.82l-2.41,1.83H151a2.55,2.55,0,0,0,2.5-2.5c1.08-22.45.6-45.07.75-67.54.23-33.54.42-67.08.26-100.62,0-9,.54-18.32-.5-27.25-.37-3.16-5.38-3.19-5,0,.86,7.38.43,15.06.48,22.47.1,15,.08,30,0,45q-.1,50.33-.62,100.64c-.09,9.08,0,18.21-.41,27.28l2.5-2.5h-.53a2.54,2.54,0,0,0-2.41,1.84c-2.08,8.6-6.44,16.84-14.77,20.75-7.59,3.56-16.8,4.66-25,5.6-8.61,1-17.28,1.31-25.94,1.56-5.68.16-11.32.54-17-.2-9.11-1.18-18.14-3.19-27.09-5.21-4.25-1-8.58-1.82-12.54-3.68C17.36,487.29,13,479,10.91,470.45a2.53,2.53,0,0,0-2.41-1.83H8l2.5,2.5c-1.3-26.89-.68-54-.84-80.9-.2-34.68-.57-69.39,0-104.07a99.84,99.84,0,0,1,.5-11.47c1.32-9.89,4.84-19.79,11.26-27.53,5.37-6.47,12-11.7,16.66-18.76l-2.16,1.24.84,0a2.56,2.56,0,0,0,2.5-2.5L47,154.75c.14-1.28.18-2.61.42-3.87.73-3.8,4.84-6.09,5-9.95,0-1.5-.63-2.84-.83-4.26a44.67,44.67,0,0,1-.12-5.55c0-2,0-3.93.08-5.91.3-6.52.44-13.07.92-19.58.41-5.56,1.88-11.11,2.93-16.57,1-5.15,2-10.3,2.87-15.46,1.45-8.31,10.55-6.35,16.91-6.35s13.11-.43,19.57,0c7.26.49,7,7,8.07,12.63,2.21,11.86,4.26,23.24,5,35.27a181.94,181.94,0,0,1,.6,18.38,24.52,24.52,0,0,1-.74,5.42c-.46,1.84-.79,3.36.07,5.19,1.23,2.64,3.32,4.45,3.79,7.43,2.23,14,3.08,28.42,4.61,42.55L119.94,229a2.57,2.57,0,0,0,2.5,2.5l.64,0-2.16-1.24c4.83,7.28,11.73,12.61,17.16,19.36,6.58,8.18,9.6,18.38,11,28.63C149.5,281.47,154.31,280.12,153.89,277Z"/><rect class="cls-9" x="54.48" y="56.84" width="51.86" height="6.61" rx="3.3" ry="3.3"/><rect class="cls-9" x="60.2" y="67.1" width="40.14" height="6.61" rx="3.3" ry="3.3"/><path class="cls-3" d="M99.76,36H61.63c-2.45,0-4.45,1.22-4.45,2.7L60.54,54c0,1.49,2,2.71,4.45,2.71H96.4c2.44,0,4.44-1.22,4.44-2.71l3.36-15.28C104.2,37.2,102.2,36,99.76,36Z"/><path d="M100.69,35.35H72.15c-4.58,0-17.16-1.92-16,5.44.42,2.77,1.22,5.53,1.82,8.27.38,1.7.48,4.12,1.28,5.72,1.67,3.33,6.6,2.51,9.76,2.51H86.44c3.48,0,7.28.43,10.74-.13,5.65-.93,5.52-5.38,6.56-10.13,1.13-5.12,4.34-11-3-11.68-.68-.07-3.33,1.11-1.86,1.26,6.39.63,2.74,7.79,1.84,11.85-.74,3.36-.6,6.85-4.49,7.58-3.45.64-7.65,0-11.15,0H70.83c-3.14,0-7.22.68-8.85-2.54s-1.74-7.87-2.48-11.24c-.44-2-1.31-3.36.19-4.77,1.18-1.11,1.71-.88,3.23-.88H98.83C99.49,36.61,102.12,35.35,100.69,35.35Z"/><path class="cls-4" d="M142.3,280.4c-1.11-9.19-3.87-18.34-9.26-25.71-4.71-6.43-12.27-11.31-16.43-18.14h-.55l-7.42-71.06c0-2.06-1.34-4-2.83-5.63-1.14-1.26-50.56-1.87-51.73-.7-1.76,1.79-3.32,4-3.32,6.33l-7.24,69.35-.73,0c-4.16,6.83-11.72,11.71-16.43,18.14-5.39,7.37-8.15,16.52-9.25,25.71S18,455,18,455c.66,3.11,1.71,18.14,3.14,21a25.49,25.49,0,0,0,7,8.82c3.88,3,8.68,4.33,13.39,5.41,0,0,24.16,5.85,31.41,5.63,15.08-.44,30.23-.51,44.95-3.89,4.71-1.08,9.51-2.43,13.39-5.41a25.49,25.49,0,0,0,7-8.82,36.41,36.41,0,0,0,3.14-9l.46-12C142.31,447.49,143.4,289.58,142.3,280.4Z"/><path class="cls-6" d="M94.68,158.73l1.89,71.93a28.62,28.62,0,0,0,5.08,15.85c6.65,9.39,15.67,53.22-6.07,247.59,0,0,24.58.26,35.69-7.58,0,0,7.48-4.89,10.12-17.8,0,0,2.43-187.49.91-188.32,0,0-1.78-16.27-9.26-25.71,0,0-17.16-17.83-17-18.15s-6.22-57.73-6.22-57.73l-1.2-13.33s.38-1.85-2.83-5.63Z"/><path class="cls-8" d="M67.14,152.45c-2.06-1.27-5.09-2.35-8.09-.57l-6.36,92.26c-11.45,5.73-28.19,23.47-24.46,77a12.93,12.93,0,0,1,.14,1.76c-.66,9.91-11.53,111.13.77,152.2,1.76,5.86,3.86,6,8.12,7.83,3.73,1.61,8.63,2,11.52,2.45,4.59.75,8.76,1.32,10.9-4.12,4.81-12.24-5-47.14-7.29-76.28-3.63-46.13-2.62-88.92-2.62-88.92s-1-33.46,2.11-41.06c3.61-8.84,13.54-22.21,13.75-23a9.26,9.26,0,0,0,.19-.92,5.94,5.94,0,0,0-.07-2.11l3.73-92.18A4.57,4.57,0,0,0,67.14,152.45Z"/><path class="cls-6" d="M88.71,36.41s7.36,20.43-5.1,37.18L97,73.71s3.29-.15,3.31-3.3.5-16.45.5-16.45l3.36-15.28L99.76,36Z"/></svg>