<svg id="Layer_1" data-name="Layer 1" xmlns="http://www.w3.org/2000/svg" viewBox="0 0 558.85 270.63"><defs><style>.cls-1{fill:#666766;}.cls-2{fill:#e8e8e8;}.cls-3,.cls-6{fill:#231f20;}.cls-4,.cls-7{fill:#fff;}.cls-5{fill:#df8026;}.cls-6{opacity:0.1;}.cls-7{opacity:0.75;}.cls-8{fill:#c0a32f;}.cls-9{fill:#d6b429;}</style></defs><title>makeyouown</title><ellipse class="cls-1" cx="205.41" cy="224.46" rx="120.56" ry="44.1"/><path class="cls-2" d="M288.34,78.38H77.79l.51,107.29a59.38,59.38,0,0,0,26.75,48.94c16.47,10.84,50.42,18.53,78.24,18.53s57.44-10.57,75.4-19.41c19.42-9.55,29.19-30.49,29.26-48.09Z"/><path class="cls-3" d="M288.34,75.88H77.79a2.53,2.53,0,0,0-2.5,2.5l.36,74.16c0,10.72.06,21.44.15,32.17a62.71,62.71,0,0,0,24.72,49.74c9.11,6.88,20.21,10.89,31.1,14a199.68,199.68,0,0,0,39,6.75c27.87,2.08,55.28-4.31,80.79-15.32,10.62-4.58,20-10.1,27.13-19.47A59.42,59.42,0,0,0,290.23,190c.79-8.73.27-17.7.3-26.45.1-27.76.61-55.56.3-83.33,0-.61,0-1.23,0-1.84,0-3.22-5-3.22-5,0l-.26,69.89-.12,34.4c-.06,16.34-5.88,32.15-18.7,42.88-9.63,8-23,12.45-34.71,16.32-13.51,4.45-27.56,7.71-41.78,8.56-24.91,1.48-52.82-2.81-75.56-13.38-20.25-9.41-33.58-29.12-33.91-51.57-.12-8.72-.08-17.44-.12-26.15l-.39-81-2.5,2.5H288.34C291.56,80.88,291.56,75.88,288.34,75.88Z"/><ellipse class="cls-4" cx="183.14" cy="84.65" rx="105.89" ry="56.64"/><path class="cls-3" d="M286.53,84.65c-.21,13.59-9.56,24.5-20.17,32-14.16,10-31.16,15.67-48.07,18.92-37.13,7.14-81.51,4.25-114.3-16.2-10.92-6.82-21.79-16.93-23.91-30.27-2-12.91,5.39-24.4,14.79-32.51,12.93-11.14,29.79-17.48,46.2-21.36a188,188,0,0,1,61.75-3.73c20.38,2.05,41.33,7.32,58.92,18.13,12.47,7.66,24.55,19.44,24.79,35,.05,3.22,5.05,3.23,5,0C291,50.49,247.93,34.5,220.4,29.08a195.37,195.37,0,0,0-66.62-1.38c-19.33,2.91-39.13,8.81-55.4,20-11.2,7.68-21.47,18.63-23.32,32.61-1.78,13.38,5,25.64,14.6,34.5,13.34,12.33,31.15,19.49,48.58,23.78a191.07,191.07,0,0,0,67.06,4c21.4-2.45,43.45-8.18,61.58-20.22,13-8.6,24.4-21.35,24.65-37.68C291.58,81.43,286.58,81.43,286.53,84.65Z"/><ellipse class="cls-2" cx="182.27" cy="87.48" rx="89.22" ry="43.63"/><path class="cls-3" d="M269,87.48c-.21,10.62-8.37,18.69-16.77,24.13-12,7.78-26.19,12-40.18,14.48-30.94,5.49-67.56,3.6-95.54-12-8.84-4.93-18.6-12.42-20.6-23C94,81,100.59,72.2,108.15,66.3c10.94-8.55,24.75-13.25,38.14-16.2A171.55,171.55,0,0,1,197.93,47c17.18,1.49,34.94,5.37,50.12,13.83C258,66.38,268.74,75.12,269,87.48c.06,3.21,5.06,3.22,5,0-.55-27.68-38.1-39.32-59.84-43.3A179.58,179.58,0,0,0,157.62,43c-16.2,2.24-32.81,6.64-46.81,15.36-9.32,5.81-18.46,14.4-20,25.83-1.45,10.7,4.62,20.27,12.54,26.93,11.31,9.51,25.87,14.89,40.11,18.19a175.77,175.77,0,0,0,57.85,3.27c17.91-1.89,36.41-6.25,51.92-15.73,10.56-6.45,20.51-16.27,20.77-29.4C274.05,84.26,269.05,84.26,269,87.48Z"/><path class="cls-5" d="M96.53,94.08c8,20,43,35.29,85.71,35.2,42.92-.08,78.59-15.81,85.74-35.62C183.72,49.49,106.18,89.05,96.53,94.08Z"/><path class="cls-2" d="M487.2,24.25V29.6S379.86,14,290.08,71.69l-9.75-11.53,80-39L456,15.58Z"/><path class="cls-3" d="M484.7,24.25V29.6l3.17-2.41c-14-2-28.31-2.22-42.38-1.92C413,26,380.41,30.93,349.5,41a267.47,267.47,0,0,0-60.68,28.5l3,.39-9.76-11.53-.5,3.92,36.87-18,26.76-13c5-2.46,11.12-4.48,15.75-7.68,1.13-.78-1.7-.09.57,0s4.52-.27,6.74-.4l25.15-1.47,55.74-3.28c2.08-.12,4.23-.4,6.32-.37,1.12,0-.86-.2.41,0,1.63.32,3.24.9,4.84,1.34l25.79,7.17c3.11.86,4.43-4,1.33-4.83l-22.55-6.26c-4.12-1.14-7.8-2.58-12.05-2.34l-52.05,3.06-28.1,1.65c-4.11.24-8.7-.05-12.75.75-3.72.72-7.53,3.38-10.9,5L324,36.12,279.06,58c-1.55.76-1.46,2.79-.5,3.92l9.76,11.54a2.51,2.51,0,0,0,3,.39C344.54,40,409.92,27,472.44,30.76c3.58.21,7.15.49,10.71.86,1,.1,2,.22,2.92.33l.47.06c1.57.23,3.17-.62,3.16-2.41V24.25C489.7,21,484.7,21,484.7,24.25Z"/><path class="cls-4" d="M267,50.13S352.57-7.22,467.57,8L487.2,23.25s-117.8-14.34-200.55,43Z"/><path class="cls-3" d="M268.28,52.29c15.16-10.14,32.52-17.64,49.52-24C358.23,13.21,401.61,6,444.74,8.38c6.72.37,14.56.07,21,1.9.12,0-.19-.45.37-.23s.78.67,1.18.92c1.33.84,2.55,2,3.79,2.94L485.43,25l1.77-4.26c-15.16-1.84-30.68-1.88-45.92-1.41-33,1-66.26,5.87-97.69,16.3a230.66,230.66,0,0,0-58.2,28.46l3,.39L268.79,48.36c-2.47-2-6,1.49-3.54,3.53L284.88,68a2.56,2.56,0,0,0,3,.39c52.87-36.33,121-46.91,184-43.82,5.09.25,10.19.54,15.25,1.16,2.06.24,3.43-3,1.77-4.27l-12.87-10c-2.05-1.59-4.05-3.27-6.16-4.77-3.07-2.19-7.55-1.87-11.25-2.25a306.54,306.54,0,0,0-74.26,1.65A323.17,323.17,0,0,0,283.29,38,172.92,172.92,0,0,0,265.76,48C263.09,49.75,265.59,54.08,268.28,52.29Z"/><path class="cls-6" d="M287.68,96.37S275,119,249.26,129.53c0,0,15.66,99.36-36.7,121.36l42.58-13.59s19.06-3.39,32-42.21Z"/><path class="cls-7" d="M88.43,126.7c-2,16.73-8.24,88.07,30.59,102.34a4.43,4.43,0,0,0,2.42.16c3.39-.72,11.58-3.38,2.44-11.26-5.43-4.68-10.66-11.2-14.63-16.69a49.52,49.52,0,0,1-8.86-21c-2.26-13.83-5.63-38.23-4.06-52.91a2.91,2.91,0,0,0-.18-1.37.69.69,0,0,0-.05-.13C94.72,122.45,88.86,123.11,88.43,126.7Z"/><path class="cls-8" d="M52.29,169.32h0l.21,22.47,24.95-.24-.22-22.47h0L64.64,154.23Zm10.25-5.61a2.19,2.19,0,1,1,2.21,2.16A2.18,2.18,0,0,1,62.54,163.71Z"/><path d="M126.86,118.54c-13.18-15.36-33.35-9.15-47.06,2.13C67,131.25,59,147.52,63.5,164.17c.35,1.29,3.25.52,2.9-.77-3.73-13.73,1.3-27.59,11-37.57,12.31-12.6,33.23-21.81,46.76-6,.82,1,3.58-.18,2.66-1.26Z"/><path class="cls-8" d="M64.8,174.09h0L65,196.55,90,196.32l-.21-22.47h0L77.15,159Zm10.25-5.62a2.19,2.19,0,1,1,2.21,2.17A2.19,2.19,0,0,1,75.05,168.47Z"/><path d="M139.36,123.31c-13.17-15.37-33.35-9.16-47.06,2.12C79.46,136,71.49,152.29,76,168.94c.34,1.28,3.24.51,2.89-.78-3.72-13.72,1.31-27.59,11-37.57,12.31-12.6,33.22-21.81,46.76-6,.82,1,3.58-.17,2.65-1.25Z"/><path class="cls-8" d="M74.92,176.47h0l.22,22.47,24.94-.24-.21-22.47h0L87.27,161.38Zm10.25-5.62A2.19,2.19,0,1,1,87.39,173,2.19,2.19,0,0,1,85.17,170.85Z"/><path d="M149.49,125.69c-13.18-15.37-33.35-9.16-47.06,2.13-12.85,10.57-20.82,26.85-16.3,43.5.35,1.29,3.25.51,2.9-.78-3.73-13.72,1.3-27.58,11-37.56,12.3-12.61,33.22-21.81,46.75-6,.82,1,3.58-.18,2.66-1.26Z"/><path class="cls-9" d="M90.61,173.33h0l-1.9,22.39,24.86,2.11,1.89-22.39h0l-11.19-16Zm10.73-4.63a2.19,2.19,0,1,1,2,2.37A2.18,2.18,0,0,1,101.34,168.7Z"/><path d="M169.35,129.46c-6.56-4.21-12.88-8.62-20.92-9.08a52.45,52.45,0,0,0-28.79,7.26c-14.15,8.65-20.17,25.8-17.36,41.76.23,1.28,3.13.55,2.9-.78-2.52-14.31,2.3-30.13,14.6-38.59a46.73,46.73,0,0,1,28.72-7.54c7.09.66,12.8,4.87,18.61,8.6,1,.66,3.59-.76,2.24-1.63Z"/><path class="cls-9" d="M57.18,161.72h0L53,183.79l24.51,4.68,4.21-22.07h0l-9.47-17Zm11.16-3.49a2.19,2.19,0,1,1,1.74,2.56A2.18,2.18,0,0,1,68.34,158.23Z"/><path d="M140.19,126.34c-9.93-17.76-31.31-15.13-46.81-6.63-14.58,8-25.3,22.3-24.15,39.46.08,1.26,3,.58,2.9-.78-1-15.18,8-28.39,20.72-36,14.66-8.79,35.05-12,44.68,5.21.6,1.09,3.38,0,2.66-1.25Z"/></svg>