<svg id="Layer_1" data-name="Layer 1" xmlns="http://www.w3.org/2000/svg" viewBox="0 0 311.45 308.18"><defs><style>.cls-1{fill:#231f20;}.cls-2{fill:#fff;}</style></defs><title>makeyouown</title><path class="cls-1" d="M212.79,72.51C183,76.1,153.07,76.78,123.1,75.89c-14.9-.44-29.8-1.19-44.69-1.9A65.73,65.73,0,0,1,61,70.81c-4.92-1.53-9.82-2.83-15-2.09-2,.28-2.28,3-1.11,4.18l15.7,16.25c2.07,2.14,4.28,4.19,6.18,6.48,3.44,4.14,3.7,8.55,3.47,13.7-.65,14.82-1.12,29.54-.49,44.37A419.14,419.14,0,0,0,74,196.88c1,7.05,2.24,14.07,3.68,21.05,1.09,5.32,2.49,9.67,8.23,11.19,6,1.61,12.94,1.7,19.16,2.28q11.81,1.11,23.65,1.67,22.7,1.06,45.43.1c4.65-.2,11.17.61,14.92-2.79,4.15-3.76,5.85-11.64,7.9-16.61,5.52-13.42,10.77-27,14.52-41,4.1-15.32,5.88-31,7.83-46.75l6.33-51c.17-1.43-1.3-2.39-2.5-2.5a70.66,70.66,0,0,0-15.79.34c-3.14.42-3.18,5.43,0,5a70.66,70.66,0,0,1,15.79-.34L220.6,75c-3.46,27.84-5.66,56.22-11,83.77a238.18,238.18,0,0,1-11.3,38.14C196,203,193.52,209,191,215a89.7,89.7,0,0,1-3.84,9.15c-2.47,4.48-6.61,3.71-11.12,3.92a500.62,500.62,0,0,1-84.8-3.16c-4.8-.59-6.84-1.13-8.43-6.42A90.11,90.11,0,0,1,81,209q-2-11.15-3.43-22.37a408.23,408.23,0,0,1-3-41.63q-.26-11.65.16-23.31c.23-6.64,1.53-13.9.28-20.49-1.19-6.34-5.83-10.43-10.13-14.88L48.48,69.37l-1.11,4.17c5.67-.81,11.66,1.94,17,3.56,5.6,1.71,11.13,1.75,17,2,14.53.7,29.07,1.4,43.62,1.81,29.36.82,58.69.09,87.87-3.43,3.15-.38,3.19-5.38,0-5Z"/><path class="cls-1" d="M216.84,131.09c4.61-.94,9.24-1.81,13.91-2.44,2.39-.33,4.8-.59,7.21-.83.89-.09,6.37-1.16,6.83-.61s-3.38,9-3.81,10.3a99.41,99.41,0,0,1-5.31,11.25q-4.24,8.51-8.55,17c-1.86,3.67-3.53,7.54-5.63,11.07-1.9,3.19-3.53,3.52-7.08,3.94l-9.4,1.1c-3.16.37-3.2,5.37,0,5l11.28-1.32c2-.24,4.09-.25,5.82-1.28,4-2.39,5.87-9.18,7.92-13.21q6.22-12.24,12.33-24.53a123.84,123.84,0,0,0,4.84-11.77c1.29-3.4,5.31-8.7.94-11.64-3.57-2.4-10.82-.28-14.78.19-6,.72-11.93,1.75-17.85,3-3.15.65-1.82,5.47,1.33,4.82Z"/><path class="cls-1" d="M202.76,195c7.36.53,15.53,2.49,22.66-.33,4.93-2,7.59-5.82,10.2-10.18A289.15,289.15,0,0,0,253.24,149a155.94,155.94,0,0,0,5.82-16.09c1.58-5.28,6-13.65,2.33-18.77-1.6-2.22-3.83-3-6.45-3.25-4.38-.41-9.11.06-13.52.1A80.83,80.83,0,0,0,217,114.49c-3,1-1.74,5.8,1.33,4.82a72.94,72.94,0,0,1,21.5-3.33c3.23,0,6.46,0,9.7,0,3,0,4.8-.81,6.76,1.66,1.85,2.31,1,3,.28,5.69A215.93,215.93,0,0,1,246,153.13,296.15,296.15,0,0,1,232.43,180c-2.41,4.18-4.67,8.69-9.6,10.27-6.29,2-13.66.16-20.07-.3-3.21-.23-3.19,4.77,0,5Z"/><path class="cls-2" d="M80.58,105.59c44.54,4.11,88.49,1.16,133.16,3.47-4.72,17.46-5.72,39.19-11.61,57-2.85,8.66-6.07,16.45-8.42,25.26s-6,25.14-13.92,29.66c-6.13,3.5-20.71-1.23-27.77-1q-26.93.89-53.86-.34c-2.89-.13-6-.33-8.35-2-4-2.73-4.72-8.28-5-13.13-.84-13-4.85-20.38-5.69-33.38-.52-8.1-2-19.73-1.46-27.83.7-11.69-2.2-27,2.56-37.72"/><path class="cls-1" d="M80.58,108.09c44.29,4,88.8,1.26,133.16,3.47l-2.41-3.17c-5.64,21.5-6.75,43.58-14.24,64.65-3.28,9.2-5.75,18.51-8.56,27.84-2,6.78-5.09,18.05-13.52,18.88-7.68.75-15.32-2.16-23-2.24-12.63-.13-25.26.48-37.9.2-6.12-.14-12.47.06-18.54-.74-7.36-1-7.86-7.15-8.37-13.29-.84-10.11-4.34-19.71-5.39-29.77a274.13,274.13,0,0,1-1.59-33.4c.21-11.35-2.06-23.36,2.37-34.18,1.22-3-3.62-4.27-4.82-1.33-4.21,10.29-2.66,21.71-2.55,32.52s.44,21.47,1.27,32.31c.89,11.8,4.76,23,5.78,34.76.75,8.71,3.13,16.28,13,17.38,14.05,1.57,28.7,1,42.82.86,5.61-.07,11.35-.68,16.93-.2,4.66.4,9.24,1.46,13.89,1.93,8.43.83,14.43-1.12,18.88-8.6,4.35-7.29,6.17-15.84,8.36-23.94,3.66-13.55,9.43-26.3,12.23-40.11,2.84-14,4.16-28.33,7.8-42.2a2.53,2.53,0,0,0-2.41-3.16c-44.36-2.21-88.87.52-133.16-3.47-3.2-.29-3.18,4.71,0,5Z"/><path class="cls-1" d="M117,150.55l.21-.47-4.66-1.26q.87,11.7,1.21,23.43c.09,3.21,5.09,3.22,5,0q-.35-11.73-1.21-23.43c-.16-2.21-3.56-3.74-4.66-1.27l-.21.47c-1.29,2.92,3,5.46,4.32,2.53Z"/><path class="cls-1" d="M141.26,151.88c-.61-3.72-4.8-5.49-8.17-4.24-4.31,1.6-6.32,7.48-7,11.56s.37,8.8,4.17,11.13,8.24.71,10.59-2.82c1.79-2.68-2.54-5.19-4.32-2.52-1.41,2.12-3.72,1.62-4.9-.23-1.06-1.67-.86-3.71-.45-5.54a18.35,18.35,0,0,1,1.36-4c.36-.74,3.37-5.2,3.89-2s5.34,1.82,4.82-1.33Z"/><path class="cls-1" d="M142.05,153.82l1,7.68a31.72,31.72,0,0,0,1.06,6.44,6.71,6.71,0,0,0,7.25,4.28,8.52,8.52,0,0,0,7-5.67,14.32,14.32,0,0,0,.84-5.54c0-.67-.72-4.54,0-4.74,3.1-.85,1.78-5.68-1.33-4.82-5.89,1.63-2.8,8.45-3.93,12.61-.69,2.53-4.41,5.09-5.37,1.33s-1.06-7.79-1.56-11.57c-.41-3.15-5.41-3.19-5,0Z"/><path class="cls-1" d="M165.69,154.48a64.54,64.54,0,0,1-1.48,18.33H169c-.78-5-3.39-18.16,3.29-19.36,1.64-.3,6.13.56,6.92,2.23,1.21,2.52-2.83,4-4.45,4.19a18.66,18.66,0,0,1-5-.62c-3.15-.62-4.49,4.2-1.33,4.82,5.34,1.06,12,1.6,15.09-4,2.69-4.8-.71-9.34-5.38-10.78-4.33-1.33-10.78-1.93-13.5,2.48-1.69,2.75-1.45,6.7-1.48,9.79a76.14,76.14,0,0,0,1.06,12.53c.39,2.47,4.3,2.3,4.82,0a69.42,69.42,0,0,0,1.66-19.65c-.19-3.2-5.19-3.22-5,0Z"/><path class="cls-1" d="M46,71.84Q90.48,70,135,70.26q21.77.15,43.52.8c14.69.45,30.49-.35,44.77,3.52,3.11.84,4.43-4,1.33-4.82-13.55-3.67-28.23-3.12-42.15-3.57q-22.74-.75-45.49-.92-45.51-.34-91,1.57c-3.21.13-3.23,5.13,0,5Z"/><path class="cls-1" d="M74.8,113.21l18.34.43c3.22.08,3.22-4.92,0-5l-18.34-.43c-3.21-.08-3.21,4.92,0,5Z"/><path class="cls-1" d="M72.51,136.14,92,137c3.22.13,3.21-4.87,0-5l-19.47-.83c-3.22-.14-3.21,4.86,0,5Z"/><path class="cls-1" d="M73.66,159.42l19.1.82c3.22.14,3.22-4.86,0-5l-19.1-.82c-3.22-.13-3.21,4.87,0,5Z"/><path class="cls-1" d="M77.09,182l20.25.36c3.22.06,3.22-4.94,0-5L77.09,177c-3.21-.06-3.21,4.94,0,5Z"/></svg>