<svg id="Layer_1" data-name="Layer 1" xmlns="http://www.w3.org/2000/svg" viewBox="0 0 311.45 477.31"><defs><style>.cls-1{fill:#666766;}.cls-10,.cls-2{fill:#fff;}.cls-3{fill:#231f20;}.cls-4{fill:#c2c1c0;}.cls-5{fill:#df8026;}.cls-6{fill:#f49c53;}.cls-7{fill:#efd6ac;}.cls-8{fill:#e2c599;}.cls-9{opacity:0.05;}.cls-10{opacity:0.4;}</style></defs><title>makeyouown</title><ellipse class="cls-1" cx="175.34" cy="430.06" rx="120.56" ry="44.1"/><path class="cls-2" d="M277.79,190.46c0-17.13-26.81-46.52-38.8-58.81a20,20,0,0,1-5.67-14V99.22H96.43v18.33a20,20,0,0,1-5.86,14.14c-12.44,12.41-40.36,42.12-40.36,58.77,0,0,5.24,229.54,5.24,230,0,13.7,46,39.18,108.79,39.18S273,434.13,273,420.43C273,419.89,277.79,190.46,277.79,190.46Z"/><path class="cls-3" d="M280.25,190.28c-.23-8.65-4.85-16.77-9.4-23.87a203.37,203.37,0,0,0-20.23-25.82c-6.43-7.17-14.59-13.23-14.84-23.66-.15-6,0-11.93,0-17.89,0-1.3-1.21-1.77-2.33-1.77H96.56c-1.07,0-2.59,1-2.59,2.13,0,5.91.09,11.83,0,17.74-.16,10.82-9,17.13-15.77,24.45a215.07,215.07,0,0,0-20,24.62c-4.67,6.86-9.94,15.07-10.39,23.61-.23,4.27.15,8.64.25,12.91q.36,16.08.73,32.15,2,85.74,3.92,171.49c.1,4.71,0,9.48.32,14.18.72,10.62,14.28,17.73,22.47,22,20.42,10.61,43.81,15.88,66.59,18a225.27,225.27,0,0,0,80.26-6.6c16.31-4.47,35-10.92,47.3-23.15,4.48-4.46,5.83-8.58,5.95-14.52q.66-32.47,1.34-65l3.27-157.86.07-3.18c.05-2.71-4.87-2.08-4.92.36q-1.4,67.1-2.78,134.18-.81,39.42-1.63,78.85c-.11,5.46,0,11-.34,16.44-.59,9.45-13.82,15.9-21,19.55-21.18,10.73-45.43,15.77-69,17.42-26.84,1.89-54.39-.75-80.07-9A131,131,0,0,1,74,436.68c-5.27-3.1-11.17-6.86-14.52-12.14-2.27-3.58-1.66-8.09-1.76-12.16Q55.9,331.1,54,249.81l-1.32-57.52c-.27-12,8.07-22.9,15.09-32A274.09,274.09,0,0,1,88.23,137c6.09-6.27,10.57-11.72,10.66-20.9,0-5.68,0-11.37,0-17l-2.59,2.14H233.19l-2.33-1.78c0,5.89-.07,11.78,0,17.67.12,10,5.88,15.48,12.21,22.32a239.41,239.41,0,0,1,20.05,24.33c5.45,7.71,12,17.11,12.21,26.92C275.4,193.36,280.31,192.71,280.25,190.28Z"/><path class="cls-4" d="M233.43,75.51H97.17V93.72a2,2,0,0,0,0,.34,2.11,2.11,0,0,0,0,.35v.3h0c1.82,6.65,31.51,11.94,67.87,11.94s66.06-5.29,67.88-11.94h.47Z"/><path class="cls-3" d="M232.82,73.28H96.56a1.34,1.34,0,0,0-1.39,1.52V94c0,1.21,1.3,3,2.61,3h0l-2.51-2.39c2.49,7.15,13.45,8.83,19.73,10.13,15.93,3.31,32.48,4.11,48.71,4.2,16.44.08,33.1-.64,49.31-3.51,5.85-1,19.42-2.44,21.86-9.43l-1.35,1H234a1.33,1.33,0,0,0,1.39-1.51V76.23c0-2.13-4-4.48-4-1.43V94l1.38-1.52h-.47a1.28,1.28,0,0,0-1.35,1c-.83,2.39-4.95,3.59-7,4.31a84.3,84.3,0,0,1-13.76,3.3c-14.43,2.49-29.19,3.25-43.82,3.33a297.86,297.86,0,0,1-43.35-2.6,106.05,106.05,0,0,1-16.27-3.36c-1.76-.55-7.09-1.9-7.67-3.58-.36-1-1.28-2.4-2.52-2.4h0l2.61,3V76.23l-1.39,1.52H234C236.77,77.75,234.91,73.28,232.82,73.28Z"/><ellipse class="cls-4" cx="165.08" cy="74.92" rx="67.96" ry="12.58"/><path class="cls-3" d="M230.69,74.58c-.27,3.63-11,5.53-13.44,6.1-10,2.36-20.44,3.35-30.7,4-23.05,1.48-46.87,1.25-69.64-3a77.14,77.14,0,0,1-11.21-2.78c-1.34-.46-5.66-1.56-6.09-3.22-.82-3.14,8.72-5.35,10.63-5.87C131,64.19,154,64,175.33,64.6a243.57,243.57,0,0,1,37.93,3.54c2.66.5,17.13,2.41,17.43,6.44.19,2.48,4.93,3.63,4.71.69-.4-5.32-7.6-7.58-11.77-8.85-10.65-3.26-22-4.44-33.06-5.28-26.46-2-54.78-2.17-80.73,4.12-4.28,1-13.51,2.81-14.92,8.07-1.32,5,5.41,7.89,9,9.22,9.71,3.61,20.49,4.78,30.73,5.73A343,343,0,0,0,179,89.41c13.8-.51,27.83-1.56,41.29-4.83,4.72-1.14,14.6-3.07,15.07-9.31C235.59,72.78,230.92,71.62,230.69,74.58Z"/><path class="cls-2" d="M164.68,105.74c-34.84,0-63.84-6.21-70.19-14.43a5.54,5.54,0,0,0-1.31,3.39c0,9.84,32,17.82,71.5,17.82s71.5-8,71.5-17.82a5.54,5.54,0,0,0-1.31-3.39C228.52,99.53,199.52,105.74,164.68,105.74Z"/><path class="cls-3" d="M165.39,104.13c-14.89,0-29.91-1-44.53-4-7.78-1.58-18.88-3.58-24.28-10.11-.91-1.09-3.52.09-4.11,1-10.58,16.38,37.61,21.13,44.79,21.83a273.51,273.51,0,0,0,49.48.32c12.76-1.07,25.95-2.8,38-7.32,5.8-2.17,17.56-7.59,12.44-15.51-.95-1.47-3.47-.35-4.33.68-5.26,6.35-16.87,8-24.4,9.46-14.17,2.74-28.67,3.58-43.07,3.62-2.06,0-4.69,3.22-1.42,3.21,16.19,0,32.58-1.11,48.41-4.66,8.2-1.85,18.85-4.29,24.51-11.11l-4.33.68c5.8,9-14.61,13-19.78,14.15C197,110,180.57,111,164.44,110.91c-15.95,0-32.24-1.17-47.79-4.89-4.58-1.09-25.63-6-20.15-14.45l-4.11,1c5.54,6.68,16.59,8.78,24.57,10.48,15.41,3.29,31.29,4.24,47,4.29C166,107.35,168.66,104.14,165.39,104.13Z"/><path class="cls-5" d="M266.66,200.93c0-15.51-206-15.07-206,0,0,0,4.75,207.81,4.75,208.2,0,12.41,41.59,35.48,98.49,35.48s98.49-23.07,98.49-35.48C262.35,408.65,266.66,200.93,266.66,200.93Z"/><ellipse class="cls-6" cx="163.34" cy="200.81" rx="102.5" ry="22.89"/><path class="cls-7" d="M268.69,206.62c0,7.26-19.32,10.52-48.46,14.16-16.31,2-35.7,6.34-56.49,6.34-23.91,0-45.95-6.24-63.59-8.87-25.14-3.74-41.37-5-41.37-11.63,0-11.31,47-20.49,105-20.49S268.69,195.31,268.69,206.62Z"/><rect class="cls-7" x="58.46" y="185.8" width="211.24" height="27.18" rx="10.43" ry="10.43"/><path class="cls-8" d="M269.47,193.77c0,8.55-19.86,12.93-49.69,17.13-16.05,2.26-35,6.68-55.26,6.68-23.39,0-45-6.41-62.45-9.35-25.79-4.34-42.51-6.61-42.51-14.46,0-13.15,47-23.81,105-23.81S269.47,180.62,269.47,193.77Z"/><path class="cls-9" d="M223.43,220.88s32.73,90.27-36.83,221.65c0,0,66.25-7,75.75-33.4l4.09-201.58c.8,2.62-4.12,5.59-11.31,7.82C245.56,218.33,232.05,220.24,223.43,220.88Z"/><path class="cls-10" d="M68.6,169l7.19,234a12.47,12.47,0,0,0,5.13,9.31c5,3.89,13.36,9.52,23.11,12.51,2.84.87,5.53-1.23,4.47-3.53C91.59,384.72,90.31,175.64,102.79,172,102.79,172,77.74,165.29,68.6,169Z"/></svg>