<svg id="Layer_1" data-name="Layer 1" xmlns="http://www.w3.org/2000/svg" viewBox="0 0 311.45 512.17"><defs><style>.cls-1{fill:#fff;}.cls-2{fill:#666766;}.cls-3{fill:#231f20;}.cls-4{fill:#df8026;}.cls-5{fill:#efd6ac;}.cls-6{fill:#cca26b;}.cls-7{opacity:0.4;}</style></defs><title>makeyouown</title><path class="cls-1" d="M209.35,136.26a94.47,94.47,0,0,0,39.92,13.93l-2-14.73a90.27,90.27,0,0,1-21.83,3.5,94.48,94.48,0,0,1-11.16-.31c-1.49-.13-3-.3-4.47-.52-.92-.14-1.83-.3-2.75-.47q-3.47-1.23,1.12,3.08l-1,3.78-1.33,1.26-3.31-12.53c-4.22,3.71-8.93,1.6-13.72,3.33-2.23.81-3.57,2.63-5.52,3.68-2.5,1.35-6,1.79-8.78,2.35-11.6,2.37-23.58,1.49-35.2-.25-12.09-1.82-23.95-3.49-36.2-3.64-12.84-.16-24.5-2.8-36.77-6.44l-4,14.47c10.33,2.3,18.89-2.55,26.62-9L79.86,139c11,6.6,23.46,8.64,36,9.84,12,1.14,24.76,1.31,36,6.23V142.08c-17.44,8.67-38.14-1-55.8-4l-2,14.73c21.06,1,41.84,7,63,5.65,10.69-.7,21.11-3.3,31.51-5.69l32.3-7.44c9.41-2.16,5.43-16.63-4-14.46l-30.41,7c-10.32,2.38-20.67,5.23-31.3,5.7-20.55.9-40.68-4.77-61.13-5.75-8.3-.4-10.41,13.27-2,14.73,22.59,3.92,45.17,13.54,67.35,2.52,4.72-2.34,5.09-10.72,0-12.95-11.88-5.2-24.35-6.63-37.17-7.72-12-1-24.3-2-34.88-8.35-3.07-1.84-6.51-1-9.08,1.17-3.24,2.68-7.58,6.1-12,5.1-9.4-2.1-13.29,11.71-4,14.47,13.53,4,26.61,6.79,40.76,7,13.78.17,27,2.57,40.63,4.27,13.34,1.67,27,1.46,40.06-2.19a32,32,0,0,0,7.79-2.89,29.33,29.33,0,0,0,3.52-2.94c-1.55,1.29-2.07.95.48.95a26.3,26.3,0,0,0,17.55-7.07c4-3.53,2.16-11.58-3.31-12.53-6.95-1.21-15,.29-16.5,8.42-1.38,7.51,5.2,11.6,11.6,12.71a104.94,104.94,0,0,0,46.35-2.52c8.69-2.45,6-13.77-2-14.74a77.6,77.6,0,0,1-32.35-11.88c-8.17-5.19-15.7,7.78-7.57,12.95Z"/><path class="cls-1" d="M252.46,144.31a77.89,77.89,0,0,1,12.4-.53c3.28.12,3.13-4.66,0-5a32.35,32.35,0,0,0-12,.95c-2.83.75-2.07,4.71.66,4.91a7.56,7.56,0,0,0,6.42-2.7,2.53,2.53,0,0,0-1.77-4.26l-8-1.05c-3.18-.41-3.15,4.59,0,5l8,1.05-1.76-4.27a3,3,0,0,1-2.89,1.23l.67,4.91a28.59,28.59,0,0,1,10.7-.77v-5a77.89,77.89,0,0,0-12.4.53c-3.15.38-3.19,5.38,0,5Z"/><path class="cls-1" d="M59.15,134.24a57.85,57.85,0,0,1-17.93,1.41c-2.91-.21-3.25,4.09-.67,4.91a144.38,144.38,0,0,0,20,4.86c2.62.44,4.59-3.11,1.93-4.57l-8.06-4.41L53.8,141l8.05-1.26c3.17-.49,1.83-5.31-1.32-4.82l-8.06,1.26c-2.17.34-2.36,3.61-.6,4.57l8.06,4.41,1.93-4.57a145.82,145.82,0,0,1-20-4.86l-.66,4.91a62,62,0,0,0,19.25-1.59c3.13-.75,1.81-5.58-1.32-4.82Z"/><path class="cls-1" d="M171.49,77.44c6.8-1,13.74,1.45,19.66,4.61,4.9,2.62,13.84,7,16.08,12.54,1.92,4.69-5.81,6.26-9.07,7.21-7.91,2.31-15.88,4.43-23.81,6.65-6.8,1.9-7.48,13,0,14.46a39.13,39.13,0,0,0,28.08-4.45c6-3.49,3.92-14.88-3.79-14-20.78,2.43-41.77,4.46-62.71,3a137.56,137.56,0,0,1-29.31-5.21c-4.39-1.3-9.56-2.61-13.46-5.12-3.18-2,1.24-4.66,3.43-6.59,4.69-4.14,1.11-13.34-5.3-12.8-7.59.63-13.8,5.07-15.65,12.7l9.22-5.24,2.76,2.39v4q-1,1,.15.18c.46-.27.92-.53,1.39-.78q2-1.08,4-2.14c2.64-1.42,5.3-2.83,8-4.15a88.89,88.89,0,0,1,16.59-6.36c12.16-3.17,25-2.77,37.42-2.42,10.39.29,22.79.7,31.21,7.68a13.89,13.89,0,0,1,4.08,5.05c.25.59.28,2.2.69,2.61.74.74,2.77-.5,1.58-1.59s-4.66-2-6.26-3.1a23.36,23.36,0,0,1-2.57-2.08c-.5-.48-2-2.82-2-1.7l-1,3.79-1.21,1.36-3.78,1c1.8-.18,2.85,1.21,2.59,3-.37,2.69-3.47,4.35-5.8,4.86-6.8,1.5-14.39-2.58-18.86-7.42-.57-.62-1-1.38-1.63-2-.36-.36-.73-2-.65-.49s-.14-.1.83,1.24a10.43,10.43,0,0,1,2,8.11c-1,7-6.22,7.73-11.73,4.32A19.72,19.72,0,0,1,136.08,94a17,17,0,0,1-1.68-3.55c-.24-.77-.35-3.44-1-3,3.74-2.62,6.61,6,6.44,8.17-.34,4.45-4.82,7.32-9.13,6.7-5.94-.85-9.45-8.15-10.88-13.07-.12-.4,1,.14.63-.86,0,.06-1.56.17-1.54-.12,0,.78,1.08,2.46,1.26,3.39a15,15,0,0,1,.25,1.89c.08,1.3.83-.2-.16,0a28.21,28.21,0,0,1-4.71.58,20,20,0,0,1-9.19-2,11.63,11.63,0,0,1-3.91-3,11.07,11.07,0,0,0-.91-1.25,1.09,1.09,0,0,1-.18-.55c-.11-1-.49-.3-1.13,2.2l-3.79,1c-.89.06-.74-.86-.84-.8s-1.21,1.34-2,1.62c-.33.12-.89,0-1.18.2l-.46,0c-1-.37-1.14-.29-.56.24.26-.38,0,2.59-.17,2.38a28.2,28.2,0,0,0,2.91-.94c2.63-.52,3.51.15,4.87,2.37,2,3.35,4.1,6.38,7.25,8.8,6.09,4.68,13.72,6.21,21.13,7.43a174,174,0,0,0,24.21,2.51A102.88,102.88,0,0,0,176.39,112c7.09-1.58,17.21-4.07,22-10,5.26-6.5,2-15.7-4.93-19.45-3.62-2-7.78-2.28-11.79-2.8q-7.25-.94-14.52-1.62a386.94,386.94,0,0,0-63.23-.55c-9.57.69-9.65,15.7,0,15a387.5,387.5,0,0,1,62.26.46c4.85.43,9.7.94,14.52,1.58.86.12,4.9,1.31,5.57,1,0,0,.89-3.32.85-3.34s-3.85,1.87-4.21,2a71.94,71.94,0,0,1-25.24,4.92,138.58,138.58,0,0,1-27.05-2.09,59.33,59.33,0,0,1-11.26-2.59c-4-1.53-5.53-3.75-7.68-7.22-4.67-7.54-12-10.62-20.74-8.82-8.31,1.72-16.4,8.16-13.59,17.57,5.66,19,36.9,9.18,32.93-9.55-1.69-8-10.7-14.24-18.49-9.7-7.38,4.3-6.1,14.51-1.75,20.39,4.86,6.57,12.35,10.27,20.34,11.37,7.47,1,16.9.46,22.06-5.8s3.34-16.56-.88-22.78a14,14,0,0,0-21.61-2.31c-12.85,12.81,2,35.7,16.87,39a22.91,22.91,0,0,0,27.55-26.94c-1.47-7.23-6.65-13.83-13.66-16.34-7.73-2.76-16.83-.44-20.4,7.42-7.15,15.75,10.66,34.3,25.33,36.59,18.87,2.95,29.5-19.88,21-35.13-4.34-7.81-14.24-12.24-22.52-7.7C136,79.11,134.86,89,140,96.12c9.77,13.59,31.74,22.3,46.06,10.39,6.41-5.33,9.37-14.28,6-22.12-3.13-7.2-12.13-13.2-20-9.43-9.95,4.78-3.52,16.05,2.33,21.1,5.69,4.93,15.42,10.94,23.28,8.4,8.71-2.81,9.78-13.37,6.91-20.75-3.13-8-10.11-13.81-17.85-17.23-8.33-3.68-17.35-4.92-26.39-5.39a228,228,0,0,0-29.11,0,93.1,93.1,0,0,0-28.51,6.5C94.59,71,85.6,74.77,78.45,79.92c-3.75,2.71-6.25,6.9-5.29,11.64.79,3.93,3.61,7.39,7.71,8.09,3.9.66,8.19-1,9.23-5.24.17-.72.26-1.62,1.19-1.69L86,79.91c-4.47,3.94-8.82,9-9.2,15.19-.35,6,2.88,11,7.7,14.26s11,5.1,16.46,6.82a133.3,133.3,0,0,0,18.91,4.39c26.19,4.17,52.62,2,78.79-1.09l-3.78-14a23.07,23.07,0,0,1-16.52,2.94v14.46c10.55-2.94,22.1-5,32-9.65,8.91-4.19,14.88-13.23,11.21-23.13-3.49-9.42-13.73-16-22.14-20.62-10-5.55-20.55-8.16-32-6.54-4,.57-6.23,5.69-5.24,9.23,1.21,4.31,5.18,5.81,9.23,5.24Z"/><path class="cls-2" d="M84.49,110.27,81.39,106,73.53,112a58.28,58.28,0,0,0,11.76,11l3.86-9.14a13.68,13.68,0,0,1-4.91-2.35c-5-3.59-9.23,3.79-6.06,7.85,4.37,5.59,10.06,11,17.7,10.22,3.29-.34,6.85-4.17,4.31-7.53l-4.57-6-6.84,6.84a128.72,128.72,0,0,0,22.46,7.49l1.33-9.82a69.53,69.53,0,0,1-14.41-.94c-6.22-1.1-9,8-2.65,9.64a329.75,329.75,0,0,0,82.3,10.48c5.45,0,7.05-8.91,1.33-9.82L170,128.47l-1.33,9.82a78.18,78.18,0,0,0,57.93-22.2c4.62-4.5-2.45-11.56-7.07-7.07a68.17,68.17,0,0,1-50.86,19.27c-5.52-.24-7,8.93-1.33,9.82l9.18,1.46,1.33-9.82a319,319,0,0,1-79.65-10.12l-2.65,9.64a81.94,81.94,0,0,0,17.06,1.3c5.45-.18,7-8.51,1.33-9.82a115,115,0,0,1-20.08-6.49c-3.93-1.7-10.25,2.33-6.84,6.84l4.58,6.06,4.32-7.52c-4.82.49-7.94-3.85-10.62-7.29l-6.06,7.86a21.51,21.51,0,0,0,7.29,3.35c5.74,1.5,8.31-5.93,3.85-9.14A49.27,49.27,0,0,1,80.6,105c-3.5-4.4-11.18,1.46-7.85,6.06l3.11,4.29c3.74,5.16,12.42.18,8.63-5Z"/><path class="cls-3" d="M71.37,101.57a21,21,0,0,0,2.49,19.88c1.86,2.59,6.2.1,4.32-2.53a16.38,16.38,0,0,1-2-16c1.17-3-3.67-4.3-4.82-1.33Z"/><path class="cls-3" d="M220.15,106.24c4.3,5.59,3.39,14-2.62,18-2.66,1.78-.16,6.12,2.52,4.32,8.08-5.4,10.46-17,4.42-24.88-1.93-2.52-6.28,0-4.32,2.52Z"/><path class="cls-3" d="M247.74,150.72c6.82,6.14,13.18,11.06,16,20.37,3.21,10.66,3.32,22.77,3.79,33.82,1.38,32.76,3.28,65.63,3.38,98.42.08,25.34-.78,51-2.5,76.31-.79,11.71-1.73,23.8-5.14,35.09-1.08,3.55-2.38,7.17-5.12,9.77-3.9,3.71-9,6.49-13.57,9.21a139.67,139.67,0,0,1-15.89,8.34c-6.56,2.8-14.05,3.44-21,4.7-15.47,2.81-31,5.24-46.74,6.09a327.13,327.13,0,0,1-44.49-1.07c-8.11-.67-16.69-.83-24.64-2.61a111.34,111.34,0,0,1-15.41-5,185.45,185.45,0,0,1-18-7.91c-3.52-1.8-7.48-3.62-9.88-6.89-5.81-7.91-7.77-19.36-9.78-28.72C34.05,379.05,31.61,357,29.6,335c-3-33.26-2.86-66.6-3.45-100-.25-14.28-.07-28.75,2.16-42.89C30.49,178.38,35.45,163,47.87,155c4-2.57,8.46-3.35,13-4.45,3.13-.76,1.8-5.59-1.33-4.82-4.59,1.12-9.2,2-13.33,4.44-6.27,3.71-11,9.94-14.78,16.05-7.33,11.94-8.76,27.32-9.69,41-1.09,16.12-.42,32.27-.22,48.41.21,16.82.29,33.66,1.09,50.47a704.23,704.23,0,0,0,8,78.15c2,12.18,4.17,24.55,8.23,36.24,3.08,8.87,6.84,14.68,15.19,19.16a161.13,161.13,0,0,0,34.87,14c7.29,1.9,15.09,2.08,22.57,2.76,8.45.76,16.93,1.38,25.41,1.68a277.4,277.4,0,0,0,45.46-2.2c8.37-1.09,16.7-2.45,25-3.94,7.3-1.31,15.19-2,22.1-4.75a121.71,121.71,0,0,0,30.88-17.91c7.05-5.79,8.86-15.79,10.32-24.32,3.94-23,3.71-46.61,4.68-69.86,1.51-36.27-.7-72.38-2.06-108.6-.53-14.08-.68-28.16-2.24-42.18-1.16-10.4-3.28-19.62-9.75-28.14-2.63-3.46-6.75-6.05-10-8.94-2.39-2.15-5.94,1.38-3.54,3.54Z"/><path class="cls-4" d="M144.48,194.38c-34.28-.93-67.62,2.7-100.32-5.4a10,10,0,0,0-12.38,8.66c-1.09,10.36-1.66,20.76-.3,31.05.89,6.71-1.28,15.46-.74,22.21,1.09,13.6,1.34,24.92-.28,38.46-4.57,38.28,6.89,76.45,18.22,113.25C52.42,414.76,57,428,67.77,434.45c5.35,3.19,11.63,4.3,17.76,5.2A378.42,378.42,0,0,0,229.2,433c8.86-2.15,18.05-4.85,24.57-11.29,10.09-10,11.07-26.2,8.36-40.23s2.22-32.46,1.26-46.72c-1.62-24-.33-42,.43-66,.49-15.18-2.6-30-2.61-45.19,0-11-2.46-29.13-.37-38.56"/><path class="cls-5" d="M254.22,260.17c-2.7-8.07-9.87-13.73-17.05-18.28-56-35.5-131.9-29.62-188.91,4.21-5.76,3.42-12,8-12.48,14.71-.77,9.8,10.56,15.53,19.92,18.53l41.78,13.38c17.66,5.66,35.86,11.38,54.36,10.08,25.44-1.79,48.61-16.7,74.07-18.24,6.3-.38,12.7.06,18.85-1.38s12.24-5.26,14.15-11.28-2.37-13.82-8.69-13.69"/><path class="cls-6" d="M33.47,267.61c-.14,6.51,4.9,10.43,10.46,12.75,8.66,3.63,18.51,5.16,27.59,7.49,19.78,5.07,39.79,11.57,60.15,13.75,19.36,2.07,37.2-3.15,55.34-9.29,9.11-3.09,18.25-6.19,27.71-8,10-1.94,20.11-1.79,30.16-2.89,6.65-.72,16.42-1.29,16.9-9.93.51-9.2-8.91-12.73-16.22-14.4-3.14-.72-4.47,4.1-1.33,4.82,3.51.8,8,1.58,10.52,4.33,1.87,2,2.68,4.78,1,7-1.44,2-3.82,2.14-6.1,2.52-8.25,1.39-16.67,1.37-25,2.14-15,1.38-29,6.27-43.18,11-14.7,4.93-29.51,9.08-45.17,8.1-17-1.05-33.57-6.29-49.95-10.49l-28.07-7.19c-6-1.55-20-3.19-19.86-11.7.06-3.22-4.94-3.22-5,0Z"/><g class="cls-7"><path class="cls-6" d="M224.22,258.79a56.6,56.6,0,0,0-34,9.59c-2.66,1.79-.16,6.12,2.52,4.32a52,52,0,0,1,31.45-8.91c3.22.12,3.22-4.88,0-5Z"/></g><g class="cls-7"><path class="cls-6" d="M149.75,272.75c-17.21,5.55-35.08,2.35-52.17-2.06-3.12-.8-4.45,4-1.33,4.82,17.92,4.63,36.79,7.88,54.83,2.06,3-1,1.74-5.81-1.33-4.82Z"/></g><g class="cls-7"><path class="cls-6" d="M64.84,265.05a29.07,29.07,0,0,0-5.94-2.73c-1.89-.77-2.43-.81-3.16-2.93-1-2.92.79-4.29,3.19-5.79,5.69-3.58,12.4-5.79,18.87-7.48,3.11-.82,1.79-5.64-1.33-4.82a87.92,87.92,0,0,0-15.17,5.44c-3.88,1.82-8.36,3.91-10.35,8a8.13,8.13,0,0,0,1.13,9.35c2.73,2.87,7.06,3.14,10.24,5.32,2.66,1.82,5.17-2.51,2.52-4.32Z"/></g><path class="cls-5" d="M255.61,219.57c-2.69-8.07-9.87-13.73-17.05-18.28-56-35.5-131.89-29.62-188.9,4.21-5.76,3.42-12,8-12.48,14.71-.77,9.8,10.55,15.53,19.91,18.53l41.79,13.38c17.66,5.66,35.85,11.39,54.36,10.08,25.44-1.79,48.6-16.69,74.06-18.24,6.3-.38,12.71.06,18.86-1.38s12.24-5.26,14.15-11.28-2.38-13.82-8.69-13.69"/><path class="cls-6" d="M34.86,227c-.13,6.51,4.91,10.43,10.46,12.76,8.67,3.62,18.51,5.16,27.6,7.48,19.77,5.07,39.78,11.57,60.15,13.75,19.36,2.07,37.2-3.15,55.33-9.29,9.11-3.09,18.26-6.19,27.72-8,10-1.94,20.11-1.78,30.16-2.88,6.64-.73,16.42-1.3,16.89-9.93.51-9.21-8.9-12.74-16.22-14.41-3.13-.72-4.47,4.1-1.33,4.82,3.51.8,7.95,1.58,10.53,4.33,1.87,2,2.67,4.78,1,7-1.43,1.94-3.81,2.13-6.1,2.51-8.25,1.4-16.66,1.37-25,2.14-15,1.38-29,6.27-43.17,11-14.7,4.94-29.51,9.08-45.18,8.11-17-1.06-33.57-6.3-49.94-10.49l-28.07-7.2c-6-1.55-20-3.18-19.87-11.7.07-3.22-4.93-3.21-5,0Z"/><g class="cls-7"><path class="cls-6" d="M225.62,218.19a56.66,56.66,0,0,0-34,9.6c-2.66,1.78-.16,6.11,2.53,4.31a52.07,52.07,0,0,1,31.45-8.91c3.22.12,3.21-4.88,0-5Z"/></g><g class="cls-7"><path class="cls-6" d="M151.14,232.15c-17.21,5.56-35.08,2.35-52.16-2.05-3.12-.81-4.45,4-1.33,4.82,17.91,4.62,36.78,7.88,54.82,2.06,3.05-1,1.75-5.82-1.33-4.83Z"/></g><g class="cls-7"><path class="cls-6" d="M66.24,224.45a29.57,29.57,0,0,0-5.94-2.73c-1.9-.77-2.43-.81-3.16-2.93-1-2.92.79-4.28,3.18-5.79,5.7-3.58,12.41-5.79,18.88-7.48,3.11-.81,1.79-5.64-1.33-4.82a88,88,0,0,0-15.18,5.44c-3.88,1.82-8.35,3.92-10.34,8a8.09,8.09,0,0,0,1.13,9.35c2.73,2.87,7.06,3.15,10.24,5.32,2.66,1.82,5.16-2.51,2.52-4.32Z"/></g><path class="cls-3" d="M72,99.71c6.93,10.53,18.27,16.13,29.86,20.12a185.56,185.56,0,0,0,32.26,7.93c22,3.41,45.94,3.79,66.82-4.83a59.71,59.71,0,0,0,26.5-20.73c1.85-2.64-2.48-5.14-4.32-2.53-15.39,21.88-44.65,26.24-69.53,25.1a181.16,181.16,0,0,1-39.71-6.45c-13.73-3.78-29.33-8.64-37.57-21.13C74.56,94.51,70.23,97,72,99.71Z"/><path class="cls-3" d="M72.35,118.66c8,12.16,20.81,15,34.23,17.69a357.21,357.21,0,0,0,41.63,6.32c27.08,2.16,54.81-1.41,76.51-19,2.5-2-1.06-5.55-3.54-3.54-20.17,16.34-46.3,19.45-71.41,17.63a319.19,319.19,0,0,1-38.06-5.5c-13-2.53-27.12-4.15-35-16.14-1.76-2.68-6.1-.17-4.31,2.52Z"/><path class="cls-3" d="M220.18,128.09A256.63,256.63,0,0,0,272.9,141.9l-.59-4.57c-15.3,7.73-31.8,13.33-48.88,15.3a119.07,119.07,0,0,1-25.32.26c-2.66-.27-6.61-1.91-9.1-.72-1.13.53-1.87,1.9-3,2.56a15.94,15.94,0,0,1-5.57,1.65c-6.76,1-13.93,1.08-20.75,1.62a173.06,173.06,0,0,1-26.16,0c-18-1.28-35.63-5-53.17-9-8.17-1.84-16.36-3.57-24.55-5.32C48.41,142.1,40.65,140,37,132.74l-2.16,3.76c11.09,1,23.26.48,33.74-3.65,4.45-1.75,13.53-6.06,9.57-12.22-1.74-2.69-6.07-.19-4.32,2.53s-12.53,6.74-14.07,7.07a82.72,82.72,0,0,1-24.92,1.27c-2-.19-2.94,2.23-2.15,3.76C38,145.68,50,147.62,60.43,149.7c16.26,3.25,32.3,7.49,48.66,10.27,16.08,2.72,32.4,4.26,48.7,3.17,6.76-.46,13.58-.89,20.32-1.48,5.14-.45,10.43-1.45,13.93-5.56l-2.44.64c29.43,4.83,58.85-1.77,85.23-15.09,1.81-.92,1.54-4.25-.6-4.57a256.63,256.63,0,0,1-52.72-13.81c-3-1.15-4.31,3.68-1.33,4.82Z"/><path class="cls-3" d="M76.23,97.51c-7.36-15.92,19.11-27.44,30.26-31.17,15.22-5.1,31.38-6.11,47.32-5.4,15.58.7,32.46,1.82,46.64,8.88a44.38,44.38,0,0,1,15.92,12.94c3.17,4.28,9.26,15,5.23,20.21-1.95,2.51,1.56,6.07,3.54,3.53,6.83-8.76-.95-22.61-7.2-29.67-9.19-10.37-22.51-15.53-35.86-18-29.21-5.35-63-5.85-90,8.17C80.21,73.2,64.9,84.87,71.91,100c1.35,2.92,5.66.38,4.32-2.52Z"/></svg>