<svg id="Layer_1" data-name="Layer 1" xmlns="http://www.w3.org/2000/svg" viewBox="0 0 454.22 510.67"><defs><style>.cls-1{fill:#666766;}.cls-2{fill:#231f20;}.cls-3,.cls-8{fill:#fff;}.cls-4{fill:#f9a24c;}.cls-5{fill:#e8e8e8;}.cls-6{opacity:0.05;}.cls-7{fill:#f3ad67;}.cls-8{opacity:0.4;}.cls-9{fill:#c2c1c0;}.cls-10{fill:#f49c53;}.cls-11{fill:#efd6ac;}.cls-12{fill:#e2c599;}</style></defs><title>makeyouown</title><ellipse class="cls-1" cx="75.52" cy="483.42" rx="50.28" ry="18.39"/><path class="cls-2" d="M13.73,346c3.22,0,3.22-5,0-5s-3.22,5,0,5Z"/><path class="cls-3" d="M13.73,343.54,24.38,474.19a14.14,14.14,0,0,0,6.21,10.62c6.62,4.44,19.15,10.4,38.42,10.4s31.86-6,38.51-10.47a14.18,14.18,0,0,0,6.23-10.64l10.64-130.56"/><path class="cls-2" d="M11.86,343.54c3.53,43.37,6.23,86.88,10.61,130.16,1.62,16,22.9,21.19,36.1,22.77,12.22,1.47,25.09.51,36.74-3.63,7.27-2.59,16.31-6.38,19.27-14.1,2.36-6.12,1.82-14.18,2.34-20.59l3.34-40.9,6-73.71c.19-2.4-3.56-2.39-3.75,0l-10.43,128c-.41,4.94-1.72,9-6.18,12.05C98,489,88,491.74,78.64,492.81c-12,1.37-24.65.32-36-4-7.21-2.71-15.32-6.52-16.37-15-2.56-20.68-3.4-41.72-5.1-62.48l-5.52-67.81c-.2-2.39-3.95-2.41-3.75,0Z"/><path class="cls-4" d="M22.32,382.56,31,473.11a10,10,0,0,0,5.25,7.62c5.6,3.18,16.2,7.46,32.5,7.46s27-4.33,32.58-7.51a10,10,0,0,0,5.27-7.64l8.7-90.57C109.71,382.47,22.18,381.09,22.32,382.56Z"/><ellipse class="cls-5" cx="69.01" cy="343.88" rx="55.3" ry="14.68"/><path class="cls-2" d="M122.43,343.88c-.28,4.42-8.62,6.71-11.82,7.71A116.74,116.74,0,0,1,85.45,356c-18.32,1.52-37.84,1.16-55.67-3.74-3.73-1-12.42-3-13.95-7.36-1.45-4.14,6.13-6.83,8.83-7.83,16.7-6.2,36.1-6.6,53.68-5.81a138.2,138.2,0,0,1,29.27,4c3.71,1,14.49,3.38,14.82,8.57.16,2.4,3.91,2.42,3.75,0-.31-5-5.33-7.67-9.4-9.43-8.23-3.55-17.4-5-26.25-6-21.44-2.41-46.3-2.58-66.86,5-4.17,1.54-10.43,4-11.65,8.9-1.13,4.54,3.08,7.81,6.58,9.7,7.67,4.12,16.87,5.64,25.38,6.77a193.8,193.8,0,0,0,37.07,1.24c11.12-.66,22.77-1.92,33.29-5.8,4.73-1.75,11.47-4.55,11.84-10.41C126.34,341.47,122.59,341.48,122.43,343.88Z"/><path class="cls-6" d="M76.15,487.69s22.1-32.16,20.57-105.4l18.54.2L106.63,473S107.67,484.19,76.15,487.69Z"/><ellipse class="cls-7" cx="68.67" cy="381.81" rx="46.32" ry="12.66"/><path class="cls-8" d="M27,364.83,37.19,473.34a6,6,0,0,0,2.21,4.12,25.56,25.56,0,0,0,9,4.88A1.31,1.31,0,0,0,50,480.53C42.48,464.2,35.27,367.05,39.8,364.83,39.8,364.83,30.26,362.75,27,364.83Z"/><ellipse class="cls-1" cx="317.71" cy="465.66" rx="120.56" ry="44.1"/><path class="cls-3" d="M420.16,226.05c0-17.13-26.81-46.52-38.8-58.81a20,20,0,0,1-5.67-14V134.82H238.8v18.32a19.93,19.93,0,0,1-5.86,14.14c-12.44,12.42-40.36,42.13-40.36,58.77,0,0,5.25,229.54,5.25,230,0,13.7,45.94,39.18,108.78,39.18S415.4,469.72,415.4,456C415.4,455.49,420.16,226.05,420.16,226.05Z"/><path class="cls-2" d="M422.62,226c-.23-8.62-5.09-16.88-9.65-23.91a208.22,208.22,0,0,0-19.78-25.21c-6.49-7.26-14.79-13.44-15-24-.14-5.89,0-11.79,0-17.67,0-1.48-1.46-2.22-2.81-2.22H238.45c-.68,0-2.11.41-2.11,1.33,0,5.91.09,11.83,0,17.74-.16,10.95-8.83,17.22-15.66,24.62a225.65,225.65,0,0,0-19.61,23.92c-4.83,6.95-10.44,15.41-10.93,24.14-.23,4.27.16,8.65.25,12.91q.38,15.92.73,31.82,2,85.89,3.92,171.78c.11,4.85-.08,9.81.33,14.65.88,10.32,14.29,17.49,22.29,21.65,20.14,10.48,43,15.88,65.5,18.16a225.89,225.89,0,0,0,80.56-6c16.56-4.4,35.43-10.72,48.06-22.89,4.58-4.41,6-8.44,6.16-14.41q.66-32.49,1.34-65l3.27-157.87.07-3.17c.05-2.38-4.87-3.17-4.92-.89q-1.4,67.09-2.78,134.18-.82,39.42-1.63,78.85c-.11,5.46,0,11-.34,16.44-.56,9.49-13.15,15.95-20.41,19.72-20.91,10.86-45,16.1-68.31,17.92-26.91,2.1-54.55-.31-80.38-8.36A134.49,134.49,0,0,1,217,473.05c-5.42-3.11-11.51-6.88-15-12.25-2.34-3.61-1.76-8.16-1.86-12.29q-1.83-81-3.69-162.07-.67-29.1-1.33-58.19c-.27-11.69,7.72-22.33,14.48-31.21a264.87,264.87,0,0,1,20.6-23.68c6.14-6.37,11-11.66,11.09-21.06.06-5.68,0-11.36,0-17l-2.1,1.34H376.05l-2.82-2.23c0,6-.07,11.93,0,17.89.12,9.85,5.78,15.31,12,22.06a232.16,232.16,0,0,1,20.89,25.43c5.3,7.64,11.3,16.72,11.54,26.33C417.76,228.27,422.68,228.6,422.62,226Z"/><path class="cls-9" d="M375.81,111.11H239.54v18.2a2,2,0,0,0,0,.34,2.11,2.11,0,0,0,0,.35v.3h0c1.82,6.65,31.51,11.94,67.88,11.94s66.05-5.29,67.87-11.94h.48Z"/><path class="cls-2" d="M375.19,108.87H238.93a1.34,1.34,0,0,0-1.39,1.52v19.19c0,1.21,1.3,2.95,2.61,2.95h0l-2.51-2.39c2.49,7.15,13.45,8.84,19.73,10.14,15.93,3.3,32.48,4.1,48.72,4.19,16.43.08,33.09-.64,49.3-3.51,5.86-1,19.42-2.44,21.86-9.43l-1.35,1h.48A1.33,1.33,0,0,0,377.8,131V111.83c0-2.14-4-4.48-4-1.44v19.19l1.38-1.51h-.47a1.27,1.27,0,0,0-1.35,1c-.83,2.38-4.95,3.58-7,4.31a85.48,85.48,0,0,1-13.75,3.3c-14.44,2.49-29.19,3.25-43.82,3.32a296.3,296.3,0,0,1-43.35-2.6A106.18,106.18,0,0,1,249.16,134c-1.76-.54-7.09-1.9-7.67-3.58-.36-1-1.28-2.39-2.52-2.39h0l2.61,3V111.83l-1.39,1.51H376.42C379.15,113.34,377.28,108.87,375.19,108.87Z"/><ellipse class="cls-9" cx="307.46" cy="110.51" rx="67.96" ry="12.58"/><path class="cls-2" d="M373.06,110.17c-.27,3.64-11,5.53-13.44,6.11-10,2.35-20.43,3.34-30.7,4-23.05,1.47-46.87,1.24-69.64-3a76.66,76.66,0,0,1-11.2-2.77c-1.34-.47-5.67-1.57-6.1-3.23-.82-3.14,8.73-5.35,10.64-5.86,20.79-5.64,43.71-5.8,65.08-5.24a243.35,243.35,0,0,1,37.93,3.55c2.67.49,17.13,2.41,17.43,6.43.19,2.48,4.93,3.63,4.71.69-.4-5.31-7.6-7.58-11.76-8.85-10.66-3.26-22-4.44-33.07-5.28-26.46-2-54.78-2.17-80.73,4.12-4.28,1-13.51,2.81-14.91,8.07-1.33,5,5.4,7.9,9,9.22,9.71,3.61,20.5,4.78,30.73,5.74A343.07,343.07,0,0,0,321.41,125c13.8-.51,27.83-1.56,41.29-4.82,4.72-1.15,14.6-3.07,15.07-9.32C378,108.37,373.29,107.21,373.06,110.17Z"/><path class="cls-3" d="M307.05,141.33c-34.83,0-63.84-6.21-70.19-14.43a5.54,5.54,0,0,0-1.31,3.39c0,9.85,32,17.82,71.5,17.82s71.51-8,71.51-17.82a5.54,5.54,0,0,0-1.31-3.39C370.89,135.12,341.89,141.33,307.05,141.33Z"/><path class="cls-2" d="M306.92,139.29c-14.62,0-29.35-1-43.71-3.82-7.62-1.51-19-3.32-24.26-9.73a2.8,2.8,0,0,0-4.31.27c-10.94,16.92,37.64,22.06,44.87,22.8a274.62,274.62,0,0,0,49.58.49c13-1,26.55-2.7,38.77-7.4,6.62-2.54,16.9-7.77,11.48-16.16-1-1.56-3.37-.87-4.31.27-5.23,6.32-16.89,8.07-24.38,9.55-14.37,2.83-29.11,3.68-43.73,3.73-3.16,0-2.86,4.09.26,4.08,16-.05,32.14-1.11,47.8-4.54,8.27-1.81,18.8-4.17,24.49-11l-4.31.28c5.16,8-16.75,12.57-20.9,13.51-15.45,3.49-31.54,4.5-47.34,4.5s-31.86-1.1-47.33-4.58c-4.42-1-25.8-5.53-20.51-13.71l-4.31.28c5.64,6.81,16.43,9.05,24.6,10.85,15.65,3.43,31.83,4.4,47.81,4.45C310.34,143.38,310,139.3,306.92,139.29Z"/><path class="cls-4" d="M409,238.52c0-15.51-206-15.07-206,0,0,0,4.75,207.82,4.75,208.21,0,12.4,41.59,35.47,98.49,35.47s98.49-23.07,98.49-35.47C404.72,446.24,409,238.52,409,238.52Z"/><ellipse class="cls-10" cx="305.71" cy="236.4" rx="102.5" ry="22.89"/><path class="cls-11" d="M411.07,242.22c0,7.25-19.33,10.51-48.47,14.15-16.31,2-35.69,6.34-56.49,6.34-23.9,0-45.94-6.24-63.59-8.87-25.14-3.74-41.37-5-41.37-11.62,0-11.32,47-20.5,105-20.5S411.07,230.9,411.07,242.22Z"/><rect class="cls-11" x="200.83" y="221.4" width="211.24" height="27.18" rx="10.43" ry="10.43"/><path class="cls-12" d="M411.85,229.36c0,8.55-19.87,12.93-49.7,17.13-16,2.26-35,6.69-55.26,6.69-23.39,0-45-6.42-62.45-9.36-25.79-4.33-42.5-6.61-42.5-14.46,0-13.15,47-23.81,105-23.81S411.85,216.21,411.85,229.36Z"/><path class="cls-6" d="M365.8,256.47S398.53,346.74,329,478.12c0,0,66.24-7,75.74-33.39l4.09-201.59c.8,2.62-4.12,5.59-11.31,7.82C387.93,253.92,374.42,255.84,365.8,256.47Z"/><path class="cls-8" d="M211,204.58l7.18,234a12.45,12.45,0,0,0,5.13,9.3c5,3.9,13.36,9.52,23.11,12.51,2.84.87,5.53-1.23,4.47-3.52-16.91-36.59-18.19-245.67-5.71-249.36C245.16,207.54,220.11,200.88,211,204.58Z"/></svg>