<svg id="Layer_1" data-name="Layer 1" xmlns="http://www.w3.org/2000/svg" viewBox="0 0 558.85 512.17"><defs><style>.cls-1{fill:#231f20;}.cls-2{fill:#666766;}.cls-3{fill:#e5e5e5;stroke:#231f20;stroke-miterlimit:10;stroke-width:3px;}</style></defs><title>makeyouown</title><path class="cls-1" d="M311.75,221.6l-66.92,55.78c-21.86,18.23-43.48,36.88-66.94,53.05-2.64,1.81-.14,6.15,2.52,4.31,23.27-16,44.75-34.48,66.44-52.56l68.44-57.05c2.47-2.06-1.08-5.58-3.54-3.53Z"/><path class="cls-2" d="M301.14,225.25c-6.49-8.11-11.3-23-8-31,2.43-5.89,7.74-10,12.74-13.93,28.36-22.31,53.21-47.49,78.15-73.56C391.43,99,412.89,86.69,416.68,89c21.78,13.45,50.82,42.91,49.42,47.74-2.59,8.91-2.59,8.12-10.23,15.72-18.13,18-77.88,67.65-92,77.13-11.55,7.77-20.41,17.82-34.94,15s-38.26-28.41-36.68-43.12"/><path class="cls-1" d="M303.3,224c-5.22-6.81-9.64-16.62-8.66-25.41,1.15-10.39,14.39-17.45,21.67-23.47a675.42,675.42,0,0,0,50.06-46.53c7.35-7.44,14.22-15.8,22.18-22.6a87.44,87.44,0,0,1,19.59-12.37c1.82-.84,5.17-2.76,7.33-2.37,2.61.47,6.78,4.48,9.07,6.17a220.76,220.76,0,0,1,20.4,17.24,145.35,145.35,0,0,1,15.18,16.11c1.16,1.48,2.75,3.26,3.34,5.08a3.71,3.71,0,0,1,.22.74c-.21-1.47-.44,1.06-.59,1.54a22.15,22.15,0,0,1-2,5.11c-2.92,4.86-8.37,8.9-12.53,12.77-4.55,4.24-9.2,8.38-13.88,12.49-21.45,18.83-43.3,37.46-66.09,54.64-5.38,4.05-10.89,7.94-16.35,11.87-8.29,6-17.78,10.2-27.75,5.5-7.77-3.67-14.45-10.08-19.84-16.67-4.95-6-10.51-14.1-9.9-22.3.24-3.21-4.76-3.19-5,0-1.13,15.24,13.88,30.69,25.12,38.92,6.4,4.68,13.5,7.86,21.6,7,10-1,17.71-7.85,25.52-13.5,24.49-17.7,47.68-37.19,70.51-57,10.5-9.1,22.17-18.21,31.15-28.88,3-3.61,6.19-10,4.18-14.64-2.32-5.34-7.23-10.05-11.16-14.2a232.88,232.88,0,0,0-20.87-19.35c-3.56-2.93-7.2-5.76-11-8.44-2.56-1.83-5.87-5-9.17-5.24-6.09-.51-13.57,4.61-18.48,7.57a97.25,97.25,0,0,0-20.15,16.58c-20.51,21.32-41.47,42.3-64.29,61.17-8.36,6.9-21.37,14-23,25.85-1.38,10,3.25,21.3,9.21,29.08,1.93,2.52,6.28,0,4.32-2.52Z"/><path class="cls-3" d="M440.09,151.46l-92,80.63c-.08.08-.21.07-1.28-1L311,190.24c.93.92.94.79,1,.72l92-80.63a.19.19,0,0,1,.28,0l35.78,40.84A.2.2,0,0,1,440.09,151.46Z"/><path class="cls-1" d="M358.84,189.06c-1.15,1.24-11.22,8.78-10.79,4,.18-2,3-4.53,4.38-6,.71-.73,1.46-1.44,2.25-2.11a2.41,2.41,0,0,1,3.17-1.29c1.21-.26,1.59.08,1.12,1,.47,1.67-1.1,5.73-1.43,7.43-.41,2.19-1,4.4-1.27,6.61s0,4.66,2.55,5.46c4.87,1.55,11.6-5.72,12.72-9.84.62-2.25.4-5.48-1.88-6.77-3-1.69-7.71,1.28-10.47,2.26-3,1.08-1.71,5.91,1.33,4.82l4.18-1.48,1.68-.6c1-.54,1.11-.4.34.44-.09,1.46-3.52,5.39-5,5.44-.75,0-.5.65,0-1.7.23-1.1.42-2.21.64-3.31.52-2.73,1.22-5.49,1.58-8.25,1-7.8-6.39-8.88-11.62-4.74-4,3.15-12.76,11.22-8.67,17.1,4.48,6.44,15.21-1.23,18.72-5,2.18-2.36-1.35-5.9-3.54-3.53Z"/><path class="cls-1" d="M375.18,164.43c-6.58,2.8-13,8.77-12,16.57.84,6.5,6.73,11.72,13.39,9.82,6.49-1.86,13-9.1,12.25-16.12-.66-6.34-7.65-10.66-13.36-7.53-2.83,1.55-.3,5.86,2.52,4.32,2.34-1.29,4.92.54,5.69,2.8s-.39,4.73-1.65,6.5c-2.11,3-6.68,6.86-10.49,5-3.16-1.58-4.1-5.94-3-9,1.48-4,5.39-6.39,9.13-8,3-1.26.4-5.57-2.53-4.32Z"/><path class="cls-1" d="M382.06,160.08c-2.4.32-3.32-3.43-1-4.08a1.79,1.79,0,0,1,2.14.79c.25.6-.15,1.8-.9,1.88-2.21.26-2.24,3.76,0,3.5a5,5,0,0,0,4.38-5.91c-.56-2.8-3.59-4.25-6.24-3.71A5.58,5.58,0,0,0,376.3,159c.57,3.2,3.67,4.84,6.69,4.43a1.77,1.77,0,0,0,1.23-2.15,1.8,1.8,0,0,0-2.16-1.22Z"/><path class="cls-1" d="M388.89,150.49a109.45,109.45,0,0,0,11.27,11.82,2.52,2.52,0,0,0,4.18-2.43l-.18-.81c-.7-3.14-5.53-1.81-4.82,1.33l.18.81,4.18-2.43A110.52,110.52,0,0,1,392.42,147c-2-2.49-5.56,1.07-3.53,3.53Z"/><path class="cls-1" d="M392.61,149.1c3.18-2.59,6.29-5.28,9.3-8.07,2.38-2.18-1.17-5.71-3.53-3.53q-4.53,4.17-9.31,8.06c-2.49,2,1.06,5.55,3.54,3.54Z"/><path class="cls-1" d="M398.21,155.06q4-3.12,7.68-6.6c2.35-2.21-1.19-5.74-3.54-3.54s-5,4.52-7.68,6.61a2.51,2.51,0,0,0,0,3.53,2.56,2.56,0,0,0,3.54,0Z"/></svg>