<svg id="Layer_1" data-name="Layer 1" xmlns="http://www.w3.org/2000/svg" viewBox="0 0 311.45 453.6"><defs><style>.cls-1{fill:#666766;}.cls-2{fill:#231f20;}.cls-3,.cls-8{fill:#fff;}.cls-4{fill:#df8026;}.cls-5{fill:#e8e8e8;}.cls-6{opacity:0.05;}.cls-7{fill:#f49c53;}.cls-8{opacity:0.4;}</style></defs><title>makeyouown</title><ellipse class="cls-1" cx="173.81" cy="417.75" rx="90.35" ry="33.05"/><path class="cls-2" d="M62.79,168.9c3.22,0,3.22-5,0-5s-3.22,5,0,5Z"/><path class="cls-3" d="M62.79,166.4,81.93,401.15a25.47,25.47,0,0,0,11.15,19.1c11.9,8,34.42,18.68,69,18.68s57.26-10.83,69.21-18.82A25.44,25.44,0,0,0,242.51,401L261.63,166.4"/><path class="cls-2" d="M60.29,166.4l8.88,108.93c3.38,41.41,6.57,82.85,10.13,124.25,1,11.24,6.44,19.26,16,25.06,14.85,9,31.93,13.87,49.09,15.81,21.91,2.49,44.92.63,65.72-7,14-5.11,31.18-12.75,34.39-28.94,2.23-11.26,2.1-23.36,3-34.76l6-74.16,10.34-126.84.19-2.37c.27-3.21-4.74-3.19-5,0l-8.5,104.4-10.3,126.31c-.73,8.93-3.65,16.51-11.62,21.73-14.49,9.48-31.8,14.6-48.88,16.6C158,438,135,436.08,114.35,428.3c-12.95-4.88-28.32-12-29.94-27.42-3.86-36.6-6-73.47-9-110.15l-10-122.17-.18-2.16c-.26-3.19-5.26-3.22-5,0Z"/><path class="cls-4" d="M78.22,236.51l15.64,162.7c.54,5.55,4,10.6,9.44,13.7,10.07,5.72,29.12,13.4,58.4,13.4s48.44-7.77,58.54-13.5c5.47-3.09,8.94-8.15,9.47-13.71l15.65-162.76C235.25,236.34,78,233.86,78.22,236.51Z"/><ellipse class="cls-5" cx="162.11" cy="167.01" rx="99.37" ry="26.38"/><path class="cls-2" d="M259,167c-.28,7.84-13.86,12-19.61,14-14.57,4.9-30.08,7.16-45.34,8.53-34.48,3.11-71.75,2.62-105.19-7.27-6.85-2-20.47-5.53-23.26-13.36-2.57-7.22,9.74-12.17,14.53-14.09,13.7-5.47,28.73-7.93,43.31-9.56a353.48,353.48,0,0,1,56.44-1.66c18.43.89,37.14,2.9,54.91,8.07,6,1.73,12,3.79,17.28,7.06,2.93,1.8,6.79,4.51,6.93,8.33.11,3.21,5.11,3.22,5,0-.32-8.92-10.5-13.76-17.59-16.67-15.16-6.22-31.91-8.72-48.11-10.41a355.75,355.75,0,0,0-65.51-.63c-17.1,1.4-34.66,3.73-50.9,9.49-7.51,2.67-19.12,7-21.33,15.79-2.14,8.5,7,14.34,13.46,17.42,13.56,6.47,28.94,9.17,43.71,11.11a349,349,0,0,0,64.87,2.22c19.65-1.1,40-3.33,58.67-9.73,8.29-2.83,22.35-7.93,22.73-18.59C264.1,163.79,259.1,163.8,259,167Z"/><path class="cls-6" d="M175,425.42s39.7-57.79,37-189.41l33.31.37L229.71,399.1S231.6,419.13,175,425.42Z"/><ellipse class="cls-7" cx="161.51" cy="235.16" rx="83.24" ry="22.75"/><path class="cls-8" d="M86.6,204.65l18.35,195a10.82,10.82,0,0,0,4,7.4c3.57,2.9,9.48,7,16.17,8.78a2.36,2.36,0,0,0,2.79-3.26c-13.42-29.35-26.37-203.91-18.24-207.9C109.63,204.65,92.49,200.91,86.6,204.65Z"/></svg>