<svg id="Layer_1" data-name="Layer 1" xmlns="http://www.w3.org/2000/svg" viewBox="0 0 311.45 512.17"><defs><style>.cls-1{fill:#231f20;}.cls-2{fill:#f78f41;}</style></defs><title>makeyouown</title><path class="cls-1" d="M178.34,136.7a351.79,351.79,0,0,0-37.45-.85c-11.33.28-22.85.39-34,2.53-8.18,1.57-20.5,4.48-24.58,12.78-4.19,8.53,2.85,13.35,10,15.75,10.29,3.47,21.26,4.37,32,5,10.39.65,20.8,1.21,31.21,1.11,19.68-.2,40.16-2.93,57.21-13.47,3.05-1.89,7.63-4.46,7.84-8.58s-3.78-5.78-7-7.1c-11.28-4.62-22.63-7.36-34.86-7-3.21.1-3.23,5.1,0,5a70.88,70.88,0,0,1,24.69,3.49c1.87.61,3.72,1.28,5.56,2,1.1.43,2.19.86,3.28,1.31,1.82.77,1.94.37,2,2.39.1,3.14-7.58,6.27-10.26,7.59-14.73,7.21-31.46,9.11-47.66,9.34-16.45.22-33.63-.24-49.89-2.86-6-1-27.8-4.86-17.7-14.36,6.55-6.16,18.32-7.78,26.86-8.71a333,333,0,0,1,62.75-.41c3.21.26,3.19-4.74,0-5Z"/><path class="cls-1" d="M78.38,160.76c3.35,49.36,7.42,98.69,12.84,147.87q2,18.24,4.29,36.43c.45,3.62.47,7.45,2.23,10.73a30.46,30.46,0,0,0,6.93,8.08c5.76,5.07,12.86,9.68,20.39,11.53,9.38,2.31,19.78,3,29.41,3.13,22.19.31,42.27-6.68,60.77-18.67,2.69-1.75.19-6.08-2.52-4.32-15.95,10.34-33.21,17.25-52.37,17.93-17.73.64-37-.57-51.16-12.29-2.54-2.1-5.31-4.58-6.9-7.51-2.28-4.19-2-10.39-2.59-15.08q-2-16.38-3.8-32.79-3.74-34.28-6.66-68.63-3.3-38.17-5.86-76.41c-.21-3.19-5.22-3.22-5,0Z"/><path class="cls-1" d="M216.3,358.35c1.88-7.9,2.16-16.31,2.67-24.38.88-13.81,1.35-27.64,1.75-41.47.94-32.5,1.31-65,1.63-97.54q.19-21.54.39-43.09c0-3.22-5-3.22-5,0-.62,58.75-.22,117.63-3.43,176.3-.52,9.51-.61,19.54-2.83,28.85-.75,3.13,4.07,4.47,4.82,1.33Z"/><path class="cls-2" d="M90.93,201.57c5.53,3.55,12.36,4.25,18.9,4.86,28.6,2.64,58.11,5.19,85.47-3.57,5.67-1.81,11.24-4.12,17.14-5,2.34,18.8-1.57,140.85-2.43,146.21-2,12.47-16,14.8-27.56,19.89s-24.53,5.88-37.15,5.55c-13.32-.33-28.38-2.83-35.78-13.9-6.7-10-20.68-130.15-20.29-153.91"/></svg>