<svg id="Layer_1" data-name="Layer 1" xmlns="http://www.w3.org/2000/svg" viewBox="0 0 820.75 406.82"><defs><style>.cls-1{fill:#231f20;}</style></defs><title>makeyouown</title><path class="cls-1" d="M204.9,61.25a247.47,247.47,0,0,0,5.69,61c1.2,5.46,10.13,4.32,9.82-1.33l-.8-14.65c-.23-4.32-1.25-8.33,2.64-11.22,3.71-2.75,8.61-4.49,12.95-5.91,3.44-1.12,7.52-2.56,11.2-2,9.81,1.55,5.75,13.44,1.9,18.59-4,5.35-13.25,14.94-20.12,8.56-4.71-4.37-11.8,2.69-7.07,7.07,10.62,9.87,24.33,2.9,32.48-6.42,7.7-8.8,13.68-23,4-32.92s-26.09-3-36.27,2.06c-5.74,2.88-10.89,6.76-11.81,13.52-1,7.47.46,15.79.87,23.3l9.82-1.33a236.1,236.1,0,0,1-5.33-58.38c.21-6.43-9.79-6.43-10,0Z"/><path class="cls-1" d="M275.72,83.24A78.77,78.77,0,0,1,282,114.08l9.32-2.53c-3.3-6.51-.1-14.18,4.86-18.87,5.72-5.41,13.54-7.85,20.94-10,6.18-1.76,3.55-11.41-2.66-9.64C304.13,76,293.18,80,286.29,88.77c-6.31,8-8.26,18.58-3.58,27.83,2.3,4.53,9.32,2.25,9.32-2.52a86,86,0,0,0-6.67-33.5c-2.46-5.84-12.14-3.27-9.64,2.66Z"/><path class="cls-1" d="M321.05,98.51c7.71.56,16.2-.42,23.19-4,5.45-2.76,9.31-9.43,5-14.93-4.11-5.27-12.64-5.55-18.43-3.37a19.59,19.59,0,0,0-11.89,14c-3.18,13.84,7.44,26.47,20.47,29.79,15.35,3.92,25.42-7.2,33-18.86,3.54-5.41-5.12-10.42-8.63-5S356,108.41,349.5,110.45c-7.45,2.33-16.93-3-20-9.87-2.85-6.34,0-15.38,8-15.58a7.18,7.18,0,0,1,2.52.26q2.67,1,.38.06a21.11,21.11,0,0,1-5.46,2,40.64,40.64,0,0,1-13.85,1.16c-6.42-.46-6.39,9.54,0,10Z"/><path class="cls-1" d="M366.33,82.28c.63,8-2.29,16.08-.09,24,1.88,6.78,7.13,12,14.32,12.53,17.58,1.39,24-18.56,27.95-31.92,1.82-6.22-7.6-8.72-9.64-2.66-2.6,7.7-4.52,19.27.85,26.27,4.89,6.39,14.45,7.64,21.88,6.08,17.31-3.64,25-22.8,17.46-38.09-2.84-5.78-11.47-.71-8.64,5a16.33,16.33,0,0,1-10.11,23.07c-3.54,1-10,1.23-12.62-2-3.33-4.16-.64-13.37.82-17.69l-9.64-2.66c-2.31,7.88-5.93,24.91-16.93,24.66s-5.12-20.37-5.61-26.65-10.5-6.43-10,0Z"/><path class="cls-1" d="M105.26,149.82c1,9.08-2.13,17.94,3,26.29a29.76,29.76,0,0,0,21.24,13.23c20.29,2.46,28.07-21.3,31.07-37.08l-9.82-1.33c-.38,14.47-.7,29.07-3.42,43.33-1.13,5.89-2.21,14.1-5.71,19.13-3.87,5.55-11.4,3.49-16.47.9-5.72-2.93-10.78,5.7-5,8.63,6.64,3.39,14.57,5.49,21.79,2.64,7.6-3,10.39-10.5,12.5-17.79,5.32-18.42,5.86-37.81,6.36-56.84.14-5.52-8.75-7-9.82-1.33-1.9,10-6.29,31.33-20.1,29.86-5.75-.62-12-4.34-14.65-9.64-3-6-.28-13.58-1-20s-10.68-6.41-10,0Z"/><path class="cls-1" d="M190.66,164.82c1.92-1,5-3,6.85-.95.86,1,.8,2.72.57,3.86-.71,3.46-4.3,6.43-7,8.37-5.52,3.92-13.57,7-20.45,5.89-3.65-.56-5.8-2.77-3.1-6.31,2.19-2.89,6.1-4.76,9.17-6.5a97,97,0,0,1,23.44-9.42c6.21-1.64,3.58-11.29-2.66-9.65a109.37,109.37,0,0,0-21.92,8.33c-5.86,3-13.08,6.6-16.78,12.31-3.22,5-3.68,11.78.54,16.34,3.77,4.08,9.78,5.3,15.13,5,12.24-.77,27.11-7.24,32.34-19.1,2.34-5.28,1.92-11.82-2.16-16.18-5.4-5.78-12.8-3.78-19-.6-5.72,2.95-.67,11.58,5,8.64Z"/><path class="cls-1" d="M211,154.56c-1.76,8.48-2.29,17.69,2.06,25.53,3.47,6.24,10.26,11.19,17.55,11.36,7.65.17,14.24-4.8,17.58-11.45,4.15-8.28,2.77-17.71.37-26.27-1.74-6.19-11.39-3.56-9.64,2.66,1.52,5.41,3,11.51,1.19,17.06-1.35,4.1-4.8,8.28-9.5,8-11.63-.71-11.65-16.15-10-24.24,1.31-6.28-8.33-9-9.64-2.65Z"/><path class="cls-1" d="M254.9,154.91,260.81,189l9.64-2.66c-4-14.29,17.07-22.67,28.06-23.6,6.36-.54,6.42-10.54,0-10-17.7,1.5-43.75,14.63-37.7,36.26,1.76,6.3,10.72,3.58,9.64-2.66l-5.91-34.08c-1.1-6.33-10.73-3.64-9.64,2.66Z"/><path class="cls-1" d="M353.72,144.46c1.64,8.6.33,17.32-.65,25.93-.81,7.19-2.57,16.74.69,23.58,7,14.74,28.26,1.57,36.12-5.31,4.85-4.25-2.25-11.3-7.07-7.07A38.11,38.11,0,0,1,367.46,190c-2.51.64-4.38,1-5.11-1.82s-.24-6.62-.05-9.57c.76-12.43,3.43-24.41,1.06-36.84-1.21-6.32-10.85-3.64-9.64,2.66Z"/><path class="cls-1" d="M333.6,170.23l48.14-7.82c6.33-1,3.64-10.66-2.66-9.64l-48.14,7.81c-6.34,1-3.65,10.67,2.66,9.65Z"/><path class="cls-1" d="M384.87,172.78a118.19,118.19,0,0,0,26.79-3.87c5.88-1.58,16.17-3.3,18.2-10.22,2.13-7.28-5.39-10.61-11.38-10.15a20.41,20.41,0,0,0-15.78,10.25c-7.2,12.8,1.64,28.37,14.74,32.49,15.12,4.76,29.53-4.17,37.86-16.34,3.65-5.33-5-10.33-8.63-5.05-4.91,7.18-12.62,13.11-21.73,12.62-7.81-.41-15.84-6.56-14.75-15.17a10.41,10.41,0,0,1,7-8.41c.32-.1,4-.34,4-.36q-.68-4-3.41-2.07c-1.16.42-2.32.82-3.49,1.2a106.22,106.22,0,0,1-29.43,5.08c-6.41.21-6.44,10.21,0,10Z"/><path class="cls-1" d="M481,149.71a33.3,33.3,0,0,0-26.47,9.36c-6.69,6.55-11.69,17.87-6.05,26.59,5.4,8.34,17.26,8.35,25.09,3.83,9.87-5.69,14.1-16.71,15.58-27.47.69-5-4.28-8.16-8.35-4.86-13,10.56-7.95,30.57,6.27,37.19,14,6.54,35.63-.48,37.35-17.44.65-6.4-9.35-6.35-10,0-1,9.76-16.78,11.69-23.63,8.16-8.22-4.25-10.39-14.8-2.92-20.84l-8.36-4.87c-.92,6.67-2.48,13.82-7.42,18.75-3.5,3.48-13,7.79-15.75,1.06-2.28-5.58,4-12.55,8.12-15.42a24,24,0,0,1,16.54-4c6.39.66,6.35-9.35,0-10Z"/><path class="cls-1" d="M469.49,64.47l-.05-9.34c0-1.66-.79-6.71.09-8.07l-2.16,1.24-.91-.43-.65-2.44-.07.4c-.6,3.14,4.22,4.49,4.82,1.33a3.05,3.05,0,0,0-5.75-2c-1,2.09-.4,5.55-.38,7.81l.06,11.5c0,3.21,5,3.22,5,0Z"/><path class="cls-1" d="M489.86,69.72c5.6-5.9,10.91-12.06,16.5-17.95,2.22-2.34-1.31-5.88-3.53-3.54-5.6,5.9-10.91,12.05-16.51,18-2.21,2.33,1.32,5.88,3.54,3.54Z"/><path class="cls-1" d="M508.26,73.1q13.14-3.6,25.88-8.39c3-1.12,1.69-6-1.33-4.82q-12.75,4.8-25.88,8.39c-3.1.85-1.78,5.67,1.33,4.82Z"/><path class="cls-1" d="M105.14,39.76a134.06,134.06,0,0,0,20.91,16.7c2.71,1.75,5.22-2.58,2.52-4.32a127.61,127.61,0,0,1-19.9-15.92c-2.3-2.25-5.84,1.28-3.53,3.54Z"/><path class="cls-1" d="M77,50.48A52.58,52.58,0,0,0,97,63.87c3,1.15,4.3-3.68,1.32-4.82A47.13,47.13,0,0,1,80.53,46.94c-2.2-2.36-5.73,1.18-3.54,3.54Z"/><path class="cls-1" d="M55,67.73,95.5,80.5c3.07,1,4.39-3.86,1.33-4.83L56.32,62.9c-3.08-1-4.39,3.86-1.33,4.83Z"/><path class="cls-1" d="M354.2,229.86a115.67,115.67,0,0,1-10.8,25.41c-1.61,2.8,2.71,5.32,4.32,2.52A121.71,121.71,0,0,0,359,231.18c.9-3.09-3.93-4.41-4.83-1.32Z"/><path class="cls-1" d="M373.83,232a101,101,0,0,0,6.87,27.3c1.2,2.93,6,1.65,4.82-1.33a96.43,96.43,0,0,1-6.69-26c-.35-3.16-5.35-3.2-5,0Z"/><path class="cls-1" d="M400.81,241.45A113.55,113.55,0,0,0,413,264.92c1.79,2.64,6.13.15,4.31-2.53a108.3,108.3,0,0,1-11.64-22.27c-1.13-3-6-1.69-4.82,1.33Z"/></svg>