<svg id="Layer_1" data-name="Layer 1" xmlns="http://www.w3.org/2000/svg" viewBox="0 0 311.45 269.67"><defs><style>.cls-1{fill:#666766;}.cls-2,.cls-8{fill:#fff;}.cls-3{fill:#231f20;}.cls-4{fill:#e8e8e8;}.cls-5{fill:#addef8;}.cls-6{fill:#d9f1fb;}.cls-7{opacity:0.03;}.cls-8{opacity:0.25;}</style></defs><title>makeyouown</title><ellipse class="cls-1" cx="121.1" cy="247.14" rx="76.3" ry="21.52"/><path class="cls-2" d="M188.68,143.52H24.52L48,245.11h.23c.13,4.13,26.21,16.28,58.37,16.28s58.24-12.15,58.37-16.28h.31Z"/><path class="cls-3" d="M189.2,142.22H25.05c-.63,0-3.3.31-3,1.57L42.5,232.48l3,12.9c.19.79,1.27,1,2,1h.23l-2-1c.33,2.27,3.33,3.88,5.06,4.9a69.35,69.35,0,0,0,12.94,5.61,136.36,136.36,0,0,0,86.63-.53c4.19-1.48,16.26-4.88,17.09-10.52l-3,1.58h.3c.8,0,2.73-.2,3-1.23l20.46-88.69,3-12.89c.45-2-4.49-1.8-4.87-.17l-20.46,88.69-3,12.9,3-1.22h-.31c-1.07,0-2.82.26-3,1.57-.25,1.71-4,3.31-5.27,4a73.53,73.53,0,0,1-12.72,5.08A127.84,127.84,0,0,1,67,253.7a69,69,0,0,1-11.4-4.78c-1.37-.76-4.68-2.26-4.95-4.08-.11-.79-1.32-1-2-1h-.22l1.95,1L30,156.15l-3-12.9-3,1.58H188.15C190.51,144.83,192.58,142.22,189.2,142.22Z"/><ellipse class="cls-4" cx="106.62" cy="144.08" rx="81.43" ry="10.47"/><path class="cls-3" d="M185.74,144.82c-.34,3.81-15.66,4.84-18.25,5.2a379.76,379.76,0,0,1-38.72,3c-27.63.93-56,.81-83.37-3.5A83.8,83.8,0,0,1,33.55,147c-1.37-.43-5.39-1.39-5.85-3.11-1-3.58,11.66-4.72,13.85-5.08,27.53-4.52,56.19-4.54,84-3.6a346.15,346.15,0,0,1,42.3,3.5c3.16.49,17.47,1.6,17.91,6.38.07.76,4.74-.49,4.6-1.95-.41-4.54-12.49-5.76-15.55-6.31-14.12-2.56-28.6-3.41-42.92-4-30.41-1.18-62.26-1.5-92.27,4.32-3.85.75-14.91,2.18-16.52,6.91-1.49,4.38,8.88,6,11.39,6.52,12.75,2.82,26,3.68,39,4.38,17.45.94,35,1.05,52.44.46,15.73-.53,31.68-1.39,47.17-4.33,3.6-.68,16.74-2.43,17.22-7.75C190.46,142.21,185.86,143.55,185.74,144.82Z"/><polygon class="cls-4" points="293.81 143.06 190.58 143.06 174.95 138.47 278.19 138.47 293.81 143.06"/><path class="cls-3" d="M295.36,142.1H195c-.8,0-1.64.06-2.44,0-.15,0-.3,0-.44,0,1.51.18-.64-.3-.94-.4-4.6-1.53-9.34-2.75-14-4.11l-3.8,1.85H273.75c.8,0,1.63-.07,2.44,0,.14,0,.29,0,.44,0-1.52-.18.63.29.93.39,4.61,1.53,9.34,2.75,14,4.12,1.34.39,4.7-1.71,4.5-1.77-5.52-1.62-11.48-4.35-17.22-4.68-6.4-.37-12.93,0-19.34,0h-83c-.68,0-4.39,1.68-3.8,1.85,5.52,1.63,11.48,4.35,17.23,4.68,6.39.37,12.92,0,19.33,0h83C293.21,144,297.63,142.1,295.36,142.1Z"/><rect class="cls-2" x="187.41" y="143.33" width="106.23" height="8.26"/><path class="cls-3" d="M185.63,152.86H291.85c.87,0,4.06-.91,4.06-2.11v-8.26c0-.31-.15-.43-.48-.43H189.2c-.86,0-4,.92-4,2.12v8.26c0,1.11,4.53-.49,4.53-1.69v-8.26l-4.05,2.11h98.72c2,0,5-.57,6.91,0,1,.29.06-.79.11.69.1,2.38,0,4.77,0,7.15l4.06-2.12H189.2C188.05,150.32,184.3,152.86,185.63,152.86Z"/><path class="cls-5" d="M176.13,166.34H39.32l19.53,75.34H59c.11,3.07,21.85,12.08,48.65,12.08s48.54-9,48.65-12.08h.26Z"/><rect x="92.55" y="173.91" width="29.47" height="3.07"/><rect x="98.75" y="190.26" width="17.07" height="3.07"/><rect x="98.75" y="222.97" width="17.07" height="3.07"/><rect x="92.55" y="206.62" width="29.47" height="3.07"/><rect x="92.55" y="239.32" width="29.47" height="3.07"/><ellipse class="cls-6" cx="107.88" cy="165.54" rx="68.39" ry="8.76"/><path class="cls-7" d="M153.73,172.09s20.2-1.06,22.53-6.55L156.6,241.68s-1.43,2.5-9.9,5.56c-2.27.82-5.7,2-9.35,2.89-2.87.72-5.88,1.21-8.51,1.77C128.84,251.9,156.49,199.33,153.73,172.09Z"/><path class="cls-8" d="M52.18,157.3a8.9,8.9,0,0,0-4.37-.8c-2.45.23-3.88,3.85-3,7.46l14.84,61.12c1.85,7.59,5.78,14.07,10.79,17.19l.76.44a37.66,37.66,0,0,0,5.52,2.52l0,0c2,.7,3.38-2.34,2.32-5.06C73.45,225.57,60,189,56.64,164.61,56.17,161.2,54.43,158.29,52.18,157.3Z"/></svg>